<svg width="37" height="37" viewBox="0 0 37 37" xmlns="http://www.w3.org/2000/svg">
<path d="M36.4219 18.5C36.4219 8.59961 28.4004 0.578125 18.5 0.578125C8.59961 0.578125 0.578125 8.59961 0.578125 18.5C0.578125 28.4004 8.59961 36.4219 18.5 36.4219C28.4004 36.4219 36.4219 28.4004 36.4219 18.5ZM18.5 34.1094C9.92207 34.1094 2.89062 27.1646 2.89062 18.5C2.89062 9.92207 9.83535 2.89062 18.5 2.89062C27.0779 2.89062 34.1094 9.83535 34.1094 18.5C34.1094 27.0779 27.1646 34.1094 18.5 34.1094ZM17.5967 27.4248L9.27891 19.1143C8.93926 18.7746 8.93926 18.2254 9.27891 17.8857L17.5967 9.5752C17.9363 9.23555 18.4855 9.23555 18.8252 9.5752L19.3238 10.0738C19.6635 10.4135 19.6635 10.9771 19.3094 11.3096L13.1307 17.2715H26.8828C27.3598 17.2715 27.75 17.6617 27.75 18.1387V18.8613C27.75 19.3383 27.3598 19.7285 26.8828 19.7285H13.1307L19.3166 25.6904C19.6635 26.0301 19.6707 26.5865 19.3311 26.9262L18.8324 27.4248C18.4855 27.7645 17.9363 27.7645 17.5967 27.4248Z" fill="currentColor"/>
</svg>
