<svg width="14" height="11" viewBox="0 0 14 11" xmlns="http://www.w3.org/2000/svg">
<path id="Icon (Stroke)" fill-rule="evenodd" clip-rule="evenodd" d="M0 2.30913C0 1.08655 0.991095 0.095459 2.21367 0.095459H11.7863C13.0089 0.095459 14 1.08655 14 2.30913V8.6909C14 9.91348 13.0089 10.9046 11.7863 10.9046H2.21367C0.991095 10.9046 0 9.91348 0 8.6909V2.30913ZM1.24813 2.15764C1.24045 2.20701 1.23646 2.2576 1.23646 2.30913V8.6909C1.23646 9.2306 1.67397 9.66811 2.21367 9.66811H11.7863C12.326 9.66811 12.7635 9.2306 12.7635 8.6909V2.30913C12.7635 2.2576 12.7596 2.20701 12.7519 2.15764C12.7075 2.25951 12.6352 2.35068 12.5371 2.41858L7.80597 5.69396C7.32109 6.02965 6.67891 6.02965 6.19403 5.69396L1.46291 2.41858C1.36484 2.35068 1.29249 2.25951 1.24813 2.15764ZM2.06223 1.34358C2.09821 1.35934 2.13321 1.37877 2.16672 1.40197L6.89783 4.67736C6.9593 4.71991 7.0407 4.71991 7.10217 4.67736L11.8333 1.40197C11.8668 1.37877 11.9018 1.35934 11.9378 1.34358C11.8884 1.3359 11.8378 1.33192 11.7863 1.33192H2.21367C2.16217 1.33192 2.11159 1.3359 2.06223 1.34358Z" fill="currentColor"/>
</svg>
