<svg width="10" height="20" viewBox="0 0 10 20" xmlns="http://www.w3.org/2000/svg">
<path d="M9.76231 8.16461L9.448 10.8038C9.43443 10.9264 9.37594 11.0396 9.28381 11.1216C9.19167 11.2036 9.07243 11.2486 8.94909 11.2478H6.20513V19.0806C6.20579 19.1741 6.16945 19.2641 6.10403 19.331C6.0386 19.3978 5.9494 19.436 5.85589 19.4373H3.05954C3.01302 19.4367 2.96709 19.4269 2.92436 19.4085C2.88163 19.3901 2.84295 19.3634 2.81052 19.3301C2.77809 19.2967 2.75255 19.2573 2.73535 19.2141C2.71816 19.1708 2.70965 19.1246 2.71031 19.0781L2.72527 11.2478H0.647341C0.515024 11.2478 0.388125 11.1953 0.294563 11.1017C0.201 11.0081 0.148438 10.8812 0.148438 10.7489V8.10973C0.148438 7.97741 0.201 7.85052 0.294563 7.75696C0.388125 7.66339 0.515024 7.61083 0.647341 7.61083H2.7128V5.05146C2.7128 2.09046 4.47393 0.479004 7.05326 0.479004H9.16612C9.29844 0.479004 9.42533 0.531566 9.5189 0.625129C9.61246 0.718692 9.66502 0.84559 9.66502 0.977907V3.20052C9.66502 3.33284 9.61246 3.45974 9.5189 3.5533C9.42533 3.64686 9.29844 3.69943 9.16612 3.69943H7.87146C6.46954 3.72188 6.20513 4.3929 6.20513 5.3957V7.60335H9.27588C9.34593 7.60455 9.41495 7.62049 9.47844 7.65014C9.54193 7.67979 9.59845 7.72248 9.64434 7.77543C9.69023 7.82838 9.72445 7.8904 9.74478 7.95746C9.7651 8.02451 9.77108 8.09509 9.76231 8.16461Z" fill="currentColor"/>
</svg>
