<svg width="18" height="18" viewBox="0 0 18 18" xmlns="http://www.w3.org/2000/svg">
<path id="Icon" d="M8.80488 16.8048C4.49436 16.8048 1 13.3105 1 8.99994C1 4.68943 4.49436 1.19507 8.80488 1.19507C12.0804 1.19507 14.8846 3.21279 16.0424 6.07312M1.97561 11.9268H4.25203C5.15006 11.9268 5.87805 11.1988 5.87805 10.3008V8.18694C5.87805 7.28891 6.60604 6.56092 7.50406 6.56092H9.13008C10.0281 6.56092 10.7561 5.83293 10.7561 4.93491V2.17068M13.878 12.1219V12.0632M17 12.054C17 14.0901 13.878 16.8048 13.878 16.8048C13.878 16.8048 10.7561 14.0901 10.7561 12.054C10.7561 10.3673 12.1538 8.99995 13.878 8.99995C15.6023 8.99995 17 10.3673 17 12.054Z" stroke="currentColor" stroke-width="1.6" stroke-linecap="round" stroke-linejoin="round" fill="none"/>
</svg>
