<svg width="12" height="12" viewBox="0 0 12 12" xmlns="http://www.w3.org/2000/svg">
<path fill-rule="evenodd" clip-rule="evenodd" d="M10.0672 1.13214L8.03743 1.13224C7.72481 1.13225 7.47138 0.878843 7.47136 0.566229C7.47135 0.253615 7.72476 0.000179456 8.03737 0.000164341L11.4339 6.67857e-10C11.5841 -7.28684e-06 11.728 0.0596255 11.8342 0.165779C11.9404 0.271932 12 0.41591 12 0.566038V3.62272C12 3.93534 11.7466 4.18876 11.434 4.18876C11.1213 4.18876 10.8679 3.93534 10.8679 3.62272V1.93246L6.06011 6.73973C5.83904 6.96077 5.48065 6.96075 5.25961 6.73968C5.03857 6.51862 5.03859 6.16022 5.25965 5.93919L10.0672 1.13214ZM2.60377 1.13208C1.79098 1.13208 1.13208 1.79098 1.13208 2.60377V9.39629C1.13208 10.2091 1.79098 10.868 2.60377 10.868H9.39622C10.209 10.868 10.8679 10.2091 10.8679 9.39629V6.67925C10.8679 6.36663 11.1213 6.11321 11.434 6.11321C11.7466 6.11321 12 6.36663 12 6.67925V9.39629C12 10.8343 10.8343 12.0001 9.39622 12.0001H2.60377C1.16575 12.0001 0 10.8343 0 9.39629V2.60377C0 1.16575 1.16575 4.73007e-07 2.60377 4.73007e-07H5.32075C5.63337 4.73007e-07 5.88679 0.253424 5.88679 0.566038C5.88679 0.878652 5.63337 1.13208 5.32075 1.13208H2.60377Z" fill="currentColor"/>
</svg>
