<svg width="20" height="20" viewBox="0 0 20 20" xmlns="http://www.w3.org/2000/svg">
<path d="M5.80362 3.06582C5.80411 3.57815 5.65261 4.07911 5.36828 4.5053C5.08395 4.93149 4.67958 5.26376 4.20635 5.46005C3.73311 5.65633 3.21228 5.70782 2.70977 5.60799C2.20726 5.50816 1.74566 5.2615 1.38339 4.89923C1.02112 4.53696 0.774462 4.07536 0.674632 3.57285C0.574803 3.07034 0.62629 2.54951 0.822578 2.07628C1.01887 1.60304 1.35113 1.19867 1.77732 0.914343C2.20351 0.630016 2.70448 0.478512 3.2168 0.479005C3.90267 0.479666 4.56025 0.752416 5.04523 1.23739C5.53021 1.72237 5.80296 2.37996 5.80362 3.06582Z" fill="currentColor"/>
<path d="M4.57604 6.73291H1.85203C1.49796 6.73291 1.21094 7.01994 1.21094 7.374V18.7964C1.21094 19.1505 1.49796 19.4375 1.85203 19.4375H4.57604C4.93011 19.4375 5.21713 19.1505 5.21713 18.7964V7.374C5.21713 7.01994 4.93011 6.73291 4.57604 6.73291Z" fill="currentColor"/>
<path d="M19.4611 13.3185V18.8489C19.4611 19.005 19.3991 19.1547 19.2887 19.2651C19.1783 19.3755 19.0285 19.4376 18.8724 19.4376H15.9488C15.7927 19.4376 15.643 19.3755 15.5325 19.2651C15.4221 19.1547 15.3601 19.005 15.3601 18.8489V13.4906C15.3601 12.6899 15.5921 9.99831 13.2697 9.99831C11.4687 9.99831 11.102 11.8492 11.0246 12.6799V18.8613C11.0214 19.0144 10.9586 19.1603 10.8497 19.2678C10.7407 19.3754 10.5941 19.4363 10.4409 19.4376H7.61215C7.53475 19.4379 7.45805 19.4229 7.38647 19.3934C7.3149 19.364 7.24987 19.3206 7.19514 19.2659C7.1404 19.2111 7.09705 19.1461 7.06758 19.0745C7.03811 19.003 7.02311 18.9263 7.02344 18.8489V7.32419C7.02311 7.24667 7.0381 7.16985 7.06754 7.09814C7.09698 7.02642 7.14029 6.96123 7.19499 6.9063C7.24969 6.85137 7.3147 6.80778 7.38628 6.77804C7.45787 6.7483 7.53463 6.73299 7.61215 6.73299H10.4409C10.5194 6.73166 10.5974 6.74598 10.6702 6.77509C10.7431 6.80421 10.8095 6.84755 10.8654 6.90258C10.9214 6.95761 10.9658 7.02323 10.9962 7.09562C11.0265 7.168 11.0421 7.24571 11.0421 7.32419V8.322C11.7106 7.32419 12.7035 6.5459 14.8163 6.5459C19.4885 6.5434 19.4611 10.9163 19.4611 13.3185Z" fill="currentColor"/>
</svg>
