<svg width="50" height="30" viewBox="0 0 50 30" xmlns="http://www.w3.org/2000/svg">
<path fill-rule="evenodd" clip-rule="evenodd" d="M0 2C0 0.895431 0.895432 0 2 0H48C49.1046 0 50 0.895431 50 2C50 3.10457 49.1046 4 48 4H2C0.89543 4 0 3.10457 0 2ZM0 15C0 13.8954 0.895432 13 2 13H48C49.1046 13 50 13.8954 50 15C50 16.1046 49.1046 17 48 17H2C0.89543 17 0 16.1046 0 15ZM50 28C50 26.8954 49.1046 26 48 26H2C0.89543 26 0 26.8954 0 28C0 29.1046 0.895432 30 2 30H48C49.1046 30 50 29.1046 50 28Z" fill="currentColor"/>
</svg>
