<svg width="19" height="18" viewBox="0 0 19 18" xmlns="http://www.w3.org/2000/svg">
<path id="Vector" d="M17.8062 15.0279C17.8062 15.0279 16.718 16.0411 16.4513 16.3381C16.0169 16.7775 15.505 16.985 14.834 16.985C14.7694 16.985 14.7006 16.985 14.6361 16.981C13.3586 16.9037 12.1714 16.4317 11.281 16.0289C8.84637 14.914 6.70856 13.3312 4.93207 11.3253C3.46529 9.65301 2.48456 8.10686 1.83505 6.44678C1.43501 5.43364 1.28876 4.64428 1.35329 3.89969C1.3963 3.42364 1.58986 3.02896 1.94688 2.69125L3.41367 1.30378C3.62444 1.11661 3.84811 1.01489 4.06749 1.01489C4.33848 1.01489 4.55785 1.16951 4.6955 1.29971C4.6998 1.30378 4.7041 1.30785 4.7084 1.31192C4.97079 1.54384 5.22027 1.7839 5.48266 2.04024C5.616 2.17044 5.75365 2.30064 5.89129 2.43491L7.06558 3.5457C7.52153 3.977 7.52153 4.37574 7.06558 4.80704C6.94084 4.92503 6.8204 5.04303 6.69566 5.15696C6.33434 5.50687 6.61818 5.23839 6.24395 5.55575C6.23535 5.56389 6.22675 5.56796 6.22245 5.5761C5.85252 5.92602 5.92135 6.2678 5.99877 6.49972C6.00307 6.51193 6.00737 6.52413 6.01168 6.53634C6.31708 7.23618 6.74722 7.89533 7.40104 8.68061L7.40534 8.68468C8.59253 10.0681 9.84425 11.1463 11.225 11.9723C11.4014 12.0781 11.582 12.1635 11.7541 12.2449C11.9089 12.3181 12.0552 12.3873 12.1799 12.4606C12.1971 12.4687 12.2143 12.4809 12.2315 12.489C12.3778 12.5582 12.5154 12.5908 12.6574 12.5908C13.0144 12.5908 13.2381 12.3792 13.3112 12.31L14.1543 11.5125C14.3006 11.3741 14.5329 11.2073 14.8039 11.2073C15.0705 11.2073 15.2899 11.366 15.4233 11.5043C15.4276 11.5084 15.4276 11.5084 15.4319 11.5125L17.8019 13.7544C18.245 14.1694 17.8062 15.0279 17.8062 15.0279Z" stroke="currentColor" stroke-width="1.6" stroke-linecap="round" stroke-linejoin="round" fill="none"/>
</svg>
