<svg width="20" height="20" viewBox="0 0 20 20" xmlns="http://www.w3.org/2000/svg">
<path d="M16.6853 3.27054C15.1077 1.67511 13.0117 0.696266 10.7757 0.510737C8.53973 0.325207 6.31107 0.945218 4.49213 2.25883C2.67319 3.57244 1.38383 5.49309 0.856845 7.67401C0.329857 9.85493 0.59997 12.1524 1.61841 14.1516L0.620606 18.996C0.609922 19.0444 0.609508 19.0945 0.61939 19.143C0.629273 19.1916 0.649233 19.2375 0.677979 19.2779C0.719147 19.339 0.777994 19.386 0.846646 19.4128C0.915297 19.4395 0.99048 19.4447 1.06214 19.4275L5.80172 18.3025C7.79546 19.2943 10.0764 19.5464 12.2386 19.0139C14.4008 18.4815 16.304 17.1992 17.6093 15.3951C18.9146 13.591 19.5374 11.3822 19.3668 9.162C19.1963 6.94176 18.2434 4.85407 16.6778 3.27054H16.6853ZM15.2036 15.0871C14.1125 16.1762 12.7076 16.896 11.1862 17.1452C9.66491 17.3944 8.10373 17.1606 6.7222 16.4765L6.05865 16.1472L3.14755 16.8357V16.7983L3.7612 13.8623L3.43692 13.2237C2.73052 11.8384 2.48111 10.2649 2.72445 8.72912C2.9678 7.19328 3.69141 5.77401 4.79144 4.67496C6.17267 3.29516 8.04516 2.52012 9.9975 2.52012C11.9498 2.52012 13.8223 3.29516 15.2036 4.67496L15.236 4.71986C16.5993 6.10404 17.3603 7.97088 17.3533 9.91367C17.3463 11.8565 16.5718 13.7178 15.1986 15.0921L15.2036 15.0871Z" fill="currentColor"/>
<path d="M14.9502 12.9517C14.5934 13.513 14.0272 14.199 13.3212 14.3711C12.074 14.6705 10.1756 14.3711 7.79837 12.1735L7.76844 12.146C5.70048 10.2153 5.15169 8.60629 5.27392 7.33159C5.34626 6.60569 5.94993 5.95212 6.45882 5.52307C6.53972 5.45485 6.63547 5.4065 6.7384 5.38189C6.84133 5.35727 6.94858 5.35708 7.0516 5.38132C7.15462 5.40556 7.25054 5.45356 7.33169 5.52148C7.41285 5.58941 7.47699 5.67538 7.51899 5.77252L8.2848 7.50372C8.3348 7.61515 8.35355 7.73809 8.33905 7.85937C8.32455 7.98064 8.27734 8.09569 8.20248 8.1922L7.81334 8.6911C7.73246 8.79467 7.68427 8.91999 7.67494 9.05106C7.66561 9.18213 7.69556 9.31301 7.76095 9.42699C8.1306 9.9718 8.57288 10.4636 9.07557 10.8888C9.61641 11.4093 10.2298 11.8487 10.8966 12.1934C11.0183 12.2425 11.1518 12.2542 11.2802 12.2271C11.4086 12.2 11.526 12.1353 11.6175 12.0412L12.064 11.5872C12.149 11.4959 12.2576 11.4298 12.3777 11.3963C12.4979 11.3629 12.625 11.3633 12.745 11.3977L14.566 11.919C14.6692 11.9484 14.764 12.0016 14.8428 12.0744C14.9216 12.1472 14.9821 12.2376 15.0195 12.3381C15.0569 12.4387 15.0702 12.5466 15.0581 12.6532C15.046 12.7598 15.0091 12.8621 14.9502 12.9517Z" fill="currentColor"/>
</svg>
