<svg width="498" height="313" viewBox="0 0 498 313" fill="none" xmlns="http://www.w3.org/2000/svg">
<path d="M101.621 308.988C101.621 308.988 57.2061 303.904 57.2061 254.537C57.2061 189.55 148.181 188.404 164.565 186.955C180.95 185.519 221.048 186.81 264.16 118.635C303.048 57.1505 448.861 40.9496 478.405 148.784C500.448 229.235 450.611 295.25 407.749 308.935L101.621 308.975V308.988Z" fill="#367DCB"/>
<path d="M115.585 159.572L94.8578 182.227C93.6471 183.544 93.7392 185.599 95.0552 186.797C96.3712 188.009 98.4241 187.917 99.6217 186.6L120.638 163.629L115.585 159.572Z" fill="white"/>
<path d="M97.2394 188.417C96.2392 188.417 95.2917 188.048 94.5416 187.363C93.752 186.639 93.2914 185.651 93.2519 184.584C93.2124 183.517 93.5809 182.49 94.2915 181.7L115.019 159.045C115.295 158.742 115.742 158.715 116.058 158.966L121.112 163.023C121.283 163.154 121.375 163.352 121.401 163.563C121.414 163.773 121.349 163.984 121.204 164.142L100.187 187.113C99.4634 187.903 98.4764 188.364 97.4105 188.404C97.3447 188.404 97.292 188.404 97.2262 188.404L97.2394 188.417ZM115.677 160.612L95.4233 182.74C94.9758 183.227 94.7521 183.86 94.7785 184.518C94.8048 185.177 95.0943 185.783 95.5812 186.231C96.0681 186.678 96.713 186.915 97.3578 186.876C98.0158 186.85 98.6212 186.56 99.0686 186.073L119.532 163.707L115.677 160.612Z" fill="#151924"/>
<path d="M475.747 85.0477C471.246 63.0514 441.11 35.7075 388.22 43.7947C358.386 48.3652 334.224 62.5377 321.933 82.69C313.708 96.1775 311.76 111.364 316.471 125.431C320.853 138.55 329.552 147.849 342.304 153.104C352.503 157.306 362.465 157.596 366.282 157.53H366.308C366.966 157.53 367.519 158.004 367.637 158.663L369.953 172.651C370.151 173.823 370.98 174.719 372.138 174.995C372.375 175.048 372.599 175.074 372.822 175.074C373.73 175.074 374.573 174.653 375.139 173.876L385.811 159.203C386.035 158.887 386.403 158.689 386.798 158.65C426.87 155.304 454.072 144.385 467.666 126.222C476.155 114.868 478.958 100.629 475.76 85.0213L475.747 85.0477Z" fill="#151924"/>
<path d="M180.2 1.1984L177.963 32.5596C177.884 33.6396 179.081 34.3377 179.989 33.7582L189.583 27.5017C190.333 27.0144 191.333 27.3964 191.57 28.2657L194.702 39.9487C195.084 41.3844 197.189 41.1737 197.282 39.6853L198.795 14.5147C198.861 13.461 197.729 12.7761 196.821 13.3029L188.109 18.453C187.333 18.914 186.332 18.4661 186.161 17.5837L182.806 1.05351C182.503 -0.448034 180.318 -0.303147 180.213 1.22474L180.2 1.1984Z" fill="#367DCB"/>
<path d="M66.523 139.761L37.3078 128.21C36.2945 127.815 35.268 128.737 35.5707 129.778L38.6633 140.815C38.9002 141.671 38.2422 142.514 37.3473 142.475L25.2664 141.961C23.7793 141.895 23.3582 143.963 24.74 144.49L48.2701 153.499C49.2571 153.868 50.2572 152.999 50.0204 151.971L47.7305 142.106C47.52 141.224 48.2438 140.407 49.1386 140.499L65.9045 142.251C67.4179 142.409 67.9443 140.288 66.523 139.722V139.761Z" fill="#367DCB"/>
<path d="M456.546 290.377L484.538 301.138C485.498 301.507 486.446 300.664 486.143 299.702L482.919 289.534C482.669 288.744 483.274 287.967 484.117 288.006L495.579 288.533C496.987 288.599 497.329 286.702 496 286.202L473.457 277.812C472.523 277.456 471.588 278.259 471.851 279.208L474.299 288.296C474.523 289.099 473.852 289.85 473.01 289.758L457.073 288.072C455.638 287.914 455.204 289.863 456.56 290.39L456.546 290.377Z" fill="#367DCB"/>
<path d="M410.117 64.1708L435.385 48.0094C436.253 47.4562 436.135 46.1786 435.187 45.8625L425.094 42.4248C424.304 42.1613 424.054 41.213 424.58 40.5544L431.805 31.6374C432.687 30.5441 431.371 29.1348 430.186 29.9119L410.052 43.0833C409.209 43.6365 409.302 44.8483 410.21 45.2039L418.961 48.6285C419.737 48.9314 419.948 49.9061 419.369 50.5384L408.551 62.3663C407.578 63.4332 408.88 64.9479 410.104 64.1576L410.117 64.1708Z" fill="#367DCB"/>
<path d="M1.67069 297.661L30.5701 288.085C31.5702 287.756 31.7544 286.425 30.8859 285.833L21.7397 279.537C21.0291 279.049 21.0027 278.009 21.687 277.482L30.9912 270.356C32.1361 269.474 31.1622 267.682 29.8068 268.143L6.71096 276.073C5.75028 276.402 5.53973 277.68 6.35565 278.285L14.1858 284.199C14.8833 284.726 14.857 285.78 14.1332 286.267L0.57841 295.382C-0.64547 296.212 0.28889 298.108 1.68385 297.647L1.67069 297.661Z" fill="#367DCB"/>
<path d="M376.937 114.348L370.586 115L371.428 123.189L362.626 124.094L361.785 115.905L340.783 118.062L340.159 111.99L356.001 85.3677L365.472 84.3948L350.835 109.599L361.308 108.523L360.558 101.225L369.081 100.349L369.831 107.647L376.181 106.995L376.937 114.348ZM397.258 121.211C394.027 121.543 391.067 121.04 388.377 119.703C385.688 118.365 383.464 116.267 381.707 113.408C379.983 110.507 378.905 106.959 378.474 102.762C378.043 98.5656 378.379 94.8907 379.481 91.7376C380.616 88.5435 382.365 86.0182 384.726 84.1619C387.087 82.3055 389.883 81.2113 393.114 80.8794C396.345 80.5475 399.306 81.0502 401.995 82.3877C404.685 83.7252 406.891 85.8441 408.615 88.7444C410.373 91.6038 411.467 95.1318 411.898 99.3283C412.329 103.525 411.977 107.22 410.842 110.414C409.74 113.568 408.008 116.072 405.646 117.929C403.285 119.785 400.489 120.879 397.258 121.211ZM396.474 113.579C398.851 113.335 400.603 112.123 401.73 109.943C402.894 107.759 403.257 104.532 402.818 100.261C402.379 95.9903 401.368 92.9042 399.784 91.0028C398.237 89.0976 396.275 88.267 393.899 88.5112C391.559 88.7516 389.807 89.9636 388.643 92.1474C387.516 94.3273 387.171 97.5527 387.61 101.824C388.049 106.094 389.042 109.182 390.588 111.088C392.172 112.989 394.134 113.82 396.474 113.579ZM453.153 106.518L446.802 107.17L447.644 115.359L438.842 116.263L438.001 108.075L416.999 110.232L416.375 104.16L432.218 77.5377L441.688 76.5647L427.051 101.769L437.524 100.693L436.774 93.395L445.297 92.5194L446.047 99.817L452.397 99.1646L453.153 106.518Z" fill="white"/>
<path d="M352.816 136.625L357.5 136.062L357.711 137.814L353.026 138.376L352.816 136.625ZM353.464 140.608L358.76 139.972L358.977 141.779L351.443 142.684L350.274 132.954L357.627 132.071L357.844 133.878L352.729 134.492L353.464 140.608ZM360.768 141.564L359.599 131.834L363.811 131.328C364.682 131.223 365.45 131.277 366.115 131.488C366.778 131.69 367.313 132.035 367.72 132.522C368.126 133.009 368.373 133.619 368.461 134.351C368.548 135.074 368.451 135.72 368.172 136.289C367.892 136.849 367.453 137.306 366.856 137.66C366.259 138.013 365.525 138.243 364.654 138.347L361.694 138.703L362.576 137.596L363.02 141.293L360.768 141.564ZM366.954 140.821L364.097 137.582L366.502 137.293L369.386 140.528L366.954 140.821ZM362.606 137.846L361.478 136.91L364.314 136.569C365.009 136.486 365.51 136.275 365.817 135.937C366.123 135.59 366.245 135.153 366.181 134.625C366.117 134.087 365.895 133.691 365.517 133.435C365.138 133.18 364.601 133.094 363.906 133.178L361.071 133.518L361.943 132.328L362.606 137.846ZM370.99 140.336L369.821 130.606L374.033 130.1C374.904 129.995 375.672 130.049 376.336 130.26C377 130.463 377.535 130.807 377.941 131.294C378.347 131.781 378.594 132.391 378.682 133.123C378.769 133.846 378.673 134.492 378.393 135.061C378.113 135.621 377.674 136.078 377.078 136.432C376.481 136.786 375.747 137.015 374.876 137.119L371.915 137.475L372.797 136.368L373.242 140.065L370.99 140.336ZM377.175 139.593L374.319 136.354L376.723 136.066L379.608 139.301L377.175 139.593ZM372.827 136.618L371.7 135.682L374.535 135.341C375.23 135.258 375.731 135.047 376.039 134.709C376.345 134.362 376.466 133.925 376.403 133.397C376.338 132.859 376.117 132.463 375.738 132.207C375.36 131.952 374.823 131.866 374.128 131.95L371.292 132.29L372.165 131.1L372.827 136.618ZM385.957 138.707C385.188 138.799 384.46 138.76 383.772 138.589C383.093 138.417 382.485 138.132 381.949 137.736C381.422 137.339 380.987 136.851 380.645 136.271C380.312 135.691 380.102 135.039 380.015 134.316C379.928 133.594 379.978 132.911 380.164 132.268C380.359 131.624 380.67 131.046 381.098 130.534C381.525 130.022 382.048 129.602 382.667 129.274C383.285 128.946 383.975 128.736 384.734 128.645C385.504 128.553 386.223 128.593 386.892 128.767C387.571 128.939 388.174 129.224 388.701 129.621C389.238 130.017 389.677 130.505 390.019 131.084C390.36 131.654 390.575 132.305 390.663 133.037C390.749 133.76 390.696 134.448 390.502 135.101C390.306 135.745 389.995 136.323 389.568 136.835C389.149 137.337 388.63 137.751 388.011 138.08C387.402 138.407 386.717 138.616 385.957 138.707ZM385.713 136.79C386.148 136.738 386.538 136.616 386.882 136.424C387.234 136.232 387.533 135.98 387.778 135.668C388.022 135.357 388.196 135.002 388.299 134.604C388.411 134.206 388.439 133.775 388.383 133.311C388.327 132.848 388.198 132.436 387.995 132.075C387.801 131.713 387.548 131.409 387.237 131.165C386.935 130.919 386.589 130.744 386.201 130.64C385.812 130.537 385.4 130.511 384.965 130.563C384.529 130.616 384.135 130.738 383.782 130.931C383.439 131.123 383.145 131.374 382.9 131.686C382.655 131.997 382.477 132.352 382.365 132.751C382.263 133.149 382.239 133.579 382.295 134.043C382.349 134.497 382.474 134.909 382.669 135.281C382.872 135.642 383.125 135.945 383.427 136.191C383.738 136.435 384.088 136.61 384.477 136.713C384.865 136.817 385.277 136.843 385.713 136.79ZM392.939 137.699L391.77 127.969L395.982 127.463C396.853 127.358 397.621 127.412 398.286 127.623C398.949 127.826 399.484 128.17 399.891 128.657C400.297 129.144 400.544 129.754 400.632 130.486C400.719 131.209 400.623 131.855 400.343 132.424C400.063 132.984 399.624 133.441 399.027 133.795C398.43 134.149 397.697 134.378 396.825 134.483L393.865 134.838L394.747 133.731L395.191 137.429L392.939 137.699ZM399.125 136.956L396.268 133.718L398.673 133.429L401.557 136.664L399.125 136.956ZM394.777 133.981L393.649 133.045L396.485 132.705C397.18 132.621 397.681 132.41 397.988 132.073C398.294 131.726 398.416 131.288 398.352 130.76C398.288 130.222 398.066 129.826 397.688 129.571C397.309 129.315 396.773 129.229 396.078 129.313L393.242 129.654L394.114 128.463L394.777 133.981Z" fill="white"/>
<path d="M470.575 199.81C468.614 199.81 466.798 198.967 465.127 198.19C462.666 197.044 460.35 195.964 457.783 197.4L457.033 196.056C460.271 194.239 463.192 195.595 465.771 196.794C468.232 197.94 470.562 199.007 473.115 197.584C475.668 196.149 475.957 193.607 476.273 190.906C476.602 188.088 476.971 184.887 480.208 183.069C483.432 181.252 486.354 182.608 488.933 183.807C491.394 184.953 493.71 186.033 496.263 184.597L497.013 185.941C493.789 187.758 490.868 186.402 488.288 185.203C485.827 184.057 483.511 182.977 480.958 184.413C478.405 185.849 478.116 188.391 477.8 191.091C477.471 193.91 477.102 197.11 473.865 198.928C472.733 199.56 471.628 199.81 470.575 199.81Z" fill="#151924"/>
<path d="M39.7958 221.095C36.0847 221.095 34.2028 218.487 32.5447 216.182C30.9523 213.983 29.4521 211.901 26.5306 211.901C23.609 211.901 22.1088 213.983 20.5164 216.182C18.8583 218.487 16.9632 221.095 13.2653 221.095C9.56732 221.095 7.67228 218.487 6.01412 216.182C4.42176 213.983 2.92152 211.901 0 211.901V210.374C3.71112 210.374 5.593 212.981 7.25116 215.286C8.84352 217.486 10.3438 219.567 13.2653 219.567C16.1868 219.567 17.687 217.486 19.2794 215.286C20.9376 212.981 22.8326 210.374 26.5306 210.374C30.2285 210.374 32.1236 212.981 33.7817 215.286C35.3741 217.486 36.8743 219.567 39.7958 219.567V221.095Z" fill="#151924"/>
<path d="M114.742 87.7211C111.715 85.5741 111.689 82.3471 111.676 79.5153C111.649 76.802 111.636 74.2336 109.254 72.5476C106.872 70.8485 104.438 71.6783 101.871 72.5476C99.1867 73.4564 96.1336 74.497 93.1068 72.35C90.08 70.2031 90.0537 66.9761 90.0274 64.1311C90.0011 61.4178 89.9879 58.8493 87.5928 57.1502L88.4745 55.8989C91.5013 58.0459 91.5276 61.2729 91.5539 64.1179C91.5803 66.8312 91.5934 69.3996 93.9885 71.0987C96.3705 72.7979 98.8051 71.9681 101.371 71.0987C104.056 70.1899 107.109 69.1494 110.136 71.2963C113.163 73.4433 113.189 76.6703 113.202 79.5021C113.228 82.2154 113.242 84.7839 115.624 86.4698L114.742 87.7211Z" fill="#151924"/>
<path d="M296.494 54.2659H294.968C294.968 50.5516 297.573 48.6681 299.876 47.0085C302.074 45.4148 304.153 43.9132 304.153 40.9891C304.153 38.0651 302.074 36.5635 299.876 34.9698C297.573 33.3102 294.968 31.4135 294.968 27.7123C294.968 24.0112 297.573 22.1145 299.876 20.4549C302.074 18.8611 304.153 17.3596 304.153 14.4355H305.68C305.68 18.1499 303.074 20.0334 300.771 21.693C298.574 23.2867 296.494 24.7883 296.494 27.7123C296.494 30.6364 298.574 32.1379 300.771 33.7317C303.074 35.3913 305.68 37.288 305.68 40.9891C305.68 44.6903 303.074 46.587 300.771 48.2466C298.574 49.8403 296.494 51.3419 296.494 54.2659Z" fill="#151924"/>
<path d="M319.801 234.438C320.367 225.284 317.34 216.13 311.707 209.966C306.838 204.618 300.14 201.668 292.362 201.444C286.151 201.246 281.242 202.945 277.755 206.449C273.82 210.4 272.688 215.669 272.372 218.685L273.649 216.723C273.925 216.288 274.228 215.866 274.543 215.458C275.215 212.903 276.478 209.926 278.86 207.529C282.045 204.341 286.585 202.813 292.336 202.985C299.797 203.209 305.93 205.909 310.589 211.006C315.945 216.881 318.827 225.613 318.287 234.359C317.827 241.893 313.286 246.319 308.773 248.373C308.615 248.545 308.483 248.729 308.312 248.9L306.351 250.863C308.759 250.257 311.194 249.098 313.221 247.478C315.997 245.265 319.406 241.221 319.814 234.451L319.801 234.438Z" fill="white"/>
<path d="M132.968 123.047C130.573 123.679 128.415 125.168 127.441 126.827C127.151 127.328 126.849 128.078 127.033 128.79L127.23 129.501L127.164 129.527C127.546 131.543 129.112 137.957 133.955 140.802C135.297 139.393 136.955 138.168 138.258 137.325C139.166 136.732 140.14 136.166 141.127 135.639L139.272 133.426C139.272 133.426 139.219 133.334 139.193 133.294L137.587 131.45C137.311 131.134 137.337 130.647 137.666 130.37C137.982 130.094 138.469 130.12 138.745 130.449L139.903 131.78L144.18 127.104C139.008 123.929 135.126 122.507 132.968 123.073V123.047Z" fill="white"/>
<path d="M166.592 182.74L168.185 171.031C168.198 170.833 170.185 147.322 158.144 137.351C156.867 136.298 155.643 135.31 154.432 134.361L154.459 134.269C154.34 134.243 154.235 134.203 154.13 134.124C152.629 132.913 147.642 134.059 142.72 136.535C142.694 136.535 142.681 136.561 142.654 136.561C141.443 137.167 140.233 137.865 139.075 138.616C134.916 141.329 132.639 144.201 133.153 146.084C133.363 146.848 133.837 147.428 134.613 147.862C138.838 150.22 149.379 147.138 149.484 147.111C149.695 147.046 149.919 147.085 150.103 147.19C150.287 147.296 150.419 147.48 150.458 147.691C150.458 147.73 151.327 151.998 152.722 155.923C152.801 156.147 152.774 156.41 152.643 156.608C149.879 160.757 148.168 168.08 148.155 168.146C148.076 168.502 147.76 168.739 147.405 168.739C147.352 168.739 147.287 168.739 147.234 168.726C146.826 168.634 146.563 168.212 146.655 167.804C146.721 167.501 148.366 160.494 151.156 156.081C150.142 153.157 149.432 150.18 149.129 148.797C148.471 148.969 147.431 149.232 146.194 149.482C144.194 151.893 142.141 153.631 140.049 154.711C140.483 155.752 140.693 156.858 140.47 157.938C140.009 160.085 137.969 161.745 134.429 162.878C134.574 163.997 134.521 165.117 134.153 166.144C133.376 168.331 131.35 169.793 128.165 170.53C128.191 170.53 128.205 170.543 128.231 170.557L128.441 170.622L128.586 170.794C131.995 174.837 137.443 181.081 137.509 181.133L137.64 181.344L138.219 182.74H166.579H166.592Z" fill="white"/>
<path d="M150.248 132.28C150.708 132.214 151.142 132.162 151.55 132.135C151.313 131.951 151.077 131.793 150.84 131.622L150.234 132.28H150.248Z" fill="white"/>
<path d="M131.297 162.127C135.903 161.178 138.562 159.611 138.983 157.622C139.141 156.884 138.996 156.107 138.667 155.33C137.417 155.804 136.153 156.055 134.864 156.055C134.443 156.055 134.035 156.028 133.614 155.976C125.178 154.975 119.177 144.214 117.887 141.711C116.94 141.974 114.847 142.989 114.11 146.821C113.15 151.787 114.689 154.395 114.834 154.619C115.361 155.172 123.704 163.694 131.297 162.113V162.127Z" fill="white"/>
<path d="M119.085 140.657C119.703 141.895 125.717 153.499 133.824 154.461C137.206 154.869 140.562 153.328 143.826 149.904C140.404 150.404 136.364 150.575 133.903 149.205C132.758 148.573 132.021 147.651 131.705 146.479C131.297 144.951 131.903 143.41 132.955 141.988C127.876 138.84 126.178 132.465 125.704 130.041C123.612 130.937 118.348 133.9 119.085 140.657Z" fill="white"/>
<path d="M264.16 293.393C266.411 293.143 268.542 292.866 270.543 292.59C269.806 291.931 269.161 291.457 268.753 291.404C268.016 291.286 266.2 292.208 264.16 293.406V293.393Z" fill="white"/>
<path d="M255.435 298.517C254.909 298.794 254.396 299.07 253.883 299.334C253.83 300.005 253.725 300.611 253.475 301.138H255.08C255.33 300.322 255.422 299.439 255.435 298.517Z" fill="white"/>
<path d="M208.046 236.796C208.23 236.743 208.388 236.611 208.48 236.453C214.889 225.521 222.693 226.483 229.576 227.339C229.826 227.378 230.063 227.286 230.234 227.102C235.827 221.016 241.42 220.266 245.131 220.713C249.224 221.201 252.408 223.335 253.435 225.179C253.553 225.389 253.751 225.521 253.988 225.561C254.224 225.6 254.461 225.521 254.632 225.363C256.777 223.387 258.909 222.531 261.002 222.847C264.766 223.4 267.226 227.51 267.253 227.549C267.384 227.773 267.621 227.918 267.884 227.931C267.977 227.931 277.807 228.392 282.321 235.689C285.848 241.406 285.282 249.743 280.623 260.478C279.149 259.042 275.794 256.487 271.003 256.935C265.016 257.501 261.844 261.242 261.818 264.627C261.791 266.985 263.371 269.896 267.779 270.778C267.029 272.253 266.016 273.926 264.924 275.375C274.491 274.664 288.875 277.153 298.245 279.102C296.731 272.201 290.191 266.129 290.112 266.063L289.52 265.523L307.233 247.807C311.892 243.144 313.8 236.098 312.589 227.997C310.168 211.678 296.31 208.609 295.731 208.49C294.481 208.227 293.217 208.108 291.967 208.108C285.321 208.108 278.794 211.625 274.938 217.565L269.122 226.522C268.819 226.483 268.556 226.456 268.358 226.443C267.608 225.323 265.055 221.912 261.239 221.346C258.896 220.99 256.567 221.78 254.277 223.664C252.777 221.741 249.579 219.699 245.341 219.199C239.709 218.527 234.063 220.872 229.405 225.784C222.535 224.941 214.113 224.125 207.348 235.439C202.229 237.086 200.268 240.655 199.637 244.541L200.913 246.898C201.084 242.512 202.545 238.469 208.072 236.809L208.046 236.796Z" fill="white"/>
<path d="M308.009 282.909C307.707 281.802 307.799 280.775 308.273 280.024C308.641 279.445 309.22 279.063 309.918 278.931L378.705 266.826C379.126 266.747 379.402 266.352 379.323 265.944C379.258 265.522 378.85 265.246 378.442 265.325L355.622 269.342L339.159 238.534C338.962 238.152 338.488 238.021 338.119 238.218C337.751 238.416 337.606 238.877 337.804 239.259L354.03 269.619L309.654 277.429C308.536 277.627 307.575 278.259 306.983 279.208C306.404 280.13 306.22 281.276 306.391 282.514C301.258 281.276 269.029 273.781 259.015 278.141C248.723 282.632 236.222 292.84 235.182 296.633C235.129 296.844 235.077 297.134 235.182 297.292C236.327 298.873 238.827 298.109 241.512 297.121C242.459 296.765 243.131 296.528 243.67 296.515C245.605 294.197 257.409 280.577 267.503 280.577H267.608C268.029 280.577 268.371 280.933 268.371 281.355C268.371 281.776 268.029 282.118 267.608 282.118C267.569 282.118 267.542 282.118 267.516 282.118C257.685 282.118 245.368 296.884 244.657 297.753C244.262 298.398 243.828 299.544 244.131 300.045C244.341 300.387 245.026 300.545 246.026 300.479C249.908 300.203 255.698 296.726 260.331 293.933C264.555 291.391 267.121 289.89 268.687 289.89C268.793 289.89 268.898 289.89 268.99 289.916C270.135 290.074 271.306 291.194 273.096 292.88C276.794 296.37 282.979 302.218 293.217 302.218C305.075 302.218 310.141 300.19 311.576 299.452L313.668 305.195H315.274L308.022 282.948L308.009 282.909Z" fill="white"/>
<path d="M443.624 308.988C443.624 307.684 442.637 306.696 441.413 306.696H104.596C103.372 306.696 102.385 307.684 102.385 308.909C102.385 310.213 103.372 311.201 104.596 311.201H441.426C442.65 311.201 443.637 310.213 443.637 308.988H443.624Z" fill="white"/>
<path d="M441.412 305.155H378.758C381.469 304.958 384.074 304.721 386.535 304.418C392.22 303.733 397.287 300.875 400.801 296.37C404.301 291.879 405.828 286.281 405.104 280.604C403.13 265.18 399.037 242.314 386.351 221.833C369.572 194.752 343.252 181.028 308.141 181.028C306.825 181.028 305.522 181.028 304.246 181.054C262.16 181.779 221.601 200.232 192.583 231.751C191.912 230.882 190.899 230.342 189.78 230.342H174.12L168.961 185.756C168.869 184.979 168.514 184.294 168 183.767L169.711 171.189C169.803 170.188 171.79 146.637 159.13 136.153C156.854 134.269 154.393 132.32 151.906 130.463L181.292 98.3376C186.648 101.644 197.795 111.39 200.663 136.271C204.151 166.526 236.38 170.148 250.079 170.306H250.119C251.356 170.306 252.382 169.555 252.777 168.383C253.159 167.198 252.764 165.973 251.751 165.248C244.065 159.756 232.734 145.821 243.289 114.262C256.37 75.1164 242.473 45.7572 237.906 37.6963C237.709 37.3539 237.459 37.0904 237.156 36.8534C237.34 36.366 237.419 35.8392 237.393 35.286C237.34 34.2191 236.88 33.2312 236.103 32.5068C235.314 31.7824 234.274 31.4136 233.221 31.4531C232.155 31.5058 231.168 31.9668 230.444 32.7439L145.233 125.879C140.167 122.744 135.508 120.755 132.587 121.519C129.784 122.257 127.296 123.982 126.125 126.024C125.651 126.854 125.428 127.684 125.467 128.461C123.414 129.304 117.005 132.583 117.519 140.21C116.176 140.578 113.518 141.895 112.636 146.505C111.86 150.562 112.584 153.249 113.136 154.566C112.018 154.962 110.307 155.949 109.833 158.254L109.741 158.702C109.294 160.757 109.215 162.522 110.978 164.366C111.268 164.669 111.597 164.959 111.978 165.262C113.992 166.974 118.769 170.491 124.243 170.82C125.283 171.162 126.402 171.518 127.586 171.887C130.771 175.667 135.6 181.199 136.298 181.989L136.943 183.544C136.272 184.136 135.824 184.992 135.785 185.98L134.074 230.302H85.6713C84.4211 230.302 83.2762 230.948 82.6182 232.014C81.9602 233.081 81.9076 234.398 82.4866 235.518L115.821 300.664C116.137 301.27 116.597 301.757 117.163 302.1C116.768 302.574 116.518 303.193 116.518 303.865C116.518 304.312 116.637 304.734 116.821 305.116H104.582C102.516 305.116 100.845 306.789 100.845 308.949C100.845 311.109 102.516 312.689 104.582 312.689H441.412C443.479 312.689 445.15 311.017 445.15 308.857C445.15 306.696 443.479 305.116 441.412 305.116V305.155ZM102.385 308.896C102.385 307.684 103.372 306.683 104.595 306.683H441.426C442.65 306.683 443.637 307.671 443.637 308.975C443.637 310.187 442.65 311.188 441.426 311.188H104.595C103.372 311.188 102.385 310.2 102.385 308.896ZM199.611 244.527C200.242 240.629 202.203 237.072 207.322 235.426C214.087 224.112 222.522 224.928 229.379 225.771C234.037 220.845 239.683 218.514 245.315 219.185C249.566 219.686 252.751 221.728 254.251 223.651C256.541 221.767 258.883 220.99 261.213 221.332C265.029 221.899 267.582 225.297 268.332 226.43C268.53 226.443 268.793 226.469 269.095 226.509L274.912 217.552C278.768 211.612 285.282 208.095 291.941 208.095C293.205 208.095 294.455 208.227 295.705 208.477C296.297 208.596 310.141 211.665 312.563 227.984C313.76 236.098 311.865 243.131 307.207 247.794L289.493 265.509L290.086 266.049C290.165 266.128 296.705 272.187 298.218 279.089C288.849 277.14 274.465 274.663 264.897 275.362C265.99 273.913 266.99 272.227 267.753 270.765C263.344 269.882 261.765 266.971 261.792 264.614C261.831 261.215 264.989 257.488 270.977 256.922C275.768 256.474 279.123 259.029 280.597 260.465C285.256 249.73 285.835 241.392 282.295 235.676C277.781 228.379 267.95 227.918 267.858 227.918C267.595 227.918 267.358 227.76 267.227 227.536C267.2 227.497 264.739 223.387 260.976 222.834C258.883 222.518 256.751 223.374 254.606 225.35C254.435 225.508 254.198 225.587 253.961 225.547C253.725 225.508 253.527 225.363 253.409 225.165C252.382 223.321 249.197 221.187 245.105 220.7C241.394 220.252 235.801 221.003 230.208 227.088C230.037 227.273 229.8 227.365 229.55 227.325C222.667 226.469 214.876 225.508 208.454 236.44C208.362 236.611 208.204 236.73 208.02 236.782C202.493 238.442 201.032 242.486 200.861 246.872L199.584 244.514L199.611 244.527ZM308.299 248.887C308.457 248.729 308.602 248.531 308.76 248.36C313.287 246.305 317.814 241.88 318.274 234.346C318.814 225.6 315.932 216.867 310.576 210.993C305.917 205.895 299.785 203.195 292.323 202.971C286.572 202.8 282.032 204.328 278.847 207.516C276.452 209.913 275.202 212.889 274.53 215.445C274.228 215.853 273.925 216.275 273.636 216.709L272.359 218.672C272.675 215.656 273.807 210.4 277.742 206.435C281.229 202.932 286.138 201.233 292.349 201.43C300.127 201.654 306.812 204.605 311.694 209.952C317.327 216.13 320.354 225.284 319.788 234.425C319.367 241.195 315.971 245.252 313.195 247.451C311.168 249.058 308.733 250.23 306.325 250.836L308.286 248.874L308.299 248.887ZM313.102 303.641L311.563 299.413C310.128 300.137 305.062 302.179 293.205 302.179C282.953 302.179 276.768 296.33 273.083 292.84C271.306 291.154 270.122 290.048 268.977 289.876C268.885 289.863 268.78 289.85 268.674 289.85C267.108 289.85 264.542 291.352 260.318 293.894C255.672 296.686 249.895 300.163 246.013 300.44C245.013 300.506 244.328 300.348 244.118 300.005C243.815 299.505 244.249 298.359 244.644 297.714C245.368 296.844 257.686 282.079 267.503 282.079C267.529 282.079 267.556 282.079 267.595 282.079C268.016 282.079 268.358 281.737 268.358 281.315C268.358 280.894 268.016 280.551 267.595 280.538H267.49C257.396 280.538 245.592 294.157 243.657 296.475C243.118 296.502 242.433 296.739 241.499 297.081C238.814 298.082 236.314 298.846 235.169 297.252C235.05 297.094 235.103 296.805 235.169 296.594C236.209 292.801 248.711 282.593 259.002 278.101C269.016 273.741 301.245 281.236 306.378 282.474C306.193 281.236 306.378 280.09 306.97 279.168C307.562 278.22 308.523 277.588 309.641 277.39L354.017 269.579L337.791 239.219C337.593 238.85 337.725 238.376 338.106 238.179C338.475 237.981 338.949 238.113 339.146 238.495L355.609 269.303L378.429 265.285C378.837 265.206 379.245 265.483 379.31 265.904C379.389 266.326 379.1 266.721 378.692 266.787L309.905 278.892C309.207 279.01 308.628 279.405 308.26 279.985C307.786 280.736 307.694 281.763 307.996 282.869L315.248 305.116C314.274 305.116 313.418 304.51 313.089 303.601L313.102 303.641ZM138.246 182.74L137.666 181.344L137.535 181.133C137.535 181.133 132.021 174.837 128.612 170.794L128.468 170.622L128.257 170.557C128.257 170.557 128.218 170.543 128.191 170.53C131.376 169.793 133.403 168.331 134.179 166.144C134.548 165.117 134.6 163.997 134.455 162.878C137.995 161.745 140.035 160.085 140.496 157.938C140.72 156.858 140.522 155.752 140.075 154.711C142.18 153.631 144.233 151.893 146.22 149.482C147.458 149.232 148.484 148.982 149.155 148.797C149.458 150.194 150.168 153.157 151.182 156.081C148.392 160.494 146.76 167.501 146.681 167.804C146.589 168.212 146.839 168.62 147.26 168.726C147.313 168.739 147.379 168.739 147.431 168.739C147.773 168.739 148.089 168.502 148.181 168.146C148.194 168.067 149.905 160.757 152.669 156.608C152.8 156.41 152.84 156.147 152.748 155.923C151.353 151.998 150.484 147.73 150.484 147.691C150.445 147.48 150.313 147.296 150.129 147.19C149.945 147.085 149.721 147.046 149.51 147.111C149.405 147.138 138.864 150.233 134.64 147.862C133.863 147.427 133.389 146.848 133.179 146.084C132.666 144.201 134.942 141.342 139.101 138.616C140.259 137.865 141.47 137.18 142.68 136.561C142.707 136.561 142.72 136.535 142.746 136.535C147.668 134.072 152.643 132.913 154.156 134.124C154.248 134.203 154.367 134.243 154.485 134.269L154.459 134.361C155.656 135.31 156.893 136.298 158.17 137.351C170.211 147.322 168.224 170.833 168.211 171.031L166.618 182.74H138.259H138.246ZM111.228 159.058L111.333 158.584C111.715 156.713 113.294 156.107 113.992 155.923C115.479 157.425 122.243 163.839 129.376 163.839C130.126 163.839 130.876 163.773 131.626 163.615C132.1 163.523 132.534 163.404 132.968 163.299C133.047 164.116 132.995 164.906 132.745 165.617C132.087 167.474 130.126 168.673 126.915 169.226C119.966 170.398 113.202 164.392 112.202 163.444L112.241 163.418C110.649 161.798 110.939 160.441 111.241 159.045L111.228 159.058ZM114.123 146.822C114.86 142.989 116.966 141.975 117.9 141.711C119.19 144.214 125.191 154.975 133.626 155.976C134.047 156.028 134.455 156.055 134.877 156.055C136.153 156.055 137.416 155.791 138.68 155.33C139.009 156.107 139.14 156.898 138.996 157.622C138.575 159.624 135.916 161.178 131.31 162.127C123.717 163.694 115.373 155.172 114.847 154.632C114.702 154.408 113.176 151.8 114.123 146.835V146.822ZM235.05 33.6659C236.051 34.5879 236.116 36.1553 235.208 37.1563L147.615 132.899C145.997 133.387 144.286 134.058 142.615 134.875L140.917 132.913L231.576 33.8108C232.024 33.3234 232.629 33.0336 233.287 33.0073C233.945 32.981 234.577 33.2049 235.064 33.6527L235.05 33.6659ZM250.842 166.513C251.395 166.908 251.435 167.501 251.303 167.922C251.158 168.344 250.777 168.792 250.106 168.792H250.092C236.801 168.647 205.519 165.156 202.177 136.113C199.282 110.956 188.003 100.787 182.345 97.2048L236.314 38.21C236.393 38.289 236.485 38.3549 236.551 38.4603C241.038 46.3895 254.698 75.2481 241.815 113.788C230.958 146.282 242.815 160.77 250.842 166.5V166.513ZM150.247 132.28L150.853 131.622C151.09 131.793 151.313 131.964 151.563 132.135C151.142 132.162 150.708 132.201 150.261 132.28H150.247ZM139.891 131.754L138.732 130.423C138.456 130.107 137.969 130.068 137.653 130.344C137.337 130.621 137.298 131.108 137.574 131.424L139.18 133.268C139.18 133.268 139.219 133.36 139.259 133.4L141.114 135.613C140.127 136.14 139.167 136.706 138.246 137.299C136.956 138.142 135.285 139.367 133.942 140.776C129.099 137.931 127.533 131.503 127.152 129.501L127.217 129.475L127.02 128.764C126.823 128.052 127.125 127.302 127.428 126.801C128.389 125.128 130.56 123.653 132.955 123.021C135.113 122.454 138.996 123.877 144.168 127.051L139.891 131.727V131.754ZM125.704 130.041C126.178 132.465 127.875 138.84 132.955 141.988C131.902 143.397 131.284 144.951 131.705 146.479C132.021 147.651 132.758 148.56 133.903 149.206C136.364 150.575 140.417 150.417 143.825 149.904C140.562 153.328 137.206 154.869 133.824 154.461C125.717 153.5 119.703 141.895 119.085 140.657C118.348 133.9 123.612 130.937 125.704 130.041ZM83.8552 234.873C83.5262 234.227 83.5526 233.49 83.9342 232.871C84.3158 232.251 84.9607 231.896 85.6845 231.896H189.793C190.543 231.896 191.228 232.304 191.596 232.963L227.049 298.109C227.405 298.754 227.378 299.505 227.01 300.137C226.641 300.769 225.983 301.138 225.246 301.138H119.019C118.242 301.138 117.545 300.717 117.19 300.018L83.8552 234.873ZM118.058 303.904C118.058 303.219 118.611 302.653 119.308 302.653H281.795C282.479 302.653 283.045 303.206 283.045 303.904C283.045 304.602 282.492 305.155 281.795 305.155H119.308C118.624 305.155 118.058 304.602 118.058 303.904Z" fill="#151924"/>
<path d="M236.551 38.4734C236.485 38.368 236.393 38.3022 236.314 38.2231L182.345 97.218C188.004 100.801 199.282 110.982 202.177 136.126C205.519 165.169 236.801 168.647 250.092 168.805H250.106C250.777 168.805 251.172 168.357 251.303 167.935C251.435 167.514 251.395 166.921 250.843 166.526C242.802 160.783 230.958 146.295 241.815 113.814C254.698 75.2744 241.038 46.4158 236.551 38.4866V38.4734Z" fill="white"/>
<path d="M112.176 163.457C113.189 164.392 119.94 170.411 126.889 169.239C130.1 168.699 132.061 167.487 132.719 165.63C132.982 164.906 133.021 164.116 132.943 163.312C132.508 163.417 132.074 163.536 131.6 163.628C130.85 163.786 130.1 163.852 129.35 163.852C122.217 163.852 115.453 157.438 113.966 155.936C113.268 156.12 111.689 156.726 111.307 158.597L111.202 159.071C110.9 160.467 110.61 161.824 112.202 163.444L112.163 163.47L112.176 163.457Z" fill="white"/>
<path d="M281.782 305.155C282.466 305.155 283.032 304.602 283.032 303.904C283.032 303.206 282.479 302.653 281.782 302.653H119.295C118.611 302.653 118.045 303.206 118.045 303.904C118.045 304.602 118.598 305.155 119.295 305.155H281.782Z" fill="white"/>
<path d="M119.006 301.125H225.233C225.957 301.125 226.615 300.743 226.997 300.124C227.365 299.492 227.378 298.741 227.036 298.096L191.583 232.95C191.228 232.291 190.53 231.883 189.78 231.883H85.6714C84.9476 231.883 84.3027 232.252 83.9211 232.857C83.5526 233.477 83.5131 234.214 83.8421 234.86L117.176 300.005C117.532 300.69 118.229 301.125 119.006 301.125ZM143.602 272.398C141.693 272.398 139.864 270.844 139.535 268.934C139.193 267.024 140.47 265.47 142.391 265.47C144.312 265.47 146.128 267.024 146.457 268.934C146.786 270.844 145.523 272.398 143.602 272.398ZM153.709 272.556C151.8 272.556 149.971 271.002 149.642 269.092C149.3 267.182 150.576 265.628 152.498 265.628C154.419 265.628 156.235 267.182 156.564 269.092C156.906 271.002 155.63 272.556 153.709 272.556ZM163.815 272.556C161.907 272.556 160.078 271.002 159.749 269.092C159.407 267.182 160.683 265.628 162.605 265.628C164.526 265.628 166.342 267.182 166.671 269.092C167.013 271.002 165.737 272.556 163.815 272.556Z" fill="white"/>
<path d="M142.391 265.47C140.483 265.47 139.206 267.024 139.535 268.934C139.877 270.844 141.693 272.398 143.601 272.398C145.51 272.398 146.786 270.844 146.457 268.934C146.128 267.024 144.299 265.47 142.391 265.47Z" fill="#367DCB"/>
<path d="M152.485 265.628C150.576 265.628 149.3 267.182 149.629 269.092C149.971 271.002 151.787 272.556 153.695 272.556C155.603 272.556 156.88 271.002 156.551 269.092C156.209 267.182 154.393 265.628 152.485 265.628Z" fill="#367DCB"/>
<path d="M162.605 265.628C160.696 265.628 159.42 267.182 159.749 269.092C160.091 271.002 161.907 272.556 163.815 272.556C165.724 272.556 167 271.002 166.671 269.092C166.329 267.182 164.513 265.628 162.605 265.628Z" fill="#367DCB"/>
<path d="M140.904 132.913L142.601 134.875C144.286 134.059 145.997 133.387 147.602 132.9L235.195 37.1565C236.116 36.1554 236.051 34.588 235.037 33.666C234.55 33.2182 233.919 32.9943 233.261 33.0206C232.603 33.047 231.997 33.3368 231.55 33.8241L140.891 132.926L140.904 132.913Z" fill="white"/>
</svg>
