<svg width="132" height="39" viewBox="0 0 132 39" fill="none" xmlns="http://www.w3.org/2000/svg">
<path d="M22.5 38.3793C22.4576 38.3793 22.4152 38.376 22.3733 38.3693L0.706667 35.036C0.509971 35.0057 0.330594 34.9061 0.200981 34.7551C0.0713676 34.6041 7.57235e-05 34.4117 0 34.2127V5.87932C0.000111052 5.69083 0.0641162 5.50795 0.181566 5.36054C0.299016 5.21312 0.462972 5.10987 0.646667 5.06765L22.3133 0.0676506C22.4355 0.038592 22.5627 0.0376877 22.6852 0.065006C22.8078 0.0923243 22.9225 0.14715 23.0208 0.225339C23.1191 0.303527 23.1982 0.403031 23.2524 0.516328C23.3065 0.629626 23.3342 0.75375 23.3333 0.879317V37.546C23.3342 37.6557 23.3133 37.7644 23.2717 37.8659C23.2301 37.9674 23.1688 38.0597 23.0912 38.1372C23.0137 38.2148 22.9215 38.2761 22.82 38.3177C22.7184 38.3593 22.6097 38.3802 22.5 38.3793ZM1.66667 33.4976L21.6667 36.5743V1.92598L1.66667 6.54265V33.4976Z" fill="#BD3719"/>
<path d="M39.1667 35.0452H22.5C22.279 35.0452 22.067 34.9574 21.9107 34.8011C21.7545 34.6448 21.6667 34.4328 21.6667 34.2118C21.6667 33.9908 21.7545 33.7789 21.9107 33.6226C22.067 33.4663 22.279 33.3785 22.5 33.3785H38.3333V5.04517H22.5C22.279 5.04517 22.067 4.95737 21.9107 4.80109C21.7545 4.64481 21.6667 4.43285 21.6667 4.21183C21.6667 3.99082 21.7545 3.77886 21.9107 3.62258C22.067 3.4663 22.279 3.3785 22.5 3.3785H39.1667C39.3877 3.3785 39.5996 3.4663 39.7559 3.62258C39.9122 3.77886 40 3.99082 40 4.21183V34.2118C40 34.4328 39.9122 34.6448 39.7559 34.8011C39.5996 34.9574 39.3877 35.0452 39.1667 35.0452Z" fill="#BD3719"/>
<path d="M34.1667 30.0452H22.5C22.279 30.0452 22.067 29.9574 21.9107 29.8011C21.7545 29.6448 21.6667 29.4328 21.6667 29.2118C21.6667 28.9908 21.7545 28.7789 21.9107 28.6226C22.067 28.4663 22.279 28.3785 22.5 28.3785H34.1667C34.3877 28.3785 34.5996 28.4663 34.7559 28.6226C34.9122 28.7789 35 28.9908 35 29.2118C35 29.4328 34.9122 29.6448 34.7559 29.8011C34.5996 29.9574 34.3877 30.0452 34.1667 30.0452ZM34.1667 25.0452H22.5C22.279 25.0452 22.067 24.9574 21.9107 24.8011C21.7545 24.6448 21.6667 24.4328 21.6667 24.2118C21.6667 23.9908 21.7545 23.7789 21.9107 23.6226C22.067 23.4663 22.279 23.3785 22.5 23.3785H34.1667C34.3877 23.3785 34.5996 23.4663 34.7559 23.6226C34.9122 23.7789 35 23.9908 35 24.2118C35 24.4328 34.9122 24.6448 34.7559 24.8011C34.5996 24.9574 34.3877 25.0452 34.1667 25.0452ZM7.5 26.7118C7.27899 26.7118 7.06702 26.624 6.91074 26.4678C6.75446 26.3115 6.66667 26.0995 6.66667 25.8785V12.5452C6.66667 12.3242 6.75446 12.1122 6.91074 11.9559C7.06702 11.7996 7.27899 11.7118 7.5 11.7118H10.8333C13.13 11.7118 15 13.5802 15 15.8785V17.5452C15 19.8418 13.13 21.7118 10.8333 21.7118H8.33333V25.8785C8.33333 26.0995 8.24554 26.3115 8.08926 26.4678C7.93297 26.624 7.72101 26.7118 7.5 26.7118ZM8.33333 20.0452H10.8333C12.2117 20.0452 13.3333 18.9235 13.3333 17.5452V15.8785C13.3333 14.5002 12.2117 13.3785 10.8333 13.3785H8.33333V20.0452ZM34.1667 15.0452H29.1667C28.9457 15.0452 28.7337 14.9574 28.5774 14.8011C28.4211 14.6448 28.3333 14.4328 28.3333 14.2118V9.21183C28.3333 8.99082 28.4211 8.77886 28.5774 8.62258C28.7337 8.4663 28.9457 8.3785 29.1667 8.3785C32.3833 8.3785 35 10.9952 35 14.2118C35 14.4328 34.9122 14.6448 34.7559 14.8011C34.5996 14.9574 34.3877 15.0452 34.1667 15.0452ZM30 13.3785H33.25C33.0849 12.5786 32.6891 11.8445 32.1116 11.2669C31.534 10.6894 30.7999 10.2936 30 10.1285V13.3785Z" fill="#BD3719"/>
<path d="M27.5 21.7118C24.2833 21.7118 21.6667 19.0952 21.6667 15.8785C21.6667 12.6618 24.2833 10.0452 27.5 10.0452C27.721 10.0452 27.933 10.133 28.0893 10.2892C28.2455 10.4455 28.3333 10.6575 28.3333 10.8785C28.3333 11.0995 28.2455 11.3115 28.0893 11.4678C27.933 11.624 27.721 11.7118 27.5 11.7118C25.2033 11.7118 23.3333 13.5802 23.3333 15.8785C23.3333 18.1768 25.2033 20.0452 27.5 20.0452C29.7967 20.0452 31.6667 18.1752 31.6667 15.8785C31.6667 15.6575 31.7545 15.4455 31.9107 15.2892C32.067 15.133 32.279 15.0452 32.5 15.0452C32.721 15.0452 32.933 15.133 33.0893 15.2892C33.2455 15.4455 33.3333 15.6575 33.3333 15.8785C33.3333 19.0935 30.7167 21.7118 27.5 21.7118Z" fill="#BD3719"/>
<path d="M49.344 6.82825H51.664L54.992 15.4682L55.04 15.4842L58.192 6.82825H60.432V17.2122H59.072V8.42825H58.992L55.648 17.2122H54.256L50.816 8.42825H50.736V17.2122H49.344V6.82825ZM62.5493 6.66825H63.9893V8.17225H62.5493V6.66825ZM62.5493 9.46825H63.9893V17.2122H62.5493V9.46825ZM69.1268 17.3722C68.5934 17.3722 68.2041 17.3616 67.9588 17.3402C67.7241 17.3189 67.4521 17.2656 67.1428 17.1802C66.8121 17.0949 66.5561 16.9669 66.3748 16.7962C66.1934 16.6256 66.0388 16.3749 65.9108 16.0442C65.7828 15.7242 65.7188 15.3242 65.7188 14.8442V11.9962C65.7188 11.1322 65.8841 10.5136 66.2148 10.1402C66.3961 9.92692 66.5774 9.76692 66.7588 9.66025C66.9508 9.54292 67.1961 9.46292 67.4948 9.42025C67.7934 9.37758 68.0601 9.35092 68.2948 9.34025C68.5294 9.31892 68.8601 9.30825 69.2868 9.30825C70.0228 9.30825 70.7588 9.38825 71.4948 9.54825V10.6042C70.6414 10.3909 69.8468 10.2842 69.1108 10.2842C68.5561 10.2842 68.1454 10.3269 67.8788 10.4122C67.6228 10.4869 67.4414 10.6309 67.3348 10.8442C67.2388 11.0469 67.1908 11.3616 67.1908 11.7882V14.9562C67.1908 15.3509 67.2441 15.6442 67.3508 15.8362C67.4681 16.0282 67.6708 16.1669 67.9588 16.2522C68.2574 16.3269 68.6948 16.3642 69.2708 16.3642C70.0494 16.3642 70.8281 16.2629 71.6068 16.0602V17.1482C70.8814 17.2976 70.0548 17.3722 69.1268 17.3722ZM72.9486 9.46825H74.3086V10.7322C74.3086 10.4869 74.4153 10.2576 74.6286 10.0442C74.842 9.82025 75.114 9.64425 75.4446 9.51625C75.7753 9.37758 76.1006 9.30825 76.4206 9.30825H77.1246V10.5402H76.3246C75.642 10.5402 75.146 10.6309 74.8366 10.8122C74.538 10.9829 74.3886 11.2976 74.3886 11.7562V17.2122H72.9486V9.46825ZM81.358 17.3722C80.6753 17.3722 80.1633 17.3456 79.822 17.2922C79.4807 17.2496 79.1393 17.1482 78.798 16.9882C78.446 16.8282 78.19 16.5722 78.03 16.2202C77.87 15.8576 77.79 15.3722 77.79 14.7642V12.0762C77.79 11.5962 77.8487 11.1749 77.966 10.8122C78.0833 10.4496 78.238 10.1669 78.43 9.96425C78.59 9.78292 78.83 9.64425 79.15 9.54825C79.4807 9.44158 79.8167 9.37225 80.158 9.34025C80.542 9.31892 80.942 9.30825 81.358 9.30825C81.9127 9.30825 82.3287 9.32425 82.606 9.35625C82.894 9.37758 83.198 9.43092 83.518 9.51625C83.8487 9.61225 84.1047 9.75625 84.286 9.94825C84.4673 10.1402 84.622 10.4176 84.75 10.7802C84.8673 11.1536 84.926 11.5856 84.926 12.0762V14.7642C84.926 15.6709 84.718 16.3322 84.302 16.7482C84.1313 16.9189 83.886 17.0522 83.566 17.1482C83.246 17.2442 82.9153 17.3082 82.574 17.3402C82.1687 17.3616 81.7633 17.3722 81.358 17.3722ZM81.358 16.4282C81.806 16.4282 82.1313 16.4176 82.334 16.3962C82.5367 16.3749 82.734 16.3162 82.926 16.2202C83.118 16.1349 83.2513 15.9962 83.326 15.8042C83.4113 15.6016 83.454 15.3242 83.454 14.9722V11.8362C83.454 11.3562 83.3953 11.0096 83.278 10.7962C83.1607 10.5722 82.958 10.4282 82.67 10.3642C82.3927 10.2896 81.9553 10.2522 81.358 10.2522C80.7607 10.2522 80.318 10.2896 80.03 10.3642C79.7527 10.4282 79.5553 10.5722 79.438 10.7962C79.3207 11.0096 79.262 11.3562 79.262 11.8362V14.9722C79.262 15.3242 79.2993 15.6016 79.374 15.8042C79.4593 15.9962 79.598 16.1349 79.79 16.2202C79.982 16.3162 80.1793 16.3749 80.382 16.3962C80.5847 16.4176 80.91 16.4282 81.358 16.4282ZM89.0597 17.3722C88.2384 17.3722 87.3531 17.3082 86.4037 17.1802V16.0762C87.6517 16.2789 88.5477 16.3802 89.0917 16.3802C89.7744 16.3802 90.2651 16.3162 90.5637 16.1882C90.8624 16.0496 91.0117 15.7989 91.0117 15.4362V14.6522C91.0117 14.3216 90.8997 14.0869 90.6757 13.9482C90.4517 13.8096 90.0891 13.7402 89.5877 13.7402H88.7077C87.9077 13.7402 87.2944 13.5749 86.8677 13.2442C86.4517 12.9136 86.2437 12.4496 86.2437 11.8522V11.1322C86.2437 9.91625 87.3957 9.30825 89.6997 9.30825C89.8704 9.30825 90.6544 9.35092 92.0517 9.43625V10.4762C91.1024 10.3269 90.2971 10.2522 89.6357 10.2522C88.8784 10.2522 88.3611 10.3269 88.0837 10.4762C87.8064 10.6256 87.6677 10.8762 87.6677 11.2282V11.8842C87.6677 12.4069 88.1424 12.6682 89.0917 12.6682H89.9877C91.6197 12.6682 92.4357 13.2762 92.4357 14.4922V15.1642C92.4357 15.9642 92.1584 16.5349 91.6037 16.8762C91.0491 17.2069 90.2011 17.3722 89.0597 17.3722ZM97.2261 17.3722C96.5435 17.3722 96.0315 17.3456 95.6901 17.2922C95.3488 17.2496 95.0075 17.1482 94.6661 16.9882C94.3141 16.8282 94.0581 16.5722 93.8981 16.2202C93.7381 15.8576 93.6581 15.3722 93.6581 14.7642V12.0762C93.6581 11.5962 93.7168 11.1749 93.8341 10.8122C93.9515 10.4496 94.1061 10.1669 94.2981 9.96425C94.4581 9.78292 94.6981 9.64425 95.0181 9.54825C95.3488 9.44158 95.6848 9.37225 96.0261 9.34025C96.4101 9.31892 96.8101 9.30825 97.2261 9.30825C97.7808 9.30825 98.1968 9.32425 98.4741 9.35625C98.7621 9.37758 99.0661 9.43092 99.3861 9.51625C99.7168 9.61225 99.9728 9.75625 100.154 9.94825C100.335 10.1402 100.49 10.4176 100.618 10.7802C100.735 11.1536 100.794 11.5856 100.794 12.0762V14.7642C100.794 15.6709 100.586 16.3322 100.17 16.7482C99.9995 16.9189 99.7541 17.0522 99.4341 17.1482C99.1141 17.2442 98.7835 17.3082 98.4421 17.3402C98.0368 17.3616 97.6315 17.3722 97.2261 17.3722ZM97.2261 16.4282C97.6741 16.4282 97.9995 16.4176 98.2021 16.3962C98.4048 16.3749 98.6021 16.3162 98.7941 16.2202C98.9861 16.1349 99.1195 15.9962 99.1941 15.8042C99.2795 15.6016 99.3221 15.3242 99.3221 14.9722V11.8362C99.3221 11.3562 99.2635 11.0096 99.1461 10.7962C99.0288 10.5722 98.8261 10.4282 98.5381 10.3642C98.2608 10.2896 97.8235 10.2522 97.2261 10.2522C96.6288 10.2522 96.1861 10.2896 95.8981 10.3642C95.6208 10.4282 95.4235 10.5722 95.3061 10.7962C95.1888 11.0096 95.1301 11.3562 95.1301 11.8362V14.9722C95.1301 15.3242 95.1675 15.6016 95.2421 15.8042C95.3275 15.9962 95.4661 16.1349 95.6581 16.2202C95.8501 16.3162 96.0475 16.3749 96.2501 16.3962C96.4528 16.4176 96.7781 16.4282 97.2261 16.4282ZM103.248 10.4122H101.472V9.46825H103.248V8.22025C103.248 7.37758 103.483 6.77492 103.952 6.41225C104.432 6.03892 105.157 5.85225 106.128 5.85225C106.491 5.85225 106.923 5.87892 107.424 5.93225V6.87625C107.019 6.82292 106.603 6.79625 106.176 6.79625C105.643 6.79625 105.259 6.89225 105.024 7.08425C104.8 7.27625 104.688 7.62292 104.688 8.12425V9.46825H107.264V10.4122H104.688V17.2122H103.248V10.4122ZM111.406 17.3722C110.745 17.3722 110.227 17.3029 109.854 17.1642C109.481 17.0149 109.209 16.7696 109.038 16.4282C108.878 16.0762 108.798 15.5856 108.798 14.9562V10.4122H107.07V9.46825H108.798V7.06825H110.254V9.46825H113.022V10.4122H110.254V15.0362C110.254 15.4202 110.297 15.7082 110.382 15.9002C110.478 16.0922 110.638 16.2309 110.862 16.3162C111.097 16.3909 111.433 16.4282 111.87 16.4282C112.009 16.4282 112.393 16.3856 113.022 16.3002V17.2442C112.478 17.3296 111.939 17.3722 111.406 17.3722ZM49.12 22.8282H53.28C54.2933 22.8282 55.0933 22.8976 55.68 23.0362C56.2773 23.1749 56.7093 23.4202 56.976 23.7722C57.2533 24.1136 57.392 24.5936 57.392 25.2122V27.1802C57.392 27.8629 57.2427 28.3962 56.944 28.7802C56.656 29.1642 56.192 29.4362 55.552 29.5962C54.9227 29.7562 54.0693 29.8362 52.992 29.8362H51.616V33.2122H49.12V22.8282ZM53.2 28.1242C53.8507 28.1242 54.3093 28.0496 54.576 27.9002C54.8427 27.7402 54.976 27.4736 54.976 27.1002V25.4362C54.976 25.0949 54.848 24.8709 54.592 24.7642C54.3467 24.6576 53.872 24.6042 53.168 24.6042H51.616V28.1242H53.2ZM62.2873 33.3722C61.8073 33.3722 61.4126 33.3562 61.1033 33.3242C60.7939 33.2922 60.4633 33.2282 60.1113 33.1322C59.7273 33.0256 59.4179 32.8762 59.1833 32.6842C58.9486 32.4816 58.7513 32.1989 58.5913 31.8362C58.4313 31.4842 58.3513 31.0576 58.3513 30.5562V28.2682C58.3513 27.7562 58.4313 27.3082 58.5913 26.9242C58.7513 26.5402 58.9593 26.2416 59.2153 26.0282C59.4393 25.8469 59.7326 25.6976 60.0953 25.5802C60.4686 25.4522 60.8313 25.3722 61.1833 25.3402C61.5886 25.3189 61.9566 25.3082 62.2873 25.3082C62.7779 25.3082 63.1673 25.3242 63.4553 25.3562C63.7539 25.3776 64.0793 25.4416 64.4313 25.5482C64.8153 25.6656 65.1246 25.8256 65.3593 26.0282C65.6046 26.2309 65.8126 26.5189 65.9833 26.8922C66.1433 27.2762 66.2233 27.7349 66.2233 28.2682V30.5562C66.2233 31.0362 66.1433 31.4576 65.9833 31.8202C65.8339 32.1829 65.6366 32.4656 65.3913 32.6682C65.1779 32.8496 64.8846 32.9989 64.5113 33.1162C64.1486 33.2229 63.7913 33.2922 63.4393 33.3242C63.1193 33.3562 62.7353 33.3722 62.2873 33.3722ZM62.2873 31.9162C62.7246 31.9162 63.0553 31.8842 63.2793 31.8202C63.5033 31.7456 63.6579 31.6336 63.7433 31.4842C63.8393 31.3349 63.8873 31.1162 63.8873 30.8282V27.9002C63.8873 27.4736 63.7753 27.1749 63.5513 27.0042C63.3273 26.8336 62.9059 26.7482 62.2873 26.7482C61.6686 26.7482 61.2473 26.8336 61.0233 27.0042C60.7993 27.1749 60.6873 27.4736 60.6873 27.9002V30.8282C60.6873 31.1162 60.7299 31.3349 60.8153 31.4842C60.9113 31.6336 61.0713 31.7456 61.2953 31.8202C61.5193 31.8842 61.8499 31.9162 62.2873 31.9162ZM66.668 25.4682H69.052L70.492 31.0842L72.028 25.4682H74.316L75.916 31.0842L77.292 25.4682H79.564L77.036 33.2122H74.668L73.132 27.9802L71.628 33.2122H69.26L66.668 25.4682ZM84.1282 33.3722C81.3869 33.3722 80.0162 32.5349 80.0162 30.8602V28.0762C80.0162 27.1056 80.3256 26.4016 80.9442 25.9642C81.5736 25.5269 82.5389 25.3082 83.8402 25.3082C85.0669 25.3082 85.9629 25.5216 86.5282 25.9482C87.1042 26.3642 87.3923 27.0736 87.3923 28.0762V29.9642H82.3682V30.6682C82.3682 31.1162 82.5282 31.4362 82.8482 31.6282C83.1682 31.8202 83.7442 31.9162 84.5762 31.9162C85.3442 31.9162 86.2082 31.8042 87.1682 31.5802V33.0682C86.2189 33.2709 85.2056 33.3722 84.1282 33.3722ZM85.1682 28.6362V27.5162C85.1682 27.2602 85.0616 27.0682 84.8482 26.9402C84.6456 26.8122 84.2989 26.7482 83.8082 26.7482C83.2429 26.7482 82.8642 26.8122 82.6722 26.9402C82.4696 27.0789 82.3682 27.2709 82.3682 27.5162V28.6362H85.1682ZM88.6978 25.4682H90.9218V26.8282C90.9218 26.5829 91.0231 26.3429 91.2258 26.1082C91.4284 25.8736 91.6844 25.6816 91.9938 25.5322C92.3138 25.3829 92.6284 25.3082 92.9378 25.3082H93.7698V27.2442H92.9698C92.3084 27.2442 91.8178 27.3456 91.4978 27.5482C91.1884 27.7509 91.0338 28.0869 91.0338 28.5562V33.2122H88.6978V25.4682ZM94.6731 22.8282H98.8331C99.8465 22.8282 100.646 22.8976 101.233 23.0362C101.83 23.1749 102.262 23.4202 102.529 23.7722C102.806 24.1136 102.945 24.5936 102.945 25.2122V27.1802C102.945 27.8629 102.796 28.3962 102.497 28.7802C102.209 29.1642 101.745 29.4362 101.105 29.5962C100.476 29.7562 99.6225 29.8362 98.5451 29.8362H97.1691V33.2122H94.6731V22.8282ZM98.7531 28.1242C99.4038 28.1242 99.8625 28.0496 100.129 27.9002C100.396 27.7402 100.529 27.4736 100.529 27.1002V25.4362C100.529 25.0949 100.401 24.8709 100.145 24.7642C99.8998 24.6576 99.4251 24.6042 98.7211 24.6042H97.1691V28.1242H98.7531ZM107.84 33.3722C107.36 33.3722 106.966 33.3562 106.656 33.3242C106.347 33.2922 106.016 33.2282 105.664 33.1322C105.28 33.0256 104.971 32.8762 104.736 32.6842C104.502 32.4816 104.304 32.1989 104.144 31.8362C103.984 31.4842 103.904 31.0576 103.904 30.5562V28.2682C103.904 27.7562 103.984 27.3082 104.144 26.9242C104.304 26.5402 104.512 26.2416 104.768 26.0282C104.992 25.8469 105.286 25.6976 105.648 25.5802C106.022 25.4522 106.384 25.3722 106.736 25.3402C107.142 25.3189 107.51 25.3082 107.84 25.3082C108.331 25.3082 108.72 25.3242 109.008 25.3562C109.307 25.3776 109.632 25.4416 109.984 25.5482C110.368 25.6656 110.678 25.8256 110.912 26.0282C111.158 26.2309 111.366 26.5189 111.536 26.8922C111.696 27.2762 111.776 27.7349 111.776 28.2682V30.5562C111.776 31.0362 111.696 31.4576 111.536 31.8202C111.387 32.1829 111.19 32.4656 110.944 32.6682C110.731 32.8496 110.438 32.9989 110.064 33.1162C109.702 33.2229 109.344 33.2922 108.992 33.3242C108.672 33.3562 108.288 33.3722 107.84 33.3722ZM107.84 31.9162C108.278 31.9162 108.608 31.8842 108.832 31.8202C109.056 31.7456 109.211 31.6336 109.296 31.4842C109.392 31.3349 109.44 31.1162 109.44 30.8282V27.9002C109.44 27.4736 109.328 27.1749 109.104 27.0042C108.88 26.8336 108.459 26.7482 107.84 26.7482C107.222 26.7482 106.8 26.8336 106.576 27.0042C106.352 27.1749 106.24 27.4736 106.24 27.9002V30.8282C106.24 31.1162 106.283 31.3349 106.368 31.4842C106.464 31.6336 106.624 31.7456 106.848 31.8202C107.072 31.8842 107.403 31.9162 107.84 31.9162ZM113.181 22.6682H115.517V24.5562H113.181V22.6682ZM113.181 25.4682H115.517V33.2122H113.181V25.4682ZM117.153 25.4682H119.457V26.4122C119.638 25.6762 120.465 25.3082 121.937 25.3082C122.929 25.3082 123.622 25.4896 124.017 25.8522C124.422 26.2042 124.625 26.7642 124.625 27.5322V33.2122H122.289V27.8362C122.289 27.5376 122.257 27.3136 122.193 27.1642C122.139 27.0149 122.022 26.9082 121.841 26.8442C121.67 26.7802 121.403 26.7482 121.041 26.7482C120.582 26.7482 120.246 26.7802 120.033 26.8442C119.819 26.8976 119.675 26.9989 119.601 27.1482C119.526 27.2976 119.489 27.5269 119.489 27.8362V33.2122H117.153V25.4682ZM130.06 33.3722C129.666 33.3722 129.335 33.3562 129.068 33.3242C128.802 33.2922 128.535 33.2282 128.268 33.1322C127.97 33.0362 127.724 32.9029 127.532 32.7322C127.351 32.5616 127.202 32.3269 127.084 32.0282C126.956 31.7189 126.892 31.3616 126.892 30.9562V26.9082H125.324V25.4682H126.892V23.2282H129.228V25.4682H131.356V26.9082H129.228V30.5562C129.228 30.9296 129.26 31.2122 129.324 31.4042C129.388 31.5856 129.511 31.7189 129.692 31.8042C129.874 31.8789 130.151 31.9162 130.524 31.9162C130.674 31.9162 130.951 31.8896 131.356 31.8362V33.2922C130.855 33.3456 130.423 33.3722 130.06 33.3722Z" fill="#BD3719"/>
</svg>
