<svg width="629" height="514" viewBox="0 0 629 514" fill="none" xmlns="http://www.w3.org/2000/svg">
<path d="M75.8607 41.8075C113.837 23.7754 163.311 30.9659 193.74 58.9543C214.295 77.8716 225.793 103.979 245.072 124.002C281.19 161.504 344.948 171.46 391.751 147.013C447.17 117.968 481.016 41.6613 549 39.1531C586.976 37.7145 623.559 67.1415 628.437 102.983C633.315 138.936 605.907 176.217 568.743 184.071C514.047 195.934 499.882 220.5 552.831 273.013C579.915 299.602 598.076 329.311 569.439 365.164C543.283 397.364 485.811 409.304 436.695 380.652C355.376 333.012 424.343 337.625 359 426.008C297.406 510.125 228.439 450.892 185.26 446.252C144.846 441.716 105.011 465.833 64.8273 459.528C2.59888 449.73 -21.7726 375.71 23.7161 333.857C52.866 306.975 99.4362 305.426 131.839 282.416C158.16 263.678 154.141 240.005 128.703 231.307C-33.0159 176.002 14.5967 71.165 75.8607 41.8075Z" fill="white"/>
<path d="M501.733 513.726C534.653 513.211 548.104 478.216 507.056 449.336C462.194 417.773 428.89 441.268 429.282 463.579C429.636 483.627 461.052 514.362 501.733 513.726Z" fill="white"/>
<g clip-path="url(#clip0_9992_1576)">
<path d="M260.706 295.64C260.706 247.484 260.923 190.76 260.923 139.418C181.565 139.418 106.049 138.797 37.2217 138.797C37.8156 190.017 38.4191 241.678 38.4191 295.2C84.4616 295.2 140.974 295.415 194.647 295.545C199.126 295.556 228.926 338.764 228.926 338.764C228.926 338.764 218.226 295.596 223.265 295.604C236.128 295.627 248.675 295.64 260.706 295.64Z" fill="white"/>
<path d="M39.3614 294.257C71.4099 294.259 107.704 294.362 146.107 294.472C162.305 294.518 178.604 294.564 194.649 294.602C195.629 294.604 197.921 294.609 214.222 316.597C219.164 323.262 223.931 329.98 226.838 334.122C224.171 322.778 219.021 298.986 221.845 295.381C222.206 294.918 222.711 294.661 223.263 294.661H223.265C235.795 294.682 248.022 294.697 259.764 294.697C259.766 271.276 259.815 246.36 259.871 220C259.924 193.527 259.981 166.166 259.981 140.362C219.219 140.358 179.528 140.194 141.132 140.034C105.111 139.883 71.0653 139.742 38.1754 139.741L38.1792 140.146C38.7579 189.996 39.3538 241.532 39.3614 294.257ZM228.926 339.707C228.626 339.707 228.332 339.56 228.151 339.299C213.847 318.561 197.398 296.877 194.626 296.486C178.599 296.45 162.299 296.402 146.101 296.357C107.323 296.246 70.6941 296.141 38.4191 296.141C37.8994 296.141 37.4787 295.72 37.4787 295.2C37.4787 242.159 36.8771 190.309 36.2965 140.167L36.2793 138.809C36.2774 138.555 36.3745 138.313 36.5515 138.134C36.7286 137.955 36.9704 137.854 37.2216 137.854C70.4123 137.854 104.768 137.997 141.14 138.148C179.828 138.31 219.834 138.475 260.923 138.475C261.443 138.475 261.866 138.898 261.866 139.419C261.866 165.501 261.809 193.209 261.753 220.003C261.7 246.716 261.647 271.947 261.647 295.64C261.647 296.16 261.226 296.581 260.706 296.581C248.692 296.581 236.166 296.568 223.32 296.547C223.038 296.865 221.725 299.441 225.37 318.247C227.35 328.464 229.815 338.438 229.84 338.537C229.95 338.979 229.728 339.436 229.315 339.623C229.189 339.68 229.058 339.707 228.926 339.707Z" fill="black"/>
<path d="M220.419 129.335C188.17 129.214 155.926 128.932 123.679 128.646C96.3919 128.404 64.7755 128.975 37.49 128.632C37.1492 135.985 37.115 141.84 37.49 146.59C107.633 146.59 190.11 145.59 260.71 146.59C261.108 141.93 260.822 135.324 260.822 129.547C248.953 129.541 232.281 129.379 220.419 129.335Z" fill="#ACD4F7"/>
<path d="M38.3905 129.585C38.0955 136.324 38.0878 141.478 38.3658 145.647C61.0196 145.644 84.5148 145.541 109.371 145.432C160.095 145.209 212.536 144.977 259.838 145.636C260.038 142.519 259.983 138.607 259.932 134.815C259.911 133.36 259.89 131.906 259.884 130.488C253.023 130.481 244.712 130.426 236.665 130.372C230.883 130.334 225.25 130.296 220.415 130.277C187.386 130.153 153.537 129.854 123.67 129.589C110.854 129.475 96.8222 129.541 83.2489 129.608C68.185 129.679 52.6187 129.755 38.3905 129.585ZM260.712 147.532C260.706 147.532 260.703 147.532 260.699 147.532C213.181 146.859 160.411 147.092 109.379 147.316C84.2007 147.427 60.418 147.532 37.4901 147.532C36.9989 147.532 36.5896 147.155 36.5515 146.665C36.1898 142.086 36.1898 136.342 36.5496 128.589C36.5725 128.08 37.0027 127.672 37.5015 127.689C51.958 127.87 67.8614 127.794 83.2413 127.722C96.8183 127.657 110.858 127.59 123.687 127.703C153.55 127.968 187.397 128.269 220.423 128.393C225.258 128.41 230.895 128.448 236.678 128.486C245.094 128.543 253.796 128.6 260.824 128.604C261.344 128.606 261.765 129.027 261.765 129.547C261.765 131.247 261.79 133.017 261.814 134.789C261.873 138.992 261.934 143.336 261.649 146.671C261.609 147.158 261.199 147.532 260.712 147.532Z" fill="black"/>
<path d="M243.566 135.756C242.779 135.606 241.942 136.032 241.546 136.671C241.209 137.212 241.161 137.903 241.456 138.464C241.749 139.026 242.393 139.43 243.074 139.447C244.072 139.472 244.961 138.626 244.98 137.717C244.999 136.808 244.249 135.888 243.566 135.756Z" fill="black"/>
<path d="M225.966 135.756C225.178 135.606 224.34 136.032 223.944 136.671C223.609 137.212 223.56 137.903 223.855 138.464C224.15 139.026 224.793 139.43 225.475 139.447C226.47 139.472 227.359 138.626 227.378 137.717C227.397 136.808 226.647 135.888 225.966 135.756Z" fill="black"/>
<path d="M207.228 135.756C206.442 135.606 205.604 136.032 205.208 136.671C204.871 137.212 204.824 137.903 205.119 138.464C205.414 139.026 206.055 139.43 206.737 139.447C207.735 139.472 208.624 138.626 208.643 137.717C208.662 136.808 207.912 135.888 207.228 135.756Z" fill="black"/>
<path d="M69.5424 196.722H145.494V168.7H69.5424V196.722ZM146.436 198.608H68.602C68.0804 198.608 67.6597 198.185 67.6597 197.665V167.757C67.6597 167.237 68.0804 166.814 68.602 166.814H146.436C146.956 166.814 147.376 167.237 147.376 167.757V197.665C147.376 198.185 146.956 198.608 146.436 198.608Z" fill="black"/>
<path d="M69.5424 239.827H107.972V218.767H69.5424V239.827ZM108.912 241.711H68.602C68.0804 241.711 67.6597 241.29 67.6597 240.768V217.824C67.6597 217.303 68.0804 216.882 68.602 216.882H108.912C109.434 216.882 109.855 217.303 109.855 217.824V240.768C109.855 241.29 109.434 241.711 108.912 241.711Z" fill="black"/>
<path d="M133.761 239.827H172.189V218.767H133.761V239.827ZM173.131 241.711H132.819C132.299 241.711 131.876 241.29 131.876 240.768V217.824C131.876 217.303 132.299 216.882 132.819 216.882H173.131C173.651 216.882 174.072 217.303 174.072 217.824V240.768C174.072 241.29 173.651 241.711 173.131 241.711Z" fill="black"/>
<path d="M197.978 239.827H236.406V218.767H197.978V239.827ZM237.348 241.711H197.036C196.516 241.711 196.096 241.29 196.096 240.768V217.824C196.096 217.303 196.516 216.882 197.036 216.882H237.348C237.868 216.882 238.291 217.303 238.291 217.824V240.768C238.291 241.29 237.868 241.711 237.348 241.711Z" fill="black"/>
<path d="M217.192 173.901H217.19L170.609 173.595C170.436 173.593 170.297 173.452 170.299 173.278C170.299 173.105 170.411 172.977 170.615 172.966L217.194 173.273C217.367 173.273 217.508 173.415 217.506 173.589C217.504 173.76 217.365 173.901 217.192 173.901Z" fill="black"/>
<path d="M208.085 183.179C208.083 183.179 208.083 183.179 208.081 183.179L170.609 182.872C170.436 182.872 170.297 182.729 170.299 182.556C170.299 182.382 170.439 182.243 170.613 182.243C170.613 182.243 170.613 182.243 170.615 182.243L208.087 182.55C208.26 182.552 208.399 182.693 208.399 182.866C208.397 183.04 208.256 183.179 208.085 183.179Z" fill="black"/>
<path d="M217.192 192.456H217.19L170.609 192.149C170.436 192.149 170.297 192.006 170.299 191.835C170.299 191.662 170.411 191.53 170.615 191.522L217.194 191.827C217.367 191.829 217.508 191.97 217.506 192.144C217.504 192.317 217.365 192.456 217.192 192.456Z" fill="black"/>
<path d="M105.08 256.238C105.078 256.238 105.078 256.238 105.076 256.238L72.4321 255.933C72.2588 255.931 72.1199 255.788 72.1199 255.615C72.1218 255.443 72.2626 255.304 72.434 255.304C72.4359 255.304 72.4359 255.304 72.4378 255.304L105.082 255.609C105.255 255.611 105.394 255.754 105.394 255.927C105.392 256.099 105.252 256.238 105.08 256.238Z" fill="black"/>
<path d="M101.888 265.517C101.888 265.517 101.886 265.517 101.884 265.517L75.6228 265.21C75.4496 265.208 75.3106 265.065 75.3125 264.892C75.3144 264.72 75.4553 264.581 75.6266 264.581C75.6266 264.581 75.6285 264.581 75.6304 264.581L101.892 264.888C102.065 264.89 102.204 265.031 102.202 265.206C102.2 265.378 102.059 265.517 101.888 265.517Z" fill="black"/>
<path d="M169.297 256.238C169.297 256.238 169.295 256.238 169.294 256.238L136.649 255.933C136.476 255.931 136.337 255.788 136.339 255.615C136.339 255.443 136.48 255.304 136.653 255.304H136.655L169.301 255.609C169.474 255.611 169.613 255.754 169.611 255.927C169.61 256.099 169.469 256.238 169.297 256.238Z" fill="black"/>
<path d="M166.105 265.517C166.105 265.517 166.103 265.517 166.101 265.517L139.84 265.21C139.667 265.208 139.528 265.065 139.53 264.892C139.531 264.72 139.672 264.581 139.844 264.581C139.846 264.581 139.846 264.581 139.847 264.581L166.109 264.888C166.282 264.89 166.421 265.031 166.419 265.206C166.417 265.378 166.278 265.517 166.105 265.517Z" fill="black"/>
<path d="M233.514 256.238H233.512L200.866 255.933C200.693 255.931 200.554 255.788 200.556 255.615C200.558 255.443 200.698 255.304 200.87 255.304C200.87 255.304 200.872 255.304 200.874 255.304L233.518 255.609C233.691 255.611 233.83 255.754 233.828 255.927C233.826 256.099 233.687 256.238 233.514 256.238Z" fill="black"/>
<path d="M230.324 265.517C230.322 265.517 230.322 265.517 230.32 265.517L204.059 265.21C203.883 265.208 203.746 265.065 203.746 264.892C203.75 264.72 203.889 264.581 204.06 264.581C204.062 264.581 204.064 264.581 204.064 264.581L230.327 264.888C230.501 264.89 230.64 265.031 230.638 265.206C230.636 265.378 230.495 265.517 230.324 265.517Z" fill="black"/>
<path d="M446.647 14.647C431.311 10.7849 414.059 16.5162 403.692 27.7158C393.326 38.9155 389.607 54.8594 392.831 69.3306C396.511 85.8404 413.467 98.4424 426.55 99.9381C447.8 102.373 465.23 92.8521 470.654 86.734C480.646 75.4601 485.17 59.8686 481.471 45.668C477.774 31.4675 465.457 19.3818 446.647 14.647Z" fill="white"/>
<path d="M436.713 14.3803C424.783 14.3803 412.618 19.4618 404.385 28.356C394.581 38.9459 390.507 54.5679 393.751 69.1247C397.322 85.1525 413.648 97.5126 426.656 99.0025C428.998 99.2712 431.284 99.395 433.498 99.395C451.968 99.395 465.763 90.8305 469.948 86.109C479.999 74.7684 484.066 59.3656 480.561 45.9062C476.765 31.3302 464.001 19.9877 446.416 15.5597C443.258 14.7651 439.993 14.3803 436.713 14.3803ZM433.308 101.266C431.061 101.266 428.767 101.142 426.441 100.876C412.792 99.3131 395.66 86.3472 391.912 69.5363C388.535 54.3831 392.784 38.1133 403.001 27.0737C413.953 15.2453 431.583 9.88171 446.877 13.7324C465.137 18.3281 478.412 30.1794 482.383 45.4298C486.043 59.4894 481.819 75.5553 471.358 87.359C465.826 93.6009 450.989 101.266 433.308 101.266Z" fill="black"/>
<path d="M436.709 100.26L436.081 100.248L437.827 13.5016L438.455 13.5149L436.709 100.26Z" fill="black"/>
<path d="M481.762 47.415L395.388 45.826L395.4 45.1972L481.773 46.7863L481.762 47.415Z" fill="black"/>
<path d="M479.576 71.9194L393.203 70.3304L393.214 69.7016L479.588 71.2907L479.576 71.9194Z" fill="black"/>
<path d="M437.532 13.7174C425.94 18.9342 416.822 29.3394 413.125 41.5812C409.717 52.8609 410.722 65.7067 415.957 77.7543C420.774 88.8396 428.048 96.099 437.579 99.3343C453.684 90.7545 461.861 81.243 461.861 53.2953C461.861 35.4117 453.901 22.4649 437.532 13.7174ZM437.606 99.9878C437.574 99.9878 437.539 99.984 437.507 99.9726C427.737 96.7011 420.294 89.3102 415.38 78.0039C410.088 65.8211 409.072 52.8209 412.523 41.4002C416.288 28.9373 425.594 18.3493 437.416 13.081C437.503 13.041 437.604 13.0448 437.692 13.0905C454.377 21.958 462.489 35.1088 462.489 53.2953C462.489 81.6298 454.158 91.2384 437.754 99.9516C437.709 99.9764 437.657 99.9878 437.606 99.9878Z" fill="black"/>
<path d="M344.651 143.734C332.89 141.349 303.328 134.589 296.968 148.745C279.37 187.908 437.138 244.491 457.896 225.285C477.203 207.421 412.6 169.582 406.544 166.558C386.73 156.666 365.895 148.042 344.651 143.734Z" fill="white"/>
<path d="M317.368 140.998C308.59 140.998 300.638 142.875 297.826 149.132C292.239 161.569 306.016 174.944 318.559 183.977C337.503 197.618 367.958 211.534 398.04 220.295C427.998 229.022 450.688 230.668 457.256 224.594C459.877 222.166 460.915 219.324 460.426 215.898C457.797 197.446 412.483 170.577 406.123 167.403C382.559 155.637 362.967 148.41 344.463 144.659L342.864 144.331C336.831 143.092 326.639 140.998 317.368 140.998ZM442.048 230.085C431.008 230.085 415.672 227.395 397.513 222.105C367.24 213.289 336.566 199.264 317.459 185.507C298.655 171.966 291.272 159.122 296.107 148.359C302.508 134.116 330.022 139.768 343.243 142.485L344.838 142.81C363.505 146.596 383.249 153.875 406.965 165.717C407.484 165.976 459.285 194.552 462.291 215.633C462.866 219.659 461.602 223.14 458.535 225.977C455.562 228.726 449.889 230.085 442.048 230.085Z" fill="black"/>
<path d="M423.19 219.115C422.834 234.682 432.352 250.577 447.043 255.702C455.042 258.493 463.81 258.097 472.006 260.24C480.203 262.382 488.556 268.557 488.61 277.036C488.646 282.668 485.453 295.442 502.301 302.926C516.2 309.099 512.88 342.498 469.837 356.543C456.651 360.845 465.15 350.021 451.442 347.909C437.905 345.825 425.626 338.162 416.287 328.136C406.949 318.108 400.34 305.816 395.192 293.113C389.262 278.488 385.116 262.329 388.78 246.977C392.447 231.624 405.969 217.753 423.19 219.115Z" fill="#ACD4F7"/>
<path d="M420.859 219.965C404.823 219.965 392.932 233.651 389.698 247.195C386.637 260.014 388.659 274.492 396.064 292.761C401.994 307.388 408.836 318.75 416.976 327.492C426.902 338.148 439.192 345.069 451.585 346.978C458.588 348.056 460.269 351.404 461.497 353.848C462.727 356.299 463.403 357.65 469.546 355.645C497.435 346.545 508.044 329.397 508.655 317.475C508.986 311.026 506.405 305.78 501.918 303.787C486.584 296.976 487.205 285.98 487.576 279.408C487.627 278.501 487.671 277.716 487.667 277.042C487.616 268.967 479.39 263.144 471.768 261.151C468.2 260.219 464.429 259.766 460.783 259.326C456.114 258.764 451.284 258.181 446.732 256.592C432.428 251.602 422.241 236.307 422.238 219.999C421.775 219.977 421.314 219.965 420.859 219.965ZM464.939 358.473C462.007 358.473 460.913 356.887 459.814 354.696C458.655 352.387 457.341 349.771 451.299 348.841C438.489 346.867 425.811 339.743 415.598 328.778C407.297 319.865 400.336 308.314 394.318 293.468C386.759 274.818 384.708 259.976 387.865 246.758C391.43 231.826 405.061 216.732 423.264 218.176C423.762 218.214 424.143 218.635 424.132 219.136C423.768 234.987 433.534 249.992 447.353 254.812C451.712 256.333 456.439 256.902 461.008 257.455C464.718 257.901 468.552 258.364 472.243 259.328C480.54 261.496 489.493 267.961 489.552 277.03C489.556 277.764 489.508 278.616 489.457 279.515C489.091 285.993 488.539 295.781 502.683 302.063C507.899 304.382 510.909 310.323 510.538 317.572C509.895 330.091 498.927 348.043 470.13 357.438C467.924 358.158 466.249 358.473 464.939 358.473Z" fill="black"/>
<path d="M339.047 183.554C343.581 205.675 347.962 229.483 338.911 250.167C335.968 256.889 331.693 263.009 329.275 269.939C326.402 278.176 326.313 287.131 327.097 295.819C328.584 312.243 333.513 329.092 345.051 340.864C356.589 352.635 375.896 357.768 390.132 349.463C402.622 342.176 408.325 326.52 407.541 312.07C406.755 297.622 400.595 284.06 394.093 271.134C378.478 240.082 360.275 210.334 339.047 183.554Z" fill="#ACD4F7"/>
<path d="M340.758 187.26C345.399 210.557 348.106 231.502 339.774 250.544C338.523 253.402 337.021 256.178 335.567 258.865C333.589 262.519 331.542 266.299 330.164 270.249C327.762 277.135 327.086 285.233 328.036 295.733C329.783 315.052 335.734 330.014 345.723 340.204C357.838 352.562 376.724 356.194 389.658 348.649C400.802 342.146 407.454 327.81 406.601 312.121C405.811 297.612 399.574 284.128 393.252 271.558C377.404 240.046 359.755 211.705 340.758 187.26ZM374.408 354.441C363.812 354.441 352.595 349.906 344.379 341.525C334.078 331.015 327.948 315.665 326.159 295.903C325.184 285.126 325.892 276.777 328.386 269.628C329.814 265.533 331.896 261.687 333.911 257.965C335.346 255.315 336.829 252.573 338.047 249.79C346.621 230.197 343.155 208.287 338.125 183.744C338.038 183.316 338.255 182.885 338.649 182.7C339.043 182.515 339.515 182.628 339.785 182.969C359.795 208.213 378.35 237.733 394.935 270.71C401.347 283.457 407.673 297.147 408.482 312.018C409.372 328.406 402.356 343.422 390.606 350.278C385.786 353.09 380.189 354.441 374.408 354.441Z" fill="black"/>
<path d="M371.008 291.446C371.413 279.656 369.961 273.05 369.487 264.232C374.24 261.85 379.374 260.193 384.627 259.343C386.985 258.962 389.645 258.815 391.461 260.24C392.599 261.134 397.987 256.376 398.546 257.687C402.382 266.688 402.708 279.521 406.544 288.523C406.841 289.215 420.279 287.969 420.576 288.664C421.825 291.597 420.778 316.002 419.847 316.62C370.673 349.344 346.987 302.543 346.987 302.543C346.987 302.543 355.906 297.069 371.008 291.446Z" fill="white"/>
<path d="M419.077 316.105C419.077 316.105 419.077 316.105 419.075 316.105H419.077ZM348.255 302.892C350.316 306.489 359.831 321.558 376.793 326.023C389.683 329.416 403.924 326.032 419.125 315.968C419.928 313.375 420.697 293.216 419.827 289.421C418.759 289.328 415.807 289.446 413.583 289.535C406.713 289.81 406.047 289.758 405.677 288.893C403.72 284.299 402.652 278.698 401.619 273.283C400.638 268.13 399.624 262.809 397.853 258.474C397.309 258.676 396.33 259.25 395.641 259.654C393.576 260.865 391.946 261.82 390.88 260.984C389.292 259.736 386.785 259.951 384.777 260.275C379.802 261.079 374.99 262.601 370.461 264.802C370.623 267.494 370.867 269.952 371.124 272.547C371.664 277.972 372.222 283.581 371.95 291.479C371.936 291.862 371.695 292.197 371.337 292.33C358.991 296.926 350.726 301.468 348.255 302.892ZM386.747 329.186C383.181 329.186 379.696 328.738 376.294 327.84C356.26 322.559 346.551 303.766 346.147 302.97C345.925 302.532 346.077 301.996 346.494 301.739C346.583 301.686 355.428 296.299 370.086 290.785C370.303 283.341 369.768 277.951 369.25 272.732C368.982 270.043 368.706 267.264 368.546 264.284C368.525 263.908 368.729 263.558 369.066 263.39C373.924 260.955 379.109 259.28 384.476 258.413C386.819 258.034 389.768 257.809 391.921 259.408C392.445 259.343 393.838 258.526 394.687 258.026C396.597 256.908 397.72 256.291 398.62 256.588C398.98 256.708 399.262 256.967 399.412 257.318C401.369 261.911 402.437 267.513 403.471 272.928C404.455 278.09 405.47 283.421 407.246 287.761C408.272 287.86 411.263 287.742 413.507 287.651C420.404 287.373 421.072 287.428 421.442 288.295C422.315 290.345 422.102 299.641 421.969 303.541C421.525 316.635 420.743 317.155 420.368 317.405C408.588 325.243 397.322 329.186 386.747 329.186Z" fill="black"/>
<path d="M333.96 188.985C335.405 199.904 337.611 211.361 334.788 222.233C333.25 228.162 333.395 258.305 357.56 266.889C370.263 271.401 384.855 270.471 397.958 262.518C406.846 257.124 417.636 240.361 415.489 223.721C422.845 225.764 430.115 220.8 430.201 214.179C430.25 210.363 426.047 205.58 421.604 205.799C418.166 205.967 417.754 206.003 415.139 208.002C413.351 200.198 412.268 192.25 412.413 183.271C404.053 174.056 390.653 169.348 377.25 167.336C372.818 166.673 368.27 166.261 363.772 166.824C350.905 168.432 332.475 177.77 333.96 188.985Z" fill="white"/>
<path d="M334.893 188.86C335.068 190.185 335.255 191.516 335.443 192.854C336.812 202.628 338.226 212.736 335.7 222.469C334.644 226.539 333.313 257.276 357.874 266C371.107 270.701 385.169 269.176 397.471 261.711C405.797 256.656 416.675 240.263 414.556 223.842C414.516 223.528 414.634 223.216 414.874 223.008C415.112 222.802 415.436 222.726 415.742 222.814C419.158 223.762 422.835 223.101 425.575 221.044C427.882 219.312 429.226 216.804 429.258 214.165C429.281 212.475 428.299 210.467 426.7 208.922C425.177 207.453 423.34 206.664 421.649 206.74C418.314 206.904 418.114 206.913 415.71 208.75C415.457 208.946 415.12 208.996 414.819 208.887C414.518 208.779 414.292 208.523 414.221 208.213C412.241 199.568 411.364 191.747 411.467 183.632C402.382 173.838 387.796 169.872 377.111 168.269C373.45 167.72 368.639 167.166 363.888 167.759C355.133 168.852 342.892 173.825 337.448 180.883C335.403 183.533 334.545 186.218 334.893 188.86ZM373.22 270.567C367.868 270.567 362.496 269.643 357.246 267.778C333.041 259.179 331.992 229.261 333.878 221.996C336.309 212.626 334.92 202.706 333.578 193.115C333.389 191.774 333.202 190.436 333.025 189.108C332.607 185.949 333.593 182.794 335.957 179.732C341.712 172.268 354.524 167.029 363.654 165.887C368.634 165.264 373.61 165.838 377.389 166.404C388.478 168.067 403.675 172.234 413.111 182.635C413.273 182.815 413.359 183.045 413.355 183.285C413.231 190.937 413.991 198.317 415.744 206.386C417.593 205.105 418.487 205.006 421.558 204.858C423.749 204.743 426.112 205.734 428.008 207.565C429.97 209.459 431.172 211.997 431.143 214.19C431.101 217.418 429.483 220.466 426.706 222.553C423.858 224.69 420.151 225.54 416.57 224.929C418.103 241.882 407.2 258.009 398.447 263.323C390.53 268.129 381.906 270.567 373.22 270.567Z" fill="black"/>
<path d="M386.016 200.468C385.479 200.468 384.941 200.504 384.4 200.573C380.753 201.045 377.52 203.069 375.302 206.275C373.062 209.511 372.121 213.557 372.652 217.667C373.741 226.114 380.787 232.192 388.352 231.212C395.919 230.235 401.19 222.566 400.102 214.12C399.57 210.01 397.634 206.336 394.646 203.775C392.125 201.615 389.11 200.468 386.016 200.468ZM386.753 233.202C378.883 233.202 371.918 226.706 370.783 217.907C370.193 213.335 371.247 208.823 373.755 205.203C376.281 201.552 379.976 199.245 384.158 198.703C388.341 198.162 392.502 199.456 395.872 202.345C399.214 205.208 401.379 209.305 401.969 213.878C403.191 223.357 397.191 231.973 388.594 233.084C387.977 233.164 387.362 233.202 386.753 233.202Z" fill="black"/>
<path d="M342.336 202.472C341.798 202.472 341.259 202.508 340.718 202.577C337.071 203.05 333.84 205.075 331.62 208.28C329.382 211.515 328.439 215.56 328.971 219.67C329.502 223.78 331.438 227.455 334.425 230.014C337.385 232.552 341.025 233.686 344.672 233.217C352.239 232.239 357.511 224.57 356.42 216.124C355.891 212.014 353.953 208.341 350.966 205.78C348.443 203.619 345.428 202.472 342.336 202.472ZM343.048 235.208C339.509 235.208 336.068 233.905 333.201 231.447C329.858 228.583 327.693 224.487 327.103 219.912C326.513 215.339 327.568 210.825 330.073 207.207C332.599 203.556 336.294 201.249 340.478 200.708C344.659 200.163 348.82 201.46 352.19 204.349C355.533 207.213 357.699 211.309 358.289 215.882C359.511 225.361 353.511 233.975 344.912 235.086C344.29 235.168 343.667 235.208 343.048 235.208Z" fill="black"/>
<path d="M414.162 209.133C407.092 198.172 402.763 190.28 400.433 176.944C374.358 192.364 349.595 189.714 324.619 188.744C324.088 184.495 324.975 180.126 326.738 176.102C331.059 166.238 336.448 157.698 351.524 150.972C362.089 146.259 376.308 143.13 387.745 144.786C399.112 146.432 408.887 152.581 416.846 159.964C423.178 165.84 428.533 175.468 430.422 184.983C432.04 193.132 430.049 199.14 426.403 207.438C424.353 206.332 422.424 205.214 420.049 205.671C417.673 206.127 416.142 207.333 414.162 209.133Z" fill="#ACD4F7"/>
<path d="M400.433 176.001C400.566 176.001 400.701 176.03 400.827 176.089C401.107 176.217 401.307 176.476 401.36 176.783C403.682 190.067 408.213 198.117 414.358 207.697C415.99 206.275 417.572 205.188 419.87 204.745C422.203 204.296 424.12 205.155 425.948 206.123C429.525 197.841 430.943 192.443 429.498 185.166C427.697 176.099 422.479 166.478 416.205 160.656C407.056 152.167 397.435 147.141 387.612 145.72C375.365 143.948 361.137 147.716 351.908 151.834C336.414 158.747 331.403 167.801 327.6 176.482C325.911 180.34 325.18 184.246 325.472 187.834C327.328 187.908 329.182 187.992 331.036 188.074C353.309 189.07 376.34 190.097 399.953 176.133C400.102 176.045 400.267 176.001 400.433 176.001ZM414.162 210.077C414.122 210.077 414.082 210.075 414.04 210.069C413.766 210.033 413.521 209.879 413.372 209.646C407.012 199.786 402.274 191.698 399.748 178.433C376.064 191.972 353.138 190.951 330.952 189.958C328.83 189.863 326.707 189.768 324.583 189.686C324.122 189.668 323.741 189.318 323.684 188.861C323.166 184.722 323.924 180.18 325.875 175.725C329.827 166.705 335.032 157.298 351.141 150.111C360.612 145.887 375.236 142.021 387.88 143.854C398.089 145.331 408.05 150.519 417.486 159.272C424.134 165.442 429.445 175.222 431.347 184.8C433.085 193.559 430.64 200.133 427.265 207.819C427.159 208.059 426.957 208.246 426.709 208.331C426.46 208.413 426.186 208.394 425.956 208.268L425.7 208.131C423.808 207.106 422.173 206.222 420.225 206.597C418.019 207.02 416.584 208.206 414.796 209.831C414.621 209.991 414.396 210.077 414.162 210.077Z" fill="black"/>
<path d="M376.395 250.947C374.514 250.947 372.776 250.362 371.404 249.217C371.004 248.883 370.951 248.289 371.284 247.889C371.617 247.491 372.209 247.437 372.609 247.769C374.385 249.251 377.042 249.472 379.717 248.354C382.708 247.106 385.163 244.692 386.629 241.557C386.85 241.087 387.412 240.883 387.882 241.104C388.352 241.325 388.556 241.885 388.335 242.357C386.669 245.917 383.867 248.664 380.442 250.095C379.075 250.665 377.701 250.947 376.395 250.947Z" fill="black"/>
<path d="M434.754 182.59C443.108 159.112 439.877 133.981 412.325 123.962C384.299 113.771 367.315 119.353 347.644 144.338C377.242 151.624 412.004 166.107 434.754 182.59Z" fill="white"/>
<path d="M349.292 143.778C380.071 151.544 413.11 166.05 434.279 181.089C443.388 154.227 435.114 133.253 412.004 124.848C384.985 115.023 368.43 119.959 349.292 143.778ZM434.754 183.533C434.558 183.533 434.364 183.472 434.202 183.354C412.946 167.953 378.881 152.998 347.417 145.255C347.107 145.178 346.856 144.948 346.753 144.645C346.648 144.342 346.705 144.007 346.903 143.755C357.124 130.774 366.549 123.244 376.567 120.06C386.683 116.846 398.147 117.802 412.647 123.076C425.817 127.865 434.315 136.235 437.905 147.953C440.983 158.003 440.201 170.091 435.642 182.906C435.543 183.186 435.316 183.402 435.034 183.491C434.943 183.518 434.848 183.533 434.754 183.533Z" fill="black"/>
<path d="M385.643 216.639C385.468 215.273 384.158 214.314 382.719 214.501C381.278 214.688 380.256 215.945 380.431 217.311C380.608 218.678 381.918 219.634 383.357 219.449C384.796 219.263 385.82 218.005 385.643 216.639Z" fill="black"/>
<path d="M346.739 218.685C346.564 217.319 345.254 216.362 343.815 216.549C342.376 216.734 341.352 217.993 341.527 219.359C341.704 220.725 343.014 221.682 344.453 221.497C345.892 221.31 346.916 220.051 346.739 218.685Z" fill="black"/>
<path d="M361.341 234.618C361.23 234.618 361.116 234.597 361.008 234.555L357.457 233.206C357.021 233.04 356.206 232.729 355.892 231.912C355.512 230.919 356.159 230.047 356.507 229.58C359.176 225.994 360.065 221.347 358.887 217.151C358.746 216.648 359.037 216.128 359.538 215.987C360.04 215.848 360.558 216.14 360.699 216.641C362.036 221.396 361.034 226.653 358.019 230.706C357.943 230.807 357.733 231.089 357.676 231.247C357.726 231.272 357.855 231.34 358.127 231.443L361.676 232.792C362.163 232.977 362.407 233.522 362.222 234.01C362.079 234.385 361.721 234.618 361.341 234.618Z" fill="black"/>
<path d="M356.721 213.436C356.209 213.436 355.788 213.024 355.778 212.51C355.738 210.063 358.11 208.358 360.48 207.754C364.334 206.767 368.71 207.779 371.626 210.322C372.019 210.665 372.061 211.26 371.718 211.652C371.377 212.045 370.781 212.087 370.389 211.744C367.924 209.592 364.217 208.745 360.947 209.579C359.296 210 357.64 211.13 357.663 212.477C357.671 212.997 357.258 213.426 356.736 213.436C356.732 213.436 356.726 213.436 356.721 213.436Z" fill="black"/>
<path d="M400.107 209.299C399.59 209.299 399.169 208.88 399.167 208.36C399.165 207.84 399.586 207.415 400.105 207.415L412.978 207.377C412.98 207.377 412.98 207.377 412.982 207.377C413.5 207.377 413.922 207.798 413.922 208.318C413.924 208.838 413.504 209.261 412.984 209.263L400.111 209.299C400.109 209.299 400.109 209.299 400.107 209.299Z" fill="black"/>
<path d="M415.327 218.21C415.324 218.21 415.32 218.21 415.318 218.21C414.796 218.205 414.379 217.778 414.385 217.258C414.419 214.12 413.789 210.932 412.565 208.042C412.361 207.561 412.586 207.009 413.066 206.805C413.542 206.601 414.096 206.826 414.299 207.306C415.624 210.435 416.306 213.881 416.27 217.277C416.264 217.795 415.843 218.21 415.327 218.21Z" fill="black"/>
<path d="M509.626 392.129C498.246 360.992 491.964 330.27 465.114 307.838C452.226 297.071 436.679 289.433 418.769 288.284C417.672 305.638 397.528 317.075 386.732 318.365C380.857 319.068 359.031 321.976 359.031 296.219C351.91 299.058 328.211 301.972 318.709 331.196C314.824 343.146 307.862 388.892 284.913 415.403C279.494 421.666 274.485 379.998 266.686 382.772C259.033 385.493 250.219 390.05 249.646 398.159C249.196 404.478 254.399 409.982 260.213 412.482C272.709 417.855 277.388 443.892 290.853 445.791C304.854 447.767 327.211 452.933 344.133 399.979C352.783 408.637 358.363 417.935 368.064 423.169C396.024 438.254 489.057 455.194 504.212 457.885C505.47 458.109 508.328 457.077 508.83 455.901C512.015 448.444 520.349 421.468 509.626 392.129Z" fill="white"/>
<path d="M344.133 399.036C344.381 399.036 344.621 399.133 344.8 399.312C347.608 402.122 350.086 404.99 352.483 407.762C357.421 413.474 362.085 418.87 368.512 422.338C396.102 437.224 486.529 453.788 504.376 456.956C505.335 457.124 507.681 456.194 507.964 455.531C508.488 454.302 520.67 425.087 508.743 392.453C506.748 386.992 504.888 381.489 503.091 376.166C494.538 350.828 486.459 326.897 464.511 308.562C450.667 296.998 435.573 290.516 419.632 289.287C418.655 298.904 412.261 305.881 406.974 310.086C400.857 314.952 392.955 318.571 386.844 319.3L386.647 319.325C382.624 319.807 371.94 321.092 364.817 314.768C360.595 311.016 358.341 305.229 358.108 297.555C357.326 297.814 356.435 298.084 355.458 298.38C345.734 301.32 327.634 306.79 319.605 331.487C318.849 333.814 317.973 337.445 316.863 342.045C312.435 360.403 304.192 394.571 285.626 416.02C284.779 416.999 283.931 417.064 283.366 416.944C280.819 416.414 279.05 411.115 276.143 401.796C273.834 394.4 270.962 385.193 268.068 383.747C267.697 383.56 267.358 383.534 267.002 383.659C256.381 387.436 251.011 392.201 250.585 398.226C250.156 404.285 255.468 409.416 260.587 411.617C266.676 414.235 270.935 421.431 275.053 428.391C279.772 436.369 284.228 443.905 290.985 444.857C291.451 444.924 291.927 444.993 292.412 445.063C306.235 447.079 327.118 450.126 343.237 399.691C343.338 399.379 343.593 399.14 343.913 399.062C343.985 399.045 344.061 399.036 344.133 399.036ZM504.566 458.854C504.378 458.854 504.203 458.841 504.047 458.812C486.15 455.634 395.462 439.021 367.617 423.998C360.888 420.366 356.113 414.842 351.059 408.997C348.999 406.613 346.879 404.159 344.55 401.749C337.347 423.708 328.594 437.461 317.817 443.767C308.369 449.295 299.37 447.984 292.14 446.928C291.658 446.858 291.186 446.789 290.722 446.725C283.069 445.644 278.169 437.362 273.431 429.353C269.467 422.652 265.369 415.725 259.842 413.349C253.941 410.811 248.209 405.108 248.706 398.092C249.191 391.241 254.969 385.938 266.37 381.884C267.219 381.581 268.072 381.64 268.909 382.059C272.521 383.865 275.277 392.695 277.94 401.234C279.722 406.947 282.165 414.768 283.751 415.1C283.888 415.119 284.131 414.867 284.202 414.785C302.468 393.683 310.642 359.802 315.032 341.603C316.151 336.963 317.035 333.299 317.813 330.904C326.149 305.271 345.576 299.397 354.914 296.573C356.425 296.118 357.731 295.724 358.683 295.344C358.973 295.228 359.3 295.264 359.559 295.44C359.818 295.615 359.972 295.907 359.972 296.219C359.972 304.001 362.024 309.766 366.068 313.356C372.557 319.119 382.63 317.91 386.422 317.452L386.622 317.429C396.947 316.195 416.765 305.075 417.829 288.222C417.846 287.973 417.96 287.74 418.147 287.574C418.335 287.409 418.588 287.327 418.83 287.342C435.52 288.413 451.296 295.066 465.718 307.114C488.073 325.79 496.234 349.967 504.875 375.562C506.67 380.874 508.524 386.367 510.511 391.805C520.237 418.417 514.576 444.848 509.697 456.27C509.055 457.772 506.257 458.854 504.566 458.854Z" fill="black"/>
<path d="M307.213 455.168C328.405 455.621 349.599 456.076 370.793 456.532L370.875 445.723L300.109 443.993L307.213 455.168Z" fill="white"/>
<path d="M307.737 454.236L369.858 455.57L369.926 446.643L301.853 444.98L307.737 454.236ZM370.793 457.475C370.787 457.475 370.779 457.475 370.772 457.475L307.193 456.109C306.878 456.103 306.587 455.939 306.418 455.673L299.313 444.5C299.127 444.206 299.117 443.833 299.288 443.53C299.46 443.227 299.783 443.034 300.132 443.052L370.897 444.782C371.411 444.795 371.821 445.216 371.817 445.731L371.735 456.54C371.733 456.793 371.63 457.033 371.449 457.208C371.272 457.38 371.038 457.475 370.793 457.475Z" fill="black"/>
<path d="M476.241 422.163C450.705 420.738 425.015 418.975 399.321 417.209C397.021 416.83 385.592 415.193 382.772 414.778C380.381 414.427 378.101 413.545 375.908 412.532C368.266 409.003 351.87 402.071 348.213 404.121C339.785 406.602 332.144 412.694 326.174 420.405C322.822 424.732 320.075 431.901 321.462 433.132C322.346 433.915 323.676 434.241 324.655 433.426C328.63 424.905 335.711 417.88 344.259 413.974C340.282 416.224 336.578 418.953 333.25 422.085C329.879 425.257 326.781 429.083 326.022 433.654C325.963 434.009 325.925 434.399 326.111 434.708C326.57 435.464 327.737 435.024 328.434 434.477C329.8 433.409 347.366 419.128 350.65 419.507C346.284 421.157 330.724 433.795 330.659 435.14C330.629 435.783 330.752 436.459 331.156 436.96C331.708 437.644 332.686 437.863 333.553 437.72C334.419 437.577 335.203 437.13 335.953 436.672C340.977 433.618 345.576 429.79 351.002 427.529C353.713 426.401 357.021 425.751 359.431 427.428C354.59 429.264 350.059 431.936 346.265 435.426C345.658 435.985 345.15 436.642 344.748 437.362C344.15 438.431 343.478 439.976 344.308 440.86C345.662 442.305 346.806 441.579 347.969 440.897C352.628 437.823 357.385 435.291 362.361 433.306C363.905 432.69 365.748 432.149 367.147 433.046C368.36 433.824 374.223 437.467 386.269 438.092C390.381 438.305 394.345 439.376 399.487 440.794C467.195 459.468 487.422 466.92 503.822 459.862C507.031 458.481 508.117 456.793 507.045 451.275C504.187 436.545 501.393 428.171 476.241 422.163Z" fill="white"/>
<path d="M365.405 431.631C366.184 431.631 366.951 431.802 367.655 432.252C369.662 433.538 375.494 436.588 386.319 437.15C390.629 437.373 394.849 438.538 399.736 439.885C408.763 442.375 417.063 444.698 424.387 446.748C473.123 460.388 489.54 464.982 503.449 458.995C506.043 457.881 507.151 456.772 506.119 451.456C503.291 436.874 500.669 428.982 476.104 423.098C450.224 421.654 424.314 419.873 399.256 418.15C399.228 418.146 399.197 418.145 399.169 418.139C397.507 417.865 390.901 416.91 386.528 416.275C384.826 416.03 383.408 415.824 382.635 415.711C379.915 415.311 377.4 414.26 375.514 413.389C361.773 407.04 350.986 403.647 348.673 404.944C348.613 404.979 348.548 405.005 348.479 405.026C340.79 407.29 333.134 412.954 326.918 420.98C323.493 425.404 321.542 431.547 322.113 432.456C322.582 432.865 323.332 433.143 323.905 432.804C327.975 424.226 335.237 417.059 343.868 413.116C344.325 412.907 344.868 413.097 345.098 413.547C345.327 413.997 345.161 414.547 344.721 414.795C340.811 417.007 337.168 419.69 333.895 422.771C329.762 426.661 327.556 430.167 326.95 433.808C326.92 434.001 326.914 434.11 326.914 434.169C327.095 434.157 327.482 434.026 327.855 433.734C327.959 433.652 328.161 433.492 328.447 433.264C347.339 418.177 349.823 418.461 350.756 418.569C351.188 418.621 351.531 418.96 351.584 419.391C351.637 419.823 351.388 420.235 350.981 420.389C346.939 421.917 332.816 433.351 331.596 435.325C331.596 435.765 331.698 436.131 331.889 436.369C332.218 436.777 332.884 436.874 333.398 436.79C334.093 436.674 334.771 436.287 335.464 435.866C337.118 434.862 338.761 433.747 340.35 432.669C343.587 430.472 346.933 428.203 350.64 426.66C353.305 425.551 357.086 424.648 359.968 426.654C360.255 426.854 360.408 427.195 360.366 427.544C360.322 427.89 360.092 428.186 359.764 428.31C354.83 430.181 350.503 432.808 346.901 436.122C346.379 436.602 345.932 437.173 345.57 437.821C344.594 439.57 344.881 440.096 344.994 440.214C345.767 441.037 346.189 440.849 347.409 440.132L347.493 440.083C352.281 436.924 357.044 434.411 362.013 432.429C363.035 432.023 364.23 431.631 365.405 431.631ZM490.081 463.461C477.109 463.461 458.63 458.288 423.878 448.563C416.557 446.513 408.259 444.193 399.235 441.702C394.455 440.384 390.326 439.246 386.222 439.033C374.946 438.448 368.771 435.207 366.64 433.841C365.593 433.168 363.99 433.669 362.709 434.182C357.861 436.114 353.21 438.568 348.487 441.683L348.361 441.759C347.204 442.438 345.458 443.463 343.621 441.504C342.201 439.991 343.499 437.665 343.926 436.901C344.384 436.078 344.957 435.348 345.628 434.733C348.868 431.753 352.664 429.3 356.935 427.429C355.076 427.123 352.985 427.723 351.363 428.399C347.834 429.87 344.567 432.086 341.407 434.23C339.798 435.319 338.137 436.449 336.442 437.478C335.62 437.977 334.731 438.48 333.707 438.65C332.399 438.869 331.142 438.446 330.423 437.552C329.915 436.922 329.671 436.072 329.718 435.096C329.726 434.931 329.825 434.706 330.004 434.432C329.878 434.533 329.751 434.635 329.621 434.736C329.328 434.971 329.123 435.137 329.014 435.22C328.384 435.714 327.394 436.184 326.507 436.021C325.999 435.927 325.572 435.636 325.306 435.197C325.132 434.91 325.058 434.611 325.037 434.317C323.813 435.161 322.127 434.982 320.838 433.837C318.572 431.827 322.58 423.506 325.429 419.825C331.953 411.4 339.707 405.666 347.857 403.243C352.271 401.038 369.189 408.391 376.302 411.676C378.074 412.495 380.427 413.48 382.907 413.846C383.68 413.959 385.098 414.164 386.797 414.41C391.4 415.075 397.686 415.986 399.431 416.272C424.495 417.996 450.414 419.777 476.294 421.222C476.35 421.224 476.407 421.233 476.46 421.246C502.175 427.389 505.069 436.146 507.97 451.096C509.042 456.621 508.088 459.052 504.193 460.727C499.927 462.564 495.48 463.461 490.081 463.461Z" fill="black"/>
<path d="M126.546 356.476L264.761 357.234L312.399 455.166L175.48 454.819L126.546 356.476Z" fill="#ACD4F7"/>
<path d="M176.065 453.878L310.891 454.219L264.171 358.174L128.071 357.427L176.065 453.878ZM312.401 456.107C312.399 456.107 312.399 456.107 312.397 456.107L175.478 455.762C175.122 455.762 174.797 455.558 174.637 455.24L125.703 356.897C125.556 356.604 125.573 356.255 125.747 355.977C125.918 355.701 126.221 355.533 126.546 355.533C126.548 355.533 126.55 355.533 126.55 355.533L264.767 356.291C265.125 356.293 265.45 356.499 265.608 356.821L313.246 454.752C313.389 455.044 313.37 455.391 313.198 455.665C313.025 455.941 312.724 456.107 312.401 456.107Z" fill="black"/>
<path d="M213.969 396.38C210.045 395.995 205.758 397.045 204.159 400.651C202.562 404.258 203.788 408.778 206.699 411.438C209.61 414.097 213.916 414.955 217.761 414.088C219.84 413.619 221.898 412.611 223.093 410.849C223.923 409.626 224.276 408.122 224.285 406.644C224.317 401.787 222.105 397.178 213.969 396.38Z" fill="white"/>
<path d="M212.49 397.252C210.211 397.252 206.463 397.78 205.022 401.034C203.632 404.167 204.605 408.25 207.333 410.742C209.895 413.08 213.811 414.012 217.556 413.168C219.707 412.684 221.397 411.672 222.315 410.319C223.152 409.083 223.337 407.635 223.343 406.636C223.381 400.996 220.284 397.948 213.878 397.319C213.55 397.285 213.067 397.252 212.49 397.252ZM214.82 415.357C211.527 415.357 208.347 414.221 206.063 412.135C202.754 409.111 201.591 404.121 203.299 400.268C204.864 396.738 208.886 394.935 214.06 395.442C223.347 396.353 225.258 402.04 225.227 406.649C225.216 408.454 224.746 410.089 223.872 411.379C222.353 413.621 219.823 414.591 217.969 415.008C216.924 415.243 215.867 415.357 214.82 415.357Z" fill="black"/>
<path d="M461.006 422.218C460.61 422.218 460.243 421.967 460.111 421.572C450.492 392.419 445.051 373.977 445.051 333.999C445.051 333.479 445.472 333.057 445.992 333.057C446.511 333.057 446.934 333.479 446.934 333.999C446.934 373.687 452.342 392.011 461.901 420.98C462.064 421.475 461.796 422.009 461.301 422.171C461.204 422.203 461.103 422.218 461.006 422.218Z" fill="black"/>
<path d="M344.135 400.922C343.836 400.922 343.543 400.781 343.36 400.518C330.946 382.644 334.304 369.555 337.55 356.895C339.172 350.573 340.849 344.036 340.585 336.889C340.566 336.369 340.971 335.931 341.491 335.912C342.011 335.887 342.447 336.301 342.467 336.821C342.742 344.24 341.03 350.913 339.376 357.364C336.088 370.176 332.985 382.279 344.908 399.442C345.205 399.869 345.098 400.456 344.672 400.753C344.508 400.867 344.32 400.922 344.135 400.922Z" fill="black"/>
<path d="M415.638 202.569C415.533 202.569 415.432 202.516 415.371 202.421C412.761 198.258 410.523 193.828 408.722 189.255C408.659 189.093 408.737 188.91 408.899 188.847C409.06 188.782 409.241 188.862 409.306 189.024C411.092 193.561 413.311 197.956 415.904 202.087C415.996 202.234 415.952 202.428 415.805 202.522C415.754 202.554 415.695 202.569 415.638 202.569Z" fill="black"/>
<path d="M420.539 201.607C420.427 201.607 420.318 201.546 420.261 201.44L417.644 196.453C417.562 196.301 417.621 196.11 417.775 196.03C417.928 195.95 418.116 196.008 418.198 196.162L420.817 201.146C420.899 201.301 420.838 201.491 420.686 201.571C420.638 201.596 420.589 201.607 420.539 201.607Z" fill="black"/>
<path d="M384.543 356.981C371.992 356.981 359.429 355.847 347.23 352.787C347.063 352.745 346.96 352.574 347.002 352.406C347.044 352.237 347.215 352.136 347.383 352.178C378.321 359.938 411.699 355.26 441.147 351.133C441.316 351.112 441.478 351.229 441.501 351.402C441.526 351.574 441.406 351.734 441.234 351.756C423.319 354.268 403.947 356.981 384.543 356.981Z" fill="black"/>
<path d="M395.854 381.125C377.411 381.125 358.965 378.936 341.114 374.569C340.946 374.529 340.844 374.358 340.884 374.19C340.926 374.02 341.095 373.918 341.264 373.959C374.017 381.971 408.792 382.633 441.824 375.869C441.998 375.834 442.161 375.945 442.196 376.114C442.23 376.284 442.121 376.45 441.952 376.486C426.831 379.58 411.343 381.125 395.854 381.125Z" fill="black"/>
<path d="M511.741 430.145C511.652 430.145 511.562 430.108 511.501 430.034C499.927 416.399 481.067 409.529 463.445 412.545C463.275 412.573 463.112 412.459 463.081 412.288C463.053 412.116 463.167 411.954 463.338 411.924C481.176 408.879 500.266 415.828 511.979 429.628C512.092 429.76 512.076 429.958 511.943 430.07C511.884 430.122 511.812 430.145 511.741 430.145Z" fill="black"/>
<path d="M509.63 417.562C509.59 417.562 509.552 417.554 509.512 417.539C507.635 416.783 506.108 415.417 504.631 414.094C504.117 413.635 503.584 413.159 503.049 412.719C499.767 410.028 495.815 408.277 491.617 407.654C491.446 407.629 491.328 407.469 491.353 407.298C491.38 407.126 491.543 407.006 491.709 407.033C496.019 407.671 500.077 409.47 503.447 412.233C503.993 412.682 504.53 413.161 505.05 413.626C506.485 414.912 507.97 416.24 509.746 416.956C509.908 417.021 509.986 417.204 509.921 417.364C509.872 417.488 509.754 417.562 509.63 417.562Z" fill="black"/>
<path d="M297.421 147.852C303.966 135.023 339.009 135.494 356.003 135.633C381.562 137.323 424.347 158.032 437.484 172.97C452.38 189.905 467.109 210.546 461.006 220.796C460.439 205.561 427.166 177.522 394.25 163.421C355.89 146.989 307.381 136.132 297.421 147.852Z" fill="white"/>
<path d="M314.727 141.987C321.407 141.987 328.807 142.961 335.354 144.152C353.361 147.425 374.962 154.134 394.619 162.553C426.165 176.068 456.58 201.356 461.318 217.195C462.788 208.571 454.408 193.637 436.778 173.591C424.136 159.219 381.857 138.287 355.94 136.572L355.291 136.568C341.402 136.456 314.881 136.231 303.138 143.399C306.423 142.391 310.427 141.987 314.727 141.987ZM461.006 221.739C460.93 221.739 460.85 221.73 460.774 221.709C460.368 221.606 460.081 221.248 460.066 220.83C459.527 206.373 426.742 178.366 393.879 164.287C355.22 147.728 307.526 137.418 298.137 148.463C297.828 148.827 297.295 148.903 296.897 148.637C296.499 148.37 296.364 147.85 296.581 147.423C303.303 134.251 337.13 134.531 355.306 134.684L356.011 134.69C382.373 136.431 425.329 157.723 438.191 172.345C459.066 196.082 467.016 212.546 461.815 221.278C461.642 221.568 461.332 221.739 461.006 221.739Z" fill="black"/>
<path d="M434.425 163.975C434.341 163.975 434.26 163.943 434.197 163.878C427.41 156.695 418.655 151.798 410.267 147.397C396.272 140.053 381.097 133.025 364.966 131.325C364.794 131.308 364.669 131.152 364.686 130.98C364.705 130.807 364.859 130.681 365.032 130.7C381.269 132.411 396.508 139.469 410.559 146.84C418.994 151.266 427.8 156.194 434.654 163.445C434.772 163.571 434.766 163.769 434.64 163.889C434.579 163.947 434.503 163.975 434.425 163.975Z" fill="black"/>
<path d="M434.495 157.022C434.389 157.022 434.286 156.969 434.227 156.871C433.161 155.132 431.826 153.587 430.258 152.281C430.125 152.171 430.105 151.973 430.216 151.839C430.328 151.706 430.526 151.689 430.659 151.799C432.279 153.147 433.66 154.743 434.762 156.544C434.853 156.692 434.808 156.885 434.659 156.976C434.608 157.007 434.551 157.022 434.495 157.022Z" fill="black"/>
<path d="M330.914 182.135C330.88 182.135 330.844 182.129 330.809 182.118C330.646 182.059 330.56 181.879 330.617 181.716C333.259 174.233 337.857 167.57 343.91 162.445C344.042 162.332 344.24 162.35 344.352 162.481C344.464 162.614 344.447 162.813 344.316 162.925C338.346 167.978 333.815 174.55 331.209 181.925C331.163 182.055 331.043 182.135 330.914 182.135Z" fill="black"/>
<path d="M337.341 182.344C337.305 182.344 337.269 182.339 337.235 182.325C337.071 182.264 336.987 182.085 337.048 181.921C337.806 179.856 339.02 177.935 340.562 176.367C340.682 176.243 340.882 176.241 341.006 176.363C341.129 176.485 341.131 176.683 341.01 176.807C339.53 178.314 338.363 180.157 337.636 182.138C337.59 182.266 337.469 182.344 337.341 182.344Z" fill="black"/>
<path d="M497.686 330.101C497.616 330.101 497.543 330.076 497.484 330.026C497.353 329.914 497.336 329.716 497.446 329.584C501.596 324.667 502.935 317.552 500.854 311.461C500.799 311.297 500.886 311.118 501.05 311.062C501.214 311.007 501.393 311.093 501.45 311.257C503.599 317.554 502.215 324.907 497.926 329.988C497.865 330.062 497.776 330.101 497.686 330.101Z" fill="black"/>
<path d="M495.813 315.031C495.811 315.031 495.811 315.031 495.811 315.031C495.638 315.031 495.497 314.888 495.499 314.714C495.51 312.188 494.703 309.667 493.22 307.621C493.119 307.48 493.152 307.284 493.293 307.183C493.43 307.082 493.628 307.11 493.731 307.253C495.29 309.406 496.141 312.058 496.127 314.718C496.125 314.892 495.986 315.031 495.813 315.031Z" fill="black"/>
<path d="M228.098 49.2095C228.096 49.2095 228.096 49.2095 228.094 49.2095L220.56 49.1905C220.04 49.1885 219.619 48.7656 219.621 48.2454C219.621 47.7253 220.032 47.2984 220.565 47.306L228.1 47.3251C228.62 47.327 229.041 47.7481 229.039 48.2702C229.039 48.7903 228.616 49.2095 228.098 49.2095ZM243.168 49.2495C243.166 49.2495 243.166 49.2495 243.164 49.2495L235.629 49.2305C235.109 49.2286 234.689 48.8056 234.691 48.2854C234.691 47.7653 235.113 47.3442 235.633 47.3442C235.633 47.3442 235.633 47.3442 235.635 47.3442L243.17 47.3651C243.689 47.3651 244.11 47.7881 244.108 48.3083C244.108 48.8284 243.686 49.2495 243.168 49.2495ZM258.237 49.2876C258.235 49.2876 258.235 49.2876 258.234 49.2876L250.699 49.2686C250.179 49.2666 249.758 48.8437 249.76 48.3235C249.762 47.8034 250.183 47.3842 250.703 47.3842C250.703 47.3842 250.703 47.3842 250.704 47.3842L258.239 47.4032C258.759 47.4051 259.18 47.8262 259.18 48.3483C259.178 48.8685 258.757 49.2876 258.237 49.2876ZM273.307 49.3276C273.305 49.3276 273.305 49.3276 273.305 49.3276L265.77 49.3067C265.249 49.3067 264.828 48.8837 264.83 48.3635C264.832 47.8434 265.252 47.4223 265.772 47.4223H265.774L273.309 47.4433C273.83 47.4433 274.249 47.8662 274.249 48.3883C274.247 48.9066 273.827 49.3276 273.307 49.3276ZM288.376 49.3657H288.375L280.84 49.3467C280.32 49.3467 279.899 48.9218 279.899 48.4016C279.901 47.8815 280.351 47.4718 280.844 47.4623L288.378 47.4814C288.9 47.4833 289.319 47.9062 289.319 48.4264C289.317 48.9466 288.896 49.3657 288.376 49.3657ZM303.446 49.4057H303.444L295.909 49.3867C295.39 49.3848 294.969 48.9618 294.969 48.4417C294.971 47.9215 295.392 47.5004 295.911 47.5004C295.913 47.5004 295.913 47.5004 295.913 47.5004L303.45 47.5214C303.969 47.5214 304.39 47.9443 304.388 48.4664C304.386 48.9847 303.966 49.4057 303.446 49.4057ZM205.503 49.4229C205.047 49.4229 204.647 49.0895 204.574 48.6246C204.494 48.1101 204.845 47.628 205.359 47.548C206.524 47.367 207.66 47.2737 208.74 47.2737C208.742 47.2737 208.743 47.2737 208.745 47.2737L213.031 47.287C213.55 47.287 213.971 47.71 213.969 48.2321C213.969 48.7503 213.546 49.1714 213.027 49.1714C213.027 49.1714 213.027 49.1714 213.025 49.1714L208.745 49.16C207.757 49.1886 206.72 49.2438 205.65 49.4115C205.601 49.4191 205.553 49.4229 205.503 49.4229ZM318.517 49.4439C318.516 49.4439 318.516 49.4439 318.514 49.4439L310.979 49.4248C310.459 49.4229 310.038 49.0018 310.04 48.4798C310.04 47.9596 310.463 47.5404 310.981 47.5404C310.983 47.5404 310.983 47.5404 310.985 47.5404L318.519 47.5595C319.039 47.5614 319.46 47.9844 319.458 48.5045C319.458 49.0247 319.035 49.4439 318.517 49.4439ZM333.585 49.4839C333.585 49.4839 333.585 49.4839 333.583 49.4839L326.048 49.4648C325.529 49.4629 325.108 49.0399 325.11 48.5198C325.11 47.9996 325.533 47.5785 326.05 47.5785C326.052 47.5785 326.052 47.5785 326.054 47.5785L333.589 47.5995C334.109 47.5995 334.529 48.0224 334.527 48.5426C334.527 49.0628 334.105 49.4839 333.585 49.4839ZM348.657 49.522C348.655 49.522 348.655 49.522 348.653 49.522L341.118 49.5029C340.598 49.501 340.178 49.0799 340.179 48.5579C340.179 48.0377 340.602 47.6185 341.12 47.6185C341.122 47.6185 341.122 47.6185 341.124 47.6185L348.658 47.6376C349.178 47.6395 349.599 48.0625 349.597 48.5827C349.597 49.1028 349.174 49.522 348.657 49.522ZM363.726 49.562C363.724 49.562 363.724 49.562 363.722 49.562L356.188 49.5411C355.668 49.5411 355.247 49.118 355.249 48.596C355.251 48.0777 355.672 47.6566 356.191 47.6566C356.191 47.6566 356.191 47.6566 356.193 47.6566L363.728 47.6776C364.248 47.6776 364.668 48.1006 364.666 48.6208C364.666 49.1409 364.244 49.562 363.726 49.562ZM378.796 49.6001H378.794L371.259 49.5811C370.737 49.5811 370.319 49.1581 370.319 48.636C370.32 48.1159 370.741 47.6966 371.261 47.6966H371.263L378.798 47.7157C379.317 47.7176 379.738 48.1406 379.738 48.6608C379.736 49.1809 379.315 49.6001 378.796 49.6001ZM192.244 56.0287C192.02 56.0287 191.793 55.9487 191.612 55.7848C191.228 55.4343 191.197 54.8398 191.548 54.453C193.149 52.6848 195.353 51.0996 197.925 49.8669C198.393 49.6401 198.955 49.8402 199.181 50.3089C199.406 50.7795 199.208 51.3416 198.738 51.5664C196.385 52.6963 194.38 54.131 192.943 55.7201C192.756 55.924 192.501 56.0287 192.244 56.0287ZM189.375 70.3475C188.856 70.3475 188.433 69.9245 188.433 69.4043V61.8858C188.433 61.3637 188.856 60.9312 189.375 60.9312C189.895 60.9312 190.318 61.3409 190.318 61.8629V69.4043C190.318 69.9245 189.895 70.3475 189.375 70.3475ZM189.375 85.4302C188.856 85.4302 188.433 85.0091 188.433 84.4871V76.9457C188.433 76.4255 188.856 76.0025 189.375 76.0025C189.895 76.0025 190.318 76.4255 190.318 76.9457V84.4871C190.318 85.0091 189.895 85.4302 189.375 85.4302ZM189.375 100.513C188.856 100.513 188.433 100.092 188.433 99.5698V92.0284C188.433 91.5083 188.856 91.0853 189.375 91.0853C189.895 91.0853 190.318 91.5083 190.318 92.0284V99.5698C190.318 100.092 189.895 100.513 189.375 100.513ZM189.375 115.596C188.856 115.596 188.433 115.175 188.433 114.654V107.111C188.433 106.591 188.856 106.168 189.375 106.168C189.895 106.168 190.318 106.591 190.318 107.111V114.654C190.318 115.175 189.895 115.596 189.375 115.596Z" fill="black"/>
<path d="M79.8222 46.2467C82.9518 46.9459 90.5133 46.2124 93.2603 42.093C97.1495 36.2607 95.223 30.2779 93.3517 27.0998C96.706 25.0001 103.165 22.5022 109.506 19.7737C109.253 21.3742 112.996 26.2348 117.464 27.862C127.648 31.5755 133.401 25.103 135.172 22.3745C140.078 26.231 144.707 30.4266 148.932 35.0604C145.014 38.5948 143.483 44.4804 145.198 49.4191C146.912 54.3577 151.774 58.0674 157.228 58.7934C156.244 64.3627 154.563 69.8178 152.341 74.6802C148.675 73.6075 144.595 72.5615 141.142 74.2058C138.444 75.49 136.693 78.2394 135.969 81.1031C135.246 83.9669 135.415 86.9659 135.4 90.1536C130.197 91.8627 124.867 93.1907 119.301 93.9985C118.72 90.7156 116.815 87.6842 114.094 85.716C112.632 84.6585 110.883 83.8869 109.067 83.9288C107.338 83.9669 105.716 84.7252 104.186 85.5197C101.88 86.7182 99.4796 88.2177 98.1623 90.8223C93.7819 88.273 89.6242 85.3559 86.0472 81.749C88.6857 79.0225 90.3134 75.3661 90.5589 71.6126C90.6389 70.3703 90.5666 69.0861 90.045 67.9562C89.1083 65.9175 86.9134 64.7495 84.766 64.0236C82.335 63.2004 79.7708 62.7584 77.1589 62.6689C77.4388 57.1662 78.343 51.6903 79.8222 46.2467Z" fill="white"/>
<path d="M109.202 82.9839C110.985 82.9839 112.862 83.6622 114.646 84.9521C117.321 86.886 119.249 89.7593 120.037 92.9336C124.777 92.1982 129.512 91.0626 134.46 89.4697C134.46 89.1534 134.458 88.839 134.456 88.5266C134.442 85.8686 134.429 83.3593 135.057 80.8728C135.935 77.3936 138.006 74.6537 140.738 73.3543C144.157 71.7271 148.058 72.4873 151.815 73.5486C153.715 69.2254 155.196 64.4277 156.127 59.5652C150.69 58.4963 146.013 54.6418 144.307 49.7298C142.581 44.7512 143.944 38.8445 147.618 35.0224C143.974 31.0993 139.952 27.3915 135.366 23.7313C133.338 26.3855 127.351 32.4712 117.142 28.75C113.382 27.3782 109.761 23.6761 108.802 21.102C107.667 21.584 106.536 22.0604 105.425 22.5253C101.202 24.2991 97.1912 25.9815 94.6136 27.4467C95.9767 30.1257 98.2268 36.3428 94.0444 42.6153C91.2708 46.7765 84.3547 47.8092 80.5112 47.3195C79.2509 52.1591 78.459 57.014 78.1525 61.7755C80.5626 61.9374 82.8832 62.3928 85.0667 63.1301C88.0916 64.1514 89.9991 65.6014 90.8995 67.562C91.4173 68.6861 91.6077 69.9913 91.4973 71.6737C91.2594 75.3168 89.7631 78.9255 87.3549 81.7149C90.1914 84.4567 93.6275 87.0232 97.8194 89.5269C99.291 87.2309 101.526 85.84 103.751 84.6835C105.288 83.8851 107.09 83.0296 109.045 82.9858C109.097 82.9839 109.148 82.9839 109.202 82.9839ZM119.299 94.9399C118.849 94.9399 118.452 94.618 118.372 94.1626C117.835 91.1121 116.074 88.3112 113.542 86.4802C112.497 85.7238 110.879 84.8207 109.087 84.8702C107.536 84.9045 106.03 85.6247 104.619 86.3564C102.405 87.5072 100.191 88.8962 99.0016 91.2493C98.8836 91.4799 98.6761 91.6532 98.4286 91.7275C98.1792 91.8 97.9108 91.7676 97.6881 91.638C92.6529 88.7076 88.6265 85.6895 85.3789 82.4142C85.0172 82.0483 85.0133 81.4634 85.3712 81.0938C87.8403 78.5406 89.388 75.0633 89.6184 71.5518C89.7059 70.1952 89.5708 69.1777 89.19 68.3489C88.5257 66.9066 86.9361 65.7519 84.4651 64.9155C82.1655 64.1381 79.6964 63.6998 77.1264 63.6103C76.8732 63.6027 76.6353 63.4922 76.4639 63.3074C76.2926 63.1206 76.205 62.8729 76.2184 62.6214C76.4963 57.1531 77.4024 51.559 78.9121 45.9992C79.0434 45.5133 79.5346 45.2161 80.0257 45.3266C82.9669 45.9839 90.022 45.2542 92.4777 41.5692C96.5687 35.434 93.559 29.3102 92.5405 27.5802C92.2816 27.1381 92.4187 26.5722 92.8527 26.3016C95.4836 24.6535 99.9592 22.7767 104.696 20.7876C106.154 20.1759 107.648 19.5472 109.135 18.9089C109.451 18.7736 109.815 18.8212 110.085 19.0308C110.355 19.2423 110.49 19.5834 110.437 19.9225C110.313 20.9171 113.548 25.4328 117.785 26.978C127.749 30.6096 133.007 23.979 134.382 21.8622C134.526 21.6393 134.757 21.4887 135.017 21.4449C135.276 21.403 135.545 21.4697 135.754 21.6335C141.012 25.7681 145.549 29.9504 149.628 34.4242C149.796 34.609 149.885 34.8548 149.872 35.1063C149.86 35.3559 149.748 35.5921 149.562 35.7598C145.926 39.0408 144.498 44.5301 146.087 49.1106C147.665 53.6587 152.192 57.174 157.351 57.8581C157.607 57.8923 157.837 58.0276 157.987 58.2353C158.14 58.443 158.2 58.704 158.155 58.9574C157.163 64.5706 155.448 70.1438 153.198 75.0729C153.003 75.4978 152.527 75.7169 152.078 75.5854C148.277 74.4746 144.612 73.5981 141.545 75.0576C139.356 76.0999 137.612 78.4453 136.883 81.3339C136.314 83.5879 136.327 85.9829 136.339 88.517C136.342 89.0581 136.346 89.6069 136.342 90.1594C136.34 90.5653 136.08 90.9235 135.695 91.0511C130.102 92.8879 124.783 94.1569 119.434 94.9305C119.388 94.9381 119.344 94.9399 119.299 94.9399Z" fill="black"/>
<path d="M115.221 39.6851C109.491 40.9864 105.543 44.4046 103.08 49.6691C100.616 54.9355 100.888 61.3832 103.908 66.339C106.925 71.2948 112.642 74.5739 118.517 74.5835C123.432 74.5911 128.279 72.3676 131.582 68.7703C134.886 65.173 135.846 60.3734 135.754 55.5319C135.707 53.0892 133.693 44.4789 126.779 41.0836C123.082 39.2678 118.528 38.9363 115.221 39.6851Z" fill="#ACD4F7"/>
<path d="M115.292 39.9915C109.767 41.2452 105.867 44.4538 103.363 49.8021C100.909 55.0494 101.22 61.3218 104.174 66.1748C107.163 71.0829 112.794 74.2592 118.519 74.2687C118.526 74.2687 118.536 74.2687 118.543 74.2687C123.278 74.2687 128.065 72.1347 131.351 68.5565C134.209 65.445 135.547 61.1866 135.44 55.5372C135.389 52.8831 133.211 44.591 126.642 41.3652C123.302 39.7247 118.846 39.1855 115.292 39.9915ZM118.543 74.8975C118.534 74.8975 118.526 74.8975 118.517 74.8975C112.579 74.8879 106.739 71.5936 103.639 66.5025C100.576 61.4724 100.253 54.9713 102.796 49.5354C105.349 44.0765 109.506 40.6602 115.153 39.3799C118.838 38.5434 123.457 39.1017 126.918 40.8012C134.279 44.4157 136.029 53.4775 136.069 55.5258C136.177 61.3447 134.785 65.7442 131.814 68.9813C128.41 72.6872 123.451 74.8975 118.543 74.8975Z" fill="black"/>
<path d="M121.913 45.3417C118.579 44.1147 114.639 45.0635 111.913 47.3347C109.187 49.604 107.608 53.0298 107.159 56.5127C106.975 57.9418 106.969 59.4146 107.374 60.7979C107.778 62.1774 108.583 63.4235 109.579 64.4695C112.952 68.0096 118.715 69.1014 123.177 67.0036C127.639 64.9039 130.42 59.7557 129.642 54.9542C128.966 50.7948 126.049 46.8641 121.913 45.3417Z" fill="white"/>
<path d="M118.779 45.7422C116.596 45.7422 114.328 46.5501 112.514 48.0592C110.155 50.0236 108.543 53.1484 108.094 56.6352C107.896 58.1613 107.957 59.436 108.277 60.5316C108.612 61.671 109.297 62.8066 110.26 63.8183C113.342 67.0555 118.722 68.0558 122.777 66.1505C126.87 64.2242 129.421 59.476 128.711 55.1052C128.054 51.0639 125.257 47.579 121.587 46.2281C120.698 45.9004 119.746 45.7422 118.779 45.7422ZM118.265 69.0161C114.789 69.0161 111.307 67.6499 108.897 65.1196C107.726 63.8907 106.887 62.4884 106.47 61.0632C106.074 59.7104 105.994 58.1842 106.224 56.3932C106.736 52.4415 108.589 48.8746 111.311 46.6092C114.435 44.0084 118.724 43.1643 122.236 44.458H122.238C126.537 46.0395 129.807 50.1017 130.571 54.8022C131.41 59.9733 128.404 65.5846 123.578 67.8557C121.913 68.6388 120.091 69.0161 118.265 69.0161Z" fill="black"/>
<path d="M306.332 97.4951C306.332 94.1417 309.048 91.4227 312.399 91.4227C315.751 91.4227 318.468 94.1417 318.468 97.4951C318.468 100.85 315.751 103.569 312.399 103.569C309.048 103.569 306.332 100.85 306.332 97.4951Z" fill="white"/>
<path d="M312.401 92.3637C309.574 92.3637 307.274 94.6653 307.274 97.4947C307.274 100.324 309.574 102.626 312.401 102.626C315.226 102.626 317.526 100.324 317.526 97.4947C317.526 94.6653 315.226 92.3637 312.401 92.3637ZM312.401 104.51C308.535 104.51 305.39 101.365 305.39 97.4947C305.39 93.6269 308.535 90.4792 312.401 90.4792C316.265 90.4792 319.41 93.6269 319.41 97.4947C319.41 101.365 316.265 104.51 312.401 104.51Z" fill="black"/>
</g>
<defs>
<clipPath id="clip0_9992_1576">
<rect width="504" height="463" fill="white" transform="translate(25 0.265137)"/>
</clipPath>
</defs>
</svg>
