<svg width="105" height="34" viewBox="0 0 105 34" fill="none" xmlns="http://www.w3.org/2000/svg">
<path d="M21.6247 33.2122L4.14924 33.2122L1.76452 26.5075M21.6247 33.2122L30.4121 17.2123M21.6247 33.2122L13.904 26.5075M1.76452 26.5075L13.904 22.5686M1.76452 26.5075L13.904 26.5075M30.4121 17.2123L18.5264 26.5075L13.904 26.5075M30.4121 17.2123L21.6247 1.21225M30.4121 17.2123L18.831 7.56146L13.904 7.56146M30.4121 17.2123L13.904 22.5686M30.4121 17.2123L1.76452 7.56146M21.6247 1.21225L4.14924 1.21225L1.76452 7.56146M21.6247 1.21225L13.904 7.56146M1.76452 7.56146L13.904 7.56146M13.904 22.5686L13.904 17.2123L13.904 11.5742L13.904 7.56146M13.904 22.5686L13.904 26.5075M13.904 7.56146L2.57701 17.2123L13.904 26.5075" stroke="#09A1A1" stroke-width="1.25"/>
<path d="M42.7801 4.82825H44.5721L48.6041 15.2122H46.9881L45.8041 12.0602H41.3561L40.1881 15.2122H38.6521L42.7801 4.82825ZM45.4201 10.9882L43.6601 6.30025H43.5161L41.7561 10.9882H45.4201ZM52.3056 15.3722C51.3136 15.3722 50.6149 15.1962 50.2096 14.8442C49.8149 14.4816 49.6176 13.9162 49.6176 13.1482V7.46825H51.0576V13.0682C51.0576 13.2709 51.0736 13.4362 51.1056 13.5642C51.1483 13.6816 51.2176 13.8042 51.3136 13.9322C51.5056 14.2096 51.9749 14.3482 52.7216 14.3482C53.5109 14.3482 54.0656 14.2736 54.3856 14.1242C54.6949 13.9749 54.8496 13.7029 54.8496 13.3082V7.46825H56.2896V15.2122H54.8496V14.2682C54.7109 15.0042 53.8629 15.3722 52.3056 15.3722ZM61.5575 15.3722C60.8962 15.3722 60.3788 15.3029 60.0055 15.1642C59.6322 15.0149 59.3602 14.7696 59.1895 14.4282C59.0295 14.0762 58.9495 13.5856 58.9495 12.9562V8.41225H57.2215V7.46825H58.9495V5.06825H60.4055V7.46825H63.1735V8.41225H60.4055V13.0362C60.4055 13.4202 60.4482 13.7082 60.5335 13.9002C60.6295 14.0922 60.7895 14.2309 61.0135 14.3162C61.2482 14.3909 61.5842 14.4282 62.0215 14.4282C62.1602 14.4282 62.5442 14.3856 63.1735 14.3002V15.2442C62.6295 15.3296 62.0908 15.3722 61.5575 15.3722ZM67.547 15.3722C66.8643 15.3722 66.3523 15.3456 66.011 15.2922C65.6697 15.2496 65.3283 15.1482 64.987 14.9882C64.635 14.8282 64.379 14.5722 64.219 14.2202C64.059 13.8576 63.979 13.3722 63.979 12.7642V10.0762C63.979 9.59625 64.0377 9.17492 64.155 8.81225C64.2723 8.44958 64.427 8.16692 64.619 7.96425C64.779 7.78292 65.019 7.64425 65.339 7.54825C65.6697 7.44158 66.0057 7.37225 66.347 7.34025C66.731 7.31892 67.131 7.30825 67.547 7.30825C68.1017 7.30825 68.5177 7.32425 68.795 7.35625C69.083 7.37758 69.387 7.43092 69.707 7.51625C70.0377 7.61225 70.2937 7.75625 70.475 7.94825C70.6563 8.14025 70.811 8.41758 70.939 8.78025C71.0563 9.15358 71.115 9.58558 71.115 10.0762V12.7642C71.115 13.6709 70.907 14.3322 70.491 14.7482C70.3203 14.9189 70.075 15.0522 69.755 15.1482C69.435 15.2442 69.1043 15.3082 68.763 15.3402C68.3577 15.3616 67.9523 15.3722 67.547 15.3722ZM67.547 14.4282C67.995 14.4282 68.3203 14.4176 68.523 14.3962C68.7257 14.3749 68.923 14.3162 69.115 14.2202C69.307 14.1349 69.4403 13.9962 69.515 13.8042C69.6003 13.6016 69.643 13.3242 69.643 12.9722V9.83625C69.643 9.35625 69.5843 9.00958 69.467 8.79625C69.3497 8.57225 69.147 8.42825 68.859 8.36425C68.5817 8.28958 68.1443 8.25225 67.547 8.25225C66.9497 8.25225 66.507 8.28958 66.219 8.36425C65.9417 8.42825 65.7443 8.57225 65.627 8.79625C65.5097 9.00958 65.451 9.35625 65.451 9.83625V12.9722C65.451 13.3242 65.4883 13.6016 65.563 13.8042C65.6483 13.9962 65.787 14.1349 65.979 14.2202C66.171 14.3162 66.3683 14.3749 66.571 14.3962C66.7737 14.4176 67.099 14.4282 67.547 14.4282ZM75.6487 15.3722C74.8807 15.3722 74.2781 15.2976 73.8407 15.1482C73.4034 14.9882 73.0834 14.7322 72.8807 14.3802C72.6887 14.0282 72.5927 13.5376 72.5927 12.9082V9.50025C72.5927 8.72158 72.8327 8.16158 73.3127 7.82025C73.8034 7.47892 74.6087 7.30825 75.7287 7.30825C76.4007 7.30825 76.9767 7.39358 77.4567 7.56425C77.9474 7.73492 78.1981 7.98025 78.2087 8.30025H78.2407L78.2087 6.33225V4.01225H79.6487V15.2122H78.2407V14.3002C78.2407 14.5882 78.0114 14.8336 77.5527 15.0362C77.0941 15.2602 76.4594 15.3722 75.6487 15.3722ZM75.9527 14.3802C76.7527 14.3802 77.3287 14.2896 77.6807 14.1082C78.0327 13.9269 78.2087 13.6176 78.2087 13.1802V9.35625C78.2087 8.66292 77.4994 8.31625 76.0807 8.31625C75.2274 8.31625 74.6727 8.38025 74.4167 8.50825C74.1501 8.63625 74.0167 8.91892 74.0167 9.35625V13.1802C74.0167 13.6176 74.1607 13.9269 74.4487 14.1082C74.7474 14.2896 75.2487 14.3802 75.9527 14.3802ZM84.8054 15.3722C82.4374 15.3722 81.2534 14.5829 81.2534 13.0042V9.94825C81.2534 9.00958 81.52 8.33758 82.0534 7.93225C82.5974 7.51625 83.472 7.30825 84.6774 7.30825C85.8187 7.30825 86.64 7.50558 87.1414 7.90025C87.6534 8.29492 87.9094 8.97758 87.9094 9.94825V11.6602H82.7094V12.8282C82.7094 13.3616 82.896 13.7456 83.2694 13.9802C83.6427 14.2149 84.2187 14.3322 84.9974 14.3322C85.7334 14.3322 86.6027 14.2042 87.6054 13.9482V15.0522C86.624 15.2656 85.6907 15.3722 84.8054 15.3722ZM86.4694 10.7162V9.50025C86.4694 9.03092 86.3254 8.71092 86.0374 8.54025C85.76 8.35892 85.28 8.26825 84.5974 8.26825C83.936 8.26825 83.456 8.35892 83.1574 8.54025C82.8587 8.71092 82.7094 9.03092 82.7094 9.50025V10.7162H86.4694ZM91.9919 15.3722C91.1705 15.3722 90.2852 15.3082 89.3359 15.1802V14.0762C90.5839 14.2789 91.4799 14.3802 92.0239 14.3802C92.7065 14.3802 93.1972 14.3162 93.4959 14.1882C93.7945 14.0496 93.9439 13.7989 93.9439 13.4362V12.6522C93.9439 12.3216 93.8319 12.0869 93.6079 11.9482C93.3839 11.8096 93.0212 11.7402 92.5199 11.7402H91.6399C90.8399 11.7402 90.2265 11.5749 89.7999 11.2442C89.3839 10.9136 89.1759 10.4496 89.1759 9.85225V9.13225C89.1759 7.91625 90.3279 7.30825 92.6319 7.30825C92.8025 7.30825 93.5865 7.35092 94.9839 7.43625V8.47625C94.0345 8.32692 93.2292 8.25225 92.5679 8.25225C91.8105 8.25225 91.2932 8.32692 91.0159 8.47625C90.7385 8.62558 90.5999 8.87625 90.5999 9.22825V9.88425C90.5999 10.4069 91.0745 10.6682 92.0239 10.6682H92.9199C94.5519 10.6682 95.3679 11.2762 95.3679 12.4922V13.1642C95.3679 13.9642 95.0905 14.5349 94.5359 14.8762C93.9812 15.2069 93.1332 15.3722 91.9919 15.3722ZM96.8782 4.01225H98.3182V15.2122H96.8782V4.01225ZM98.4942 10.9722L101.758 7.46825H103.518L100.158 10.9722L103.822 15.2122H102.03L98.4942 10.9722ZM42.6521 31.3722C41.7561 31.3722 40.5934 31.2922 39.1641 31.1322V29.2762L39.6761 29.3722C39.8788 29.4149 39.9908 29.4416 40.0121 29.4522L40.5561 29.5482C40.6841 29.5696 40.9561 29.6016 41.3721 29.6442C41.6921 29.6762 42.0174 29.6922 42.3481 29.6922C42.9668 29.6922 43.3934 29.6176 43.6281 29.4682C43.8734 29.3189 43.9961 29.0362 43.9961 28.6202V27.4202C43.9961 26.9189 43.4574 26.6682 42.3801 26.6682H40.4921V25.0682H42.3801C43.2121 25.0682 43.6281 24.7642 43.6281 24.1562V23.1482C43.6281 22.9242 43.5854 22.7536 43.5001 22.6362C43.4148 22.5082 43.2601 22.4176 43.0361 22.3642C42.8228 22.3109 42.5028 22.2842 42.0761 22.2842C41.4681 22.2842 40.5294 22.3482 39.2601 22.4762V20.8122C40.7108 20.7162 41.7348 20.6682 42.3321 20.6682C43.6334 20.6682 44.5721 20.8176 45.1481 21.1162C45.7348 21.4149 46.0281 21.9429 46.0281 22.7002V24.4122C46.0281 24.7216 45.9321 24.9882 45.7401 25.2122C45.5588 25.4256 45.3241 25.5696 45.0361 25.6442C45.9748 25.9749 46.4441 26.4922 46.4441 27.1962V28.8922C46.4441 29.7776 46.1401 30.4122 45.5321 30.7962C44.9241 31.1802 43.9641 31.3722 42.6521 31.3722ZM48.3334 20.8282H52.7494C53.9654 20.8282 54.9254 20.9242 55.6294 21.1162C56.3334 21.2976 56.8507 21.6176 57.1814 22.0762C57.512 22.5349 57.6774 23.1696 57.6774 23.9802V28.2042C57.6774 28.9936 57.5227 29.6069 57.2134 30.0442C56.904 30.4709 56.3974 30.7749 55.6934 30.9562C54.9894 31.1269 54.0134 31.2122 52.7654 31.2122H48.3334V20.8282ZM52.6534 29.4362C53.336 29.4362 53.848 29.4096 54.1894 29.3562C54.5414 29.2922 54.792 29.1749 54.9414 29.0042C55.1014 28.8336 55.1814 28.5669 55.1814 28.2042V23.9322C55.1814 23.4416 54.984 23.1002 54.5894 22.9082C54.2054 22.7056 53.5867 22.6042 52.7334 22.6042H50.8294V29.4362H52.6534ZM62.0127 31.3722C61.1807 31.3722 60.1621 31.2922 58.9567 31.1322V29.5802C60.4394 29.8042 61.4687 29.9162 62.0447 29.9162C62.5354 29.9162 62.8981 29.8682 63.1327 29.7722C63.3674 29.6762 63.4847 29.5002 63.4847 29.2442V28.7642C63.4847 28.4976 63.4101 28.3109 63.2607 28.2042C63.1114 28.0869 62.8181 28.0282 62.3807 28.0282H61.3727C60.5514 28.0282 59.9167 27.8682 59.4687 27.5482C59.0207 27.2176 58.7967 26.7376 58.7967 26.1082V25.1642C58.7967 24.4922 59.1167 24.0176 59.7567 23.7402C60.3967 23.4522 61.3621 23.3082 62.6527 23.3082C63.1647 23.3082 64.0821 23.3562 65.4047 23.4522V24.9402C63.7407 24.8122 62.8021 24.7482 62.5887 24.7482C61.9594 24.7482 61.5487 24.7909 61.3567 24.8762C61.1861 24.9722 61.1007 25.1482 61.1007 25.4042V25.8202C61.1007 25.9589 61.1701 26.0816 61.3087 26.1882C61.4474 26.2842 61.6501 26.3322 61.9167 26.3322H62.9407C64.8394 26.3322 65.7887 26.9509 65.7887 28.1882V29.1642C65.7887 29.5376 65.7194 29.8629 65.5807 30.1402C65.4421 30.4176 65.2607 30.6362 65.0367 30.7962C64.8234 30.9456 64.5461 31.0629 64.2047 31.1482C63.8741 31.2336 63.5274 31.2922 63.1647 31.3242C62.8341 31.3562 62.4501 31.3722 62.0127 31.3722ZM70.3465 20.8282H73.8985L76.4585 28.2522L78.9865 20.8282H82.3305V31.2122H80.0745V23.5322H80.0265L77.4025 31.2122H75.4025L72.6985 23.5322H72.6345V31.2122H70.3465V20.8282ZM86.1812 31.3722C85.4559 31.3722 84.9119 31.3082 84.5492 31.1802C84.1972 31.0416 83.9466 30.8016 83.7972 30.4602C83.6586 30.1082 83.5892 29.5856 83.5892 28.8922C83.5892 28.2736 83.6639 27.7882 83.8132 27.4362C83.9732 27.0842 84.2239 26.8336 84.5652 26.6842C84.9172 26.5242 85.3972 26.4442 86.0052 26.4442H88.6292V25.9162C88.6292 25.5856 88.5812 25.3402 88.4852 25.1802C88.3999 25.0202 88.2346 24.9082 87.9892 24.8442C87.7546 24.7802 87.3972 24.7482 86.9172 24.7482C86.2559 24.7482 85.3492 24.8122 84.1972 24.9402V23.4682C85.0399 23.3616 86.0266 23.3082 87.1572 23.3082C88.1492 23.3082 88.9119 23.3829 89.4452 23.5322C89.9892 23.6816 90.3786 23.9376 90.6132 24.3002C90.8479 24.6629 90.9652 25.1909 90.9652 25.8842V31.2122H88.6772V30.5082C88.4959 30.8176 88.2506 31.0362 87.9412 31.1642C87.6319 31.3029 87.0452 31.3722 86.1812 31.3722ZM87.0932 29.9162C87.5626 29.9162 87.8986 29.9002 88.1012 29.8682C88.2506 29.8469 88.3519 29.8149 88.4052 29.7722C88.4692 29.7296 88.5226 29.6602 88.5652 29.5642C88.6079 29.4896 88.6292 29.3776 88.6292 29.2282V27.7242H87.0292C86.6666 27.7242 86.4106 27.7509 86.2612 27.8042C86.1119 27.8469 86.0106 27.9429 85.9572 28.0922C85.9039 28.2309 85.8772 28.4816 85.8772 28.8442C85.8772 29.1962 85.9039 29.4416 85.9572 29.5802C86.0106 29.7189 86.1119 29.8096 86.2612 29.8522C86.4212 29.8949 86.6986 29.9162 87.0932 29.9162ZM94.7165 27.2442L91.8365 23.4682H94.5405L96.0605 25.6922L97.5965 23.4682H100.3L97.4045 27.2442L100.46 31.2122H97.7565L96.0605 28.7802L94.3805 31.2122H91.6765L94.7165 27.2442Z" fill="#09A1A1"/>
</svg>
