<svg width="114" height="34" viewBox="0 0 114 34" fill="none" xmlns="http://www.w3.org/2000/svg">
<path d="M12.5426 9.95062H16.861L22.1793 24.7011H18.5883L17.2701 20.8146H11.8835L10.588 24.7011H7.08789L12.5426 9.95062ZM16.4973 18.4509L14.6336 12.9053H14.5427L12.679 18.4509H16.4973Z" fill="#BC5D07"/>
<path d="M23.7696 9.72334H27.0879V12.4053H23.7696V9.72334ZM23.7696 13.7008H27.0879V24.7011H23.7696V13.7008Z" fill="#BC5D07"/>
<rect x="1.58789" y="1.71225" width="31" height="31" stroke="#BC5D07" stroke-width="2"/>
<path d="M45.9559 4.82825H47.7479L51.7799 15.2122H50.1639L48.9799 12.0602H44.5319L43.3639 15.2122H41.8279L45.9559 4.82825ZM48.5959 10.9882L46.8359 6.30025H46.6919L44.9319 10.9882H48.5959ZM55.5614 15.3722C54.7934 15.3722 54.1907 15.2976 53.7534 15.1482C53.3161 14.9882 52.9961 14.7322 52.7934 14.3802C52.6014 14.0282 52.5054 13.5376 52.5054 12.9082V9.50025C52.5054 8.72158 52.7454 8.16158 53.2254 7.82025C53.7161 7.47892 54.5214 7.30825 55.6414 7.30825C56.3134 7.30825 56.8894 7.39358 57.3694 7.56425C57.8601 7.73492 58.1107 7.98025 58.1214 8.30025H58.1534L58.1214 6.33225V4.01225H59.5614V15.2122H58.1534V14.3002C58.1534 14.5882 57.9241 14.8336 57.4654 15.0362C57.0067 15.2602 56.3721 15.3722 55.5614 15.3722ZM55.8654 14.3802C56.6654 14.3802 57.2414 14.2896 57.5934 14.1082C57.9454 13.9269 58.1214 13.6176 58.1214 13.1802V9.35625C58.1214 8.66292 57.4121 8.31625 55.9934 8.31625C55.1401 8.31625 54.5854 8.38025 54.3294 8.50825C54.0627 8.63625 53.9294 8.91892 53.9294 9.35625V13.1802C53.9294 13.6176 54.0734 13.9269 54.3614 14.1082C54.6601 14.2896 55.1614 14.3802 55.8654 14.3802ZM64.734 15.3722C64.0514 15.3722 63.5394 15.3456 63.198 15.2922C62.8567 15.2496 62.5153 15.1482 62.174 14.9882C61.822 14.8282 61.566 14.5722 61.406 14.2202C61.246 13.8576 61.166 13.3722 61.166 12.7642V10.0762C61.166 9.59625 61.2247 9.17492 61.342 8.81225C61.4593 8.44958 61.614 8.16692 61.806 7.96425C61.966 7.78292 62.206 7.64425 62.526 7.54825C62.8567 7.44158 63.1927 7.37225 63.534 7.34025C63.918 7.31892 64.318 7.30825 64.734 7.30825C65.2887 7.30825 65.7047 7.32425 65.982 7.35625C66.27 7.37758 66.574 7.43092 66.894 7.51625C67.2247 7.61225 67.4807 7.75625 67.662 7.94825C67.8434 8.14025 67.998 8.41758 68.126 8.78025C68.2434 9.15358 68.302 9.58558 68.302 10.0762V12.7642C68.302 13.6709 68.094 14.3322 67.678 14.7482C67.5074 14.9189 67.262 15.0522 66.942 15.1482C66.622 15.2442 66.2914 15.3082 65.95 15.3402C65.5447 15.3616 65.1394 15.3722 64.734 15.3722ZM64.734 14.4282C65.182 14.4282 65.5074 14.4176 65.71 14.3962C65.9127 14.3749 66.11 14.3162 66.302 14.2202C66.494 14.1349 66.6274 13.9962 66.702 13.8042C66.7874 13.6016 66.83 13.3242 66.83 12.9722V9.83625C66.83 9.35625 66.7714 9.00958 66.654 8.79625C66.5367 8.57225 66.334 8.42825 66.046 8.36425C65.7687 8.28958 65.3314 8.25225 64.734 8.25225C64.1367 8.25225 63.694 8.28958 63.406 8.36425C63.1287 8.42825 62.9313 8.57225 62.814 8.79625C62.6967 9.00958 62.638 9.35625 62.638 9.83625V12.9722C62.638 13.3242 62.6754 13.6016 62.75 13.8042C62.8354 13.9962 62.974 14.1349 63.166 14.2202C63.358 14.3162 63.5554 14.3749 63.758 14.3962C63.9607 14.4176 64.286 14.4282 64.734 14.4282ZM73.5238 15.3722C72.9478 15.3722 72.4838 15.3402 72.1318 15.2762C71.7904 15.2229 71.4491 15.1162 71.1078 14.9562C70.4144 14.6256 70.0678 13.8682 70.0678 12.6842V4.01225H71.5078V6.33225V7.24425C71.4971 7.52158 71.4918 7.83092 71.4918 8.17225C71.5451 7.92692 71.7691 7.71892 72.1638 7.54825C72.5691 7.38825 73.1558 7.30825 73.9238 7.30825C76.0571 7.30825 77.1238 8.03892 77.1238 9.50025V12.6842C77.1238 13.1429 77.0544 13.5429 76.9158 13.8842C76.7878 14.2256 76.6171 14.4922 76.4038 14.6842C76.2118 14.8656 75.9451 15.0096 75.6038 15.1162C75.2731 15.2229 74.9424 15.2922 74.6118 15.3242C74.3131 15.3562 73.9504 15.3722 73.5238 15.3722ZM73.5558 14.4282C74.1104 14.4282 74.5318 14.3909 74.8198 14.3162C75.1184 14.2309 75.3318 14.0816 75.4598 13.8682C75.5878 13.6549 75.6518 13.3296 75.6518 12.8922V9.85225C75.6518 9.41492 75.5878 9.08958 75.4598 8.87625C75.3318 8.65225 75.1184 8.50825 74.8198 8.44425C74.5318 8.36958 74.1051 8.33225 73.5398 8.33225C73.0171 8.33225 72.6118 8.37492 72.3238 8.46025C72.0358 8.54558 71.8278 8.70025 71.6998 8.92425C71.5718 9.13758 71.5078 9.44692 71.5078 9.85225V12.8922C71.5078 13.3296 71.5664 13.6549 71.6838 13.8682C71.8118 14.0816 72.0198 14.2309 72.3078 14.3162C72.5958 14.3909 73.0118 14.4282 73.5558 14.4282ZM82.1174 15.3722C79.7494 15.3722 78.5654 14.5829 78.5654 13.0042V9.94825C78.5654 9.00958 78.8321 8.33758 79.3654 7.93225C79.9094 7.51625 80.7841 7.30825 81.9894 7.30825C83.1307 7.30825 83.9521 7.50558 84.4534 7.90025C84.9654 8.29492 85.2214 8.97758 85.2214 9.94825V11.6602H80.0214V12.8282C80.0214 13.3616 80.2081 13.7456 80.5814 13.9802C80.9547 14.2149 81.5307 14.3322 82.3094 14.3322C83.0454 14.3322 83.9147 14.2042 84.9174 13.9482V15.0522C83.9361 15.2656 83.0027 15.3722 82.1174 15.3722ZM83.7814 10.7162V9.50025C83.7814 9.03092 83.6374 8.71092 83.3494 8.54025C83.0721 8.35892 82.5921 8.26825 81.9094 8.26825C81.2481 8.26825 80.7681 8.35892 80.4694 8.54025C80.1707 8.71092 80.0214 9.03092 80.0214 9.50025V10.7162H83.7814ZM42.7079 20.8282H45.2039V31.2122H42.7079V20.8282ZM46.9303 20.0122H49.2663V31.2122H46.9303V20.0122ZM50.9659 20.0122H53.3019V31.2122H50.9659V20.0122ZM57.6255 31.3722C56.6335 31.3722 55.9348 31.1962 55.5295 30.8442C55.1348 30.4816 54.9375 29.9162 54.9375 29.1482V23.4682H57.2735V28.8282C57.2735 29.1269 57.3002 29.3509 57.3535 29.5002C57.4175 29.6496 57.5348 29.7562 57.7055 29.8202C57.8868 29.8842 58.1588 29.9162 58.5215 29.9162C58.9802 29.9162 59.3162 29.8896 59.5295 29.8362C59.7428 29.7722 59.8868 29.6656 59.9615 29.5162C60.0362 29.3669 60.0735 29.1376 60.0735 28.8282V23.4682H62.4095V31.2122H60.1055V30.2682C59.9348 31.0042 59.1082 31.3722 57.6255 31.3722ZM66.8691 31.3722C66.0371 31.3722 65.0185 31.2922 63.8131 31.1322V29.5802C65.2958 29.8042 66.3251 29.9162 66.9011 29.9162C67.3918 29.9162 67.7545 29.8682 67.9891 29.7722C68.2238 29.6762 68.3411 29.5002 68.3411 29.2442V28.7642C68.3411 28.4976 68.2665 28.3109 68.1171 28.2042C67.9678 28.0869 67.6745 28.0282 67.2371 28.0282H66.2291C65.4078 28.0282 64.7731 27.8682 64.3251 27.5482C63.8771 27.2176 63.6531 26.7376 63.6531 26.1082V25.1642C63.6531 24.4922 63.9731 24.0176 64.6131 23.7402C65.2531 23.4522 66.2185 23.3082 67.5091 23.3082C68.0211 23.3082 68.9385 23.3562 70.2611 23.4522V24.9402C68.5971 24.8122 67.6585 24.7482 67.4451 24.7482C66.8158 24.7482 66.4051 24.7909 66.2131 24.8762C66.0425 24.9722 65.9571 25.1482 65.9571 25.4042V25.8202C65.9571 25.9589 66.0265 26.0816 66.1651 26.1882C66.3038 26.2842 66.5065 26.3322 66.7731 26.3322H67.7971C69.6958 26.3322 70.6451 26.9509 70.6451 28.1882V29.1642C70.6451 29.5376 70.5758 29.8629 70.4371 30.1402C70.2985 30.4176 70.1171 30.6362 69.8931 30.7962C69.6798 30.9456 69.4025 31.0629 69.0611 31.1482C68.7305 31.2336 68.3838 31.2922 68.0211 31.3242C67.6905 31.3562 67.3065 31.3722 66.8691 31.3722ZM75.7714 31.3722C75.3767 31.3722 75.0461 31.3562 74.7794 31.3242C74.5127 31.2922 74.2461 31.2282 73.9794 31.1322C73.6807 31.0362 73.4354 30.9029 73.2434 30.7322C73.0621 30.5616 72.9127 30.3269 72.7954 30.0282C72.6674 29.7189 72.6034 29.3616 72.6034 28.9562V24.9082H71.0354V23.4682H72.6034V21.2282H74.9394V23.4682H77.0674V24.9082H74.9394V28.5562C74.9394 28.9296 74.9714 29.2122 75.0354 29.4042C75.0994 29.5856 75.2221 29.7189 75.4034 29.8042C75.5847 29.8789 75.8621 29.9162 76.2354 29.9162C76.3847 29.9162 76.6621 29.8896 77.0674 29.8362V31.2922C76.5661 31.3456 76.1341 31.3722 75.7714 31.3722ZM77.935 23.4682H80.159V24.8282C80.159 24.5829 80.2603 24.3429 80.463 24.1082C80.6657 23.8736 80.9217 23.6816 81.231 23.5322C81.551 23.3829 81.8657 23.3082 82.175 23.3082H83.007V25.2442H82.207C81.5457 25.2442 81.055 25.3456 80.735 25.5482C80.4257 25.7509 80.271 26.0869 80.271 26.5562V31.2122H77.935V23.4682ZM86.0064 31.3722C85.2811 31.3722 84.7371 31.3082 84.3744 31.1802C84.0224 31.0416 83.7717 30.8016 83.6224 30.4602C83.4837 30.1082 83.4144 29.5856 83.4144 28.8922C83.4144 28.2736 83.4891 27.7882 83.6384 27.4362C83.7984 27.0842 84.0491 26.8336 84.3904 26.6842C84.7424 26.5242 85.2224 26.4442 85.8304 26.4442H88.4544V25.9162C88.4544 25.5856 88.4064 25.3402 88.3104 25.1802C88.2251 25.0202 88.0597 24.9082 87.8144 24.8442C87.5797 24.7802 87.2224 24.7482 86.7424 24.7482C86.0811 24.7482 85.1744 24.8122 84.0224 24.9402V23.4682C84.8651 23.3616 85.8517 23.3082 86.9824 23.3082C87.9744 23.3082 88.7371 23.3829 89.2704 23.5322C89.8144 23.6816 90.2037 23.9376 90.4384 24.3002C90.6731 24.6629 90.7904 25.1909 90.7904 25.8842V31.2122H88.5024V30.5082C88.3211 30.8176 88.0757 31.0362 87.7664 31.1642C87.4571 31.3029 86.8704 31.3722 86.0064 31.3722ZM86.9184 29.9162C87.3877 29.9162 87.7237 29.9002 87.9264 29.8682C88.0757 29.8469 88.1771 29.8149 88.2304 29.7722C88.2944 29.7296 88.3477 29.6602 88.3904 29.5642C88.4331 29.4896 88.4544 29.3776 88.4544 29.2282V27.7242H86.8544C86.4917 27.7242 86.2357 27.7509 86.0864 27.8042C85.9371 27.8469 85.8357 27.9429 85.7824 28.0922C85.7291 28.2309 85.7024 28.4816 85.7024 28.8442C85.7024 29.1962 85.7291 29.4416 85.7824 29.5802C85.8357 29.7189 85.9371 29.8096 86.0864 29.8522C86.2464 29.8949 86.5237 29.9162 86.9184 29.9162ZM96.2376 31.3722C95.843 31.3722 95.5123 31.3562 95.2456 31.3242C94.979 31.2922 94.7123 31.2282 94.4456 31.1322C94.147 31.0362 93.9016 30.9029 93.7096 30.7322C93.5283 30.5616 93.379 30.3269 93.2616 30.0282C93.1336 29.7189 93.0696 29.3616 93.0696 28.9562V24.9082H91.5016V23.4682H93.0696V21.2282H95.4056V23.4682H97.5336V24.9082H95.4056V28.5562C95.4056 28.9296 95.4376 29.2122 95.5016 29.4042C95.5656 29.5856 95.6883 29.7189 95.8696 29.8042C96.051 29.8789 96.3283 29.9162 96.7016 29.9162C96.851 29.9162 97.1283 29.8896 97.5336 29.8362V31.2922C97.0323 31.3456 96.6003 31.3722 96.2376 31.3722ZM102.113 31.3722C101.633 31.3722 101.239 31.3562 100.929 31.3242C100.62 31.2922 100.289 31.2282 99.9373 31.1322C99.5533 31.0256 99.2439 30.8762 99.0093 30.6842C98.7746 30.4816 98.5773 30.1989 98.4173 29.8362C98.2573 29.4842 98.1773 29.0576 98.1773 28.5562V26.2682C98.1773 25.7562 98.2573 25.3082 98.4173 24.9242C98.5773 24.5402 98.7853 24.2416 99.0413 24.0282C99.2653 23.8469 99.5586 23.6976 99.9213 23.5802C100.295 23.4522 100.657 23.3722 101.009 23.3402C101.415 23.3189 101.783 23.3082 102.113 23.3082C102.604 23.3082 102.993 23.3242 103.281 23.3562C103.58 23.3776 103.905 23.4416 104.257 23.5482C104.641 23.6656 104.951 23.8256 105.185 24.0282C105.431 24.2309 105.639 24.5189 105.809 24.8922C105.969 25.2762 106.049 25.7349 106.049 26.2682V28.5562C106.049 29.0362 105.969 29.4576 105.809 29.8202C105.66 30.1829 105.463 30.4656 105.217 30.6682C105.004 30.8496 104.711 30.9989 104.337 31.1162C103.975 31.2229 103.617 31.2922 103.265 31.3242C102.945 31.3562 102.561 31.3722 102.113 31.3722ZM102.113 29.9162C102.551 29.9162 102.881 29.8842 103.105 29.8202C103.329 29.7456 103.484 29.6336 103.569 29.4842C103.665 29.3349 103.713 29.1162 103.713 28.8282V25.9002C103.713 25.4736 103.601 25.1749 103.377 25.0042C103.153 24.8336 102.732 24.7482 102.113 24.7482C101.495 24.7482 101.073 24.8336 100.849 25.0042C100.625 25.1749 100.513 25.4736 100.513 25.9002V28.8282C100.513 29.1162 100.556 29.3349 100.641 29.4842C100.737 29.6336 100.897 29.7456 101.121 29.8202C101.345 29.8842 101.676 29.9162 102.113 29.9162ZM107.39 23.4682H109.614V24.8282C109.614 24.5829 109.715 24.3429 109.918 24.1082C110.121 23.8736 110.377 23.6816 110.686 23.5322C111.006 23.3829 111.321 23.3082 111.63 23.3082H112.462V25.2442H111.662C111.001 25.2442 110.51 25.3456 110.19 25.5482C109.881 25.7509 109.726 26.0869 109.726 26.5562V31.2122H107.39V23.4682Z" fill="#BC5D07"/>
</svg>
