<svg width="107" height="34" viewBox="0 0 107 34" fill="none" xmlns="http://www.w3.org/2000/svg">
<path d="M33 10.6759V30.536H26.2953M33 10.6759L17 1.88846M33 10.6759L17 29.7236M26.2953 30.536V13.7742M26.2953 30.536L22.3564 18.3966M26.2953 13.7742L17 1.88846M26.2953 13.7742L22.3564 18.3966M17 1.88846L1 10.6759M17 1.88846L7.34921 13.4696M17 1.88846L22.3564 18.3966M17 1.88846V29.7236M17 1.88846L7.34921 30.536M1 10.6759V30.536H7.34921M1 10.6759L17 29.7236M7.34921 30.536V13.4696M7.34921 13.4696L11.3619 18.3966L17 23.7299L22.3564 18.3966" stroke="#26C2C2" stroke-width="1.25"/>
<path d="M45.368 3.82825H47.16L51.192 14.2122H49.576L48.392 11.0602H43.944L42.776 14.2122H41.24L45.368 3.82825ZM48.008 9.98825L46.248 5.30025H46.104L44.344 9.98825H48.008ZM54.8935 14.3722C53.9015 14.3722 53.2028 14.1962 52.7975 13.8442C52.4028 13.4816 52.2055 12.9162 52.2055 12.1482V6.46825H53.6455V12.0682C53.6455 12.2709 53.6615 12.4362 53.6935 12.5642C53.7362 12.6816 53.8055 12.8042 53.9015 12.9322C54.0935 13.2096 54.5628 13.3482 55.3095 13.3482C56.0988 13.3482 56.6535 13.2736 56.9735 13.1242C57.2828 12.9749 57.4375 12.7029 57.4375 12.3082V6.46825H58.8775V14.2122H57.4375V13.2682C57.2988 14.0042 56.4508 14.3722 54.8935 14.3722ZM64.1454 14.3722C63.484 14.3722 62.9667 14.3029 62.5934 14.1642C62.22 14.0149 61.948 13.7696 61.7774 13.4282C61.6174 13.0762 61.5374 12.5856 61.5374 11.9562V7.41225H59.8094V6.46825H61.5374V4.06825H62.9934V6.46825H65.7614V7.41225H62.9934V12.0362C62.9934 12.4202 63.036 12.7082 63.1214 12.9002C63.2174 13.0922 63.3774 13.2309 63.6014 13.3162C63.836 13.3909 64.172 13.4282 64.6094 13.4282C64.748 13.4282 65.132 13.3856 65.7614 13.3002V14.2442C65.2174 14.3296 64.6787 14.3722 64.1454 14.3722ZM70.1349 14.3722C69.4522 14.3722 68.9402 14.3456 68.5989 14.2922C68.2575 14.2496 67.9162 14.1482 67.5749 13.9882C67.2229 13.8282 66.9669 13.5722 66.8069 13.2202C66.6469 12.8576 66.5669 12.3722 66.5669 11.7642V9.07625C66.5669 8.59625 66.6255 8.17492 66.7429 7.81225C66.8602 7.44958 67.0149 7.16692 67.2069 6.96425C67.3669 6.78292 67.6069 6.64425 67.9269 6.54825C68.2575 6.44158 68.5935 6.37225 68.9349 6.34025C69.3189 6.31892 69.7189 6.30825 70.1349 6.30825C70.6895 6.30825 71.1055 6.32425 71.3829 6.35625C71.6709 6.37758 71.9749 6.43092 72.2949 6.51625C72.6255 6.61225 72.8815 6.75625 73.0629 6.94825C73.2442 7.14025 73.3989 7.41758 73.5269 7.78025C73.6442 8.15358 73.7029 8.58558 73.7029 9.07625V11.7642C73.7029 12.6709 73.4949 13.3322 73.0789 13.7482C72.9082 13.9189 72.6629 14.0522 72.3429 14.1482C72.0229 14.2442 71.6922 14.3082 71.3509 14.3402C70.9455 14.3616 70.5402 14.3722 70.1349 14.3722ZM70.1349 13.4282C70.5829 13.4282 70.9082 13.4176 71.1109 13.3962C71.3135 13.3749 71.5109 13.3162 71.7029 13.2202C71.8949 13.1349 72.0282 12.9962 72.1029 12.8042C72.1882 12.6016 72.2309 12.3242 72.2309 11.9722V8.83625C72.2309 8.35625 72.1722 8.00958 72.0549 7.79625C71.9375 7.57225 71.7349 7.42825 71.4469 7.36425C71.1695 7.28958 70.7322 7.25225 70.1349 7.25225C69.5375 7.25225 69.0949 7.28958 68.8069 7.36425C68.5295 7.42825 68.3322 7.57225 68.2149 7.79625C68.0975 8.00958 68.0389 8.35625 68.0389 8.83625V11.9722C68.0389 12.3242 68.0762 12.6016 68.1509 12.8042C68.2362 12.9962 68.3749 13.1349 68.5669 13.2202C68.7589 13.3162 68.9562 13.3749 69.1589 13.3962C69.3615 13.4176 69.6869 13.4282 70.1349 13.4282ZM78.2366 14.3722C77.4686 14.3722 76.866 14.2976 76.4286 14.1482C75.9913 13.9882 75.6713 13.7322 75.4686 13.3802C75.2766 13.0282 75.1806 12.5376 75.1806 11.9082V8.50025C75.1806 7.72158 75.4206 7.16158 75.9006 6.82025C76.3913 6.47892 77.1966 6.30825 78.3166 6.30825C78.9886 6.30825 79.5646 6.39358 80.0446 6.56425C80.5353 6.73492 80.786 6.98025 80.7966 7.30025H80.8286L80.7966 5.33225V3.01225H82.2366V14.2122H80.8286V13.3002C80.8286 13.5882 80.5993 13.8336 80.1406 14.0362C79.682 14.2602 79.0473 14.3722 78.2366 14.3722ZM78.5406 13.3802C79.3406 13.3802 79.9166 13.2896 80.2686 13.1082C80.6206 12.9269 80.7966 12.6176 80.7966 12.1802V8.35625C80.7966 7.66292 80.0873 7.31625 78.6686 7.31625C77.8153 7.31625 77.2606 7.38025 77.0046 7.50825C76.738 7.63625 76.6046 7.91892 76.6046 8.35625V12.1802C76.6046 12.6176 76.7486 12.9269 77.0366 13.1082C77.3353 13.2896 77.8366 13.3802 78.5406 13.3802ZM87.3932 14.3722C85.0252 14.3722 83.8412 13.5829 83.8412 12.0042V8.94825C83.8412 8.00958 84.1079 7.33758 84.6412 6.93225C85.1852 6.51625 86.0599 6.30825 87.2652 6.30825C88.4066 6.30825 89.2279 6.50558 89.7292 6.90025C90.2412 7.29492 90.4972 7.97758 90.4972 8.94825V10.6602H85.2972V11.8282C85.2972 12.3616 85.4839 12.7456 85.8572 12.9802C86.2306 13.2149 86.8066 13.3322 87.5852 13.3322C88.3212 13.3322 89.1906 13.2042 90.1932 12.9482V14.0522C89.2119 14.2656 88.2786 14.3722 87.3932 14.3722ZM89.0572 9.71625V8.50025C89.0572 8.03092 88.9132 7.71092 88.6252 7.54025C88.3479 7.35892 87.8679 7.26825 87.1852 7.26825C86.5239 7.26825 86.0439 7.35892 85.7452 7.54025C85.4466 7.71092 85.2972 8.03092 85.2972 8.50025V9.71625H89.0572ZM94.5797 14.3722C93.7584 14.3722 92.8731 14.3082 91.9237 14.1802V13.0762C93.1717 13.2789 94.0677 13.3802 94.6117 13.3802C95.2944 13.3802 95.7851 13.3162 96.0837 13.1882C96.3824 13.0496 96.5317 12.7989 96.5317 12.4362V11.6522C96.5317 11.3216 96.4197 11.0869 96.1957 10.9482C95.9717 10.8096 95.6091 10.7402 95.1077 10.7402H94.2277C93.4277 10.7402 92.8144 10.5749 92.3877 10.2442C91.9717 9.91358 91.7637 9.44958 91.7637 8.85225V8.13225C91.7637 6.91625 92.9157 6.30825 95.2197 6.30825C95.3904 6.30825 96.1744 6.35092 97.5717 6.43625V7.47625C96.6224 7.32692 95.8171 7.25225 95.1557 7.25225C94.3984 7.25225 93.8811 7.32692 93.6037 7.47625C93.3264 7.62558 93.1877 7.87625 93.1877 8.22825V8.88425C93.1877 9.40692 93.6624 9.66825 94.6117 9.66825H95.5077C97.1397 9.66825 97.9557 10.2762 97.9557 11.4922V12.1642C97.9557 12.9642 97.6784 13.5349 97.1237 13.8762C96.5691 14.2069 95.7211 14.3722 94.5797 14.3722ZM99.4661 3.01225H100.906V14.2122H99.4661V3.01225ZM101.082 9.97225L104.346 6.46825H106.106L102.746 9.97225L106.41 14.2122H104.618L101.082 9.97225ZM42.12 19.8282H45.672L48.232 27.2522L50.76 19.8282H54.104V30.2122H51.848V22.5322H51.8L49.176 30.2122H47.176L44.472 22.5322H44.408V30.2122H42.12V19.8282ZM57.9548 30.3722C57.2294 30.3722 56.6854 30.3082 56.3228 30.1802C55.9708 30.0416 55.7201 29.8016 55.5708 29.4602C55.4321 29.1082 55.3628 28.5856 55.3628 27.8922C55.3628 27.2736 55.4374 26.7882 55.5868 26.4362C55.7468 26.0842 55.9974 25.8336 56.3388 25.6842C56.6908 25.5242 57.1708 25.4442 57.7788 25.4442H60.4028V24.9162C60.4028 24.5856 60.3548 24.3402 60.2588 24.1802C60.1734 24.0202 60.0081 23.9082 59.7628 23.8442C59.5281 23.7802 59.1708 23.7482 58.6908 23.7482C58.0294 23.7482 57.1228 23.8122 55.9708 23.9402V22.4682C56.8134 22.3616 57.8001 22.3082 58.9308 22.3082C59.9228 22.3082 60.6854 22.3829 61.2188 22.5322C61.7628 22.6816 62.1521 22.9376 62.3868 23.3002C62.6214 23.6629 62.7388 24.1909 62.7388 24.8842V30.2122H60.4508V29.5082C60.2694 29.8176 60.0241 30.0362 59.7148 30.1642C59.4054 30.3029 58.8188 30.3722 57.9548 30.3722ZM58.8668 28.9162C59.3361 28.9162 59.6721 28.9002 59.8748 28.8682C60.0241 28.8469 60.1254 28.8149 60.1788 28.7722C60.2428 28.7296 60.2961 28.6602 60.3388 28.5642C60.3814 28.4896 60.4028 28.3776 60.4028 28.2282V26.7242H58.8028C58.4401 26.7242 58.1841 26.7509 58.0348 26.8042C57.8854 26.8469 57.7841 26.9429 57.7308 27.0922C57.6774 27.2309 57.6508 27.4816 57.6508 27.8442C57.6508 28.1962 57.6774 28.4416 57.7308 28.5802C57.7841 28.7189 57.8854 28.8096 58.0348 28.8522C58.1948 28.8949 58.4721 28.9162 58.8668 28.9162ZM66.506 30.1482L63.418 22.4682H65.962L67.706 27.9402L69.29 22.4682H71.706L67.466 33.5402H65.098L66.506 30.1482ZM74.5729 30.3722C73.8475 30.3722 73.3035 30.3082 72.9409 30.1802C72.5889 30.0416 72.3382 29.8016 72.1889 29.4602C72.0502 29.1082 71.9809 28.5856 71.9809 27.8922C71.9809 27.2736 72.0555 26.7882 72.2049 26.4362C72.3649 26.0842 72.6155 25.8336 72.9569 25.6842C73.3089 25.5242 73.7889 25.4442 74.3969 25.4442H77.0209V24.9162C77.0209 24.5856 76.9729 24.3402 76.8769 24.1802C76.7915 24.0202 76.6262 23.9082 76.3809 23.8442C76.1462 23.7802 75.7889 23.7482 75.3089 23.7482C74.6475 23.7482 73.7409 23.8122 72.5889 23.9402V22.4682C73.4315 22.3616 74.4182 22.3082 75.5489 22.3082C76.5409 22.3082 77.3035 22.3829 77.8369 22.5322C78.3809 22.6816 78.7702 22.9376 79.0049 23.3002C79.2395 23.6629 79.3569 24.1909 79.3569 24.8842V30.2122H77.0689V29.5082C76.8875 29.8176 76.6422 30.0362 76.3329 30.1642C76.0235 30.3029 75.4369 30.3722 74.5729 30.3722ZM75.4849 28.9162C75.9542 28.9162 76.2902 28.9002 76.4929 28.8682C76.6422 28.8469 76.7435 28.8149 76.7969 28.7722C76.8609 28.7296 76.9142 28.6602 76.9569 28.5642C76.9995 28.4896 77.0209 28.3776 77.0209 28.2282V26.7242H75.4209C75.0582 26.7242 74.8022 26.7509 74.6529 26.8042C74.5035 26.8469 74.4022 26.9429 74.3489 27.0922C74.2955 27.2309 74.2689 27.4816 74.2689 27.8442C74.2689 28.1962 74.2955 28.4416 74.3489 28.5802C74.4022 28.7189 74.5035 28.8096 74.6529 28.8522C74.8129 28.8949 75.0902 28.9162 75.4849 28.9162Z" fill="#26C2C2"/>
</svg>
