<svg width="121" height="35" viewBox="0 0 121 35" fill="none" xmlns="http://www.w3.org/2000/svg">
<path d="M6.57627 10.7322H11.7763C13.0429 10.7322 14.0429 10.8189 14.7763 10.9922C15.5229 11.1656 16.0629 11.4722 16.3963 11.9122C16.7429 12.3389 16.9163 12.9389 16.9163 13.7122V16.1722C16.9163 17.0256 16.7296 17.6922 16.3563 18.1722C15.9963 18.6522 15.4163 18.9922 14.6163 19.1922C13.8296 19.3922 12.7629 19.4922 11.4163 19.4922H9.69627V23.7122H6.57627V10.7322ZM11.6763 17.3522C12.4896 17.3522 13.0629 17.2589 13.3963 17.0722C13.7296 16.8722 13.8963 16.5389 13.8963 16.0722V13.9922C13.8963 13.5656 13.7363 13.2856 13.4163 13.1522C13.1096 13.0189 12.5163 12.9522 11.6363 12.9522H9.69627V17.3522H11.6763ZM22.0153 23.9122C20.9753 23.9122 19.702 23.8122 18.1953 23.6122V21.6722C20.0487 21.9522 21.3353 22.0922 22.0553 22.0922C22.6687 22.0922 23.122 22.0322 23.4153 21.9122C23.7087 21.7922 23.8553 21.5722 23.8553 21.2522V20.6522C23.8553 20.3189 23.762 20.0856 23.5753 19.9522C23.3887 19.8056 23.022 19.7322 22.4753 19.7322H21.2153C20.1887 19.7322 19.3953 19.5322 18.8353 19.1322C18.2753 18.7189 17.9953 18.1189 17.9953 17.3322V16.1522C17.9953 15.3122 18.3953 14.7189 19.1953 14.3722C19.9953 14.0122 21.202 13.8322 22.8153 13.8322C23.4553 13.8322 24.602 13.8922 26.2553 14.0122V15.8722C24.1753 15.7122 23.002 15.6322 22.7353 15.6322C21.9487 15.6322 21.4353 15.6856 21.1953 15.7922C20.982 15.9122 20.8753 16.1322 20.8753 16.4522V16.9722C20.8753 17.1456 20.962 17.2989 21.1353 17.4322C21.3087 17.5522 21.562 17.6122 21.8953 17.6122H23.1753C25.5487 17.6122 26.7353 18.3856 26.7353 19.9322V21.1522C26.7353 21.6189 26.6487 22.0256 26.4753 22.3722C26.302 22.7189 26.0753 22.9922 25.7953 23.1922C25.5287 23.3789 25.182 23.5256 24.7553 23.6322C24.342 23.7389 23.9087 23.8122 23.4553 23.8522C23.042 23.8922 22.562 23.9122 22.0153 23.9122Z" fill="#0C74D5"/>
<rect x="1.17627" y="1.71225" width="31" height="31" stroke="#0C74D5" stroke-width="2"/>
<path d="M45.5443 4.82825H47.3363L51.3683 15.2122H49.7523L48.5683 12.0602H44.1203L42.9523 15.2122H41.4163L45.5443 4.82825ZM48.1843 10.9882L46.4243 6.30025H46.2803L44.5203 10.9882H48.1843ZM55.1498 15.3722C54.3818 15.3722 53.7791 15.2976 53.3418 15.1482C52.9044 14.9882 52.5844 14.7322 52.3818 14.3802C52.1898 14.0282 52.0938 13.5376 52.0938 12.9082V9.50025C52.0938 8.72158 52.3338 8.16158 52.8138 7.82025C53.3044 7.47892 54.1098 7.30825 55.2298 7.30825C55.9018 7.30825 56.4778 7.39358 56.9578 7.56425C57.4484 7.73492 57.6991 7.98025 57.7098 8.30025H57.7418L57.7098 6.33225V4.01225H59.1498V15.2122H57.7418V14.3002C57.7418 14.5882 57.5124 14.8336 57.0538 15.0362C56.5951 15.2602 55.9604 15.3722 55.1498 15.3722ZM55.4538 14.3802C56.2538 14.3802 56.8298 14.2896 57.1818 14.1082C57.5338 13.9269 57.7098 13.6176 57.7098 13.1802V9.35625C57.7098 8.66292 57.0004 8.31625 55.5818 8.31625C54.7284 8.31625 54.1738 8.38025 53.9178 8.50825C53.6511 8.63625 53.5178 8.91892 53.5178 9.35625V13.1802C53.5178 13.6176 53.6618 13.9269 53.9498 14.1082C54.2484 14.2896 54.7498 14.3802 55.4538 14.3802ZM64.3224 15.3722C63.6397 15.3722 63.1277 15.3456 62.7864 15.2922C62.4451 15.2496 62.1037 15.1482 61.7624 14.9882C61.4104 14.8282 61.1544 14.5722 60.9944 14.2202C60.8344 13.8576 60.7544 13.3722 60.7544 12.7642V10.0762C60.7544 9.59625 60.8131 9.17492 60.9304 8.81225C61.0477 8.44958 61.2024 8.16692 61.3944 7.96425C61.5544 7.78292 61.7944 7.64425 62.1144 7.54825C62.4451 7.44158 62.7811 7.37225 63.1224 7.34025C63.5064 7.31892 63.9064 7.30825 64.3224 7.30825C64.8771 7.30825 65.2931 7.32425 65.5704 7.35625C65.8584 7.37758 66.1624 7.43092 66.4824 7.51625C66.8131 7.61225 67.0691 7.75625 67.2504 7.94825C67.4317 8.14025 67.5864 8.41758 67.7144 8.78025C67.8317 9.15358 67.8904 9.58558 67.8904 10.0762V12.7642C67.8904 13.6709 67.6824 14.3322 67.2664 14.7482C67.0957 14.9189 66.8504 15.0522 66.5304 15.1482C66.2104 15.2442 65.8797 15.3082 65.5384 15.3402C65.1331 15.3616 64.7277 15.3722 64.3224 15.3722ZM64.3224 14.4282C64.7704 14.4282 65.0957 14.4176 65.2984 14.3962C65.5011 14.3749 65.6984 14.3162 65.8904 14.2202C66.0824 14.1349 66.2157 13.9962 66.2904 13.8042C66.3757 13.6016 66.4184 13.3242 66.4184 12.9722V9.83625C66.4184 9.35625 66.3597 9.00958 66.2424 8.79625C66.1251 8.57225 65.9224 8.42825 65.6344 8.36425C65.3571 8.28958 64.9197 8.25225 64.3224 8.25225C63.7251 8.25225 63.2824 8.28958 62.9944 8.36425C62.7171 8.42825 62.5197 8.57225 62.4024 8.79625C62.2851 9.00958 62.2264 9.35625 62.2264 9.83625V12.9722C62.2264 13.3242 62.2637 13.6016 62.3384 13.8042C62.4237 13.9962 62.5624 14.1349 62.7544 14.2202C62.9464 14.3162 63.1437 14.3749 63.3464 14.3962C63.5491 14.4176 63.8744 14.4282 64.3224 14.4282ZM73.1121 15.3722C72.5361 15.3722 72.0721 15.3402 71.7201 15.2762C71.3788 15.2229 71.0375 15.1162 70.6961 14.9562C70.0028 14.6256 69.6561 13.8682 69.6561 12.6842V4.01225H71.0961V6.33225V7.24425C71.0855 7.52158 71.0801 7.83092 71.0801 8.17225C71.1335 7.92692 71.3575 7.71892 71.7521 7.54825C72.1575 7.38825 72.7441 7.30825 73.5121 7.30825C75.6455 7.30825 76.7121 8.03892 76.7121 9.50025V12.6842C76.7121 13.1429 76.6428 13.5429 76.5041 13.8842C76.3761 14.2256 76.2055 14.4922 75.9921 14.6842C75.8001 14.8656 75.5335 15.0096 75.1921 15.1162C74.8615 15.2229 74.5308 15.2922 74.2001 15.3242C73.9015 15.3562 73.5388 15.3722 73.1121 15.3722ZM73.1441 14.4282C73.6988 14.4282 74.1201 14.3909 74.4081 14.3162C74.7068 14.2309 74.9201 14.0816 75.0481 13.8682C75.1761 13.6549 75.2401 13.3296 75.2401 12.8922V9.85225C75.2401 9.41492 75.1761 9.08958 75.0481 8.87625C74.9201 8.65225 74.7068 8.50825 74.4081 8.44425C74.1201 8.36958 73.6935 8.33225 73.1281 8.33225C72.6055 8.33225 72.2001 8.37492 71.9121 8.46025C71.6241 8.54558 71.4161 8.70025 71.2881 8.92425C71.1601 9.13758 71.0961 9.44692 71.0961 9.85225V12.8922C71.0961 13.3296 71.1548 13.6549 71.2721 13.8682C71.4001 14.0816 71.6081 14.2309 71.8961 14.3162C72.1841 14.3909 72.6001 14.4282 73.1441 14.4282ZM81.7058 15.3722C79.3378 15.3722 78.1538 14.5829 78.1538 13.0042V9.94825C78.1538 9.00958 78.4204 8.33758 78.9538 7.93225C79.4978 7.51625 80.3724 7.30825 81.5778 7.30825C82.7191 7.30825 83.5404 7.50558 84.0418 7.90025C84.5538 8.29492 84.8098 8.97758 84.8098 9.94825V11.6602H79.6098V12.8282C79.6098 13.3616 79.7964 13.7456 80.1698 13.9802C80.5431 14.2149 81.1191 14.3322 81.8978 14.3322C82.6338 14.3322 83.5031 14.2042 84.5058 13.9482V15.0522C83.5244 15.2656 82.5911 15.3722 81.7058 15.3722ZM83.3698 10.7162V9.50025C83.3698 9.03092 83.2258 8.71092 82.9378 8.54025C82.6604 8.35892 82.1804 8.26825 81.4978 8.26825C80.8364 8.26825 80.3564 8.35892 80.0578 8.54025C79.7591 8.71092 79.6098 9.03092 79.6098 9.50025V10.7162H83.3698ZM42.2963 20.8282H46.4563C47.4696 20.8282 48.2696 20.8976 48.8563 21.0362C49.4536 21.1749 49.8856 21.4202 50.1523 21.7722C50.4296 22.1136 50.5683 22.5936 50.5683 23.2122V25.1802C50.5683 25.8629 50.4189 26.3962 50.1203 26.7802C49.8323 27.1642 49.3683 27.4362 48.7283 27.5962C48.0989 27.7562 47.2456 27.8362 46.1683 27.8362H44.7923V31.2122H42.2963V20.8282ZM46.3763 26.1242C47.0269 26.1242 47.4856 26.0496 47.7523 25.9002C48.0189 25.7402 48.1523 25.4736 48.1523 25.1002V23.4362C48.1523 23.0949 48.0243 22.8709 47.7683 22.7642C47.5229 22.6576 47.0483 22.6042 46.3443 22.6042H44.7923V26.1242H46.3763ZM51.7515 20.0122H54.0875V24.4122C54.2369 23.6762 55.0529 23.3082 56.5355 23.3082C57.5275 23.3082 58.2209 23.4896 58.6155 23.8522C59.0209 24.2042 59.2235 24.7642 59.2235 25.5322V31.2122H56.8875V25.8042C56.8875 25.5056 56.8555 25.2869 56.7915 25.1482C56.7382 24.9989 56.6262 24.8976 56.4555 24.8442C56.2849 24.7802 56.0129 24.7482 55.6395 24.7482C55.1809 24.7482 54.8449 24.7749 54.6315 24.8282C54.4182 24.8816 54.2742 24.9829 54.1995 25.1322C54.1249 25.2709 54.0875 25.4949 54.0875 25.8042V31.2122H51.7515V20.0122ZM64.4991 31.3722C64.0191 31.3722 63.6245 31.3562 63.3151 31.3242C63.0058 31.2922 62.6751 31.2282 62.3231 31.1322C61.9391 31.0256 61.6298 30.8762 61.3951 30.6842C61.1605 30.4816 60.9631 30.1989 60.8031 29.8362C60.6431 29.4842 60.5631 29.0576 60.5631 28.5562V26.2682C60.5631 25.7562 60.6431 25.3082 60.8031 24.9242C60.9631 24.5402 61.1711 24.2416 61.4271 24.0282C61.6511 23.8469 61.9445 23.6976 62.3071 23.5802C62.6805 23.4522 63.0431 23.3722 63.3951 23.3402C63.8005 23.3189 64.1685 23.3082 64.4991 23.3082C64.9898 23.3082 65.3791 23.3242 65.6671 23.3562C65.9658 23.3776 66.2911 23.4416 66.6431 23.5482C67.0271 23.6656 67.3365 23.8256 67.5711 24.0282C67.8165 24.2309 68.0245 24.5189 68.1951 24.8922C68.3551 25.2762 68.4351 25.7349 68.4351 26.2682V28.5562C68.4351 29.0362 68.3551 29.4576 68.1951 29.8202C68.0458 30.1829 67.8485 30.4656 67.6031 30.6682C67.3898 30.8496 67.0965 30.9989 66.7231 31.1162C66.3605 31.2229 66.0031 31.2922 65.6511 31.3242C65.3311 31.3562 64.9471 31.3722 64.4991 31.3722ZM64.4991 29.9162C64.9365 29.9162 65.2671 29.8842 65.4911 29.8202C65.7151 29.7456 65.8698 29.6336 65.9551 29.4842C66.0511 29.3349 66.0991 29.1162 66.0991 28.8282V25.9002C66.0991 25.4736 65.9871 25.1749 65.7631 25.0042C65.5391 24.8336 65.1178 24.7482 64.4991 24.7482C63.8805 24.7482 63.4591 24.8336 63.2351 25.0042C63.0111 25.1749 62.8991 25.4736 62.8991 25.9002V28.8282C62.8991 29.1162 62.9418 29.3349 63.0271 29.4842C63.1231 29.6336 63.2831 29.7456 63.5071 29.8202C63.7311 29.8842 64.0618 29.9162 64.4991 29.9162ZM73.6479 31.3722C73.2532 31.3722 72.9226 31.3562 72.6559 31.3242C72.3892 31.2922 72.1226 31.2282 71.8559 31.1322C71.5572 31.0362 71.3119 30.9029 71.1199 30.7322C70.9386 30.5616 70.7892 30.3269 70.6719 30.0282C70.5439 29.7189 70.4799 29.3616 70.4799 28.9562V24.9082H68.9119V23.4682H70.4799V21.2282H72.8159V23.4682H74.9439V24.9082H72.8159V28.5562C72.8159 28.9296 72.8479 29.2122 72.9119 29.4042C72.9759 29.5856 73.0986 29.7189 73.2799 29.8042C73.4612 29.8789 73.7386 29.9162 74.1119 29.9162C74.2612 29.9162 74.5386 29.8896 74.9439 29.8362V31.2922C74.4426 31.3456 74.0106 31.3722 73.6479 31.3722ZM79.5235 31.3722C79.0435 31.3722 78.6489 31.3562 78.3395 31.3242C78.0302 31.2922 77.6995 31.2282 77.3475 31.1322C76.9635 31.0256 76.6542 30.8762 76.4195 30.6842C76.1849 30.4816 75.9875 30.1989 75.8275 29.8362C75.6675 29.4842 75.5875 29.0576 75.5875 28.5562V26.2682C75.5875 25.7562 75.6675 25.3082 75.8275 24.9242C75.9875 24.5402 76.1955 24.2416 76.4515 24.0282C76.6755 23.8469 76.9689 23.6976 77.3315 23.5802C77.7049 23.4522 78.0675 23.3722 78.4195 23.3402C78.8249 23.3189 79.1929 23.3082 79.5235 23.3082C80.0142 23.3082 80.4035 23.3242 80.6915 23.3562C80.9902 23.3776 81.3155 23.4416 81.6675 23.5482C82.0515 23.6656 82.3609 23.8256 82.5955 24.0282C82.8409 24.2309 83.0489 24.5189 83.2195 24.8922C83.3795 25.2762 83.4595 25.7349 83.4595 26.2682V28.5562C83.4595 29.0362 83.3795 29.4576 83.2195 29.8202C83.0702 30.1829 82.8729 30.4656 82.6275 30.6682C82.4142 30.8496 82.1209 30.9989 81.7475 31.1162C81.3849 31.2229 81.0275 31.2922 80.6755 31.3242C80.3555 31.3562 79.9715 31.3722 79.5235 31.3722ZM79.5235 29.9162C79.9609 29.9162 80.2915 29.8842 80.5155 29.8202C80.7395 29.7456 80.8942 29.6336 80.9795 29.4842C81.0755 29.3349 81.1235 29.1162 81.1235 28.8282V25.9002C81.1235 25.4736 81.0115 25.1749 80.7875 25.0042C80.5635 24.8336 80.1422 24.7482 79.5235 24.7482C78.9049 24.7482 78.4835 24.8336 78.2595 25.0042C78.0355 25.1749 77.9235 25.4736 77.9235 25.9002V28.8282C77.9235 29.1162 77.9662 29.3349 78.0515 29.4842C78.1475 29.6336 78.3075 29.7456 78.5315 29.8202C78.7555 29.8842 79.0862 29.9162 79.5235 29.9162ZM87.6963 31.3722C86.8643 31.3722 85.8456 31.2922 84.6403 31.1322V29.5802C86.1229 29.8042 87.1523 29.9162 87.7283 29.9162C88.2189 29.9162 88.5816 29.8682 88.8163 29.7722C89.0509 29.6762 89.1683 29.5002 89.1683 29.2442V28.7642C89.1683 28.4976 89.0936 28.3109 88.9443 28.2042C88.7949 28.0869 88.5016 28.0282 88.0643 28.0282H87.0563C86.2349 28.0282 85.6003 27.8682 85.1523 27.5482C84.7043 27.2176 84.4803 26.7376 84.4803 26.1082V25.1642C84.4803 24.4922 84.8003 24.0176 85.4403 23.7402C86.0803 23.4522 87.0456 23.3082 88.3363 23.3082C88.8483 23.3082 89.7656 23.3562 91.0883 23.4522V24.9402C89.4243 24.8122 88.4856 24.7482 88.2723 24.7482C87.6429 24.7482 87.2323 24.7909 87.0403 24.8762C86.8696 24.9722 86.7843 25.1482 86.7843 25.4042V25.8202C86.7843 25.9589 86.8536 26.0816 86.9923 26.1882C87.1309 26.2842 87.3336 26.3322 87.6003 26.3322H88.6243C90.5229 26.3322 91.4723 26.9509 91.4723 28.1882V29.1642C91.4723 29.5376 91.4029 29.8629 91.2643 30.1402C91.1256 30.4176 90.9443 30.6362 90.7203 30.7962C90.5069 30.9456 90.2296 31.0629 89.8883 31.1482C89.5576 31.2336 89.2109 31.2922 88.8483 31.3242C88.5176 31.3562 88.1336 31.3722 87.6963 31.3722ZM92.7265 20.0122H95.0625V24.4122C95.2119 23.6762 96.0279 23.3082 97.5105 23.3082C98.5025 23.3082 99.1959 23.4896 99.5905 23.8522C99.9959 24.2042 100.199 24.7642 100.199 25.5322V31.2122H97.8625V25.8042C97.8625 25.5056 97.8305 25.2869 97.7665 25.1482C97.7132 24.9989 97.6012 24.8976 97.4305 24.8442C97.2599 24.7802 96.9879 24.7482 96.6145 24.7482C96.1559 24.7482 95.8199 24.7749 95.6065 24.8282C95.3932 24.8816 95.2492 24.9829 95.1745 25.1322C95.0999 25.2709 95.0625 25.4949 95.0625 25.8042V31.2122H92.7265V20.0122ZM105.474 31.3722C104.994 31.3722 104.599 31.3562 104.29 31.3242C103.981 31.2922 103.65 31.2282 103.298 31.1322C102.914 31.0256 102.605 30.8762 102.37 30.6842C102.135 30.4816 101.938 30.1989 101.778 29.8362C101.618 29.4842 101.538 29.0576 101.538 28.5562V26.2682C101.538 25.7562 101.618 25.3082 101.778 24.9242C101.938 24.5402 102.146 24.2416 102.402 24.0282C102.626 23.8469 102.919 23.6976 103.282 23.5802C103.655 23.4522 104.018 23.3722 104.37 23.3402C104.775 23.3189 105.143 23.3082 105.474 23.3082C105.965 23.3082 106.354 23.3242 106.642 23.3562C106.941 23.3776 107.266 23.4416 107.618 23.5482C108.002 23.6656 108.311 23.8256 108.546 24.0282C108.791 24.2309 108.999 24.5189 109.17 24.8922C109.33 25.2762 109.41 25.7349 109.41 26.2682V28.5562C109.41 29.0362 109.33 29.4576 109.17 29.8202C109.021 30.1829 108.823 30.4656 108.578 30.6682C108.365 30.8496 108.071 30.9989 107.698 31.1162C107.335 31.2229 106.978 31.2922 106.626 31.3242C106.306 31.3562 105.922 31.3722 105.474 31.3722ZM105.474 29.9162C105.911 29.9162 106.242 29.8842 106.466 29.8202C106.69 29.7456 106.845 29.6336 106.93 29.4842C107.026 29.3349 107.074 29.1162 107.074 28.8282V25.9002C107.074 25.4736 106.962 25.1749 106.738 25.0042C106.514 24.8336 106.093 24.7482 105.474 24.7482C104.855 24.7482 104.434 24.8336 104.21 25.0042C103.986 25.1749 103.874 25.4736 103.874 25.9002V28.8282C103.874 29.1162 103.917 29.3349 104.002 29.4842C104.098 29.6336 104.258 29.7456 104.482 29.8202C104.706 29.8842 105.037 29.9162 105.474 29.9162ZM110.751 23.4682H112.959V24.2362C113.098 23.8949 113.37 23.6549 113.775 23.5162C114.18 23.3776 114.783 23.3082 115.583 23.3082C116.255 23.3082 116.794 23.3616 117.199 23.4682C117.615 23.5749 117.93 23.7456 118.143 23.9802C118.346 24.2149 118.484 24.4762 118.559 24.7642C118.634 25.0416 118.671 25.4256 118.671 25.9162V28.4602C118.671 29.2282 118.559 29.8202 118.335 30.2362C118.111 30.6522 117.764 30.9456 117.295 31.1162C116.836 31.2869 116.207 31.3722 115.407 31.3722C114.639 31.3722 114.084 31.3082 113.743 31.1802C113.402 31.0522 113.183 30.8016 113.087 30.4282V34.5402H110.751V23.4682ZM114.687 29.9162C115.146 29.9162 115.492 29.8842 115.727 29.8202C115.962 29.7562 116.122 29.6442 116.207 29.4842C116.292 29.3242 116.335 29.0842 116.335 28.7642V25.9002C116.335 25.5482 116.298 25.2976 116.223 25.1482C116.148 24.9882 115.999 24.8816 115.775 24.8282C115.551 24.7749 115.183 24.7482 114.671 24.7482C114.234 24.7482 113.898 24.7856 113.663 24.8602C113.439 24.9349 113.284 25.0522 113.199 25.2122C113.124 25.3722 113.087 25.6016 113.087 25.9002V28.7642C113.087 29.0842 113.124 29.3242 113.199 29.4842C113.284 29.6442 113.439 29.7562 113.663 29.8202C113.887 29.8842 114.228 29.9162 114.687 29.9162Z" fill="#0C74D5"/>
</svg>
