<svg width="603" height="555" viewBox="0 0 603 555" fill="none" xmlns="http://www.w3.org/2000/svg">
<path d="M142.495 10.9035C174.112 -7.20407 215.3 0.016571 240.633 28.1222C257.745 47.1187 267.318 73.3358 283.368 93.4424C313.438 131.101 366.519 141.099 405.483 116.549C451.621 87.3825 479.799 10.7567 536.398 8.23798C568.014 6.79337 598.47 36.3436 602.531 72.335C606.592 108.438 583.774 145.875 552.834 153.762C507.298 165.675 495.505 190.345 539.587 243.077C562.136 269.778 577.255 299.611 553.414 335.614C531.638 367.949 483.791 379.939 442.901 351.167C375.2 303.327 432.617 307.96 378.217 396.712C326.938 481.182 269.521 421.7 233.573 417.042C199.927 412.486 166.763 436.704 133.309 430.373C81.5024 420.533 61.2124 346.204 99.0831 304.175C123.351 277.181 162.122 275.626 189.099 252.519C211.012 233.703 207.666 209.93 186.488 201.197C51.8521 145.66 91.491 40.3839 142.495 10.9035Z" fill="white"/>
<path d="M497.047 484.797C524.453 484.28 535.652 449.139 501.478 420.138C464.129 388.442 436.403 412.036 436.729 434.44C437.023 454.572 463.178 485.436 497.047 484.797Z" fill="white"/>
<g clip-path="url(#clip0_9989_1573)">
<path d="M378.43 221.282C375.043 238.911 383.609 258.651 400.498 267.073C409.706 271.666 420.441 272.763 430.004 276.653C439.566 280.543 448.552 289.047 447.003 298.669C445.985 305.062 439.676 319.009 458.734 330.513C474.472 339.99 464.091 377.338 409.086 385.656C392.242 388.202 404.615 377.421 388.346 372.579C372.276 367.8 358.796 356.916 349.345 343.88C339.893 330.824 334.182 315.698 330.331 300.365C325.904 282.695 323.912 263.617 331.283 246.815C338.653 230.034 357.734 216.688 378.43 221.282Z" fill="#ACD4F7"/>
<path d="M404.792 387.126C399.546 387.126 398.329 384.932 397.244 381.787C396.27 378.952 395.163 375.745 387.992 373.635C372.785 369.124 358.73 358.778 348.371 344.501C339.959 332.913 333.695 318.553 329.18 300.614C323.513 278.081 323.845 260.865 330.198 246.402C337.37 230.076 356.782 215.343 378.673 220.227C379.271 220.351 379.647 220.91 379.536 221.468C376.083 239.408 385.114 258.196 401.007 266.121C406.032 268.625 411.654 270.114 417.121 271.542C421.548 272.701 426.13 273.922 430.424 275.66C440.097 279.591 449.77 288.53 448.11 298.834C447.977 299.662 447.756 300.634 447.534 301.648C445.852 308.932 443.329 319.961 459.332 329.603C465.242 333.162 467.765 340.445 465.95 348.618C462.785 362.73 446.051 381.166 409.241 386.732C407.515 387.001 406.032 387.126 404.792 387.126ZM370.151 221.468C352.886 221.468 338.277 233.8 332.367 247.25C326.214 261.258 325.926 278.081 331.46 300.138C335.887 317.809 342.062 331.92 350.296 343.301C360.345 357.164 373.98 367.2 388.7 371.586C397.023 374.048 398.417 378.166 399.458 381.146C400.498 384.146 401.051 385.801 408.909 384.622C444.546 379.242 460.704 361.633 463.715 348.205C465.331 340.942 463.206 334.527 458.115 331.465C440.761 321.016 443.594 308.621 445.299 301.235C445.542 300.221 445.741 299.331 445.852 298.565C447.313 289.378 438.415 281.308 429.539 277.687C425.377 275.991 420.884 274.811 416.523 273.653C410.945 272.183 405.19 270.673 399.945 268.045C383.498 259.831 374.003 240.649 377.101 222.13C374.755 221.675 372.431 221.468 370.151 221.468Z" fill="#ACD4F7"/>
<path d="M312.247 178.657C317.824 204.087 287.301 240.132 276.167 263.907C272.537 271.646 267.291 278.681 264.303 286.647C260.761 296.124 260.65 306.408 261.624 316.402C263.462 335.293 269.527 354.66 283.715 368.193C297.925 381.725 321.676 387.622 339.207 378.083C354.59 369.703 361.607 351.702 360.633 335.086C359.659 318.471 352.089 302.89 344.076 288.013C324.863 252.32 338.366 209.446 312.247 178.657Z" fill="#ACD4F7"/>
<path d="M319.861 383.794C306.824 383.794 293.012 378.58 282.896 368.938C270.213 356.854 262.665 339.204 260.474 316.484C259.278 304.09 260.142 294.489 263.218 286.274C264.967 281.577 267.535 277.149 270.014 272.866C271.784 269.825 273.599 266.659 275.105 263.472C278.314 256.603 283.117 248.76 288.186 240.463C300.759 219.916 314.991 196.617 311.096 178.864C310.985 178.367 311.251 177.871 311.738 177.664C312.225 177.457 312.8 177.581 313.132 177.974C327.719 195.148 330.065 215.53 332.566 237.111C334.536 254.078 336.551 271.645 345.117 287.516C353.019 302.166 360.788 317.912 361.784 335.003C362.869 353.853 354.236 371.11 339.782 378.994C333.872 382.242 326.988 383.794 319.861 383.794ZM313.995 182.692C315.301 200.528 302.02 222.234 290.223 241.56C285.176 249.816 280.417 257.596 277.252 264.362C275.702 267.652 273.865 270.838 272.072 273.922C269.637 278.122 267.114 282.467 265.432 287.019C262.466 294.944 261.647 304.235 262.82 316.319C264.967 338.521 272.294 355.736 284.6 367.448C299.519 381.663 322.761 385.822 338.676 377.152C352.399 369.683 360.589 353.191 359.526 335.148C358.553 318.471 350.872 302.973 343.103 288.509C334.359 272.266 332.301 254.513 330.331 237.359C327.984 217.495 325.815 198.687 313.995 182.692Z" fill="#151924"/>
<path d="M349.61 309.718C349.101 296.165 349.344 282.799 349.942 272.66C344.098 269.928 337.768 268.004 331.304 267.032C328.405 266.597 325.129 266.431 322.893 268.066C321.499 269.101 314.858 263.617 314.172 265.128C309.457 275.474 304.632 300.407 299.917 310.753C299.563 311.539 277.362 314.395 277.008 315.181C275.481 318.554 286.814 332.169 287.943 332.872C348.481 370.49 381.13 314.146 381.13 314.146C381.13 314.146 366.654 312.76 349.61 309.718Z" fill="white"/>
<path d="M328.073 346.922C315.014 346.922 301.356 342.535 287.301 333.783C286.526 333.286 273.976 319.071 275.924 314.767C276.278 313.96 276.344 313.815 288.275 311.891C292.259 311.249 297.616 310.38 298.988 309.967C301.268 304.814 303.614 296.103 305.894 287.661C308.24 278.95 310.675 269.949 313.066 264.693C313.243 264.3 313.597 263.99 314.04 263.866C315.146 263.514 316.541 264.238 318.887 265.521C319.927 266.1 321.654 267.031 322.296 267.114C324.952 265.273 328.582 265.542 331.46 265.976C338.056 266.969 344.453 268.894 350.429 271.708C350.85 271.894 351.093 272.308 351.071 272.742C350.429 283.833 350.296 296.931 350.717 308.849C367.119 311.746 381.108 313.112 381.241 313.112C381.617 313.153 381.971 313.36 382.148 313.691C382.325 314.001 382.325 314.395 382.148 314.705C382.015 314.953 367.65 339.266 340.889 345.473C336.706 346.425 332.411 346.922 328.073 346.922ZM277.982 315.946C277.717 319.029 286.991 330.782 288.607 332.003C306.757 343.28 324.155 347.108 340.314 343.363C362.382 338.252 375.751 320.25 379.204 315.057C374.799 314.581 362.802 313.194 349.367 310.794C348.835 310.691 348.437 310.277 348.437 309.76C347.994 297.82 348.105 284.578 348.725 273.301C343.147 270.777 337.237 269.018 331.105 268.087C328.626 267.714 325.55 267.466 323.602 268.894C322.296 269.845 320.282 268.749 317.736 267.362C316.895 266.907 315.678 266.245 315.014 265.997C312.756 271.17 310.432 279.798 308.152 288.178C305.805 296.889 303.371 305.911 300.958 311.146C300.604 311.953 300.537 312.077 288.651 314.001C284.755 314.664 279.487 315.512 277.982 315.946Z" fill="#151924"/>
<path d="M293.809 178.078C290.51 190.369 287.854 203.55 279.709 213.978C275.26 219.668 261.78 251.947 285.552 271.356C298.036 281.557 315.169 286.751 333.762 283.792C346.379 281.785 366.322 268.439 371.391 249.754C378.894 255.051 389.453 252.816 392.552 245.781C394.344 241.726 391.688 234.835 386.509 233.18C382.502 231.897 382.015 231.773 378.12 232.787C379.603 223.682 381.971 214.744 386.199 205.205C380.798 191.817 367.606 181.099 353.174 173.278C348.393 170.691 343.39 168.332 337.989 167.029C322.495 163.284 297.173 165.456 293.809 178.078Z" fill="white"/>
<path d="M323.314 285.716C309.059 285.716 295.646 281.061 284.778 272.184C260.961 252.734 273.312 220.31 278.757 213.357C285.774 204.377 288.673 193.183 291.484 182.361C291.883 180.851 292.259 179.34 292.657 177.851C293.609 174.292 296.155 171.333 300.25 169.077C310.21 163.532 327.254 163.366 338.211 166.015C344.187 167.463 349.632 170.174 353.705 172.388C365.636 178.864 381.152 189.748 387.239 204.874C387.35 205.122 387.328 205.412 387.217 205.681C383.609 213.813 381.13 222.006 379.492 231.38C382.192 230.8 383.255 231.069 386.841 232.207C389.408 233.035 391.666 235.084 392.994 237.836C394.389 240.691 394.61 243.919 393.592 246.236C392.087 249.671 388.855 252.237 384.716 253.292C380.488 254.368 375.862 253.706 372.033 251.534C366.123 270.301 346.334 282.923 333.917 284.888C330.375 285.426 326.811 285.716 323.314 285.716ZM323.026 166.47C315.191 166.47 307.111 167.774 301.467 170.919C297.926 172.884 295.734 175.388 294.937 178.368C294.539 179.858 294.141 181.368 293.764 182.858C290.909 193.887 287.943 205.288 280.66 214.62C277.606 218.53 262.178 250.809 286.327 270.549C299.342 281.185 316.12 285.509 333.585 282.737C345.405 280.854 365.282 267.942 370.284 249.485C370.373 249.133 370.66 248.844 371.014 248.719C371.391 248.595 371.789 248.657 372.099 248.885C375.574 251.347 380.09 252.196 384.162 251.161C387.593 250.292 390.25 248.181 391.489 245.367C392.286 243.567 392.065 241.001 390.936 238.684C389.851 236.47 388.102 234.835 386.132 234.215C382.237 232.973 382.015 232.911 378.43 233.842C378.053 233.946 377.633 233.863 377.345 233.615C377.057 233.366 376.902 232.994 376.969 232.642C378.629 222.565 381.152 213.833 384.937 205.205C378.983 190.886 364.086 180.478 352.576 174.229C348.636 172.098 343.368 169.47 337.68 168.084C333.43 167.049 328.294 166.47 323.026 166.47Z" fill="#151924"/>
<path d="M340.756 248.885C339.295 248.885 337.812 248.719 336.374 248.368C326.037 245.905 319.972 235.249 322.849 224.593C324.244 219.461 327.498 215.075 332.013 212.261C336.551 209.426 341.841 208.536 346.865 209.716C351.89 210.916 356.074 214.061 358.619 218.572C361.142 223.041 361.762 228.338 360.368 233.49C358.973 238.622 355.719 243.008 351.226 245.823C347.972 247.83 344.386 248.885 340.756 248.885ZM342.483 211.392C339.318 211.392 336.152 212.302 333.297 214.082C329.268 216.585 326.369 220.517 325.107 225.131C322.539 234.628 327.83 244.105 336.949 246.257C341.332 247.292 345.958 246.505 349.942 244.022C353.971 241.519 356.87 237.587 358.132 232.973C359.394 228.359 358.84 223.6 356.583 219.606C354.347 215.633 350.695 212.881 346.312 211.847C345.028 211.536 343.744 211.392 342.483 211.392Z" fill="#151924"/>
<path d="M289.846 232.518C288.385 232.518 286.902 232.352 285.464 232C280.439 230.8 276.256 227.655 273.71 223.144C271.187 218.675 270.567 213.378 271.961 208.226C273.356 203.094 276.61 198.708 281.103 195.893C285.641 193.059 290.931 192.169 295.955 193.348C306.292 195.811 312.357 206.467 309.48 217.123C308.085 222.255 304.831 226.641 300.338 229.455C297.084 231.483 293.476 232.518 289.846 232.518ZM291.573 195.024C288.407 195.024 285.242 195.935 282.387 197.714C278.358 200.218 275.459 204.149 274.197 208.764C272.935 213.378 273.489 218.137 275.746 222.131C277.982 226.103 281.634 228.855 286.017 229.89C290.4 230.924 295.026 230.138 299.01 227.655C303.039 225.152 305.938 221.22 307.2 216.606C309.768 207.108 304.477 197.632 295.358 195.48C294.118 195.169 292.857 195.024 291.573 195.024Z" fill="#151924"/>
<path d="M424.352 157.942C433.329 142.395 427.124 122.988 410.493 114.596C393.861 106.204 373.101 112.005 364.124 127.552C355.147 143.099 361.352 162.506 377.983 170.898C394.615 179.289 415.375 173.489 424.352 157.942Z" fill="#ACD4F7"/>
<path d="M394.322 175.843C393.348 175.843 392.352 175.802 391.356 175.74C371.922 174.25 357.401 158.256 358.995 140.068C359.77 131.274 364.175 123.266 371.368 117.555C378.584 111.844 387.726 109.092 397.155 109.816C406.563 110.541 415.129 114.658 421.238 121.383C427.347 128.129 430.291 136.674 429.516 145.489C428.742 154.283 424.337 162.29 417.143 168.001C410.702 173.091 402.689 175.843 394.322 175.843ZM394.211 111.865C386.398 111.865 378.916 114.431 372.896 119.21C366.167 124.549 362.05 132.019 361.341 140.254C359.858 157.242 373.405 172.181 391.577 173.588C400.365 174.271 408.931 171.705 415.66 166.367C422.389 161.028 426.506 153.559 427.214 145.323C427.945 137.088 425.2 129.101 419.489 122.811C413.779 116.52 405.788 112.672 396.978 112.01C396.049 111.906 395.119 111.865 394.211 111.865Z" fill="#151924"/>
<path d="M376.482 233.615C373.361 218.923 372.01 208.66 375.375 193.431C338.587 198.894 309.192 190.99 281.103 179.402C282.431 174.643 287.699 164.98 291.528 161.421C300.936 152.71 310.985 145.861 331.26 145.034C345.471 144.454 363.134 147.123 375.463 153.724C387.704 160.283 396.093 170.981 401.848 182.216C406.43 191.155 408.178 203.715 406.009 214.661C404.172 224.055 399.17 229.621 391.223 236.946C389.386 234.897 387.682 232.89 384.76 232.373C381.86 231.876 379.558 232.518 376.482 233.615Z" fill="#ACD4F7"/>
<path d="M391.245 238.042C391.223 238.042 391.201 238.042 391.201 238.042C390.869 238.021 390.581 237.897 390.36 237.649L390.139 237.401C388.434 235.518 386.973 233.883 384.583 233.449C382.104 233.014 380.134 233.469 376.902 234.607C376.592 234.711 376.238 234.69 375.928 234.545C375.64 234.4 375.419 234.111 375.353 233.8C372.564 220.578 370.815 209.943 373.936 194.714C335.4 200.052 305.186 190.493 280.638 180.375C280.129 180.168 279.841 179.63 279.974 179.112C281.369 174.105 286.814 164.235 290.71 160.635C299.32 152.668 309.524 144.826 331.194 143.937C343.944 143.419 362.404 145.468 376.017 152.751C387.018 158.648 396.049 168.394 402.866 181.719C407.669 191.113 409.307 203.797 407.138 214.847C405.146 224.944 399.369 230.924 392.042 237.711C391.843 237.939 391.555 238.042 391.245 238.042ZM382.768 231.131C383.476 231.131 384.229 231.193 385.003 231.338C387.881 231.835 389.674 233.573 391.334 235.373C399.17 228.027 403.242 222.875 404.903 214.495C406.961 204.046 405.367 191.569 400.83 182.713C394.234 169.78 385.513 160.366 374.932 154.696C361.74 147.64 343.766 145.654 331.349 146.151C310.498 146.999 300.67 154.551 292.392 162.228C289.005 165.352 284.18 173.939 282.542 178.823C306.956 188.796 337.015 198.066 375.242 192.376C375.618 192.314 375.995 192.438 376.26 192.707C376.526 192.955 376.637 193.327 376.548 193.679C373.184 208.846 374.711 219.358 377.389 232.186C379.182 231.566 380.886 231.131 382.768 231.131Z" fill="#151924"/>
<path d="M319.064 263.1C314.748 263.1 311.14 261.32 309.391 258.341C309.081 257.823 309.303 257.161 309.856 256.872C310.409 256.582 311.118 256.789 311.428 257.306C312.8 259.644 315.766 261.01 319.308 260.948C323.292 260.886 327.21 259.334 330.286 256.603C330.751 256.189 331.482 256.209 331.924 256.644C332.367 257.078 332.345 257.761 331.88 258.175C328.361 261.279 323.912 263.017 319.352 263.1C319.241 263.1 319.153 263.1 319.064 263.1Z" fill="#151924"/>
<path d="M340.424 229.538C340.845 228.007 339.782 226.434 338.033 226.02C336.307 225.606 334.558 226.517 334.138 228.048C333.717 229.579 334.78 231.152 336.528 231.566C338.277 231.979 340.026 231.069 340.424 229.538Z" fill="#151924"/>
<path d="M294.982 215.24C295.402 213.709 294.34 212.136 292.591 211.722C290.865 211.309 289.116 212.219 288.695 213.75C288.275 215.281 289.337 216.854 291.086 217.268C292.835 217.682 294.561 216.771 294.982 215.24Z" fill="#151924"/>
<path d="M304.898 238.539C304.61 238.539 304.345 238.435 304.123 238.249L300.67 235.311C300.25 234.938 299.453 234.276 299.475 233.262C299.497 232.042 300.626 231.379 301.224 231.028C305.894 228.317 309.015 223.724 309.568 218.758C309.635 218.158 310.21 217.744 310.83 217.785C311.472 217.847 311.937 218.385 311.871 218.964C311.251 224.613 307.709 229.807 302.441 232.869C302.308 232.952 301.932 233.159 301.799 233.304C301.843 233.345 301.954 233.469 302.22 233.697L305.673 236.635C306.138 237.049 306.182 237.732 305.739 238.166C305.54 238.415 305.23 238.539 304.898 238.539Z" fill="#151924"/>
<path d="M326.214 218.426C325.793 218.426 325.395 218.22 325.173 217.847C323.314 214.516 319.463 212.033 315.345 211.536C313.265 211.288 310.852 211.784 310.277 213.233C310.055 213.792 309.391 214.081 308.794 213.874C308.196 213.667 307.886 213.047 308.107 212.488C309.17 209.86 312.667 209.032 315.633 209.405C320.481 209.984 325.041 212.922 327.232 216.875C327.52 217.413 327.298 218.054 326.745 218.344C326.59 218.385 326.391 218.426 326.214 218.426Z" fill="#151924"/>
<path d="M375.486 233.304C375.353 233.304 375.198 233.283 375.065 233.221L360.323 227.8C359.726 227.572 359.438 226.952 359.659 226.393C359.903 225.834 360.567 225.565 361.165 225.772L375.906 231.193C376.504 231.421 376.792 232.042 376.57 232.6C376.393 233.056 375.951 233.304 375.486 233.304Z" fill="#151924"/>
<path d="M374.113 243.857C373.958 243.857 373.826 243.836 373.671 243.774C373.073 243.546 372.785 242.905 373.029 242.367C374.49 239.015 375.22 235.352 375.109 231.752C375.087 231.152 375.596 230.655 376.238 230.635C376.858 230.635 377.411 231.09 377.434 231.69C377.522 235.601 376.747 239.574 375.176 243.174C375.021 243.608 374.578 243.857 374.113 243.857Z" fill="#151924"/>
<path d="M404.703 428.509C419.025 420.729 442.797 393.106 436.29 370.717C432.815 358.799 426.705 315.864 359.748 311.85C358.398 331.796 337.591 340.818 324.288 342.287C317.05 343.094 289.78 342.329 289.78 312.719C271.718 313.65 248.897 316.257 213.791 329.334C187.185 339.245 141.809 345.784 141.809 345.784C141.809 345.784 95.9461 290.93 79.4778 268.439C70.4468 256.086 54.1114 307.277 44.018 285.654C42.4907 282.385 91.01 373.076 94.95 379.946C115.557 415.805 210.693 393.106 229.086 393.106C227.294 418.081 238.693 432.855 247.99 440.428C250.845 498.095 235.771 538.01 235.771 538.01C235.771 538.01 320.149 567.309 407.492 543.182C414.177 541.382 390.759 490.895 404.703 428.509Z" fill="white"/>
<path d="M333.695 553.797C316.651 553.797 301.29 552.452 288.695 550.756C256.932 546.472 235.572 539.127 235.351 539.065C234.753 538.858 234.443 538.237 234.664 537.678C234.819 537.285 249.561 497.495 246.839 440.986C238.892 434.386 226.408 419.819 227.847 394.265C223.995 394.43 217.665 395.278 209.874 396.334C175.233 401.031 110.732 409.763 93.9097 380.505C91.8733 376.966 78.4154 351.95 65.4002 327.741C56.7234 311.601 47.8031 295.007 44.3943 288.758C43.8852 288.013 43.3983 287.144 42.9334 286.151C42.535 285.323 43.1105 284.806 43.4647 284.64C44.4829 284.185 44.9034 284.951 45.5011 286.006C45.7224 286.42 46.0323 286.978 46.4086 287.661C47.4268 289.11 48.5114 289.896 49.6403 289.999C53.4253 290.351 58.472 283.585 62.9211 277.626C67.7907 271.108 71.9963 265.459 76.2241 265.459H76.2462C77.8399 265.459 79.2565 266.287 80.4297 267.88C95.8576 288.944 137.648 339.101 142.296 344.667C148.029 343.798 188.912 337.466 213.349 328.362C248.388 315.326 271.607 312.615 289.714 311.684C290.023 311.663 290.333 311.767 290.577 311.974C290.798 312.181 290.931 312.47 290.931 312.76C290.931 322.465 293.919 329.851 299.829 334.755C307.532 341.149 318.732 341.832 324.155 341.232C335.466 339.97 357.202 332.19 358.575 311.788C358.597 311.498 358.73 311.229 358.973 311.043C359.194 310.856 359.504 310.753 359.814 310.774C422.898 314.56 432.859 353.026 436.622 367.51C436.909 368.628 437.175 369.6 437.396 370.428C444.081 393.395 420.22 421.019 405.722 429.192C396.757 469.83 403.818 506.02 407.625 525.512C410.016 537.761 411.1 543.348 407.802 544.258C381.949 551.418 356.339 553.797 333.695 553.797ZM237.21 537.389C241.858 538.899 261.514 544.92 289.094 548.624C318.179 552.535 362.249 554.584 407.16 542.189C407.16 542.189 407.802 541.858 407.47 538.278C407.205 535.34 406.386 531.181 405.345 525.905C401.494 506.206 394.344 469.52 403.575 428.282C403.641 427.971 403.84 427.723 404.128 427.557C418.582 419.695 441.358 392.257 435.183 370.986C434.939 370.138 434.674 369.145 434.386 368.007C430.424 352.716 421.194 317.064 360.832 313.008C358.685 334.01 336.219 342.059 324.465 343.363C322.871 343.549 308.594 344.853 298.324 336.349C292.148 331.217 288.895 323.665 288.651 313.877C270.921 314.85 248.189 317.705 214.234 330.348C187.805 340.177 142.451 346.798 142.008 346.881C141.588 346.943 141.167 346.777 140.924 346.467C140.459 345.908 94.8394 291.324 78.5482 269.059C77.4636 267.59 76.5782 267.59 76.2683 267.59C73.258 267.59 68.8089 273.57 64.8689 278.826C59.5787 285.902 54.5984 292.586 49.441 292.131C49.2418 292.11 49.0426 292.089 48.8434 292.048C49.7509 293.724 50.7913 295.648 51.9423 297.8C56.1036 305.497 61.7037 315.926 67.503 326.748C79.8984 349.819 93.954 375.952 95.9682 379.47C112.016 407.383 175.476 398.796 209.564 394.182C218.351 393.002 225.279 392.051 229.087 392.051C229.419 392.051 229.706 392.175 229.928 392.402C230.149 392.63 230.26 392.92 230.237 393.209C228.378 418.97 241.039 433.372 248.742 439.641C248.986 439.828 249.118 440.117 249.141 440.407C251.73 492.591 239.512 530.726 237.21 537.389Z" fill="#151924"/>
<path d="M51.0126 131.004L247.967 139.571L222.026 317.974L24.0525 314.581L51.0126 131.004Z" fill="#E9F3FF"/>
<path d="M222.026 319.071C222.003 319.071 222.003 319.071 222.026 319.071L24.0525 315.677C23.7205 315.677 23.4106 315.532 23.1893 315.305C22.9679 315.077 22.8794 314.767 22.9237 314.457L49.8838 130.88C49.9723 130.321 50.4814 129.928 51.079 129.949L248.034 138.515C248.366 138.536 248.654 138.681 248.875 138.909C249.074 139.136 249.185 139.446 249.141 139.757L223.177 318.16C223.088 318.657 222.601 319.071 222.026 319.071ZM25.3806 313.525L221.007 316.877L246.661 140.605L52.0308 132.142L25.3806 313.525Z" fill="#151924"/>
<path d="M271.01 342.287C264.9 336.576 257.928 331.217 251.487 317.291C247.392 308.394 233.624 288.82 228.555 286.419C220.055 282.405 214.92 278.763 206.929 277.75C200.267 276.901 187.119 278.515 186.743 280.688C185.569 287.475 202.99 283.171 204.473 283.647C209.63 285.343 214.699 287.268 219.303 292.73C212.175 292.979 199.714 294.489 196.526 296.331C193.184 298.276 184.507 308.332 183.533 310.132C181.807 313.236 183.599 316.298 187.739 313.05C187.96 312.884 196.371 307.339 199.404 303.842C200.621 302.435 213.171 301.338 218.904 302.393C212.994 300.573 201.794 301.793 199.337 303.883C198.762 304.38 189.487 313.836 188.89 314.788C186.455 318.781 190.594 320.271 193.892 317.974C197.611 315.367 201.529 311.125 202.503 310.67C207.771 308.146 213.194 309.594 217.731 310.091C213.304 309.284 208.169 308.456 202.746 310.401C201.772 310.753 191.856 318.14 194.158 321.802C195.397 323.768 200.09 322.713 205.867 316.691C209.276 317.147 211.224 317.891 214.079 318.533C216.071 318.967 222.822 332.996 230.481 337.073C232.03 337.9 237.232 350.046 246.617 366.496C248.631 370.055 257.972 375.6 268.198 362.316C271.851 357.537 276.787 347.708 271.01 342.287Z" fill="white"/>
<path d="M254.763 371.814C254.519 371.814 254.276 371.814 254.032 371.793C249.937 371.545 246.772 369.124 245.555 367.013C241.061 359.15 237.498 352.198 234.908 347.129C232.628 342.701 230.503 338.521 229.817 337.983C224.792 335.314 220.321 328.775 217.045 324.016C215.739 322.112 214.256 319.96 213.703 319.588C212.751 319.381 211.888 319.154 211.047 318.926C209.564 318.533 208.147 318.16 206.288 317.871C202.37 321.843 198.43 324.037 195.641 323.788C194.534 323.685 193.649 323.188 193.14 322.381C192.675 321.637 192.52 320.788 192.719 319.816C190.993 320.395 189.222 320.25 188.093 319.319C187.584 318.905 186.101 317.333 187.805 314.415C185.105 316.236 183.467 315.45 182.869 314.994C181.475 313.96 181.32 311.767 182.493 309.677C183.577 307.711 192.409 297.51 195.906 295.462C199.227 293.537 210.183 292.234 216.868 291.82C212.972 287.93 208.767 286.295 204.141 284.764C203.764 284.743 202.414 284.909 201.241 285.054C195.198 285.819 189.089 286.357 186.588 283.957C185.968 283.357 185.282 282.281 185.57 280.584C186.189 277.005 201.307 276.011 207.04 276.736C213.282 277.522 217.908 279.901 223.287 282.653C225.08 283.564 226.939 284.516 229.02 285.509C234.443 288.075 248.344 307.877 252.505 316.919C258.105 329.086 263.993 334.445 269.659 339.638C270.368 340.28 271.076 340.942 271.762 341.583C278.093 347.501 273.024 357.826 269.04 363.02C263.55 370.158 258.348 371.814 254.763 371.814ZM205.845 315.615C205.889 315.615 205.956 315.615 206 315.636C208.324 315.946 210.028 316.402 211.666 316.836C212.507 317.064 213.371 317.291 214.3 317.498C215.451 317.746 216.492 319.236 218.993 322.857C221.959 327.182 226.43 333.72 231.012 336.162C232.075 336.721 233.292 339.038 236.988 346.218C239.578 351.267 243.142 358.199 247.591 366.02C248.366 367.365 250.734 369.455 254.165 369.662C257.175 369.848 261.89 368.627 267.202 361.716C270.523 357.412 275.392 347.977 270.168 343.094C269.482 342.452 268.774 341.811 268.088 341.169C262.51 336.079 256.201 330.306 250.424 317.767C246.219 308.621 232.562 289.585 228.024 287.454C225.899 286.461 224.04 285.488 222.225 284.557C216.846 281.805 212.574 279.632 206.775 278.888C200.09 278.039 189.067 279.715 187.872 281.019C187.761 281.846 188.049 282.219 188.27 282.447C190.174 284.267 197.434 283.357 200.953 282.922C203.41 282.612 204.273 282.529 204.871 282.716C210.272 284.495 215.518 286.564 220.21 292.151C220.476 292.461 220.542 292.896 220.343 293.268C220.166 293.641 219.768 293.889 219.325 293.889C211.467 294.158 199.802 295.751 197.124 297.324C194.047 299.103 185.525 308.911 184.529 310.691C183.821 311.994 183.932 313.049 184.308 313.318C184.573 313.525 185.525 313.422 186.986 312.284C187.008 312.263 187.163 312.16 187.407 311.994C191.856 308.973 194.645 306.801 196.393 305.269C197.544 304.111 198.385 303.283 198.54 303.138C201.551 300.593 213.371 299.6 219.259 301.421C219.834 301.607 220.166 302.166 220.011 302.724C219.856 303.283 219.259 303.614 218.661 303.511C212.884 302.455 201.462 303.676 200.245 304.628C199.78 305.166 199.072 305.869 198.009 306.821C195.132 309.739 190.351 314.705 189.886 315.367C189.244 316.422 189.133 317.312 189.62 317.705C190.24 318.202 191.767 318.14 193.184 317.146C193.693 316.795 194.224 316.381 194.733 315.967C197.323 312.739 201.484 309.718 202.303 309.428C203.167 309.118 204.03 308.87 204.871 308.684C206.376 308.311 207.859 308.166 209.32 308.166C212.552 308.104 215.496 308.621 217.908 309.056C218.528 309.159 218.927 309.718 218.838 310.298C218.749 310.877 218.152 311.27 217.554 311.208C216.779 311.125 215.983 311.001 215.164 310.898C213.172 310.608 211.157 310.339 209.121 310.339C207.97 310.38 206.797 310.504 205.624 310.753C204.76 310.96 203.875 311.27 203.012 311.684C202.724 311.849 201.706 312.801 200.798 313.65C199.581 314.788 198.031 316.215 196.416 317.519C195.796 318.305 195.331 319.112 195.11 319.836C194.91 320.457 194.932 320.954 195.154 321.305C195.242 321.43 195.397 321.616 195.884 321.657C197.456 321.823 200.776 320.416 204.982 316.008C205.203 315.739 205.513 315.615 205.845 315.615Z" fill="#151924"/>
<path d="M233.646 150.703C233.624 150.703 233.624 150.703 233.602 150.703L224.328 150.33C223.686 150.31 223.199 149.792 223.221 149.192C223.243 148.592 223.796 148.137 224.438 148.158L233.713 148.53C234.355 148.551 234.842 149.068 234.819 149.668C234.775 150.248 234.266 150.703 233.646 150.703ZM215.12 149.979C215.097 149.979 215.097 149.979 215.075 149.979L205.801 149.606C205.159 149.586 204.672 149.068 204.694 148.468C204.716 147.868 205.292 147.413 205.911 147.434L215.186 147.806C215.828 147.827 216.315 148.344 216.293 148.944C216.248 149.523 215.717 149.979 215.12 149.979ZM196.571 149.234C196.549 149.234 196.549 149.234 196.526 149.234L187.252 148.861C186.61 148.841 186.123 148.323 186.145 147.723C186.167 147.123 186.721 146.668 187.363 146.689L196.637 147.061C197.279 147.082 197.766 147.599 197.744 148.199C197.7 148.779 197.19 149.234 196.571 149.234ZM178.044 148.51C178.022 148.51 178.022 148.51 178 148.51L168.725 148.137C168.083 148.116 167.596 147.599 167.618 146.999C167.641 146.399 168.194 145.923 168.836 145.964L178.11 146.337C178.752 146.358 179.239 146.875 179.217 147.475C179.173 148.054 178.664 148.51 178.044 148.51ZM159.517 147.785C159.495 147.785 159.495 147.785 159.473 147.785L150.198 147.413C149.556 147.392 149.07 146.875 149.092 146.275C149.114 145.675 149.667 145.22 150.309 145.24L159.584 145.613C160.225 145.633 160.712 146.151 160.69 146.751C160.646 147.33 160.137 147.785 159.517 147.785ZM140.968 147.04C140.946 147.04 140.946 147.04 140.924 147.04L131.65 146.668C131.008 146.647 130.521 146.13 130.543 145.53C130.565 144.93 131.118 144.475 131.76 144.495L141.035 144.868C141.677 144.888 142.163 145.406 142.141 146.006C142.097 146.585 141.588 147.04 140.968 147.04ZM122.441 146.316C122.419 146.316 122.419 146.316 122.397 146.316L113.123 145.944C112.481 145.923 111.994 145.406 112.016 144.806C112.038 144.206 112.592 143.75 113.233 143.771L122.508 144.144C123.15 144.164 123.637 144.682 123.615 145.282C123.57 145.861 123.061 146.316 122.441 146.316ZM103.915 145.592C103.893 145.592 103.893 145.592 103.87 145.592L94.596 145.22C93.9541 145.199 93.4671 144.682 93.4892 144.082C93.5114 143.481 94.0647 143.006 94.7066 143.047L103.981 143.419C104.623 143.44 105.11 143.957 105.088 144.557C105.044 145.137 104.534 145.592 103.915 145.592ZM85.3658 144.847C85.3437 144.847 85.3437 144.847 85.3215 144.847L76.0471 144.475C75.4052 144.454 74.9182 143.937 74.9403 143.337C74.9625 142.737 75.5158 142.261 76.1577 142.302L85.4322 142.674C86.0741 142.695 86.5611 143.212 86.5389 143.813C86.5168 144.392 85.9856 144.847 85.3658 144.847ZM66.839 144.123C66.8169 144.123 66.8169 144.123 66.7948 144.123L57.5203 143.75C56.8784 143.73 56.3914 143.212 56.4136 142.612C56.4357 142.012 56.9891 141.557 57.631 141.578L66.9054 141.95C67.5473 141.971 68.0343 142.488 68.0122 143.088C67.9679 143.668 67.4588 144.123 66.839 144.123Z" fill="#151924"/>
<path d="M174.812 306.097L165.516 305.973C164.874 305.973 164.365 305.477 164.365 304.877C164.365 304.276 164.874 303.801 165.538 303.801L174.812 303.925C175.454 303.925 175.963 304.421 175.963 305.021C175.963 305.621 175.454 306.097 174.812 306.097ZM156.263 305.849L146.967 305.725C146.325 305.725 145.816 305.228 145.816 304.628C145.816 304.028 146.369 303.532 146.989 303.552L156.263 303.676C156.905 303.676 157.414 304.173 157.414 304.773C157.414 305.373 156.905 305.849 156.263 305.849ZM137.714 305.621L128.418 305.497C127.776 305.497 127.267 305.001 127.267 304.401C127.267 303.801 127.798 303.325 128.418 303.325C128.418 303.325 128.418 303.325 128.44 303.325L137.714 303.449C138.356 303.449 138.865 303.945 138.865 304.545C138.865 305.146 138.356 305.621 137.714 305.621ZM119.166 305.373L109.869 305.249C109.227 305.249 108.718 304.752 108.718 304.152C108.718 303.552 109.249 303.076 109.869 303.076C109.869 303.076 109.869 303.076 109.891 303.076L119.166 303.2C119.807 303.2 120.317 303.697 120.317 304.297C120.317 304.897 119.807 305.373 119.166 305.373ZM100.617 305.146L91.32 305.021C90.6781 305.021 90.169 304.525 90.169 303.925C90.169 303.325 90.7224 302.869 91.3421 302.849L100.617 302.973C101.259 302.973 101.768 303.469 101.768 304.07C101.768 304.67 101.259 305.146 100.617 305.146ZM82.0677 304.897L72.7711 304.773C72.1292 304.773 71.6201 304.276 71.6201 303.676C71.6201 303.076 72.1513 302.6 72.7711 302.6C72.7711 302.6 72.7711 302.6 72.7932 302.6L82.0677 302.725C82.7096 302.725 83.2187 303.221 83.2187 303.821C83.2187 304.421 82.7096 304.897 82.0677 304.897ZM63.5409 304.649C63.5188 304.649 63.5188 304.649 63.5409 304.649L54.2443 304.525C53.6024 304.525 53.0933 304.028 53.0933 303.428C53.0933 302.828 53.6467 302.331 54.2665 302.352L63.5409 302.476C64.1828 302.476 64.6919 302.973 64.6919 303.573C64.6698 304.173 64.1607 304.649 63.5409 304.649ZM44.992 304.421C44.9699 304.421 44.9699 304.421 44.992 304.421L35.6954 304.297C35.0535 304.297 34.5444 303.801 34.5444 303.2C34.5444 302.6 35.0757 302.125 35.6954 302.125C35.6954 302.125 35.6954 302.125 35.7176 302.125L44.992 302.249C45.6339 302.249 46.143 302.745 46.143 303.345C46.143 303.945 45.6118 304.421 44.992 304.421Z" fill="#151924"/>
<path d="M336.462 396.623C336.396 396.623 336.351 396.623 336.285 396.623C333.098 396.271 284.114 355.674 270.191 343.073C269.726 342.659 269.726 341.976 270.169 341.542C270.611 341.107 271.342 341.107 271.807 341.521C288.363 356.502 332.677 392.692 336.639 394.471C341.376 394.119 383.012 364.323 398.727 353.067C399.236 352.695 399.967 352.798 400.343 353.274C400.741 353.75 400.631 354.433 400.122 354.785C357.667 385.16 340.247 396.623 336.462 396.623Z" fill="#151924"/>
<path d="M328.87 465.195C326.391 465.195 324.155 464.885 322.185 464.264C307.886 459.795 263.373 402.106 248.742 383.153L247.06 380.96C243.452 376.283 239.822 366.434 242.722 360.889C243.009 360.351 243.695 360.123 244.271 360.392C244.846 360.661 245.09 361.303 244.802 361.841C242.434 366.393 245.665 375.456 248.941 379.677L250.646 381.87C289.603 432.358 313.929 459.381 322.938 462.195C337.082 466.602 367.185 453.07 412.451 421.991C412.96 421.639 413.69 421.743 414.066 422.219C414.443 422.695 414.332 423.377 413.823 423.729C373.339 451.56 345.405 465.195 328.87 465.195Z" fill="#151924"/>
<path d="M254.962 379.428C254.763 379.428 254.608 379.304 254.586 379.118C254.564 378.911 254.696 378.745 254.918 378.704C263.13 377.649 269.327 371.669 275.481 365.089C275.614 364.944 275.857 364.923 276.034 365.047C276.189 365.171 276.211 365.399 276.078 365.565C269.836 372.227 263.528 378.311 255.05 379.407C255.006 379.428 254.984 379.428 254.962 379.428Z" fill="#151924"/>
<path d="M259.61 385.326C259.433 385.326 259.278 385.201 259.234 385.036C259.19 384.85 259.322 384.643 259.522 384.601C262.953 383.898 266.118 382.305 268.641 380.029C268.796 379.884 269.04 379.884 269.195 380.029C269.349 380.173 269.327 380.401 269.195 380.546C266.56 382.925 263.285 384.56 259.699 385.305C259.677 385.326 259.632 385.326 259.61 385.326Z" fill="#151924"/>
<path d="M335.51 540.906C294.229 540.906 257.751 533.726 244.049 530.664C243.85 530.622 243.717 530.415 243.762 530.229C243.806 530.043 244.027 529.919 244.227 529.96C264.834 534.574 336.927 548.479 399.325 533.25C399.524 533.188 399.745 533.312 399.789 533.498C399.834 533.685 399.723 533.892 399.524 533.933C378.518 539.064 356.405 540.906 335.51 540.906Z" fill="#151924"/>
<path d="M238.671 161.421C238.649 161.421 238.649 161.421 238.671 161.421L52.4512 153.062C52.2299 153.062 52.075 152.875 52.075 152.689C52.075 152.482 52.2299 152.337 52.4734 152.337L238.671 160.697C238.892 160.697 239.047 160.883 239.047 161.069C239.047 161.276 238.87 161.421 238.671 161.421Z" fill="#151924"/>
<path d="M190.041 295.917L35.6954 293.103C35.474 293.103 35.3191 292.937 35.3191 292.73C35.3191 292.523 35.474 292.378 35.7175 292.378L190.041 295.192C190.262 295.192 190.417 295.358 190.417 295.565C190.417 295.751 190.262 295.917 190.041 295.917Z" fill="#151924"/>
<path d="M228.533 395.299C228.4 395.299 228.245 395.278 228.112 395.216C227.515 395.009 227.227 394.368 227.448 393.809L235.97 373.304C236.192 372.745 236.878 372.476 237.475 372.683C238.073 372.89 238.361 373.531 238.139 374.09L229.618 394.595C229.441 395.05 228.998 395.299 228.533 395.299Z" fill="#151924"/>
<path d="M17.4785 208.474C15.5085 198.956 20.4667 181.389 24.6723 177.809C31.7333 171.829 35.6511 167.049 43.0662 164.111C49.264 161.649 62.3899 159.952 63.3638 161.938C66.4184 168.187 48.4007 168.353 47.1169 169.18C42.6236 172.098 38.2852 175.202 35.3855 181.595C42.3358 180.064 54.7755 178.43 58.3613 179.423C62.1242 180.478 73.3466 188.031 74.8075 189.5C77.353 192.065 76.4676 195.459 71.5758 193.369C71.3102 193.266 61.6373 189.996 57.7194 187.389C56.1257 186.334 43.7524 188.382 38.5065 190.824C43.686 187.596 54.8198 186.003 57.808 187.41C58.5163 187.741 70.137 194.548 70.956 195.335C74.4312 198.583 70.8675 201.046 67.0382 199.639C62.7219 198.045 57.7416 194.921 56.6791 194.714C50.8798 193.597 46.0544 196.307 41.8488 197.921C45.8995 196.059 50.6142 193.99 56.3914 194.507C57.4317 194.59 69.0746 199.287 67.9014 203.384C67.2595 205.577 62.4341 205.743 55.174 201.356C52.0087 202.639 50.3486 203.839 47.7809 205.163C45.988 206.094 43.4647 221.261 37.2227 227.096C35.961 228.276 34.8764 239.056 33.7033 248.926C32.3088 260.244 19.5592 218.613 17.4785 208.474Z" fill="white"/>
<path d="M236.369 71.4747C236.103 71.4747 235.837 71.392 235.616 71.2264C235.129 70.8333 235.063 70.1505 235.461 69.6953C251.841 51.3831 260.407 27.2153 258.968 3.3785C258.924 2.77844 259.411 2.26115 260.053 2.24045C260.717 2.21976 261.248 2.65429 261.27 3.25435C262.753 27.6291 253.966 52.3557 237.21 71.0816C237.033 71.3506 236.701 71.4747 236.369 71.4747Z" fill="#151924"/>
<path d="M259.876 81.6341C259.566 81.6341 259.234 81.5099 259.013 81.2823C258.592 80.8271 258.636 80.1443 259.101 79.7511C268.708 71.7435 277.584 62.8461 285.464 53.3279C285.862 52.852 286.593 52.7692 287.08 53.1417C287.589 53.5141 287.677 54.197 287.279 54.6522C279.31 64.2738 270.346 73.254 260.629 81.3651C260.429 81.5513 260.142 81.6341 259.876 81.6341Z" fill="#151924"/>
<path d="M279.93 100.422C279.598 100.422 279.288 100.298 279.067 100.05C278.646 99.5943 278.69 98.9115 279.177 98.5183C290.311 89.414 303.791 82.8754 318.179 79.6475C318.799 79.5027 319.418 79.8751 319.573 80.4545C319.728 81.0339 319.33 81.6132 318.71 81.7581C304.699 84.9032 291.551 91.2556 280.705 100.153C280.461 100.318 280.196 100.422 279.93 100.422Z" fill="#151924"/>
<path d="M141.636 204.776L148.947 163.26L235.085 167.214L228.817 210.213L141.636 204.776Z" fill="#E9F3FF" stroke="black"/>
<path d="M36.8568 283.254L43.1206 241.752L185.339 245.723L176.989 286.73L36.8568 283.254Z" fill="#E9F3FF" stroke="black"/>
<path d="M32.6185 251.968C31.4454 251.968 29.409 251.161 23.4769 233.407C20.1567 223.475 17.2349 213.026 16.3274 208.681C14.3131 198.914 19.2492 180.933 23.8753 177.022C25.6018 175.553 27.1291 174.188 28.6121 172.843C33.017 168.87 36.8241 165.414 42.6013 163.118C47.9358 160.986 62.7882 158.214 64.404 161.504C65.1787 163.076 64.8246 164.276 64.3819 165.001C62.6554 167.939 56.6126 168.932 50.5698 169.698C49.3967 169.842 48.0464 170.008 47.6923 170.132C43.6638 172.76 40.0558 175.367 37.4218 180.106C43.9958 178.864 54.9303 177.374 58.6711 178.43C62.6332 179.526 74.0326 187.182 75.6485 188.817C77.3528 190.555 77.8398 192.707 76.7994 194.052C76.3568 194.631 74.9844 195.79 71.8634 194.714C74.3425 197.114 73.3464 198.997 72.9923 199.514C72.1733 200.694 70.5132 201.273 68.676 201.149C69.1187 202.018 69.2294 202.887 68.9859 203.715C68.7203 204.625 68.012 205.329 66.9716 205.701C64.3819 206.632 59.9328 205.494 55.041 202.618C53.3145 203.342 52.075 204.066 50.7469 204.811C50.0164 205.225 49.2417 205.66 48.3785 206.115C47.9358 206.632 47.1168 209.074 46.4085 211.226C44.6156 216.647 42.1365 224.055 37.9973 227.903C37.1562 229.021 36.1158 237.959 35.2747 245.139C35.1198 246.464 34.9648 247.788 34.8099 249.112C34.7213 249.878 34.4779 251.947 32.8178 252.009C32.7513 251.968 32.6849 251.968 32.6185 251.968ZM59.7557 162.124C55.7272 162.124 48.2235 163.221 43.5088 165.083C38.1301 167.235 34.6328 170.38 30.228 174.374C28.745 175.719 27.1955 177.105 25.4469 178.595C21.7061 181.761 16.6815 198.894 18.6073 208.246C20.5551 217.744 29.0548 244.746 32.4415 249.257C32.4636 249.133 32.4857 248.988 32.5079 248.823C32.6628 247.519 32.8178 246.174 32.9727 244.87C34.4115 232.621 35.1198 227.51 36.3593 226.351C40.0779 222.875 42.557 215.447 44.195 210.543C45.5674 206.446 46.165 204.749 47.1832 204.211C48.0464 203.777 48.799 203.342 49.5516 202.928C51.0125 202.101 52.5177 201.252 54.6869 200.363C55.041 200.218 55.4616 200.259 55.7715 200.445C61.0617 203.653 64.6696 204.17 66.1526 203.632C66.6175 203.466 66.7281 203.259 66.7724 203.115C66.8831 202.701 66.7724 202.225 66.3961 201.687C65.9756 201.045 65.2894 200.383 64.4704 199.783C62.5447 198.935 60.6411 197.921 59.1359 197.135C58.0292 196.555 56.7675 195.873 56.4355 195.79C55.4616 195.604 54.4876 195.521 53.558 195.541C52.4291 195.604 51.3224 195.748 50.2599 195.997C48.2678 196.473 46.3642 197.259 44.4827 198.045C43.7302 198.356 42.9997 198.666 42.2693 198.935C41.6938 199.163 41.0297 198.914 40.7641 198.376C40.4985 197.838 40.742 197.218 41.3175 196.949C43.531 195.935 46.2093 194.693 49.3303 193.969C50.7469 193.596 52.2299 193.369 53.8015 193.369C54.6647 193.327 55.5501 193.348 56.4798 193.431C57.3652 193.514 62.2348 195.397 65.6214 197.88C66.2412 198.149 66.861 198.397 67.4586 198.625C69.1187 199.225 70.6239 198.914 71.0666 198.273C71.4207 197.776 71.0666 196.949 70.1369 196.079C69.5171 195.542 63.4743 191.941 59.8885 189.831C58.5826 189.189 57.6972 188.672 57.0774 188.258C57.011 188.237 56.9225 188.217 56.8561 188.196C54.8197 187.803 44.1065 189.417 39.0376 191.776C38.4842 192.024 37.8202 191.838 37.5103 191.341C37.2004 190.844 37.3554 190.224 37.8645 189.893C43.0219 186.685 54.6869 184.699 58.317 186.416C58.5162 186.499 59.5565 187.099 60.9953 187.927C63.1202 188.962 66.4183 190.369 71.5757 192.189C71.8634 192.293 72.0405 192.355 72.0848 192.376C73.8113 193.121 74.7409 192.976 74.9401 192.727C75.2058 192.376 75.0287 191.32 73.9662 190.244C72.5053 188.775 61.5044 181.43 58.0292 180.478C54.9967 179.63 43.3096 180.975 35.651 182.671C35.2304 182.775 34.7877 182.63 34.5 182.32C34.2122 182.009 34.1458 181.575 34.3229 181.202C37.2668 174.664 41.738 171.374 46.4527 168.311C46.9618 167.98 47.8472 167.856 50.2821 167.546C53.7793 167.111 61.0617 166.18 62.3676 163.966C62.5226 163.697 62.6996 163.263 62.3455 162.497C61.9692 162.249 61.0395 162.124 59.7557 162.124Z" fill="#151924"/>
<line y1="-0.5" x2="68.4862" y2="-0.5" transform="matrix(-0.99904 -0.0438045 0.0500498 -0.998747 141.047 168.24)" stroke="black"/>
<line y1="-0.5" x2="101.092" y2="-0.5" transform="matrix(-0.930614 0.366001 -0.409982 -0.912094 235.125 167.24)" stroke="black"/>
<line y1="-0.5" x2="92.4384" y2="-0.5" transform="matrix(-0.86739 -0.497628 0.548333 -0.83626 228.71 209.24)" stroke="black"/>
<line y1="-0.5" x2="68.4862" y2="-0.5" transform="matrix(-0.99904 -0.0438045 0.0500498 -0.998747 135.701 177.24)" stroke="black"/>
<line y1="-0.5" x2="62.0786" y2="-0.5" transform="matrix(-0.998832 -0.0483259 0.0552123 -0.998475 132.494 186.24)" stroke="black"/>
<line y1="-0.5" x2="23.5648" y2="-0.5" transform="matrix(-0.771242 0.636542 -0.686182 -0.72743 61.9355 262.24)" stroke="black"/>
<line y1="-0.5" x2="13.9747" y2="-0.5" transform="matrix(0.765006 0.644023 -0.693342 0.720608 61.9355 262.24)" stroke="black"/>
<line y1="-0.5" x2="21.4845" y2="-0.5" transform="matrix(-0.79616 0.605087 -0.655772 -0.754959 89.7314 258.24)" stroke="black"/>
<line y1="-0.5" x2="8.03572" y2="-0.5" transform="matrix(0.665199 0.746667 -0.788696 0.614784 89.7314 258.24)" stroke="black"/>
<line y1="-0.5" x2="11.8022" y2="-0.5" transform="matrix(-0.996404 -0.0847299 0.0967324 -0.99531 106.836 264.24)" stroke="black"/>
<line y1="-0.5" x2="7.0813" y2="-0.5" transform="matrix(0.905825 -0.423651 0.471413 0.881913 106.836 265.24)" stroke="black"/>
<line y1="-0.5" x2="6.67628" y2="-0.5" transform="matrix(0.800647 0.599136 -0.649964 0.759965 112.182 262.24)" stroke="black"/>
<line y1="-0.5" x2="11.8022" y2="-0.5" transform="matrix(0.905825 -0.423651 0.471413 0.881913 117.527 266.24)" stroke="black"/>
<line y1="-0.5" x2="14.6387" y2="-0.5" transform="matrix(0.730305 0.683122 -0.730305 0.683122 127.149 261.24)" stroke="black"/>
<line y1="-0.5" x2="22.345" y2="-0.5" transform="matrix(0.813343 -0.581785 0.632933 0.774207 137.84 271.24)" stroke="black"/>
<line y1="-0.5" x2="16.2659" y2="-0.5" transform="matrix(0.788696 0.614784 -0.665199 0.746667 154.945 258.24)" stroke="black"/>
<path d="M103.177 504.166C102.849 500.625 101.715 497.131 99.8489 493.906C98.8868 492.242 97.7193 490.639 96.1884 489.273C94.6105 487.867 92.6833 486.743 90.9429 485.466C85.4478 481.43 81.8815 475.771 81.1017 469.851C80.4888 465.195 79.6136 460.054 81.0005 455.505C82.0183 452.161 88.6009 442.819 92.5208 439.945C98.844 435.306 108.222 432.442 116.74 431.513C125.259 430.583 134.202 431.959 141.496 435.585C150.908 440.265 157.167 448.579 158.515 457.349C159.864 466.119 156.453 475.201 149.763 482.251C146.992 485.171 143.695 487.757 140.935 490.685C137.074 494.782 134.316 499.518 132.862 504.274C129.334 504.782 125.723 504.771 122.137 504.758C119.105 504.747 116.073 504.737 113.041 504.726C109.804 504.714 106.561 504.702 103.177 504.166Z" fill="white"/>
<path d="M101.408 504.765C112.297 505.605 123.289 505.594 134.173 504.733C134.787 512.063 135.38 516.537 132.907 523.614C131.7 527.071 129.523 530.585 125.571 532.306C120.881 534.349 115.107 533.338 109.951 532.217C107.952 531.783 105.888 531.311 104.309 530.243C101.073 528.057 100.891 524.202 100.964 520.823C101.105 514.251 101.246 510.701 101.408 504.765Z" fill="#ACD4F7"/>
<path d="M123.605 534.369C122.958 534.139 122.395 533.77 122.027 533.29C123.254 533.111 124.445 532.797 125.571 532.306C126.212 532.026 126.808 531.699 127.36 531.333C127.367 531.347 127.372 531.361 127.38 531.374C127.474 531.553 127.565 531.731 127.655 531.911C126.616 532.55 125.599 533.209 124.566 533.854C124.261 534.046 123.937 534.214 123.605 534.369ZM128.952 531.135C128.886 531.005 128.819 530.875 128.751 530.746C128.691 530.631 128.604 530.539 128.499 530.473C130.669 528.615 132.039 526.101 132.907 523.614C135.381 516.537 134.788 512.063 134.173 504.733C131.167 504.971 128.152 505.143 125.133 505.251C125.193 505.081 125.269 504.915 125.357 504.755C127.874 504.731 130.389 504.63 132.862 504.274C132.89 504.182 132.919 504.09 132.947 503.999C132.983 503.995 133.017 503.991 133.051 503.989C133.358 503.958 133.663 503.925 133.969 503.891L133.976 503.898C135.128 504.951 135.144 506.474 135.378 507.795C135.594 509.887 135.744 512.005 135.358 514.09C134.417 518.901 134.172 519.735 133.231 524.107C132.628 526.134 131.867 528.194 130.718 530.086C130.133 530.439 129.542 530.787 128.952 531.135Z" fill="#DEDEDE"/>
<path d="M127.655 531.912C127.565 531.732 127.474 531.553 127.38 531.374C127.373 531.361 127.367 531.348 127.36 531.333C127.763 531.066 128.142 530.778 128.499 530.473C128.604 530.54 128.691 530.632 128.751 530.746C128.82 530.876 128.887 531.005 128.952 531.136C128.849 531.196 128.747 531.256 128.644 531.317C128.311 531.512 127.981 531.712 127.655 531.912Z" fill="black"/>
<path d="M153.525 477.57C157.094 472.268 159.004 466.254 158.79 460.263C158.986 460.339 159.168 460.442 159.325 460.575C160.653 461.812 159.627 464.217 159.105 466.483L159.085 466.536C158.86 467.691 158.541 468.834 157.986 469.919C157.684 470.545 157.374 471.167 157.037 471.783C157.069 471.729 157.09 471.691 157.094 471.691C157.096 471.691 157.086 471.715 157.059 471.774C156.39 473.179 156.56 472.992 155.532 474.931C154.92 475.838 154.248 476.718 153.525 477.57Z" fill="#DEDEDE"/>
<path d="M125.357 504.755C125.44 504.606 125.535 504.461 125.639 504.321L125.569 504.003C125.481 502.586 126.571 500.817 127.243 499.434C128.407 497.366 128.243 497.414 130.078 494.554C131.014 493.142 132.265 491.886 133.499 490.634L133.522 490.611C133.824 490.198 135.956 487.813 136.924 486.761C140.227 483.063 145.967 478.799 148.051 476.525C149.803 474.795 150.712 473.075 151.2 472.329C153.096 469.743 153.416 468.813 154.925 465.613C155.074 465.339 155.15 465.202 155.148 465.202C155.148 465.202 155.083 465.318 154.954 465.55C155.113 465.178 155.537 463.53 155.666 463.033C155.693 462.871 155.718 462.71 155.74 462.549C155.947 461.306 155.791 461.725 156.243 460.865C156.601 460.375 157.275 460.115 157.946 460.115C158.236 460.115 158.525 460.163 158.79 460.263C159.004 466.254 157.094 472.269 153.525 477.57C152.035 479.327 150.328 480.969 148.48 482.49C145.589 485.009 142.548 487.427 139.818 490.058C135.651 494.583 133.793 497.987 131.461 504.127C131.957 504.09 132.453 504.047 132.947 503.999C132.919 504.09 132.89 504.182 132.862 504.274C130.389 504.63 127.874 504.731 125.357 504.755Z" fill="#DEDEDE"/>
<path d="M122.027 533.29C121.648 532.795 121.477 532.185 121.638 531.487C121.655 530.849 122.187 530.335 122.53 529.782C123.967 527.535 123.265 528.925 124.267 526.611C126.011 521.791 125.611 523.838 125.912 518.501C126.172 513.358 126.181 510.109 125.139 507.307C124.892 506.567 124.914 505.874 125.133 505.251C128.152 505.143 131.167 504.971 134.173 504.733C134.788 512.063 135.381 516.537 132.908 523.614C132.039 526.101 130.67 528.615 128.499 530.473C128.142 530.778 127.763 531.066 127.36 531.333C126.808 531.699 126.212 532.026 125.571 532.306C124.445 532.797 123.255 533.111 122.027 533.29Z" fill="#96B9D7"/>
<path d="M127.016 499.834C127.118 499.65 127.217 499.465 127.319 499.282L127.243 499.434C127.172 499.561 127.098 499.691 127.016 499.834Z" fill="#DEDEDE"/>
<path d="M101.636 505.145C101.655 508.113 101.672 510.494 101.689 512.874C101.709 515.462 101.728 518.05 101.748 521.394C101.758 523.19 101.769 525.048 102.557 526.697C104.095 529.909 108.762 532.296 115.04 533.08C121.341 533.866 126.725 532.718 129.441 530.008C131.297 528.153 131.911 525.677 132.38 523.301C133.813 516.058 134.297 513.029 133.606 505.538C127.173 505.917 108.61 505.688 101.636 505.145ZM118.857 534.748C117.236 534.748 115.819 534.618 114.837 534.496C111.569 534.088 103.695 532.566 101.163 527.281C100.242 525.357 100.231 523.256 100.22 521.401C100.201 518.06 100.181 515.472 100.163 512.884C100.144 510.296 100.124 507.708 100.105 504.365C100.104 504.162 100.195 503.968 100.356 503.832C100.516 503.696 100.734 503.629 100.947 503.65C107.321 504.265 128.476 504.528 134.234 504.062C134.656 504.032 135.021 504.318 135.06 504.709C135.867 512.904 135.386 515.952 133.882 523.561C133.393 526.033 132.694 528.848 130.555 530.984C127.482 534.054 122.62 534.748 118.857 534.748Z" fill="black"/>
<path d="M132.089 505.332L131.95 505.32C131.535 505.248 131.261 504.874 131.338 504.486C132.781 497.238 138.859 491.481 144.736 485.913C150.192 480.744 155.836 475.4 157.59 468.972C158.534 465.514 158.417 457.066 155.171 449.91C152.765 444.606 149.318 440.621 144.93 438.065C136.681 433.26 122.471 429.82 111.27 432.544C100.615 435.134 91.9066 439.993 86.7523 446.222C82.0327 451.925 79.9872 459.044 80.9907 466.265C81.9301 473.029 85.4666 479.657 91.2196 485.433C92.0121 486.23 92.8617 487.022 93.6813 487.79C95.4061 489.401 97.1878 491.066 98.6275 492.917C101.229 496.257 102.653 500.102 102.75 504.04C102.758 504.433 102.425 504.761 102.003 504.769C101.602 504.785 101.232 504.466 101.222 504.072C101.133 500.428 99.8106 496.861 97.3931 493.758C96.0232 491.998 94.2842 490.373 92.6022 488.801C91.7712 488.025 90.9131 487.222 90.102 486.408C84.1309 480.412 80.4562 473.51 79.4755 466.449C78.4192 458.848 80.5745 451.353 85.5435 445.349C90.9045 438.87 99.9047 433.832 110.886 431.161C122.501 428.336 137.21 431.885 145.736 436.852C150.399 439.566 154.045 443.773 156.577 449.353C159.961 456.81 160.065 465.68 159.07 469.325C157.213 476.128 151.422 481.613 145.823 486.917C140.107 492.332 134.196 497.932 132.839 504.748C132.772 505.092 132.45 505.332 132.089 505.332Z" fill="black"/>
<path d="M119.148 452.209C118.874 452.209 118.533 452.487 118.308 452.746C116.739 454.553 116.127 457.003 116.384 460.454C116.569 462.954 117.104 465.062 118.005 466.819C119.195 464.546 120.057 462.173 120.582 459.729C121.262 456.565 120.968 454.295 119.66 452.589C119.486 452.361 119.353 452.247 119.229 452.218L119.148 452.209ZM127.398 472.83C128.419 472.882 129.455 472.782 130.463 472.489C132.791 471.811 134.795 470.175 136.418 467.627C136.869 466.921 137.02 465.983 136.763 465.494C136.691 465.354 136.557 465.187 136.18 465.146C135.734 465.099 135.234 465.33 134.759 465.591C131.522 467.377 128.911 469.946 127.398 472.83ZM97.0666 464.677C96.4551 464.677 95.892 464.854 95.6098 465.171C95.0339 465.818 95.6939 466.887 96.0046 467.317C98.0544 470.155 101.943 471.985 105.196 473.267C104.028 470.778 102.459 468.382 100.261 466.302C99.6338 465.707 98.8655 465.065 97.9161 464.794C97.6382 464.714 97.3474 464.677 97.0666 464.677ZM123.16 504.949H123.15C122.729 504.943 122.391 504.619 122.396 504.225L122.398 504.109C122.472 497.229 122.853 490.041 123.527 482.742C123.808 479.703 124.16 476.735 125.232 473.959C122.673 473.385 120.357 472.069 118.849 470.531C118.582 470.259 118.328 469.975 118.089 469.682C117.755 470.209 117.405 470.73 117.037 471.246C114.976 474.127 112.718 475.618 110.135 475.802C109.335 475.861 108.553 475.778 107.794 475.619C108.487 477.565 108.997 479.509 109.424 481.363C111.131 488.782 111.881 496.369 111.656 503.911C111.644 504.306 111.297 504.625 110.87 504.606C110.45 504.594 110.118 504.266 110.129 503.871C110.352 496.443 109.612 488.971 107.931 481.663C107.444 479.549 106.846 477.31 105.983 475.103C105.616 474.975 105.261 474.841 104.919 474.707C101.192 473.258 97.068 471.341 94.7389 468.117C93.6741 466.643 93.5629 465.237 94.4352 464.258C95.3874 463.187 97.1378 463.077 98.3623 463.427C99.6366 463.791 100.586 464.577 101.347 465.298C104.08 467.883 105.887 470.898 107.163 473.978C108.099 474.262 109.057 474.449 110.019 474.378C112.103 474.229 113.984 472.945 115.767 470.451C116.259 469.765 116.718 469.065 117.144 468.355C115.844 466.255 115.093 463.678 114.86 460.553C114.681 458.141 114.72 454.611 117.124 451.845C117.855 451.003 118.759 450.635 119.6 450.833C120.247 450.983 120.652 451.431 120.901 451.755C122.967 454.451 122.563 457.758 122.08 460.01C121.463 462.885 120.401 465.662 118.911 468.305C119.235 468.753 119.59 469.173 119.975 469.565C121.347 470.965 123.478 472.158 125.81 472.629L125.978 472.294C127.613 469.123 130.457 466.306 133.984 464.361C134.654 463.991 135.46 463.626 136.361 463.727C137.167 463.817 137.797 464.221 138.133 464.863C138.7 465.941 138.321 467.431 137.73 468.359C135.908 471.219 133.616 473.067 130.916 473.853C129.548 474.251 128.137 474.345 126.761 474.207C125.679 476.87 125.338 479.726 125.048 482.866C124.376 490.127 123.999 497.279 123.924 504.125L123.923 504.242C123.919 504.634 123.578 504.949 123.16 504.949Z" fill="black"/>
<path d="M164.154 439.479C163.876 439.479 163.61 439.338 163.476 439.092C163.286 438.749 163.424 438.327 163.785 438.139L173.314 433.222C174.188 432.77 174.748 432.947 175.066 433.175C175.305 433.349 175.429 433.613 175.398 433.885C175.324 434.545 175.319 434.585 164.482 439.41L164.154 439.479Z" fill="black"/>
<path d="M103.535 423.118C103.246 423.118 102.969 422.963 102.841 422.702L98.1899 413.253C98.0132 412.895 98.1814 412.471 98.5648 412.306C98.9454 412.141 99.4001 412.298 99.5768 412.656L104.228 422.105C104.405 422.462 104.237 422.887 103.853 423.053L103.535 423.118Z" fill="black"/>
<path d="M72.2457 444.198L72.096 444.184L61.6334 442.232C61.3597 442.181 60.5301 442.026 60.3191 441.336C60.2336 441.053 60.312 440.764 60.5272 440.561C60.9777 440.137 61.2271 439.904 72.448 442.794C72.8443 442.897 73.0824 443.274 72.9883 443.649C72.9042 443.976 72.592 444.198 72.2457 444.198Z" fill="black"/>
<path d="M58.3122 480.897C58.0143 480.897 57.7321 480.733 57.6081 480.461C57.4441 480.097 57.6266 479.677 58.0143 479.525L68.8675 475.238C69.2566 475.085 69.7042 475.256 69.8681 475.618C70.0321 475.982 69.851 476.401 69.4619 476.554L58.6087 480.841L58.3122 480.897Z" fill="black"/>
<path d="M135.486 422.933L135.202 422.882C134.81 422.735 134.621 422.319 134.778 421.953L138.605 413.005C138.762 412.638 139.205 412.461 139.597 412.606C139.989 412.753 140.179 413.169 140.023 413.535L136.195 422.483C136.076 422.763 135.788 422.933 135.486 422.933Z" fill="black"/>
<path d="M177.773 473.982L177.499 473.934L166.954 470.154C166.561 470.013 166.364 469.601 166.515 469.231C166.666 468.862 167.108 468.679 167.501 468.819L178.047 472.601C178.44 472.741 178.637 473.154 178.486 473.522C178.369 473.807 178.079 473.982 177.773 473.982Z" fill="black"/>
</g>
<defs>
<clipPath id="clip0_9989_1573">
<rect width="466" height="552" fill="white" transform="translate(0.547852 2.01855)"/>
</clipPath>
</defs>
</svg>
