<svg width="566" height="577" viewBox="0 0 566 577" fill="none" xmlns="http://www.w3.org/2000/svg">
<path d="M105.495 101.073C137.112 82.9178 178.3 90.1573 203.633 118.336C220.745 137.382 230.318 163.668 246.368 183.827C276.438 221.583 329.519 231.607 368.483 206.993C414.621 177.751 442.799 100.925 499.398 98.4001C531.014 96.9518 561.47 126.579 565.531 162.664C569.592 198.862 546.774 236.396 515.834 244.304C470.298 256.248 458.505 280.981 502.587 333.851C525.136 360.622 540.255 390.532 516.414 426.63C494.638 459.049 446.791 471.07 405.901 442.223C338.2 394.259 395.617 398.903 341.217 487.887C289.938 572.577 232.521 512.94 196.573 508.269C162.927 503.702 129.763 527.984 96.3095 521.635C44.5024 511.77 24.2124 437.247 62.0831 395.109C86.3513 368.044 125.122 366.485 152.099 343.318C174.012 324.453 170.666 300.618 149.488 291.862C14.8521 236.181 54.491 130.63 105.495 101.073Z" fill="white"/>
<path d="M460.046 576.202C487.453 575.684 498.652 540.451 464.478 511.375C427.129 479.596 399.402 503.251 399.729 525.714C400.023 545.898 426.178 576.843 460.046 576.202Z" fill="white"/>
<path d="M363.449 122.529C360.062 140.159 368.629 159.898 385.517 168.32C394.725 172.914 405.461 174.01 415.023 177.9C424.585 181.79 433.572 190.295 432.023 199.916C431.004 206.31 424.696 220.256 443.754 231.761C459.492 241.237 449.111 278.586 394.106 286.904C377.261 289.449 389.635 278.669 373.365 273.827C357.296 269.047 343.816 258.163 334.364 245.127C324.913 232.071 319.202 216.945 315.35 201.613C310.923 183.942 308.931 164.864 316.302 148.063C323.673 131.282 342.753 117.936 363.449 122.529Z" fill="#ACD4F7"/>
<path d="M389.811 288.373C384.565 288.373 383.348 286.18 382.263 283.035C381.289 280.2 380.182 276.993 373.011 274.882C357.804 270.371 343.749 260.025 333.39 245.748C324.978 234.161 318.714 219.801 314.199 201.861C308.532 179.328 308.864 162.113 315.217 147.649C322.389 131.323 341.801 116.591 363.692 121.474C364.29 121.598 364.666 122.157 364.555 122.716C361.102 140.655 370.133 159.443 386.026 167.368C391.051 169.872 396.673 171.362 402.14 172.789C406.567 173.948 411.149 175.169 415.443 176.907C425.116 180.839 434.789 189.777 433.129 200.082C432.996 200.909 432.775 201.882 432.553 202.896C430.871 210.179 428.348 221.208 444.351 230.85C450.261 234.409 452.784 241.693 450.969 249.866C447.804 263.978 431.07 282.414 394.26 287.98C392.534 288.249 391.051 288.373 389.811 288.373ZM355.17 122.716C337.905 122.716 323.296 135.048 317.386 148.497C311.233 162.506 310.945 179.328 316.479 201.385C320.906 219.056 327.081 233.168 335.315 244.548C345.365 258.412 359 268.447 373.719 272.834C382.042 275.296 383.436 279.414 384.477 282.393C385.517 285.393 386.07 287.049 393.928 285.869C429.565 280.49 445.723 262.881 448.734 249.452C450.35 242.189 448.225 235.775 443.134 232.713C425.78 222.263 428.613 209.869 430.318 202.482C430.561 201.468 430.76 200.578 430.871 199.813C432.332 190.626 423.434 182.556 414.558 178.935C410.396 177.238 405.903 176.059 401.542 174.9C395.965 173.431 390.209 171.92 384.964 169.293C368.517 161.078 359.022 141.897 362.121 123.378C359.774 122.923 357.45 122.716 355.17 122.716Z" fill="#ACD4F7"/>
<path d="M297.266 79.9052C302.844 105.335 272.32 141.38 261.186 165.155C257.556 172.893 252.31 179.929 249.322 187.895C245.78 197.372 245.67 207.655 246.644 217.649C248.481 236.541 254.546 255.908 268.734 269.441C282.945 282.973 306.695 288.87 324.226 279.331C339.61 270.951 346.626 252.949 345.652 236.334C344.678 219.719 337.108 204.138 329.096 189.261C309.883 153.567 323.385 110.694 297.266 79.9052Z" fill="#ACD4F7"/>
<path d="M304.881 285.043C291.843 285.043 278.031 279.828 267.916 270.186C255.233 258.102 247.685 240.452 245.493 217.733C244.298 205.338 245.161 195.737 248.238 187.523C249.987 182.826 252.554 178.398 255.033 174.115C256.804 171.073 258.619 167.907 260.124 164.721C263.334 157.851 268.137 150.009 273.206 141.712C285.779 121.165 300.011 97.8659 296.115 80.1124C296.005 79.6158 296.27 79.1192 296.757 78.9123C297.244 78.7054 297.82 78.8296 298.152 79.2227C312.739 96.3968 315.085 116.778 317.586 138.359C319.556 155.327 321.57 172.894 330.137 188.764C338.039 203.414 345.808 219.16 346.804 236.252C347.889 255.102 339.256 272.359 324.802 280.242C318.892 283.491 312.008 285.043 304.881 285.043ZM299.015 83.9404C300.321 101.777 287.04 123.482 275.242 142.808C270.196 151.064 265.437 158.844 262.271 165.61C260.722 168.9 258.885 172.087 257.092 175.17C254.657 179.37 252.134 183.716 250.452 188.268C247.485 196.193 246.666 205.483 247.84 217.567C249.987 239.769 257.313 256.985 269.62 268.696C284.539 282.911 307.78 287.07 323.695 278.401C337.419 270.931 345.609 254.44 344.546 236.397C343.572 219.719 335.892 204.221 328.122 189.758C319.379 173.515 317.321 155.761 315.351 138.608C313.004 118.744 310.835 99.9351 299.015 83.9404Z" fill="#151924"/>
<path d="M334.629 210.966C334.12 197.413 334.363 184.046 334.961 173.907C329.117 171.176 322.787 169.251 316.324 168.279C313.424 167.844 310.148 167.679 307.912 169.314C306.518 170.348 299.877 164.865 299.191 166.375C294.477 176.721 289.651 201.655 284.936 212C284.582 212.787 262.381 215.642 262.027 216.428C260.5 219.801 271.833 233.416 272.962 234.12C333.5 271.737 366.149 215.394 366.149 215.394C366.149 215.394 351.673 214.008 334.629 210.966Z" fill="white"/>
<path d="M313.093 248.169C300.033 248.169 286.376 243.783 272.321 235.03C271.546 234.533 258.995 220.318 260.943 216.014C261.298 215.207 261.364 215.063 273.295 213.138C277.279 212.497 282.635 211.628 284.008 211.214C286.288 206.062 288.634 197.351 290.914 188.908C293.26 180.197 295.695 171.196 298.085 165.941C298.263 165.547 298.617 165.237 299.059 165.113C300.166 164.761 301.561 165.485 303.907 166.768C304.947 167.348 306.674 168.279 307.316 168.362C309.972 166.52 313.602 166.789 316.479 167.223C323.076 168.217 329.472 170.141 335.449 172.955C335.869 173.141 336.113 173.555 336.091 173.99C335.449 185.08 335.316 198.178 335.737 210.097C352.138 212.993 366.128 214.359 366.26 214.359C366.637 214.4 366.991 214.607 367.168 214.938C367.345 215.249 367.345 215.642 367.168 215.952C367.035 216.201 352.67 240.513 325.909 246.721C321.725 247.673 317.431 248.169 313.093 248.169ZM263.002 217.194C262.736 220.277 272.011 232.03 273.627 233.251C291.777 244.528 309.175 248.355 325.333 244.61C347.402 239.499 360.771 221.498 364.224 216.304C359.819 215.828 347.822 214.442 334.386 212.042C333.855 211.938 333.457 211.524 333.457 211.007C333.014 199.068 333.125 185.825 333.744 174.548C328.167 172.024 322.257 170.265 316.125 169.334C313.646 168.962 310.569 168.713 308.622 170.141C307.316 171.093 305.301 169.996 302.756 168.61C301.915 168.155 300.697 167.492 300.033 167.244C297.776 172.417 295.451 181.046 293.172 189.426C290.825 198.137 288.39 207.158 285.978 212.393C285.624 213.2 285.557 213.324 273.671 215.249C269.775 215.911 264.507 216.759 263.002 217.194Z" fill="#151924"/>
<path d="M278.827 79.3265C275.529 91.6174 272.873 104.798 264.728 115.227C260.278 120.917 246.798 153.196 270.571 172.604C283.055 182.805 300.187 187.999 318.781 185.04C331.397 183.033 351.341 169.687 356.41 151.002C363.913 156.299 374.471 154.065 377.57 147.03C379.363 142.974 376.707 136.084 371.528 134.428C367.521 133.145 367.034 133.021 363.138 134.035C364.622 124.931 366.99 115.992 371.218 106.453C365.817 93.0658 352.625 82.3475 338.193 74.5261C333.412 71.9396 328.409 69.5807 323.008 68.2772C307.514 64.532 282.192 66.7046 278.827 79.3265Z" fill="white"/>
<path d="M308.334 186.964C294.079 186.964 280.665 182.308 269.797 173.432C245.98 153.982 258.332 121.558 263.777 114.605C270.793 105.625 273.693 94.431 276.504 83.6092C276.903 82.0987 277.279 80.5882 277.677 79.0984C278.629 75.5395 281.175 72.5805 285.269 70.3252C295.23 64.7798 312.274 64.6143 323.231 67.2628C329.207 68.7112 334.652 71.4218 338.725 73.6358C350.655 80.1123 366.172 90.9961 372.259 106.122C372.37 106.37 372.347 106.66 372.237 106.929C368.629 115.061 366.15 123.254 364.512 132.628C367.212 132.048 368.275 132.317 371.861 133.455C374.428 134.283 376.686 136.332 378.014 139.084C379.408 141.939 379.63 145.167 378.612 147.484C377.106 150.919 373.875 153.485 369.736 154.54C365.508 155.616 360.882 154.954 357.052 152.781C351.142 171.549 331.354 184.171 318.936 186.136C315.395 186.674 311.831 186.964 308.334 186.964ZM308.046 67.718C300.21 67.718 292.131 69.0216 286.487 72.1667C282.945 74.1324 280.754 76.6361 279.957 79.6157C279.559 81.1055 279.16 82.616 278.784 84.1058C275.929 95.1345 272.963 106.536 265.68 115.868C262.626 119.778 247.198 152.057 271.347 171.797C284.362 182.433 301.14 186.757 318.604 183.984C330.424 182.101 350.301 169.19 355.304 150.733C355.392 150.381 355.68 150.092 356.034 149.967C356.41 149.843 356.809 149.905 357.119 150.133C360.594 152.595 365.109 153.444 369.182 152.409C372.613 151.54 375.269 149.429 376.509 146.615C377.306 144.815 377.084 142.249 375.955 139.932C374.871 137.718 373.122 136.083 371.152 135.463C367.257 134.221 367.035 134.159 363.449 135.09C363.073 135.194 362.652 135.111 362.365 134.862C362.077 134.614 361.922 134.242 361.988 133.89C363.649 123.813 366.172 115.081 369.957 106.453C364.003 92.1342 349.106 81.7263 337.596 75.4774C333.656 73.3462 328.388 70.7183 322.699 69.332C318.449 68.2974 313.314 67.718 308.046 67.718Z" fill="#151924"/>
<path d="M325.776 150.132C324.315 150.132 322.832 149.967 321.393 149.615C311.056 147.153 304.991 136.497 307.869 125.84C309.263 120.709 312.517 116.322 317.032 113.508C321.57 110.673 326.86 109.784 331.885 110.963C336.909 112.163 341.093 115.308 343.638 119.819C346.162 124.288 346.781 129.586 345.387 134.738C343.992 139.869 340.739 144.256 336.245 147.07C332.991 149.077 329.406 150.132 325.776 150.132ZM327.502 112.639C324.337 112.639 321.172 113.55 318.316 115.329C314.288 117.833 311.388 121.764 310.126 126.378C307.559 135.876 312.849 145.353 321.968 147.505C326.351 148.539 330.977 147.753 334.961 145.27C338.99 142.766 341.89 138.835 343.151 134.22C344.413 129.606 343.86 124.847 341.602 120.854C339.366 116.881 335.714 114.129 331.331 113.094C330.048 112.784 328.764 112.639 327.502 112.639Z" fill="#151924"/>
<path d="M274.866 133.765C273.405 133.765 271.922 133.6 270.483 133.248C265.458 132.048 261.275 128.903 258.729 124.392C256.206 119.922 255.586 114.625 256.981 109.473C258.375 104.342 261.629 99.955 266.122 97.1409C270.66 94.3062 275.95 93.4164 280.975 94.5959C291.312 97.0582 297.377 107.714 294.499 118.371C293.105 123.502 289.851 127.889 285.357 130.703C282.104 132.731 278.496 133.765 274.866 133.765ZM276.592 96.2719C273.427 96.2719 270.261 97.1823 267.406 98.9618C263.378 101.465 260.478 105.397 259.216 110.011C257.955 114.625 258.508 119.384 260.766 123.378C263.001 127.351 266.654 130.103 271.036 131.137C275.419 132.172 280.045 131.386 284.029 128.903C288.058 126.399 290.957 122.468 292.219 117.853C294.787 108.356 289.497 98.879 280.377 96.7271C279.138 96.4167 277.876 96.2719 276.592 96.2719Z" fill="#151924"/>
<path d="M409.371 59.1893C418.348 43.6422 412.143 24.2357 395.512 15.8438C378.88 7.45191 358.121 13.2523 349.143 28.7995C340.166 44.3466 346.371 63.7531 363.003 72.145C379.634 80.5369 400.394 74.7365 409.371 59.1893Z" fill="#ACD4F7"/>
<path d="M379.341 77.0909C378.367 77.0909 377.371 77.0495 376.375 76.9874C356.941 75.4976 342.42 59.503 344.014 41.315C344.789 32.5211 349.194 24.5134 356.387 18.8025C363.603 13.0916 372.745 10.3396 382.174 11.0638C391.582 11.788 400.148 15.9057 406.257 22.6305C412.366 29.3759 415.31 37.9216 414.535 46.7362C413.761 55.5302 409.356 63.5379 402.162 69.2488C395.721 74.3389 387.708 77.0909 379.341 77.0909ZM379.23 13.1123C371.417 13.1123 363.935 15.6781 357.915 20.4578C351.186 25.7963 347.069 33.266 346.36 41.5012C344.877 58.4891 358.424 73.4285 376.596 74.8355C385.384 75.5183 393.95 72.9526 400.679 67.6141C407.408 62.2757 411.525 54.806 412.233 46.5707C412.964 38.3354 410.219 30.3484 404.508 24.0582C398.798 17.7679 390.807 13.9193 381.997 13.2571C381.068 13.1537 380.138 13.1123 379.23 13.1123Z" fill="#151924"/>
<path d="M361.501 134.862C358.38 120.171 357.029 109.908 360.394 94.6788C323.606 100.141 294.211 92.2372 266.122 80.6498C267.45 75.8908 272.718 66.2278 276.548 62.6688C285.955 53.9576 296.004 47.1087 316.279 46.281C330.49 45.7016 348.153 48.3708 360.482 54.9715C372.723 61.5307 381.112 72.2283 386.867 83.4639C391.449 92.4027 393.198 104.963 391.028 115.908C389.191 125.302 384.189 130.868 376.242 138.193C374.405 136.145 372.701 134.138 369.779 133.62C366.879 133.124 364.577 133.765 361.501 134.862Z" fill="#ACD4F7"/>
<path d="M376.265 139.29C376.242 139.29 376.22 139.29 376.22 139.29C375.888 139.269 375.6 139.145 375.379 138.896L375.158 138.648C373.453 136.765 371.993 135.131 369.602 134.696C367.123 134.262 365.153 134.717 361.921 135.855C361.611 135.958 361.257 135.938 360.947 135.793C360.66 135.648 360.438 135.358 360.372 135.048C357.583 121.826 355.834 111.19 358.955 95.9613C320.419 101.3 290.205 91.7402 265.657 81.6219C265.148 81.415 264.86 80.8771 264.993 80.3598C266.388 75.3524 271.833 65.4825 275.729 61.8821C284.339 53.9158 294.543 46.0737 316.213 45.184C328.963 44.6667 347.423 46.7151 361.036 53.9986C372.037 59.8957 381.068 69.6415 387.885 82.9669C392.688 92.3609 394.326 105.045 392.157 116.094C390.165 126.192 384.388 132.172 377.061 138.959C376.862 139.186 376.574 139.29 376.265 139.29ZM367.787 132.379C368.495 132.379 369.248 132.441 370.023 132.586C372.9 133.082 374.693 134.82 376.353 136.62C384.189 129.275 388.262 124.123 389.922 115.742C391.98 105.293 390.386 92.8161 385.849 83.9601C379.253 71.0278 370.532 61.6131 359.951 55.9436C346.759 48.8878 328.786 46.9014 316.368 47.398C295.517 48.2463 285.689 55.7988 277.411 63.4754C274.024 66.5998 269.199 75.1868 267.561 80.0701C291.975 90.0434 322.034 99.3133 360.261 93.6231C360.637 93.561 361.014 93.6852 361.279 93.9542C361.545 94.2025 361.656 94.5749 361.567 94.9267C358.203 110.094 359.73 120.605 362.408 133.434C364.201 132.813 365.905 132.379 367.787 132.379Z" fill="#151924"/>
<path d="M304.083 164.348C299.767 164.348 296.159 162.568 294.411 159.589C294.101 159.071 294.322 158.409 294.875 158.119C295.429 157.83 296.137 158.037 296.447 158.554C297.819 160.892 300.785 162.258 304.327 162.196C308.311 162.134 312.229 160.582 315.306 157.85C315.77 157.437 316.501 157.457 316.944 157.892C317.386 158.326 317.364 159.009 316.899 159.423C313.38 162.527 308.931 164.265 304.371 164.348C304.26 164.348 304.172 164.348 304.083 164.348Z" fill="#151924"/>
<path d="M325.444 130.786C325.864 129.255 324.802 127.683 323.053 127.269C321.326 126.855 319.578 127.765 319.157 129.296C318.737 130.828 319.799 132.4 321.548 132.814C323.296 133.228 325.045 132.317 325.444 130.786Z" fill="#151924"/>
<path d="M280.001 116.487C280.422 114.956 279.359 113.384 277.611 112.97C275.884 112.556 274.135 113.466 273.715 114.998C273.294 116.529 274.357 118.101 276.105 118.515C277.854 118.929 279.581 118.019 280.001 116.487Z" fill="#151924"/>
<path d="M289.918 139.787C289.63 139.787 289.364 139.683 289.143 139.497L285.69 136.559C285.269 136.186 284.472 135.524 284.495 134.51C284.517 133.29 285.646 132.627 286.243 132.276C290.914 129.565 294.035 124.972 294.588 120.006C294.654 119.405 295.23 118.992 295.85 119.033C296.492 119.095 296.956 119.633 296.89 120.212C296.27 125.861 292.729 131.055 287.461 134.117C287.328 134.2 286.952 134.407 286.819 134.552C286.863 134.593 286.974 134.717 287.239 134.945L290.692 137.883C291.157 138.297 291.201 138.98 290.759 139.414C290.56 139.663 290.25 139.787 289.918 139.787Z" fill="#151924"/>
<path d="M311.232 119.674C310.812 119.674 310.413 119.467 310.192 119.095C308.333 115.764 304.481 113.281 300.364 112.784C298.284 112.536 295.871 113.032 295.295 114.481C295.074 115.039 294.41 115.329 293.812 115.122C293.215 114.915 292.905 114.295 293.126 113.736C294.189 111.108 297.686 110.28 300.652 110.653C305.5 111.232 310.059 114.17 312.251 118.122C312.538 118.66 312.317 119.302 311.764 119.592C311.609 119.633 311.41 119.674 311.232 119.674Z" fill="#151924"/>
<path d="M360.505 134.551C360.372 134.551 360.217 134.531 360.085 134.469L345.343 129.047C344.745 128.82 344.458 128.199 344.679 127.64C344.922 127.082 345.586 126.813 346.184 127.02L360.926 132.441C361.523 132.668 361.811 133.289 361.59 133.848C361.413 134.303 360.97 134.551 360.505 134.551Z" fill="#151924"/>
<path d="M359.132 145.105C358.977 145.105 358.844 145.084 358.689 145.022C358.092 144.794 357.804 144.153 358.048 143.615C359.508 140.263 360.239 136.6 360.128 133C360.106 132.4 360.615 131.903 361.257 131.883C361.877 131.883 362.43 132.338 362.452 132.938C362.541 136.849 361.766 140.821 360.195 144.422C360.04 144.856 359.597 145.105 359.132 145.105Z" fill="#151924"/>
<path d="M389.723 329.757C404.044 321.977 427.817 294.354 421.309 271.965C417.834 260.047 411.725 217.112 344.767 213.098C343.417 233.044 322.61 242.066 309.307 243.535C302.069 244.342 274.799 243.576 274.799 213.967C256.737 214.898 233.916 217.505 198.811 230.582C172.205 240.493 126.828 247.032 126.828 247.032C126.828 247.032 80.9653 192.178 64.4971 169.687C55.4661 157.334 39.1307 208.525 29.0373 186.902C27.51 183.633 76.0293 274.324 79.9693 281.194C100.577 317.053 195.712 294.354 214.106 294.354C212.313 319.329 223.712 334.102 233.009 341.676C235.864 399.343 220.79 439.257 220.79 439.257C220.79 439.257 305.168 468.557 392.512 444.43C399.196 442.63 375.778 392.143 389.723 329.757Z" fill="white"/>
<path d="M318.714 455.045C301.671 455.045 286.309 453.7 273.714 452.003C241.951 447.72 220.591 440.375 220.37 440.313C219.772 440.106 219.462 439.485 219.683 438.926C219.838 438.533 234.58 398.743 231.858 342.234C223.911 335.634 211.427 321.067 212.866 295.512C209.015 295.678 202.684 296.526 194.893 297.582C160.252 302.279 95.7511 311.011 78.9287 281.753C76.8924 278.214 63.4344 253.198 50.4192 228.989C41.7424 212.849 32.8221 196.255 29.4134 190.006C28.9043 189.261 28.4173 188.392 27.9525 187.399C27.5541 186.571 28.1296 186.054 28.4837 185.888C29.5019 185.433 29.9225 186.198 30.5201 187.254C30.7415 187.668 31.0513 188.226 31.4276 188.909C32.4458 190.357 33.5304 191.144 34.6593 191.247C38.4443 191.599 43.4911 184.833 47.9401 178.874C52.8098 172.356 57.0154 166.707 61.2431 166.707H61.2652C62.8589 166.707 64.2756 167.535 65.4487 169.128C80.8766 190.192 122.667 240.349 127.315 245.915C133.048 245.046 173.931 238.714 198.368 229.61C233.407 216.574 256.626 213.863 274.733 212.932C275.042 212.911 275.352 213.015 275.596 213.222C275.817 213.429 275.95 213.718 275.95 214.008C275.95 223.712 278.938 231.099 284.848 236.003C292.551 242.397 303.751 243.08 309.174 242.48C320.485 241.218 342.221 233.438 343.594 213.036C343.616 212.746 343.749 212.477 343.992 212.291C344.213 212.104 344.523 212.001 344.833 212.022C407.917 215.808 417.878 254.274 421.641 268.758C421.928 269.875 422.194 270.848 422.415 271.676C429.1 294.643 405.239 322.267 390.741 330.44C381.776 371.078 388.837 407.268 392.644 426.76C395.035 439.009 396.119 444.596 392.821 445.506C366.968 452.666 341.358 455.045 318.714 455.045ZM222.229 438.637C226.877 440.147 246.533 446.168 274.113 449.872C303.198 453.783 347.268 455.831 392.179 443.437C392.179 443.437 392.821 443.106 392.489 439.526C392.224 436.588 391.405 432.429 390.364 427.153C386.513 407.454 379.363 370.768 388.594 329.53C388.66 329.219 388.859 328.971 389.147 328.805C403.601 320.943 426.378 293.505 420.202 272.234C419.958 271.386 419.693 270.393 419.405 269.255C415.443 253.964 406.213 218.312 345.851 214.256C343.704 235.258 321.238 243.307 309.484 244.611C307.89 244.797 293.613 246.101 283.343 237.597C277.167 232.465 273.914 224.913 273.67 215.125C255.94 216.098 233.208 218.953 199.253 231.596C172.824 241.424 127.47 248.046 127.028 248.129C126.607 248.191 126.186 248.025 125.943 247.715C125.478 247.156 79.8584 192.571 63.5672 170.307C62.4826 168.838 61.5973 168.838 61.2874 168.838C58.277 168.838 53.828 174.818 49.888 180.074C44.5978 187.15 39.6175 193.834 34.4601 193.378C34.2609 193.358 34.0617 193.337 33.8624 193.296C34.77 194.972 35.8103 196.896 36.9613 199.048C41.1226 206.745 46.7227 217.174 52.522 227.996C64.9175 251.067 78.973 277.2 80.9873 280.718C97.035 308.631 160.495 300.044 194.583 295.43C203.37 294.25 210.298 293.298 214.106 293.298C214.438 293.298 214.725 293.423 214.947 293.65C215.168 293.878 215.279 294.167 215.257 294.457C213.397 320.218 226.058 334.62 233.761 340.889C234.005 341.075 234.137 341.365 234.16 341.655C236.749 393.839 224.531 431.974 222.229 438.637Z" fill="#151924"/>
<path d="M36.0319 32.2528L232.987 40.8192L207.045 219.223L9.07178 215.829L36.0319 32.2528Z" fill="#E9F3FF"/>
<path d="M207.045 220.319C207.022 220.319 207.022 220.319 207.045 220.319L9.07158 216.925C8.73955 216.925 8.42967 216.78 8.20832 216.553C7.98698 216.325 7.89844 216.015 7.94271 215.704L34.9028 32.1281C34.9913 31.5694 35.5004 31.1763 36.0981 31.1969L233.053 39.7633C233.385 39.784 233.673 39.9288 233.894 40.1564C234.093 40.384 234.204 40.6944 234.16 41.0048L208.196 219.408C208.107 219.905 207.62 220.319 207.045 220.319ZM10.3997 214.773L206.026 218.125L231.681 41.8532L37.0499 33.3903L10.3997 214.773Z" fill="#151924"/>
<path d="M256.029 243.535C249.919 237.824 242.947 232.465 236.506 218.539C232.411 209.642 218.643 190.068 213.574 187.667C205.074 183.653 199.939 180.011 191.949 178.998C185.286 178.149 172.138 179.763 171.762 181.936C170.589 188.723 188.009 184.419 189.492 184.895C194.649 186.591 199.718 188.516 204.322 193.978C197.194 194.227 184.733 195.737 181.545 197.579C178.203 199.524 169.526 209.58 168.552 211.38C166.826 214.484 168.619 217.546 172.758 214.298C172.979 214.132 181.39 208.587 184.423 205.09C185.64 203.683 198.191 202.586 203.923 203.641C198.013 201.82 186.813 203.041 184.356 205.131C183.781 205.628 174.506 215.084 173.909 216.036C171.474 220.029 175.613 221.519 178.911 219.222C182.63 216.615 186.548 212.373 187.522 211.918C192.79 209.394 198.213 210.842 202.75 211.339C198.323 210.532 193.188 209.704 187.765 211.649C186.791 212.001 176.875 219.388 179.177 223.05C180.416 225.016 185.109 223.961 190.886 217.939C194.295 218.394 196.243 219.139 199.098 219.781C201.09 220.215 207.841 234.244 215.5 238.321C217.049 239.148 222.251 251.294 231.636 267.744C233.65 271.303 242.991 276.848 253.217 263.564C256.87 258.785 261.806 248.956 256.029 243.535Z" fill="white"/>
<path d="M239.782 273.062C239.538 273.062 239.295 273.062 239.051 273.042C234.957 272.793 231.791 270.372 230.574 268.262C226.081 260.399 222.517 253.447 219.927 248.377C217.647 243.949 215.522 239.769 214.836 239.231C209.812 236.562 205.34 230.024 202.064 225.264C200.758 223.361 199.275 221.209 198.722 220.836C197.77 220.63 196.907 220.402 196.066 220.174C194.583 219.781 193.166 219.409 191.307 219.119C187.389 223.092 183.449 225.285 180.66 225.037C179.553 224.933 178.668 224.437 178.159 223.63C177.694 222.885 177.539 222.037 177.738 221.064C176.012 221.643 174.241 221.499 173.112 220.567C172.603 220.154 171.12 218.581 172.824 215.664C170.124 217.484 168.486 216.698 167.888 216.243C166.494 215.208 166.339 213.015 167.512 210.925C168.597 208.959 177.428 198.758 180.926 196.71C184.246 194.786 195.203 193.482 201.887 193.068C197.992 189.178 193.786 187.544 189.16 186.012C188.784 185.992 187.433 186.157 186.26 186.302C180.217 187.068 174.108 187.606 171.607 185.205C170.987 184.605 170.301 183.529 170.589 181.833C171.209 178.253 186.327 177.26 192.059 177.984C198.301 178.77 202.928 181.15 208.306 183.902C210.099 184.812 211.959 185.764 214.039 186.757C219.462 189.323 233.363 209.125 237.524 218.167C243.124 230.334 249.012 235.693 254.679 240.887C255.387 241.528 256.095 242.19 256.781 242.832C263.112 248.75 258.043 259.075 254.059 264.268C248.569 271.407 243.368 273.062 239.782 273.062ZM190.864 216.864C190.908 216.864 190.975 216.864 191.019 216.884C193.343 217.195 195.048 217.65 196.686 218.084C197.527 218.312 198.39 218.54 199.32 218.747C200.471 218.995 201.511 220.485 204.012 224.106C206.978 228.43 211.45 234.969 216.031 237.41C217.094 237.969 218.311 240.287 222.008 247.467C224.598 252.515 228.161 259.447 232.61 267.269C233.385 268.613 235.753 270.703 239.184 270.91C242.195 271.097 246.909 269.876 252.222 262.965C255.542 258.661 260.412 249.225 255.188 244.342C254.502 243.701 253.793 243.059 253.107 242.418C247.529 237.328 241.221 231.555 235.444 219.016C231.238 209.87 217.581 190.834 213.043 188.702C210.918 187.709 209.059 186.737 207.244 185.806C201.865 183.054 197.593 180.881 191.794 180.136C185.109 179.288 174.086 180.964 172.891 182.267C172.78 183.095 173.068 183.467 173.289 183.695C175.193 185.516 182.453 184.605 185.972 184.171C188.429 183.86 189.293 183.778 189.89 183.964C195.291 185.743 200.537 187.813 205.23 193.399C205.495 193.71 205.562 194.144 205.362 194.517C205.185 194.889 204.787 195.137 204.344 195.137C196.486 195.406 184.821 197 182.143 198.572C179.066 200.352 170.545 210.16 169.548 211.939C168.84 213.243 168.951 214.298 169.327 214.567C169.593 214.774 170.545 214.67 172.005 213.532C172.028 213.512 172.182 213.408 172.426 213.243C176.875 210.222 179.664 208.049 181.413 206.518C182.564 205.359 183.405 204.531 183.56 204.387C186.57 201.842 198.39 200.848 204.278 202.669C204.853 202.855 205.185 203.414 205.03 203.973C204.875 204.531 204.278 204.863 203.68 204.759C197.903 203.704 186.482 204.925 185.264 205.876C184.799 206.414 184.091 207.118 183.029 208.07C180.151 210.987 175.37 215.953 174.905 216.615C174.263 217.671 174.152 218.56 174.639 218.954C175.259 219.45 176.787 219.388 178.203 218.395C178.712 218.043 179.243 217.629 179.753 217.215C182.342 213.988 186.504 210.967 187.323 210.677C188.186 210.367 189.049 210.118 189.89 209.932C191.395 209.56 192.878 209.415 194.339 209.415C197.571 209.353 200.515 209.87 202.928 210.304C203.547 210.408 203.946 210.967 203.857 211.546C203.769 212.125 203.171 212.518 202.573 212.456C201.799 212.374 201.002 212.249 200.183 212.146C198.191 211.856 196.177 211.587 194.14 211.587C192.989 211.629 191.816 211.753 190.643 212.001C189.78 212.208 188.894 212.518 188.031 212.932C187.743 213.098 186.725 214.05 185.817 214.898C184.6 216.036 183.051 217.464 181.435 218.767C180.815 219.554 180.35 220.361 180.129 221.085C179.93 221.706 179.952 222.202 180.173 222.554C180.262 222.678 180.417 222.864 180.904 222.906C182.475 223.071 185.795 221.664 190.001 217.257C190.222 216.988 190.532 216.864 190.864 216.864Z" fill="#151924"/>
<path d="M218.666 51.9508C218.643 51.9508 218.643 51.9508 218.621 51.9508L209.347 51.5783C208.705 51.5576 208.218 51.0403 208.24 50.4403C208.262 49.8402 208.816 49.385 209.458 49.4057L218.732 49.7781C219.374 49.7988 219.861 50.3161 219.839 50.9162C219.794 51.4956 219.285 51.9508 218.666 51.9508ZM200.139 51.2266C200.117 51.2266 200.117 51.2266 200.095 51.2266L190.82 50.8541C190.178 50.8334 189.691 50.3161 189.713 49.7161C189.736 49.116 190.311 48.6608 190.931 48.6815L200.205 49.0539C200.847 49.0746 201.334 49.5919 201.312 50.192C201.268 50.7714 200.736 51.2266 200.139 51.2266ZM181.59 50.4817C181.568 50.4817 181.568 50.4817 181.546 50.4817L172.271 50.1092C171.629 50.0885 171.142 49.5712 171.164 48.9712C171.187 48.3711 171.74 47.9159 172.382 47.9366L181.656 48.309C182.298 48.3297 182.785 48.847 182.763 49.4471C182.719 50.0265 182.21 50.4817 181.59 50.4817ZM163.063 49.7575C163.041 49.7575 163.041 49.7575 163.019 49.7575L153.744 49.385C153.103 49.3643 152.616 48.847 152.638 48.247C152.66 47.6469 153.213 47.171 153.855 47.2124L163.13 47.5848C163.771 47.6055 164.258 48.1228 164.236 48.7229C164.192 49.3023 163.683 49.7575 163.063 49.7575ZM144.536 49.0332C144.514 49.0332 144.514 49.0332 144.492 49.0332L135.218 48.6608C134.576 48.6401 134.089 48.1228 134.111 47.5228C134.133 46.9227 134.686 46.4675 135.328 46.4882L144.603 46.8606C145.245 46.8813 145.732 47.3986 145.71 47.9987C145.665 48.578 145.156 49.0332 144.536 49.0332ZM125.988 48.2884C125.965 48.2884 125.965 48.2884 125.943 48.2884L116.669 47.9159C116.027 47.8952 115.54 47.3779 115.562 46.7779C115.584 46.1778 116.138 45.7226 116.779 45.7433L126.054 46.1157C126.696 46.1364 127.183 46.6537 127.161 47.2538C127.116 47.8331 126.607 48.2884 125.988 48.2884ZM107.461 47.5641C107.439 47.5641 107.439 47.5641 107.416 47.5641L98.142 47.1917C97.5001 47.171 97.0131 46.6537 97.0353 46.0537C97.0574 45.4536 97.6108 44.9984 98.2527 45.0191L107.527 45.3915C108.169 45.4122 108.656 45.9295 108.634 46.5296C108.59 47.1089 108.081 47.5641 107.461 47.5641ZM88.934 46.8399C88.9118 46.8399 88.9118 46.8399 88.8897 46.8399L79.6152 46.4675C78.9733 46.4468 78.4864 45.9295 78.5085 45.3295C78.5306 44.7294 79.084 44.2535 79.7259 44.2949L89.0004 44.6673C89.6423 44.688 90.1293 45.2053 90.1071 45.8054C90.0629 46.3847 89.5537 46.8399 88.934 46.8399ZM70.3851 46.095C70.3629 46.095 70.3629 46.095 70.3408 46.095L61.0664 45.7226C60.4244 45.7019 59.9375 45.1846 59.9596 44.5846C59.9818 43.9845 60.5351 43.5086 61.177 43.55L70.4515 43.9224C71.0934 43.9431 71.5803 44.4604 71.5582 45.0605C71.5361 45.6398 71.0048 46.095 70.3851 46.095ZM51.8583 45.3708C51.8362 45.3708 51.8362 45.3708 51.814 45.3708L42.5396 44.9984C41.8977 44.9777 41.4107 44.4604 41.4329 43.8603C41.455 43.2603 42.0084 42.8051 42.6503 42.8258L51.9247 43.1982C52.5666 43.2189 53.0536 43.7362 53.0315 44.3362C52.9872 44.9156 52.4781 45.3708 51.8583 45.3708Z" fill="#151924"/>
<path d="M159.831 207.345L150.535 207.221C149.893 207.221 149.384 206.724 149.384 206.124C149.384 205.524 149.893 205.048 150.557 205.048L159.831 205.172C160.473 205.172 160.982 205.669 160.982 206.269C160.982 206.869 160.473 207.345 159.831 207.345ZM141.282 207.096L131.986 206.972C131.344 206.972 130.835 206.476 130.835 205.876C130.835 205.276 131.388 204.779 132.008 204.8L141.282 204.924C141.924 204.924 142.433 205.42 142.433 206.021C142.433 206.621 141.924 207.096 141.282 207.096ZM122.733 206.869L113.437 206.745C112.795 206.745 112.286 206.248 112.286 205.648C112.286 205.048 112.817 204.572 113.437 204.572C113.437 204.572 113.437 204.572 113.459 204.572L122.733 204.696C123.375 204.696 123.884 205.193 123.884 205.793C123.884 206.393 123.375 206.869 122.733 206.869ZM104.185 206.621L94.888 206.496C94.2461 206.496 93.737 206 93.737 205.4C93.737 204.8 94.2682 204.324 94.888 204.324C94.888 204.324 94.888 204.324 94.9101 204.324L104.185 204.448C104.826 204.448 105.336 204.945 105.336 205.545C105.336 206.145 104.826 206.621 104.185 206.621ZM85.6356 206.393L76.3391 206.269C75.6972 206.269 75.188 205.772 75.188 205.172C75.188 204.572 75.7414 204.117 76.3612 204.096L85.6356 204.22C86.2775 204.22 86.7867 204.717 86.7867 205.317C86.7867 205.917 86.2775 206.393 85.6356 206.393ZM67.0867 206.145L57.7901 206.021C57.1482 206.021 56.6392 205.524 56.6392 204.924C56.6392 204.324 57.1704 203.848 57.7901 203.848C57.7901 203.848 57.7902 203.848 57.8123 203.848L67.0867 203.972C67.7287 203.972 68.2377 204.469 68.2377 205.069C68.2377 205.669 67.7287 206.145 67.0867 206.145ZM48.56 205.896C48.5378 205.896 48.5378 205.896 48.56 205.896L39.2634 205.772C38.6215 205.772 38.1124 205.276 38.1124 204.676C38.1124 204.075 38.6657 203.579 39.2855 203.6L48.56 203.724C49.2019 203.724 49.711 204.22 49.711 204.82C49.6888 205.42 49.1797 205.896 48.56 205.896ZM30.0111 205.669C29.9889 205.669 29.9889 205.669 30.0111 205.669L20.7145 205.545C20.0726 205.545 19.5635 205.048 19.5635 204.448C19.5635 203.848 20.0947 203.372 20.7145 203.372C20.7145 203.372 20.7145 203.372 20.7366 203.372L30.0111 203.496C30.653 203.496 31.1621 203.993 31.1621 204.593C31.1621 205.193 30.6308 205.669 30.0111 205.669Z" fill="#151924"/>
<path d="M321.481 297.872C321.415 297.872 321.371 297.872 321.304 297.872C318.117 297.52 269.133 256.923 255.21 244.322C254.745 243.908 254.745 243.225 255.188 242.79C255.63 242.356 256.361 242.356 256.826 242.77C273.382 257.75 317.696 293.94 321.658 295.72C326.395 295.368 368.031 265.572 383.746 254.316C384.255 253.943 384.986 254.047 385.362 254.522C385.76 254.998 385.65 255.681 385.141 256.033C342.686 286.408 325.266 297.872 321.481 297.872Z" fill="#151924"/>
<path d="M313.889 366.443C311.41 366.443 309.174 366.132 307.204 365.512C292.905 361.042 248.392 303.354 233.761 284.4L232.079 282.207C228.471 277.531 224.841 267.682 227.741 262.136C228.028 261.598 228.715 261.371 229.29 261.64C229.866 261.909 230.109 262.55 229.821 263.088C227.453 267.64 230.684 276.703 233.96 280.924L235.665 283.118C274.622 333.605 298.948 360.628 307.957 363.443C322.101 367.85 352.204 354.317 397.47 323.239C397.979 322.887 398.709 322.99 399.086 323.466C399.462 323.942 399.351 324.625 398.842 324.977C358.358 352.807 330.424 366.443 313.889 366.443Z" fill="#151924"/>
<path d="M239.981 280.676C239.782 280.676 239.627 280.552 239.605 280.366C239.583 280.159 239.716 279.993 239.937 279.952C248.149 278.897 254.347 272.917 260.5 266.337C260.633 266.192 260.876 266.171 261.053 266.295C261.208 266.419 261.231 266.647 261.098 266.813C254.856 273.475 248.547 279.559 240.07 280.655C240.026 280.676 240.003 280.676 239.981 280.676Z" fill="#151924"/>
<path d="M244.629 286.574C244.452 286.574 244.297 286.449 244.253 286.284C244.208 286.098 244.341 285.891 244.54 285.849C247.971 285.146 251.137 283.553 253.66 281.277C253.815 281.132 254.058 281.132 254.213 281.277C254.368 281.421 254.346 281.649 254.213 281.794C251.579 284.173 248.303 285.808 244.717 286.553C244.695 286.574 244.651 286.574 244.629 286.574Z" fill="#151924"/>
<path d="M320.529 442.154C279.248 442.154 242.77 434.974 229.069 431.912C228.87 431.87 228.737 431.663 228.781 431.477C228.825 431.291 229.047 431.167 229.246 431.208C249.853 435.822 321.946 449.727 384.344 434.498C384.543 434.436 384.764 434.56 384.809 434.746C384.853 434.933 384.742 435.139 384.543 435.181C363.537 440.312 341.425 442.154 320.529 442.154Z" fill="#151924"/>
<path d="M223.69 62.6685C223.668 62.6685 223.668 62.6685 223.69 62.6685L37.4705 54.309C37.2492 54.309 37.0942 54.1228 37.0942 53.9366C37.0942 53.7297 37.2492 53.5848 37.4927 53.5848L223.69 61.9443C223.911 61.9443 224.066 62.1305 224.066 62.3167C224.066 62.5236 223.889 62.6685 223.69 62.6685Z" fill="#151924"/>
<path d="M175.06 197.164L20.7147 194.35C20.4933 194.35 20.3384 194.185 20.3384 193.978C20.3384 193.771 20.4933 193.626 20.7368 193.626L175.06 196.44C175.281 196.44 175.436 196.605 175.436 196.812C175.436 196.999 175.281 197.164 175.06 197.164Z" fill="#151924"/>
<path d="M213.553 296.547C213.42 296.547 213.265 296.526 213.132 296.464C212.534 296.257 212.247 295.616 212.468 295.057L220.99 274.552C221.211 273.993 221.897 273.724 222.495 273.931C223.093 274.138 223.38 274.779 223.159 275.338L214.637 295.843C214.46 296.298 214.017 296.547 213.553 296.547Z" fill="#151924"/>
<path d="M2.49804 109.721C0.52805 100.203 5.48623 82.636 9.69183 79.0563C16.7528 73.0765 20.6706 68.2967 28.0858 65.3585C34.2835 62.8962 47.4094 61.1995 48.3833 63.1859C51.4379 69.4347 33.4203 69.6003 32.1364 70.4279C27.6431 73.3455 23.3047 76.4492 20.405 82.8429C27.3553 81.3117 39.7951 79.6771 43.3809 80.6703C47.1438 81.7256 58.3661 89.278 59.827 90.7471C62.3725 93.3129 61.4871 96.7063 56.5953 94.6165C56.3297 94.513 46.6568 91.2437 42.739 88.6366C41.1453 87.5813 28.772 89.6298 23.526 92.0714C28.7056 88.8435 39.8393 87.2502 42.8275 88.6573C43.5358 88.9883 55.1566 95.7959 55.9755 96.5822C59.4507 99.8308 55.887 102.293 52.0577 100.886C47.7414 99.2928 42.7611 96.1683 41.6986 95.9614C35.8993 94.8441 31.074 97.5547 26.8684 99.1686C30.919 97.3064 35.6337 95.2372 41.4109 95.7545C42.4512 95.8373 54.0941 100.534 52.9209 104.631C52.279 106.825 47.4537 106.99 40.1935 102.603C37.0282 103.886 35.3681 105.086 32.8005 106.411C31.0076 107.342 28.4842 122.509 22.2422 128.344C20.9805 129.523 19.8959 140.304 18.7228 150.174C17.3283 161.492 4.5787 119.86 2.49804 109.721Z" fill="white"/>
<path d="M126.656 106.024L133.966 64.5078L220.105 68.4623L213.836 111.46L126.656 106.024Z" fill="#E9F3FF" stroke="black"/>
<path d="M21.8759 184.502L28.1397 143L170.358 146.971L162.008 187.978L21.8759 184.502Z" fill="#E9F3FF" stroke="black"/>
<path d="M17.6378 153.216C16.4647 153.216 14.4283 152.409 8.49618 134.655C5.17597 124.723 2.25419 114.274 1.34666 109.929C-0.667598 100.162 4.26845 82.1811 8.89461 78.2704C10.6211 76.8013 12.1484 75.4356 13.6314 74.0907C18.0362 70.1179 21.8434 66.6624 27.6206 64.3656C32.9551 62.2344 47.8075 59.4617 49.4233 62.7517C50.198 64.3242 49.8439 65.5243 49.4012 66.2485C47.6747 69.1868 41.6319 70.18 35.5891 70.9455C34.4159 71.0904 33.0657 71.2559 32.7116 71.3801C28.6831 74.0079 25.0751 76.6151 22.4411 81.3534C29.0151 80.1119 39.9496 78.6222 43.6904 79.6774C47.6525 80.7741 59.0519 88.43 60.6677 90.0646C62.3721 91.8027 62.8591 93.9547 61.8187 95.2996C61.376 95.879 60.0037 97.0377 56.8827 95.9618C59.3618 98.362 58.3657 100.245 58.0116 100.762C57.1926 101.942 55.5325 102.521 53.6953 102.397C54.138 103.266 54.2487 104.135 54.0052 104.963C53.7396 105.873 53.0313 106.577 51.9909 106.949C49.4012 107.88 44.9521 106.742 40.0603 103.866C38.3338 104.59 37.0943 105.314 35.7662 106.059C35.0357 106.473 34.261 106.908 33.3978 107.363C32.9551 107.88 32.1361 110.322 31.4278 112.474C29.6348 117.895 27.1558 125.303 23.0166 129.151C22.1754 130.269 21.1351 139.207 20.294 146.387C20.139 147.712 19.9841 149.036 19.8292 150.36C19.7406 151.126 19.4971 153.195 17.837 153.257C17.7706 153.216 17.7042 153.216 17.6378 153.216ZM44.775 63.3724C40.7465 63.3724 33.2428 64.469 28.5281 66.3313C23.1494 68.4832 19.6521 71.6284 15.2473 75.6219C13.7642 76.9668 12.2148 78.3532 10.4662 79.843C6.7254 83.0088 1.70082 100.141 3.62654 109.494C5.57439 118.992 14.0741 145.994 17.4607 150.505C17.4829 150.381 17.505 150.236 17.5271 150.07C17.6821 148.767 17.837 147.422 17.992 146.118C19.4307 133.869 20.139 128.758 21.3786 127.599C25.0972 124.123 27.5763 116.695 29.2143 111.791C30.5866 107.694 31.1843 105.997 32.2025 105.459C33.0657 105.025 33.8183 104.59 34.5709 104.176C36.0318 103.349 37.5369 102.5 39.7061 101.611C40.0603 101.466 40.4809 101.507 40.7908 101.693C46.081 104.901 49.6889 105.418 51.1719 104.88C51.6368 104.714 51.7474 104.507 51.7917 104.363C51.9024 103.949 51.7917 103.473 51.4154 102.935C50.9949 102.293 50.3087 101.631 49.4897 101.031C47.564 100.183 45.6604 99.169 44.1552 98.3827C43.0485 97.8033 41.7868 97.1205 41.4548 97.0377C40.4809 96.8515 39.5069 96.7687 38.5773 96.7894C37.4484 96.8515 36.3417 96.9963 35.2792 97.2446C33.2871 97.7205 31.3835 98.5068 29.502 99.2931C28.7495 99.6035 28.019 99.9139 27.2886 100.183C26.7131 100.41 26.049 100.162 25.7834 99.6242C25.5178 99.0862 25.7613 98.4654 26.3368 98.1965C28.5502 97.1826 31.2285 95.9411 34.3495 95.2169C35.7662 94.8444 37.2492 94.6168 38.8208 94.6168C39.684 94.5754 40.5694 94.5961 41.4991 94.6789C42.3845 94.7616 47.2541 96.6446 50.6407 99.1276C51.2605 99.3966 51.8803 99.6449 52.4779 99.8725C54.138 100.473 55.6432 100.162 56.0858 99.5207C56.44 99.0241 56.0859 98.1965 55.1562 97.3274C54.5364 96.7894 48.4936 93.1891 44.9078 91.0785C43.6019 90.4371 42.7165 89.9198 42.0967 89.506C42.0303 89.4853 41.9418 89.4646 41.8753 89.4439C39.839 89.0508 29.1257 90.6647 24.0569 93.0235C23.5035 93.2718 22.8395 93.0856 22.5296 92.589C22.2197 92.0924 22.3747 91.4717 22.8838 91.1406C28.0411 87.9334 39.7061 85.947 43.3362 87.6644C43.5355 87.7472 44.5758 88.3472 46.0145 89.1749C48.1395 90.2095 51.4376 91.6165 56.595 93.4374C56.8827 93.5408 57.0598 93.6029 57.104 93.6236C58.8306 94.3685 59.7602 94.2237 59.9594 93.9754C60.225 93.6236 60.048 92.5683 58.9855 91.4924C57.5246 90.0233 46.5236 82.6777 43.0485 81.7259C40.016 80.8775 28.3289 82.2225 20.6703 83.9192C20.2497 84.0227 19.807 83.8778 19.5193 83.5675C19.2315 83.2571 19.1651 82.8226 19.3422 82.4501C22.2861 75.9115 26.7573 72.6216 31.472 69.5592C31.9811 69.2281 32.8665 69.104 35.3013 68.7936C38.7986 68.3591 46.081 67.428 47.3869 65.214C47.5418 64.945 47.7189 64.5104 47.3648 63.7448C46.9885 63.4965 46.0588 63.3724 44.775 63.3724Z" fill="#151924"/>
<line y1="-0.5" x2="68.4862" y2="-0.5" transform="matrix(-0.99904 -0.0438045 0.0500498 -0.998747 126.066 69.4882)" stroke="black"/>
<line y1="-0.5" x2="101.092" y2="-0.5" transform="matrix(-0.930614 0.366001 -0.409982 -0.912094 220.145 68.4882)" stroke="black"/>
<line y1="-0.5" x2="92.4384" y2="-0.5" transform="matrix(-0.86739 -0.497628 0.548333 -0.83626 213.729 110.488)" stroke="black"/>
<line y1="-0.5" x2="68.4862" y2="-0.5" transform="matrix(-0.99904 -0.0438045 0.0500498 -0.998747 120.721 78.4882)" stroke="black"/>
<line y1="-0.5" x2="62.0786" y2="-0.5" transform="matrix(-0.998832 -0.0483259 0.0552123 -0.998475 117.514 87.4882)" stroke="black"/>
<line y1="-0.5" x2="23.5648" y2="-0.5" transform="matrix(-0.771242 0.636542 -0.686182 -0.72743 46.9551 163.488)" stroke="black"/>
<line y1="-0.5" x2="13.9747" y2="-0.5" transform="matrix(0.765006 0.644023 -0.693342 0.720608 46.9551 163.488)" stroke="black"/>
<line y1="-0.5" x2="21.4845" y2="-0.5" transform="matrix(-0.79616 0.605087 -0.655772 -0.754959 74.751 159.488)" stroke="black"/>
<line y1="-0.5" x2="8.03572" y2="-0.5" transform="matrix(0.665199 0.746667 -0.788696 0.614784 74.751 159.488)" stroke="black"/>
<line y1="-0.5" x2="11.8022" y2="-0.5" transform="matrix(-0.996404 -0.0847299 0.0967324 -0.99531 91.8555 165.488)" stroke="black"/>
<line y1="-0.5" x2="7.0813" y2="-0.5" transform="matrix(0.905825 -0.423651 0.471413 0.881913 91.8555 166.488)" stroke="black"/>
<line y1="-0.5" x2="6.67628" y2="-0.5" transform="matrix(0.800647 0.599136 -0.649964 0.759965 97.2012 163.488)" stroke="black"/>
<line y1="-0.5" x2="11.8022" y2="-0.5" transform="matrix(0.905825 -0.423651 0.471413 0.881913 102.546 167.488)" stroke="black"/>
<line y1="-0.5" x2="14.6387" y2="-0.5" transform="matrix(0.730305 0.683122 -0.730305 0.683122 112.168 162.488)" stroke="black"/>
<line y1="-0.5" x2="22.345" y2="-0.5" transform="matrix(0.813343 -0.581785 0.632933 0.774207 122.859 172.488)" stroke="black"/>
<line y1="-0.5" x2="16.2659" y2="-0.5" transform="matrix(0.788696 0.614784 -0.665199 0.746667 139.964 159.488)" stroke="black"/>
<path d="M88.1963 405.415C87.8685 401.873 86.7338 398.38 84.868 395.155C83.9058 393.491 82.7384 391.888 81.2075 390.521C79.6295 389.116 77.7023 387.992 75.9619 386.715C70.4669 382.679 66.9005 377.02 66.1208 371.1C65.5079 366.444 64.6326 361.303 66.0196 356.753C67.0373 353.409 73.6199 344.068 77.5399 341.193C83.8631 336.555 93.2409 333.691 101.759 332.761C110.278 331.832 119.221 333.208 126.515 336.833C135.927 341.513 142.186 349.828 143.534 358.597C144.883 367.368 141.472 376.449 134.782 383.5C132.011 386.42 128.714 389.005 125.954 391.933C122.093 396.031 119.335 400.767 117.881 405.523C114.353 406.031 110.742 406.02 107.156 406.007C104.124 405.996 101.092 405.985 98.0603 405.975C94.8231 405.963 91.5803 405.951 88.1963 405.415Z" fill="white"/>
<path d="M86.4278 406.012C97.3167 406.852 108.308 406.841 119.193 405.98C119.807 413.311 120.4 417.784 117.927 424.861C116.72 428.319 114.543 431.832 110.59 433.553C105.901 435.596 100.126 434.585 94.9704 433.464C92.972 433.031 90.9079 432.559 89.3286 431.491C86.0928 429.304 85.9104 425.449 85.9831 422.071C86.1242 415.499 86.2653 411.948 86.4278 406.012Z" fill="#ACD4F7"/>
<path d="M108.624 435.616C107.977 435.387 107.414 435.017 107.046 434.537C108.274 434.359 109.464 434.044 110.59 433.553C111.231 433.273 111.827 432.947 112.379 432.58C112.386 432.595 112.392 432.608 112.399 432.621C112.493 432.8 112.584 432.979 112.674 433.159C111.635 433.797 110.619 434.456 109.585 435.101C109.28 435.293 108.956 435.461 108.624 435.616ZM113.971 432.383C113.906 432.252 113.839 432.123 113.77 431.993C113.71 431.879 113.623 431.787 113.518 431.72C115.689 429.863 117.059 427.348 117.927 424.861C120.4 417.784 119.807 413.311 119.192 405.98C116.186 406.219 113.171 406.391 110.152 406.499C110.212 406.328 110.288 406.163 110.376 406.003C112.893 405.979 115.408 405.877 117.881 405.521C117.91 405.429 117.938 405.337 117.967 405.247C118.002 405.243 118.036 405.239 118.071 405.236C118.377 405.205 118.682 405.172 118.989 405.139L118.996 405.145C120.147 406.199 120.163 407.721 120.397 409.043C120.614 411.135 120.763 413.252 120.377 415.337C119.436 420.148 119.191 420.983 118.25 425.355C117.647 427.381 116.886 429.441 115.737 431.333C115.153 431.687 114.561 432.035 113.971 432.383Z" fill="#DEDEDE"/>
<path d="M112.674 433.159C112.584 432.979 112.493 432.8 112.399 432.622C112.392 432.608 112.386 432.595 112.379 432.58C112.782 432.314 113.161 432.026 113.518 431.72C113.623 431.787 113.71 431.879 113.77 431.994C113.839 432.123 113.906 432.252 113.971 432.383C113.868 432.443 113.766 432.503 113.663 432.564C113.33 432.759 113 432.959 112.674 433.159Z" fill="black"/>
<path d="M138.544 378.817C142.113 373.516 144.023 367.501 143.809 361.511C144.005 361.587 144.187 361.689 144.344 361.823C145.672 363.06 144.646 365.464 144.125 367.731L144.105 367.784C143.879 368.939 143.56 370.081 143.006 371.167C142.703 371.792 142.393 372.415 142.056 373.031C142.088 372.976 142.109 372.939 142.113 372.939C142.115 372.939 142.105 372.963 142.078 373.021C141.409 374.427 141.579 374.24 140.551 376.179C139.939 377.085 139.267 377.965 138.544 378.817Z" fill="#DEDEDE"/>
<path d="M110.376 406.003C110.459 405.854 110.554 405.708 110.658 405.568L110.588 405.251C110.5 403.833 111.59 402.064 112.262 400.681C113.426 398.613 113.262 398.662 115.097 395.802C116.033 394.39 117.284 393.133 118.518 391.881L118.541 391.859C118.843 391.445 120.975 389.06 121.943 388.008C125.246 384.311 130.986 380.047 133.07 377.772C134.822 376.043 135.731 374.323 136.219 373.576C138.115 370.991 138.435 370.06 139.944 366.86C140.093 366.587 140.169 366.449 140.167 366.449C140.167 366.449 140.102 366.566 139.974 366.798C140.132 366.426 140.557 364.777 140.685 364.28C140.712 364.119 140.738 363.958 140.759 363.796C140.966 362.554 140.81 362.972 141.262 362.112C141.62 361.623 142.294 361.363 142.965 361.363C143.255 361.363 143.544 361.411 143.809 361.511C144.023 367.501 142.113 373.516 138.544 378.817C137.054 380.575 135.347 382.216 133.499 383.738C130.608 386.256 127.567 388.675 124.837 391.306C120.67 395.831 118.812 399.235 116.48 405.375C116.976 405.338 117.472 405.295 117.966 405.247C117.938 405.337 117.909 405.429 117.881 405.521C115.408 405.877 112.893 405.979 110.376 406.003Z" fill="#DEDEDE"/>
<path d="M107.046 434.538C106.667 434.043 106.496 433.433 106.657 432.735C106.674 432.097 107.206 431.583 107.549 431.03C108.986 428.783 108.284 430.173 109.286 427.859C111.03 423.039 110.63 425.086 110.931 419.749C111.191 414.606 111.2 411.357 110.158 408.555C109.911 407.815 109.933 407.122 110.152 406.499C113.171 406.391 116.186 406.219 119.192 405.981C119.807 413.311 120.4 417.785 117.927 424.862C117.059 427.349 115.689 429.863 113.518 431.721C113.161 432.026 112.782 432.314 112.379 432.581C111.827 432.947 111.231 433.274 110.59 433.554C109.464 434.045 108.274 434.359 107.046 434.538Z" fill="#96B9D7"/>
<path d="M112.036 401.082C112.137 400.898 112.237 400.713 112.338 400.53L112.262 400.682C112.191 400.809 112.117 400.939 112.036 401.082Z" fill="#DEDEDE"/>
<path d="M86.6559 406.392C86.6745 409.36 86.6916 411.742 86.7087 414.122C86.7286 416.71 86.7472 419.298 86.7671 422.642C86.7771 424.438 86.7885 426.295 87.5767 427.944C89.1148 431.156 93.7816 433.543 100.059 434.327C106.361 435.114 111.745 433.966 114.46 431.255C116.316 429.4 116.931 426.924 117.4 424.548C118.832 417.306 119.317 414.276 118.625 406.786C112.192 407.164 93.6291 406.935 86.6559 406.392ZM103.877 435.995C102.256 435.995 100.839 435.866 99.8568 435.743C96.5883 435.335 88.7143 433.814 86.1827 428.528C85.2619 426.604 85.2505 424.503 85.2391 422.648C85.2205 419.307 85.2006 416.719 85.1821 414.131C85.1635 411.543 85.1435 408.955 85.125 405.612C85.1236 405.41 85.2148 405.215 85.3759 405.079C85.5355 404.943 85.7537 404.876 85.966 404.898C92.3405 405.512 113.495 405.775 119.254 405.31C119.676 405.279 120.041 405.566 120.079 405.956C120.886 414.151 120.406 417.199 118.902 424.808C118.413 427.28 117.713 430.095 115.575 432.231C112.502 435.302 107.64 435.995 103.877 435.995Z" fill="black"/>
<path d="M117.109 406.579L116.969 406.567C116.554 406.495 116.28 406.122 116.357 405.734C117.8 398.486 123.878 392.728 129.755 387.16C135.212 381.991 140.855 376.647 142.61 370.219C143.553 366.762 143.436 358.314 140.191 351.158C137.784 345.854 134.338 341.868 129.949 339.312C121.7 334.507 107.49 331.067 96.2889 333.791C85.6338 336.382 76.9259 341.24 71.7716 347.47C67.052 353.172 65.0065 360.291 66.01 367.512C66.9494 374.276 70.4858 380.904 76.2389 386.68C77.0314 387.478 77.881 388.27 78.7006 389.038C80.4253 390.648 82.2071 392.314 83.6468 394.164C86.2482 397.504 87.6722 401.35 87.7691 405.287C87.7777 405.68 87.4441 406.008 87.0222 406.016C86.6217 406.032 86.251 405.714 86.2411 405.319C86.1527 401.675 84.8299 398.108 82.4124 395.006C81.0425 393.246 79.3035 391.62 77.6215 390.048C76.7905 389.272 75.9324 388.47 75.1213 387.655C69.1502 381.659 65.4755 374.758 64.4948 367.696C63.4385 360.095 65.5938 352.6 70.5628 346.596C75.9238 340.118 84.924 335.079 95.9055 332.408C107.52 329.583 122.229 333.132 130.756 338.099C135.418 340.814 139.065 345.02 141.596 350.6C144.98 358.058 145.084 366.927 144.089 370.572C142.232 377.375 136.442 382.86 130.843 388.164C125.127 393.579 119.215 399.179 117.858 405.995C117.791 406.339 117.469 406.579 117.109 406.579Z" fill="black"/>
<path d="M104.167 353.456C103.893 353.456 103.553 353.735 103.328 353.994C101.758 355.8 101.147 358.251 101.403 361.702C101.589 364.202 102.123 366.31 103.024 368.067C104.214 365.794 105.077 363.42 105.601 360.976C106.281 357.812 105.987 355.543 104.679 353.836C104.505 353.608 104.372 353.495 104.248 353.466L104.167 353.456ZM112.417 374.078C113.438 374.13 114.474 374.03 115.482 373.736C117.81 373.059 119.814 371.423 121.438 368.875C121.888 368.168 122.039 367.231 121.783 366.742C121.71 366.602 121.576 366.435 121.2 366.394C120.753 366.347 120.253 366.578 119.778 366.839C116.541 368.624 113.93 371.194 112.417 374.078ZM82.0859 365.924C81.4744 365.924 80.9113 366.102 80.6291 366.419C80.0532 367.066 80.7132 368.135 81.0239 368.564C83.0737 371.403 86.9622 373.232 90.2151 374.515C89.0476 372.026 87.4783 369.63 85.2803 367.55C84.6531 366.955 83.8848 366.312 82.9354 366.042C82.6575 365.962 82.3667 365.924 82.0859 365.924ZM108.18 406.196H108.17C107.748 406.191 107.41 405.867 107.416 405.472L107.417 405.356C107.491 398.476 107.872 391.288 108.546 383.99C108.827 380.951 109.179 377.983 110.251 375.207C107.692 374.632 105.376 373.316 103.868 371.779C103.601 371.507 103.348 371.223 103.108 370.93C102.775 371.456 102.424 371.978 102.056 372.494C99.9949 375.375 97.7371 376.866 95.1542 377.05C94.3545 377.108 93.572 377.026 92.8136 376.867C93.5064 378.812 94.0167 380.756 94.4429 382.611C96.1506 390.03 96.9003 397.616 96.6751 405.159C96.6637 405.554 96.3159 405.872 95.8897 405.854C95.4692 405.842 95.1371 405.514 95.1485 405.119C95.3708 397.691 94.6311 390.219 92.9505 382.911C92.463 380.796 91.8657 378.558 91.0019 376.351C90.6356 376.223 90.2806 376.088 89.9385 375.955C86.211 374.506 82.0873 372.588 79.7582 369.364C78.6934 367.891 78.5822 366.484 79.4545 365.506C80.4067 364.435 82.1571 364.324 83.3816 364.675C84.6559 365.039 85.6052 365.824 86.3664 366.546C89.099 369.131 90.9064 372.146 92.1822 375.226C93.1187 375.51 94.0766 375.696 95.0387 375.626C97.1227 375.476 99.0028 374.192 100.786 371.699C101.278 371.012 101.737 370.312 102.163 369.603C100.863 367.503 100.112 364.926 99.8795 361.8C99.6999 359.388 99.7398 355.859 102.143 353.092C102.874 352.251 103.778 351.883 104.619 352.08C105.266 352.231 105.671 352.679 105.92 353.003C107.986 355.699 107.582 359.006 107.099 361.258C106.482 364.132 105.42 366.91 103.931 369.552C104.254 370 104.609 370.42 104.994 370.812C106.367 372.212 108.498 373.406 110.83 373.876L110.998 373.542C112.633 370.371 115.476 367.554 119.003 365.608C119.673 365.239 120.48 364.874 121.381 364.975C122.186 365.064 122.816 365.468 123.152 366.111C123.72 367.188 123.341 368.679 122.749 369.607C120.927 372.467 118.635 374.315 115.935 375.1C114.567 375.499 113.156 375.592 111.78 375.455C110.698 378.118 110.358 380.974 110.067 384.114C109.396 391.375 109.018 398.527 108.944 405.372L108.942 405.49C108.938 405.882 108.597 406.196 108.18 406.196Z" fill="black"/>
<path d="M149.174 340.727C148.896 340.727 148.629 340.586 148.495 340.339C148.306 339.997 148.444 339.575 148.804 339.387L158.333 334.47C159.207 334.018 159.767 334.195 160.085 334.423C160.325 334.597 160.449 334.861 160.417 335.133C160.343 335.793 160.339 335.833 149.501 340.658L149.174 340.727Z" fill="black"/>
<path d="M88.5543 324.366C88.2649 324.366 87.9884 324.211 87.8601 323.95L83.209 314.501C83.0322 314.143 83.2004 313.719 83.5839 313.554C83.9644 313.389 84.4191 313.546 84.5959 313.903L89.2471 323.353C89.4238 323.71 89.2556 324.135 88.8722 324.301L88.5543 324.366Z" fill="black"/>
<path d="M57.2652 345.446L57.1155 345.432L46.6529 343.48C46.3792 343.429 45.5496 343.274 45.3387 342.584C45.2531 342.301 45.3315 342.012 45.5468 341.809C45.9972 341.385 46.2466 341.152 57.4676 344.042C57.8638 344.145 58.1019 344.522 58.0078 344.897C57.9237 345.224 57.6116 345.446 57.2652 345.446Z" fill="black"/>
<path d="M43.3317 382.145C43.0338 382.145 42.7516 381.981 42.6276 381.709C42.4637 381.345 42.6461 380.925 43.0338 380.773L53.887 376.487C54.2762 376.333 54.7238 376.504 54.8877 376.867C55.0516 377.231 54.8706 377.649 54.4814 377.803L43.6282 382.089L43.3317 382.145Z" fill="black"/>
<path d="M120.506 324.181L120.222 324.13C119.83 323.983 119.64 323.567 119.797 323.201L123.625 314.253C123.781 313.886 124.225 313.709 124.617 313.854C125.009 314.001 125.198 314.417 125.043 314.783L121.214 323.731C121.096 324.011 120.808 324.181 120.506 324.181Z" fill="black"/>
<path d="M162.792 375.229L162.519 375.181L151.973 371.401C151.58 371.26 151.383 370.848 151.534 370.479C151.685 370.109 152.127 369.927 152.521 370.067L163.066 373.848C163.459 373.988 163.656 374.401 163.505 374.769C163.388 375.055 163.099 375.229 162.792 375.229Z" fill="black"/>
</svg>
