<svg width="72" height="53" viewBox="0 0 72 53" fill="none" xmlns="http://www.w3.org/2000/svg">
<path d="M8.65829 1.41102C13.0071 -0.75675 18.6725 0.107684 22.157 3.47238C24.5108 5.74657 25.8275 8.88519 28.0352 11.2923C32.1712 15.8006 39.4724 16.9976 44.8319 14.0585C51.1781 10.5668 55.0539 1.39346 62.8389 1.09193C67.1877 0.918979 71.377 4.45662 71.9356 8.76538C72.4941 13.0875 69.3555 17.5694 65.0997 18.5136C58.8363 19.9398 57.2143 22.8931 63.2777 29.206C66.3792 32.4025 68.4588 35.974 65.1795 40.2842C62.1843 44.1552 55.6029 45.5906 49.9786 42.1461C40.6664 36.419 48.5641 36.9735 41.0814 47.5987C34.0282 57.7111 26.1305 50.5901 21.186 50.0324C16.558 49.4871 11.9963 52.3864 7.39483 51.6284C0.26886 50.4504 -2.522 41.552 2.68705 36.5205C6.02511 33.2888 11.358 33.1026 15.0686 30.3364C18.0826 28.0838 17.6224 25.2378 14.7094 24.1922C-3.80951 17.5436 1.64277 4.94031 8.65829 1.41102Z" fill="#E9F3FF"/>
<path d="M25.7639 11.72L17.5164 36.2118C16.503 39.2214 18.1211 42.4827 21.1307 43.4961L33.0789 47.5196C34.5242 48.0063 36.1036 47.8989 37.4696 47.2211L44.9998 43.4848C46.3658 42.807 47.4067 41.6143 47.8934 40.1691L54.2439 21.3104C55.2574 18.3008 53.6392 15.0395 50.6296 14.0261L33.0482 8.10565C30.0386 7.0922 26.7773 8.71038 25.7639 11.72Z" fill="#367DCB" stroke="#42526E" stroke-width="1.5"/>
<path d="M22.0275 7.40661L13.7801 31.8984C12.7666 34.908 14.3848 38.1693 17.3944 39.1828L29.3426 43.2063C30.7878 43.6929 32.3672 43.5856 33.7333 42.9077L41.2634 39.1715C42.6295 38.4937 43.6704 37.301 44.1571 35.8557L50.5076 16.9971C51.521 13.9875 49.9028 10.7262 46.8933 9.71271L29.3119 3.7923C26.3023 2.77884 23.041 4.39702 22.0275 7.40661Z" fill="white" stroke="#42526E" stroke-width="1.5"/>
</svg>
