<svg width="484" height="469" viewBox="0 0 484 469" fill="none" xmlns="http://www.w3.org/2000/svg">
<g clip-path="url(#clip0_9329_1218)">
<path d="M293.484 152.721C297.387 169.41 296.667 190.015 296.667 190.015L281.515 195.89C281.515 195.89 272.227 234.01 330.767 222.326C342.148 220.063 375.07 195.106 375.07 195.106L349.038 187.687C349.038 187.687 346.552 149.914 345.549 131.159C331.857 137.512 309.902 147.608 293.484 152.721Z" fill="white"/>
<path d="M310.817 225.699C316.748 225.699 323.485 224.959 331.007 223.436C342.497 221.151 374.416 197.021 375.768 195.998C376.117 195.737 376.269 195.302 376.204 194.889C376.117 194.475 375.812 194.127 375.397 193.997L350.128 186.795C349.757 181.225 347.599 148.108 346.683 131.072C346.661 130.702 346.465 130.354 346.138 130.158C345.811 129.962 345.418 129.94 345.07 130.093C333.732 135.358 310.142 146.324 293.157 151.633C292.59 151.807 292.241 152.395 292.394 152.982C295.795 167.56 295.643 185.402 295.555 189.232L281.122 194.824C280.773 194.954 280.512 195.259 280.424 195.607C280.294 196.129 277.372 208.618 285.875 217.452C291.129 222.957 299.48 225.699 310.817 225.699ZM372.541 195.585C365.477 200.829 340.011 219.345 330.549 221.216C309.444 225.437 294.967 223.653 287.51 215.929C280.839 209.01 282.081 199.197 282.517 196.738L297.082 191.081C297.518 190.907 297.801 190.515 297.801 190.058C297.801 189.863 298.455 169.954 294.814 153.483C311.101 148.283 332.838 138.274 344.481 132.878C345.506 151.938 347.86 187.382 347.882 187.752C347.904 188.231 348.253 188.644 348.711 188.775L372.541 195.585Z" fill="#151924"/>
<path d="M257.645 47.6287C252.303 48.9124 246.962 43.4946 246.853 37.7939C246.744 32.0715 250.755 26.9148 255.704 24.4126C260.654 21.9104 266.322 21.6275 271.86 20.8225C269.767 15.2741 272.405 8.61607 277.028 5.06947C281.628 1.52287 287.733 0.674298 293.401 1.37056C297.108 1.82749 300.858 2.93716 303.801 5.35233C306.745 7.7675 308.751 11.6622 308.576 15.8398C313.525 9.5952 321.549 5.4176 329.093 7.22354C336.636 9.02948 342.327 18.2332 342.916 24.5649C346.578 20.0609 351.397 16.362 357.044 16.6666C368.272 17.2759 370.801 26.7842 365.743 39.0342C371.717 36.0968 380.634 38.6643 383.469 47.3241C385.584 53.7863 383.207 64.0344 378.716 69.0824C377.931 69.9527 376.797 70.823 375.424 71.5846C373.679 81.1582 371.499 91.1888 368.185 103.852C365.787 112.991 361.644 123.108 356.804 131.442C354.515 135.358 352.749 137.251 348.148 139.405C347.887 135.445 343.744 133.465 343.112 129.527C342.327 124.675 345.445 120.41 342.523 116.102C336.942 107.921 333.148 98.9347 331.36 89.731C329.899 82.1591 329.834 74.2173 333.41 67.2329C334.674 64.7525 336.506 62.4243 338.708 60.4008C337.727 58.4426 336.963 56.419 336.331 54.4608C333.039 60.0962 330.641 63.9692 322.399 66.6672C316.382 68.6254 309.252 66.2538 307.224 60.5314C305.938 66.2973 296.955 74.4567 291.308 75.0224C285.661 75.5881 283.547 72.9989 281.257 67.581C276.243 72.0197 272.471 76.5455 267.369 78.4819C259.542 81.4411 249.861 76.5672 247.289 68.3426C244.672 60.118 249.665 50.1309 257.645 47.6287Z" fill="#367DCB"/>
<path d="M348.145 140.558C348.32 140.558 348.472 140.515 348.625 140.45C353.618 138.121 355.493 135.967 357.782 132.029C362.644 123.696 366.83 113.535 369.272 104.157C372.281 92.6466 374.57 82.5072 376.423 72.3243C377.731 71.5628 378.778 70.7142 379.541 69.8656C384.403 64.4043 386.736 53.721 384.534 46.9977C383.139 42.733 380.217 39.491 376.336 37.8592C373.545 36.6842 370.471 36.4666 367.68 37.1412C369.991 30.4396 369.926 24.7172 367.462 20.8224C365.435 17.624 361.859 15.7963 357.084 15.5352C352.418 15.2741 347.883 17.4499 343.61 21.9974C341.975 15.2958 336.306 7.76746 329.351 6.11382C322.701 4.52547 315.157 7.2235 309.532 13.033C308.965 9.7257 307.199 6.65778 304.518 4.48195C301.771 2.21909 298.064 0.783043 293.507 0.239085C286.77 -0.58773 280.665 0.804801 276.305 4.15558C271.421 7.89801 269.023 14.4255 270.353 19.8651C269.764 19.9303 269.197 20.0174 268.609 20.0826C264.052 20.6484 259.364 21.2576 255.156 23.3899C249.378 26.3273 245.585 32.115 245.694 37.8157C245.759 41.2535 247.547 44.7348 250.36 46.9106C251.297 47.6287 252.278 48.1726 253.303 48.5207C247.155 52.7418 243.862 61.3146 246.195 68.6907C247.547 72.9988 250.817 76.676 255.134 78.7648C259.255 80.7665 263.856 81.0494 267.78 79.5481C271.835 78.0032 275.084 74.9353 278.507 71.6933C279.27 70.9753 280.055 70.2355 280.862 69.4957C283.107 74.3043 285.702 76.7412 291.436 76.1755C296.821 75.6316 304.561 69.1694 307.417 63.3817C310.47 67.7768 316.771 69.7351 322.767 67.7768C330.419 65.2746 333.341 61.6845 336.066 57.1805C336.459 58.2249 336.873 59.2041 337.331 60.1614C335.303 62.1197 333.603 64.3825 332.403 66.7324C329.155 73.0859 328.435 80.6795 330.245 89.9703C332.076 99.3916 335.892 108.4 341.582 116.777C343.087 118.974 342.716 121.215 342.28 123.804C341.975 125.676 341.648 127.612 341.997 129.744C342.346 131.92 343.632 133.574 344.744 135.01C345.856 136.446 346.902 137.795 347.011 139.514C347.033 139.884 347.251 140.232 347.578 140.428C347.731 140.493 347.927 140.558 348.145 140.558ZM370.907 39.0341C372.433 39.0341 374.003 39.3387 375.464 39.948C378.734 41.3187 381.198 44.0821 382.375 47.6939C384.338 53.6557 382.179 63.4904 377.84 68.3425C377.165 69.1041 376.118 69.8874 374.832 70.6054C374.526 70.7795 374.33 71.0623 374.265 71.3887C372.39 81.6804 370.1 91.9068 367.048 103.569C364.65 112.751 360.551 122.717 355.776 130.876C353.901 134.074 352.44 135.88 348.952 137.708C348.472 136.098 347.469 134.814 346.51 133.574C345.463 132.225 344.46 130.941 344.199 129.331C343.915 127.59 344.199 125.828 344.482 124.131C344.962 121.324 345.442 118.408 343.414 115.449C337.876 107.333 334.191 98.6083 332.425 89.4916C330.725 80.723 331.357 73.6081 334.388 67.7116C335.587 65.3617 337.331 63.1206 339.446 61.2058C339.816 60.8577 339.925 60.3137 339.707 59.8568C338.835 58.1161 338.072 56.2232 337.396 54.0909C337.265 53.6557 336.873 53.3511 336.437 53.3076C336.001 53.264 335.543 53.4816 335.325 53.8733C332.251 59.1388 330.027 62.9465 322.025 65.5792C316.902 67.2546 310.165 65.4705 308.29 60.1397C308.115 59.661 307.657 59.3564 307.134 59.3781C306.633 59.3999 306.197 59.7698 306.088 60.2702C304.91 65.5792 296.407 73.347 291.174 73.8691C286.182 74.3696 284.481 72.3026 282.301 67.1241C282.148 66.7759 281.865 66.5366 281.494 66.4496C281.145 66.3625 280.753 66.4713 280.491 66.7107C279.226 67.8204 278.049 68.9518 276.915 70.0179C273.514 73.2382 270.593 76.0232 266.952 77.394C263.616 78.656 259.648 78.3949 256.094 76.676C252.344 74.87 249.509 71.6933 248.354 67.9727C245.955 60.379 250.643 51.0012 257.969 48.6948C258.557 48.5207 258.884 47.8898 258.732 47.3023C258.557 46.7148 257.969 46.3667 257.358 46.4972C255.505 46.9324 253.499 46.4319 251.733 45.0829C249.466 43.3205 248.005 40.5137 247.961 37.7504C247.852 32.1585 252.017 27.524 256.181 25.3917C260.018 23.4334 264.335 22.8895 268.87 22.3238C269.917 22.1932 270.941 22.0627 271.966 21.9103C272.315 21.8668 272.62 21.6492 272.795 21.3664C272.969 21.0618 273.013 20.7136 272.882 20.3873C271.094 15.6222 273.144 9.42109 277.678 5.93976C281.559 2.95887 287.075 1.71865 293.224 2.48019C297.345 2.98063 300.659 4.24261 303.057 6.22262C305.891 8.55075 307.57 12.2061 307.417 15.7745C307.396 16.2749 307.701 16.7101 308.159 16.8842C308.617 17.0582 309.14 16.9059 309.445 16.5143C314.656 9.96504 322.265 6.72306 328.784 8.28965C336.045 10.0303 341.212 18.973 341.735 24.6301C341.779 25.0871 342.084 25.4787 342.542 25.6093C342.978 25.7398 343.457 25.6093 343.763 25.2394C348.014 20.0391 352.44 17.5152 356.953 17.7763C360.987 17.9939 363.887 19.4081 365.522 21.9974C367.855 25.6963 367.55 31.571 364.672 38.5772C364.497 39.0124 364.606 39.5128 364.955 39.8392C365.304 40.1656 365.805 40.2308 366.241 40.035C367.659 39.3823 369.272 39.0341 370.907 39.0341Z" fill="#151924"/>
<path d="M266.317 79.7223C266.317 79.4395 266.317 79.1348 266.317 78.8302C266.666 78.7214 267.015 78.6126 267.342 78.4821C272.466 76.5456 276.216 72.0199 281.23 67.5812C283.498 72.999 285.634 75.5882 291.281 75.0225C296.928 74.4568 305.933 66.2974 307.197 60.5315C309.225 66.2539 316.355 68.6473 322.372 66.6673C330.614 63.9693 333.012 60.0963 336.304 54.4609C338.092 60.0963 341.035 66.1016 347.206 70.5186C349.473 72.1287 351.915 73.2383 354.444 73.9346C354.531 75.0443 354.64 76.1104 354.749 77.1331C355.185 80.919 356.166 89.1872 355.294 97.5206C361.704 92.2116 367.002 93.1037 370.992 97.1289C374.982 101.154 374.633 107.486 370.753 111.446C366.85 115.406 360.026 116.907 354.008 115.623C352.438 125.719 350.127 145.955 343.085 154.897C335.606 164.406 322.372 170.498 308.702 170.715C295.031 170.933 281.252 165.298 272.902 156.05C263.417 145.541 261.324 131.638 262.109 118.626C262.916 105.615 266.274 92.7773 266.317 79.7223Z" fill="white"/>
<path d="M307.896 171.89C308.158 171.89 308.441 171.89 308.703 171.89C322.744 171.651 336.261 165.428 343.98 155.637C350.477 147.369 352.962 130.441 354.619 119.235C354.728 118.452 354.837 117.69 354.946 116.994C361.226 117.952 367.766 116.124 371.56 112.273C376.03 107.725 376.139 100.741 371.8 96.3456C367.461 91.9504 362.141 91.5588 356.647 95.1271C357.127 87.751 356.32 80.8102 355.927 77.2853L355.906 77.0242C355.797 76.1104 355.709 75.1095 355.6 73.8475C355.557 73.3688 355.23 72.9772 354.772 72.8466C352.243 72.1504 349.932 71.0624 347.904 69.6046C341.472 65.0136 338.856 58.5732 337.439 54.1345C337.308 53.6993 336.915 53.3947 336.479 53.3512C336.043 53.3077 335.585 53.5253 335.367 53.9169C332.293 59.1824 330.069 62.9901 322.068 65.6229C316.944 67.2983 310.207 65.5141 308.332 60.1833C308.158 59.7046 307.7 59.4 307.176 59.4218C306.675 59.4435 306.239 59.8134 306.13 60.3138C304.953 65.6229 296.449 73.3906 291.217 73.9128C286.224 74.4132 284.523 72.3462 282.343 67.1677C282.19 66.8196 281.907 66.5802 281.536 66.4932C281.188 66.4062 280.795 66.515 280.533 66.7543C279.269 67.864 278.092 68.9954 276.958 70.0616C273.557 73.2818 270.635 76.0668 266.994 77.4376C266.689 77.5464 266.362 77.6552 266.056 77.7422C265.577 77.8728 265.25 78.3079 265.228 78.8301C265.228 79.1348 265.228 79.4394 265.228 79.744C265.206 87.033 264.116 94.4091 263.069 101.546C262.241 107.116 261.391 112.882 261.042 118.604C260.061 134.749 263.789 147.63 272.118 156.877C280.468 166.168 294.138 171.89 307.896 171.89ZM354.009 114.514C353.769 114.514 353.551 114.579 353.355 114.71C353.093 114.884 352.919 115.166 352.875 115.471C352.722 116.516 352.548 117.669 352.374 118.887C350.847 129.179 348.318 146.433 342.192 154.201C334.91 163.47 322.068 169.366 308.681 169.584C295.294 169.823 281.907 164.34 273.753 155.289C265.838 146.52 262.306 134.205 263.266 118.691C263.614 113.056 264.443 107.355 265.271 101.829C266.34 94.6049 267.43 87.1418 267.452 79.7005C267.452 79.6787 267.452 79.657 267.452 79.6352C267.561 79.5917 267.648 79.5699 267.757 79.5264C271.812 77.9816 275.061 74.9137 278.484 71.6717C279.247 70.9536 280.032 70.2139 280.839 69.4741C283.084 74.2827 285.679 76.7196 291.413 76.1539C296.798 75.6099 304.538 69.1477 307.394 63.36C310.447 67.7552 316.748 69.7134 322.744 67.7552C330.396 65.253 333.318 61.6629 336.043 57.1807C337.722 61.6846 340.644 67.2547 346.552 71.4541C348.58 72.9119 350.891 74.0433 353.377 74.8049C353.464 75.7405 353.529 76.5238 353.616 77.2635L353.638 77.5247C354.074 81.3759 354.99 89.3829 354.14 97.4117C354.096 97.8687 354.336 98.3256 354.728 98.5432C355.143 98.7607 355.644 98.7172 355.993 98.4126C361.335 93.9957 366.088 93.8434 370.143 97.9339C373.588 101.415 373.479 107.007 369.903 110.663C366.393 114.209 360.092 115.776 354.205 114.535C354.161 114.514 354.096 114.514 354.009 114.514Z" fill="#151924"/>
<path d="M278.444 98.6301C278.27 97.02 279.491 95.5622 281.192 95.3664C282.892 95.1706 284.418 96.3238 284.593 97.9339C284.767 99.544 283.546 101.002 281.846 101.198C280.167 101.372 278.641 100.218 278.444 98.6301Z" fill="#151924"/>
<path d="M321.593 100.936C321.418 99.3262 322.639 97.8684 324.34 97.6726C326.041 97.4767 327.567 98.6299 327.741 100.24C327.916 101.85 326.695 103.308 324.994 103.504C323.315 103.7 321.789 102.546 321.593 100.936Z" fill="#151924"/>
<path d="M308.767 151.524C313.455 151.524 318.121 149.479 321.195 145.911C321.609 145.432 321.544 144.714 321.064 144.301C320.584 143.887 319.865 143.952 319.451 144.431C316.071 148.391 310.403 150.132 305.366 148.805C304.756 148.652 304.123 149 303.971 149.61C303.818 150.219 304.167 150.85 304.777 151.002C306.086 151.35 307.416 151.524 308.767 151.524Z" fill="#151924"/>
<path d="M301.424 135.336C302.165 135.336 302.907 135.271 303.626 135.162C306.897 134.662 309.709 132.986 311.344 130.549C311.693 130.027 311.562 129.309 311.039 128.961C310.516 128.613 309.796 128.744 309.448 129.266C308.183 131.159 305.872 132.508 303.277 132.899C300.988 133.247 298.415 132.921 295.668 131.942C294.731 131.616 293.684 131.159 293.03 130.397C292.223 129.483 291.962 127.982 292.289 126.394C292.572 125.045 293.204 123.783 293.859 122.434L294.186 121.781C298.045 113.883 300.072 105.049 300.029 96.2584C300.029 95.6274 299.527 95.127 298.873 95.127C298.241 95.127 297.739 95.6491 297.739 96.2801C297.783 104.722 295.843 113.208 292.136 120.78L291.831 121.411C291.133 122.825 290.414 124.283 290.065 125.915C289.563 128.243 290.021 130.419 291.308 131.877C292.311 133.03 293.684 133.617 294.905 134.053C297.173 134.923 299.353 135.336 301.424 135.336Z" fill="#151924"/>
<path d="M354.596 105.31C355.163 105.31 355.643 104.897 355.73 104.309C356.21 100.719 356.384 98.8044 356.689 95.3448C356.755 94.7138 356.275 94.1699 355.665 94.1046C355.032 94.0393 354.487 94.518 354.422 95.1272C354.095 98.5651 353.92 100.458 353.463 104.005C353.375 104.636 353.811 105.201 354.444 105.288C354.509 105.31 354.553 105.31 354.596 105.31Z" fill="#151924"/>
<path d="M255.241 71.0625C255.328 71.0625 255.437 71.019 255.503 70.9538C255.655 70.8014 255.655 70.5621 255.503 70.4098C252.756 67.603 251.753 63.2296 253.017 59.5089C253.083 59.3131 252.974 59.0955 252.777 59.0302C252.581 58.9649 252.363 59.0737 252.298 59.2695C250.968 63.2513 252.036 67.9293 254.979 70.932C255.045 71.019 255.132 71.0625 255.241 71.0625Z" fill="#151924"/>
<path d="M369.406 67.0369C369.494 67.0369 369.581 67.0152 369.668 66.9499C374.813 62.4242 376.819 54.7435 374.552 48.2813C374.486 48.0854 374.268 47.9767 374.072 48.0419C373.876 48.1072 373.767 48.3248 373.832 48.5206C375.991 54.7 374.072 62.0543 369.145 66.3842C368.992 66.5147 368.97 66.7541 369.101 66.9281C369.188 66.9934 369.297 67.0369 369.406 67.0369Z" fill="#151924"/>
<path d="M90.9813 280.051C78.0523 250.351 62.8775 195.716 47.5284 166.69C37.6299 160.38 26.3797 149.305 20.5801 138.317C18.2254 133.835 17.8548 131.899 20.3403 128.004C22.1717 125.175 26.4233 125.066 29.3666 126.111C27.5352 123.369 24.0904 121.259 27.1864 117.408C28.5817 115.689 30.8056 114.448 32.8769 115.232C30.6094 109.379 36.6488 104.374 41.6852 109.401C37.1939 102.525 33.1167 96.3891 28.6471 90.1009C25.8782 86.2062 23.0002 81.4629 25.3113 79.1565C28.2765 76.1974 32.7897 80.2227 38.1532 86.6196C47.3103 97.5423 50.3627 101.176 59.9341 110.75C68.9605 119.757 78.5755 137.795 74.8254 145.998C77.8342 158.465 123.489 230.79 138.468 245.738C143.94 251.199 139.471 256.443 138.184 264.058C136.636 273.24 129.921 305.595 106.527 295.064C99.8986 292.105 91.7444 281.835 90.9813 280.051Z" fill="white"/>
<path d="M115.247 298.306C117.929 298.306 120.437 297.675 122.791 296.435C133.387 290.799 137.683 273.85 139.296 264.276C139.645 262.209 140.233 260.338 140.8 258.51C142.283 253.81 143.657 249.372 139.252 244.976C124.012 229.767 79.5999 158.77 76.0243 146.128C79.6872 137.012 69.527 118.757 60.7405 109.988C51.2563 100.523 48.2257 96.9112 39.2212 86.1844L39.025 85.945C33.8359 79.7657 30.5873 77.1982 27.7747 77.0894C26.532 77.0459 25.42 77.481 24.5043 78.4166C21.6045 81.3105 24.5043 86.3149 27.7093 90.8189C31.4594 96.1061 34.9696 101.328 38.2618 106.311C36.6702 106.05 35.2313 106.463 34.1411 107.181C31.9608 108.595 30.9361 111.206 31.3504 113.926C29.5625 114.013 27.7093 115.014 26.2921 116.755C23.654 120.04 25.0712 122.542 26.5756 124.435C23.7412 124.261 20.885 125.11 19.4025 127.438C16.6553 131.724 17.0259 134.053 19.5987 138.905C25.8125 150.654 37.6296 161.707 46.6995 167.539C55.5951 184.445 64.3598 209.771 72.8411 234.25C78.8804 251.7 84.5928 268.193 89.9781 280.551C90.8502 282.553 99.1352 293.04 106.112 296.174C109.295 297.588 112.348 298.306 115.247 298.306ZM27.5785 79.3305C27.6003 79.3305 27.6439 79.3305 27.6875 79.3305C30.3257 79.4393 34.4246 83.9868 37.2807 87.3811L37.477 87.6204C46.5251 98.4125 49.5775 102.046 59.1271 111.576C68.5241 120.954 77.158 138.187 73.8004 145.541C73.6914 145.78 73.6696 146.041 73.735 146.281C76.9836 159.749 123.009 231.921 137.661 246.565C141.106 250.003 140.059 253.266 138.642 257.814C138.075 259.62 137.443 261.665 137.05 263.884C135.502 273.066 131.447 289.233 121.723 294.411C117.493 296.652 112.544 296.544 107.006 294.041C100.683 291.191 92.7252 281.182 92.0275 279.594C86.6858 267.322 80.9735 250.873 74.9559 233.466C66.4092 208.771 57.5573 183.226 48.5528 166.168C48.4656 165.994 48.313 165.841 48.1603 165.733C39.3084 160.097 27.6657 149.283 21.6045 137.795C19.3806 133.574 19.119 132.073 21.3211 128.635C22.7383 126.437 26.3357 126.263 28.9957 127.199C29.4535 127.373 29.9768 127.221 30.282 126.829C30.5873 126.437 30.6091 125.915 30.3256 125.502C29.9114 124.871 29.4317 124.283 28.952 123.717C27.1206 121.498 26.3139 120.345 28.08 118.147C29.1483 116.82 30.9143 115.732 32.4841 116.32C32.8984 116.472 33.378 116.363 33.7051 116.058C34.0103 115.732 34.1193 115.275 33.9667 114.84C32.942 112.186 33.9885 109.988 35.4057 109.052C37.0409 107.986 39.1122 108.421 40.9 110.206C41.3143 110.619 41.9683 110.662 42.4262 110.293C42.884 109.923 42.9931 109.27 42.666 108.791C38.6761 102.677 34.3373 96.1061 29.6061 89.4699C28.2762 87.5986 24.2208 81.9197 26.1613 80.005C26.5537 79.5481 27.0334 79.3305 27.5785 79.3305Z" fill="#151924"/>
<path d="M37.2382 143.387C38.2847 143.387 39.2658 143.06 40.0071 142.451C41.3153 141.385 41.8168 139.47 41.3371 137.599C40.9229 136.054 39.9635 134.792 39.0914 133.726C36.1044 130.092 35.2977 129.44 33.1175 127.721C32.3544 127.112 31.395 126.35 30.0869 125.262C29.6072 124.849 28.8877 124.914 28.4735 125.393C28.0592 125.871 28.1246 126.589 28.6043 127.003C29.9343 128.112 30.9154 128.896 31.7003 129.505C33.7934 131.159 34.491 131.702 37.3254 135.162C38.0885 136.076 38.8298 137.077 39.135 138.186C39.3531 138.992 39.2658 140.145 38.5682 140.71C38.0013 141.189 37.0202 141.254 36.0826 140.906C35.0579 140.515 34.164 139.731 33.2919 138.97L28.7787 135.032C28.2991 134.618 27.5796 134.662 27.1653 135.14C26.7511 135.619 26.7947 136.337 27.2743 136.75L31.7875 140.689C32.7686 141.537 33.8806 142.516 35.2759 143.039C35.9082 143.256 36.6059 143.387 37.2382 143.387Z" fill="#151924"/>
<path d="M45.4362 139.47C46.0249 139.47 46.6353 139.362 47.2022 139.057C49.2517 138.012 49.7095 135.401 49.2517 133.291C48.5104 129.897 43.5175 123.826 33.9679 114.731L33.6409 114.427C33.183 113.991 32.4635 114.013 32.0275 114.47C31.5914 114.927 31.6132 115.645 32.0711 116.08L32.3981 116.385C43.7138 127.177 46.6135 131.79 47.0278 133.791C47.3112 135.053 47.0932 136.576 46.1775 137.033C45.4362 137.403 44.3243 137.055 43.3213 136.642C42.2312 136.207 41.141 135.728 40.0727 135.227C39.5058 134.966 38.8299 135.206 38.5465 135.771C38.2849 136.337 38.5247 137.012 39.0916 137.294C40.1817 137.817 41.3155 138.295 42.4492 138.752C43.4085 139.122 44.4333 139.47 45.4362 139.47Z" fill="#151924"/>
<path d="M53.6112 147.173C53.7857 147.173 53.9819 147.129 54.1345 147.042C54.7014 146.738 54.8976 146.063 54.6141 145.498C52.3903 141.298 54.3525 136.816 55.9223 133.204C57.1215 130.441 58.0808 128.265 56.7072 126.807C55.0284 125.001 50.537 124.501 46.0893 124.131C45.2389 124.066 44.3014 123.979 44.0616 123.913C41.8377 123.195 41.0746 122.107 40.813 121.52C40.5732 120.954 40.6386 120.563 40.6604 120.454C41.0528 119.583 42.5354 117.93 43.1241 117.734C45.6532 116.885 53.2406 117.234 57.2959 117.408C58.059 117.451 58.7131 117.473 59.2363 117.495C61.3076 117.56 66.235 119.845 66.5621 120.889C66.7365 121.498 67.3906 121.846 67.9793 121.65C68.5897 121.476 68.9168 120.845 68.7423 120.236C67.9792 117.647 61.5038 115.275 59.3018 115.21C58.8003 115.188 58.1462 115.167 57.3831 115.123C51.5618 114.862 45.1081 114.666 42.3828 115.558C40.9002 116.059 39.047 118.43 38.5673 119.518C38.1966 120.323 38.2621 121.411 38.7199 122.434C39.2214 123.565 40.4423 125.132 43.3639 126.067C43.7564 126.198 44.4322 126.263 45.893 126.372C48.4658 126.59 53.8075 127.025 55.0284 128.33C55.3773 128.7 54.3961 130.92 53.8075 132.269C52.1286 136.12 49.8393 141.385 52.5647 146.542C52.8045 146.955 53.197 147.173 53.6112 147.173Z" fill="#151924"/>
<path d="M47.5317 117.19C47.7279 117.19 47.9241 117.147 48.0986 117.038C48.6436 116.711 48.8398 116.015 48.5128 115.471C47.7933 114.209 45.8747 112.164 44.1958 110.358C43.4109 109.509 42.6697 108.726 42.1682 108.139C41.7539 107.66 41.0344 107.595 40.5548 108.008C40.0751 108.422 40.0097 109.14 40.424 109.618C40.9472 110.227 41.7103 111.054 42.517 111.925C44.0432 113.557 45.9401 115.602 46.5288 116.624C46.7468 116.973 47.1392 117.19 47.5317 117.19Z" fill="#151924"/>
<path d="M49.5806 135.815C50.9106 135.815 52.3059 135.097 53.178 133.9C53.8757 132.943 55.2057 130.288 52.6766 126.198C52.3495 125.654 51.63 125.501 51.1068 125.828C50.5617 126.154 50.4091 126.872 50.7361 127.394C52.0007 129.44 52.2187 131.311 51.3248 132.551C50.7361 133.356 49.864 133.639 49.319 133.508C48.7085 133.356 48.098 133.726 47.9454 134.335C47.7928 134.944 48.1634 135.554 48.7739 135.706C49.0355 135.771 49.319 135.815 49.5806 135.815Z" fill="#151924"/>
<path d="M478.805 327.375C470.673 284.707 470.607 238.884 436.159 210.185C419.633 196.412 380.431 190.472 357.451 188.992C356.034 211.186 334.296 216.473 320.364 215.581C297.123 214.101 292.98 209.532 287.072 191.908C281.861 193.975 250.443 195.563 230.057 213.731C192.208 247.478 142.628 242.235 139.925 244.933C136.175 248.675 145.397 281.443 112.039 296.87C97.9978 303.354 182.157 316.713 240.108 301.396C237.928 331.661 255.676 415.496 261.977 449.482C332.86 449.482 439.909 449.4 439.909 449.4C439.909 449.4 430.403 420.522 430.403 399.46C430.403 389.016 467.01 410.622 471.872 411.492C473.485 411.775 477.148 410.448 477.802 408.947C481.88 399.417 486.305 366.627 478.805 327.375Z" fill="#151924"/>
<path fill-rule="evenodd" clip-rule="evenodd" d="M260.693 449C259.712 443.718 258.492 437.364 257.073 430.052L257.064 430.005C249.28 389.752 237.604 329.367 238.868 302.897C208.235 310.687 174.157 310.077 156.41 308.989C134.367 307.64 111.169 303.833 109.468 299.155C109.207 298.393 109.119 296.957 111.561 295.826C135.991 284.538 137.004 263.621 137.55 252.368L137.55 252.353C137.747 248.001 137.877 245.368 139.12 244.128C139.992 243.279 141.911 243.105 147.885 242.67L147.925 242.667C163.558 241.534 200.127 238.884 229.296 212.883C245.474 198.479 267.975 194.432 280.075 192.256L280.488 192.181C283.387 191.651 285.659 191.237 286.638 190.842C286.921 190.733 287.248 190.733 287.532 190.864C287.815 190.994 288.033 191.233 288.142 191.538C293.92 208.792 297.605 212.97 320.432 214.428C324.269 214.667 334.19 214.732 343.042 209.924C351.239 205.485 355.687 198.414 356.298 188.905C356.319 188.601 356.472 188.318 356.69 188.122C356.908 187.926 357.213 187.817 357.519 187.839C384.314 189.558 421.183 196.194 436.903 209.293C465.196 232.874 470.651 268.481 475.926 302.917L475.93 302.941C477.151 310.904 478.415 319.15 479.941 327.136C487.114 364.756 483.539 398.459 478.851 409.382C477.957 411.493 473.662 412.95 471.678 412.602C470.261 412.341 467.099 410.84 461.649 408.207L461.444 408.109C452.393 403.756 435.85 395.801 432.128 398.133C431.844 398.307 431.539 398.612 431.539 399.46C431.539 419.485 440.355 446.196 440.949 447.996C440.967 448.05 440.977 448.082 440.98 448.09C441.085 448.404 441.046 448.731 440.898 449H434.738C436.394 448.454 437.647 448.023 438.451 447.742C436.728 442.411 429.25 418.151 429.228 399.439C429.228 397.611 430.122 396.675 430.885 396.197C435.355 393.411 447.891 399.047 462.608 406.162L462.84 406.274C467.005 408.277 470.893 410.148 472.049 410.361C473.291 410.579 476.344 409.36 476.714 408.49C480.268 400.2 485.436 368.324 477.674 327.571C476.148 319.542 474.883 311.274 473.662 303.289C468.233 267.692 463.088 234.076 435.442 211.055C420.354 198.501 384.838 191.995 358.5 190.211C357.562 199.85 352.635 207.356 344.153 211.947C334.757 217.017 324.357 216.974 320.301 216.712C297.212 215.233 292.285 210.62 286.354 193.322C285.109 193.658 283.363 193.975 281.179 194.372C280.954 194.413 280.724 194.454 280.489 194.497L280.479 194.499C268.594 196.632 246.516 200.594 230.823 214.58C201.04 241.125 163.888 243.801 148.037 244.933C144.614 245.172 141.366 245.412 140.69 245.76C140.101 246.456 139.949 249.502 139.818 252.44L139.817 252.448C139.25 264.2 138.198 286.016 112.499 297.893C111.932 298.154 111.714 298.35 111.627 298.437C112.652 300.504 128.197 304.964 156.431 306.683C174.353 307.793 209.02 308.402 239.784 300.286C240.132 300.177 240.525 300.264 240.808 300.504C241.092 300.743 241.244 301.091 241.223 301.461C239.42 326.639 251.781 390.594 259.226 429.116L259.319 429.596C259.802 432.125 260.268 434.541 260.71 436.838C261.565 441.278 262.335 445.273 262.982 448.786C263.086 448.858 263.19 448.929 263.294 449H260.693Z" fill="#151924"/>
<path d="M232.938 449.634C260.126 450.222 287.314 450.809 314.524 451.375L314.633 437.537L223.846 435.317L232.938 449.634Z" fill="white"/>
<path d="M314.523 452.507C314.828 452.507 315.112 452.398 315.308 452.18C315.526 451.963 315.657 451.68 315.657 451.375L315.766 437.559C315.766 436.928 315.264 436.427 314.654 436.405L223.867 434.186C223.453 434.186 223.06 434.404 222.842 434.774C222.624 435.143 222.646 435.6 222.864 435.948L231.978 450.244C232.174 450.57 232.544 450.766 232.915 450.766L314.501 452.507C314.501 452.507 314.501 452.507 314.523 452.507ZM313.476 438.668L313.389 450.222L233.591 448.503L225.96 436.536L313.476 438.668Z" fill="#151924"/>
<path d="M1.12889 323.371L178.473 324.35L239.586 449.634L63.9209 449.178L1.12889 323.371Z" fill="white"/>
<path d="M239.586 450.766C239.978 450.766 240.349 450.57 240.545 450.222C240.763 449.895 240.785 449.46 240.61 449.112L179.497 323.828C179.301 323.436 178.908 323.197 178.472 323.197L1.12851 322.218C0.736069 322.218 0.365402 322.414 0.169189 322.762C-0.0488434 323.088 -0.0706177 323.523 0.12561 323.871L62.9176 449.678C63.1138 450.069 63.5063 450.309 63.9423 450.309L239.586 450.766ZM177.753 325.482L237.754 448.481L64.6182 448.046L2.98177 324.524L177.753 325.482Z" fill="#151924"/>
<path d="M113.304 374.416C108.268 373.915 102.774 375.264 100.724 379.877C98.6746 384.49 100.244 390.277 103.973 393.672C107.701 397.066 113.239 398.176 118.166 397.066C120.826 396.457 123.464 395.173 125.012 392.932C126.081 391.365 126.539 389.451 126.539 387.558C126.582 381.335 123.748 375.438 113.304 374.416Z" fill="white"/>
<path d="M114.395 398.633C115.725 398.633 117.077 398.48 118.429 398.176C120.805 397.654 124.032 396.413 125.972 393.563C127.084 391.931 127.673 389.842 127.695 387.558C127.738 381.683 125.296 374.438 113.436 373.284C106.829 372.632 101.684 374.938 99.7 379.42C97.5197 384.316 99.0023 390.669 103.232 394.52C106.132 397.175 110.187 398.633 114.395 398.633ZM111.408 375.46C112.149 375.46 112.782 375.504 113.196 375.547C121.459 376.352 125.449 380.269 125.405 387.536C125.405 388.82 125.166 390.691 124.075 392.279C122.898 394.02 120.696 395.326 117.927 395.956C113.109 397.044 108.05 395.848 104.758 392.845C101.248 389.647 99.9834 384.381 101.771 380.356C103.624 376.156 108.465 375.46 111.408 375.46Z" fill="#151924"/>
<path d="M435.983 365.779C403.214 363.951 370.248 361.71 337.282 359.447C334.339 358.968 319.665 356.858 316.046 356.336C312.972 355.879 310.05 354.769 307.238 353.464C297.427 348.938 276.387 340.082 271.699 342.693C260.885 345.87 251.074 353.659 243.421 363.516C239.126 369.042 235.594 378.224 237.382 379.791C238.515 380.792 240.216 381.205 241.481 380.161C246.583 369.26 255.674 360.274 266.641 355.269C261.539 358.142 256.786 361.645 252.513 365.648C248.196 369.717 244.206 374.613 243.247 380.444C243.181 380.901 243.116 381.401 243.356 381.793C243.944 382.772 245.449 382.206 246.343 381.488C248.087 380.117 270.631 361.862 274.839 362.341C269.236 364.451 249.264 380.618 249.199 382.337C249.155 383.164 249.308 384.034 249.831 384.665C250.529 385.535 251.793 385.818 252.905 385.644C254.017 385.47 255.02 384.883 255.98 384.295C262.433 380.379 268.32 375.483 275.297 372.589C278.763 371.153 283.015 370.304 286.111 372.459C279.897 374.808 274.098 378.224 269.214 382.685C268.429 383.403 267.775 384.23 267.273 385.165C266.51 386.536 265.638 388.516 266.706 389.648C268.451 391.497 269.911 390.561 271.394 389.691C277.368 385.753 283.473 382.511 289.861 379.987C291.845 379.204 294.2 378.507 296.009 379.661C297.557 380.661 305.079 385.318 320.538 386.123C325.814 386.406 330.894 387.776 337.5 389.582C424.384 413.473 450.33 423.003 471.369 413.973C475.49 412.211 476.885 410.057 475.512 402.985C471.827 384.186 468.251 373.481 435.983 365.779Z" fill="white"/>
<path d="M453.733 418.564C460.644 418.564 466.357 417.411 471.807 415.083C476.822 412.929 477.999 409.948 476.604 402.833C472.897 383.729 469.191 372.545 436.225 364.691C436.16 364.669 436.094 364.669 436.029 364.669C402.91 362.82 369.596 360.535 337.415 358.337C335.147 357.967 326.622 356.727 320.954 355.922C318.882 355.618 317.16 355.378 316.201 355.226C312.996 354.747 309.987 353.485 307.698 352.441C298.584 348.241 276.868 338.842 271.243 341.649C260.8 344.738 250.858 352.071 242.485 362.841C238.844 367.541 233.699 378.137 236.577 380.683C238.234 382.163 240.436 382.358 241.984 381.227C242.006 381.64 242.093 382.054 242.333 382.446C242.66 382.989 243.205 383.359 243.837 383.468C244.949 383.664 246.214 383.076 246.999 382.446C247.129 382.337 247.391 382.119 247.784 381.836C248.045 381.619 248.307 381.423 248.568 381.205C248.22 381.684 248.023 382.076 248.023 382.337C247.958 383.577 248.263 384.643 248.917 385.426C249.833 386.558 251.425 387.08 253.06 386.797C254.368 386.58 255.502 385.949 256.548 385.318C258.729 384.012 260.843 382.554 262.915 381.162C266.97 378.42 271.156 375.57 275.713 373.699C277.871 372.807 280.662 372.002 283.104 372.502C277.544 374.895 272.617 378.072 268.409 381.923C267.559 382.707 266.817 383.642 266.251 384.687C265.705 385.644 264.07 388.603 265.858 390.496C268.169 392.955 270.393 391.671 271.854 390.801L271.963 390.735C278.068 386.71 284.042 383.577 290.277 381.096C291.934 380.444 294.005 379.791 295.379 380.661C298.104 382.402 306.019 386.536 320.474 387.298C325.75 387.58 331.048 389.038 337.197 390.714C348.774 393.89 359.414 396.871 368.811 399.482C413.398 411.928 437.097 418.564 453.733 418.564ZM435.811 366.91C467.381 374.438 470.739 384.556 474.38 403.246C475.71 410.1 474.271 411.515 470.913 412.972C453.035 420.631 431.974 414.757 369.421 397.306C360.024 394.674 349.385 391.715 337.807 388.538C331.55 386.819 326.143 385.318 320.605 385.035C306.695 384.317 299.195 380.4 296.622 378.768C294.376 377.332 291.607 378.137 289.449 379.008C283.082 381.532 276.977 384.752 270.785 388.821L270.72 388.842C269.15 389.756 268.562 390.017 267.537 388.929C267.341 388.734 267.035 388.016 268.256 385.796C268.714 384.969 269.303 384.23 269.979 383.599C274.601 379.356 280.161 375.983 286.505 373.59C286.898 373.438 287.181 373.089 287.225 372.654C287.268 372.241 287.094 371.827 286.745 371.588C283.082 369.042 278.242 370.196 274.841 371.61C270.088 373.59 265.793 376.484 261.65 379.291C259.601 380.661 257.508 382.097 255.371 383.381C254.477 383.925 253.605 384.425 252.689 384.578C252.013 384.687 251.119 384.556 250.683 384.012C250.422 383.686 250.291 383.207 250.291 382.62C251.795 380.117 269.957 365.452 275.211 363.472C275.713 363.276 275.996 362.798 275.931 362.276C275.866 361.753 275.451 361.34 274.928 361.275C273.86 361.144 270.567 360.774 246.345 380.052C245.974 380.335 245.712 380.553 245.581 380.661C244.993 381.118 244.382 381.271 244.23 381.227C244.273 381.227 244.252 381.118 244.317 380.705C245.102 376.027 247.936 371.545 253.256 366.54C257.464 362.602 262.13 359.164 267.166 356.336C267.69 356.031 267.908 355.378 267.624 354.834C267.341 354.29 266.687 354.051 266.142 354.312C255.066 359.36 245.756 368.52 240.545 379.486C239.782 379.943 238.779 379.595 238.125 379.008C237.362 377.898 239.847 370.022 244.317 364.277C252.297 354.007 262.13 346.74 272.006 343.846C272.094 343.825 272.159 343.781 272.246 343.737C275.233 342.062 289.1 346.414 306.738 354.53C309.158 355.639 312.363 356.988 315.852 357.489C316.811 357.619 318.534 357.88 320.605 358.185C326.295 359.012 334.908 360.252 337.066 360.6C337.11 360.6 337.131 360.6 337.175 360.622C369.4 362.798 402.692 365.082 435.811 366.91Z" fill="#151924"/>
<path d="M416.429 365.8C416.538 365.8 416.669 365.779 416.778 365.735C417.367 365.539 417.694 364.887 417.498 364.299C405.223 327.223 398.289 303.789 398.289 253.005C398.289 252.374 397.788 251.874 397.156 251.874C396.523 251.874 396.022 252.374 396.022 253.005C396.022 304.137 402.999 327.723 415.339 365.017C415.492 365.496 415.95 365.8 416.429 365.8Z" fill="#151924"/>
<path d="M240.11 302.527C240.415 302.527 240.742 302.397 240.96 302.157C241.309 301.787 241.331 301.244 241.091 300.808C240.96 300.156 240.917 297.458 240.851 293.454C240.764 287.84 240.633 278.463 240.11 264.233C240.088 263.602 239.565 263.123 238.932 263.145C238.3 263.167 237.821 263.689 237.842 264.32C238.366 278.55 238.496 287.906 238.584 293.498C238.693 301.048 238.693 301.657 239.347 302.244C239.565 302.44 239.826 302.527 240.11 302.527Z" fill="#151924"/>
<path d="M305.238 281.639C330.245 281.639 357.695 279.268 377.819 276.461C378.037 276.439 378.168 276.243 378.146 276.026C378.124 275.808 377.928 275.678 377.71 275.699C339.01 281.095 273.1 284.925 250.142 273.262C249.946 273.175 249.728 273.241 249.64 273.437C249.553 273.632 249.619 273.85 249.815 273.937C260.934 279.594 282.039 281.639 305.238 281.639Z" fill="white"/>
<path d="M330.003 314.168C346.573 314.168 363.906 312.754 381.304 309.207C381.501 309.163 381.653 308.968 381.61 308.75C381.566 308.554 381.37 308.402 381.152 308.445C331.529 318.585 282.472 311.274 250.073 303.376C249.877 303.332 249.659 303.441 249.616 303.659C249.572 303.854 249.681 304.072 249.899 304.115C271.026 309.272 299.195 314.168 330.003 314.168Z" fill="white"/>
<path d="M481.529 375.983C481.616 375.983 481.704 375.961 481.769 375.896C481.922 375.766 481.943 375.526 481.813 375.352C466.79 357.706 442.306 348.807 419.435 352.702C419.217 352.745 419.086 352.941 419.13 353.137C419.173 353.355 419.369 353.485 419.566 353.442C442.175 349.59 466.398 358.381 481.246 375.831C481.311 375.94 481.42 375.983 481.529 375.983Z" fill="white"/>
<path d="M478.808 359.882C478.961 359.882 479.092 359.795 479.157 359.642C479.244 359.447 479.135 359.229 478.939 359.142C476.65 358.228 474.753 356.531 472.9 354.877C472.224 354.29 471.548 353.659 470.85 353.093C466.533 349.568 461.322 347.262 455.806 346.435C455.588 346.392 455.414 346.544 455.37 346.762C455.348 346.979 455.479 347.153 455.697 347.197C461.083 348.002 466.163 350.243 470.371 353.681C471.068 354.246 471.744 354.856 472.398 355.443C474.295 357.14 476.257 358.881 478.656 359.838C478.721 359.86 478.765 359.882 478.808 359.882Z" fill="white"/>
<path d="M145.178 277.592C145.331 277.592 145.461 277.505 145.527 277.353C149.386 267.953 151.261 257.64 150.999 247.479C150.999 247.261 150.825 247.131 150.607 247.109C150.389 247.109 150.236 247.283 150.236 247.501C150.498 257.531 148.645 267.757 144.829 277.07C144.742 277.266 144.851 277.483 145.047 277.57C145.091 277.592 145.134 277.592 145.178 277.592Z" fill="white"/>
<path d="M159.09 258.88C159.265 258.88 159.417 258.771 159.461 258.575C160.29 254.92 160.529 251.177 160.159 247.457C160.137 247.239 159.963 247.087 159.744 247.109C159.526 247.13 159.374 247.326 159.396 247.522C159.766 251.177 159.526 254.833 158.72 258.401C158.676 258.597 158.807 258.814 159.003 258.858C159.025 258.88 159.047 258.88 159.09 258.88Z" fill="white"/>
<path d="M419.485 367.998C419.594 367.998 419.681 367.976 419.79 367.954C420.401 367.78 420.75 367.171 420.597 366.562C412.29 336.035 406.6 304.659 403.722 273.306C403.656 272.675 403.111 272.218 402.479 272.283C401.847 272.348 401.389 272.892 401.454 273.523C404.354 305.008 410.045 336.514 418.395 367.171C418.526 367.671 418.984 367.998 419.485 367.998Z" fill="white"/>
<path d="M237.601 308.271C238.233 308.271 238.735 307.771 238.735 307.14L239.258 272.327C239.258 271.696 238.756 271.173 238.124 271.173C237.47 271.195 236.969 271.674 236.969 272.305L236.445 307.118C236.445 307.727 236.969 308.249 237.601 308.271Z" fill="white"/>
</g>
<defs>
<clipPath id="clip0_9329_1218">
<rect width="484" height="469" fill="white" transform="matrix(-1 0 0 1 484 0)"/>
</clipPath>
</defs>
</svg>
