<svg width="484" height="470" viewBox="0 0 484 470" fill="none" xmlns="http://www.w3.org/2000/svg">
<path d="M307.048 158.622C310.673 175.956 310.004 197.358 310.004 197.358L295.931 203.46C295.931 203.46 287.304 243.054 341.675 230.918C352.245 228.568 382.822 202.646 382.822 202.646L358.644 194.939C358.644 194.939 356.336 155.706 355.404 136.225C342.687 142.824 322.296 153.311 307.048 158.622Z" fill="white"/>
<path d="M323.146 234.421C328.654 234.421 334.911 233.652 341.897 232.07C352.569 229.697 382.214 204.634 383.47 203.572C383.794 203.301 383.936 202.849 383.875 202.42C383.794 201.99 383.51 201.629 383.126 201.493L359.656 194.012C359.312 188.227 357.307 153.83 356.457 136.134C356.437 135.75 356.254 135.389 355.951 135.185C355.647 134.982 355.282 134.959 354.958 135.117C344.429 140.587 322.518 151.977 306.744 157.491C306.217 157.672 305.893 158.282 306.035 158.892C309.194 174.034 309.052 192.566 308.971 196.544L295.566 202.352C295.242 202.487 294.999 202.804 294.918 203.165C294.797 203.708 292.083 216.68 299.98 225.856C304.861 231.573 312.616 234.421 323.146 234.421ZM380.473 203.143C373.912 208.589 350.26 227.822 341.472 229.765C321.87 234.15 308.425 232.296 301.499 224.274C295.303 217.087 296.457 206.894 296.862 204.341L310.389 198.465C310.794 198.284 311.057 197.877 311.057 197.402C311.057 197.199 311.665 176.52 308.283 159.412C323.409 154.011 343.598 143.615 354.412 138.01C355.363 157.808 357.55 194.623 357.571 195.007C357.591 195.504 357.915 195.933 358.34 196.069L380.473 203.143Z" fill="#151924"/>
<path d="M273.758 49.4638C268.797 50.7972 263.835 45.1699 263.734 39.2487C263.633 33.305 267.359 27.9488 271.955 25.3499C276.552 22.7509 281.817 22.4571 286.96 21.6209C285.017 15.858 287.467 8.94241 291.76 5.25865C296.032 1.57488 301.702 0.693493 306.967 1.41669C310.41 1.89128 313.893 3.04387 316.626 5.55245C319.36 8.06102 321.223 12.1064 321.061 16.4455C325.658 9.95941 333.11 5.62025 340.116 7.49603C347.122 9.37181 352.408 18.9315 352.954 25.5081C356.356 20.8299 360.831 16.9879 366.076 17.3043C376.505 17.9371 378.854 27.8132 374.156 40.5369C379.704 37.486 387.986 40.1527 390.619 49.1474C392.583 55.8596 390.376 66.5041 386.204 71.7472C385.475 72.6512 384.422 73.5552 383.147 74.3462C381.527 84.2901 379.502 94.7086 376.424 107.862C374.196 117.354 370.349 127.862 365.853 136.518C363.727 140.586 362.087 142.552 357.814 144.79C357.571 140.677 353.724 138.62 353.136 134.529C352.407 129.49 355.303 125.06 352.59 120.585C347.406 112.088 343.882 102.754 342.222 93.1944C340.865 85.3297 340.804 77.0808 344.125 69.8262C345.3 67.2499 347.001 64.8317 349.046 62.7299C348.135 60.6959 347.426 58.5942 346.839 56.5602C343.781 62.4135 341.554 66.4363 333.899 69.2386C328.31 71.2726 321.689 68.8092 319.805 62.8655C318.611 68.8545 310.268 77.3294 305.023 77.917C299.779 78.5046 297.814 75.8152 295.688 70.1878C291.031 74.7982 287.527 79.4989 282.789 81.5103C275.519 84.5839 266.529 79.5216 264.139 70.9788C261.709 62.4361 266.346 52.0628 273.758 49.4638Z" fill="#367DCB"/>
<path d="M357.814 145.988C357.976 145.988 358.117 145.943 358.259 145.875C362.896 143.457 364.638 141.219 366.764 137.129C371.28 128.473 375.168 117.919 377.436 108.178C380.23 96.223 382.356 85.6915 384.077 75.1148C385.292 74.3239 386.264 73.4425 386.973 72.5611C391.489 66.8885 393.656 55.792 391.61 48.8087C390.314 44.3791 387.601 41.0118 383.996 39.3168C381.405 38.0964 378.549 37.8704 375.957 38.571C378.104 31.6102 378.043 25.6665 375.755 21.6211C373.872 18.299 370.551 16.4006 366.116 16.1294C361.783 15.8582 357.571 18.1182 353.602 22.8415C352.083 15.8808 346.818 8.06127 340.358 6.34368C334.182 4.6939 327.176 7.49627 321.951 13.5304C321.425 10.0952 319.785 6.90868 317.294 4.6487C314.743 2.29832 311.3 0.806734 307.068 0.241739C300.811 -0.617053 295.141 0.829334 291.091 4.3097C286.555 8.19687 284.328 14.9768 285.563 20.6268C285.016 20.6945 284.49 20.7849 283.943 20.8527C279.711 21.4403 275.357 22.0731 271.449 24.2879C266.083 27.3389 262.559 33.3504 262.66 39.2716C262.721 42.8423 264.382 46.4583 266.994 48.7183C267.864 49.4641 268.776 50.0291 269.727 50.3907C264.017 54.775 260.959 63.6793 263.126 71.3407C264.382 75.8154 267.419 79.6348 271.428 81.8044C275.256 83.8836 279.528 84.1774 283.173 82.618C286.94 81.0134 289.957 77.8268 293.136 74.4594C293.845 73.7137 294.574 72.9453 295.323 72.1769C297.409 77.1714 299.819 79.7026 305.144 79.115C310.146 78.55 317.335 71.8379 319.987 65.8263C322.822 70.3915 328.674 72.4255 334.243 70.3915C341.351 67.7925 344.064 64.0635 346.595 59.3854C346.96 60.4702 347.345 61.4872 347.77 62.4816C345.887 64.5155 344.307 66.8659 343.193 69.3067C340.176 75.9058 339.508 83.7932 341.189 93.4433C342.89 103.229 346.433 112.585 351.718 121.286C353.116 123.569 352.771 125.897 352.366 128.586C352.083 130.53 351.779 132.541 352.103 134.756C352.427 137.016 353.622 138.733 354.655 140.225C355.687 141.716 356.659 143.118 356.761 144.903C356.781 145.287 356.983 145.649 357.287 145.852C357.429 145.92 357.611 145.988 357.814 145.988ZM378.954 40.5372C380.372 40.5372 381.83 40.8536 383.187 41.4864C386.224 42.9101 388.512 45.7803 389.606 49.5319C391.428 55.7242 389.423 65.9393 385.394 70.9791C384.766 71.7701 383.794 72.5837 382.599 73.3295C382.316 73.5103 382.134 73.8041 382.073 74.1431C380.331 84.8328 378.205 95.4547 375.37 107.568C373.143 117.105 369.336 127.456 364.901 135.931C363.16 139.253 361.803 141.129 358.563 143.027C358.117 141.355 357.186 140.021 356.295 138.733C355.323 137.332 354.391 135.999 354.148 134.326C353.885 132.518 354.148 130.688 354.412 128.925C354.857 126.01 355.303 122.981 353.419 119.908C348.276 111.478 344.854 102.415 343.214 92.9461C341.634 83.8384 342.221 76.4482 345.036 70.3237C346.15 67.8829 347.77 65.5551 349.734 63.5663C350.078 63.2048 350.18 62.6398 349.977 62.1652C349.167 60.3572 348.458 58.391 347.831 56.1762C347.709 55.7242 347.345 55.4078 346.94 55.3626C346.535 55.3174 346.109 55.5434 345.907 55.9502C343.052 61.4194 340.986 65.3743 333.555 68.1089C328.796 69.8491 322.539 67.9959 320.797 62.459C320.635 61.9618 320.21 61.6454 319.724 61.668C319.258 61.6906 318.853 62.0748 318.752 62.5946C317.659 68.1089 309.761 76.177 304.901 76.7194C300.264 77.2392 298.685 75.0922 296.66 69.7135C296.518 69.3519 296.255 69.1033 295.91 69.0129C295.586 68.9225 295.222 69.0355 294.979 69.2841C293.804 70.4367 292.711 71.6119 291.658 72.7193C288.499 76.064 285.785 78.9568 282.404 80.3806C279.306 81.6914 275.62 81.4202 272.319 79.6348C268.836 77.759 266.204 74.4594 265.131 70.5949C262.903 62.7076 267.257 52.967 274.061 50.5715C274.608 50.3907 274.911 49.7353 274.77 49.1251C274.608 48.5149 274.061 48.1533 273.494 48.2889C271.773 48.7409 269.91 48.2211 268.27 46.8199C266.164 44.9893 264.807 42.074 264.766 39.2038C264.665 33.3956 268.533 28.5819 272.4 26.3671C275.964 24.3331 279.974 23.7681 284.186 23.1805C285.158 23.0449 286.109 22.9093 287.061 22.7511C287.385 22.7059 287.669 22.4799 287.831 22.1861C287.993 21.8697 288.033 21.5081 287.912 21.1691C286.251 16.2198 288.155 9.77885 292.367 6.16288C295.971 3.06671 301.094 1.77852 306.805 2.56952C310.632 3.08931 313.71 4.4001 315.937 6.45668C318.57 8.87486 320.129 12.6716 319.987 16.378C319.967 16.8978 320.25 17.3498 320.676 17.5306C321.101 17.7114 321.587 17.5532 321.87 17.1464C326.71 10.3438 333.777 6.97648 339.832 8.60366C346.575 10.4116 351.374 19.7002 351.86 25.5761C351.901 26.0507 352.184 26.4575 352.609 26.5931C353.014 26.7287 353.46 26.5931 353.743 26.2089C357.692 20.8075 361.803 18.186 365.995 18.4572C369.741 18.6832 372.434 20.1522 373.953 22.8415C376.119 26.6835 375.836 32.7854 373.163 40.0626C373.001 40.5146 373.102 41.0344 373.426 41.3734C373.75 41.7124 374.216 41.7802 374.621 41.5768C375.937 40.8988 377.436 40.5372 378.954 40.5372Z" fill="#151924"/>
<path d="M281.817 82.7996C281.817 82.5058 281.817 82.1894 281.817 81.873C282.141 81.76 282.465 81.647 282.769 81.5114C287.527 79.5001 291.01 74.7993 295.668 70.1889C297.774 75.8163 299.758 78.5057 305.003 77.9181C310.247 77.3305 318.611 68.8556 319.785 62.8666C321.668 68.8104 328.29 71.2963 333.879 69.2398C341.533 66.4374 343.761 62.4146 346.818 56.5613C348.479 62.4146 351.213 68.6522 356.943 73.2399C359.049 74.9123 361.317 76.0649 363.666 76.7881C363.747 77.9407 363.848 79.0481 363.95 80.1103C364.355 84.0426 365.266 92.6305 364.456 101.286C370.409 95.7719 375.33 96.6985 379.036 100.879C382.741 105.06 382.417 111.637 378.813 115.75C375.188 119.863 368.85 121.423 363.261 120.089C361.803 130.576 359.657 151.593 353.116 160.882C346.17 170.758 333.879 177.086 321.182 177.312C308.486 177.538 295.688 171.685 287.932 162.08C279.124 151.164 277.18 136.723 277.909 123.208C278.658 109.693 281.776 96.3595 281.817 82.7996Z" fill="white"/>
<path d="M320.433 178.532C320.676 178.532 320.939 178.532 321.182 178.532C334.223 178.283 346.778 171.82 353.946 161.65C359.981 153.062 362.289 135.479 363.828 123.841C363.93 123.027 364.031 122.236 364.132 121.513C369.964 122.507 376.039 120.609 379.562 116.609C383.713 111.885 383.815 104.631 379.785 100.066C375.755 95.5004 370.814 95.0936 365.711 98.8C366.157 91.1387 365.408 83.9293 365.043 80.2682L365.023 79.997C364.922 79.0478 364.841 78.0082 364.739 76.6974C364.699 76.2002 364.395 75.7934 363.97 75.6578C361.621 74.9346 359.475 73.8046 357.591 72.2905C351.618 67.5219 349.188 60.8324 347.871 56.222C347.75 55.77 347.385 55.4536 346.98 55.4084C346.576 55.3632 346.15 55.5892 345.948 55.996C343.093 61.4652 341.027 65.4201 333.595 68.1547C328.837 69.8949 322.58 68.0417 320.838 62.5047C320.676 62.0075 320.251 61.6912 319.765 61.7138C319.299 61.7364 318.894 62.1205 318.793 62.6403C317.699 68.1547 309.802 76.2228 304.942 76.7652C300.305 77.285 298.725 75.138 296.701 69.7593C296.559 69.3977 296.296 69.1491 295.951 69.0587C295.627 68.9683 295.263 69.0813 295.02 69.3299C293.845 70.4825 292.752 71.6577 291.699 72.765C288.54 76.1098 285.826 79.0026 282.445 80.4264C282.161 80.5394 281.857 80.6524 281.574 80.7428C281.129 80.8784 280.825 81.3304 280.805 81.8728C280.805 82.1892 280.805 82.5056 280.805 82.822C280.784 90.3929 279.772 98.0542 278.8 105.467C278.03 111.252 277.241 117.241 276.917 123.185C276.005 139.954 279.468 153.333 287.203 162.938C294.959 172.588 307.656 178.532 320.433 178.532ZM363.261 118.936C363.039 118.936 362.836 119.004 362.654 119.14C362.411 119.321 362.249 119.614 362.208 119.931C362.067 121.016 361.905 122.213 361.743 123.479C360.325 134.169 357.976 152.09 352.286 160.158C345.523 169.786 333.595 175.91 321.162 176.136C308.729 176.385 296.296 170.69 288.722 161.288C281.371 152.181 278.091 139.389 278.982 123.276C279.306 117.422 280.076 111.501 280.845 105.761C281.837 98.2576 282.85 90.5059 282.87 82.7768C282.87 82.7542 282.87 82.7315 282.87 82.7089C282.971 82.6637 283.052 82.6412 283.153 82.596C286.92 80.9914 289.937 77.8048 293.116 74.4374C293.825 73.6916 294.554 72.9232 295.303 72.1549C297.389 77.1494 299.799 79.6806 305.124 79.093C310.126 78.528 317.315 71.8159 319.967 65.8043C322.802 70.3695 328.655 72.4034 334.223 70.3695C341.331 67.7705 344.044 64.0415 346.576 59.386C348.135 64.0641 350.848 69.8497 356.336 74.2114C358.219 75.7256 360.366 76.9008 362.674 77.6918C362.755 78.6636 362.816 79.4772 362.897 80.2456L362.917 80.5168C363.322 84.5169 364.172 92.8337 363.383 101.173C363.342 101.648 363.565 102.122 363.93 102.348C364.314 102.574 364.78 102.529 365.104 102.213C370.065 97.6248 374.48 97.4666 378.246 101.715C381.445 105.331 381.344 111.139 378.023 114.936C374.763 118.62 368.911 120.247 363.444 118.959C363.403 118.936 363.342 118.936 363.261 118.936Z" fill="#151924"/>
<path d="M305.918 153.684C305.918 153.684 325.49 164.827 332.649 149.82" stroke="black" stroke-width="2" stroke-linecap="round" stroke-linejoin="round"/>
<path d="M293.075 102.438C292.913 100.766 294.047 99.2518 295.626 99.0484C297.206 98.845 298.623 100.043 298.785 101.715C298.947 103.388 297.813 104.902 296.234 105.105C294.675 105.286 293.257 104.088 293.075 102.438Z" fill="#151924"/>
<path d="M333.149 104.834C332.987 103.161 334.121 101.647 335.701 101.444C337.28 101.24 338.698 102.438 338.86 104.11C339.022 105.783 337.888 107.297 336.308 107.5C334.749 107.704 333.331 106.506 333.149 104.834Z" fill="#151924"/>
<path d="M314.419 140.564C315.107 140.564 315.796 140.496 316.464 140.383C319.501 139.863 322.113 138.123 323.632 135.592C323.956 135.049 323.835 134.304 323.349 133.942C322.863 133.58 322.194 133.716 321.87 134.258C320.696 136.225 318.549 137.626 316.14 138.033C314.014 138.394 311.624 138.055 309.073 137.038C308.202 136.699 307.23 136.225 306.622 135.434C305.873 134.484 305.63 132.925 305.934 131.275C306.197 129.874 306.784 128.563 307.392 127.162L307.696 126.484C311.28 118.28 313.163 109.105 313.123 99.9745C313.123 99.3191 312.657 98.7993 312.049 98.7993C311.462 98.7993 310.996 99.3417 310.996 99.9971C311.037 108.766 309.235 117.58 305.792 125.444L305.509 126.1C304.861 127.569 304.192 129.083 303.868 130.778C303.403 133.196 303.828 135.456 305.023 136.97C305.954 138.168 307.23 138.778 308.364 139.23C310.47 140.134 312.495 140.564 314.419 140.564Z" fill="#151924"/>
<path d="M363.807 109.376C364.334 109.376 364.779 108.947 364.86 108.337C365.306 104.608 365.468 102.619 365.751 99.0255C365.812 98.3701 365.367 97.8051 364.8 97.7373C364.212 97.6695 363.706 98.1667 363.645 98.7995C363.342 102.37 363.18 104.336 362.754 108.02C362.673 108.676 363.078 109.263 363.666 109.354C363.726 109.376 363.767 109.376 363.807 109.376Z" fill="#151924"/>
<path d="M271.529 73.8038C271.61 73.8038 271.711 73.7586 271.772 73.6908C271.914 73.5326 271.914 73.284 271.772 73.1258C269.221 70.2104 268.289 65.6678 269.464 61.8033C269.524 61.5999 269.423 61.3739 269.241 61.3061C269.059 61.2383 268.856 61.3513 268.795 61.5547C267.56 65.6904 268.552 70.5494 271.286 73.6682C271.347 73.7586 271.428 73.8038 271.529 73.8038Z" fill="#151924"/>
<path d="M377.557 69.6231C377.638 69.6231 377.719 69.6005 377.8 69.5327C382.579 64.832 384.442 56.8542 382.336 50.1421C382.275 49.9387 382.073 49.8257 381.89 49.8935C381.708 49.9613 381.607 50.1873 381.668 50.3907C383.672 56.809 381.89 64.4478 377.314 68.9451C377.172 69.0807 377.152 69.3293 377.274 69.5101C377.355 69.5779 377.456 69.6231 377.557 69.6231Z" fill="#151924"/>
<path d="M479.17 340.03C471.617 295.711 471.556 248.116 439.562 218.307C424.213 204.001 387.804 197.832 366.461 196.295C365.144 219.347 344.955 224.838 332.016 223.912C310.43 222.375 306.582 217.629 301.095 199.323C296.255 201.47 267.075 203.12 248.142 221.991C212.988 257.043 166.94 251.597 164.429 254.399C160.946 258.286 169.512 292.321 138.53 308.345C125.489 315.079 203.653 328.956 257.477 313.045C255.452 344.482 271.935 431.559 277.787 466.86C343.622 466.86 443.045 466.774 443.045 466.774C443.045 466.774 434.216 436.779 434.216 414.903C434.216 404.055 468.215 426.496 472.731 427.4C474.229 427.694 477.631 426.316 478.239 424.756C482.026 414.857 486.136 380.8 479.17 340.03Z" fill="#151924"/>
<path fill-rule="evenodd" clip-rule="evenodd" d="M276.593 466.358C275.682 460.872 274.549 454.272 273.231 446.678L273.222 446.629C265.993 404.819 255.148 342.098 256.322 314.605C227.871 322.696 196.221 322.063 179.738 320.933C159.265 319.532 137.72 315.577 136.14 310.718C135.897 309.927 135.816 308.435 138.084 307.26C160.773 295.536 161.715 273.81 162.221 262.122L162.222 262.106C162.404 257.586 162.526 254.851 163.68 253.563C164.49 252.681 166.272 252.501 171.82 252.049L171.857 252.046C186.377 250.869 220.341 248.116 247.433 221.11C262.458 206.148 283.356 201.945 294.594 199.685L294.978 199.607C297.671 199.057 299.78 198.626 300.689 198.216C300.953 198.103 301.256 198.103 301.52 198.239C301.783 198.374 301.985 198.623 302.087 198.939C307.453 216.861 310.875 221.2 332.076 222.714C335.64 222.963 344.854 223.031 353.075 218.036C360.689 213.426 364.82 206.081 365.387 196.205C365.407 195.888 365.549 195.594 365.752 195.391C365.954 195.188 366.238 195.075 366.521 195.097C391.408 196.883 425.65 203.776 440.25 217.381C466.528 241.873 471.594 278.858 476.494 314.626L476.497 314.65C477.631 322.922 478.806 331.487 480.223 339.781C486.885 378.856 483.564 413.863 479.211 425.208C478.38 427.4 474.391 428.915 472.548 428.553C471.232 428.282 468.296 426.722 463.234 423.988L463.044 423.886C454.637 419.365 439.272 411.102 435.816 413.524C435.552 413.705 435.269 414.021 435.269 414.903C435.269 435.703 443.457 463.447 444.008 465.316C444.025 465.372 444.035 465.405 444.037 465.413C444.134 465.739 444.099 466.079 443.961 466.358H438.24C439.778 465.791 440.942 465.343 441.688 465.052C440.088 459.515 433.143 434.316 433.122 414.88C433.122 412.982 433.953 412.01 434.661 411.513C438.812 408.62 450.456 414.473 464.125 421.863L464.341 421.98C468.209 424.061 471.819 426.003 472.893 426.225C474.047 426.451 476.882 425.186 477.226 424.282C480.527 415.671 485.326 382.562 478.117 340.233C476.7 331.894 475.525 323.306 474.391 315.012C469.349 278.038 464.57 243.122 438.893 219.211C424.881 206.171 391.894 199.414 367.432 197.561C366.562 207.572 361.985 215.369 354.108 220.138C345.38 225.404 335.721 225.358 331.955 225.087C310.51 223.55 305.934 218.759 300.426 200.792C299.27 201.141 297.647 201.47 295.62 201.882C295.41 201.925 295.197 201.968 294.979 202.013L294.969 202.015C283.931 204.23 263.426 208.345 248.85 222.872C221.189 250.444 186.684 253.224 171.962 254.399C168.783 254.648 165.766 254.896 165.138 255.258C164.591 255.981 164.449 259.145 164.328 262.196L164.328 262.205C163.801 274.411 162.823 297.071 138.955 309.407C138.429 309.678 138.226 309.882 138.145 309.972C139.097 312.119 153.535 316.752 179.758 318.537C196.403 319.69 228.6 320.323 257.173 311.893C257.497 311.78 257.861 311.87 258.124 312.119C258.388 312.368 258.529 312.729 258.509 313.113C256.835 339.265 268.316 405.694 275.23 445.705L275.316 446.203C275.765 448.831 276.198 451.341 276.609 453.727C277.403 458.338 278.118 462.487 278.718 466.136C278.815 466.211 278.912 466.285 279.009 466.358H276.593Z" fill="#151924"/>
<path d="M250.814 467.016C276.065 467.627 301.317 468.237 326.588 468.824L326.689 454.451L242.37 452.146L250.814 467.016Z" fill="white"/>
<path d="M326.588 470C326.871 470 327.135 469.887 327.317 469.661C327.519 469.435 327.641 469.141 327.641 468.825L327.742 454.474C327.742 453.819 327.276 453.299 326.709 453.276L242.39 450.971C242.005 450.971 241.641 451.197 241.438 451.581C241.236 451.965 241.256 452.44 241.458 452.802L249.923 467.65C250.105 467.989 250.449 468.192 250.793 468.192L326.568 470C326.568 470 326.568 470 326.588 470ZM325.616 455.626L325.535 467.627L251.421 465.842L244.334 453.412L325.616 455.626Z" fill="#151924"/>
<path d="M35.5188 335.87L200.23 336.887L256.99 467.017L93.838 466.542L35.5188 335.87Z" fill="white"/>
<path d="M256.99 468.192C257.354 468.192 257.698 467.989 257.881 467.627C258.083 467.288 258.103 466.836 257.941 466.475L201.181 336.345C200.999 335.938 200.635 335.69 200.23 335.69L35.5187 334.673C35.1542 334.673 34.8099 334.876 34.6277 335.238C34.4252 335.577 34.405 336.029 34.5872 336.39L92.9063 467.062C93.0886 467.469 93.453 467.718 93.858 467.718L256.99 468.192ZM199.561 338.063L255.289 465.819L94.4858 465.367L37.2399 337.068L199.561 338.063Z" fill="#151924"/>
<path d="M139.703 388.89C135.025 388.37 129.923 389.771 128.019 394.563C126.116 399.354 127.574 405.365 131.036 408.891C134.499 412.416 139.642 413.569 144.219 412.416C146.689 411.784 149.139 410.45 150.577 408.122C151.569 406.495 151.995 404.506 151.995 402.54C152.035 396.077 149.403 389.952 139.703 388.89Z" fill="white"/>
<path d="M140.716 414.043C141.951 414.043 143.206 413.885 144.462 413.568C146.669 413.026 149.666 411.738 151.468 408.777C152.501 407.082 153.048 404.913 153.068 402.54C153.108 396.438 150.84 388.912 139.825 387.714C133.689 387.036 128.91 389.432 127.067 394.087C125.042 399.172 126.419 405.772 130.348 409.772C133.041 412.529 136.807 414.043 140.716 414.043ZM137.941 389.974C138.63 389.974 139.217 390.02 139.602 390.065C147.276 390.901 150.982 394.969 150.942 402.517C150.942 403.851 150.719 405.794 149.706 407.444C148.613 409.252 146.568 410.608 143.996 411.263C139.521 412.393 134.823 411.15 131.765 408.032C128.505 404.709 127.33 399.24 128.991 395.059C130.712 390.698 135.208 389.974 137.941 389.974Z" fill="#151924"/>
<path d="M439.399 379.918C408.964 378.019 378.347 375.692 347.729 373.341C344.995 372.844 331.367 370.652 328.006 370.11C325.151 369.635 322.437 368.482 319.825 367.126C310.713 362.426 291.172 353.228 286.818 355.939C276.774 359.239 267.662 367.33 260.554 377.568C256.565 383.308 253.285 392.845 254.945 394.472C255.998 395.512 257.577 395.941 258.752 394.856C263.49 383.534 271.934 374.2 282.12 369.002C277.382 371.985 272.967 375.624 268.998 379.782C264.989 384.008 261.283 389.093 260.392 395.15C260.331 395.625 260.271 396.145 260.493 396.551C261.04 397.568 262.437 396.981 263.268 396.235C264.888 394.811 285.826 375.85 289.734 376.347C284.53 378.539 265.981 395.331 265.92 397.116C265.88 397.975 266.022 398.879 266.508 399.534C267.156 400.438 268.33 400.732 269.363 400.551C270.395 400.371 271.327 399.76 272.218 399.15C278.212 395.082 283.679 389.997 290.159 386.992C293.379 385.5 297.328 384.619 300.203 386.856C294.432 389.297 289.045 392.845 284.51 397.478C283.781 398.224 283.173 399.082 282.707 400.054C281.999 401.478 281.189 403.535 282.181 404.71C283.801 406.631 285.158 405.659 286.535 404.755C292.083 400.664 297.753 397.297 303.686 394.676C305.529 393.862 307.716 393.139 309.396 394.337C310.834 395.376 317.82 400.212 332.177 401.049C337.078 401.342 341.796 402.766 347.932 404.642C428.627 429.457 452.724 439.355 472.265 429.976C476.092 428.146 477.388 425.908 476.112 418.564C472.69 399.037 469.369 387.918 439.399 379.918Z" fill="white"/>
<path d="M455.883 434.745C462.302 434.745 467.608 433.547 472.67 431.129C477.328 428.892 478.421 425.795 477.125 418.405C473.683 398.563 470.24 386.946 439.623 378.788C439.562 378.765 439.501 378.765 439.44 378.765C408.681 376.844 377.74 374.471 347.851 372.189C345.745 371.804 337.827 370.516 332.562 369.68C330.639 369.364 329.039 369.115 328.148 368.957C325.171 368.46 322.377 367.149 320.251 366.064C311.786 361.702 291.618 351.939 286.393 354.855C276.694 358.064 267.46 365.68 259.684 376.867C256.302 381.748 251.523 392.754 254.196 395.399C255.735 396.935 257.78 397.139 259.218 395.964C259.238 396.393 259.319 396.822 259.542 397.229C259.846 397.794 260.352 398.178 260.939 398.291C261.972 398.495 263.146 397.885 263.875 397.229C263.997 397.116 264.24 396.89 264.604 396.596C264.847 396.37 265.09 396.167 265.333 395.941C265.009 396.438 264.827 396.845 264.827 397.116C264.766 398.404 265.05 399.512 265.657 400.325C266.508 401.501 267.986 402.043 269.505 401.749C270.72 401.523 271.773 400.868 272.745 400.212C274.77 398.856 276.734 397.342 278.658 395.896C282.424 393.048 286.312 390.088 290.544 388.144C292.549 387.218 295.141 386.381 297.409 386.901C292.245 389.387 287.669 392.687 283.761 396.687C282.971 397.5 282.282 398.472 281.756 399.557C281.25 400.551 279.731 403.625 281.391 405.591C283.538 408.145 285.603 406.812 286.96 405.908L287.061 405.84C292.731 401.659 298.28 398.404 304.071 395.828C305.61 395.15 307.534 394.472 308.81 395.376C311.341 397.184 318.691 401.478 332.117 402.269C337.017 402.563 341.938 404.077 347.648 405.817C358.401 409.117 368.283 412.213 377.011 414.925C418.421 427.852 440.433 434.745 455.883 434.745ZM439.238 381.093C468.559 388.913 471.678 399.421 475.06 418.835C476.295 425.954 474.958 427.423 471.84 428.937C455.235 436.892 435.674 430.79 377.578 412.665C368.85 409.93 358.968 406.857 348.215 403.557C342.404 401.772 337.382 400.212 332.238 399.919C319.319 399.173 312.353 395.105 309.964 393.41C307.878 391.918 305.306 392.754 303.302 393.658C297.389 396.28 291.719 399.625 285.968 403.851L285.907 403.874C284.449 404.823 283.902 405.094 282.951 403.964C282.768 403.761 282.485 403.015 283.619 400.71C284.044 399.851 284.591 399.082 285.219 398.427C289.512 394.02 294.675 390.517 300.568 388.031C300.932 387.873 301.196 387.511 301.236 387.059C301.277 386.63 301.115 386.201 300.791 385.952C297.389 383.308 292.893 384.506 289.734 385.975C285.32 388.031 281.331 391.037 277.483 393.952C275.58 395.376 273.636 396.868 271.651 398.201C270.821 398.766 270.011 399.286 269.161 399.444C268.533 399.557 267.703 399.421 267.298 398.856C267.055 398.517 266.933 398.02 266.933 397.41C268.33 394.811 285.198 379.579 290.079 377.522C290.544 377.319 290.808 376.822 290.747 376.279C290.686 375.737 290.301 375.307 289.815 375.24C288.823 375.104 285.765 374.72 263.268 394.743C262.924 395.037 262.681 395.263 262.559 395.376C262.013 395.851 261.446 396.009 261.304 395.964C261.344 395.964 261.324 395.851 261.385 395.421C262.114 390.562 264.746 385.907 269.687 380.709C273.595 376.618 277.929 373.047 282.606 370.109C283.092 369.793 283.295 369.115 283.032 368.55C282.768 367.985 282.161 367.737 281.655 368.008C271.368 373.251 262.721 382.765 257.882 394.156C257.173 394.63 256.241 394.269 255.634 393.658C254.925 392.506 257.234 384.325 261.385 378.358C268.796 367.691 277.929 360.143 287.102 357.137C287.183 357.115 287.244 357.069 287.325 357.024C290.099 355.284 302.978 359.804 319.36 368.234C321.607 369.386 324.584 370.787 327.824 371.307C328.715 371.443 330.315 371.714 332.238 372.03C337.524 372.889 345.522 374.177 347.527 374.539C347.567 374.539 347.588 374.539 347.628 374.562C377.557 376.822 408.479 379.195 439.238 381.093Z" fill="#151924"/>
<path d="M421.236 379.94C421.337 379.94 421.458 379.918 421.56 379.873C422.106 379.669 422.41 378.991 422.228 378.381C410.827 339.871 404.388 315.531 404.388 262.783C404.388 262.128 403.922 261.608 403.335 261.608C402.748 261.608 402.282 262.128 402.282 262.783C402.282 315.893 408.762 340.391 420.223 379.127C420.365 379.624 420.79 379.94 421.236 379.94Z" fill="#151924"/>
<path d="M257.476 314.221C257.76 314.221 258.063 314.085 258.266 313.836C258.59 313.452 258.61 312.887 258.387 312.435C258.266 311.757 258.225 308.955 258.165 304.796C258.084 298.966 257.962 289.225 257.476 274.445C257.456 273.79 256.97 273.292 256.383 273.315C255.795 273.338 255.35 273.88 255.37 274.535C255.856 289.316 255.978 299.034 256.059 304.842C256.16 312.684 256.16 313.317 256.767 313.927C256.97 314.13 257.213 314.221 257.476 314.221Z" fill="#151924"/>
<path d="M317.963 292.525C341.189 292.525 366.683 290.062 385.374 287.146C385.576 287.124 385.698 286.92 385.677 286.694C385.657 286.468 385.475 286.333 385.272 286.355C349.329 291.96 288.114 295.938 266.792 283.824C266.609 283.734 266.407 283.802 266.326 284.005C266.245 284.208 266.306 284.434 266.488 284.525C276.815 290.401 296.417 292.525 317.963 292.525Z" fill="white"/>
<path d="M340.966 326.312C356.356 326.312 372.454 324.843 388.613 321.159C388.796 321.114 388.937 320.91 388.897 320.685C388.856 320.481 388.674 320.323 388.472 320.368C342.383 330.9 296.821 323.306 266.73 315.102C266.548 315.057 266.346 315.17 266.305 315.396C266.265 315.6 266.366 315.826 266.568 315.871C286.19 321.227 312.353 326.312 340.966 326.312Z" fill="white"/>
<path d="M481.702 390.517C481.783 390.517 481.864 390.494 481.925 390.427C482.066 390.291 482.087 390.042 481.965 389.862C468.013 371.533 445.273 362.29 424.031 366.335C423.828 366.38 423.707 366.584 423.747 366.787C423.788 367.013 423.97 367.149 424.152 367.104C445.151 363.103 467.649 372.234 481.439 390.359C481.499 390.472 481.601 390.517 481.702 390.517Z" fill="white"/>
<path d="M479.171 373.794C479.312 373.794 479.434 373.703 479.495 373.545C479.576 373.342 479.474 373.116 479.292 373.025C477.166 372.076 475.404 370.313 473.683 368.596C473.055 367.986 472.428 367.33 471.78 366.743C467.77 363.081 462.93 360.686 457.807 359.827C457.605 359.782 457.443 359.94 457.402 360.166C457.382 360.392 457.504 360.573 457.706 360.618C462.708 361.454 467.426 363.782 471.334 367.353C471.982 367.94 472.61 368.573 473.217 369.183C474.979 370.946 476.802 372.754 479.029 373.749C479.09 373.771 479.13 373.794 479.171 373.794Z" fill="white"/>
<path d="M169.31 288.322C169.452 288.322 169.573 288.231 169.634 288.073C173.218 278.31 174.959 267.598 174.716 257.044C174.716 256.818 174.554 256.682 174.352 256.659C174.149 256.659 174.008 256.84 174.008 257.066C174.251 267.485 172.529 278.107 168.986 287.779C168.905 287.983 169.006 288.209 169.188 288.299C169.229 288.322 169.269 288.322 169.31 288.322Z" fill="white"/>
<path d="M182.228 268.886C182.39 268.886 182.532 268.773 182.573 268.569C183.342 264.773 183.565 260.886 183.221 257.021C183.2 256.795 183.038 256.637 182.836 256.659C182.633 256.682 182.492 256.885 182.512 257.089C182.856 260.886 182.633 264.682 181.884 268.389C181.844 268.592 181.965 268.818 182.147 268.863C182.168 268.886 182.188 268.886 182.228 268.886Z" fill="white"/>
<path d="M424.071 382.224C424.172 382.224 424.253 382.201 424.354 382.178C424.921 381.998 425.245 381.365 425.104 380.732C417.388 349.025 412.103 316.436 409.43 283.869C409.37 283.214 408.863 282.739 408.276 282.807C407.689 282.875 407.264 283.44 407.324 284.095C410.018 316.797 415.303 349.522 423.058 381.365C423.18 381.885 423.605 382.224 424.071 382.224Z" fill="white"/>
<path d="M255.148 320.187C255.735 320.187 256.201 319.667 256.201 319.012L256.687 282.852C256.687 282.197 256.221 281.654 255.634 281.654C255.027 281.677 254.561 282.174 254.561 282.829L254.075 318.989C254.075 319.622 254.561 320.164 255.148 320.187Z" fill="white"/>
<path d="M87.9846 280.106L48.0105 261.634C48.0105 261.634 37.8916 261.55 31.6777 261.634C24.7423 261.728 14.4796 260.139 14.4796 260.139C14.4796 260.139 9.92952 259.712 7.5074 257.573C5.18333 255.521 4.35146 254.239 4.71851 251.929C4.92888 250.605 5.31589 250.38 6.11296 249.364C6.96978 248.271 8.18362 247.93 9.36665 247.311C11.7519 246.064 16.049 246.699 16.3825 246.751L9.89577 245.728C7.35448 245.327 5.13801 245.793 3.38838 243.719C2.44617 242.603 1.93272 241.654 1.92963 240.128C1.92524 237.96 4.78282 236.492 4.78282 236.492L1.99386 233.97C1.99386 233.97 0.701262 231.737 1.0643 230.335C1.42735 228.932 1.5187 228.906 2.39445 227.813C3.62119 226.283 4.82686 226.118 6.64207 225.717C5.00695 225.323 3.99079 224.362 3.38838 222.638C2.93099 221.33 2.93099 220.355 3.38838 219.046C3.99079 217.323 5.14784 216.8 6.64207 215.968C9.07856 214.611 13.6143 215.455 13.6143 215.455L21.5161 217.507C25.2346 217.507 26.5766 217.282 29.8828 217.507C32.3 217.672 35.9254 217.507 35.9254 217.507C35.9254 217.507 36.0667 214.374 35.9254 212.376C35.7091 209.32 34.8475 207.725 34.5309 204.679C34.0963 200.499 34.5309 193.904 34.5309 193.904C34.5309 193.904 35.2797 187.866 37.7848 185.181C38.2635 184.668 40.871 181.479 43.8274 183.129C45.9021 184.286 46.2817 184.694 46.6162 187.234C46.9559 189.811 46.3823 191.415 45.6865 193.904C44.7097 197.398 44.292 199.483 44.292 203.14C44.292 206.797 45.6865 212.376 45.6865 212.376C45.6865 212.376 46.6178 218.501 48.0105 222.125C49.1536 225.1 49.5779 227.117 51.729 229.309C54.0589 231.682 59.1661 232.9 59.1661 232.9C59.1661 232.9 85.1048 240.966 101.929 245.215C119.419 249.632 129.224 252.405 147.016 254.964C153.894 255.953 164.679 257.016 164.679 257.016L173.975 274.462C173.975 274.462 181.124 284.668 181.877 292.421C182.424 298.056 182.785 302.014 180.018 306.788C177.787 310.637 175.417 312.075 171.651 313.971C164.88 317.382 152.594 313.971 152.594 313.971L120.057 297.552L87.9846 280.106Z" fill="white"/>
<path d="M16.4032 246.754C16.4032 246.754 11.8493 246.013 9.36665 247.311C8.18362 247.93 6.96978 248.271 6.11296 249.364C5.31589 250.38 4.92888 250.605 4.71851 251.929C4.35146 254.239 5.18333 255.521 7.5074 257.573C9.92952 259.712 14.4796 260.139 14.4796 260.139C14.4796 260.139 24.7423 261.728 31.6777 261.634C37.8916 261.55 48.0105 261.634 48.0105 261.634L87.9845 280.106L120.057 297.552L152.594 313.971C152.594 313.971 164.88 317.382 171.651 313.971C175.417 312.075 177.787 310.637 180.018 306.788C182.785 302.014 182.424 298.056 181.877 292.421C181.124 284.668 173.975 274.462 173.975 274.462L164.679 257.016C164.679 257.016 153.894 255.953 147.016 254.964C129.224 252.405 119.419 249.632 101.929 245.215C85.1048 240.966 59.1661 232.9 59.1661 232.9C59.1661 232.9 54.0589 231.682 51.729 229.309C49.5779 227.117 49.1536 225.1 48.0105 222.125C46.6178 218.501 45.6865 212.376 45.6865 212.376C45.6865 212.376 44.292 206.797 44.292 203.14C44.292 199.483 44.7097 197.398 45.6865 193.904C46.3823 191.415 46.9559 189.811 46.6162 187.234C46.2817 184.694 45.9021 184.286 43.8274 183.129C40.871 181.479 38.2635 184.668 37.7848 185.181C35.2797 187.866 34.5309 193.904 34.5309 193.904C34.5309 193.904 34.0963 200.499 34.5309 204.679C34.8475 207.725 35.7091 209.32 35.9254 212.376C36.0667 214.374 35.9254 217.507 35.9254 217.507C35.9254 217.507 32.3 217.672 29.8828 217.507C26.5766 217.282 25.2346 217.507 21.5161 217.507M16.4032 246.754L23.3754 247.78M16.4032 246.754C16.4032 246.754 12.4371 246.129 9.89577 245.728C7.35448 245.327 5.13801 245.793 3.38838 243.719C2.44617 242.603 1.93272 241.654 1.92963 240.128C1.92524 237.96 4.78282 236.492 4.78282 236.492M23.3754 247.78C23.3754 247.78 25.2346 249.063 25.2346 250.346C25.2346 251.629 24.7087 252.703 23.7759 253.468C22.1472 254.805 21.4518 254.495 19.1278 254.495C17.3035 254.495 15.4092 254.495 13.0852 253.982M23.3754 247.78L26.6291 245.728C26.6291 245.728 28.4301 244.093 28.4883 242.649C28.5578 240.927 26.1643 239.058 26.1643 239.058M26.1643 239.058C26.1643 239.058 22.5308 237.601 20.1217 237.005C14.2739 235.558 4.78282 236.492 4.78282 236.492M26.1643 239.058C26.1643 239.058 28.6628 238.797 29.418 237.518C29.9236 236.662 29.9435 235.972 29.8828 234.953C29.7395 232.545 26.1643 230.335 26.1643 230.335M4.78282 236.492L1.99386 233.97C1.99386 233.97 0.701262 231.737 1.0643 230.335C1.42735 228.932 1.5187 228.906 2.39445 227.813C3.62119 226.283 4.82686 226.118 6.64207 225.717M6.64207 225.717C10.4372 225.274 12.6633 225.391 16.4032 226.23C20.4007 227.127 26.1643 230.335 26.1643 230.335M6.64207 225.717C5.00695 225.323 3.99079 224.362 3.38838 222.638C2.93099 221.33 2.93099 220.355 3.38838 219.046C3.99079 217.323 5.14784 216.8 6.64207 215.968C9.07856 214.611 13.6143 215.455 13.6143 215.455C13.6143 215.455 18.4303 216.706 21.5161 217.507M26.1643 230.335C26.1643 230.335 29.2143 231.689 31.2772 231.874C32.1819 231.955 32.7294 231.862 33.537 231.405C34.8689 230.651 34.6719 229.414 34.5309 227.769C34.2768 224.804 29.8828 222.125 29.8828 222.125C26.6154 220.322 24.7835 219.311 21.5161 217.507" stroke="black" stroke-width="2" stroke-linecap="round"/>
</svg>
