<svg width="112" height="116" viewBox="0 0 112 116" fill="none" xmlns="http://www.w3.org/2000/svg">
<path d="M74.1337 106.223L62.437 108.955L63.7094 114.404L75.4061 111.672L74.1337 106.223Z" fill="#151924"/>
<path d="M63.7109 115.071C63.4078 115.071 63.1299 114.856 63.0541 114.553L61.7784 109.108C61.7406 108.931 61.7658 108.754 61.8669 108.603C61.9553 108.451 62.1068 108.35 62.2837 108.299L73.9793 105.571C74.3456 105.495 74.6993 105.71 74.7877 106.076L76.0633 111.521C76.1012 111.698 76.076 111.874 75.9749 112.026C75.8865 112.178 75.7349 112.279 75.5581 112.329L63.8625 115.058C63.8119 115.071 63.7614 115.071 63.7109 115.071ZM63.2436 109.462L64.2161 113.605L74.6108 111.18L73.6383 107.036L63.2436 109.462Z" fill="#151924"/>
<path d="M85.6121 47.0946C81.7093 30.3816 64.8226 20.0986 48.1127 24.419C32.4637 28.4614 22.5742 44.2522 25.7823 60.1062C27.5379 68.7722 32.7416 75.7959 39.663 80.091C47.2412 84.7903 52.8238 87.7211 54.8446 96.3997L75.4068 91.5993C73.4112 83.0218 76.9098 77.9434 81.6335 70.5155C85.8899 63.8075 87.5571 55.4574 85.6121 47.0946Z" fill="white"/>
<path d="M54.8321 97.0567C54.5289 97.0567 54.2511 96.8419 54.1753 96.5387C52.3439 88.6939 47.4686 85.6873 40.7366 81.5438C40.2693 81.2533 39.7894 80.9627 39.2968 80.6595C31.8828 76.0613 26.8433 68.8101 25.1129 60.2452C23.5341 52.413 25.0245 44.3281 29.3062 37.4939C33.5879 30.6596 40.2062 25.7834 47.9485 23.7875C56.1835 21.6525 64.7216 22.9032 71.9967 27.312C79.2717 31.7081 84.3365 38.694 86.2689 46.9683C88.2013 55.2301 86.7489 63.7318 82.1893 70.8819L81.7094 71.6272C77.1751 78.7394 74.1691 83.4387 76.051 91.4478C76.0889 91.6247 76.0636 91.8015 75.9626 91.9531C75.8742 92.1047 75.7226 92.2058 75.5458 92.2563L54.9836 97.0567C54.9331 97.0567 54.8826 97.0567 54.8321 97.0567ZM55.8551 24.0906C53.3291 24.0906 50.7904 24.4065 48.2769 25.0633C32.8806 29.0426 23.2816 44.3786 26.4265 59.9673C28.0811 68.1659 32.9058 75.1138 40.0041 79.51C40.4967 79.8131 40.9766 80.1037 41.4439 80.3942C48.0243 84.4367 53.2533 87.658 55.3246 95.5787L74.5985 91.0815C72.9187 82.9081 76.152 77.8425 80.5853 70.8945L81.0652 70.1492C85.4227 63.2897 86.812 55.1669 84.968 47.2589C83.124 39.3382 78.2613 32.6556 71.302 28.4363C66.553 25.5687 61.2483 24.0906 55.8551 24.0906Z" fill="#151924"/>
<path d="M53.9099 100.986L51.6743 91.3849L76.0129 85.7002L78.2485 95.301C79.8147 102.022 75.6467 108.742 68.9147 110.321C62.208 111.888 55.4887 107.706 53.9099 100.986Z" fill="#367DCB"/>
<path d="M63.7869 111.925C59.2021 111.925 55.0467 108.78 53.9605 104.131L51.0176 91.5363C50.9292 91.1699 51.1565 90.8162 51.5228 90.7278L75.8614 85.0431C76.0383 85.0052 76.2151 85.0305 76.3666 85.1315C76.5182 85.22 76.6193 85.3715 76.6698 85.5484L79.6126 98.1431C80.8757 103.563 77.5034 108.995 72.085 110.27L66.0856 111.673C65.3151 111.85 64.5447 111.925 63.7869 111.925ZM55.2614 103.828C55.7919 106.102 57.1812 108.034 59.1642 109.272C61.1471 110.51 63.4964 110.889 65.7698 110.359L71.7692 108.957C76.4677 107.858 79.3979 103.146 78.2991 98.4463L75.5078 86.5085L52.4701 91.89L55.2614 103.828Z" fill="#151924"/>
<path d="M55.4886 95.351C55.3876 95.351 55.2992 95.2752 55.2739 95.1742C55.2486 95.0478 55.3244 94.9342 55.4381 94.9089L74.2068 90.5254C74.3331 90.5001 74.4467 90.5759 74.472 90.6896C74.4972 90.8159 74.4215 90.9296 74.3078 90.9549L55.5392 95.3384C55.5139 95.351 55.5013 95.351 55.4886 95.351Z" fill="#151924"/>
<path d="M48.7567 66.5107C48.6556 66.5107 48.5672 66.4349 48.542 66.3338C48.5167 66.2075 48.5925 66.0938 48.7062 66.0686L67.4748 61.685C67.5885 61.6598 67.7148 61.7356 67.74 61.8493C67.7653 61.9756 67.6895 62.0893 67.5759 62.1145L48.8072 66.4981C48.782 66.5107 48.7693 66.5107 48.7567 66.5107Z" fill="#151924"/>
<path d="M46.016 12.8854C45.7129 12.8854 45.435 12.6706 45.3592 12.3674L42.669 0.821227C42.5806 0.454881 42.8079 0.101167 43.1742 0.0127386C43.5278 -0.0756898 43.8941 0.151698 43.9825 0.518044L46.6728 12.0643C46.7612 12.4306 46.5338 12.7843 46.1676 12.8728C46.1297 12.8728 46.0665 12.8854 46.016 12.8854Z" fill="#151924"/>
<path d="M81.0523 16.5617C80.926 16.5617 80.8124 16.5238 80.6987 16.4606C80.3829 16.2711 80.2819 15.8543 80.484 15.5384L86.736 5.47023C86.9254 5.15442 87.3422 5.05336 87.658 5.25548C87.9737 5.44497 88.0748 5.86185 87.8727 6.17766L81.6207 16.2459C81.4944 16.448 81.2797 16.5617 81.0523 16.5617Z" fill="#151924"/>
<path d="M99.7706 42.2565C99.4674 42.2565 99.1896 42.0417 99.1138 41.7385C99.0254 41.3722 99.2527 41.0185 99.619 40.9301L111.163 38.2393C111.517 38.1509 111.883 38.3783 111.971 38.7446C112.06 39.111 111.833 39.4647 111.466 39.5531L99.9221 42.2438C99.8716 42.2438 99.8211 42.2565 99.7706 42.2565Z" fill="#151924"/>
<path d="M18.0401 31.2784C17.9138 31.2784 17.8001 31.2405 17.6864 31.1773L7.62008 24.9242C7.30432 24.7347 7.20328 24.3178 7.40536 24.002C7.59482 23.6862 8.01161 23.5851 8.32737 23.7872L18.3937 30.0404C18.7095 30.2299 18.8105 30.6467 18.6084 30.9625C18.4821 31.1647 18.2674 31.2784 18.0401 31.2784Z" fill="#151924"/>
<path d="M1.10262 65.298C0.799494 65.298 0.521622 65.0832 0.44584 64.78C0.357428 64.4137 0.584785 64.06 0.951064 63.9716L12.4952 61.2808C12.8488 61.1924 13.2151 61.4198 13.3035 61.7861C13.3919 62.1525 13.1646 62.5062 12.7983 62.5946L1.25418 65.2853C1.20366 65.2853 1.15314 65.298 1.10262 65.298Z" fill="#151924"/>
<path d="M59.3665 89.6792C59.076 89.6792 58.7981 89.4897 58.7223 89.1865C58.6592 88.9718 52.7229 68.0774 40.901 61.4326C40.5726 61.2558 40.4589 60.8389 40.6483 60.5231C40.8252 60.1946 41.242 60.0809 41.5577 60.2704C53.8723 67.1805 59.7706 87.9485 60.0106 88.8328C60.1117 89.1865 59.897 89.5529 59.5433 89.6539C59.4928 89.6666 59.4296 89.6792 59.3665 89.6792Z" fill="#151924"/>
<path d="M68.0562 87.6452C67.7405 87.6452 67.4626 87.4178 67.3995 87.102C67.2353 86.2051 63.3199 64.9697 71.3022 53.3224C71.517 53.0192 71.9337 52.9434 72.2369 53.1455C72.54 53.3603 72.6158 53.7772 72.4137 54.0803C64.7471 65.2728 68.6751 86.6473 68.7256 86.862C68.7888 87.2284 68.5615 87.5821 68.1952 87.6452C68.132 87.6452 68.0941 87.6452 68.0562 87.6452Z" fill="#151924"/>
<path d="M41.1661 61.2431C40.863 61.2431 40.5851 61.0284 40.5093 60.7252C40.4209 60.3588 40.6483 60.0051 41.0145 59.9167C42.0123 59.6767 42.3786 59.0829 42.8459 58.325C43.3385 57.5039 43.9574 56.4806 45.5109 56.1143C47.0645 55.7479 48.0749 56.3922 48.8832 56.9101C49.6284 57.3902 50.222 57.7691 51.2325 57.5291C52.2303 57.2891 52.5965 56.6954 53.0639 55.9374C53.5564 55.1163 54.1753 54.093 55.7288 53.7267C57.2824 53.3603 58.2928 54.0046 59.1011 54.5226C59.8463 55.0026 60.44 55.3816 61.4504 55.1416C62.4482 54.9015 62.8144 54.3078 63.2818 53.5498C63.7744 52.7287 64.3932 51.7055 65.9468 51.3391C67.5003 50.9728 68.5107 51.617 69.3191 52.135C70.0642 52.615 70.6579 52.994 71.6557 52.754C72.0093 52.6656 72.3756 52.8929 72.464 53.2593C72.5524 53.6256 72.3251 53.9793 71.9588 54.0678C70.4053 54.4341 69.3948 53.7899 68.5865 53.2719C67.8413 52.7919 67.2477 52.4129 66.2499 52.6529C65.2521 52.8929 64.8858 53.4867 64.4185 54.2446C63.9259 55.0658 63.307 56.089 61.7535 56.4553C60.2 56.8217 59.1896 56.1774 58.3812 55.6595C57.636 55.1795 57.0424 54.8005 56.032 55.0405C55.0342 55.2679 54.6679 55.8742 54.2006 56.6322C53.708 57.4533 53.0891 58.4766 51.5356 58.8429C49.982 59.2093 48.9716 58.565 48.1633 58.0471C47.4181 57.567 46.8245 57.188 45.814 57.4281C44.8162 57.6681 44.45 58.2618 43.9827 59.0198C43.4901 59.8409 42.8712 60.8641 41.3177 61.2305C41.2671 61.2431 41.2166 61.2431 41.1661 61.2431Z" fill="#151924"/>
</svg>
