<svg width="10" height="11" viewBox="0 0 10 11" fill="none" xmlns="http://www.w3.org/2000/svg">
<path d="M5.26384 1.33154C7.51204 1.33154 9.33077 3.15064 9.33077 5.39925C9.33077 7.64786 7.51204 9.46696 5.26384 9.46696C3.01565 9.46696 1.19684 7.64786 1.19684 5.39925C1.18421 3.15064 3.01565 1.33154 5.26384 1.33154Z" fill="#151924"/>
<path d="M5.25102 10.1366C2.63654 10.1366 0.514648 8.0143 0.514648 5.39934C0.514648 2.78439 2.63654 0.662109 5.25102 0.662109C7.86549 0.662109 9.98738 2.78439 9.98738 5.39934C10 8.0143 7.86549 10.1366 5.25102 10.1366ZM5.25102 2.00116C3.38173 2.00116 1.85346 3.52972 1.85346 5.39934C1.85346 7.26897 3.38173 8.79752 5.25102 8.79752C7.1203 8.79752 8.64857 7.26897 8.64857 5.39934C8.6612 3.52972 7.13293 2.00116 5.25102 2.00116Z" fill="#151924"/>
</svg>
