<svg width="6" height="6" viewBox="0 0 6 6" fill="none" xmlns="http://www.w3.org/2000/svg">
<path d="M2.86388 0.84668C3.95009 0.84668 4.83421 1.73096 4.83421 2.81737C4.83421 3.90377 3.95009 4.78806 2.86388 4.78806C1.77767 4.78806 0.893555 3.90377 0.893555 2.81737C0.893555 1.73096 1.77767 0.84668 2.86388 0.84668Z" fill="#151924"/>
<path d="M2.86385 5.47038C1.41137 5.47038 0.224121 4.28292 0.224121 2.83017C0.224121 1.37741 1.41137 0.189941 2.86385 0.189941C4.31634 0.189941 5.50358 1.37741 5.50358 2.83017C5.51621 4.28292 4.32897 5.47038 2.86385 5.47038ZM2.86385 1.51637C2.14392 1.51637 1.56293 2.09747 1.56293 2.81753C1.56293 3.53759 2.14392 4.11869 2.86385 4.11869C3.58378 4.11869 4.16477 3.53759 4.16477 2.81753C4.1774 2.09747 3.58378 1.51637 2.86385 1.51637Z" fill="#151924"/>
</svg>
