<svg width="84" height="84" viewBox="0 0 84 84" fill="none" xmlns="http://www.w3.org/2000/svg">
<path d="M38.4989 70.1059C32.6006 69.3353 26.9169 66.6951 22.3826 62.1726C11.4827 51.2706 11.4827 33.5849 22.3826 22.683C32.4237 12.6401 48.2116 11.8568 59.1621 20.3081L68.4201 11.0483C52.3417 -2.45593 28.3189 -1.66008 13.1878 13.4738C-2.80218 29.4667 -2.80218 55.3762 13.1878 71.3691C20.2608 78.4434 29.2662 82.3848 38.4989 83.1933V70.1059Z" fill="white"/>
<path d="M38.4989 83.8627C38.4736 83.8627 38.461 83.8627 38.4357 83.8627C28.7357 83.0037 19.604 78.7338 12.7078 71.8364C4.85176 63.9789 0.519531 53.5317 0.519531 42.415C0.519531 31.2983 4.85176 20.8511 12.7078 12.9936C20.1092 5.59093 29.9482 1.27057 40.4187 0.841058C50.8261 0.424181 60.9177 3.86026 68.8496 10.5177C68.9885 10.644 69.0769 10.8082 69.0895 10.9977C69.1022 11.1872 69.0263 11.364 68.8874 11.503L59.6294 20.7627C59.3894 21.0027 59.0105 21.028 58.7453 20.8132C47.9464 12.4757 32.5121 13.4611 22.8499 23.125C17.6967 28.2791 14.8675 35.1134 14.8675 42.4024C14.8675 49.6788 17.6967 56.5257 22.8499 61.6798C27.1316 65.9622 32.5753 68.6404 38.5747 69.4236C38.9031 69.4615 39.1557 69.752 39.1557 70.0931V83.1805C39.1557 83.37 39.0798 83.5469 38.9409 83.6732C38.8272 83.7995 38.6631 83.8627 38.4989 83.8627ZM42.1744 2.23065C31.7922 2.23065 21.4227 6.17203 13.6551 13.9411C6.05164 21.5459 1.85834 31.6647 1.85834 42.415C1.85834 53.1654 6.05164 63.2841 13.6551 70.889C20.1471 77.3821 28.7104 81.4751 37.8295 82.4478V70.6742C31.767 69.7647 26.2727 66.9855 21.9153 62.6272C16.5095 57.2205 13.5414 50.0451 13.5414 42.4024C13.5414 34.7597 16.5095 27.5843 21.9153 22.1776C31.9059 12.1725 47.7948 11.023 59.1116 19.3858L67.435 11.0609C60.0968 5.16142 51.1292 2.23065 42.1744 2.23065Z" fill="#151924"/>
<path d="M64.2393 25.3862C68.1294 30.4267 70.0619 36.4777 70.0366 42.5413L83.0205 44.032C83.3994 34.1533 80.2293 24.1609 73.4973 16.1392L64.2393 25.3862Z" fill="#151924"/>
<path d="M83.0205 44.6891C82.9953 44.6891 82.97 44.6891 82.9448 44.6891L69.9608 43.1984C69.6198 43.1605 69.3672 42.8699 69.3672 42.5289C69.3924 36.5031 67.3842 30.5531 63.7088 25.7906C63.5067 25.5253 63.532 25.1464 63.7593 24.9064L73.0174 15.6466C73.1563 15.5077 73.3204 15.4445 73.5225 15.4571C73.712 15.4698 73.8888 15.5456 74.0025 15.6972C80.646 23.6178 84.0942 33.686 83.69 44.0448C83.6774 44.2343 83.6015 44.4111 83.4626 44.5248C83.3363 44.6385 83.1847 44.6891 83.0205 44.6891ZM70.706 41.9351L82.3637 43.2742C82.5658 33.7366 79.4083 24.5021 73.4342 17.1247L65.1108 25.4496C68.6346 30.1994 70.6049 36.0104 70.706 41.9351Z" fill="#151924"/>
<path d="M69.0895 49.6533C67.8644 54.239 65.4646 58.572 61.8649 62.1596C57.318 66.7074 51.5965 69.3476 45.6729 70.1055V83.1929C54.9309 82.3845 63.9742 78.4431 71.0598 71.3562C76.8193 65.5957 80.5073 58.5467 82.1114 51.144L69.0895 49.6533Z" fill="#367DCB"/>
<path d="M45.6855 83.8751C45.5213 83.8751 45.3571 83.812 45.2308 83.6983C45.0919 83.5719 45.0161 83.3951 45.0161 83.2056V70.1182C45.0161 69.7771 45.2687 69.4992 45.5971 69.4487C51.6343 68.6781 57.0907 66 61.3976 61.6922C64.7699 58.3067 67.2076 54.0874 68.4453 49.4765C68.5337 49.1607 68.8369 48.9459 69.1653 48.9838L82.1997 50.4745C82.3891 50.4997 82.5534 50.6008 82.6671 50.7524C82.7807 50.904 82.8186 51.0935 82.7807 51.283C81.0882 59.0647 77.2107 66.1768 71.5523 71.8236C64.6436 78.7337 55.474 83.0035 45.7486 83.8499C45.7234 83.8751 45.6981 83.8751 45.6855 83.8751ZM46.3549 70.6993V82.4603C55.4993 81.5002 64.0879 77.4072 70.5925 70.8888C75.8972 65.5831 79.5853 58.9762 81.303 51.7251L69.582 50.386C68.2432 55.0096 65.7551 59.2289 62.3449 62.6397C57.9748 67.0106 52.4554 69.7898 46.3549 70.6993Z" fill="#151924"/>
</svg>
