<svg width="304" height="284" viewBox="0 0 304 284" fill="none" xmlns="http://www.w3.org/2000/svg">
<path d="M129.718 92.174C127.192 103.025 127.166 118.134 127.166 118.134L133.532 120.724C133.532 120.724 139.557 145.496 101.59 137.904C94.2138 136.426 72.856 120.206 72.856 120.206L89.7427 115.38C89.7427 115.38 91.3594 90.835 92.0035 78.6318C100.883 82.7753 119.07 88.8516 129.718 92.174Z" fill="white"/>
<path d="M114.536 140.039C110.697 140.039 106.339 139.546 101.451 138.574C94.012 137.083 73.3235 121.418 72.452 120.762C72.2499 120.61 72.1489 120.357 72.1994 120.105C72.2499 119.852 72.4267 119.65 72.6794 119.587L89.1114 114.887C89.3387 111.426 90.7533 89.7484 91.347 78.6191C91.3596 78.3917 91.4859 78.1896 91.6753 78.0759C91.8648 77.9622 92.1048 77.9496 92.3069 78.038C100.731 81.9668 117.845 87.7651 129.933 91.5423C130.274 91.6433 130.463 91.9971 130.387 92.3381C128.152 101.952 127.886 115.115 127.849 117.704L133.797 120.13C134 120.206 134.151 120.383 134.202 120.597C134.29 120.938 136.172 129.023 130.69 134.733C127.268 138.258 121.862 140.026 114.536 140.039ZM74.3466 120.496C78.7672 123.781 95.515 136.022 101.729 137.26C115.446 140.001 124.855 138.839 129.705 133.798C134.088 129.238 133.229 122.745 132.951 121.216L126.914 118.753C126.661 118.652 126.497 118.399 126.497 118.134C126.497 117.982 126.56 103.379 128.935 92.6287C117.264 88.9652 101.236 83.5332 92.6353 79.655C91.9658 92.0097 90.4376 115.191 90.4249 115.431C90.4123 115.708 90.2102 115.949 89.945 116.037L74.3466 120.496Z" fill="#151924"/>
<path d="M111.151 1.10495C94.1511 0.435417 77.6054 11.3879 78.8937 20.3065C70.7724 17.919 61.4765 33.4824 61.8048 40.7714C62.2216 50.1322 80.4724 81.019 84.3626 85.9331C86.194 88.2448 87.5075 89.2933 90.6651 90.2534C90.463 87.6764 92.9386 86.0215 92.9764 83.4318C93.027 80.2357 88.7327 74.6647 92.105 74.7405C108.183 75.1321 106.112 78.7703 136.639 49.071C140.53 45.2812 143.081 36.1352 143.94 29.2252C144.773 22.5046 139.961 2.22925 111.151 1.10495Z" fill="#151924"/>
<path d="M90.6652 90.9105C90.6021 90.9105 90.5389 90.8979 90.4758 90.8853C87.0656 89.862 85.6763 88.6619 83.8449 86.3501C79.8158 81.2592 61.565 50.2335 61.1482 40.7969C60.8956 35.2385 65.7077 26.042 71.0251 21.8606C73.4627 19.953 75.913 19.1319 78.1612 19.4478C78.1107 16.8833 79.3358 14.142 81.7356 11.4766C86.8509 5.79188 98.256 -0.0822878 111.189 0.423017C123.15 0.890424 132.585 4.80654 138.471 11.7418C144.218 18.5129 145.001 26.1809 144.622 29.2886C143.713 36.6155 141.035 45.7236 137.12 49.526C109.649 76.2567 108.423 76.1935 96.6773 75.5745C95.3385 75.4987 93.8102 75.4229 92.1051 75.385C91.8272 75.3724 91.6125 75.4229 91.562 75.5114C91.2715 75.9282 91.9662 77.6968 92.4335 78.8716C93.0524 80.4381 93.6965 82.055 93.6712 83.432C93.646 84.8468 93.0145 85.9712 92.3956 87.0449C91.8146 88.0808 91.2589 89.0535 91.3473 90.1905C91.3599 90.4052 91.2715 90.6326 91.0947 90.7589C90.9557 90.86 90.8042 90.9105 90.6652 90.9105ZM77.1887 20.7236C75.13 20.7236 73.2101 21.8479 71.8461 22.9217C66.4024 27.1789 62.2723 36.1607 62.4744 40.7464C62.8785 49.9429 80.902 80.5012 84.8806 85.5164C86.4088 87.4365 87.5329 88.4724 90.0085 89.3314C90.16 88.2324 90.6905 87.2976 91.1957 86.388C91.7514 85.4153 92.2693 84.4931 92.2945 83.4067C92.3198 82.3077 91.7009 80.7412 91.1578 79.3643C90.4 77.4315 89.7306 75.764 90.4379 74.7534C90.7663 74.2733 91.3346 74.046 92.1177 74.0586C93.8481 74.0965 95.3763 74.1849 96.7278 74.2481C107.943 74.8418 109.118 74.8923 136.16 48.5786C139.848 44.9909 142.374 36.2239 143.258 29.137C143.624 26.2315 142.866 19.0309 137.423 12.6135C131.701 5.8803 122.847 2.22948 111.114 1.76207C98.5971 1.2694 87.6213 6.91619 82.7081 12.3735C80.2831 15.0642 79.1969 17.7676 79.5506 20.1931C79.5884 20.4205 79.5 20.6478 79.3232 20.7994C79.1464 20.951 78.919 21.0016 78.6917 20.9384C78.1991 20.7994 77.6939 20.7236 77.1887 20.7236Z" fill="#151924"/>
<path d="M137.625 44.2453C137.6 44.0558 131.802 44.8012 126.914 37.8406C125.955 41.5293 125.449 45.3949 117.884 45.0286C114.208 44.8517 108.815 38.8638 107.451 35.2762C107.451 35.2762 115.497 33.3434 80.5233 48.7299C80.5739 49.45 80.5991 50.1448 80.6244 50.8143C80.7002 53.2903 80.8265 58.6971 82.1779 63.9775C77.5678 61.1604 74.2461 62.2216 72.061 65.1776C69.876 68.1336 70.6843 72.1887 73.5514 74.3615C76.4185 76.547 80.9528 76.8754 84.6913 75.4984C86.6364 81.8527 90.0087 94.6495 95.3513 99.7531C101.035 105.172 110.091 107.863 118.894 106.739C127.698 105.615 136.008 100.701 140.505 93.98C145.607 86.3372 145.67 77.2039 143.94 68.8916C142.21 60.592 138.863 52.6334 137.625 44.2453Z" fill="white"/>
<path d="M114.878 107.661C107.236 107.661 99.8349 104.97 94.8712 100.233C89.9454 95.5338 86.7752 84.8845 84.6785 77.8355C84.527 77.3176 84.3754 76.8123 84.2365 76.3449C80.3084 77.5576 75.9257 77.0018 73.1344 74.8795C69.8758 72.3909 69.1559 67.9442 71.5177 64.7607C73.9049 61.5268 77.3024 60.8067 81.1799 62.6511C80.1569 57.9012 80.0306 53.3029 79.9548 50.9785V50.8143C79.9422 50.2206 79.9043 49.5384 79.8538 48.7426C79.8411 48.4647 79.9927 48.1994 80.2579 48.0857C99.0645 39.8113 105.001 36.7163 106.87 35.5794C106.857 35.5541 106.845 35.5162 106.832 35.491C106.769 35.3141 106.782 35.112 106.87 34.9351C106.958 34.7709 107.123 34.6446 107.312 34.594C107.64 34.5182 108.638 34.2782 108.903 35.0362C109.005 35.3394 109.03 35.592 108.562 36.0215C110.343 39.4323 114.941 44.1948 117.934 44.3338C124.527 44.6496 125.272 41.6936 126.131 38.2828C126.182 38.068 126.232 37.8659 126.295 37.6511C126.359 37.3985 126.573 37.209 126.826 37.1585C127.078 37.1079 127.344 37.2216 127.495 37.4364C130.16 41.2262 133.482 43.26 137.36 43.5127C137.713 43.5379 138.244 43.5632 138.319 44.1317C139.014 48.8184 140.403 53.4672 141.742 57.977C142.791 61.4763 143.864 65.1018 144.622 68.7527C146.757 79.023 145.569 87.6384 141.086 94.3464C136.475 101.244 128.013 106.246 119.008 107.396C117.606 107.573 116.242 107.661 114.878 107.661ZM84.6785 74.829C84.7796 74.829 84.8806 74.8542 84.9816 74.9047C85.1458 74.9932 85.2721 75.1321 85.3227 75.309C85.5248 75.9659 85.7395 76.6859 85.9668 77.4692C87.8993 83.9623 91.1326 94.8264 95.8058 99.2731C101.363 104.579 110.179 107.181 118.806 106.082C127.445 104.983 135.541 100.195 139.936 93.6137C144.205 87.2216 145.329 78.9472 143.271 69.0432C142.525 65.4555 141.452 61.8552 140.416 58.3813C139.115 53.9977 137.764 49.4753 137.031 44.8644C133.217 44.5612 129.92 42.7168 127.205 39.3692C126.346 42.6537 124.994 46.0518 117.833 45.7107C114.309 45.5465 109.447 40.5945 107.413 36.83C106.655 37.2974 105.519 37.9038 103.877 38.7375C99.355 41.024 91.7262 44.5233 81.2052 49.1595C81.2431 49.7785 81.2683 50.309 81.281 50.8017V50.9659C81.3568 53.4798 81.5083 58.7224 82.8092 63.8133C82.8724 64.0786 82.7714 64.3565 82.5566 64.5207C82.3419 64.6849 82.0388 64.6976 81.8114 64.5586C77.9466 62.1963 74.8395 62.5374 72.5913 65.5819C70.6715 68.1842 71.2778 71.8098 73.9428 73.8436C76.5446 75.8143 80.7631 76.2438 84.4386 74.8795C84.527 74.8416 84.6027 74.829 84.6785 74.829Z" fill="#151924"/>
<path d="M131.588 57.5353C131.55 56.4868 130.628 55.6657 129.529 55.691C128.417 55.7289 127.546 56.6006 127.584 57.6491C127.622 58.6976 128.544 59.5187 129.655 59.4934C130.754 59.4555 131.625 58.5839 131.588 57.5353Z" fill="#151924"/>
<path d="M104.116 63.0305C104.078 61.982 103.156 61.1608 102.058 61.1861C100.946 61.224 100.075 62.0957 100.113 63.1442C100.15 64.1927 101.072 65.0138 102.171 64.9885C103.27 64.9633 104.142 64.079 104.116 63.0305Z" fill="#151924"/>
<path d="M115.534 94.4096C113.021 94.4096 110.507 93.5253 108.613 91.8578C108.335 91.6177 108.31 91.1882 108.55 90.9103C108.79 90.6324 109.219 90.6072 109.497 90.8472C112.061 93.0958 115.888 93.7021 119.02 92.3631C119.361 92.2115 119.753 92.3757 119.904 92.7168C120.043 93.0579 119.892 93.4495 119.551 93.6011C118.275 94.1443 116.898 94.4096 115.534 94.4096Z" fill="#151924"/>
<path d="M118.919 83.3181C118.894 83.3181 118.869 83.3181 118.844 83.3181C116.722 83.3055 114.777 82.4843 113.514 81.0821C113.261 80.8042 113.286 80.3873 113.564 80.1347C113.842 79.882 114.259 79.9073 114.511 80.1852C115.509 81.2969 117.138 81.9664 118.856 81.979C120.372 81.9664 122.001 81.5495 123.694 80.64C124.275 80.3368 124.919 79.9452 125.272 79.3767C125.714 78.6945 125.752 77.6839 125.386 76.6733C125.07 75.8269 124.552 75.069 123.997 74.2605L123.731 73.8689C120.523 69.1569 118.414 63.6743 117.618 58.0276C117.568 57.6612 117.82 57.3201 118.187 57.2696C118.553 57.2191 118.894 57.4717 118.945 57.8381C119.702 63.2827 121.736 68.5632 124.83 73.1109L125.096 73.4899C125.677 74.3237 126.27 75.1953 126.636 76.2059C127.154 77.6334 127.066 79.0483 126.396 80.0968C125.866 80.9179 125.045 81.4232 124.312 81.8148C122.456 82.8128 120.637 83.3181 118.919 83.3181Z" fill="#151924"/>
<path d="M83.2261 68.8542C82.9356 68.8542 82.6704 68.6647 82.582 68.3615C81.9378 66.1002 81.6473 64.8875 81.1295 62.6894C81.0411 62.3357 81.2684 61.9694 81.6221 61.8809C81.9757 61.7925 82.342 62.0199 82.4304 62.3736C82.9482 64.5591 83.2387 65.7592 83.8703 67.9951C83.9713 68.3488 83.7692 68.7278 83.4029 68.8163C83.3524 68.8415 83.2893 68.8542 83.2261 68.8542Z" fill="#151924"/>
<path d="M83.2008 213.687C87.5456 175.587 87.4193 137.917 84.2996 116.227C69.3958 117.187 43.971 121.052 33.2479 129.996C10.9048 148.655 10.8669 178.43 5.58748 206.158C0.737437 231.676 -1.4855 256.828 5.3475 265.607C6.00427 266.441 11.0185 269.764 12.0668 269.587C15.2244 269.031 36.9864 246.229 36.9864 253.025C36.9864 266.719 35.2687 272.239 35.2687 272.239H72.9323C72.9323 272.239 81.723 226.674 83.2008 213.687Z" fill="#367DCB"/>
<path d="M72.9322 272.922H35.2686C35.0539 272.922 34.8518 272.821 34.7255 272.644C34.5992 272.467 34.5613 272.252 34.6244 272.05C34.6371 271.999 36.3169 266.428 36.3169 253.038C36.3169 252.735 36.2537 252.52 36.1653 252.469C34.536 251.724 26.2632 258.912 21.3247 263.22C16.3231 267.565 13.4434 270.041 12.1804 270.256C10.6774 270.521 5.38525 266.77 4.81689 266.037C-2.68552 256.386 0.737301 228.088 4.93056 206.057C5.91573 200.865 6.7367 195.509 7.53241 190.33C10.9426 167.957 14.4791 144.814 32.8183 129.503C42.9983 121.002 66.8822 116.694 84.2489 115.57C84.5899 115.544 84.9057 115.797 84.9562 116.138C88.3664 139.774 87.937 178.089 83.87 213.763C82.4049 226.623 73.6773 271.911 73.5889 272.366C73.5258 272.694 73.2479 272.922 72.9322 272.922ZM36.1401 271.57H72.3764C73.3742 266.378 81.1545 225.65 82.5312 213.611C86.5603 178.354 87.0149 140.519 83.7184 116.947C66.6044 118.109 43.4909 122.328 33.6772 130.527C15.7295 145.509 12.3824 167.376 8.85858 190.519C8.06287 195.711 7.24191 201.08 6.25674 206.297C0.320495 237.512 0.19419 257.889 5.89046 265.203C6.52198 266.024 11.1194 268.93 11.9783 268.93C12.9129 268.765 16.9167 265.279 20.4532 262.197C28.8271 254.908 34.4729 250.221 36.7337 251.244C37.1631 251.434 37.6683 251.901 37.6683 253.025C37.6557 263.813 36.6074 269.536 36.1401 271.57Z" fill="#151924"/>
<path d="M196.912 252.444C208.569 251.016 219.027 207.636 201.345 204.617C198.907 204.2 188.613 162.841 167.887 136.767C156.848 122.884 133.305 119.485 129.92 118.134C145.127 144.435 121.092 272.239 121.092 272.239L152.554 272.302C152.554 272.302 159.69 225.221 161.029 214.369C162.039 220.521 169.971 234.455 178.939 245.104C182.273 249.071 185.279 248.3 187.363 250.385C189.788 252.798 194.234 252.772 196.912 252.444Z" fill="#367DCB"/>
<path d="M152.579 272.985L121.117 272.921C120.915 272.921 120.725 272.833 120.599 272.681C120.473 272.53 120.422 272.328 120.46 272.126C120.7 270.85 144.268 144.258 129.364 118.475C129.225 118.222 129.251 117.919 129.44 117.704C129.63 117.49 129.933 117.414 130.198 117.515C130.754 117.742 132.017 118.046 133.608 118.437C141.262 120.319 159.21 124.741 168.43 136.35C182.74 154.364 192.225 179.958 197.315 193.715C199.147 198.667 200.877 203.341 201.559 203.973C208.102 205.147 211.714 211.855 211.461 222.378C211.146 235.529 204.628 252.179 197 253.101C194.398 253.417 189.611 253.556 186.908 250.852C186.163 250.107 185.241 249.766 184.167 249.362C182.551 248.755 180.53 248.01 178.446 245.534C170.981 236.678 163.858 224.981 161.281 217.742C159.286 232.497 153.299 271.974 153.236 272.404C153.185 272.732 152.907 272.985 152.579 272.985ZM121.913 271.582L151.998 271.646C152.819 266.251 159.147 224.374 160.384 214.293C160.422 213.965 160.7 213.712 161.041 213.7C161.382 213.712 161.66 213.927 161.711 214.256C162.746 220.534 170.88 234.468 179.469 244.675C181.326 246.886 183.081 247.543 184.635 248.111C185.797 248.541 186.896 248.957 187.855 249.905C190.243 252.292 194.928 252.015 196.836 251.774C203.088 251.017 209.782 236.161 210.11 222.34C210.224 217.679 209.58 206.701 201.231 205.274C200.183 205.097 199.425 203.29 196.052 194.17C190.988 180.489 181.553 155.021 167.369 137.171C158.427 125.916 140.795 121.583 133.267 119.726C132.497 119.536 131.815 119.372 131.246 119.22C136.905 131.234 137.119 160.112 131.878 205.11C128.177 236.944 122.86 266.428 121.913 271.582Z" fill="#151924"/>
<path d="M43.7939 244.309C43.7434 244.309 43.6802 244.296 43.6297 244.283C43.2761 244.195 43.0614 243.829 43.1498 243.462C46.2442 231.537 48.1135 219.208 50.7153 202.128C52.4836 190.506 54.6812 176.055 57.8767 157.725C57.9399 157.358 58.2809 157.118 58.6472 157.181C59.0134 157.245 59.2534 157.598 59.1903 157.952C55.9948 176.269 53.7971 190.721 52.0415 202.33C49.4397 219.448 47.5577 231.802 44.4507 243.803C44.3749 244.107 44.097 244.309 43.7939 244.309Z" fill="#151924"/>
<path d="M161.054 215.039C160.864 215.039 160.687 214.963 160.549 214.811C160.359 214.609 160.334 214.319 160.448 214.079C160.713 212.98 161.647 201.787 162.633 189.963C163.239 182.623 163.933 174.298 164.578 167.148C164.616 166.782 164.944 166.504 165.31 166.542C165.676 166.58 165.954 166.896 165.916 167.275C165.285 174.425 164.59 182.737 163.971 190.077C161.938 214.483 161.875 214.533 161.496 214.874C161.37 214.988 161.205 215.039 161.054 215.039Z" fill="#151924"/>
<path d="M4.36234 243.854C4.29918 243.854 4.24867 243.828 4.19815 243.79C4.10973 243.702 4.10973 243.563 4.19815 243.475C12.812 234.91 26.8317 230.602 39.9419 232.484C40.0682 232.497 40.144 232.611 40.1314 232.737C40.1188 232.863 40.0051 232.939 39.8788 232.926C26.9074 231.057 13.0267 235.314 4.5139 243.79C4.47601 243.841 4.41286 243.854 4.36234 243.854Z" fill="#151924"/>
<path d="M5.42331 247.972C5.3349 247.972 5.24648 247.921 5.22122 247.833C5.1707 247.719 5.23385 247.593 5.34752 247.542C6.82527 246.949 8.07567 245.837 9.26292 244.763C9.69235 244.372 10.147 243.98 10.5891 243.601C13.393 241.302 16.7527 239.811 20.3397 239.281C20.466 239.268 20.5797 239.344 20.5923 239.47C20.6049 239.597 20.5292 239.71 20.4029 239.723C16.9043 240.241 13.6077 241.706 10.867 243.942C10.4249 244.308 9.98285 244.7 9.55342 245.092C8.32828 246.191 7.06525 247.328 5.49909 247.947C5.48646 247.972 5.44857 247.972 5.42331 247.972Z" fill="#151924"/>
<path d="M113.917 148.149C106.996 148.149 100.074 146.57 93.873 143.5C93.7593 143.449 93.7214 143.31 93.772 143.197C93.8225 143.083 93.9614 143.045 94.0751 143.096C102.335 147.176 111.896 148.604 121.003 147.126C125.828 146.342 129.213 144.776 131.36 142.35C131.436 142.262 131.587 142.249 131.676 142.325C131.764 142.401 131.777 142.553 131.701 142.641C129.478 145.155 126.005 146.759 121.091 147.555C118.704 147.959 116.304 148.149 113.917 148.149Z" fill="#151924"/>
<path d="M247.357 169.915C254.783 162.487 251.676 157.358 259.987 147.53C263.448 143.437 266.795 139.887 269.864 136.653C271.468 134.961 272.92 132.763 274.588 134.165C276.571 135.832 274.398 140.342 273.413 141.795C269.599 147.404 269.889 149.261 270.066 151.332C276.621 146.279 286.788 139.534 294.657 136.982C295.251 136.792 296.766 136.893 297.145 137.411C297.676 138.131 297.171 139.976 296.021 140.797C291.335 144.132 284.439 148.945 279.753 152.267C288.228 146.886 299.368 140.077 301.149 142.3C301.705 142.995 301.402 144.903 300.202 145.762C295.112 149.45 288.418 154.049 283.328 157.725C287.685 153.998 301.187 146.052 302.261 148.894C303.334 151.749 290.855 159.607 285.589 162.803C289.845 160.15 299.823 153.91 300.947 156.55C301.793 158.546 298.8 160.365 297.802 161.148C289.858 167.313 280.486 175.764 271.796 178.859C269.725 179.604 266.567 179.933 264.799 181.234C262.917 182.611 261.907 184.228 260.378 185.971C217.663 234.632 204.123 251.168 196.431 249.526C189.977 248.149 194.777 221.81 201.357 204.617C204.843 204.756 231.607 185.668 247.357 169.915Z" fill="white"/>
<path d="M197.467 250.309C197.063 250.309 196.671 250.271 196.28 250.183C195.307 249.981 194.511 249.324 193.93 248.263C190.47 241.896 194.739 220.029 200.713 204.377C200.814 204.112 201.079 203.935 201.37 203.947C201.382 203.947 201.395 203.947 201.395 203.947C204.603 203.947 230.647 185.655 246.877 169.435C250.464 165.847 251.499 162.879 252.687 159.43C253.874 155.994 255.225 152.116 259.482 147.088C262.829 143.121 266.075 139.673 269.384 136.186C269.624 135.933 269.851 135.681 270.079 135.428C271.43 133.925 273.11 132.042 275.017 133.659C277.518 135.769 274.815 140.911 273.956 142.174C271.038 146.469 270.609 148.44 270.634 150.044C277.518 144.839 287.092 138.738 294.43 136.35C295.112 136.135 297.032 136.161 297.663 137.02C297.966 137.424 298.067 138.03 297.966 138.725C297.84 139.546 297.347 140.671 296.387 141.353C295.453 142.022 294.43 142.742 293.344 143.5C298.181 141.075 300.669 140.671 301.654 141.896C302.008 142.338 302.147 142.995 302.033 143.766C301.894 144.814 301.351 145.761 300.581 146.317C299.621 147.012 298.585 147.757 297.524 148.515C299.318 147.833 300.833 147.492 301.755 147.72C302.45 147.896 302.753 148.339 302.879 148.68C303.119 149.311 303.7 150.878 297.423 155.729C298.724 155.299 299.785 155.148 300.518 155.375C301.01 155.526 301.376 155.855 301.579 156.31C302.538 158.558 300 160.403 298.648 161.388C298.484 161.502 298.345 161.615 298.231 161.704C296.716 162.879 295.175 164.117 293.533 165.43C286.801 170.837 279.172 176.964 272.049 179.516C271.316 179.781 270.483 179.983 269.599 180.198C267.969 180.602 266.289 181.019 265.216 181.802C263.94 182.737 263.094 183.773 262.121 184.973C261.743 185.441 261.338 185.933 260.909 186.426C256.892 190.999 253.141 195.281 249.63 199.299C217.006 236.502 204.906 250.309 197.467 250.309ZM201.837 205.236C196.04 220.559 191.947 241.807 195.118 247.631C195.509 248.351 195.976 248.768 196.57 248.882C203.163 250.271 215.528 236.161 248.594 198.402C252.106 194.384 255.869 190.102 259.873 185.529C260.29 185.049 260.682 184.569 261.06 184.114C262.058 182.889 262.993 181.739 264.408 180.703C265.683 179.768 267.502 179.314 269.258 178.884C270.104 178.669 270.912 178.48 271.582 178.24C278.49 175.777 286.031 169.713 292.687 164.369C294.329 163.056 295.87 161.805 297.398 160.617C297.524 160.516 297.676 160.403 297.853 160.276C298.914 159.506 300.884 158.078 300.341 156.815C300.315 156.752 300.278 156.689 300.113 156.638C298.345 156.082 292.485 159.392 288.557 161.767C287.736 162.285 286.864 162.815 285.942 163.371C285.626 163.561 285.222 163.46 285.02 163.144C284.831 162.828 284.919 162.424 285.235 162.222L285.349 162.146C286.132 161.653 286.915 161.173 287.685 160.706C302.071 151.711 301.73 149.362 301.629 149.109C301.616 149.084 301.604 149.021 301.427 148.983C299.697 148.541 293.874 151.421 289.049 154.453C287.18 155.766 285.361 157.068 283.719 158.242C283.429 158.457 283.025 158.394 282.797 158.116C282.57 157.838 282.62 157.421 282.886 157.194C284.086 156.171 286.031 154.769 288.254 153.366C289.289 152.634 290.338 151.901 291.361 151.181C294.253 149.147 297.246 147.037 299.785 145.206C300.353 144.801 300.631 144.081 300.707 143.551C300.77 143.121 300.694 142.805 300.606 142.704C300.467 142.527 299.444 141.82 293.243 145.016C289.201 147.101 284.326 150.132 280.082 152.823C279.779 153.013 279.374 152.937 279.172 152.634C278.97 152.33 279.046 151.926 279.337 151.711C281.673 150.044 284.553 148.023 287.445 145.989C290.35 143.942 293.255 141.909 295.604 140.228C296.185 139.811 296.539 139.054 296.627 138.485C296.691 138.081 296.615 137.853 296.577 137.79C296.375 137.588 295.263 137.474 294.847 137.601C287.294 140.052 277.303 146.557 270.457 151.838C270.268 151.989 270.003 152.015 269.775 151.926C269.548 151.825 269.396 151.61 269.371 151.37L269.359 151.181C269.169 149.046 269.005 147.037 272.832 141.391C273.83 139.925 275.611 135.908 274.133 134.657C273.35 134 272.68 134.493 271.051 136.3C270.811 136.565 270.571 136.83 270.331 137.095C267.047 140.569 263.814 144.006 260.479 147.947C256.387 152.785 255.137 156.385 253.937 159.859C252.75 163.308 251.613 166.567 247.811 170.37C233.451 184.771 207.281 204.036 201.837 205.236Z" fill="#151924"/>
<path d="M269.624 168.93C269.434 168.93 269.245 168.854 269.106 168.69C268.866 168.412 268.904 167.982 269.194 167.742C272.238 165.191 273.362 160.681 271.872 157.005C271.581 156.297 271.228 155.64 270.836 154.933C270.306 153.96 269.75 152.962 269.434 151.85C269.333 151.497 269.535 151.118 269.889 151.017C270.242 150.916 270.621 151.118 270.722 151.472C271 152.444 271.493 153.329 272.011 154.276C272.402 154.983 272.806 155.716 273.11 156.487C274.815 160.681 273.526 165.847 270.053 168.766C269.939 168.879 269.775 168.93 269.624 168.93Z" fill="#151924"/>
<path d="M185.746 245.559C185.632 245.559 185.544 245.483 185.531 245.369C183.725 233.823 185.342 221.582 190.066 210.895C190.116 210.781 190.242 210.731 190.356 210.781C190.47 210.832 190.52 210.958 190.47 211.072C185.771 221.683 184.18 233.836 185.961 245.294C185.973 245.42 185.898 245.534 185.771 245.546C185.771 245.559 185.759 245.559 185.746 245.559Z" fill="#151924"/>
<path d="M180.53 243.69C180.429 243.69 180.34 243.627 180.315 243.526C179.102 239.433 178.976 235.062 179.936 230.906C179.961 230.779 180.088 230.716 180.201 230.741C180.328 230.767 180.391 230.893 180.365 231.007C179.418 235.087 179.544 239.382 180.732 243.399C180.77 243.513 180.694 243.639 180.58 243.677C180.568 243.69 180.542 243.69 180.53 243.69Z" fill="#151924"/>
<path d="M36.8217 243.462C57.8007 247.012 78.9817 250.309 100.15 253.606C102.083 253.72 111.656 254.503 114.031 254.68C116.039 254.831 118.047 254.541 120.018 254.124C126.863 252.671 141.451 250.069 144.04 252.406C150.419 255.968 155.509 262.31 158.932 269.662C160.851 273.793 161.761 280.109 160.409 280.854C159.55 281.322 158.414 281.347 157.77 280.501C156.115 272.858 151.656 265.86 145.442 261.122C148.259 263.674 150.76 266.567 152.882 269.725C155.029 272.921 156.848 276.597 156.62 280.438C156.608 280.741 156.557 281.057 156.355 281.271C155.85 281.802 154.978 281.233 154.511 280.652C153.602 279.528 141.969 264.723 139.241 264.419C142.474 266.554 152.781 279.667 152.591 280.779C152.503 281.309 152.275 281.827 151.859 282.168C151.29 282.623 150.457 282.623 149.775 282.345C149.093 282.067 148.549 281.562 148.019 281.057C144.508 277.658 141.476 273.704 137.485 270.875C135.49 269.46 132.926 268.323 130.665 269.245C134.252 271.62 137.435 274.627 139.872 278.151C140.264 278.72 140.554 279.339 140.744 279.995C141.034 280.968 141.287 282.345 140.453 282.914C139.089 283.836 138.294 283.04 137.473 282.269C134.265 278.922 130.867 275.991 127.192 273.464C126.055 272.681 124.653 271.898 123.352 272.378C122.228 272.782 116.797 274.665 106.907 272.947C103.535 272.365 100.112 272.504 95.6916 272.706C37.3143 275.385 19.5308 277.709 7.51938 268.967C5.17014 267.262 4.60177 265.683 6.48369 261.413C11.4979 249.98 15.3123 243.715 36.8217 243.462Z" fill="white"/>
<path d="M139.304 284C138.332 284 137.612 283.318 137.069 282.813L137.005 282.762C133.722 279.339 130.387 276.484 126.8 274.02C125.828 273.351 124.59 272.643 123.567 273.01C121.597 273.717 116.001 275.208 106.781 273.616C103.396 273.035 99.8345 273.199 95.7044 273.389C87.9241 273.742 80.7627 274.096 74.4476 274.412C32.0097 276.522 17.7122 277.229 7.11538 269.511C4.28619 267.451 3.98306 265.418 5.86498 261.148C10.9424 249.602 14.8957 243.058 36.8219 242.805C36.8598 242.805 36.8977 242.805 36.9355 242.818C58.2303 246.418 79.5755 249.74 100.226 252.949C101.691 253.038 106.971 253.454 110.835 253.77C112.25 253.884 113.437 253.972 114.081 254.023C116.178 254.187 118.275 253.821 119.879 253.48C126.244 252.128 141.312 249.273 144.42 251.863C150.57 255.311 155.799 261.375 159.538 269.397C161.193 272.959 162.809 280.324 160.738 281.461C159.462 282.168 158.022 281.954 157.239 280.93C157.189 281.221 157.075 281.512 156.835 281.764C156.557 282.055 156.191 282.194 155.799 282.181C155.092 282.156 154.397 281.613 153.993 281.107C153.917 281.019 153.779 280.842 153.589 280.602C153.324 280.261 153.059 279.932 152.793 279.617C153.134 280.248 153.286 280.678 153.235 280.93C153.097 281.701 152.756 282.32 152.25 282.724C151.53 283.293 150.482 283.394 149.497 282.99C148.714 282.674 148.095 282.105 147.527 281.562C146.339 280.412 145.203 279.2 144.104 278.025C141.931 275.701 139.683 273.3 137.081 271.443C135.78 270.521 134.025 269.561 132.32 269.599C135.553 271.949 138.281 274.69 140.416 277.785C140.832 278.391 141.161 279.086 141.388 279.819C141.59 280.501 142.197 282.56 140.832 283.482C140.264 283.849 139.759 284 139.304 284ZM124.173 271.557C125.411 271.557 126.598 272.252 127.558 272.909C131.221 275.423 134.618 278.341 137.94 281.802L137.978 281.827C138.824 282.623 139.216 282.926 140.062 282.345C140.416 282.105 140.428 281.335 140.075 280.172C139.898 279.566 139.633 279.01 139.292 278.518C136.968 275.157 133.936 272.214 130.261 269.788C130.059 269.65 129.945 269.41 129.97 269.157C129.996 268.904 130.16 268.702 130.387 268.601C133.052 267.527 135.907 268.929 137.852 270.306C140.567 272.239 142.866 274.69 145.076 277.065C146.162 278.227 147.299 279.44 148.461 280.564C148.954 281.044 149.446 281.486 150.002 281.714C150.533 281.928 151.088 281.903 151.417 281.638C151.644 281.461 151.808 281.145 151.897 280.754C151.391 279.124 141.893 266.997 138.862 264.988C138.61 264.824 138.496 264.495 138.597 264.205C138.698 263.914 138.988 263.737 139.304 263.763C139.999 263.838 142.108 264.066 154.625 279.743C154.814 279.983 154.953 280.147 155.016 280.236C155.345 280.64 155.749 280.842 155.863 280.817C155.875 280.791 155.926 280.716 155.938 280.4C156.115 277.305 154.966 274.033 152.313 270.104C150.217 266.997 147.754 264.142 144.975 261.628C144.71 261.388 144.685 260.984 144.912 260.706C145.139 260.428 145.544 260.39 145.834 260.605C152.099 265.38 156.671 272.517 158.376 280.21C158.818 280.653 159.551 280.564 160.081 280.286C160.776 279.743 160.308 274.248 158.313 269.965C154.738 262.297 149.547 256.272 143.7 253.012C143.662 252.987 143.611 252.962 143.573 252.924C141.653 251.193 130.425 252.621 120.144 254.806C118.464 255.16 116.241 255.552 113.968 255.375C113.324 255.324 112.136 255.236 110.722 255.122C107.059 254.831 101.514 254.389 100.112 254.301C100.087 254.301 100.074 254.301 100.049 254.288C79.4113 251.08 58.0661 247.757 36.7714 244.157C15.6787 244.41 12.0791 250.347 7.09012 261.691C5.24609 265.885 5.95338 267.022 7.91108 268.437C18.129 275.877 32.3129 275.17 74.3971 273.073C80.7122 272.757 87.8862 272.403 95.6665 272.05C99.8724 271.86 103.51 271.683 107.034 272.302C115.938 273.844 121.268 272.441 123.137 271.759C123.478 271.62 123.832 271.557 124.173 271.557Z" fill="#151924"/>
</svg>
