<svg width="275" height="360" viewBox="0 0 275 360" fill="none" xmlns="http://www.w3.org/2000/svg">
<path d="M152.697 99.5129C155.223 110.364 154.756 123.755 154.756 123.755L144.93 127.57C144.93 127.57 138.905 152.343 176.872 144.75C184.248 143.272 205.606 127.052 205.606 127.052L188.719 122.226C188.719 122.226 187.102 97.6811 186.458 85.478C177.579 89.6215 163.345 96.1905 152.697 99.5129Z" fill="white"/>
<path d="M163.926 146.872C156.6 146.872 151.194 145.091 147.797 141.554C142.315 135.844 144.197 127.759 144.286 127.418C144.336 127.204 144.488 127.027 144.69 126.951L154.099 123.3C154.15 120.9 154.264 109.215 152.041 99.677C151.965 99.3359 152.154 98.9948 152.495 98.8812C163.509 95.4451 178.817 88.3076 186.168 84.8842C186.37 84.7958 186.61 84.8084 186.799 84.9221C186.989 85.0358 187.115 85.2379 187.128 85.4653C187.709 96.5946 189.136 118.272 189.363 121.734L205.795 126.433C206.035 126.509 206.225 126.698 206.275 126.951C206.326 127.203 206.225 127.456 206.023 127.608C205.151 128.277 184.463 143.942 177.023 145.42C172.123 146.392 167.765 146.872 163.926 146.872ZM145.523 128.075C145.245 129.604 144.399 136.084 148.782 140.645C153.632 145.685 163.042 146.847 176.758 144.106C182.96 142.868 199.72 130.627 204.141 127.342L188.555 122.883C188.277 122.807 188.088 122.567 188.075 122.277C188.062 122.037 186.534 98.8685 185.865 86.5138C178.324 90.0257 164.115 96.582 153.506 99.9676C155.868 110.667 155.451 123.654 155.451 123.78C155.438 124.045 155.274 124.285 155.021 124.386L145.523 128.075Z" fill="#151924"/>
<path d="M129.432 31.2081C125.959 32.0419 122.498 28.53 122.435 24.816C122.372 21.102 124.974 17.7417 128.169 16.1121C131.365 14.4825 135.053 14.293 138.652 13.7751C137.301 10.1748 139.006 5.8418 141.999 3.54266C144.993 1.23089 148.933 0.687684 152.621 1.14246C155.034 1.43301 157.472 2.1657 159.379 3.74478C161.286 5.31122 162.587 7.85038 162.486 10.5538C165.706 6.49869 170.898 3.77005 175.785 4.94488C180.673 6.11971 184.374 12.0949 184.74 16.2132C187.127 13.295 190.235 10.8822 193.91 11.0843C201.185 11.4759 202.827 17.6659 199.556 25.6245C203.433 23.717 209.205 25.3845 211.049 31.0186C212.426 35.2127 210.885 41.8827 207.968 45.1672C207.462 45.7356 206.73 46.2915 205.833 46.7968C204.696 53.0247 203.282 59.5431 201.135 67.7669C199.581 73.7043 196.903 80.2859 193.758 85.7053C192.281 88.2571 191.131 89.4824 188.151 90.872C187.986 88.295 185.296 87.0191 184.879 84.4546C184.361 81.2965 186.395 78.5299 184.5 75.7255C180.876 70.4072 178.413 64.5709 177.263 58.583C176.316 53.6689 176.278 48.4895 178.602 43.9544C179.423 42.3375 180.61 40.8215 182.037 39.5204C181.393 38.2445 180.901 36.9433 180.497 35.6674C178.362 39.3309 176.809 41.8448 171.466 43.6007C167.563 44.8766 162.94 43.3228 161.627 39.6088C160.793 43.3607 154.971 48.6538 151.295 49.0327C147.633 49.3991 146.256 47.719 144.778 44.1945C141.519 47.0747 139.082 50.0181 135.773 51.2814C130.695 53.2015 124.418 50.0307 122.738 44.6871C121.033 39.3183 124.266 32.8377 129.432 31.2081Z" fill="#367DCB"/>
<path d="M188.138 91.5287C188.024 91.5287 187.898 91.5034 187.797 91.4403C187.607 91.3266 187.481 91.1245 187.468 90.9097C187.393 89.7728 186.711 88.8885 185.978 87.9537C185.22 86.9683 184.437 85.9577 184.21 84.5555C183.983 83.1912 184.197 81.9406 184.399 80.7278C184.677 79.035 184.93 77.5697 183.932 76.1043C180.244 70.6722 177.768 64.8233 176.581 58.7092C175.419 52.6834 175.874 47.7693 177.983 43.6511C178.766 42.1225 179.878 40.6445 181.204 39.3686C180.888 38.6991 180.598 38.0043 180.32 37.259C178.539 40.2276 176.67 42.5899 171.655 44.2322C167.753 45.5081 163.635 44.2069 161.703 41.3014C159.909 45.0785 154.844 49.3357 151.346 49.6895C147.633 50.0684 145.978 48.4641 144.525 45.3059C143.97 45.8112 143.439 46.3165 142.921 46.8092C140.698 48.9189 138.614 50.9022 135.987 51.9002C133.461 52.8602 130.481 52.6708 127.841 51.3822C125.062 50.0305 122.965 47.6556 122.081 44.8764C120.566 40.0508 122.751 34.4545 126.792 31.7638C126.098 31.549 125.416 31.1827 124.772 30.69C122.966 29.2878 121.816 27.0518 121.778 24.8411C121.702 20.5965 124.784 17.1099 127.879 15.5308C130.594 14.1539 133.638 13.7623 136.581 13.3959C136.985 13.3454 137.389 13.2949 137.793 13.2443C136.897 9.73246 138.45 5.47527 141.608 3.03717C144.424 0.864358 148.365 -0.0325592 152.723 0.498011C155.665 0.864357 158.053 1.78654 159.821 3.23929C161.576 4.67941 162.726 6.71326 163.067 8.89871C166.717 5.05839 171.63 3.27719 175.962 4.31306C180.509 5.39947 184.185 10.3641 185.195 14.7223C187.974 11.7158 190.917 10.2757 193.96 10.4399C197.017 10.6041 199.328 11.7789 200.629 13.8381C202.233 16.3772 202.259 20.1291 200.718 24.5126C202.549 24.0326 204.583 24.1716 206.414 24.9421C208.915 26.0033 210.797 28.0877 211.693 30.8416C213.121 35.1998 211.618 42.1099 208.473 45.647C207.967 46.2155 207.285 46.7461 206.439 47.2514C205.227 53.8709 203.749 60.4651 201.791 67.9562C200.2 74.0452 197.484 80.6394 194.339 86.0588C192.862 88.6106 191.649 90.0002 188.428 91.5034C188.327 91.5161 188.226 91.5287 188.138 91.5287ZM180.471 34.9851C180.497 34.9851 180.522 34.9851 180.547 34.9851C180.812 35.0103 181.027 35.1998 181.115 35.4525C181.557 36.8547 182.05 38.0801 182.618 39.217C182.757 39.4823 182.694 39.8107 182.467 40.0129C181.09 41.2635 179.953 42.7289 179.17 44.2574C177.213 48.0977 176.796 52.7339 177.895 58.4565C179.044 64.3938 181.444 70.0785 185.031 75.3463C186.319 77.2538 186.016 79.1235 185.713 80.9426C185.523 82.0542 185.334 83.1912 185.523 84.3408C185.7 85.4019 186.344 86.2483 187.039 87.1326C187.683 87.9537 188.34 88.8127 188.643 89.8738C190.967 88.6611 191.94 87.4736 193.177 85.364C196.259 80.0457 198.924 73.5778 200.49 67.6025C202.461 60.0229 203.951 53.3782 205.176 46.6829C205.214 46.4808 205.328 46.3165 205.505 46.2155C206.338 45.7481 207.02 45.2301 207.475 44.7248C210.291 41.554 211.693 35.124 210.418 31.2332C209.647 28.8583 208.031 27.0518 205.896 26.1549C203.913 25.3211 201.652 25.3464 199.859 26.2307C199.606 26.357 199.316 26.3065 199.101 26.117C198.899 25.9275 198.836 25.6243 198.937 25.3717C200.819 20.7986 201.008 16.9583 199.48 14.5329C198.406 12.8275 196.524 11.8926 193.872 11.7537C190.929 11.5895 188.037 13.2317 185.258 16.6425C185.081 16.8573 184.804 16.9331 184.538 16.8573C184.273 16.7815 184.096 16.5541 184.071 16.2762C183.743 12.5874 180.37 6.72589 175.621 5.60159C171.352 4.57835 166.401 6.688 163.004 10.9705C162.827 11.1978 162.524 11.2863 162.246 11.1852C161.981 11.0842 161.804 10.8189 161.804 10.5283C161.892 8.19128 160.793 5.77845 158.949 4.2499C157.383 2.94874 155.223 2.12762 152.533 1.79917C148.529 1.3065 144.942 2.11499 142.404 4.07304C139.448 6.35955 138.097 10.4273 139.271 13.5475C139.347 13.737 139.322 13.9518 139.221 14.1286C139.12 14.3055 138.943 14.4192 138.741 14.4571C138.071 14.5581 137.402 14.6339 136.733 14.7223C133.777 15.1013 130.973 15.4424 128.472 16.7183C125.757 18.1079 123.041 21.1397 123.104 24.8158C123.142 26.6349 124.09 28.4793 125.58 29.6288C126.742 30.5258 128.056 30.8542 129.281 30.5637C129.634 30.4752 129.988 30.69 130.076 31.0311C130.177 31.3848 129.975 31.7385 129.634 31.8522C124.835 33.3681 121.778 39.4949 123.344 44.4722C124.115 46.9103 125.959 48.982 128.409 50.1821C130.733 51.3064 133.31 51.4833 135.495 50.6495C137.869 49.7526 139.776 47.9335 141.987 45.8365C142.719 45.1417 143.49 44.409 144.311 43.689C144.475 43.55 144.69 43.4868 144.904 43.5374C145.119 43.5879 145.296 43.7269 145.372 43.929C146.774 47.264 147.948 48.6915 151.194 48.3504C154.617 48.0093 160.162 42.931 160.932 39.457C160.995 39.1665 161.248 38.9517 161.551 38.9391C161.854 38.9138 162.119 39.1033 162.221 39.3812C163.458 42.8805 167.866 44.0553 171.226 42.9563C176.442 41.2509 177.882 38.7622 179.89 35.3262C180.017 35.1114 180.231 34.9851 180.471 34.9851Z" fill="#151924"/>
<path d="M135.066 52.0519C135.066 51.8624 135.066 51.6729 135.066 51.4708C135.293 51.4076 135.52 51.3318 135.735 51.256C139.057 49.9928 141.495 47.062 144.741 44.1691C146.218 47.681 147.595 49.3738 151.258 49.0074C154.921 48.6411 160.756 43.3354 161.589 39.5835C162.903 43.2975 167.538 44.8513 171.428 43.5754C176.771 41.8194 178.325 39.3056 180.459 35.6421C181.621 39.3056 183.516 43.209 187.519 46.0766C188.985 47.1251 190.576 47.8452 192.218 48.2874C192.281 49.0074 192.344 49.7022 192.42 50.3717C192.698 52.8351 193.342 58.204 192.774 63.6234C196.929 60.1747 200.377 60.7558 202.954 63.3581C205.53 65.973 205.328 70.0913 202.802 72.6683C200.276 75.2327 195.843 76.2181 191.94 75.3843C190.93 81.9533 189.427 95.1039 184.854 100.915C180.004 107.092 171.428 111.059 162.549 111.198C153.683 111.349 144.753 107.673 139.335 101.66C133.196 94.8259 131.82 85.7936 132.338 77.3298C132.868 68.8912 135.04 60.541 135.066 52.0519Z" fill="white"/>
<path d="M162.044 111.893C153.139 111.893 144.298 108.179 138.855 102.14C133.461 96.1397 131.049 87.7895 131.693 77.3171C131.921 73.6031 132.476 69.8638 133.007 66.2382C133.689 61.5894 134.396 56.789 134.409 52.0518C134.409 51.8623 134.409 51.6602 134.409 51.4707C134.409 51.1801 134.611 50.9149 134.889 50.8391C135.091 50.7759 135.306 50.7127 135.508 50.6369C137.882 49.74 139.789 47.9209 142 45.8239C142.732 45.1291 143.503 44.3964 144.324 43.6764C144.488 43.5374 144.702 43.4742 144.917 43.5248C145.132 43.5753 145.309 43.7143 145.385 43.9164C146.786 47.2514 147.948 48.6789 151.207 48.3378C154.63 47.9967 160.175 42.9184 160.945 39.4444C161.008 39.1539 161.261 38.9391 161.564 38.9265C161.867 38.9012 162.132 39.0907 162.233 39.3686C163.471 42.8679 167.879 44.0427 171.239 42.9437C176.455 41.2383 177.895 38.7496 179.903 35.3136C180.042 35.0862 180.295 34.9599 180.56 34.9851C180.825 35.0104 181.04 35.1999 181.128 35.4525C182.05 38.3454 183.755 42.5521 187.949 45.546C189.275 46.4934 190.778 47.2009 192.432 47.6556C192.698 47.7314 192.9 47.9715 192.925 48.2494C192.988 49.0579 193.051 49.7148 193.127 50.3085L193.14 50.4727C193.405 52.7845 193.923 57.3575 193.594 62.2084C197.169 59.8209 200.629 60.0483 203.459 62.9159C206.25 65.7329 206.174 70.2428 203.307 73.1609C200.857 75.6622 196.6 76.837 192.533 76.1927C192.458 76.6728 192.382 77.1907 192.306 77.7339C191.233 85.0103 189.628 96.0007 185.423 101.357C180.434 107.711 171.693 111.754 162.6 111.893C162.398 111.893 162.221 111.893 162.044 111.893ZM135.735 51.976C135.735 52.0013 135.735 52.0392 135.735 52.0644C135.722 56.9027 135.002 61.7537 134.32 66.4404C133.79 70.028 133.247 73.742 133.019 77.4055C132.401 87.5116 134.699 95.5333 139.84 101.243C145.132 107.13 153.834 110.692 162.536 110.553C171.239 110.415 179.587 106.562 184.324 100.523C188.302 95.4449 189.957 84.2397 190.942 77.5318C191.056 76.7233 191.169 75.978 191.27 75.3085C191.296 75.1316 191.397 74.9674 191.548 74.8537C191.7 74.7526 191.889 74.7147 192.066 74.7526C195.906 75.5611 200.023 74.5505 202.309 72.2135C204.659 69.8133 204.734 66.1372 202.474 63.8507C199.809 61.1599 196.689 61.261 193.203 64.1539C192.988 64.3307 192.698 64.356 192.458 64.2297C192.218 64.1033 192.079 63.838 192.104 63.5728C192.66 58.3428 192.066 53.1382 191.776 50.6243L191.763 50.4601C191.712 49.9674 191.649 49.4368 191.599 48.8178C189.97 48.3125 188.467 47.5799 187.14 46.6324C183.275 43.8659 181.381 40.1898 180.307 37.2464C178.526 40.2024 176.657 42.5773 171.643 44.2196C167.74 45.4955 163.623 44.1943 161.69 41.2888C159.897 45.066 154.832 49.3231 151.333 49.6769C147.62 50.0558 145.965 48.4515 144.513 45.2933C143.957 45.7987 143.427 46.304 142.909 46.7966C140.686 48.9063 138.602 50.8896 135.975 51.8876C135.899 51.9128 135.823 51.9507 135.735 51.976Z" fill="#151924"/>
<path d="M142.934 64.3433C142.82 63.2948 143.616 62.3474 144.715 62.2337C145.814 62.1074 146.812 62.8527 146.925 63.9012C147.039 64.9497 146.243 65.8971 145.144 66.0108C144.046 66.1372 143.06 65.3918 142.934 64.3433Z" fill="#151924"/>
<path d="M170.923 65.8594C170.809 64.8109 171.605 63.8635 172.704 63.7498C173.803 63.6235 174.8 64.3688 174.914 65.4173C175.028 66.4658 174.232 67.4133 173.133 67.527C172.022 67.6407 171.037 66.8953 170.923 65.8594Z" fill="#151924"/>
<path d="M162.599 98.6536C161.741 98.6536 160.869 98.5399 160.035 98.3251C159.682 98.224 159.467 97.8577 159.556 97.504C159.644 97.1503 160.023 96.9355 160.376 97.0239C163.673 97.8956 167.374 96.746 169.584 94.1563C169.824 93.8784 170.253 93.8405 170.531 94.0805C170.809 94.3206 170.847 94.7501 170.607 95.028C168.624 97.3398 165.618 98.6536 162.599 98.6536Z" fill="#151924"/>
<path d="M157.838 88.1432C156.511 88.1432 155.097 87.8779 153.619 87.3473C152.836 87.0694 151.952 86.6778 151.32 85.9451C150.499 84.9976 150.209 83.608 150.525 82.13C150.752 81.0815 151.219 80.1341 151.661 79.2245L151.863 78.8076C154.276 73.8683 155.539 68.3478 155.501 62.8526C155.501 62.4863 155.791 62.1831 156.17 62.1831C156.537 62.1831 156.84 62.4863 156.84 62.8526C156.865 68.5499 155.564 74.2852 153.063 79.4014L152.861 79.8183C152.432 80.6899 152.015 81.5237 151.826 82.4079C151.598 83.4565 151.788 84.4544 152.318 85.0734C152.76 85.5787 153.442 85.8693 154.061 86.0967C155.867 86.7409 157.534 86.9557 159.037 86.7283C160.743 86.463 162.258 85.5661 163.079 84.3281C163.281 84.0249 163.698 83.9365 164.014 84.1512C164.317 84.3534 164.405 84.7702 164.191 85.0861C163.142 86.6525 161.336 87.7389 159.24 88.0547C158.785 88.1053 158.318 88.1432 157.838 88.1432Z" fill="#151924"/>
<path d="M192.331 68.6258C192.306 68.6258 192.268 68.6258 192.243 68.6258C191.877 68.5752 191.624 68.2468 191.662 67.8678C191.965 65.556 192.079 64.318 192.281 62.0947C192.319 61.7283 192.635 61.4504 193.013 61.4883C193.38 61.5262 193.658 61.8547 193.62 62.221C193.418 64.4696 193.304 65.7076 192.988 68.0447C192.95 68.3857 192.66 68.6258 192.331 68.6258Z" fill="#151924"/>
<path d="M127.891 46.4051C127.828 46.4051 127.778 46.3798 127.727 46.3419C125.833 44.3965 125.138 41.352 125.997 38.775C126.035 38.6613 126.161 38.5981 126.275 38.636C126.388 38.6739 126.451 38.8002 126.414 38.9139C125.605 41.3394 126.249 44.1944 128.043 46.0261C128.131 46.1145 128.131 46.2535 128.043 46.3419C128.005 46.3924 127.942 46.4051 127.891 46.4051Z" fill="#151924"/>
<path d="M201.917 43.7902C201.854 43.7902 201.791 43.765 201.753 43.7144C201.677 43.626 201.677 43.4744 201.779 43.3986C204.974 40.5815 206.224 35.7938 204.822 31.764C204.785 31.6503 204.848 31.524 204.961 31.4734C205.075 31.4355 205.201 31.4987 205.252 31.6124C206.717 35.8064 205.416 40.7837 202.082 43.7271C202.031 43.7776 201.968 43.7902 201.917 43.7902Z" fill="#151924"/>
<path d="M26.7098 183.494C22.5544 162.864 20.382 126.078 14.6099 105.538C9.19151 100.181 3.57102 91.6164 1.38598 83.8347C0.501855 80.664 0.527116 79.3754 2.64901 77.2531C4.18991 75.6993 6.90542 76.2173 8.62314 77.2784C7.84006 75.2825 5.94551 73.476 8.42105 71.4548C9.53252 70.5452 11.1113 70.0652 12.3238 70.8484C11.6923 66.8186 16.2013 64.4563 18.7021 68.3345C16.7949 63.3573 15.052 58.8979 13.069 54.2997C11.8439 51.4573 10.6692 48.0465 12.4501 46.897C14.7362 45.4189 17.0349 48.6024 19.5736 53.3901C23.8932 61.5761 25.3204 64.3047 30.1073 71.6822C34.6037 78.6301 38.2412 91.4143 34.7426 96.1137C34.9574 104.451 54.0417 156.624 61.4936 168.158C64.2091 172.364 60.6727 175.093 58.816 179.754C56.5804 185.376 47.9034 205.02 34.5153 195.153C30.7388 192.374 26.9624 184.732 26.7098 183.494Z" fill="white"/>
<path d="M41.8284 198.564C39.2897 198.564 36.7131 197.604 34.1365 195.71C30.158 192.779 26.3436 185.022 26.0657 183.633C24.3354 175.055 22.9587 163.799 21.5062 151.874C19.4727 135.149 17.3635 117.855 14.0291 105.892C9.07797 100.965 3.09121 92.3367 0.754601 84.0245C-0.205303 80.6263 -0.129535 79.1104 2.18181 76.786C3.45747 75.4974 5.44044 75.3711 7.22131 75.9143C6.47613 74.4489 5.8446 72.693 8.00439 70.9371C8.91377 70.2044 10.2905 69.5854 11.6167 69.8507C11.7051 68.0695 12.7029 66.5409 14.269 65.9345C15.0774 65.6187 16.1004 65.5682 17.1109 66.0103C15.6963 62.3469 14.168 58.4939 12.4755 54.5652C11.0609 51.2933 9.9242 47.7436 12.1092 46.3287C12.8039 45.8739 13.5491 45.7476 14.3069 45.9497C16.0499 46.4045 17.755 48.4636 20.18 53.0745L20.2811 53.2514C24.5248 61.2984 25.9647 64.0018 30.6884 71.316C35.0585 78.0745 39.0118 91.0482 35.4501 96.3034C35.9679 104.767 54.4966 156.043 62.0874 167.779C64.2598 171.139 62.7821 173.754 61.2285 176.521C60.6223 177.607 59.9781 178.719 59.4855 179.995C57.1616 185.856 52.1347 196.013 44.6702 198.148C43.7103 198.438 42.763 198.564 41.8284 198.564ZM5.26361 76.9628C4.44264 76.9628 3.67219 77.1902 3.12909 77.7334C1.23454 79.6409 1.19665 80.6516 2.04288 83.6581C4.32896 91.8062 10.2526 100.283 15.09 105.058C15.1784 105.134 15.2289 105.247 15.2668 105.348C18.6644 117.412 20.7863 134.846 22.8324 151.697C24.2849 163.585 25.6489 174.815 27.3667 183.342C27.594 184.454 31.2821 191.932 34.9196 194.61C38.1151 196.96 41.26 197.718 44.266 196.859C51.1748 194.876 55.9617 185.136 58.1973 179.502C58.7404 178.15 59.4224 176.937 60.0286 175.864C61.5569 173.148 62.6684 171.19 60.938 168.511C53.6377 157.218 34.3007 105.121 34.0734 96.1139C34.0734 95.9623 34.1113 95.8233 34.1997 95.697C37.3572 91.4651 34.2249 79.2872 29.5391 72.0361C24.7774 64.6839 23.3502 61.9553 19.0812 53.8704L18.9801 53.6935C17.6287 51.1291 15.6331 47.6804 13.9533 47.2383C13.5617 47.1372 13.1955 47.2004 12.8166 47.453C11.2883 48.4384 13.0944 52.645 13.688 54.0346C15.7847 58.9108 17.6413 63.6733 19.3338 68.0947C19.4601 68.4105 19.3212 68.7769 19.0054 68.9285C18.7023 69.0801 18.3234 68.979 18.1339 68.7011C17.2245 67.2862 15.9489 66.7178 14.7237 67.1852C13.6754 67.5894 12.6776 68.8653 12.9807 70.7349C13.0186 71.0002 12.905 71.2529 12.6902 71.4045C12.4629 71.5434 12.185 71.5561 11.9577 71.4045C11.0104 70.7981 9.70948 71.2529 8.83799 71.9729C7.38551 73.1604 7.76443 74.07 8.61066 75.7248C8.82537 76.1417 9.05272 76.5839 9.24217 77.0386C9.34321 77.3039 9.26742 77.6071 9.05271 77.7966C8.82536 77.9861 8.52224 77.9987 8.26963 77.8597C7.39814 77.3165 6.28667 76.9628 5.26361 76.9628Z" fill="#151924"/>
<path d="M11.9323 89.3299C11.326 89.3299 10.6819 89.1404 10.1009 88.7615C9.30518 88.2435 8.73682 87.4729 8.2316 86.8034L5.90763 83.6831C5.68029 83.38 5.74344 82.9631 6.04657 82.7483C6.33706 82.5336 6.76648 82.5841 6.9812 82.8873L9.30517 86.0076C9.75986 86.6139 10.2272 87.2455 10.8334 87.6372C11.4018 88.0035 12.0586 88.0919 12.5133 87.8645C13.0564 87.574 13.2837 86.8413 13.2585 86.2728C13.2206 85.5149 12.8669 84.7822 12.5133 84.0874C11.1871 81.4977 10.8082 81.0556 9.70935 79.7165C9.29255 79.2238 8.78734 78.5922 8.09267 77.7079C7.86532 77.4174 7.91584 77.0005 8.20634 76.7731C8.49683 76.5457 8.91364 76.5962 9.14099 76.8868C9.82303 77.7584 10.3282 78.3774 10.7324 78.8701C11.8691 80.2471 12.2986 80.765 13.6879 83.481C14.0921 84.2642 14.5341 85.1991 14.572 86.2223C14.6225 87.4603 14.0542 88.572 13.1069 89.0646C12.7659 89.2415 12.3617 89.3299 11.9323 89.3299Z" fill="#151924"/>
<path d="M17.5781 87.9534C16.7318 87.9534 15.9488 87.5113 15.2667 87.0438C14.6099 86.6017 13.9658 86.1343 13.3343 85.6543C13.0438 85.4269 12.9806 85.01 13.208 84.7194C13.4353 84.4289 13.8521 84.3657 14.1426 84.5931C14.7489 85.0605 15.3804 85.5027 16.0119 85.9322C16.6308 86.3491 17.2749 86.7154 17.8307 86.5764C18.5127 86.3996 18.8664 85.4269 18.8664 84.5679C18.8664 83.2288 17.6539 79.8811 11.945 71.4678L11.7808 71.2278C11.5787 70.9246 11.6545 70.5077 11.9576 70.293C12.2607 70.0909 12.6775 70.1667 12.8922 70.4698L13.0564 70.6972C17.8686 77.7715 20.2052 82.294 20.2178 84.5426C20.2178 85.9195 19.5989 87.486 18.1843 87.8523C17.9696 87.9281 17.7675 87.9534 17.5781 87.9534Z" fill="#151924"/>
<path d="M21.2917 93.9034C21.0012 93.9034 20.7359 93.7139 20.6475 93.4107C19.6245 89.7852 21.7843 86.7786 23.363 84.5679C23.9946 83.6836 24.8661 82.4709 24.6766 82.155C24.0704 81.1318 20.7107 80.1212 19.1066 79.6285C18.1973 79.3506 17.7931 79.2243 17.5531 79.0853C15.8606 78.1 15.3049 76.963 15.1407 76.1798C15.0018 75.4977 15.1028 74.8155 15.4312 74.3734C15.8733 73.7544 17.3636 72.5164 18.3488 72.4153C20.3318 72.2005 25.0555 73.4385 27.8847 74.1712C28.3646 74.2976 28.7688 74.3986 29.0846 74.487C30.3097 74.7902 34.1999 77.1525 34.3262 78.8958C34.3514 79.2622 34.0736 79.5906 33.7073 79.6159C33.341 79.6412 33.0126 79.3632 32.9873 78.9969C32.9368 78.2768 30.0824 76.1166 28.7562 75.7882C28.4278 75.7124 28.011 75.5987 27.531 75.4724C24.9797 74.8029 20.2055 73.5649 18.4751 73.7543C18.0583 73.8049 16.8837 74.6513 16.5048 75.1692C16.4416 75.2703 16.3659 75.5482 16.4416 75.9145C16.53 76.3314 16.8837 77.1525 18.2099 77.9358C18.3362 77.9989 18.9424 78.1884 19.4729 78.3526C22.2263 79.1864 24.9924 80.1212 25.8007 81.4729C26.4448 82.5467 25.5607 83.7847 24.4366 85.3511C22.9336 87.4481 21.077 90.0504 21.9232 93.0444C22.0242 93.3981 21.8222 93.7771 21.4559 93.8655C21.418 93.9034 21.3548 93.9034 21.2917 93.9034Z" fill="#151924"/>
<path d="M21.5315 74.0318C21.2537 74.0318 20.9884 73.855 20.9 73.5644C20.66 72.8191 19.738 71.2653 18.9928 70.0147C18.6013 69.3578 18.235 68.7388 17.9824 68.2714C17.8056 67.9429 17.9319 67.5387 18.2603 67.3618C18.5887 67.185 18.9928 67.3113 19.1697 67.6397C19.4096 68.0819 19.7633 68.6882 20.1548 69.3325C20.9758 70.7095 21.8978 72.2633 22.1883 73.1602C22.302 73.5139 22.1125 73.8929 21.7589 74.0066C21.6705 74.0192 21.5947 74.0318 21.5315 74.0318Z" fill="#151924"/>
<path d="M20.6601 86.1722C20.3065 86.1722 19.9655 86.0964 19.6623 85.9448C19.3339 85.7806 19.195 85.3764 19.3592 85.0479C19.5234 84.7195 19.9276 84.5805 20.256 84.7447C20.597 84.909 21.2411 84.8458 21.7463 84.4037C22.5041 83.7215 22.6304 82.4709 22.0873 80.9676C21.961 80.6139 22.1379 80.2349 22.4915 80.1086C22.8452 79.9822 23.2241 80.1591 23.3504 80.5128C24.3861 83.4183 23.1988 84.8963 22.6431 85.389C22.0621 85.9069 21.3421 86.1722 20.6601 86.1722Z" fill="#151924"/>
<path d="M272.874 213.029C267.595 185.288 267.557 155.512 245.214 136.867C234.491 127.91 209.066 124.045 194.162 123.097C193.253 137.524 179.145 140.96 170.114 140.379C155.034 139.406 152.356 136.45 148.516 124.992C145.131 126.344 124.771 127.367 111.547 139.179C86.9941 161.109 56.9845 159.075 59.0558 160.427C60.9251 161.639 54.2184 192.248 35.5003 196.013C25.6613 197.983 80.4769 206.106 118.065 196.152C116.65 215.821 123.723 273.211 127.803 295.305C167.007 322.655 247.639 291.73 247.639 291.73C247.639 291.73 241.475 273.577 241.475 259.883C241.475 253.087 257.402 268.132 260.56 268.688C261.608 268.878 264.892 266.541 265.309 265.555C267.961 259.353 277.737 238.547 272.874 213.029Z" fill="#151924"/>
<path d="M172.021 307.256C168.914 307.256 165.921 307.155 163.016 306.94C148.44 305.879 136.454 302.152 127.411 295.849C127.272 295.747 127.171 295.596 127.133 295.419C123.041 273.249 116.22 217.236 117.332 197.024C83.5332 205.664 36.8264 200.257 33.9593 197.264C33.694 196.986 33.6056 196.645 33.7067 196.316C33.8961 195.71 34.6539 195.482 35.3612 195.343C44.7835 193.461 50.7197 184.707 54.0541 177.696C57.8306 169.75 59.081 162.069 58.6137 160.919C58.2347 160.616 58.2853 160.237 58.3105 160.124C58.4621 159.454 59.0052 159.391 61.986 159.05C70.2462 158.09 92.1976 155.551 111.105 138.673C121.576 129.313 136.164 126.685 144.007 125.283C146.015 124.916 147.607 124.639 148.276 124.361C148.453 124.297 148.643 124.297 148.807 124.373C148.971 124.449 149.097 124.588 149.16 124.765C152.924 136.008 155.311 138.737 170.165 139.697C172.665 139.861 179.107 139.899 184.866 136.766C190.196 133.873 193.101 129.249 193.493 123.047C193.505 122.87 193.581 122.706 193.72 122.592C193.859 122.478 194.036 122.415 194.2 122.428C211.567 123.54 235.463 127.86 245.631 136.362C263.97 151.672 267.506 174.815 270.917 197.188C271.712 202.367 272.521 207.723 273.518 212.915C278.192 237.473 269.552 257.395 266.307 264.899C266.155 265.24 266.029 265.556 265.902 265.833C265.397 267.008 261.848 269.611 260.421 269.358C259.271 269.156 257.124 267.627 253.727 265.151C250.102 262.511 244.027 258.077 242.473 258.885C242.246 258.999 242.119 259.34 242.119 259.896C242.119 273.312 248.182 291.339 248.245 291.528C248.359 291.869 248.182 292.236 247.854 292.375C247.652 292.45 227.342 300.182 202.511 304.451C191.573 306.308 181.355 307.256 172.021 307.256ZM128.409 294.901C148.478 308.721 179.637 307.003 202.283 303.1C224.626 299.259 243.269 292.615 246.793 291.313C245.719 288.004 240.793 272.099 240.793 259.871C240.793 258.507 241.374 257.913 241.879 257.673C244.001 256.586 248.46 259.631 254.535 264.052C257.112 265.922 259.764 267.867 260.673 268.019C261.393 268.12 264.349 266.086 264.69 265.278C264.816 265 264.942 264.684 265.094 264.343C268.302 256.94 276.815 237.296 272.217 213.143C271.22 207.925 270.399 202.557 269.616 197.365C266.079 174.222 262.745 152.355 244.797 137.372C234.996 129.186 211.895 124.967 194.794 123.792C194.2 130.071 191.005 134.959 185.523 137.941C179.448 141.238 172.716 141.2 170.089 141.036C155.135 140.076 151.952 137.082 148.112 125.826C147.228 126.066 145.914 126.306 144.247 126.597C136.543 127.986 122.195 130.563 112.002 139.671C92.7913 156.839 70.524 159.416 62.1501 160.376C61.2913 160.477 60.4703 160.566 59.9398 160.654C60.104 161.349 60.1293 162.688 59.6241 165.316C57.8053 174.853 50.4545 193.689 35.6391 196.657C35.6012 196.67 35.5633 196.67 35.5254 196.682C41.4491 199.171 85.5036 204.073 117.888 195.495C118.102 195.444 118.317 195.495 118.481 195.621C118.646 195.76 118.734 195.975 118.721 196.19C117.37 215.391 124.253 272.251 128.409 294.901Z" fill="#151924"/>
<path d="M232.42 237.928C232.142 237.928 231.876 237.751 231.788 237.473C223.793 213.244 219.259 197.921 219.259 164.697C219.259 164.331 219.562 164.027 219.928 164.027C220.294 164.027 220.598 164.331 220.598 164.697C220.598 197.719 225.094 212.954 233.051 237.057C233.165 237.41 232.975 237.789 232.622 237.903C232.558 237.916 232.495 237.928 232.42 237.928Z" fill="#151924"/>
<path d="M118.065 196.809C117.901 196.809 117.749 196.758 117.623 196.632C117.231 196.278 117.219 195.899 117.143 190.998C117.092 187.359 117.004 181.271 116.663 172.036C116.65 171.67 116.941 171.354 117.307 171.341C117.686 171.316 117.989 171.619 118.002 171.986C118.343 181.245 118.431 187.334 118.482 190.985C118.52 193.613 118.545 195.381 118.633 195.798C118.785 196.038 118.76 196.367 118.558 196.594C118.431 196.746 118.254 196.809 118.065 196.809Z" fill="#151924"/>
<path d="M160.313 183.279C145.258 183.279 131.592 181.953 124.38 178.277C124.266 178.226 124.228 178.087 124.279 177.974C124.329 177.86 124.468 177.822 124.582 177.873C139.46 185.452 182.214 182.976 207.323 179.452C207.437 179.439 207.563 179.515 207.576 179.641C207.588 179.767 207.513 179.881 207.386 179.894C194.339 181.738 176.53 183.279 160.313 183.279Z" fill="white"/>
<path d="M176.379 204.426C156.398 204.426 138.134 201.243 124.43 197.895C124.317 197.87 124.241 197.744 124.266 197.63C124.291 197.516 124.418 197.441 124.531 197.466C145.548 202.607 177.364 207.345 209.559 200.763C209.685 200.738 209.799 200.813 209.824 200.94C209.849 201.066 209.773 201.18 209.647 201.205C198.368 203.504 187.127 204.426 176.379 204.426Z" fill="white"/>
<path d="M270.803 249.765C270.727 249.765 270.651 249.727 270.614 249.651C263.414 237.524 251.693 231.409 240.743 234.075C240.629 234.1 240.503 234.037 240.478 233.911C240.452 233.797 240.516 233.671 240.642 233.645C251.782 230.917 263.705 237.119 271.005 249.424C271.068 249.525 271.03 249.664 270.929 249.727C270.879 249.752 270.841 249.765 270.803 249.765Z" fill="white"/>
<path d="M267.961 254.717C267.911 254.717 267.873 254.704 267.822 254.666C266.484 253.656 265.562 252.228 264.665 250.839C264.349 250.359 264.033 249.853 263.692 249.386C261.646 246.506 258.855 244.232 255.609 242.804C255.495 242.754 255.445 242.627 255.495 242.514C255.546 242.4 255.672 242.349 255.786 242.4C259.095 243.853 261.962 246.177 264.059 249.133C264.4 249.613 264.728 250.119 265.044 250.599C265.915 251.95 266.825 253.34 268.1 254.313C268.201 254.388 268.214 254.527 268.138 254.628C268.1 254.692 268.024 254.717 267.961 254.717Z" fill="white"/>
<path d="M59.0684 181.637C59.0432 181.637 59.0053 181.637 58.9801 181.624C58.8664 181.574 58.8159 181.447 58.8537 181.334C61.3293 175.283 62.5418 168.638 62.365 162.107C62.365 161.98 62.4534 161.879 62.5797 161.879C62.706 161.879 62.807 161.968 62.807 162.094C62.9839 168.688 61.7587 175.396 59.2579 181.498C59.2453 181.586 59.1569 181.637 59.0684 181.637Z" fill="white"/>
<path d="M67.5059 169.434C67.4932 169.434 67.468 169.434 67.4553 169.434C67.329 169.409 67.2659 169.282 67.2911 169.169C67.8216 166.844 67.9732 164.457 67.7332 162.094C67.7206 161.968 67.809 161.867 67.9353 161.854C68.0616 161.842 68.1626 161.93 68.1753 162.056C68.4152 164.482 68.2637 166.907 67.7332 169.282C67.6953 169.371 67.6069 169.434 67.5059 169.434Z" fill="white"/>
<path d="M234.403 239.368C234.112 239.368 233.834 239.166 233.758 238.876C228.34 218.967 224.652 198.489 222.77 178.024C222.732 177.658 223.01 177.329 223.376 177.292C223.743 177.254 224.071 177.532 224.109 177.898C225.978 198.287 229.654 218.689 235.059 238.522C235.16 238.876 234.946 239.242 234.592 239.343C234.529 239.356 234.466 239.368 234.403 239.368Z" fill="white"/>
<path d="M116.448 200.535C116.069 200.535 115.766 200.22 115.779 199.853L116.12 177.228C116.12 176.862 116.435 176.571 116.802 176.571C117.168 176.571 117.471 176.887 117.459 177.253L117.118 199.878C117.118 200.245 116.814 200.535 116.448 200.535Z" fill="white"/>
<path d="M237.573 244.611C240.49 241.794 246.035 242.867 249.698 244.611C251.504 245.47 265.978 258.86 260.686 270.065C256.139 279.704 253.133 283.342 229.035 318.966C228.138 320.293 227.203 321.657 225.852 322.503C221.532 325.182 215.886 321.051 214.017 316.313C210.051 306.296 215.331 295.23 220.193 285.616C225.107 275.864 234.643 247.415 237.573 244.611Z" fill="white"/>
<path d="M222.871 324.007C222.113 324.007 221.33 323.88 220.534 323.615C217.528 322.617 214.661 319.787 213.386 316.553C209.18 305.904 215.192 294.004 219.587 285.3C221.747 281.018 224.841 273.021 227.835 265.277C232.521 253.15 235.489 245.672 237.105 244.118C240.111 241.225 245.732 241.97 249.988 243.991C252.237 245.065 266.774 258.708 261.292 270.33C257.668 277.998 255.003 281.915 242.183 300.775C238.823 305.714 234.642 311.854 229.59 319.332C228.706 320.646 227.708 322.124 226.205 323.059C225.17 323.691 224.058 324.007 222.871 324.007ZM242.625 243.562C240.806 243.562 239.164 244.004 238.027 245.09C236.512 246.556 232.735 256.321 229.073 265.77C226.067 273.539 222.959 281.574 220.774 285.907C216.493 294.37 210.632 305.967 214.623 316.061C215.76 318.941 218.311 321.467 220.951 322.352C222.101 322.731 223.818 322.971 225.486 321.935C226.749 321.152 227.658 319.8 228.479 318.6C233.531 311.121 237.712 304.982 241.071 300.042C253.841 281.27 256.506 277.354 260.08 269.787C265.284 258.772 250.557 245.773 249.407 245.229C247.361 244.231 244.873 243.562 242.625 243.562Z" fill="#151924"/>
<path d="M134.409 359.921C134.396 359.921 134.371 359.921 134.358 359.921C133.992 359.896 133.714 359.567 133.739 359.201C134.611 347.857 133.221 330.411 131.87 313.534C131.251 305.74 130.657 298.388 130.291 291.667C130.266 291.301 130.556 290.985 130.923 290.96C131.289 290.934 131.605 291.225 131.63 291.591C131.996 298.299 132.59 305.639 133.209 313.433C134.56 330.361 135.949 347.87 135.078 359.315C135.053 359.643 134.75 359.921 134.409 359.921Z" fill="#151924"/>
</svg>
