<svg width="41" height="41" viewBox="0 0 41 41" fill="none" xmlns="http://www.w3.org/2000/svg">
<path d="M20.9921 40.9973C20.6385 40.9973 20.3353 40.7194 20.3227 40.3531C20.31 39.9867 20.6006 39.6709 20.9668 39.6583C22.6972 39.5825 24.4023 39.2793 26.0442 38.7487C26.3979 38.635 26.7768 38.8245 26.8905 39.1782C27.0041 39.5319 26.8146 39.9109 26.461 40.0246C24.7054 40.5931 22.874 40.9215 21.0173 40.9973C21.0173 40.9973 21.0047 40.9973 20.9921 40.9973ZM15.6747 40.4794C15.6242 40.4794 15.5737 40.4794 15.5232 40.4668C13.717 40.0372 11.9867 39.3677 10.37 38.4582C10.0416 38.2813 9.92798 37.8644 10.1174 37.5486C10.2943 37.2202 10.711 37.1065 11.0268 37.296C12.5424 38.1424 14.1591 38.774 15.8389 39.1656C16.1926 39.254 16.4199 39.6077 16.3315 39.9741C16.2557 40.2773 15.9779 40.4794 15.6747 40.4794ZM31.0584 37.7128C30.8437 37.7128 30.629 37.6118 30.5027 37.4223C30.3006 37.1191 30.3764 36.7022 30.6795 36.4875C32.1194 35.5274 33.4077 34.3652 34.5318 33.0514C34.7718 32.7735 35.1886 32.7356 35.479 32.9756C35.7569 33.2156 35.7948 33.6325 35.5548 33.9231C34.3549 35.3379 32.9657 36.5633 31.4248 37.5991C31.3111 37.6749 31.1847 37.7128 31.0584 37.7128ZM6.42933 35.3253C6.2525 35.3253 6.08832 35.2621 5.96201 35.1358C4.64846 33.822 3.52441 32.344 2.61503 30.7396C2.4382 30.4112 2.55181 30.0069 2.86757 29.8301C3.18333 29.6532 3.60017 29.7669 3.77699 30.0827C4.62322 31.586 5.6715 32.963 6.89664 34.1883C7.16188 34.4536 7.16188 34.8705 6.89664 35.1358C6.78297 35.2621 6.60615 35.3253 6.42933 35.3253ZM37.9167 29.6532C37.8283 29.6532 37.7273 29.628 37.6389 29.5901C37.2978 29.4385 37.1589 29.0342 37.3105 28.7058C38.0304 27.1393 38.5356 25.4718 38.8008 23.7664C38.864 23.4001 39.205 23.16 39.5713 23.2106C39.9375 23.2737 40.1901 23.6148 40.127 23.9812C39.8365 25.8129 39.3061 27.5941 38.5356 29.2742C38.4093 29.5016 38.1693 29.6532 37.9167 29.6532ZM1.23829 26.1035C0.93516 26.1035 0.657268 25.9013 0.581486 25.5855C0.202577 24.0443 0.0131836 22.44 0.0131836 20.8357C0.0131836 18.9787 0.265747 17.1343 0.758329 15.3657C0.859371 15.012 1.22568 14.7973 1.57933 14.8983C1.93298 14.9994 2.14769 15.3657 2.04665 15.7194C1.57932 17.3743 1.33935 19.0924 1.33935 20.8357C1.33935 22.3389 1.51615 23.8296 1.8698 25.2697C1.95821 25.6234 1.73085 25.9898 1.3772 26.0782C1.33931 26.0908 1.28881 26.1035 1.23829 26.1035ZM39.5587 19.1934C39.2177 19.1934 38.9398 18.9408 38.8892 18.5997C38.6872 16.8816 38.2451 15.2015 37.5884 13.6098C37.4494 13.2687 37.6136 12.8771 37.9546 12.7381C38.2956 12.5992 38.6872 12.7634 38.8261 13.1045C39.5334 14.8099 40.0007 16.6164 40.2281 18.4481C40.2659 18.8144 40.0133 19.1555 39.647 19.1934C39.6091 19.1934 39.584 19.1934 39.5587 19.1934ZM3.5623 11.3233C3.436 11.3233 3.32229 11.2854 3.20861 11.2222C2.89285 11.0327 2.79183 10.6159 2.99392 10.3C3.96645 8.72096 5.14103 7.29348 6.50511 6.03022C6.77034 5.77757 7.19977 5.7902 7.45238 6.06812C7.70499 6.3334 7.6924 6.76291 7.41453 7.01556C6.13887 8.1904 5.04 9.52946 4.14324 11.0075C4.00431 11.2096 3.78964 11.3233 3.5623 11.3233ZM35.5043 9.41576C35.3022 9.41576 35.1128 9.32733 34.9739 9.16311C33.9003 7.81142 32.6499 6.59868 31.2479 5.58807C30.9448 5.37332 30.8817 4.95645 31.0964 4.65327C31.3111 4.35009 31.7279 4.28691 32.031 4.50166C33.5214 5.58807 34.8728 6.8766 36.0221 8.32935C36.2495 8.6199 36.199 9.03678 35.9085 9.2768C35.7948 9.36522 35.6433 9.41576 35.5043 9.41576ZM11.3299 4.12268C11.0899 4.12268 10.85 3.98373 10.7363 3.75634C10.5721 3.4279 10.6984 3.02364 11.0268 2.85942C12.6814 2.01303 14.437 1.40668 16.2431 1.04034C16.6094 0.964541 16.963 1.20456 17.0262 1.57091C17.102 1.93725 16.862 2.29096 16.4957 2.35412C14.8033 2.6952 13.1613 3.26367 11.6204 4.04689C11.5446 4.11005 11.4436 4.12268 11.3299 4.12268ZM26.9284 3.20051C26.8526 3.20051 26.7767 3.18787 26.701 3.16261C25.0843 2.56888 23.3918 2.20254 21.6615 2.06358C21.2952 2.03831 21.0173 1.70985 21.0426 1.34351C21.0679 0.977162 21.3963 0.686623 21.7625 0.724521C23.6066 0.86348 25.4254 1.26772 27.1557 1.89935C27.4967 2.02567 27.6862 2.41729 27.5473 2.75837C27.4588 3.03629 27.2062 3.20051 26.9284 3.20051Z" fill="#151924"/>
</svg>
