<svg width="307" height="285" viewBox="0 0 307 285" fill="none" xmlns="http://www.w3.org/2000/svg">
<path d="M234.247 92.1205C233.969 104.349 241.446 116.843 253.003 120.872C259.293 123.07 266.189 122.755 272.63 124.435C279.072 126.115 285.639 130.966 285.69 137.636C285.715 142.057 283.202 152.1 296.451 157.974C307.376 162.825 304.774 189.063 270.925 200.104C260.556 203.49 267.237 194.975 256.463 193.32C245.816 191.678 236.166 185.665 228.816 177.782C221.477 169.9 216.274 160.248 212.232 150.268C207.571 138.773 204.313 126.077 207.192 114.013C210.072 101.949 220.707 91.0593 234.247 92.1205Z" fill="#151924"/>
<path d="M267.035 201.57C264.8 201.57 263.979 200.357 263.107 198.626C262.185 196.795 261.149 194.723 256.362 193.99C246.309 192.436 236.356 186.853 228.336 178.25C221.819 171.251 216.35 162.181 211.613 150.521C205.677 135.88 204.06 124.233 206.536 113.861C208.039 107.558 211.5 101.797 216.274 97.6411C221.515 93.0807 227.755 90.9458 234.297 91.4637C234.651 91.489 234.916 91.7922 234.916 92.1459C234.626 104.627 242.33 116.451 253.218 120.253C256.653 121.454 260.379 121.896 263.966 122.338C266.884 122.692 269.89 123.058 272.795 123.803C279.286 125.496 286.309 130.562 286.347 137.649C286.347 138.23 286.309 138.887 286.271 139.594C286.006 144.394 285.551 152.429 296.716 157.381C300.796 159.187 303.145 163.836 302.855 169.495C302.349 179.311 293.736 193.384 271.127 200.761C269.384 201.317 268.058 201.57 267.035 201.57ZM232.415 92.727C219.772 92.727 210.388 103.503 207.849 114.177C205.437 124.271 207.028 135.653 212.864 150.029C217.524 161.537 222.917 170.468 229.321 177.34C237.139 185.728 246.814 191.173 256.577 192.676C262.046 193.523 263.36 196.125 264.32 198.033C265.305 199.991 265.848 201.077 270.736 199.485C292.7 192.323 301.061 178.818 301.541 169.432C301.806 164.329 299.76 160.185 296.199 158.606C284.187 153.275 284.667 144.66 284.958 139.518C284.995 138.798 285.033 138.192 285.033 137.649C284.995 131.269 278.491 126.671 272.479 125.092C269.662 124.359 266.707 124.005 263.827 123.652C260.164 123.21 256.362 122.755 252.788 121.504C241.547 117.588 233.552 105.562 233.577 92.7523C233.186 92.727 232.794 92.727 232.415 92.727Z" fill="#151924"/>
<path d="M168.089 64.1772C171.651 81.5597 175.099 100.269 167.988 116.514C165.677 121.795 162.317 126.608 160.41 132.052C158.149 138.52 158.086 145.557 158.692 152.391C159.854 165.301 163.732 178.54 172.813 187.787C181.882 197.035 197.063 201.064 208.266 194.546C218.093 188.823 222.576 176.519 221.958 165.162C221.339 153.806 216.501 143.156 211.386 133C199.084 108.606 184.774 85.2232 168.089 64.1772Z" fill="#151924"/>
<path d="M193.211 148.967C193.527 139.708 192.39 134.516 192.011 127.58C195.75 125.711 199.791 124.41 203.922 123.74C205.778 123.437 207.862 123.323 209.302 124.447C210.199 125.155 214.43 121.416 214.872 122.439C217.891 129.513 218.143 139.594 221.162 146.668C221.389 147.211 231.961 146.226 232.201 146.782C233.186 149.081 232.365 168.257 231.632 168.75C192.971 194.457 174.341 157.684 174.341 157.684C174.341 157.684 181.339 153.376 193.211 148.967Z" fill="white"/>
<path d="M205.589 178.541C202.798 178.541 200.057 178.187 197.392 177.492C181.667 173.349 173.811 158.139 173.735 157.987C173.584 157.671 173.685 157.292 173.988 157.116C174.064 157.078 181.023 152.833 192.567 148.5C192.744 142.626 192.314 138.369 191.91 134.263C191.695 132.154 191.481 129.968 191.354 127.631C191.342 127.366 191.481 127.113 191.721 126.999C195.535 125.092 199.602 123.778 203.821 123.096C205.665 122.805 207.976 122.629 209.643 123.879C210.047 123.854 211.184 123.184 211.879 122.78C213.356 121.908 214.228 121.428 214.91 121.656C215.175 121.744 215.377 121.934 215.491 122.186C217.032 125.787 217.866 130.183 218.674 134.44C219.457 138.52 220.253 142.727 221.667 146.15C222.438 146.239 224.837 146.138 226.644 146.075C232.188 145.847 232.554 145.923 232.82 146.542C233.514 148.184 233.312 156.105 233.224 158.493C232.87 168.75 232.264 169.154 231.999 169.331C222.741 175.458 213.9 178.541 205.589 178.541ZM175.226 157.924C176.779 160.64 184.281 172.654 197.745 176.191C207.913 178.869 219.129 176.204 231.115 168.27C231.759 166.312 232.378 150.218 231.658 147.3C230.849 147.212 228.475 147.313 226.681 147.388C221.162 147.616 220.796 147.54 220.53 146.921C218.99 143.321 218.156 138.925 217.348 134.667C216.565 130.587 215.769 126.38 214.354 122.957C213.925 123.096 213.116 123.576 212.535 123.917C210.931 124.852 209.668 125.597 208.873 124.966C207.61 123.968 205.614 124.144 204.023 124.397C200.082 125.029 196.28 126.241 192.706 127.985C192.832 130.12 193.022 132.065 193.224 134.124C193.653 138.381 194.083 142.79 193.868 148.993C193.855 149.258 193.691 149.498 193.426 149.599C183.637 153.237 177.095 156.85 175.226 157.924Z" fill="#151924"/>
<path d="M164.085 68.4471C165.222 77.0247 166.952 86.0318 164.742 94.5714C163.529 99.2328 163.643 122.919 182.652 129.665C192.642 133.215 204.111 132.482 214.417 126.229C221.402 121.984 229.889 108.821 228.197 95.7463C233.981 97.3506 239.703 93.4471 239.766 88.2425C239.804 85.2485 236.495 81.484 233.009 81.6609C230.306 81.7872 229.978 81.8251 227.931 83.3915C226.529 77.2647 225.671 71.0116 225.784 63.9626C219.217 56.7241 208.67 53.0227 198.137 51.4436C194.651 50.9257 191.076 50.5972 187.54 51.0394C177.41 52.3026 162.911 59.6422 164.085 68.4471Z" fill="white"/>
<path d="M194.954 132.482C190.761 132.482 186.542 131.762 182.412 130.297C163.429 123.551 162.608 100.105 164.085 94.4072C166.005 87.0298 164.906 79.2228 163.845 71.6811C163.694 70.6326 163.555 69.5841 163.416 68.5356C163.088 66.0722 163.858 63.6089 165.702 61.2213C170.211 55.3724 180.265 51.2668 187.439 50.3699C191.342 49.8772 195.257 50.332 198.225 50.7741C206.927 52.0753 218.863 55.3471 226.277 63.5078C226.391 63.6341 226.454 63.7984 226.454 63.9752C226.353 70.0263 226.959 75.8625 228.361 82.242C229.864 81.1935 230.533 81.1177 232.984 80.9914C234.701 80.9029 236.533 81.6735 237.998 83.101C239.526 84.579 240.461 86.5497 240.436 88.2551C240.398 90.769 239.147 93.144 236.975 94.7736C234.727 96.4663 231.796 97.1232 228.967 96.6179C230.218 109.945 221.642 122.641 214.758 126.81C208.544 130.574 201.774 132.482 194.954 132.482ZM164.742 68.3587C164.881 69.3946 165.033 70.4431 165.172 71.4916C166.245 79.1723 167.357 87.1056 165.374 94.7357C164.54 97.9444 163.492 122.148 182.854 129.021C193.274 132.722 204.363 131.522 214.051 125.648C220.619 121.668 229.195 108.758 227.515 95.8221C227.49 95.5947 227.565 95.3799 227.742 95.2283C227.906 95.0768 228.146 95.0262 228.361 95.0894C231.064 95.8473 233.982 95.3168 236.154 93.6872C237.985 92.3102 239.046 90.3269 239.084 88.2299C239.097 86.8782 238.326 85.2865 237.051 84.0611C235.838 82.8863 234.373 82.2673 233.022 82.3304C230.382 82.4568 230.218 82.4694 228.311 83.9221C228.134 84.0611 227.894 84.099 227.679 84.0232C227.464 83.9474 227.3 83.7706 227.25 83.5432C225.696 76.7468 225.001 70.5947 225.09 64.2152C217.941 56.4841 206.435 53.3638 198.01 52.1006C195.131 51.6711 191.342 51.2289 187.59 51.6963C180.694 52.5553 171.045 56.4715 166.75 62.0298C165.146 64.1395 164.464 66.2617 164.742 68.3587Z" fill="#151924"/>
<path d="M205.576 103.124C202.81 103.124 200.12 102.101 197.871 100.18C195.257 97.9444 193.564 94.7358 193.097 91.1607C192.137 83.7454 196.836 77.0122 203.555 76.1532C206.826 75.7363 210.072 76.7343 212.712 78.9955C215.326 81.2315 217.019 84.4402 217.486 88.0152C217.954 91.5902 217.12 95.1147 215.162 97.9444C213.192 100.799 210.3 102.593 207.028 103.023C206.548 103.099 206.068 103.124 205.576 103.124ZM205.02 77.4038C204.591 77.4038 204.174 77.4291 203.744 77.4922C197.758 78.2628 193.59 84.3265 194.449 90.9965C194.865 94.2431 196.394 97.1486 198.768 99.1698C201.117 101.178 203.997 102.075 206.877 101.709C209.769 101.33 212.32 99.7383 214.076 97.1991C215.844 94.6473 216.589 91.4513 216.173 88.2047C215.756 84.9581 214.228 82.0526 211.866 80.0314C209.858 78.3133 207.47 77.4038 205.02 77.4038Z" fill="#151924"/>
<path d="M171.247 104.703C165.096 104.703 159.652 99.6244 158.755 92.7523C157.795 85.3369 162.494 78.6037 169.213 77.7447C175.933 76.8731 182.185 82.204 183.144 89.6068C184.104 97.0221 179.406 103.755 172.687 104.614C172.207 104.665 171.727 104.703 171.247 104.703ZM170.653 78.9827C170.236 78.9827 169.807 79.008 169.39 79.0585C163.403 79.8291 159.223 85.8928 160.094 92.5754C160.953 99.2581 166.536 104.058 172.522 103.275C178.509 102.505 182.677 96.441 181.818 89.7583C181.01 83.5684 176.147 78.9827 170.653 78.9827Z" fill="#151924"/>
<path d="M214.872 44.2429C226.946 44.2429 236.735 34.4527 236.735 22.3759C236.735 10.299 226.946 0.508789 214.872 0.508789C202.797 0.508789 193.009 10.299 193.009 22.3759C193.009 34.4527 202.797 44.2429 214.872 44.2429Z" fill="#151924"/>
<path d="M227.161 84.2883C221.616 75.6855 218.219 69.4829 216.4 59.0104C195.926 71.1377 176.476 73.02 156.873 72.2747C156.457 68.9397 157.164 61.5622 158.541 58.3914C161.938 50.635 166.182 43.9271 178.017 38.634C186.315 34.92 197.48 32.4566 206.46 33.7578C215.377 35.0463 223.056 39.872 229.296 45.6577C234.259 50.2686 238.465 57.823 239.943 65.3015C241.206 71.7062 239.64 76.4182 236.773 82.9366C235.169 82.065 233.653 81.1933 231.784 81.547C229.927 81.926 228.715 82.8734 227.161 84.2883Z" fill="#151924"/>
<path d="M197.455 117.07C195.989 117.07 194.638 116.615 193.577 115.731C193.287 115.491 193.249 115.074 193.489 114.784C193.729 114.493 194.145 114.455 194.436 114.695C195.85 115.883 197.972 116.047 200.094 115.163C202.456 114.177 204.401 112.27 205.563 109.781C205.715 109.44 206.119 109.301 206.46 109.453C206.801 109.604 206.94 110.008 206.788 110.35C205.487 113.129 203.29 115.276 200.612 116.388C199.539 116.843 198.465 117.07 197.455 117.07Z" fill="#151924"/>
<path d="M204.73 90.1753C204.591 89.1015 203.555 88.3562 202.431 88.4952C201.295 88.6468 200.499 89.6321 200.638 90.7059C200.777 91.7797 201.812 92.525 202.937 92.386C204.061 92.2471 204.869 91.2491 204.73 90.1753Z" fill="#151924"/>
<path d="M174.139 91.792C174 90.7182 172.965 89.9729 171.841 90.1119C170.704 90.2635 169.908 91.2488 170.047 92.3226C170.186 93.3964 171.222 94.1417 172.346 94.0027C173.47 93.8511 174.278 92.8658 174.139 91.792Z" fill="#151924"/>
<path d="M185.62 104.235C185.544 104.235 185.456 104.223 185.38 104.197L182.589 103.136C182.261 103.01 181.629 102.77 181.402 102.164C181.111 101.418 181.604 100.761 181.882 100.395C183.991 97.5653 184.698 93.8892 183.764 90.5668C183.663 90.2131 183.877 89.8342 184.231 89.7457C184.585 89.6447 184.963 89.8594 185.052 90.2131C186.1 93.9271 185.317 98.0327 182.955 101.204C182.766 101.469 182.665 101.633 182.665 101.709C182.677 101.709 182.778 101.785 183.082 101.898L185.873 102.959C186.214 103.086 186.391 103.477 186.264 103.818C186.138 104.071 185.885 104.235 185.62 104.235Z" fill="#151924"/>
<path d="M181.982 87.5979C181.616 87.5979 181.313 87.3073 181.313 86.941C181.275 85.0587 183.119 83.7449 184.963 83.2775C187.969 82.5069 191.392 83.3028 193.666 85.2861C193.943 85.5261 193.969 85.9557 193.729 86.2336C193.489 86.5115 193.059 86.5367 192.781 86.2967C190.824 84.5913 187.881 83.9218 185.292 84.5787C183.965 84.9198 182.639 85.8293 182.652 86.9283C182.652 87.2821 182.361 87.5853 181.982 87.5979Z" fill="#151924"/>
<path d="M216.097 84.3389C215.731 84.3389 215.428 84.0358 215.428 83.6694C215.428 83.3031 215.731 82.9999 216.097 82.9999L226.214 82.9746C226.58 82.9746 226.883 83.2778 226.883 83.6441C226.883 84.0105 226.58 84.3137 226.214 84.3137L216.097 84.3389Z" fill="#151924"/>
<path d="M228.071 91.3502C228.058 91.3502 228.058 91.3502 228.071 91.3502C227.692 91.3502 227.401 91.047 227.401 90.6681C227.427 88.1921 226.934 85.6782 225.961 83.3917C225.823 83.0506 225.974 82.659 226.315 82.5074C226.656 82.3684 227.048 82.52 227.199 82.8611C228.235 85.3118 228.765 88.0152 228.74 90.6681C228.728 91.047 228.437 91.3502 228.071 91.3502Z" fill="#151924"/>
<path d="M302.21 228.073C293.268 203.603 288.317 179.462 267.212 161.84C257.082 153.376 244.856 147.375 230.773 146.479C229.915 160.122 214.076 169.104 205.576 170.114C200.953 170.67 183.789 172.956 183.789 152.706C178.193 154.942 159.551 157.229 152.087 180.195C149.03 189.581 143.561 225.534 125.512 246.365C121.256 251.279 117.315 218.548 111.177 220.72C105.165 222.855 98.2309 226.443 97.7762 232.81C97.4226 237.774 101.515 242.095 106.087 244.066C115.913 248.285 119.589 268.75 130.186 270.24C141.199 271.794 158.768 275.849 172.08 234.237C178.875 241.034 183.271 248.348 190.9 252.454C212.889 264.303 286.044 277.618 297.954 279.727C298.939 279.904 301.187 279.096 301.592 278.174C304.092 272.325 310.648 251.127 302.21 228.073Z" fill="#367DCB"/>
<path d="M298.245 280.435C298.093 280.435 297.967 280.422 297.84 280.397C283.77 277.896 212.46 264.846 190.584 253.047C185.304 250.205 181.553 245.859 177.587 241.274C175.945 239.379 174.253 237.408 172.384 235.488C166.713 252.795 159.829 263.621 151.354 268.573C143.953 272.906 136.88 271.87 131.209 271.049C130.83 270.998 130.464 270.935 130.097 270.885C124.111 270.038 120.271 263.545 116.545 257.267C113.425 251.986 110.192 246.542 105.822 244.659C101.199 242.676 96.7154 238.217 97.1069 232.747C97.4858 227.391 102.02 223.247 110.95 220.076C111.594 219.849 112.251 219.887 112.895 220.215C115.711 221.617 117.871 228.54 119.955 235.235C121.357 239.745 123.29 245.91 124.578 246.175C124.704 246.201 124.881 246.049 124.995 245.91C139.368 229.311 145.797 202.681 149.257 188.368C150.142 184.73 150.836 181.85 151.443 179.968C157.985 159.857 173.242 155.258 180.568 153.035C181.755 152.681 182.791 152.365 183.536 152.062C183.738 151.974 183.978 152.012 184.155 152.125C184.344 152.252 184.446 152.454 184.446 152.681C184.446 158.821 186.062 163.368 189.258 166.198C194.386 170.746 202.33 169.798 205.323 169.432L205.475 169.419C213.609 168.447 229.233 159.68 230.079 146.403C230.091 146.226 230.167 146.062 230.306 145.948C230.445 145.834 230.609 145.771 230.786 145.784C243.896 146.63 256.287 151.847 267.616 161.309C285.185 175.976 291.588 194.963 298.384 215.061C299.798 219.23 301.251 223.55 302.817 227.82C310.458 248.714 306.012 269.457 302.173 278.426C301.705 279.601 299.546 280.435 298.245 280.435ZM172.08 233.568C172.257 233.568 172.421 233.631 172.56 233.77C174.771 235.981 176.716 238.229 178.598 240.402C182.488 244.899 186.151 249.144 191.215 251.873C212.914 263.57 284.036 276.595 298.068 279.083C298.864 279.222 300.733 278.477 300.96 277.921C301.377 276.961 310.963 253.97 301.566 228.3C300 224.005 298.535 219.685 297.121 215.503C290.389 195.582 284.036 176.772 266.757 162.345C255.845 153.237 243.934 148.133 231.355 147.173C230.609 154.74 225.582 160.236 221.427 163.533C216.628 167.348 210.426 170.19 205.639 170.759L205.488 170.771C202.33 171.15 193.956 172.161 188.374 167.209C185.052 164.265 183.284 159.692 183.119 153.641C182.488 153.856 181.755 154.083 180.947 154.323C173.293 156.635 159.033 160.943 152.706 180.385C152.112 182.216 151.417 185.071 150.546 188.684C147.06 203.098 140.58 229.942 125.992 246.782C125.348 247.527 124.704 247.578 124.287 247.489C122.33 247.085 120.94 242.929 118.667 235.64C116.848 229.816 114.587 222.565 112.276 221.415C111.96 221.264 111.682 221.238 111.379 221.34C103.005 224.321 98.7615 228.085 98.4205 232.848C98.0795 237.648 102.285 241.703 106.327 243.434C111.101 245.481 114.436 251.127 117.669 256.585C121.395 262.863 124.906 268.8 130.249 269.558C130.615 269.609 130.994 269.659 131.373 269.723C142.26 271.314 158.718 273.702 171.411 234.023C171.487 233.795 171.664 233.631 171.891 233.581C171.979 233.581 172.03 233.568 172.08 233.568Z" fill="#151924"/>
<path d="M275.965 251.671C255.883 250.546 235.687 249.17 215.478 247.78C213.672 247.477 204.679 246.201 202.469 245.872C200.587 245.595 198.794 244.9 197.076 244.104C191.064 241.325 178.168 235.88 175.301 237.497C168.67 239.442 162.671 244.23 157.973 250.294C155.333 253.692 153.173 259.326 154.272 260.299C154.967 260.918 156.015 261.171 156.785 260.526C159.905 253.831 165.475 248.311 172.207 245.241C169.075 247.009 166.17 249.157 163.555 251.608C160.903 254.096 158.465 257.103 157.872 260.703C157.821 260.981 157.796 261.284 157.947 261.537C158.314 262.131 159.223 261.79 159.779 261.36C160.852 260.526 174.67 249.296 177.246 249.599C173.811 250.9 161.572 260.829 161.522 261.878C161.496 262.383 161.597 262.914 161.913 263.305C162.343 263.849 163.113 264.013 163.795 263.899C164.477 263.785 165.096 263.432 165.677 263.078C169.63 260.678 173.243 257.671 177.512 255.89C179.646 255.006 182.248 254.488 184.143 255.814C180.341 257.254 176.779 259.351 173.786 262.105C173.306 262.548 172.914 263.065 172.599 263.621C172.131 264.468 171.601 265.68 172.257 266.375C173.318 267.512 174.228 266.944 175.137 266.4C178.8 263.988 182.539 261.992 186.454 260.438C187.666 259.958 189.119 259.528 190.218 260.236C191.165 260.842 195.775 263.71 205.248 264.202C208.481 264.367 211.601 265.213 215.643 266.325C268.879 281.004 284.781 286.853 297.689 281.307C300.215 280.221 301.061 278.894 300.228 274.561C297.942 262.977 295.744 256.395 275.965 251.671Z" fill="white"/>
<path d="M286.84 284.061C276.647 284.061 262.122 279.993 234.803 272.363C229.043 270.758 222.526 268.927 215.428 266.969C211.664 265.933 208.418 265.036 205.185 264.872C196.331 264.417 191.493 261.878 189.826 260.804C188.98 260.261 187.692 260.652 186.669 261.069C182.854 262.585 179.191 264.518 175.478 266.969L175.377 267.032C174.48 267.55 173.141 268.346 171.74 266.842C170.653 265.693 171.664 263.899 171.992 263.305C172.346 262.661 172.8 262.093 173.318 261.625C175.92 259.238 178.964 257.292 182.4 255.801C180.871 255.473 179.103 255.966 177.752 256.522C174.973 257.684 172.396 259.427 169.908 261.107C168.645 261.966 167.332 262.85 166.005 263.659C165.361 264.051 164.679 264.442 163.883 264.568C162.886 264.733 161.913 264.417 161.37 263.735C160.979 263.255 160.802 262.598 160.827 261.852C160.84 261.663 160.991 261.372 161.294 260.981C161.08 261.158 160.852 261.335 160.625 261.511C160.398 261.688 160.233 261.815 160.158 261.89C159.678 262.269 158.92 262.623 158.238 262.509C157.859 262.434 157.543 262.231 157.341 261.89C157.177 261.625 157.139 261.347 157.139 261.095C156.204 261.827 154.84 261.714 153.817 260.804C152.061 259.25 155.206 252.757 157.442 249.889C162.57 243.283 168.658 238.785 175.049 236.878C178.484 235.147 191.771 240.92 197.354 243.497C198.756 244.142 200.612 244.925 202.57 245.203C203.151 245.291 204.212 245.443 205.5 245.632C208.961 246.137 214.177 246.883 215.567 247.11C235.308 248.462 255.718 249.864 276.015 251.001C276.053 251.001 276.091 251.014 276.129 251.014C296.312 255.827 298.573 262.699 300.847 274.409C301.693 278.768 300.986 280.587 297.916 281.9C294.569 283.353 291.083 284.061 286.84 284.061ZM188.816 259.187C189.409 259.187 190.003 259.313 190.546 259.667C192.125 260.678 196.722 263.078 205.26 263.52C208.645 263.697 211.954 264.606 215.794 265.668C222.892 267.626 229.422 269.445 235.182 271.062C273.527 281.787 286.435 285.4 297.398 280.688C299.47 279.791 300.367 278.907 299.546 274.687C297.31 263.204 295.251 256.989 275.889 252.353C255.592 251.216 235.194 249.814 215.453 248.462C215.428 248.462 215.415 248.462 215.39 248.449C214.064 248.235 208.797 247.464 205.311 246.971C204.035 246.782 202.974 246.63 202.381 246.542C200.246 246.226 198.276 245.405 196.798 244.723C187.793 240.567 177.752 236.903 175.63 238.091C175.592 238.116 175.541 238.128 175.491 238.154C169.428 239.935 163.391 244.394 158.503 250.71C155.724 254.298 154.221 259.136 154.726 259.806C155.131 260.16 155.762 260.387 156.255 260.084C159.45 253.351 165.147 247.717 171.929 244.634C172.257 244.483 172.636 244.622 172.801 244.937C172.965 245.253 172.851 245.645 172.535 245.822C169.453 247.565 166.586 249.675 164.01 252.1C160.751 255.17 159.008 257.936 158.528 260.817C158.478 261.095 158.503 261.17 158.516 261.183C158.591 261.208 158.983 261.12 159.362 260.817C159.438 260.753 159.602 260.627 159.817 260.45C174.657 248.614 176.653 248.841 177.309 248.917C177.613 248.955 177.865 249.195 177.903 249.498C177.941 249.801 177.764 250.104 177.474 250.205C174.228 251.431 163.075 260.476 162.191 261.991C162.191 262.358 162.279 262.674 162.431 262.876C162.709 263.217 163.265 263.305 163.681 263.229C164.237 263.141 164.78 262.825 165.336 262.497C166.637 261.701 167.925 260.829 169.176 259.983C171.714 258.265 174.341 256.484 177.259 255.271C179.343 254.399 182.286 253.704 184.521 255.258C184.724 255.397 184.837 255.65 184.799 255.89C184.774 256.143 184.61 256.345 184.37 256.433C180.48 257.911 177.07 259.983 174.228 262.585C173.811 262.964 173.457 263.419 173.167 263.937C172.624 264.91 172.459 265.617 172.725 265.895C173.369 266.59 173.773 266.388 174.708 265.844L174.771 265.806C178.535 263.33 182.273 261.347 186.176 259.793C186.959 259.49 187.894 259.187 188.816 259.187Z" fill="#151924"/>
<path d="M143.056 277.605C159.716 277.959 176.388 278.325 193.047 278.679L193.11 270.19L137.461 268.826L143.056 277.605Z" fill="#151924"/>
<path d="M0.990234 200.054L109.674 200.66L147.136 277.605L39.4748 277.34L0.990234 200.054Z" fill="white"/>
<path d="M147.136 278.275L39.4748 278.01C39.2222 278.01 38.9948 277.871 38.8812 277.643L0.396645 200.37C0.295602 200.155 0.308219 199.915 0.421892 199.713C0.548195 199.511 0.762887 199.397 0.990232 199.397L109.674 199.991C109.927 199.991 110.167 200.142 110.268 200.37L147.729 277.315C147.83 277.517 147.818 277.77 147.691 277.959C147.578 278.161 147.363 278.275 147.136 278.275ZM39.879 276.671L146.049 276.936L109.245 201.33L2.06382 200.736L39.879 276.671Z" fill="#151924"/>
<path d="M69.7371 231.421C66.6553 231.117 63.283 231.939 62.0199 234.781C60.7569 237.611 61.7295 241.173 64.0155 243.257C66.3016 245.342 69.6865 246.024 72.7178 245.342C74.3471 244.975 75.9764 244.18 76.9111 242.79C77.5679 241.83 77.8457 240.642 77.8457 239.48C77.871 235.665 76.128 232.04 69.7371 231.421Z" fill="white"/>
<path d="M70.4067 246.251C67.8301 246.251 65.3545 245.367 63.5737 243.738C60.9971 241.388 60.0877 237.497 61.4139 234.49C62.6264 231.749 65.7713 230.347 69.8004 230.739C77.0502 231.446 78.5406 235.88 78.5153 239.48C78.5027 240.883 78.1364 242.158 77.467 243.156C76.2798 244.9 74.3094 245.658 72.8696 245.986C72.0486 246.163 71.215 246.251 70.4067 246.251ZM68.5753 232.027C66.7691 232.027 63.7884 232.444 62.639 235.046C61.5402 237.535 62.3106 240.782 64.4704 242.752C66.5039 244.609 69.6109 245.342 72.5664 244.672C74.2715 244.293 75.623 243.485 76.3555 242.398C77.0249 241.413 77.1765 240.264 77.1765 239.468C77.2018 234.996 74.7515 232.57 69.6741 232.078C69.4088 232.052 69.0299 232.027 68.5753 232.027Z" fill="#151924"/>
<path d="M263.979 251.645C263.701 251.645 263.436 251.468 263.347 251.191C255.782 228.288 251.513 213.798 251.513 182.406C251.513 182.04 251.816 181.736 252.182 181.736C252.548 181.736 252.852 182.04 252.852 182.406C252.852 213.608 257.108 228.01 264.623 250.774C264.737 251.127 264.547 251.506 264.194 251.62C264.13 251.633 264.055 251.645 263.979 251.645Z" fill="#151924"/>
<path d="M172.08 234.92C171.866 234.92 171.663 234.819 171.524 234.63C161.787 220.607 164.414 210.337 166.965 200.408C168.241 195.43 169.567 190.289 169.352 184.667C169.339 184.301 169.63 183.985 169.996 183.973C170.375 183.947 170.678 184.251 170.691 184.617C170.906 190.441 169.567 195.67 168.266 200.736C165.677 210.817 163.239 220.342 172.623 233.859C172.838 234.162 172.762 234.579 172.459 234.794C172.345 234.87 172.219 234.92 172.08 234.92Z" fill="#151924"/>
<path d="M203.858 200.433C193.994 200.433 184.117 199.536 174.531 197.136C174.404 197.111 174.341 196.984 174.366 196.871C174.392 196.744 174.518 196.681 174.632 196.706C198.958 202.808 225.216 199.132 248.367 195.885C248.481 195.873 248.607 195.948 248.62 196.075C248.633 196.201 248.557 196.315 248.43 196.327C234.348 198.298 219.116 200.433 203.858 200.433Z" fill="#151924"/>
<path d="M212.75 219.407C198.25 219.407 183.751 217.689 169.718 214.253C169.605 214.227 169.529 214.101 169.554 213.987C169.579 213.874 169.706 213.798 169.819 213.823C195.573 220.114 222.93 220.645 248.898 215.327C249.024 215.301 249.138 215.377 249.163 215.503C249.188 215.63 249.113 215.743 248.986 215.769C237.101 218.194 224.925 219.407 212.75 219.407Z" fill="#151924"/>
<path d="M303.878 257.924C303.815 257.924 303.752 257.898 303.714 257.848C294.607 247.123 279.767 241.729 265.898 244.091C265.785 244.116 265.659 244.028 265.646 243.914C265.621 243.788 265.709 243.674 265.823 243.661C279.842 241.274 294.847 246.731 304.042 257.57C304.118 257.658 304.105 257.81 304.017 257.886C303.979 257.911 303.928 257.924 303.878 257.924Z" fill="#151924"/>
<path d="M302.223 248.032C302.198 248.032 302.173 248.032 302.135 248.02C300.657 247.426 299.457 246.352 298.308 245.316C297.904 244.95 297.487 244.584 297.058 244.23C294.468 242.108 291.361 240.731 288.052 240.251C287.926 240.238 287.85 240.124 287.863 239.998C287.875 239.872 288.002 239.796 288.115 239.808C291.5 240.314 294.683 241.716 297.335 243.889C297.765 244.243 298.182 244.621 298.598 244.988C299.735 245.998 300.897 247.047 302.299 247.603C302.413 247.653 302.463 247.78 302.425 247.893C302.388 247.982 302.312 248.032 302.223 248.032Z" fill="#151924"/>
</svg>
