<svg width="48" height="49" viewBox="0 0 48 49" fill="none" xmlns="http://www.w3.org/2000/svg">
<path d="M36.817 43.6401L32.7121 41.3284C29.9587 42.1369 28.4557 42.579 25.7023 43.3875L23.5046 47.5436C18.3641 46.3056 19.0335 46.4572 13.893 45.2192L13.8425 40.5199C11.7711 38.5366 10.6344 37.4628 8.55035 35.4795L3.85187 35.6563C2.3615 30.578 2.55092 31.2475 1.06055 26.1692L5.11491 23.769C5.78431 20.9772 6.1632 19.4613 6.83261 16.6695L4.33183 12.6902C7.98199 8.86252 7.50203 9.36783 11.1522 5.52751L15.257 7.83927C18.0105 7.03079 19.5134 6.58865 22.2669 5.78016L24.4645 1.62402C29.6051 2.86202 28.9357 2.71043 34.0762 3.94843L34.1267 8.64776C36.1981 10.6311 37.3348 11.7049 39.4188 13.6882L44.1173 13.5113C45.6077 18.5896 45.4182 17.9201 46.9086 22.9984L42.8543 25.3986C42.1849 28.1904 41.806 29.7064 41.1365 32.4982L43.6374 36.4774C39.9872 40.3178 40.4671 39.8125 36.817 43.6401Z" fill="white"/>
<path d="M23.5044 48.2385C23.4539 48.2385 23.4034 48.2385 23.3528 48.2259L13.7412 45.9015C13.438 45.8257 13.2359 45.5604 13.2233 45.2572L13.1728 40.8358L8.29749 36.187L3.87688 36.3512C3.54849 36.3512 3.29589 36.1618 3.20748 35.8712L0.416189 26.3841C0.327777 26.0935 0.454068 25.7777 0.719304 25.6135L4.52104 23.3649L6.11243 16.8086L3.76321 13.0693C3.59902 12.804 3.63691 12.4756 3.83899 12.2482L10.6594 5.08548C10.8741 4.8581 11.2025 4.80757 11.4677 4.95916L15.3199 7.13197L21.7867 5.22444L23.858 1.30833C23.997 1.04305 24.3127 0.904092 24.6032 0.967255L34.2149 3.29165C34.518 3.36745 34.7201 3.63274 34.7327 3.93592L34.7833 8.35734L39.6585 13.0061L44.0792 12.8419C44.3823 12.8293 44.6602 13.0314 44.7486 13.322L47.5399 22.8091C47.6283 23.0996 47.502 23.4154 47.2367 23.5797L43.435 25.8283L41.8436 32.3846L44.1929 36.1238C44.3571 36.3891 44.3192 36.7176 44.1171 36.945L37.2967 44.1077C37.082 44.3351 36.7536 44.3856 36.4884 44.234L32.6361 42.0612L26.1694 43.9687L24.098 47.8848C23.9844 48.0996 23.757 48.2385 23.5044 48.2385ZM14.5621 44.714L23.1508 46.7984L25.1084 43.0971C25.1968 42.9328 25.3358 42.8191 25.5126 42.7686L32.5224 40.7095C32.6992 40.659 32.8887 40.6842 33.0403 40.7727L36.6904 42.8191L42.7909 36.4144L40.5679 32.8773C40.4669 32.7257 40.4417 32.5362 40.4795 32.3593L42.1972 25.2598C42.2351 25.0829 42.3488 24.9314 42.513 24.8429L46.1127 22.708L43.6118 14.2189L39.4312 14.3705C39.2417 14.3705 39.0776 14.3073 38.9386 14.181L33.6465 9.14057C33.5202 9.01424 33.4444 8.83738 33.4444 8.66052L33.3939 4.47912L24.8053 2.39474L22.8476 6.0961C22.7592 6.26032 22.6203 6.37402 22.4435 6.42455L15.4336 8.48366C15.2568 8.53419 15.0673 8.50893 14.9158 8.42051L11.2656 6.37402L5.16516 12.7788L7.38811 16.3159C7.48915 16.4675 7.51442 16.657 7.47653 16.8338L5.75879 23.9334C5.7209 24.1102 5.60722 24.2618 5.44303 24.3502L1.84342 26.4852L4.3442 34.9743L8.52483 34.8227C8.70165 34.8227 8.8785 34.8859 9.01743 35.0122L14.3095 40.0526C14.4358 40.1789 14.5116 40.3558 14.5116 40.5326L14.5621 44.714Z" fill="#151924"/>
<path d="M23.9847 33.8374C29.0907 33.8374 33.23 29.6974 33.23 24.5903C33.23 19.4833 29.0907 15.3433 23.9847 15.3433C18.8786 15.3433 14.7393 19.4833 14.7393 24.5903C14.7393 29.6974 18.8786 33.8374 23.9847 33.8374Z" fill="white"/>
<path d="M23.9846 34.5197C18.5157 34.5197 14.0698 30.0731 14.0698 24.6031C14.0698 19.1332 18.5157 14.6865 23.9846 14.6865C29.4536 14.6865 33.8994 19.1332 33.8994 24.6031C33.8994 30.0604 29.4536 34.5197 23.9846 34.5197ZM23.9846 16.0129C19.2483 16.0129 15.4086 19.8659 15.4086 24.5905C15.4086 29.3277 19.2609 33.1681 23.9846 33.1681C28.721 33.1681 32.5606 29.3151 32.5606 24.5905C32.5606 19.8659 28.7084 16.0129 23.9846 16.0129Z" fill="#151924"/>
</svg>
