<svg width="21" height="21" viewBox="0 0 21 21" fill="none" xmlns="http://www.w3.org/2000/svg">
<path d="M10.9014 20.4861H10.8887C9.29731 20.4861 7.70587 20.0945 6.29128 19.3618C5.96289 19.1849 5.83661 18.7807 6.0008 18.4523C6.17763 18.1238 6.5818 17.9975 6.91019 18.1617C8.14796 18.806 9.49941 19.1471 10.9014 19.1344C11.1792 19.1344 11.4571 19.1218 11.7349 19.0965C12.1012 19.0586 12.4296 19.3365 12.4675 19.7029C12.5054 20.0692 12.2275 20.3977 11.8612 20.4356C11.5455 20.4735 11.2298 20.4861 10.9014 20.4861ZM16.6987 18.4523C16.4966 18.4523 16.3071 18.3638 16.1808 18.1996C15.9535 17.909 15.9914 17.4922 16.2819 17.2521C17.5954 16.2036 18.5553 14.814 19.0858 13.2223C19.1995 12.8686 19.5784 12.6791 19.932 12.7928C20.2857 12.9065 20.4751 13.2855 20.3615 13.6392C19.7552 15.471 18.6311 17.0753 17.1281 18.288C16.9892 18.4017 16.8376 18.4523 16.6987 18.4523ZM2.80534 15.7741C2.57799 15.7741 2.35062 15.6478 2.22431 15.433C1.37808 13.9424 0.936035 12.2497 0.936035 10.5316C0.936035 8.59882 1.49177 6.71654 2.55271 5.09956C2.7548 4.78375 3.17161 4.69532 3.47474 4.91008C3.7905 5.1122 3.86627 5.52909 3.66419 5.83228C2.7548 7.2345 2.27485 8.85147 2.27485 10.5316C2.27485 12.0223 2.66639 13.4876 3.38632 14.7762C3.56314 15.092 3.44946 15.5089 3.1337 15.6857C3.03266 15.7362 2.91901 15.7741 2.80534 15.7741ZM19.8815 8.8262C19.5784 8.8262 19.3131 8.62409 19.2373 8.3209C18.8079 6.70393 17.9364 5.2638 16.686 4.12686C16.4082 3.87421 16.3955 3.45733 16.6355 3.17942C16.8881 2.9015 17.3049 2.88885 17.5828 3.12887C19.0226 4.43004 20.0331 6.1102 20.5257 7.96719C20.6141 8.32091 20.3994 8.68724 20.0457 8.78831C19.9952 8.8262 19.932 8.8262 19.8815 8.8262ZM7.12488 2.69937C6.87227 2.69937 6.61968 2.54777 6.50601 2.29512C6.35444 1.95404 6.50599 1.56245 6.84701 1.41086C8.12267 0.842388 9.47413 0.564453 10.8887 0.564453C11.4192 0.564453 11.9497 0.602359 12.4675 0.690787C12.8338 0.75395 13.0864 1.09501 13.0233 1.46136C12.9601 1.8277 12.6191 2.08036 12.2528 2.0172C11.7981 1.9414 11.3434 1.90351 10.8761 1.90351C9.66358 1.90351 8.48898 2.15618 7.39015 2.63622C7.31436 2.68675 7.22592 2.69937 7.12488 2.69937Z" fill="#151924"/>
</svg>
