<svg width="13" height="13" viewBox="0 0 13 13" fill="none" xmlns="http://www.w3.org/2000/svg">
<path d="M6.45792 11.4059C9.19233 11.4059 11.409 9.18885 11.409 6.45394C11.409 3.71903 9.19233 1.50195 6.45792 1.50195C3.72351 1.50195 1.50684 3.71903 1.50684 6.45394C1.50684 9.18885 3.72351 11.4059 6.45792 11.4059Z" fill="#151924"/>
<path d="M6.45789 12.0755C3.35083 12.0755 0.837402 9.54903 0.837402 6.45403C0.837402 3.34641 3.36346 0.83252 6.45789 0.83252C9.56495 0.83252 12.0784 3.35904 12.0784 6.45403C12.0784 9.56166 9.56495 12.0755 6.45789 12.0755ZM6.45789 2.17157C4.09602 2.17157 2.17622 4.09173 2.17622 6.45403C2.17622 8.81634 4.09602 10.7365 6.45789 10.7365C8.81976 10.7365 10.7396 8.81634 10.7396 6.45403C10.7396 4.09173 8.81976 2.17157 6.45789 2.17157Z" fill="#151924"/>
</svg>
