<svg width="10" height="11" viewBox="0 0 10 11" fill="none" xmlns="http://www.w3.org/2000/svg">
<path d="M4.83552 1.30127C7.08371 1.30127 8.90248 3.12036 8.90248 5.36897C8.90248 7.61757 7.08371 9.43667 4.83552 9.43667C2.58732 9.43667 0.768555 7.61757 0.768555 5.36897C0.768555 3.12036 2.58732 1.30127 4.83552 1.30127Z" fill="#151924"/>
<path d="M4.83549 10.1063C2.22101 10.1063 0.0991211 7.98402 0.0991211 5.36907C0.0991211 2.75412 2.22101 0.631836 4.83549 0.631836C7.44996 0.631836 9.57186 2.75412 9.57186 5.36907C9.57186 7.98402 7.44996 10.1063 4.83549 10.1063ZM4.83549 1.9709C2.9662 1.9709 1.43793 3.49944 1.43793 5.36907C1.43793 7.2387 2.9662 8.76725 4.83549 8.76725C6.70477 8.76725 8.23305 7.2387 8.23305 5.36907C8.23305 3.49944 6.70477 1.9709 4.83549 1.9709Z" fill="#151924"/>
</svg>
