<svg width="6" height="6" viewBox="0 0 6 6" fill="none" xmlns="http://www.w3.org/2000/svg">
<path d="M2.81456 0.787598C3.90077 0.787598 4.78491 1.67188 4.78491 2.75828C4.78491 3.84469 3.90077 4.72897 2.81456 4.72897C1.72836 4.72897 0.844238 3.84469 0.844238 2.75828C0.844238 1.67188 1.72836 0.787598 2.81456 0.787598Z" fill="#151924"/>
<path d="M2.81454 5.39859C1.36205 5.39859 0.174805 4.21113 0.174805 2.75838C0.174805 1.30563 1.36205 0.118164 2.81454 0.118164C4.26702 0.118164 5.45429 1.30563 5.45429 2.75838C5.45429 4.21113 4.27965 5.39859 2.81454 5.39859ZM2.81454 1.45722C2.09461 1.45722 1.51361 2.03832 1.51361 2.75838C1.51361 3.47844 2.09461 4.05954 2.81454 4.05954C3.53446 4.05954 4.11548 3.47844 4.11548 2.75838C4.12811 2.03832 3.53446 1.45722 2.81454 1.45722Z" fill="#151924"/>
</svg>
