<svg width="14" height="14" viewBox="0 0 14 14" fill="none" xmlns="http://www.w3.org/2000/svg">
<path d="M7.06876 12.5936C10.1171 12.5936 12.5882 10.1221 12.5882 7.07319C12.5882 4.02432 10.1171 1.55273 7.06876 1.55273C4.02045 1.55273 1.54932 4.02432 1.54932 7.07319C1.54932 10.1221 4.02045 12.5936 7.06876 12.5936Z" fill="white"/>
<path d="M7.06873 13.2633C3.65854 13.2633 0.879883 10.4841 0.879883 7.07328C0.879883 3.66247 3.65854 0.883301 7.06873 0.883301C10.4789 0.883301 13.2576 3.66247 13.2576 7.07328C13.2576 10.4841 10.4789 13.2633 7.06873 13.2633ZM7.06873 2.22236C4.3911 2.22236 2.21869 4.39516 2.21869 7.07328C2.21869 9.7514 4.3911 11.9242 7.06873 11.9242C9.74635 11.9242 11.9188 9.7514 11.9188 7.07328C11.9188 4.39516 9.74635 2.22236 7.06873 2.22236Z" fill="#151924"/>
</svg>
