<svg width="10" height="10" viewBox="0 0 10 10" fill="none" xmlns="http://www.w3.org/2000/svg">
<path d="M4.83818 8.43107C6.7983 8.43107 8.3873 6.84179 8.3873 4.88131C8.3873 2.92083 6.7983 1.33154 4.83818 1.33154C2.87806 1.33154 1.28906 2.92083 1.28906 4.88131C1.28906 6.84179 2.87806 8.43107 4.83818 8.43107Z" fill="white"/>
<path d="M4.83815 9.088C2.51418 9.088 0.619629 7.19311 0.619629 4.86871C0.619629 2.5443 2.51418 0.649414 4.83815 0.649414C7.16213 0.649414 9.05668 2.5443 9.05668 4.86871C9.05668 7.20574 7.16213 9.088 4.83815 9.088ZM4.83815 2.00108C3.25936 2.00108 1.95844 3.2896 1.95844 4.88131C1.95844 6.46039 3.24673 7.76155 4.83815 7.76155C6.42957 7.76155 7.71786 6.47302 7.71786 4.88131C7.71786 3.2896 6.41694 2.00108 4.83815 2.00108Z" fill="#151924"/>
</svg>
