<svg width="77" height="77" viewBox="0 0 77 77" fill="none" xmlns="http://www.w3.org/2000/svg">
<path d="M59.222 68.8169L55.155 66.1388C50.0018 62.7406 43.0299 65.0397 40.9206 70.8381L39.2534 75.4111C32.5594 74.5395 33.7087 74.6911 27.002 73.8068L26.56 68.9559C26.0042 62.8164 19.8533 58.7992 14.0054 60.7573L9.39538 62.2985C5.89679 56.5127 6.50304 57.5107 3.00444 51.725L6.51567 48.3647C10.9742 44.0948 10.2795 36.7932 5.10107 33.4329L1.02148 30.7927C3.37072 24.4511 2.96655 25.5502 5.30316 19.2086L10.1279 19.8528C16.241 20.674 21.5205 15.583 20.9142 9.44355L20.4343 4.60526C26.8505 2.48298 25.7516 2.84933 32.1678 0.727051L34.6686 4.90845C37.8388 10.2015 45.1139 11.149 49.5345 6.85386L53.0205 3.4557C58.6789 7.15706 57.7063 6.51279 63.3647 10.2141L61.6596 14.7745C59.4998 20.5476 63.2889 26.8387 69.4146 27.6093L74.2394 28.2156C74.8709 34.9488 74.7699 33.7866 75.4014 40.5198L70.7787 42.0231C64.9182 43.9306 62.3669 50.8154 65.575 56.0832L68.1011 60.2394C63.251 64.9261 64.0846 64.1302 59.222 68.8169Z" fill="white"/>
<path d="M39.2536 76.0805C39.2284 76.0805 39.1905 76.0805 39.1652 76.0805L26.9138 74.4762C26.598 74.4383 26.3581 74.1856 26.3328 73.8698L25.8907 69.0189C25.6381 66.2902 24.1857 63.8774 21.8996 62.3867C19.6135 60.8961 16.8096 60.5298 14.2203 61.4014L9.61028 62.9426C9.30715 63.0436 8.99139 62.9173 8.8272 62.652L2.43626 52.0785C2.27206 51.8132 2.32259 51.4595 2.54993 51.2448L6.06116 47.8845C8.03149 45.9896 9.01665 43.3494 8.76405 40.6207C8.51144 37.9047 7.04632 35.4793 4.7476 34.0012L0.668015 31.361C0.402778 31.1842 0.289106 30.8557 0.402779 30.5652L4.68445 18.981C4.79813 18.6905 5.08862 18.501 5.40438 18.5515L10.2292 19.1958C12.9447 19.5621 15.6223 18.6779 17.5926 16.783C19.563 14.8881 20.5355 12.2352 20.2703 9.5192L19.7903 4.68092C19.765 4.36511 19.9545 4.07454 20.245 3.97348L31.9786 0.095274C32.2817 -0.00578703 32.5974 0.120534 32.7616 0.385819L35.2624 4.56721C36.6644 6.91688 39.0263 8.45807 41.7418 8.81178C44.4573 9.16549 47.1349 8.28122 49.0926 6.37369L52.5786 2.97551C52.8059 2.76076 53.147 2.72286 53.4122 2.89972L63.7564 9.65816C64.0217 9.83502 64.1227 10.1635 64.0217 10.454L62.3166 15.0144C61.3567 17.5788 61.6219 20.3833 63.0365 22.7203C64.4511 25.0573 66.813 26.5985 69.5285 26.9396L74.3533 27.546C74.669 27.5839 74.909 27.8365 74.9342 28.1523L76.0962 40.4565C76.1215 40.7723 75.932 41.0629 75.6415 41.1513L71.0189 42.6546C68.417 43.501 66.3835 45.459 65.4362 48.0235C64.489 50.5879 64.7542 53.3923 66.1814 55.7294L68.7075 59.8855C68.8717 60.1508 68.8212 60.5045 68.6065 60.7192L59.7147 69.2968C59.4874 69.5116 59.1464 69.5494 58.8811 69.3726L54.8142 66.6945C52.5281 65.1912 49.7368 64.8122 47.1349 65.6712C44.5331 66.5303 42.5122 68.4883 41.5776 71.0654L39.9104 75.6384C39.7841 75.9037 39.5315 76.0805 39.2536 76.0805ZM27.6211 73.2129L38.7989 74.6783L40.2893 70.6106C41.3755 67.6545 43.6995 65.3933 46.6929 64.408C49.6863 63.4226 52.8944 63.8521 55.5215 65.5828L59.1337 67.9704L67.255 60.1381L65.0068 56.4368C63.3649 53.746 63.0618 50.5121 64.148 47.5687C65.2342 44.6126 67.5834 42.364 70.5768 41.3913L74.6943 40.0523L73.6333 28.8219L69.339 28.2787C66.2193 27.887 63.4912 26.1058 61.8745 23.4151C60.2452 20.7243 59.9547 17.4904 61.0535 14.5344L62.5692 10.4793L53.1217 4.31457L50.0146 7.33376C47.7538 9.53184 44.672 10.5551 41.5523 10.1508C38.4326 9.74659 35.7171 7.9654 34.1005 5.26201L31.8775 1.54802L21.167 5.08516L21.5964 9.39289C21.8996 12.5258 20.7881 15.5702 18.5146 17.7557C16.2538 19.9411 13.1594 20.9517 10.0523 20.5349L5.75803 19.9538L1.84263 30.5399L5.48016 32.8896C8.1199 34.595 9.79973 37.3741 10.1029 40.507C10.3934 43.6399 9.26926 46.6844 6.9958 48.8572L3.86348 51.8511L9.69869 61.5025L13.8035 60.1255C16.7843 59.1275 20.005 59.5444 22.6448 61.2624C25.2845 62.9805 26.9517 65.7723 27.2422 68.9052L27.6211 73.2129Z" fill="#151924"/>
<path d="M51.0188 49.8697C57.5379 42.8043 57.096 31.791 50.032 25.2708C42.9679 18.7506 31.9566 19.1925 25.4376 26.2578C18.9185 33.3232 19.3603 44.3365 26.4244 50.8567C33.4885 57.377 44.4998 56.9351 51.0188 49.8697Z" fill="#151924"/>
<path d="M38.218 56.1463C28.2527 56.1463 20.144 48.0361 20.144 38.069C20.144 28.1018 28.2527 19.9917 38.218 19.9917C48.1833 19.9917 56.292 28.1018 56.292 38.069C56.292 48.0361 48.1833 56.1463 38.218 56.1463ZM38.218 21.3308C28.9853 21.3308 21.4829 28.8345 21.4829 38.069C21.4829 47.3034 28.9853 54.8072 38.218 54.8072C47.4508 54.8072 54.9532 47.3034 54.9532 38.069C54.9532 28.8345 47.4508 21.3308 38.218 21.3308Z" fill="#151924"/>
<path d="M46.5345 45.7719C50.7811 41.1759 50.4986 34.0068 45.9034 29.7594C41.3082 25.512 34.1405 25.7946 29.8938 30.3906C25.6472 34.9866 25.9297 42.1556 30.5249 46.4031C35.1201 50.6505 42.2878 50.3679 46.5345 45.7719Z" fill="white"/>
<path d="M38.2175 50.0699C31.5993 50.0699 26.2188 44.6884 26.2188 38.0689C26.2188 31.4494 31.5993 26.0679 38.2175 26.0679C44.8358 26.0679 50.2163 31.4494 50.2163 38.0689C50.2163 44.6884 44.8358 50.0699 38.2175 50.0699ZM38.2175 27.4069C32.3445 27.4069 27.5576 32.1821 27.5576 38.0689C27.5576 43.943 32.3318 48.7308 38.2175 48.7308C44.0906 48.7308 48.8775 43.9557 48.8775 38.0689C48.8775 32.1947 44.1033 27.4069 38.2175 27.4069Z" fill="#151924"/>
</svg>
