<svg width="13" height="13" viewBox="0 0 13 13" fill="none" xmlns="http://www.w3.org/2000/svg">
<path d="M1.13721 6.73823C1.13721 3.69376 3.61274 1.21777 6.65665 1.21777C9.70055 1.21777 12.1761 3.69376 12.1761 6.73823C12.1761 9.78269 9.70055 12.2587 6.65665 12.2587C3.61274 12.2587 1.13721 9.78269 1.13721 6.73823Z" fill="white"/>
<path d="M6.65666 12.9283C3.24647 12.9283 0.467773 10.1491 0.467773 6.73832C0.467773 3.32751 3.24647 0.54834 6.65666 0.54834C10.0668 0.54834 12.8455 3.32751 12.8455 6.73832C12.8455 10.1491 10.0668 12.9283 6.65666 12.9283ZM6.65666 1.8874C3.97903 1.8874 1.80658 4.0602 1.80658 6.73832C1.80658 9.41644 3.97903 11.5893 6.65666 11.5893C9.33428 11.5893 11.5067 9.41644 11.5067 6.73832C11.5067 4.0602 9.33428 1.8874 6.65666 1.8874Z" fill="#151924"/>
</svg>
