<svg width="48" height="38" viewBox="0 0 48 38" fill="none" xmlns="http://www.w3.org/2000/svg">
<path fill-rule="evenodd" clip-rule="evenodd" d="M30.1631 22.425C30.1191 22.2317 30.0005 22.0637 29.8333 21.9575C29.666 21.8514 29.4636 21.8157 29.2701 21.8584C29.0767 21.901 28.908 22.0184 28.8007 22.1851C28.6935 22.3517 28.6564 22.5541 28.6977 22.748C28.7721 23.089 28.8098 23.4371 28.8102 23.7863C28.8088 23.8857 28.8272 23.9844 28.8642 24.0767C28.9013 24.1689 28.9563 24.2529 29.026 24.3237C29.0958 24.3945 29.1789 24.4508 29.2706 24.4891C29.3622 24.5275 29.4606 24.5473 29.56 24.5473C29.6593 24.5473 29.7577 24.5275 29.8493 24.4891C29.941 24.4508 30.0241 24.3945 30.0939 24.3237C30.1636 24.2529 30.2186 24.1689 30.2557 24.0767C30.2927 23.9844 30.3111 23.8857 30.3097 23.7863C30.3096 23.3286 30.2605 22.8722 30.1631 22.425ZM24 18.9725C24.4691 18.9724 24.9357 19.0409 25.3851 19.1756C25.5752 19.2315 25.7797 19.2099 25.9539 19.1154C26.1281 19.0209 26.2579 18.8612 26.3149 18.6713C26.3718 18.4813 26.3514 18.2765 26.258 18.1016C26.1646 17.9267 26.0058 17.7959 25.8163 17.7378C24.8741 17.4551 23.8789 17.3967 22.9101 17.5672C21.9413 17.7378 21.0258 18.1326 20.2365 18.7201C19.4472 19.3076 18.806 20.0716 18.3641 20.9512C17.9222 21.8307 17.6917 22.8015 17.6912 23.786C17.6898 23.8854 17.7082 23.9842 17.7452 24.0765C17.7823 24.1688 17.8373 24.2528 17.9071 24.3236C17.9769 24.3945 18.06 24.4507 18.1517 24.4891C18.2434 24.5275 18.3418 24.5473 18.4412 24.5473C18.5406 24.5473 18.639 24.5275 18.7307 24.4891C18.8224 24.4507 18.9056 24.3945 18.9754 24.3236C19.0451 24.2528 19.1002 24.1688 19.1372 24.0765C19.1743 23.9842 19.1927 23.8854 19.1913 23.786C19.1927 22.5099 19.6998 21.2865 20.6013 20.3841C21.5028 19.4818 22.725 18.9741 24 18.9725ZM24 26.161C24.1371 26.1611 24.2711 26.1204 24.3852 26.0443C24.4992 25.9681 24.5881 25.8598 24.6406 25.733C24.6931 25.6063 24.7068 25.4668 24.6801 25.3322C24.6534 25.1976 24.5874 25.074 24.4904 24.977C24.3935 24.8799 24.27 24.8139 24.1355 24.7871C24.0011 24.7604 23.8617 24.7742 23.7351 24.8267C23.6084 24.8793 23.5002 24.9682 23.4241 25.0824C23.348 25.1965 23.3074 25.3306 23.3075 25.4678C23.3075 25.6517 23.3805 25.8279 23.5103 25.9579C23.6402 26.0879 23.8163 26.1609 24 26.161ZM29.1316 19.3237C29.2418 19.1597 29.2829 18.9587 29.246 18.7645C29.2091 18.5703 29.0971 18.3985 28.9344 18.2864C28.7717 18.1743 28.5713 18.1309 28.3769 18.1658C28.1825 18.2006 28.0096 18.3108 27.8958 18.4724L24.5504 23.3423C24.0504 23.2118 23.5203 23.2618 23.0534 23.4836C22.5865 23.7054 22.2126 24.0848 21.9975 24.5551C21.7823 25.0255 21.7397 25.5566 21.8771 26.0553C22.0145 26.554 22.323 26.9882 22.7486 27.2818C23.1741 27.5753 23.6894 27.7094 24.204 27.6603C24.7185 27.6113 25.1992 27.3824 25.5618 27.0137C25.9244 26.6451 26.1456 26.1604 26.1865 25.6447C26.2274 25.1291 26.0854 24.6155 25.7854 24.1942L29.1316 19.3237ZM24 32.7753C25.7763 32.7753 27.5127 32.2481 28.9897 31.2604C30.4666 30.2727 31.6178 28.8688 32.2975 27.2263C32.9773 25.5838 33.1551 23.7764 32.8086 22.0327C32.4621 20.2891 31.6067 18.6874 30.3506 17.4303C29.0946 16.1732 27.4943 15.317 25.7521 14.9702C24.01 14.6234 22.2041 14.8014 20.5631 15.4817C18.922 16.1621 17.5193 17.3142 16.5324 18.7924C15.5456 20.2706 15.0188 22.0086 15.0188 23.7864C15.0216 26.1695 15.9687 28.4542 17.6524 30.1393C19.3362 31.8244 21.6189 32.7722 24 32.7749V32.7753ZM24 13.2968C21.9271 13.2969 19.9007 13.9122 18.1771 15.0649C16.4536 16.2176 15.1102 17.856 14.317 19.7728C13.5238 21.6896 13.3163 23.7988 13.7208 25.8337C14.1252 27.8685 15.1235 29.7377 16.5894 31.2047C18.0552 32.6717 19.9228 33.6707 21.9559 34.0754C23.9891 34.4801 26.0964 34.2722 28.0116 33.4782C29.9267 32.6842 31.5636 31.3396 32.7152 29.6144C33.8668 27.8893 34.4814 25.8611 34.4813 23.7864C34.4782 21.0052 33.373 18.3387 31.408 16.3721C29.443 14.4055 26.7788 13.2994 24 13.2964V13.2968ZM31.5961 4.80931V6.2646H42.109V4.80931H31.5961ZM30.846 7.76571H42.8588C42.9573 7.76574 43.0549 7.74635 43.1459 7.70863C43.2369 7.67091 43.3196 7.61561 43.3893 7.54589C43.4589 7.47616 43.5142 7.39338 43.5518 7.30227C43.5895 7.21117 43.6089 7.11353 43.6088 7.01493V4.05854C43.6087 3.85948 43.5296 3.66861 43.389 3.52784C43.2484 3.38707 43.0577 3.30792 42.8588 3.30776H30.8457C30.6468 3.30788 30.456 3.38702 30.3154 3.52779C30.1747 3.66856 30.0957 3.85945 30.0956 4.05854V7.01493C30.0955 7.11357 30.1148 7.21126 30.1525 7.30242C30.1901 7.39358 30.2454 7.47641 30.315 7.54618C30.3847 7.61595 30.4674 7.67129 30.5585 7.70904C30.6495 7.74678 30.7471 7.76619 30.8457 7.76615L30.846 7.76571ZM18.5785 4.80931V6.2646H20.0318V4.80931H18.5785ZM17.8291 7.76571H20.7819C20.8805 7.76574 20.978 7.74635 21.069 7.70863C21.1601 7.67092 21.2428 7.61562 21.3124 7.5459C21.3821 7.47617 21.4374 7.39339 21.475 7.30228C21.5127 7.21118 21.5321 7.11353 21.5321 7.01493V4.05854C21.5319 3.85945 21.4529 3.66856 21.3122 3.52779C21.1716 3.38702 20.9808 3.30788 20.7819 3.30776H17.8288C17.6299 3.30788 17.4392 3.38702 17.2985 3.52779C17.1579 3.66856 17.0788 3.85945 17.0787 4.05854V7.01493C17.0786 7.11357 17.0979 7.21126 17.1356 7.30242C17.1732 7.39358 17.2285 7.47641 17.2982 7.54618C17.3678 7.61595 17.4506 7.67129 17.5416 7.70904C17.6327 7.74678 17.7303 7.76619 17.8288 7.76615L17.8291 7.76571ZM12.2348 4.80931V6.2646H13.6889V4.80931H12.2348ZM11.4847 7.76571H14.4385C14.5371 7.76574 14.6346 7.74635 14.7256 7.70863C14.8167 7.67091 14.8994 7.61561 14.969 7.54589C15.0387 7.47616 15.0939 7.39338 15.1316 7.30227C15.1692 7.21117 15.1886 7.11353 15.1885 7.01493V4.05854C15.1884 3.85948 15.1094 3.66861 14.9687 3.52784C14.8281 3.38707 14.6374 3.30792 14.4385 3.30776H11.4847C11.2859 3.30811 11.0953 3.38733 10.9547 3.52805C10.8141 3.66877 10.7349 3.85953 10.7346 4.05854V7.01493C10.7346 7.21404 10.8135 7.405 10.9541 7.54586C11.0947 7.68672 11.2855 7.76595 11.4844 7.76615L11.4847 7.76571ZM5.89174 4.80931V6.2646H7.34577V4.80931H5.89174ZM5.14161 7.76571H8.09546C8.19397 7.76574 8.29152 7.74635 8.38254 7.70863C8.47356 7.67091 8.55626 7.61561 8.62591 7.54589C8.69557 7.47616 8.7508 7.39338 8.78847 7.30227C8.82614 7.21117 8.8455 7.11353 8.84544 7.01493V4.05854C8.84536 3.85947 8.76633 3.66857 8.6257 3.5278C8.48507 3.38702 8.29436 3.30788 8.09546 3.30776H5.14161C4.94272 3.30788 4.752 3.38702 4.61137 3.5278C4.47075 3.66857 4.39171 3.85947 4.39163 4.05854V7.01493C4.39151 7.11354 4.41082 7.21121 4.44844 7.30234C4.48607 7.39348 4.54127 7.4763 4.6109 7.54607C4.68052 7.61584 4.76321 7.67119 4.85422 7.70895C4.94523 7.74671 5.04279 7.76615 5.14132 7.76615L5.14161 7.76571ZM43.9605 36.4984C44.6337 36.4977 45.2791 36.2298 45.7552 35.7534C46.2313 35.277 46.4992 34.6311 46.5 33.9573V11.0748H1.49996V33.9573C1.50086 34.6312 1.76883 35.2772 2.24508 35.7536C2.72132 36.23 3.36694 36.4979 4.04027 36.4984H43.9605ZM4.03968 1.50155C3.36635 1.5021 2.72073 1.76996 2.24449 2.24637C1.76824 2.72277 1.50027 3.36881 1.49937 4.04272V9.57265H46.5V4.04272C46.4992 3.36892 46.2313 2.72298 45.7552 2.24658C45.2791 1.77019 44.6337 1.50226 43.9605 1.50155H4.03968ZM43.9609 0H4.03968C2.96874 0.00121262 1.942 0.427517 1.18469 1.1854C0.427378 1.94328 0.00132905 2.97086 0 4.04272V33.9573C0.00132912 35.0292 0.427398 36.0568 1.18474 36.8147C1.94209 37.5725 2.96886 37.9988 4.03983 38H43.9611C45.0319 37.9986 46.0584 37.5722 46.8155 36.8143C47.5727 36.0564 47.9986 35.029 48 33.9573V4.04272C47.9986 2.97089 47.5726 1.94336 46.8153 1.18549C46.058 0.427624 45.0314 0.00129077 43.9605 0H43.9609Z" fill="white"/>
</svg>
