<svg width="44" height="40" viewBox="0 0 44 40" fill="none" xmlns="http://www.w3.org/2000/svg">
<path fill-rule="evenodd" clip-rule="evenodd" d="M35.6877 40H5.18533C2.32549 40 0 37.667 0 34.8072V5.19285C0 2.33302 2.32549 0 5.18533 0H35.6877C38.5475 0 40.8805 2.33302 40.8805 5.19285V12.4179C41.2426 12.5728 41.5749 12.7981 41.8607 13.0876L42.3574 13.5843C42.9444 14.1713 43.2756 14.9615 43.2756 15.7894C43.2756 16.6248 42.952 17.4074 42.3574 17.9945L40.8805 19.4738V34.8072C40.8805 37.667 38.5475 40 35.6877 40ZM39.3754 10.6861V12.1821C38.651 12.2479 37.9709 12.5672 37.4505 13.0876L35.648 14.8901C34.9538 13.7664 33.7172 13.05 32.3312 13.05H7.85703C5.6971 13.05 3.94358 14.8035 3.94358 16.9635V31.225C3.94358 31.5049 3.96951 31.7773 4.02398 32.0346C3.86008 32.3683 3.97492 32.7786 4.29277 32.9859C4.32357 33.006 4.35531 33.0235 4.38776 33.0385C5.05278 34.3175 6.3695 35.1385 7.85703 35.1385H32.3312C34.4911 35.1385 36.2446 33.3849 36.2446 31.225V24.1174L39.3754 20.9815V34.8072C39.3754 36.8391 37.7197 38.4948 35.6877 38.4948H5.18533C3.15334 38.4948 1.50517 36.8391 1.50517 34.8072V10.6868H39.3425C39.3535 10.6868 39.3645 10.6866 39.3754 10.6861ZM32.3236 14.5627C33.2997 14.5627 34.1602 15.1407 34.5303 16.0078L28.412 22.1262C28.192 22.3461 28.1369 22.6675 28.2466 22.9383C27.5732 23.2977 26.7734 23.9195 26.309 24.9634C26.1961 25.2042 26.1133 25.4676 26.0531 25.7386C25.9553 26.1675 25.6467 26.5288 25.1952 26.7245L25.1952 26.7245C25.0973 26.7696 24.9995 26.8148 24.9017 26.875C23.5846 27.6426 23.4567 29.1403 23.4492 29.3058C23.4341 29.5692 23.5545 29.8176 23.7728 29.9681C24.7813 30.668 25.9553 31.0217 27.1293 31.0217C27.9948 31.0217 28.8603 30.8336 29.6655 30.4347C31.3374 29.6218 32.1515 28.2398 32.5407 27.2126C32.6223 27.2425 32.7094 27.2588 32.7996 27.2588C32.9952 27.2588 33.1909 27.1835 33.3264 27.0406L34.7394 25.6251V31.2325C34.7394 32.5571 33.6557 33.6408 32.3312 33.6408H25.5298L19.5402 25.2945C19.4047 25.0988 19.1865 24.9859 18.9532 24.9784C18.7123 24.9558 18.4941 25.0762 18.3436 25.2568L15.8074 28.3801L11.7058 22.1336C11.5628 21.9229 11.3295 21.7949 11.0736 21.7949C10.8177 21.8024 10.5769 21.9304 10.4414 22.1411L5.44875 29.8307V16.971C5.44875 15.6464 6.53248 14.5627 7.85703 14.5627H32.3236ZM32.6608 25.2945C32.6873 25.321 32.7114 25.3491 32.7332 25.3787L32.7996 25.4451L33.8956 24.349L31.111 21.5645L30.0185 22.657C30.0369 22.6723 30.0548 22.6885 30.0719 22.7056L32.6608 25.2945ZM34.955 23.2861C34.9714 23.2694 34.9885 23.2534 35.0064 23.2382L39.5531 18.6915C39.5807 18.6589 39.6109 18.6286 39.6435 18.6011L41.3038 16.9408C41.6124 16.6323 41.7779 16.2259 41.7779 15.7969C41.7779 15.3679 41.6124 14.9615 41.3038 14.653L40.8071 14.1563C40.1975 13.5467 39.1288 13.5467 38.5192 14.1563L32.1722 20.5033L34.955 23.2861ZM39.3425 9.18164L39.3536 9.18172C39.3609 9.18183 39.3681 9.18204 39.3754 9.18236V5.19285C39.3754 3.16087 37.7197 1.50517 35.6877 1.50517H5.18533C3.15334 1.50517 1.50517 3.16087 1.50517 5.19285V9.18164H39.3425ZM7.85703 33.6408H23.6736L18.8779 26.9652L16.3191 30.1261C16.1686 30.3142 15.9353 30.4196 15.6945 30.4045C15.4536 30.3895 15.2354 30.2691 15.0999 30.0659L11.0661 23.9247L5.66974 32.2458C6.05997 33.0979 6.89884 33.6408 7.85703 33.6408ZM14.1693 19.9736C14.1693 21.6745 15.554 23.0667 17.2624 23.0667C18.9708 23.0667 20.3555 21.6745 20.3555 19.9736C20.3555 18.2728 18.9633 16.8805 17.2624 16.8805C15.5616 16.8805 14.1693 18.2728 14.1693 19.9736ZM15.6744 19.9736C15.6744 19.1006 16.3819 18.3857 17.2624 18.3857C18.1429 18.3857 18.8504 19.1006 18.8504 19.9736C18.8504 20.8466 18.1354 21.5616 17.2624 21.5616C16.3894 21.5616 15.6744 20.8466 15.6744 19.9736ZM25.0447 28.9897C26.2714 29.652 27.7465 29.7047 28.9957 29.0951C30.5988 28.3124 31.1406 26.7771 31.3062 26.0848L29.3194 24.0979C28.8377 24.2861 28.0625 24.7075 27.6787 25.5805C27.611 25.7386 27.5583 25.9041 27.5207 26.0697C27.325 26.9728 26.6928 27.7179 25.7972 28.1092L25.6618 28.1769C25.3081 28.3877 25.135 28.7188 25.0447 28.9897ZM5.74392 5.17042C5.74392 6.52508 6.8427 7.62386 8.19736 7.62386C9.55201 7.62386 10.6508 6.52508 10.6508 5.17042C10.6508 3.81576 9.55201 2.71699 8.19736 2.71699C6.8427 2.71699 5.74392 3.81576 5.74392 5.17042ZM7.2491 5.17042C7.2491 4.65114 7.67055 4.22216 8.19736 4.22216C8.72417 4.22216 9.14562 4.65114 9.14562 5.17042C9.14562 5.68971 8.71664 6.11868 8.19736 6.11868C7.67807 6.11868 7.2491 5.68971 7.2491 5.17042ZM14.2156 7.62386C12.8609 7.62386 11.7622 6.52508 11.7622 5.17042C11.7622 3.81576 12.8609 2.71699 14.2156 2.71699C15.5702 2.71699 16.669 3.81576 16.669 5.17042C16.669 6.52508 15.5702 7.62386 14.2156 7.62386ZM14.2156 4.22216C13.6888 4.22216 13.2673 4.65114 13.2673 5.17042C13.2673 5.68971 13.6963 6.11868 14.2156 6.11868C14.7349 6.11868 15.1638 5.68971 15.1638 5.17042C15.1638 4.65114 14.7424 4.22216 14.2156 4.22216ZM17.7882 5.17023C17.7882 6.52489 18.887 7.62366 20.2416 7.62366C21.5963 7.62366 22.6951 6.52489 22.6951 5.17023C22.6951 3.81557 21.5963 2.7168 20.2416 2.7168C18.887 2.7168 17.7882 3.81557 17.7882 5.17023ZM19.2934 5.17023C19.2934 4.65095 19.7148 4.22197 20.2416 4.22197C20.7684 4.22197 21.1899 4.65095 21.1899 5.17023C21.1899 5.68952 20.7684 6.11849 20.2416 6.11849C19.7223 6.11849 19.2934 5.68952 19.2934 5.17023ZM26.2599 7.62366C24.9052 7.62366 23.8064 6.52489 23.8064 5.17023C23.8064 3.81557 24.9052 2.7168 26.2599 2.7168C27.6145 2.7168 28.7133 3.81557 28.7133 5.17023C28.7133 6.52489 27.6145 7.62366 26.2599 7.62366ZM26.2599 4.22197C25.733 4.22197 25.3116 4.65095 25.3116 5.17023C25.3116 5.68952 25.7406 6.11849 26.2599 6.11849C26.7791 6.11849 27.2081 5.68952 27.2081 5.17023C27.2081 4.65095 26.7867 4.22197 26.2599 4.22197ZM29.8247 5.17023C29.8247 6.52489 30.9234 7.62366 32.2781 7.62366C33.6327 7.62366 34.7315 6.52489 34.7315 5.17023C34.7315 3.81557 33.6327 2.7168 32.2781 2.7168C30.9234 2.7168 29.8247 3.81557 29.8247 5.17023ZM31.3298 5.17023C31.3298 4.65095 31.7513 4.22197 32.2781 4.22197C32.8049 4.22197 33.2263 4.65095 33.2263 5.17023C33.2263 5.68952 32.7974 6.11849 32.2781 6.11849C31.7588 6.11849 31.3298 5.68952 31.3298 5.17023Z" fill="white"/>
</svg>
