<svg width="43" height="43" viewBox="0 0 43 43" fill="none" xmlns="http://www.w3.org/2000/svg">
<path d="M7.30277 42.4946H35.686C38.2602 42.4946 40.3543 40.4003 40.3543 37.8261V5.17397C40.3543 2.59977 38.2602 0.505615 35.686 0.505615H7.30277C4.73192 0.505615 2.64062 2.59977 2.64062 5.17397V37.8261C2.64062 40.4002 4.73184 42.4946 7.30277 42.4946ZM3.91299 5.17397C3.91299 3.30146 5.43344 1.77806 7.30268 1.77806H35.6859C37.5584 1.77806 39.0818 3.30146 39.0818 5.17397V37.8261C39.0818 39.6986 37.5584 41.2222 35.6859 41.2222H7.30277C5.43353 41.2222 3.91307 39.6987 3.91307 37.8261L3.91299 5.17397Z" fill="white"/>
<path d="M27.362 38.4424H15.6284C15.2771 38.4424 14.9922 38.7272 14.9922 39.0786C14.9922 39.43 15.2771 39.7147 15.6284 39.7147H27.362C27.7132 39.7147 27.9982 39.43 27.9982 39.0786C27.9982 38.7272 27.7132 38.4424 27.362 38.4424Z" fill="white"/>
<path d="M8.68924 15.0178H34.3007C35.4646 15.0178 36.4114 14.0708 36.4114 12.9069V6.64888C36.4114 5.43404 35.4231 4.4458 34.2083 4.4458H8.77457C7.56351 4.4458 6.57812 5.43094 6.57812 6.64208V12.9069C6.57812 14.0707 7.52496 15.0178 8.68924 15.0178ZM7.85049 6.64208C7.85049 6.13263 8.26512 5.71825 8.77457 5.71825H34.2083C34.7215 5.71825 35.139 6.13573 35.139 6.64896V12.907C35.139 13.3694 34.7629 13.7455 34.3007 13.7455H8.68924C8.22657 13.7455 7.85049 13.3694 7.85049 12.907V6.64208Z" fill="white"/>
<path d="M8.44905 25.4331H12.9016C13.9333 25.4331 14.7725 24.5937 14.7725 23.5622V19.1163C14.7725 18.0847 13.9333 17.2454 12.9016 17.2454H8.44905C7.4173 17.2454 6.57812 18.0847 6.57812 19.1163V23.5622C6.57821 24.5937 7.4173 25.4331 8.44905 25.4331ZM7.85057 19.1163C7.85057 18.7861 8.11899 18.5178 8.44905 18.5178H12.9016C13.2317 18.5178 13.5 18.7862 13.5 19.1163V23.5622C13.5 23.8923 13.2316 24.1606 12.9016 24.1606H8.44905C8.1189 24.1606 7.85057 23.8922 7.85057 23.5622V19.1163Z" fill="white"/>
<path d="M19.2694 25.4331H23.7219C24.7536 25.4331 25.5928 24.5937 25.5928 23.5622V19.1163C25.5928 18.0847 24.7536 17.2454 23.7219 17.2454H19.2694C18.2376 17.2454 17.3984 18.0847 17.3984 19.1163V23.5622C17.3984 24.5937 18.2376 25.4331 19.2694 25.4331ZM18.6708 19.1163C18.6708 18.7861 18.9392 18.5178 19.2693 18.5178H23.7218C24.0519 18.5178 24.3203 18.7862 24.3203 19.1163V23.5622C24.3203 23.8923 24.0518 24.1606 23.7218 24.1606H19.2693C18.9391 24.1606 18.6708 23.8922 18.6708 23.5622V19.1163Z" fill="white"/>
<path d="M34.5422 17.2454H30.0897C29.0579 17.2454 28.2188 18.0847 28.2188 19.1163V33.9774C28.2188 35.009 29.0579 35.8481 30.0897 35.8481H34.5422C35.5739 35.8481 36.4131 35.0089 36.4131 33.9774V19.1162C36.413 18.0847 35.5739 17.2454 34.5422 17.2454ZM35.1407 33.9774C35.1407 34.3073 34.8722 34.5757 34.5422 34.5757H30.0897C29.7595 34.5757 29.4912 34.3073 29.4912 33.9774V19.1162C29.4912 18.7861 29.7596 18.5177 30.0897 18.5177H34.5422C34.8723 18.5177 35.1407 18.7861 35.1407 19.1162V33.9774Z" fill="white"/>
<path d="M8.44905 35.8481H12.9016C13.9333 35.8481 14.7725 35.0089 14.7725 33.9775V29.5313C14.7725 28.4997 13.9333 27.6604 12.9016 27.6604H8.44905C7.4173 27.6604 6.57812 28.4997 6.57812 29.5313V33.9775C6.57821 35.0089 7.4173 35.8481 8.44905 35.8481ZM7.85057 29.5313C7.85057 29.2012 8.11899 28.9328 8.44905 28.9328H12.9016C13.2317 28.9328 13.5 29.2013 13.5 29.5313V33.9775C13.5 34.3073 13.2316 34.5758 12.9016 34.5758H8.44905C8.1189 34.5758 7.85057 34.3073 7.85057 33.9775V29.5313Z" fill="white"/>
<path d="M17.3984 33.9775C17.3984 35.009 18.2376 35.8481 19.2694 35.8481H23.7219C24.7536 35.8481 25.5928 35.0089 25.5928 33.9775V29.5313C25.5928 28.4997 24.7536 27.6604 23.7219 27.6604H19.2694C18.2376 27.6604 17.3984 28.4997 17.3984 29.5313V33.9775ZM18.6708 29.5313C18.6708 29.2012 18.9392 28.9328 19.2693 28.9328H23.7218C24.0519 28.9328 24.3203 29.2013 24.3203 29.5313V33.9775C24.3203 34.3073 24.0518 34.5758 23.7218 34.5758H19.2693C18.9391 34.5758 18.6708 34.3073 18.6708 33.9775V29.5313Z" fill="white"/>
<path d="M25.7188 12.0694L28.7838 9.00424C29.0324 8.75573 29.0324 8.35294 28.7838 8.1046C28.5353 7.85609 28.1327 7.85609 27.8842 8.1046L24.8192 11.1698C24.5707 11.4183 24.5707 11.8211 24.8192 12.0694C25.0677 12.3179 25.4703 12.3179 25.7188 12.0694Z" fill="white"/>
<path d="M15.9766 12.0694L19.0421 9.00424C19.2906 8.75589 19.2906 8.3531 19.0421 8.1046C18.7936 7.85609 18.3909 7.85609 18.1424 8.1046L15.077 11.1698C14.8285 11.4181 14.8285 11.8209 15.077 12.0694C15.3256 12.3179 15.7281 12.3179 15.9766 12.0694Z" fill="white"/>
</svg>
