<svg width="43" height="47" viewBox="0 0 43 47" fill="none" xmlns="http://www.w3.org/2000/svg">
<path d="M6.35422 31.008H11.0297C11.3195 32.137 12.2709 32.9728 13.4091 32.9728H18.0853L16.2468 37.9784H14.3346C13.9723 37.9784 13.6785 38.2951 13.6785 38.6857C13.6785 39.0763 13.9723 39.393 14.3346 39.393H15.7271L13.7246 44.8452C13.591 45.2086 13.756 45.6195 14.093 45.7632C14.4304 45.9069 14.8116 45.7287 14.9446 45.366L17.1385 39.393H25.8614L28.0554 45.366C28.1875 45.726 28.5672 45.9085 28.9069 45.7632C29.2439 45.6195 29.4089 45.2086 29.2753 44.8452L27.2728 39.393H28.6653C29.0276 39.393 29.3214 39.0763 29.3214 38.6857C29.3214 38.2951 29.0276 37.9784 28.6653 37.9784H26.7532L24.9147 32.9728H29.5909C30.729 32.9728 31.6805 32.137 31.9703 31.008H36.6458C38.9434 31.008 40.8125 28.9931 40.8125 26.5164V5.03547C40.8125 2.55845 38.9435 0.543457 36.6458 0.543457H6.35422C4.05657 0.543457 2.1875 2.55836 2.1875 5.03547V26.5164C2.1875 28.9931 4.05657 31.008 6.35422 31.008ZM25.3418 37.9785H17.6581L19.4967 32.9729H23.5032L25.3418 37.9785ZM29.5908 31.5582C26.4208 31.5582 16.5754 31.5582 13.4091 31.5582C12.7658 31.5582 12.2426 30.9943 12.2426 30.3007C12.2426 29.6072 12.7658 29.0432 13.4091 29.0432H29.5908C30.2342 29.0432 30.7573 29.6072 30.7573 30.3007C30.7573 30.9943 30.2342 31.5582 29.5908 31.5582ZM3.49976 5.03547C3.49976 3.33864 4.78027 1.95816 6.35422 1.95816H36.6457C38.2197 1.95816 39.5002 3.33864 39.5002 5.03547V26.5164C39.5002 28.2128 38.2197 29.5933 36.6457 29.5933H31.9702C31.6805 28.4644 30.729 27.6285 29.5908 27.6285H13.4091C12.271 27.6285 11.3195 28.4644 11.0297 29.5933H6.35422C4.78027 29.5933 3.49976 28.2128 3.49976 26.5164V5.03547Z" fill="white"/>
<path d="M9.6014 8.47223H33.3926C33.7549 8.47223 34.0487 8.15552 34.0487 7.76492C34.0487 7.37433 33.7549 7.05762 33.3926 7.05762H9.6014C9.23909 7.05762 8.94531 7.37433 8.94531 7.76492C8.94531 8.15552 9.23909 8.47223 9.6014 8.47223Z" fill="white"/>
<path d="M9.6014 13.098H33.3926C33.7549 13.098 34.0487 12.7813 34.0487 12.3907C34.0487 12.0001 33.7549 11.6833 33.3926 11.6833H9.6014C9.23909 11.6833 8.94531 12.0001 8.94531 12.3907C8.94531 12.7813 9.23909 13.098 9.6014 13.098Z" fill="white"/>
<path d="M9.6014 17.7237H33.3926C33.7549 17.7237 34.0487 17.407 34.0487 17.0164C34.0487 16.6258 33.7549 16.3091 33.3926 16.3091H9.6014C9.23909 16.3091 8.94531 16.6258 8.94531 17.0164C8.94531 17.407 9.23909 17.7237 9.6014 17.7237Z" fill="white"/>
<path d="M9.6014 22.3489H26.0395C26.4018 22.3489 26.6956 22.0322 26.6956 21.6416C26.6956 21.251 26.4018 20.9343 26.0395 20.9343H9.6014C9.23909 20.9343 8.94531 21.251 8.94531 21.6416C8.94531 22.0322 9.23909 22.3489 9.6014 22.3489Z" fill="white"/>
</svg>
