<svg width="91" height="66" viewBox="0 0 91 66" fill="none" xmlns="http://www.w3.org/2000/svg">
<g id="Group">
<path id="Vector" d="M11.1559 1.508C16.5919 -1.20171 23.6736 -0.121178 28.0292 4.0847C30.9715 6.92744 32.6174 10.8507 35.377 13.8596C40.5469 19.495 49.6735 20.9912 56.3729 17.3174C64.3057 12.9527 69.1504 1.48605 78.8817 1.10912C84.3177 0.892944 89.5542 5.31499 90.2524 10.701C90.9507 16.1036 87.0274 21.706 81.7077 22.8862C73.8784 24.6689 71.8509 28.3605 79.4301 36.2517C83.307 40.2474 85.9065 44.7117 81.8074 50.0995C78.0634 54.9382 69.8367 56.7325 62.8063 52.4269C51.166 45.2679 61.0381 45.9611 51.6848 59.2426C42.8682 71.883 32.9961 62.9819 26.8155 62.2847C21.0305 61.6031 15.3284 65.2272 9.57654 64.2797C0.669067 62.8073 -2.8195 51.6842 3.69181 45.3948C7.86438 41.3553 14.5305 41.1225 19.1687 37.6647C22.9363 34.849 22.361 31.2915 18.7198 29.9845C-4.42889 21.6737 2.38645 5.91962 11.1559 1.508Z" fill="#E9F3FF"/>
<path id="Vector 9" d="M71.3155 52.0754L71.5643 31.5999L68.8639 28.8725L66.062 27.4278C63.4791 27.2527 58.2431 26.9024 57.9629 26.9024C57.6127 26.9024 48.8131 26.9462 48.4629 26.9024C48.1827 26.8674 47.0619 25.7788 46.5366 25.2388C45.4421 23.6336 43.1568 20.283 42.7716 19.7227C42.29 19.0222 40.6264 17.884 39.7071 17.2273C38.7877 16.5707 35.4605 16.9646 35.1103 16.9646C34.76 16.9646 21.7577 17.2711 21.101 17.5776C20.4443 17.884 17.9489 21.255 17.8613 21.5176C17.7913 21.7278 18.0073 40.7512 18.124 50.2367C18.4159 51.5646 19.0346 54.3081 19.1747 54.6584C19.3498 55.0961 22.677 56.8473 23.1586 57.1538C23.5438 57.3989 43.4575 57.2559 53.3661 57.1538L68.0758 56.2782L71.3155 52.0754Z" fill="#BAD9FF"/>
<path id="Vector 10" d="M58.4 15.1742V26.8343L52.5139 27.2267L49.2064 26.8343L46.9641 25.2646L44.946 22.8541C43.8435 21.3966 41.5937 18.4479 41.4143 18.3134C41.2349 18.1789 39.6952 17.3978 38.9477 17.024H25.8301L26.6149 13.5484L28.7451 11.1379H53.8032C54.0275 11.1379 55.5784 11.9601 56.3259 12.3712L58.4 15.1742Z" fill="#367DCB"/>
<path id="Vector_2" d="M37.584 2.70493C36.2104 3.07264 34.772 4.06764 34.1231 5.1059L33.8527 5.5385L28.6074 5.58176C22.7347 5.63584 22.7996 5.63584 21.1449 6.44698C19.8471 7.07426 18.5709 8.36126 17.922 9.6699C17.0892 11.3787 17.1433 9.70235 17.1433 31.7437C17.1433 50.8973 17.1541 51.5138 17.3488 52.3033C17.9112 54.4988 19.3712 56.2616 21.4153 57.2134C22.7888 57.8515 31.339 57.9055 31.339 57.9055L31.3822 56.2833C31.3822 56.2833 23.8163 56.2508 23.2214 56.1102C21.1233 55.6235 19.4794 54.0337 18.9278 51.9464C18.679 51.0379 18.6899 22.7671 18.9278 21.837C19.4469 19.8794 21.08 18.2463 23.0376 17.7272C23.5783 17.5866 24.7788 17.565 30.9975 17.565C38.0058 17.565 38.3518 17.5758 39.0007 17.7813C39.8119 18.03 40.5906 18.4626 41.2395 19.025C41.5315 19.2846 42.4508 20.55 43.6945 22.4318C45.8035 25.6223 46.1928 26.0765 47.5447 26.8876C47.9233 27.1148 48.6262 27.4392 49.1021 27.6014L49.9673 27.8935L58.0787 27.9475C65.6061 28.0016 66.2333 28.0124 66.7308 28.2071C68.6451 28.9101 70.0295 30.3918 70.5053 32.2412C70.6676 32.8468 70.6784 33.9716 70.6567 42.3533L70.6243 51.795L70.3864 52.4439C69.8781 53.7633 68.8614 54.9422 67.6393 55.5803C66.2333 56.3157 67.1526 56.2833 50.4432 56.2833H30.9153V57.9055H50.4756C67.2175 57.9055 66.4713 57.938 68.0287 57.2134C69.6185 56.4671 70.7649 55.3423 71.5436 53.7525C72.3655 52.1086 72.3115 53.6768 72.279 31.4084L72.2466 11.4544L71.9978 10.7514C71.1867 8.49104 69.2832 6.58757 67.25 5.98192C66.8931 5.88459 66.7308 5.75481 66.5253 5.40872C65.8656 4.28394 64.7733 3.37547 63.4755 2.87797L62.7292 2.58596L50.454 2.56433C39.9741 2.5427 38.0923 2.56433 37.584 2.70493ZM63.2375 4.55432C64.1568 4.98693 64.8706 5.70073 65.3032 6.62002C65.6385 7.32301 65.6493 7.39871 65.7034 9.13995C65.7467 10.719 65.7791 10.9785 65.963 11.1732C66.2333 11.476 66.7525 11.4652 67.0769 11.1624C67.3149 10.9353 67.3257 10.8596 67.3257 9.32381V7.71235L67.7799 7.9611C68.5045 8.36126 69.6401 9.54011 70.0187 10.2864C70.7 11.6383 70.6784 11.3787 70.6784 20.5932V28.975L69.9538 28.2936C69.4563 27.8286 68.9371 27.4717 68.2882 27.158L67.3365 26.7038V20.0741C67.3257 13.6066 67.3257 13.4552 67.1094 13.2389C66.7849 12.9144 66.2117 12.9469 65.9305 13.3038C65.7034 13.585 65.7034 13.6823 65.7034 19.9551V26.3253H62.5237H59.3333L59.3008 20.6689C59.2576 15.1856 59.2576 15.0018 59.0196 14.3096C58.5438 12.8712 57.3649 11.5085 56.0455 10.8596C54.7152 10.2107 54.7909 10.2107 44.311 10.2107H34.7504L34.7936 8.71816C34.8261 7.35545 34.8477 7.18241 35.1289 6.63083C35.7021 5.4628 36.7945 4.55432 37.9733 4.27313C38.2221 4.21905 43.4025 4.17579 50.454 4.18661L62.5129 4.20824L63.2375 4.55432ZM33.1606 7.22567C33.1822 7.2473 33.193 7.92865 33.1714 8.73979L33.1389 10.2107H31.7546C29.3969 10.2107 28.1639 10.6541 26.8121 11.9952C25.9036 12.8928 25.4277 13.7797 25.179 15.045L25.0059 15.9103L23.9677 15.9643C22.2372 16.0508 20.7988 16.6781 19.4469 17.9327L18.7656 18.56V15.3803C18.7656 11.887 18.8088 11.5085 19.4253 10.2864C19.8795 9.3887 20.9827 8.318 21.902 7.87458C22.5833 7.55012 23.3728 7.32301 24.1732 7.25811C24.7355 7.20404 33.1065 7.17159 33.1606 7.22567ZM55.1262 12.2331C56.4564 12.8604 57.3325 13.9743 57.592 15.3911C57.6569 15.7264 57.7002 18.1382 57.7002 21.1448V26.3253H54.2718C50.5513 26.3253 49.8808 26.2495 48.8101 25.7412C47.5123 25.1248 47.1229 24.6814 44.9923 21.4584C43.489 19.1764 42.8618 18.3328 42.3643 17.8786C41.5423 17.1432 40.742 16.6565 39.7254 16.2888L38.9359 15.9968L32.8253 15.9427L26.7147 15.8886L26.7472 15.456C26.8229 14.3745 27.9368 12.8279 29.0075 12.3088C29.9917 11.8329 29.8079 11.8437 42.3967 11.8654L54.4015 11.887L55.1262 12.2331Z" fill="#42526E"/>
<path id="Vector_3" d="M54.218 16.0724C54.1206 16.1481 53.3636 17.4892 52.5308 19.0574L51.0167 21.9017L50.0757 20.7337C48.8969 19.2845 48.6806 19.079 48.3021 19.079C47.9343 19.079 47.5342 19.4791 47.5342 19.8577C47.5342 20.1605 47.7721 20.5066 49.243 22.3235C50.6165 24.0107 50.7679 24.1621 51.1573 24.1621C51.3736 24.1621 51.5791 24.0756 51.7196 23.9134C52.0008 23.5997 55.5374 16.9051 55.5374 16.678C55.5374 16.5915 55.4401 16.386 55.3103 16.2238C55.0615 15.9101 54.5208 15.8344 54.218 16.0724Z" fill="#42526E"/>
<path id="Vector_4" d="M23.6975 31.5277C23.3406 31.8089 23.3081 32.3821 23.6326 32.7065C23.8489 32.9229 23.9895 32.9229 31.095 32.9229C38.2006 32.9229 38.3412 32.9229 38.5575 32.7065C38.882 32.3821 38.8495 31.8089 38.4926 31.5277C38.2114 31.3006 38.1249 31.3006 31.095 31.3006C24.0652 31.3006 23.9787 31.3006 23.6975 31.5277Z" fill="#42526E"/>
<path id="Vector_5" d="M23.6326 34.545C23.3081 34.8694 23.3406 35.4426 23.6975 35.7238C23.9787 35.9509 24.0652 35.9509 31.095 35.9509C38.1249 35.9509 38.2114 35.9509 38.4926 35.7238C38.8495 35.4426 38.882 34.8694 38.5575 34.545C38.3412 34.3287 38.2006 34.3287 31.095 34.3287C23.9895 34.3287 23.8489 34.3287 23.6326 34.545Z" fill="#42526E"/>
</g>
</svg>
