<svg width="90" height="68" viewBox="0 0 90 68" fill="none" xmlns="http://www.w3.org/2000/svg">
<g id="Group 15">
<path id="Vector" d="M79.1771 65.4927C73.7411 68.2024 66.6594 67.1219 62.3038 62.916C59.3615 60.0733 57.7156 56.15 54.956 53.1411C49.7861 47.5057 40.6595 46.0096 33.9601 49.6834C26.0274 54.048 21.1827 65.5147 11.4513 65.8916C6.01534 66.1078 0.778783 61.6857 0.0805639 56.2998C-0.617655 50.8971 3.30562 45.2948 8.62533 44.1145C16.4546 42.3318 18.4821 38.6402 10.9029 30.749C7.02603 26.7534 4.42648 22.289 8.52561 16.9013C12.2696 12.0625 20.4963 10.2683 27.5268 14.5739C39.167 21.7328 29.2949 21.0396 38.6482 7.75817C47.4648 -4.88232 57.3369 4.01885 63.5175 4.71599C69.3025 5.39765 75.0046 1.77354 80.7565 2.72105C89.6639 4.19345 93.1525 15.3165 86.6412 21.6059C82.4686 25.6455 75.8025 25.8782 71.1643 29.336C67.3967 32.1517 67.972 35.7093 71.6132 37.0162C94.7619 45.327 87.9466 61.0811 79.1771 65.4927Z" fill="#E9F3FF"/>
<path id="Rectangle 1235" d="M16.6597 13.9993C16.6597 12.3424 18.0028 10.9993 19.6597 10.9993H70.7382C72.395 10.9993 73.7382 12.3424 73.7382 13.9993V48.9917C73.7382 50.6486 72.395 51.9917 70.7382 51.9917H19.6597C18.0028 51.9917 16.6597 50.6486 16.6597 48.9917V13.9993Z" fill="#BAD9FF"/>
<g id="Vector 7">
<path d="M50.5645 33.8369C47.6694 34.3087 41.8276 35.3037 41.6218 35.5097C40.9998 34.9521 39.756 33.3608 39.756 31.4565C39.756 29.0761 39.756 28.2396 40.5924 25.9879C41.4287 23.7361 41.6218 24.1863 43.8735 22.8997C45.6749 21.8704 47.4978 21.613 48.1841 21.613C49.6853 19.64 52.6877 15.6039 52.6877 15.2434C52.6877 14.7928 61.0514 3.7917 62.0808 2.50492C63.1102 1.21815 64.0109 1.73271 65.1046 1.73271C66.1984 1.73271 68.3858 3.14833 68.9005 3.7917C69.4152 4.43506 68.9648 6.68674 68.9005 7.33011C68.8362 7.97347 62.7885 14.6 62.0808 15.2434C61.3731 15.8868 55.9045 23.5429 55.6471 24.1863C55.3898 24.8296 54.4247 27.4674 54.1674 28.6255C53.91 29.7835 53.138 31.392 52.6877 32.2284C52.3274 32.8975 51.1221 33.5795 50.5645 33.8369Z" fill="#367DCB"/>
<path d="M39.756 62.1014C40.3779 59.715 41.7751 54.6451 42.3885 53.4564L46.9811 51.9706C48.1756 54.7171 50.5645 60.5885 50.5645 62.1014L56.4365 63.182L57.9224 66.8291H32.5278V63.182L39.756 62.1014Z" fill="#367DCB"/>
</g>
<path id="Vector 8" d="M74.1644 41.1765H15.8288L14.8794 50.0375C15.8991 50.7408 18.2551 52.295 19.5209 52.8857C20.7868 53.4765 51.5545 53.1319 66.7802 52.8857L74.1644 51.1979V41.1765Z" fill="white"/>
<path id="Vector_2" d="M63.1975 0.205895C62.3607 0.431705 61.4176 0.923172 60.7933 1.45449C60.4878 1.72015 59.2525 3.42036 57.9242 5.41279L55.5731 8.91948H18.5005L17.7301 9.23827C16.1495 9.88913 15.1134 10.9385 14.5422 12.4527L14.25 13.2364V31.3012C14.25 47.9845 14.2633 49.4191 14.4758 50.0965C14.9407 51.5975 16.2292 52.9523 17.77 53.5899L18.5005 53.8821L40.4439 53.9618L39.7399 56.9106C39.3414 58.5311 38.996 59.9922 38.9562 60.1384C38.8898 60.404 38.7968 60.4306 36.738 60.4837C34.2939 60.5501 33.7892 60.6962 32.7797 61.5995C31.996 62.3167 31.5709 63.2067 31.4912 64.3889L31.4115 65.3585L26.643 65.4382L26.3242 65.8102C25.8858 66.3149 25.8858 67.0853 26.3242 67.5901L26.643 67.962H63.3569L63.6757 67.5901C64.114 67.0853 64.114 66.3149 63.6757 65.8102L63.3569 65.4382L58.5883 65.3585L58.5086 64.3889C58.4289 63.2067 58.0039 62.3167 57.2202 61.5995C56.2107 60.6962 55.7059 60.5501 53.2619 60.4837C51.203 60.4306 51.1101 60.404 51.0436 60.1384C51.0038 59.9922 50.6584 58.5311 50.26 56.9106L49.556 53.9618L71.4993 53.8821L72.2697 53.5766C73.8238 52.939 75.1787 51.4513 75.5772 49.9238C75.7233 49.3659 75.7498 45.9124 75.7498 31.2348V13.2364L75.4576 12.4527C74.6607 10.3408 72.6815 8.91948 70.5297 8.91948C69.5733 8.91948 69.6131 9.03903 70.0913 7.72402C70.6492 6.20977 70.3703 3.95167 69.4405 2.62338C68.949 1.89282 68.0059 1.02944 67.3285 0.697363C66.0932 0.0597834 64.4328 -0.13946 63.1975 0.205895ZM66.0799 3.04844C66.6909 3.36723 67.2621 3.99152 67.541 4.6291C67.8067 5.26668 67.7668 6.58169 67.4613 7.16614C67.2222 7.64432 58.5618 18.2972 58.2297 18.5363C58.1234 18.616 57.4593 18.2042 56.1443 17.2213C55.0949 16.4243 54.2448 15.7469 54.2581 15.707C54.2714 15.6539 56.1044 12.9044 58.336 9.58362C62.4138 3.48677 62.706 3.11485 63.6757 2.80934C64.2601 2.62338 65.4822 2.74293 66.0799 3.04844ZM50.7249 16.1454L47.6831 20.7014L46.6603 20.7944C42.2238 21.1929 39.3281 24.0753 38.757 28.6712C38.5179 30.5042 38.8499 33.8515 39.4875 35.9768C39.8462 37.1722 40.776 37.5574 41.6925 36.88C43.6451 35.4587 43.7513 35.4322 47.4573 35.4189C50.2068 35.3923 50.592 35.3657 51.3757 35.1134C54.298 34.1304 56.0646 31.1152 55.5997 27.8742C55.52 27.3561 55.4536 26.7584 55.4403 26.5725C55.427 26.2935 56.7287 24.6332 61.4043 18.9082L67.3816 11.5761L69.3873 11.6159C71.2602 11.6425 71.4196 11.669 71.858 11.9613C72.4557 12.373 72.8409 12.9575 73.0136 13.7013C73.1066 14.0865 73.1597 18.7621 73.1597 26.9444V39.603H17.2724L16.9138 42.2596L73.0933 42.326V49.2331L72.7213 49.8574C72.4822 50.2692 72.1369 50.6145 71.7251 50.8536L71.1008 51.2255H18.899L18.2747 50.8536C17.8629 50.6145 17.5176 50.2692 17.2785 49.8574L16.9066 49.2331V42.326L19.1248 42.2596L18.7662 39.603H16.8269L16.8667 26.5459C16.9066 12.1738 16.8534 13.1966 17.7301 12.3199C18.4872 11.5495 17.4379 11.5893 36.3395 11.5761H53.7666L50.7249 16.1454ZM54.6433 19.413L56.4365 20.7545L56.1974 21.0733C55.2676 22.2954 53.6737 24.1815 53.5674 24.1815C53.501 24.1948 52.704 23.6502 51.8008 22.9861L50.167 21.7773L50.3928 21.4187C51.6945 19.4263 52.6376 18.0847 52.7306 18.0847C52.797 18.0847 53.6604 18.6824 54.6433 19.413ZM50.2998 25.1512C52.5446 26.8248 52.6907 26.9444 52.8501 27.5155C53.2885 29.0564 52.9032 30.7167 51.8672 31.7395C50.8975 32.6959 50.6452 32.749 47.258 32.7623C44.1897 32.7756 43.22 32.9084 42.1707 33.453C41.9581 33.5593 41.7589 33.6257 41.7323 33.5858C41.5597 33.4264 41.3737 31.7528 41.3604 30.3714C41.3471 27.9406 41.812 26.4662 42.9942 25.2176C44.0037 24.1417 45.6906 23.4377 47.2846 23.4111C47.8823 23.3978 48.0019 23.4643 50.2998 25.1512ZM46.8595 54.0017C46.8595 54.0415 47.1916 55.4495 47.5901 57.1364C47.9886 58.8233 48.3207 60.2579 48.3207 60.3376C48.3207 60.404 46.9791 60.4571 44.9999 60.4571C43.0208 60.4571 41.6792 60.404 41.6792 60.3376C41.6792 60.2579 42.0113 58.8233 42.4098 57.1364C42.8082 55.4495 43.1403 54.0415 43.1403 54.0017C43.1403 53.9751 43.9771 53.9485 44.9999 53.9485C46.0227 53.9485 46.8595 53.9751 46.8595 54.0017ZM54.8691 63.2598C55.5067 63.4325 55.8919 64.017 55.8919 64.8007V65.3718H34.0814L34.1345 64.6413C34.2009 63.8177 34.4666 63.4325 35.0909 63.2598C35.6886 63.0872 54.2448 63.0872 54.8691 63.2598Z" fill="#42526E"/>
</g>
</svg>
