<svg width="99" height="80" viewBox="0 0 99 80" fill="none" xmlns="http://www.w3.org/2000/svg">
<g id="_x32_6_Quality">
<g id="Group">
<path id="Vector" d="M86.7512 77.6698C80.8527 80.61 73.1686 79.4376 68.4424 74.8739C65.2498 71.7893 63.4639 67.5323 60.4695 64.2674C54.8598 58.1526 44.9569 56.5292 37.6875 60.5155C29.0799 65.2514 23.8231 77.6936 13.2639 78.1026C7.36544 78.3372 1.68341 73.5389 0.925796 67.6948C0.168179 61.8325 4.42521 55.7536 10.1975 54.4729C18.6928 52.5385 20.8928 48.5329 12.6688 39.9704C8.46212 35.6348 5.64142 30.7907 10.0893 24.9446C14.1518 19.6942 23.0783 17.7473 30.7069 22.4192C43.3373 30.1872 32.6254 29.435 42.7744 15.0237C52.341 1.30788 63.0529 10.9663 69.7594 11.7227C76.0365 12.4624 82.2236 8.52995 88.4649 9.55808C98.1301 11.1557 101.915 23.2251 94.8502 30.0495C90.3227 34.4327 83.0895 34.6852 78.0567 38.4372C73.9686 41.4925 74.5928 45.3526 78.5438 46.7708C103.662 55.7885 96.2666 72.8829 86.7512 77.6698Z" fill="#E9F3FF"/>
<path id="Vector_2" d="M20.6076 0.720823C15.4945 0.804807 13.4052 6.51086 19.7808 11.2198C26.7488 16.3665 31.9214 12.5355 31.8605 8.89758C31.8056 5.62863 26.9261 0.617112 20.6076 0.720823Z" fill="#E9F3FF"/>
</g>
<g id="Group_2">
<path id="Vector_3" d="M67.17 66.6671L61.0501 65.696L56.8722 70.27L49.6663 49.5978L42.4604 70.27L38.2825 65.696L32.1626 66.6671L41.2212 40.731L49.6663 43.6823L58.1116 40.731L67.17 66.6671Z" fill="#367DCB"/>
<path id="Vector_4" d="M69.8736 34.7918L69.8611 34.8086C68.9452 36.0405 68.4585 37.5387 68.4757 39.0737L68.4759 39.0895C68.5103 42.1889 66.5073 44.944 63.5484 45.8672L63.5386 45.8703C62.0689 46.3289 60.7909 47.2578 59.9013 48.5143L59.9007 48.5151C58.107 51.0485 54.8618 52.1024 51.9218 51.1067C50.4618 50.6123 48.8798 50.6121 47.4198 51.1065L47.4169 51.1074C44.4775 52.1028 41.2333 51.0492 39.4394 48.5168L39.4372 48.5137C38.5474 47.2574 37.2691 46.3287 35.7991 45.8705L35.7874 45.8668C32.8286 44.9444 30.8251 42.1905 30.8585 39.0912L30.8587 39.0727C30.8751 37.5383 30.3884 36.041 29.473 34.8096L29.4599 34.792C27.6118 32.3065 27.6116 28.9032 29.4595 26.4174L29.4736 26.3985C30.3888 25.1672 30.8755 23.6699 30.8589 22.1358L30.8587 22.1141C30.8253 19.0158 32.8275 16.2623 35.7853 15.3391L35.7999 15.3346C37.2693 14.876 38.547 13.9469 39.4366 12.6907L39.4394 12.6867C41.2327 10.1537 44.4769 9.09944 47.4165 10.0942L47.4214 10.0957C48.8804 10.5895 50.4613 10.5893 51.9202 10.0957L51.9232 10.0948C54.8636 9.09983 58.1083 10.1547 59.9015 12.6885L59.9031 12.6907C60.7921 13.9471 62.0697 14.8764 63.5388 15.3354L63.5517 15.3395C66.5095 16.2637 68.5113 19.0184 68.4763 22.1172L68.4761 22.1354C68.4589 23.6705 68.9454 25.1688 69.8613 26.401L69.8741 26.4182C71.7214 28.9035 71.7212 32.3063 69.8736 34.7918Z" fill="white"/>
<path id="Vector_5" d="M69.8736 34.7918L69.8611 34.8086C68.9452 36.0405 68.4585 37.5387 68.4757 39.0737L68.4759 39.0895C68.5103 42.1889 66.5073 44.944 63.5484 45.8672L63.5386 45.8703C62.0689 46.3289 60.7909 47.2578 59.9013 48.5143L59.9007 48.5151C58.107 51.0485 54.8618 52.1024 51.9218 51.1067C50.4618 50.6123 48.8798 50.6121 47.4198 51.1065L47.4169 51.1074C44.4775 52.1028 41.2333 51.0492 39.4394 48.5168L39.4372 48.5137C38.5474 47.2574 37.2691 46.3287 35.7991 45.8705L35.7874 45.8668C32.8286 44.9444 30.8251 42.1905 30.8585 39.0912L30.8587 39.0727C30.8751 37.5383 30.3884 36.041 29.473 34.8096L29.4599 34.792C27.6118 32.3065 27.6116 28.9032 29.4595 26.4174L29.4736 26.3985C30.3888 25.1672 30.8755 23.6699 30.8589 22.1358L30.8587 22.1141C30.8253 19.0158 32.8275 16.2623 35.7853 15.3391L35.7999 15.3346C37.2693 14.876 38.547 13.9469 39.4366 12.6907L39.4394 12.6867C41.2327 10.1537 44.4769 9.09944 47.4165 10.0942L47.4214 10.0957C48.8804 10.5895 50.4613 10.5893 51.9202 10.0957L51.9232 10.0948C54.8636 9.09983 58.1083 10.1547 59.9015 12.6885L59.9031 12.6907C60.7921 13.9471 62.0697 14.8764 63.5388 15.3354L63.5517 15.3395C66.5095 16.2637 68.5113 19.0184 68.4763 22.1172L68.4761 22.1354C68.4589 23.6705 68.9454 25.1688 69.8613 26.401L69.8741 26.4182C71.7214 28.9035 71.7212 32.3063 69.8736 34.7918Z" fill="#BAD9FF"/>
<path id="Vector_6" d="M63.2853 30.5954C63.2853 38.1231 57.1888 44.2198 49.6608 44.2198C42.1438 44.2198 36.0474 38.1233 36.0474 30.5954C36.0474 23.0786 42.1438 16.9819 49.6608 16.9819C57.1888 16.9819 63.2853 23.0784 63.2853 30.5954Z" fill="white"/>
<path id="Vector_7" d="M53.9198 33.1926L54.2958 35.3809C54.4909 36.516 53.2993 37.3821 52.2798 36.8461L50.3124 35.8119C49.9075 35.599 49.4238 35.599 49.0189 35.8121L47.0536 36.8459C46.0343 37.3821 44.8427 36.5168 45.037 35.3817L45.4118 33.1918C45.489 32.7412 45.3396 32.2813 45.012 31.9621L43.4212 30.4117C42.5964 29.6078 43.0515 28.2071 44.1911 28.0414L46.3906 27.7219C46.8433 27.6561 47.2345 27.3717 47.437 26.9615L48.4202 24.9682C48.9296 23.9354 50.4023 23.935 50.9122 24.9676L51.8974 26.9623C52.0999 27.3723 52.4909 27.6563 52.9435 27.7221L55.1419 28.0416C56.282 28.2073 56.7368 29.6086 55.9114 30.4123L54.3198 31.9621C53.9919 32.2811 53.8423 32.7414 53.9198 33.1926Z" fill="#367DCB"/>
<g id="Group_3">
<path id="Vector_8" d="M69.4526 22.1277C69.4927 18.5705 67.2382 15.4681 63.8302 14.4039C62.5724 14.0099 61.4603 13.2013 60.6983 12.1246C58.6708 9.25973 54.9329 8.04371 51.6069 9.17008C50.3585 9.59449 48.9829 9.59449 47.7345 9.17008C47.7239 9.16617 47.713 9.16344 47.7017 9.15953C44.3853 8.05328 40.6636 9.26637 38.6394 12.1255C37.8784 13.2013 36.7663 14.0099 35.494 14.4078C32.0985 15.4673 29.8435 18.5687 29.8821 22.1468C29.8964 23.4591 29.473 24.7619 28.6753 25.8347C26.5548 28.688 26.5554 32.5218 28.6896 35.3925C29.4726 36.4455 29.896 37.749 29.8817 39.0804C29.844 42.6386 32.1005 45.741 35.5089 46.8033C36.2991 47.049 37.0189 47.4746 37.6439 48.0132L31.2413 66.3451C31.1278 66.6703 31.1931 67.0298 31.4134 67.2939C31.6341 67.5562 31.9761 67.6879 32.3161 67.6316L37.9165 66.7437L41.7397 70.9295C41.9716 71.1832 42.3206 71.2947 42.6571 71.2269C42.9938 71.1582 43.2694 70.917 43.3829 70.5918L49.6667 52.5652L55.9499 70.5916C56.0634 70.9168 56.339 71.158 56.6757 71.2267C57.0233 71.2978 57.3679 71.1752 57.5931 70.9293L61.4163 66.7435L67.0167 67.6314C67.3567 67.6886 67.6991 67.556 67.9194 67.2937C68.1398 67.0295 68.205 66.6701 68.0915 66.3449L61.6903 48.0172C62.3167 47.4769 63.0407 47.049 63.8392 46.8002C67.2362 45.7396 69.4921 42.6375 69.4521 39.063C69.4372 37.7498 69.8606 36.4463 70.6417 35.3943L70.6546 35.3771L70.6575 35.3742C72.778 32.5218 72.778 28.688 70.6446 25.8183C69.8608 24.7636 69.4374 23.4599 69.4526 22.1277ZM42.0774 68.4027L39.0038 65.0373C38.8173 64.8332 38.5546 64.7197 38.2829 64.7197C38.2323 64.7197 38.181 64.7236 38.1298 64.732L33.6237 65.4463L39.1351 49.6668C41.1417 51.982 44.4546 53.1105 47.7894 52.017L42.0774 68.4027ZM61.2034 64.7322C60.8819 64.6769 60.5507 64.7951 60.3294 65.0375L57.2558 68.4029L51.5437 52.0158C54.9124 53.1134 58.204 51.9892 60.2058 49.689L65.7095 65.4464L61.2034 64.7322ZM69.0898 34.2088L69.0769 34.2259C68.0401 35.622 67.4794 37.3472 67.4989 39.1002C67.529 41.7896 65.8247 44.1345 63.2474 44.9386C61.5831 45.4574 60.1112 46.5275 59.1036 47.9504C57.5706 50.1152 54.7454 51.0336 52.2353 50.182C50.5812 49.6213 48.7605 49.6203 47.1036 50.182C44.5935 51.0355 41.7689 50.1162 40.2343 47.9494C39.2263 46.5265 37.7542 45.4564 36.0776 44.9339C33.5112 44.1347 31.8062 41.7906 31.8353 39.0832C31.8534 37.3457 31.2931 35.6205 30.2437 34.2099C28.6405 32.0537 28.6405 29.1564 30.2575 26.981C31.2937 25.5867 31.8544 23.8625 31.8355 22.1039C31.806 19.4164 33.5101 17.0722 36.0907 16.2664C37.755 15.7476 39.2265 14.6775 40.2358 13.2509C41.7704 11.083 44.5946 10.1722 47.1038 11.0193C47.1144 11.0232 47.1247 11.0259 47.1362 11.0298C48.7814 11.5793 50.5909 11.5773 52.236 11.0193C54.7489 10.1687 57.5724 11.088 59.1058 13.2556C60.1124 14.6775 61.5829 15.7466 63.2601 16.2711C65.8265 17.073 67.5296 19.4181 67.4997 22.1238C67.4796 23.8613 68.0399 25.5875 69.0899 27.0009C70.6929 29.1562 70.6929 32.0535 69.0898 34.2088Z" fill="#42526E"/>
<path id="Vector_9" d="M49.6611 16.0051C41.6164 16.0051 35.0713 22.5502 35.0713 30.5954C35.0713 38.6463 41.6164 45.1961 49.6611 45.1961C57.7121 45.1961 64.2619 38.6463 64.2619 30.5954C64.2619 22.5502 57.7121 16.0051 49.6611 16.0051ZM49.6611 43.243C42.6932 43.243 37.0244 37.5696 37.0244 30.5954C37.0244 23.6268 42.693 17.9583 49.6611 17.9583C56.635 17.9583 62.3088 23.6268 62.3088 30.5954C62.3088 37.5696 56.635 43.243 49.6611 43.243Z" fill="#42526E"/>
<path id="Vector_10" d="M55.2827 27.0754L53.0845 26.7559C52.9501 26.7357 52.8337 26.651 52.7732 26.5289L51.788 24.5348C51.386 23.7213 50.5736 23.2168 49.6661 23.2168C49.6661 23.2168 49.6657 23.2168 49.6652 23.2168C48.7581 23.2168 47.9456 23.7223 47.5446 24.5357L46.5614 26.5289C46.5013 26.651 46.3851 26.7359 46.2505 26.7559L44.0509 27.0754C43.153 27.2061 42.421 27.823 42.1407 28.6861C41.8609 29.5482 42.0902 30.4781 42.7396 31.1104L44.3304 32.6609C44.428 32.7563 44.4726 32.8928 44.4495 33.0262L44.0747 35.2168C43.9216 36.1104 44.2821 36.9973 45.0159 37.5305C45.7413 38.0574 46.698 38.1367 47.5089 37.7098L49.473 36.677C49.5931 36.6121 49.7372 36.6121 49.8583 36.676L51.8257 37.7098C52.6273 38.1322 53.5823 38.0627 54.3177 37.5295C55.0521 36.9965 55.4124 36.1094 55.2585 35.2158L54.8823 33.0271C54.8599 32.8928 54.9042 32.7562 55.0015 32.6619L56.5931 31.1121C57.2435 30.4779 57.4734 29.548 57.1925 28.685C56.912 27.8221 56.1796 27.2051 55.2827 27.0754ZM55.2302 29.7123L53.638 31.2629C53.0802 31.8064 52.8259 32.5895 52.9571 33.3572H52.9575L53.3337 35.5459C53.3714 35.7662 53.247 35.893 53.1693 35.9502C53.0915 36.0055 52.9318 36.0838 52.7343 35.9816L50.7663 34.9469C50.0778 34.5863 49.2542 34.5854 48.5638 34.9479L46.5991 35.9816C46.4017 36.0836 46.2415 36.0055 46.1638 35.9502C46.0861 35.8939 45.962 35.7662 45.9997 35.5469L46.3741 33.3563C46.5058 32.5895 46.2517 31.8064 45.6937 31.2629L44.1025 29.7123C43.9427 29.5559 43.9685 29.3805 43.998 29.2889C44.0275 29.1982 44.1105 29.04 44.3314 29.0076L46.5306 28.6881C47.3021 28.5766 47.9683 28.092 48.313 27.393L49.2962 25.3998C49.3948 25.1996 49.5698 25.1699 49.6657 25.1699C49.762 25.1699 49.9376 25.1994 50.0366 25.4008L51.0218 27.3949C51.3671 28.093 52.0327 28.5766 52.8028 28.6881L55.0021 29.0076C55.2224 29.04 55.3054 29.1975 55.3349 29.2889C55.3644 29.3803 55.3905 29.5568 55.2302 29.7123Z" fill="#42526E"/>
</g>
</g>
</g>
</svg>
