<svg width="70" height="70" viewBox="0 0 70 70" fill="none" xmlns="http://www.w3.org/2000/svg">
<path d="M66.5509 8.29727H47.086L46.2214 3.28625C46.1829 3.06398 46.0671 2.86244 45.8945 2.71717C45.722 2.5719 45.5036 2.49222 45.278 2.49219H24.7221C24.4965 2.49212 24.2781 2.57175 24.1055 2.71704C23.9329 2.86233 23.8172 3.06393 23.7787 3.28625L22.9141 8.29727H3.44922C3.19544 8.29741 2.9521 8.39829 2.77266 8.57773C2.59321 8.75718 2.49233 9.00052 2.49219 9.2543V13.6107C2.4935 14.3507 2.75549 15.0666 3.23213 15.6327C3.70878 16.1987 4.36961 16.5787 5.09859 16.706V53.8077C5.09874 54.0614 5.19961 54.3048 5.37906 54.4842C5.55851 54.6637 5.80185 54.7645 6.05562 54.7647H34.043V60.8837C33.263 61.1138 32.5919 61.6173 32.1529 62.3019C31.7138 62.9865 31.5361 63.8064 31.6524 64.6114C31.7686 65.4163 32.171 66.1524 32.7859 66.6848C33.4007 67.2172 34.1868 67.5103 35.0001 67.5103C35.8134 67.5103 36.5995 67.2172 37.2143 66.6848C37.8291 66.1524 38.2315 65.4163 38.3478 64.6114C38.464 63.8064 38.2863 62.9865 37.8473 62.3019C37.4082 61.6173 36.7372 61.1138 35.9571 60.8837V54.7647H63.9445C64.1983 54.7645 64.4417 54.6637 64.6211 54.4842C64.8005 54.3048 64.9014 54.0614 64.9016 53.8077V16.706C65.6305 16.5787 66.2914 16.1987 66.768 15.6327C67.2447 15.0666 67.5067 14.3507 67.508 13.6107V9.2543C67.5078 9.00052 67.407 8.75718 67.2275 8.57773C67.0481 8.39829 66.8047 8.29741 66.5509 8.29727ZM36.4684 64.1255C36.4685 64.416 36.3825 64.6999 36.2212 64.9415C36.06 65.183 35.8307 65.3713 35.5624 65.4825C35.2941 65.5937 34.9988 65.6229 34.714 65.5663C34.4291 65.5097 34.1674 65.3699 33.962 65.1646C33.7566 64.9592 33.6167 64.6976 33.56 64.4128C33.5033 64.1279 33.5323 63.8326 33.6434 63.5643C33.7546 63.296 33.9428 63.0666 34.1842 62.9052C34.4257 62.7439 34.7096 62.6577 35.0001 62.6577C35.3893 62.6582 35.7624 62.8129 36.0377 63.0881C36.313 63.3633 36.4679 63.7363 36.4684 64.1255ZM25.5277 4.40625H44.4725L45.1452 8.29727H24.8561L25.5277 4.40625ZM7.01266 52.8506V16.7569H62.9875V52.8506H7.01266ZM65.5939 13.6107C65.5936 13.937 65.4639 14.2498 65.2332 14.4805C65.0025 14.7112 64.6897 14.8409 64.3634 14.8412H5.63672C5.31047 14.8409 4.99766 14.7112 4.76697 14.4805C4.53627 14.2498 4.40654 13.937 4.40625 13.6107V10.2113H65.5939V13.6107Z" fill="#367DCB"/>
<path d="M44.9418 21.5015C42.3157 21.5001 39.748 22.2765 37.5627 23.7327C35.3773 25.189 33.6722 27.2598 32.6625 29.6841C31.6528 32.1083 31.3837 34.7773 31.8892 37.3542C32.3947 39.9312 33.652 42.3008 35.5027 44.164C35.5153 44.1776 35.5246 44.1935 35.5377 44.2066C35.5508 44.2197 35.5672 44.2296 35.5809 44.2422C37.1322 45.7806 39.0385 46.9131 41.1315 47.5396C43.2245 48.1662 45.4396 48.2674 47.581 47.8343C49.7223 47.4013 51.7241 46.4474 53.4091 45.0569C55.0942 43.6663 56.4108 41.8821 57.2424 39.8618C58.074 37.8415 58.3951 35.6475 58.1772 33.4737C57.9593 31.2998 57.2092 29.2131 55.9932 27.3981C54.7772 25.583 53.1328 24.0955 51.2052 23.0671C49.2777 22.0386 47.1265 21.5009 44.9418 21.5015ZM56.2807 33.8461H45.8988V23.4642C48.5755 23.6931 51.0852 24.8604 52.9848 26.76C54.8845 28.6596 56.0518 31.1694 56.2807 33.8461ZM43.9847 23.4642V34.4066L36.2492 42.1422C34.8989 40.5485 34.0138 38.6136 33.691 36.5499C33.3682 34.4862 33.6203 32.3734 34.4196 30.4436C35.2188 28.5137 36.5343 26.8414 38.2217 25.6102C39.9091 24.379 41.9031 23.6365 43.9847 23.4642ZM44.9418 46.1901C42.2532 46.191 39.652 45.236 37.6027 43.4957L45.3383 35.7601H56.2807C56.0387 38.6022 54.7398 41.2502 52.6405 43.1813C50.5412 45.1123 47.7941 46.1859 44.9418 46.1901Z" fill="#367DCB"/>
<path d="M25.8743 41.4834H12.7148C12.461 41.4834 12.2176 41.5842 12.0381 41.7637C11.8586 41.9432 11.7578 42.1866 11.7578 42.4404C11.7578 42.6943 11.8586 42.9377 12.0381 43.1172C12.2176 43.2966 12.461 43.3975 12.7148 43.3975H25.8743C26.1281 43.3975 26.3715 43.2966 26.551 43.1172C26.7305 42.9377 26.8313 42.6943 26.8313 42.4404C26.8313 42.1866 26.7305 41.9432 26.551 41.7637C26.3715 41.5842 26.1281 41.4834 25.8743 41.4834Z" fill="#367DCB"/>
<path d="M25.8743 21.5015H12.7148C12.461 21.5015 12.2176 21.6023 12.0381 21.7818C11.8586 21.9613 11.7578 22.2047 11.7578 22.4585C11.7578 22.7123 11.8586 22.9557 12.0381 23.1352C12.2176 23.3147 12.461 23.4155 12.7148 23.4155H25.8743C26.1281 23.4155 26.3715 23.3147 26.551 23.1352C26.7305 22.9557 26.8313 22.7123 26.8313 22.4585C26.8313 22.2047 26.7305 21.9613 26.551 21.7818C26.3715 21.6023 26.1281 21.5015 25.8743 21.5015Z" fill="#367DCB"/>
<path d="M25.8743 28.1641H12.7148C12.461 28.1641 12.2176 28.2649 12.0381 28.4444C11.8586 28.6238 11.7578 28.8673 11.7578 29.1211C11.7578 29.3749 11.8586 29.6183 12.0381 29.7978C12.2176 29.9773 12.461 30.0781 12.7148 30.0781H25.8743C26.1281 30.0781 26.3715 29.9773 26.551 29.7978C26.7305 29.6183 26.8313 29.3749 26.8313 29.1211C26.8313 28.8673 26.7305 28.6238 26.551 28.4444C26.3715 28.2649 26.1281 28.1641 25.8743 28.1641Z" fill="#367DCB"/>
<path d="M25.8743 34.823H12.7148C12.461 34.823 12.2176 34.9238 12.0381 35.1033C11.8586 35.2828 11.7578 35.5262 11.7578 35.78C11.7578 36.0339 11.8586 36.2773 12.0381 36.4568C12.2176 36.6362 12.461 36.7371 12.7148 36.7371H25.8743C26.1281 36.7371 26.3715 36.6362 26.551 36.4568C26.7305 36.2773 26.8313 36.0339 26.8313 35.78C26.8313 35.5262 26.7305 35.2828 26.551 35.1033C26.3715 34.9238 26.1281 34.823 25.8743 34.823Z" fill="#367DCB"/>
</svg>
