<svg width="70" height="70" viewBox="0 0 70 70" fill="none" xmlns="http://www.w3.org/2000/svg">
<path d="M51.2353 36.6009L35.9228 12.5384C35.824 12.3832 35.6877 12.2553 35.5263 12.1667C35.365 12.0782 35.184 12.0317 34.9999 12.0317C34.8159 12.0317 34.6349 12.0782 34.4735 12.1667C34.3122 12.2553 34.1759 12.3832 34.0771 12.5384L18.7646 36.6009C18.6774 36.7381 18.6218 36.8929 18.602 37.0542C18.5821 37.2155 18.5984 37.3792 18.6497 37.5334L24.7324 55.7812H22.9687C22.6786 55.7812 22.4004 55.8964 22.1953 56.1016C21.9902 56.3067 21.8749 56.5849 21.8749 56.875V61.25C21.8749 61.54 21.9902 61.8182 22.1953 62.0234C22.4004 62.2285 22.6786 62.3437 22.9687 62.3437H24.0624V67.8125C24.0624 68.1025 24.1777 68.3807 24.3828 68.5859C24.5879 68.791 24.8661 68.9062 25.1562 68.9062H44.8437C45.1338 68.9062 45.412 68.791 45.6171 68.5859C45.8222 68.3807 45.9374 68.1025 45.9374 67.8125V62.3437H47.0312C47.3213 62.3437 47.5995 62.2285 47.8046 62.0234C48.0097 61.8182 48.1249 61.54 48.1249 61.25V56.875C48.1249 56.5849 48.0097 56.3067 47.8046 56.1016C47.5995 55.8964 47.3213 55.7812 47.0312 55.7812H45.2675L51.3501 37.5334C51.4015 37.3792 51.4178 37.2155 51.3979 37.0542C51.3781 36.8929 51.3225 36.7381 51.2353 36.6009ZM34.9999 39.375C35.4326 39.375 35.8555 39.5032 36.2152 39.7436C36.575 39.984 36.8554 40.3256 37.0209 40.7253C37.1865 41.1251 37.2298 41.5649 37.1454 41.9892C37.061 42.4136 36.8527 42.8033 36.5467 43.1093C36.2408 43.4152 35.851 43.6235 35.4267 43.7079C35.0024 43.7923 34.5625 43.749 34.1628 43.5834C33.7631 43.4179 33.4215 43.1375 33.1811 42.7778C32.9407 42.418 32.8124 41.9951 32.8124 41.5625C32.8132 40.9825 33.0439 40.4266 33.454 40.0165C33.8641 39.6064 34.42 39.3757 34.9999 39.375ZM43.7499 66.7187H26.2499V62.3437H43.7499V66.7187ZM45.9374 57.9687V60.1562H24.0624V57.9687H45.9374ZM42.9611 55.7812H27.0388L20.8892 37.3351L33.9062 16.8806V37.3255C32.8752 37.5918 31.9766 38.2249 31.379 39.1062C30.7813 39.9875 30.5256 41.0565 30.6598 42.1129C30.794 43.1692 31.3088 44.1404 32.1078 44.8443C32.9068 45.5483 33.9351 45.9366 34.9999 45.9366C36.0648 45.9366 37.0931 45.5483 37.8921 44.8443C38.6911 44.1404 39.2059 43.1692 39.3401 42.1129C39.4742 41.0565 39.2185 39.9875 38.6209 39.1062C38.0233 38.2249 37.1247 37.5918 36.0937 37.3255V16.8806L49.1107 37.3351L42.9611 55.7812Z" fill="#367DCB"/>
<path d="M67.8125 1.09375H61.25C60.9599 1.09375 60.6817 1.20898 60.4766 1.4141C60.2715 1.61922 60.1562 1.89742 60.1562 2.1875V4.375H39.375V2.1875C39.375 1.89742 39.2598 1.61922 39.0546 1.4141C38.8495 1.20898 38.5713 1.09375 38.2812 1.09375H31.7188C31.4287 1.09375 31.1505 1.20898 30.9454 1.4141C30.7402 1.61922 30.625 1.89742 30.625 2.1875V4.375H9.84375V2.1875C9.84375 1.89742 9.72852 1.61922 9.5234 1.4141C9.31828 1.20898 9.04008 1.09375 8.75 1.09375H2.1875C1.89742 1.09375 1.61922 1.20898 1.4141 1.4141C1.20898 1.61922 1.09375 1.89742 1.09375 2.1875V8.75C1.09375 9.04008 1.20898 9.31828 1.4141 9.5234C1.61922 9.72852 1.89742 9.84375 2.1875 9.84375H8.75C9.04008 9.84375 9.31828 9.72852 9.5234 9.5234C9.72852 9.31828 9.84375 9.04008 9.84375 8.75V6.5625H23.0576C19.9755 7.7355 17.1276 9.44952 14.648 11.6238C10.1391 15.6379 7.65625 20.8318 7.65625 26.25H6.5625C6.27242 26.25 5.99422 26.3652 5.7891 26.5704C5.58398 26.7755 5.46875 27.0537 5.46875 27.3438V31.7188C5.46875 32.0088 5.58398 32.287 5.7891 32.4921C5.99422 32.6973 6.27242 32.8125 6.5625 32.8125H10.9375C11.2276 32.8125 11.5058 32.6973 11.7109 32.4921C11.916 32.287 12.0312 32.0088 12.0312 31.7188V27.3438C12.0312 27.0537 11.916 26.7755 11.7109 26.5704C11.5058 26.3652 11.2276 26.25 10.9375 26.25H9.84375C9.84375 16.6674 18.6949 8.4957 30.625 6.86055V8.75C30.625 9.04008 30.7402 9.31828 30.9454 9.5234C31.1505 9.72852 31.4287 9.84375 31.7188 9.84375H38.2812C38.5713 9.84375 38.8495 9.72852 39.0546 9.5234C39.2598 9.31828 39.375 9.04008 39.375 8.75V6.86055C51.3051 8.4957 60.1562 16.6674 60.1562 26.25H59.0625C58.7724 26.25 58.4942 26.3652 58.2891 26.5704C58.084 26.7755 57.9688 27.0537 57.9688 27.3438V31.7188C57.9688 32.0088 58.084 32.287 58.2891 32.4921C58.4942 32.6973 58.7724 32.8125 59.0625 32.8125H63.4375C63.7276 32.8125 64.0058 32.6973 64.2109 32.4921C64.416 32.287 64.5312 32.0088 64.5312 31.7188V27.3438C64.5312 27.0537 64.416 26.7755 64.2109 26.5704C64.0058 26.3652 63.7276 26.25 63.4375 26.25H62.3438C62.3438 20.8318 59.8609 15.6379 55.352 11.6238C52.8724 9.44952 50.0245 7.7355 46.9424 6.5625H60.1562V8.75C60.1562 9.04008 60.2715 9.31828 60.4766 9.5234C60.6817 9.72852 60.9599 9.84375 61.25 9.84375H67.8125C68.1026 9.84375 68.3808 9.72852 68.5859 9.5234C68.791 9.31828 68.9062 9.04008 68.9062 8.75V2.1875C68.9062 1.89742 68.791 1.61922 68.5859 1.4141C68.3808 1.20898 68.1026 1.09375 67.8125 1.09375ZM7.65625 7.65625H3.28125V3.28125H7.65625V7.65625ZM9.84375 30.625H7.65625V28.4375H9.84375V30.625ZM37.1875 7.65625H32.8125V3.28125H37.1875V7.65625ZM62.3438 30.625H60.1562V28.4375H62.3438V30.625ZM66.7188 7.65625H62.3438V3.28125H66.7188V7.65625Z" fill="#367DCB"/>
</svg>
