<svg width="100" height="100" viewBox="0 0 100 100" fill="none" xmlns="http://www.w3.org/2000/svg">
<path d="M87.0847 87.6698C81.1862 90.61 73.5021 89.4376 68.7759 84.8739C65.5833 81.7893 63.7974 77.5323 60.803 74.2674C55.1933 68.1526 45.2903 66.5292 38.021 70.5155C29.4134 75.2514 24.1566 87.6936 13.5974 88.1026C7.69894 88.3372 2.01691 83.5389 1.25929 77.6948C0.501675 71.8325 4.75871 65.7536 10.531 64.4729C19.0263 62.5385 21.2263 58.5329 13.0023 49.9704C8.79562 45.6348 5.97492 40.7907 10.4228 34.9446C14.4853 29.6942 23.4118 27.7473 31.0403 32.4192C43.6708 40.1872 32.9589 39.435 43.1079 25.0237C52.6745 11.3079 63.3864 20.9663 70.0929 21.7227C76.37 22.4624 82.5571 18.53 88.7984 19.5581C98.4636 21.1557 102.249 33.2251 95.1837 40.0495C90.6562 44.4327 83.423 44.6852 78.3902 48.4372C74.3021 51.4925 74.9263 55.3526 78.8773 56.7708C103.995 65.7885 96.6001 82.8829 87.0847 87.6698Z" fill="#E9F3FF"/>
<path d="M20.9381 10.7208C15.825 10.8048 13.7358 16.5109 20.1114 21.2198C27.0793 26.3665 32.252 22.5355 32.1911 18.8976C32.1362 15.6286 27.2567 10.6171 20.9381 10.7208Z" fill="#E9F3FF"/>
<path d="M66.058 70.4345L64.2043 75.5202C63.1641 78.3743 60.4504 80.2735 57.4125 80.2735H42.5981C39.5602 80.2735 36.8465 78.3743 35.8063 75.5202L33.9526 70.4345C31.32 63.2116 36.6682 55.5698 44.3559 55.5698H55.6549C63.3424 55.5698 68.6907 63.2116 66.058 70.4345Z" fill="#367DCB"/>
<path d="M60.3351 39.3658L60.1496 40.8176C59.8189 43.3662 57.2863 47.157 54.8263 49.5121C52.1406 52.0929 47.866 52.0849 45.172 49.5121C42.7201 47.157 40.1797 43.3744 39.8488 40.8176L39.6633 39.3658C38.4373 39.3658 37.4775 38.3011 37.6146 37.0672C37.7355 36.0025 38.7115 35.2363 39.7842 35.2363C36.776 23.716 61.365 19.7265 60.2136 35.2363C61.2863 35.2363 62.2703 36.0025 62.3914 37.0752C62.5289 38.3092 61.5611 39.3658 60.3351 39.3658Z" fill="white"/>
<path d="M48.1027 19.7265C42.8727 19.7265 38.6328 23.9663 38.6328 29.1964V34.1974C38.6328 34.7681 39.0955 35.2308 39.6662 35.2308C40.2369 35.2308 40.6996 34.7681 40.6996 34.1974V33.164C40.7479 31.4841 41.7076 29.9638 43.2035 29.1978C43.5504 28.9993 43.9805 29.0187 44.3082 29.2474C45.968 30.4083 47.9818 30.9513 50.0002 30.7819C52.0156 30.9501 54.0262 30.4079 55.684 29.2493C56.0125 29.0177 56.4453 28.9976 56.7939 29.1976C58.2904 29.9624 59.2514 31.4817 59.301 33.1616V34.195C59.301 34.7657 59.7637 35.2284 60.3344 35.2284C60.9051 35.2284 61.3678 34.7657 61.3678 34.195V29.196C61.3678 23.9659 57.1279 19.7261 51.8979 19.7261H48.1027V19.7265Z" fill="#BAD9FF"/>
<path d="M34.8874 75.854C36.0638 79.0817 39.1618 81.2499 42.5964 81.2499H57.4112C60.8458 81.2499 63.9439 79.0817 65.1202 75.854L66.9737 70.7685C68.3394 67.0224 67.811 63.0003 65.5251 59.7335C63.2386 56.4667 59.6405 54.5933 55.6532 54.5933H44.3546C40.3673 54.5933 36.769 56.4667 34.4827 59.7335C32.1968 63.0003 31.6685 67.0224 33.0341 70.7685L34.8874 75.854ZM36.0827 60.8536C37.9987 58.1161 41.0132 56.5464 44.3544 56.5464H55.653C58.9942 56.5464 62.0089 58.1161 63.9247 60.8536C65.8401 63.5907 66.2827 66.961 65.1388 70.0999L63.2853 75.1855C62.3888 77.6444 60.028 79.2968 57.411 79.2968H42.5962C39.9794 79.2968 37.6185 77.6446 36.722 75.1855L34.8685 70.0999C33.7249 66.961 34.1673 63.5907 36.0827 60.8536Z" fill="#42526E"/>
<path d="M38.793 40.2115L38.8866 40.9439C39.2647 43.8604 41.9989 47.8162 44.5038 50.2166C47.5897 53.1729 52.4223 53.177 55.5077 50.2166C58.0143 47.8109 60.7471 43.8531 61.1206 40.9426L61.2141 40.2121C62.6339 39.7859 63.5239 38.4137 63.3647 36.9648C63.2731 36.1363 62.8337 35.4252 62.201 34.9369C62.2928 34.707 62.3467 34.458 62.3467 34.1957V29.1965C62.3467 23.4363 57.6604 18.75 51.9003 18.75H48.1051C42.345 18.75 37.6587 23.4363 37.6587 29.1965V34.1975C37.6587 34.4607 37.7128 34.7107 37.8051 34.9414C37.1782 35.4289 36.7428 36.1369 36.6516 36.9607C36.4905 38.4143 37.3778 39.7855 38.793 40.2115ZM60.338 38.3875C59.8464 38.3875 59.4315 38.7527 59.3696 39.24L59.1837 40.6939C58.9137 42.7969 56.7051 46.3602 54.1553 48.8068C51.8303 51.0395 48.1839 51.0385 45.8549 48.8059C43.3067 46.3645 41.0966 42.8006 40.8233 40.6943L40.6374 39.24C40.5755 38.7527 40.1606 38.3875 39.669 38.3875C39.0264 38.3875 38.5192 37.835 38.5928 37.1758C38.6801 36.3828 39.4327 36.2723 39.9587 36.1779C40.9288 36.0357 41.6784 35.2061 41.6784 34.1975L41.678 33.1924C41.7161 31.8688 42.4719 30.6709 43.6512 30.0672C43.6645 30.06 43.7376 30.0553 43.7508 30.0477C47.1737 32.442 52.7942 32.4619 56.2454 30.05C56.2454 30.0496 56.2458 30.0496 56.2458 30.0496C56.2497 30.0496 56.3473 30.0678 56.3516 30.0678C57.5309 30.6705 58.2876 31.8668 58.3262 33.1619V34.1957C58.3262 35.3586 59.3667 36.2117 60.2165 36.2117C60.8331 36.2117 61.3633 36.6365 61.4229 37.1787C61.4954 37.8307 60.986 38.3875 60.338 38.3875ZM39.6112 29.1965C39.6112 24.5131 43.4212 20.7031 48.1046 20.7031H51.8997C56.5831 20.7031 60.393 24.5131 60.393 29.1965V34.1957H60.2792L60.2788 33.1334C60.2186 31.0969 59.0542 29.2557 57.2823 28.3512C56.6075 27.9635 55.7602 28.0045 55.1264 28.4488C52.2485 30.46 47.4778 30.2715 44.8692 28.4465C44.2354 28.0055 43.3921 27.9668 42.7602 28.3287C40.9467 29.258 39.7839 31.1 39.7251 33.1643V34.1977H39.6112V29.1965Z" fill="#42526E"/>
</svg>
