<svg width="100" height="100" viewBox="0 0 100 100" fill="none" xmlns="http://www.w3.org/2000/svg">
<g clip-path="url(#clip0_9302_10257)">
<path d="M87.0847 87.6698C81.1862 90.61 73.5021 89.4376 68.7759 84.8739C65.5833 81.7893 63.7974 77.5323 60.803 74.2674C55.1933 68.1526 45.2903 66.5292 38.021 70.5155C29.4134 75.2514 24.1566 87.6936 13.5974 88.1026C7.69894 88.3372 2.01691 83.5389 1.25929 77.6948C0.501675 71.8325 4.75871 65.7536 10.531 64.4729C19.0263 62.5385 21.2263 58.5329 13.0023 49.9704C8.79562 45.6348 5.97492 40.7907 10.4228 34.9446C14.4853 29.6942 23.4118 27.7473 31.0403 32.4192C43.6708 40.1872 32.9589 39.435 43.1079 25.0237C52.6745 11.3079 63.3864 20.9663 70.0929 21.7227C76.37 22.4624 82.5571 18.53 88.7983 19.5581C98.4636 21.1557 102.249 33.2251 95.1837 40.0495C90.6562 44.4327 83.423 44.6852 78.3901 48.4372C74.3021 51.4925 74.9263 55.3526 78.8773 56.7708C103.995 65.7885 96.6001 82.8829 87.0847 87.6698Z" fill="#E9F3FF"/>
<path d="M20.9381 10.7208C15.825 10.8048 13.7358 16.5109 20.1114 21.2198C27.0793 26.3665 32.252 22.5355 32.1911 18.8976C32.1362 15.6286 27.2567 10.6171 20.9381 10.7208Z" fill="#E9F3FF"/>
<path d="M84.899 44.9574L76.0971 77.8066C75.0791 81.6058 71.1738 83.8605 67.3746 82.8425L47.995 77.6498C44.1958 76.6318 41.941 72.7265 42.9591 68.9272L51.761 36.0781C52.3269 33.9659 53.8318 32.2309 55.8424 31.372L67.5703 26.3621C70.5884 25.0729 74.0966 26.0129 76.0657 28.6384L83.7174 38.8411C85.0295 40.5903 85.465 42.8453 84.899 44.9574Z" fill="#367DCB"/>
<path d="M72.2941 42.7857C71.664 45.1372 69.2382 46.5281 66.8868 45.898C64.5353 45.2679 63.1413 42.8536 63.7714 40.5021C64.4015 38.1506 66.8158 36.7567 69.1673 37.3868C71.5187 38.0169 72.9242 40.4343 72.2941 42.7857Z" fill="white"/>
<path d="M47.7656 78.5084L67.1449 83.7011C71.4198 84.8479 75.8118 82.3149 76.9568 78.0362L85.7591 45.1874C86.4001 42.7963 85.9153 40.2881 84.4298 38.3074L76.7777 28.1041C75.8548 26.8738 74.6352 25.9784 73.2828 25.4498L72.6296 26.7982C72.7567 26.3236 72.4753 25.8362 72.0007 25.709C71.5262 25.5818 71.0387 25.8633 70.9116 26.3378L71.5644 24.9909C70.1322 24.7751 68.6324 24.941 67.2216 25.5436L55.4939 30.5534C53.2171 31.529 51.5443 33.4565 50.9031 35.8477L42.1007 68.6965C40.958 72.9638 43.4991 77.3652 47.7656 78.5084ZM52.621 36.3081C53.103 34.5108 54.3589 32.9746 56.1929 32.1897L67.9206 27.1799C68.9529 26.7386 70.0458 26.6024 71.0992 26.7265L68.5142 36.3737C65.9724 36.1308 63.5858 37.7439 62.9086 40.2718C62.1529 43.092 63.8328 46.0016 66.6531 46.7574C69.4808 47.5156 72.3951 45.8332 73.1495 43.0158C73.8266 40.4889 72.5366 37.9024 70.2298 36.8443L72.8177 27.1861C73.7964 27.6052 74.6789 28.2704 75.3549 29.1715L83.0065 39.374C84.1626 40.9161 84.5395 42.8667 84.0411 44.7273L75.2388 77.5758C74.3482 80.902 70.9338 82.8756 67.6053 81.9831L48.226 76.7904C44.9069 75.9014 42.9299 72.4762 43.8187 69.1568L52.621 36.3081ZM68.9334 38.2456C70.7942 38.7442 71.9387 40.6611 71.4311 42.5555C70.9334 44.4107 69.0135 45.5479 67.1132 45.0394C65.24 44.5372 64.1248 42.6055 64.6265 40.7322C65.1305 38.854 67.0641 37.7452 68.9334 38.2456Z" fill="#42526E"/>
<path d="M67.3664 64.7606C67.841 64.8877 68.3284 64.6063 68.4556 64.1317C68.5827 63.6572 68.3013 63.1697 67.8267 63.0426L57.5076 60.2776C57.033 60.1504 56.5456 60.4318 56.4184 60.9064C56.2913 61.381 56.5727 61.8684 57.0473 61.9956L67.3664 64.7606Z" fill="#42526E"/>
<path d="M73.8685 48.6502L49.8213 72.6974C47.04 75.4787 42.5306 75.4787 39.7493 72.6974L25.5625 58.5106C22.7812 55.7294 22.7812 51.2199 25.5625 48.4387L49.6098 24.3914C51.156 22.8452 53.3267 22.0951 55.4975 22.3566L68.1591 23.8818C71.4174 24.2744 73.9856 26.8425 74.3782 30.1009L75.9034 42.7625C76.165 44.9334 75.4147 47.104 73.8685 48.6502Z" fill="white"/>
<path d="M64.0379 40.4649C62.3165 42.1863 59.5203 42.1779 57.7989 40.4565C56.0775 38.7351 56.0775 35.9473 57.7989 34.2259C59.5203 32.5045 62.3081 32.5045 64.0295 34.2259C65.7508 35.9473 65.7593 38.7435 64.0379 40.4649Z" fill="white"/>
<path d="M24.9363 59.1393L39.1229 73.3259C42.2516 76.4566 47.3217 76.4589 50.4527 73.3259L74.5001 49.2792C76.2507 47.529 77.085 45.1143 76.7888 42.6563L75.2636 29.994C75.0795 28.467 74.4709 27.0818 73.5641 25.9478L79.2443 20.2675C79.5918 19.9201 79.5918 19.3572 79.2443 19.0098C78.8969 18.6624 78.3341 18.6624 77.9867 19.0098L72.3053 24.6912C71.1729 23.7882 69.7911 23.182 68.268 22.9984L55.6066 21.4732C53.1471 21.1797 50.7346 22.0126 48.9837 23.7628L24.9363 47.8095C21.8129 50.9337 21.8129 56.0159 24.9363 59.1393ZM50.2413 25.0204C51.5573 23.705 53.4131 23.0025 55.3938 23.2398L68.0553 24.765C69.1699 24.8989 70.1844 25.3275 71.0347 25.9616L63.9724 33.0239C61.8926 31.5427 59.0192 31.7463 57.1688 33.5969C55.1042 35.6614 55.1042 39.0212 57.1688 41.0859C59.2385 43.1563 62.6036 43.1565 64.6656 41.0937C66.5155 39.2439 66.6916 36.3589 65.2228 34.2892L72.2931 27.2189C72.9311 28.0712 73.3629 29.0885 73.4977 30.2069L75.0229 42.8683C75.2531 44.7819 74.6042 46.6596 73.2423 48.0217L49.195 72.0683C46.7606 74.5035 42.8169 74.5055 40.3805 72.0683L26.1939 57.8816C23.764 55.4522 23.7645 51.4974 26.1939 49.0672L50.2413 25.0204ZM63.3994 34.8545C64.7617 36.2168 64.7944 38.4491 63.4076 39.8359C62.0489 41.1937 59.8177 41.2186 58.4263 39.8281C57.0551 38.4566 57.0551 36.2261 58.4263 34.8545C59.8019 33.48 62.0308 33.4866 63.3994 34.8545Z" fill="#42526E"/>
<path d="M48.7834 57.033C49.1309 57.3805 49.6937 57.3805 50.0411 57.033C50.3885 56.6856 50.3885 56.1228 50.0411 55.7754L42.487 48.2213C42.1396 47.8738 41.5767 47.8738 41.2293 48.2213C40.8819 48.5687 40.8819 49.1315 41.2293 49.4789L48.7834 57.033Z" fill="#42526E"/>
</g>
<defs>
<clipPath id="clip0_9302_10257">
<rect width="100" height="100" fill="white"/>
</clipPath>
</defs>
</svg>
