<svg width="100" height="100" viewBox="0 0 100 100" fill="none" xmlns="http://www.w3.org/2000/svg">
<path d="M87.0847 87.6698C81.1862 90.61 73.5021 89.4376 68.7759 84.8739C65.5833 81.7893 63.7974 77.5323 60.803 74.2674C55.1933 68.1526 45.2903 66.5292 38.021 70.5155C29.4134 75.2514 24.1566 87.6936 13.5974 88.1026C7.69894 88.3372 2.01691 83.5389 1.25929 77.6948C0.501675 71.8325 4.75871 65.7536 10.531 64.4729C19.0263 62.5385 21.2263 58.5329 13.0023 49.9704C8.79562 45.6348 5.97492 40.7907 10.4228 34.9446C14.4853 29.6942 23.4118 27.7473 31.0403 32.4192C43.6708 40.1872 32.9589 39.435 43.1079 25.0237C52.6745 11.3079 63.3864 20.9663 70.0929 21.7227C76.37 22.4624 82.5571 18.53 88.7984 19.5581C98.4636 21.1557 102.249 33.2251 95.1837 40.0495C90.6562 44.4327 83.423 44.6852 78.3902 48.4372C74.3021 51.4925 74.9263 55.3526 78.8773 56.7708C103.995 65.7885 96.6001 82.8829 87.0847 87.6698Z" fill="#E9F3FF"/>
<path d="M20.9381 10.7208C15.825 10.8048 13.7358 16.5109 20.1114 21.2198C27.0793 26.3665 32.252 22.5355 32.1911 18.8976C32.1362 15.6286 27.2567 10.6171 20.9381 10.7208Z" fill="#E9F3FF"/>
<path d="M67.5074 76.6671L61.3875 75.696L57.2096 80.27L50.0037 59.5978L42.7978 80.27L38.6199 75.696L32.5 76.6671L41.5586 50.731L50.0037 53.6823L58.449 50.731L67.5074 76.6671Z" fill="#367DCB"/>
<path d="M70.2061 44.7918L70.1936 44.8086C69.2778 46.0405 68.791 47.5387 68.8082 49.0737L68.8084 49.0895C68.8428 52.1889 66.8399 54.944 63.8809 55.8672L63.8711 55.8703C62.4014 56.3289 61.1235 57.2578 60.2338 58.5143L60.2332 58.5151C58.4395 61.0485 55.1944 62.1024 52.2543 61.1067C50.7944 60.6123 49.2123 60.6121 47.7524 61.1065L47.7494 61.1074C44.81 62.1028 41.5658 61.0492 39.7719 58.5168L39.7698 58.5137C38.8799 57.2574 37.6016 56.3287 36.1317 55.8705L36.1199 55.8668C33.1612 54.9444 31.1576 52.1905 31.191 49.0912L31.1912 49.0727C31.2076 47.5383 30.7209 46.041 29.8055 44.8096L29.7924 44.792C27.9444 42.3065 27.9442 38.9032 29.792 36.4174L29.8061 36.3985C30.7213 35.1672 31.208 33.6699 31.1914 32.1358L31.1912 32.1141C31.1578 29.0158 33.16 26.2623 36.1178 25.3391L36.1324 25.3346C37.6018 24.876 38.8795 23.9469 39.7692 22.6907L39.7719 22.6867C41.5653 20.1537 44.8094 19.0994 47.749 20.0942L47.7539 20.0957C49.2129 20.5895 50.7938 20.5893 52.2528 20.0957L52.2557 20.0948C55.1961 19.0998 58.4408 20.1547 60.234 22.6885L60.2356 22.6907C61.1246 23.9471 62.4022 24.8764 63.8713 25.3354L63.8842 25.3395C66.842 26.2637 68.8438 29.0184 68.8088 32.1172L68.8086 32.1354C68.7914 33.6705 69.278 35.1688 70.1938 36.401L70.2067 36.4182C72.0539 38.9035 72.0537 42.3063 70.2061 44.7918Z" fill="white"/>
<path d="M70.2061 44.7918L70.1936 44.8086C69.2778 46.0405 68.791 47.5387 68.8082 49.0737L68.8084 49.0895C68.8428 52.1889 66.8399 54.944 63.8809 55.8672L63.8711 55.8703C62.4014 56.3289 61.1235 57.2578 60.2338 58.5143L60.2332 58.5151C58.4395 61.0485 55.1944 62.1024 52.2543 61.1067C50.7944 60.6123 49.2123 60.6121 47.7524 61.1065L47.7494 61.1074C44.81 62.1028 41.5658 61.0492 39.7719 58.5168L39.7698 58.5137C38.8799 57.2574 37.6016 56.3287 36.1317 55.8705L36.1199 55.8668C33.1612 54.9444 31.1576 52.1905 31.191 49.0912L31.1912 49.0727C31.2076 47.5383 30.7209 46.041 29.8055 44.8096L29.7924 44.792C27.9444 42.3065 27.9442 38.9032 29.792 36.4174L29.8061 36.3985C30.7213 35.1672 31.208 33.6699 31.1914 32.1358L31.1912 32.1141C31.1578 29.0158 33.16 26.2623 36.1178 25.3391L36.1324 25.3346C37.6018 24.876 38.8795 23.9469 39.7692 22.6907L39.7719 22.6867C41.5653 20.1537 44.8094 19.0994 47.749 20.0942L47.7539 20.0957C49.2129 20.5895 50.7938 20.5893 52.2528 20.0957L52.2557 20.0948C55.1961 19.0998 58.4408 20.1547 60.234 22.6885L60.2356 22.6907C61.1246 23.9471 62.4022 24.8764 63.8713 25.3354L63.8842 25.3395C66.842 26.2637 68.8438 29.0184 68.8088 32.1172L68.8086 32.1354C68.7914 33.6705 69.278 35.1688 70.1938 36.401L70.2067 36.4182C72.0539 38.9035 72.0537 42.3063 70.2061 44.7918Z" fill="#BAD9FF"/>
<path d="M63.6207 40.5954C63.6207 48.1231 57.5242 54.2198 49.9963 54.2198C42.4793 54.2198 36.3828 48.1233 36.3828 40.5954C36.3828 33.0786 42.4793 26.9819 49.9963 26.9819C57.5242 26.9819 63.6207 33.0784 63.6207 40.5954Z" fill="white"/>
<path d="M54.2558 43.1926L54.6318 45.3809C54.8269 46.516 53.6353 47.3821 52.6157 46.8461L50.6484 45.8119C50.2435 45.599 49.7597 45.599 49.3548 45.8121L47.3896 46.8459C46.3702 47.3821 45.1786 46.5168 45.373 45.3817L45.7478 43.1918C45.8249 42.7412 45.6755 42.2813 45.348 41.9621L43.7572 40.4117C42.9323 39.6078 43.3874 38.2071 44.5271 38.0414L46.7265 37.7219C47.1792 37.6561 47.5704 37.3717 47.773 36.9615L48.7562 34.9682C49.2656 33.9354 50.7382 33.935 51.2482 34.9676L52.2333 36.9623C52.4359 37.3723 52.8269 37.6563 53.2794 37.7221L55.4779 38.0416C56.6179 38.2073 57.0728 39.6086 56.2474 40.4123L54.6558 41.9621C54.3279 42.2811 54.1782 42.7414 54.2558 43.1926Z" fill="#367DCB"/>
<path d="M69.7876 32.1277C69.8276 28.5705 67.5731 25.4681 64.1651 24.4039C62.9073 24.0099 61.7952 23.2013 61.0333 22.1246C59.0058 19.2597 55.2679 18.0437 51.9419 19.1701C50.6935 19.5945 49.3179 19.5945 48.0694 19.1701C48.0589 19.1662 48.048 19.1634 48.0366 19.1595C44.7202 18.0533 40.9985 19.2664 38.9743 22.1255C38.2134 23.2013 37.1013 24.0099 35.829 24.4078C32.4335 25.4673 30.1784 28.5687 30.2171 32.1468C30.2314 33.4591 29.8079 34.7619 29.0103 35.8347C26.8898 38.688 26.8903 42.5218 29.0245 45.3925C29.8075 46.4455 30.231 47.749 30.2167 49.0804C30.179 52.6386 32.4355 55.741 35.8439 56.8033C36.6341 57.049 37.3538 57.4746 37.9788 58.0132L31.5763 76.3451C31.4628 76.6703 31.528 77.0298 31.7483 77.2939C31.969 77.5562 32.311 77.6879 32.6511 77.6316L38.2515 76.7437L42.0747 80.9295C42.3065 81.1832 42.6556 81.2947 42.9921 81.2269C43.3288 81.1582 43.6044 80.917 43.7179 80.5918L50.0017 62.5652L56.2849 80.5916C56.3983 80.9168 56.6739 81.158 57.0106 81.2267C57.3583 81.2978 57.7028 81.1752 57.928 80.9293L61.7513 76.7435L67.3517 77.6314C67.6917 77.6886 68.0341 77.556 68.2544 77.2937C68.4747 77.0295 68.5399 76.6701 68.4265 76.3449L62.0253 58.0172C62.6517 57.4769 63.3757 57.049 64.1741 56.8002C67.5712 55.7396 69.8271 52.6375 69.787 49.063C69.7722 47.7498 70.1956 46.4463 70.9767 45.3943L70.9896 45.3771L70.9925 45.3742C73.113 42.5218 73.113 38.688 70.9796 35.8183C70.1958 34.7636 69.7724 33.4599 69.7876 32.1277ZM42.4124 78.4027L39.3388 75.0373C39.1523 74.8332 38.8896 74.7197 38.6179 74.7197C38.5673 74.7197 38.5159 74.7236 38.4648 74.732L33.9587 75.4463L39.47 59.6668C41.4767 61.982 44.7896 63.1105 48.1243 62.017L42.4124 78.4027ZM61.5384 74.7322C61.2169 74.6769 60.8856 74.7951 60.6644 75.0375L57.5907 78.4029L51.8786 62.0158C55.2474 63.1134 58.539 61.9892 60.5407 59.689L66.0444 75.4464L61.5384 74.7322ZM69.4247 44.2088L69.4118 44.2259C68.3751 45.622 67.8144 47.3472 67.8339 49.1002C67.864 51.7896 66.1597 54.1345 63.5823 54.9386C61.9181 55.4574 60.4462 56.5275 59.4386 57.9504C57.9056 60.1152 55.0804 61.0336 52.5702 60.182C50.9161 59.6213 49.0954 59.6203 47.4386 60.182C44.9284 61.0355 42.1038 60.1162 40.5692 57.9494C39.5612 56.5265 38.0892 55.4564 36.4126 54.9339C33.8462 54.1347 32.1411 51.7906 32.1702 49.0832C32.1884 47.3457 31.628 45.6205 30.5786 44.2099C28.9755 42.0537 28.9755 39.1564 30.5925 36.981C31.6286 35.5867 32.1894 33.8625 32.1704 32.1039C32.1409 29.4164 33.845 27.0722 36.4257 26.2664C38.0899 25.7476 39.5614 24.6775 40.5708 23.2509C42.1054 21.083 44.9296 20.1722 47.4388 21.0193C47.4493 21.0232 47.4597 21.0259 47.4712 21.0298C49.1163 21.5793 50.9259 21.5773 52.571 21.0193C55.0839 20.1687 57.9073 21.088 59.4407 23.2556C60.4474 24.6775 61.9179 25.7466 63.595 26.2711C66.1614 27.073 67.8646 29.4181 67.8347 32.1238C67.8146 33.8613 68.3749 35.5875 69.4249 37.0009C71.0278 39.1562 71.0278 42.0535 69.4247 44.2088Z" fill="#42526E"/>
<path d="M49.9961 26.0051C41.9514 26.0051 35.4062 32.5502 35.4062 40.5954C35.4062 48.6463 41.9514 55.1961 49.9961 55.1961C58.0471 55.1961 64.5969 48.6463 64.5969 40.5954C64.5969 32.5502 58.0471 26.0051 49.9961 26.0051ZM49.9961 53.243C43.0281 53.243 37.3594 47.5696 37.3594 40.5954C37.3594 33.6268 43.0279 27.9583 49.9961 27.9583C56.9699 27.9583 62.6437 33.6268 62.6437 40.5954C62.6437 47.5696 56.9699 53.243 49.9961 53.243Z" fill="#42526E"/>
<path d="M55.6187 37.0754L53.4204 36.7559C53.286 36.7357 53.1696 36.651 53.1091 36.5289L52.1239 34.5348C51.722 33.7213 50.9095 33.2168 50.0021 33.2168C50.0021 33.2168 50.0017 33.2168 50.0011 33.2168C49.0941 33.2168 48.2816 33.7223 47.8806 34.5357L46.8974 36.5289C46.8372 36.651 46.721 36.7359 46.5864 36.7559L44.3868 37.0754C43.489 37.2061 42.757 37.823 42.4767 38.6861C42.1968 39.5482 42.4261 40.4781 43.0755 41.1104L44.6663 42.6609C44.764 42.7563 44.8085 42.8928 44.7855 43.0262L44.4107 45.2168C44.2575 46.1104 44.6181 46.9973 45.3519 47.5305C46.0773 48.0574 47.0339 48.1367 47.8448 47.7098L49.8089 46.677C49.929 46.6121 50.0732 46.6121 50.1943 46.676L52.1616 47.7098C52.9632 48.1322 53.9183 48.0627 54.6536 47.5295C55.388 46.9965 55.7484 46.1094 55.5944 45.2158L55.2183 43.0271C55.1958 42.8928 55.2402 42.7562 55.3374 42.6619L56.929 41.1121C57.5794 40.4779 57.8093 39.548 57.5284 38.685C57.248 37.8221 56.5155 37.2051 55.6187 37.0754ZM55.5661 39.7123L53.9739 41.2629C53.4161 41.8064 53.1618 42.5895 53.2931 43.3572H53.2935L53.6696 45.5459C53.7073 45.7662 53.5829 45.893 53.5052 45.9502C53.4275 46.0055 53.2677 46.0838 53.0702 45.9816L51.1023 44.9469C50.4138 44.5863 49.5902 44.5854 48.8997 44.9479L46.9351 45.9816C46.7376 46.0836 46.5775 46.0055 46.4997 45.9502C46.422 45.8939 46.298 45.7662 46.3357 45.5469L46.7101 43.3563C46.8417 42.5895 46.5876 41.8064 46.0296 41.2629L44.4384 39.7123C44.2786 39.5559 44.3044 39.3805 44.3339 39.2889C44.3634 39.1982 44.4464 39.04 44.6673 39.0076L46.8665 38.6881C47.638 38.5766 48.3042 38.092 48.6489 37.393L49.6321 35.3998C49.7308 35.1996 49.9058 35.1699 50.0017 35.1699C50.098 35.1699 50.2736 35.1994 50.3726 35.4008L51.3577 37.3949C51.703 38.093 52.3687 38.5766 53.1388 38.6881L55.338 39.0076C55.5583 39.04 55.6413 39.1975 55.6708 39.2889C55.7003 39.3803 55.7265 39.5568 55.5661 39.7123Z" fill="#42526E"/>
</svg>
