<svg width="100" height="100" viewBox="0 0 100 100" fill="none" xmlns="http://www.w3.org/2000/svg">
<path d="M86.3894 84.724C80.4909 87.6642 72.8068 86.4918 68.0806 81.9281C64.888 78.8435 63.1021 74.5865 60.1077 71.3216C54.498 65.2066 44.595 63.5834 37.3257 67.5697C28.7181 72.3056 23.4612 84.7478 12.9021 85.1568C7.00363 85.3914 1.3216 80.5931 0.56398 74.749C-0.193637 68.8867 4.06339 62.8078 9.83566 61.5271C18.331 59.5927 20.531 55.5871 12.3069 47.0246C8.10031 42.689 5.2796 37.8449 9.72746 31.9988C13.79 26.7484 22.7165 24.8015 30.345 29.4734C42.9755 37.2414 32.2636 36.4892 42.4126 22.0779C51.9792 8.36208 62.6911 18.0205 69.3976 18.7769C75.6747 19.5166 81.8618 15.5842 88.103 16.6123C97.7683 18.2099 101.554 30.2793 94.4884 37.1037C89.9609 41.4869 82.7277 41.7394 77.6948 45.4914C73.6068 48.5466 74.231 52.4068 78.1819 53.825C103.3 62.8427 95.905 79.9371 86.3894 84.724Z" fill="#E9F3FF"/>
<path d="M20.2428 7.77527C15.1297 7.85926 13.0405 13.5653 19.4161 18.2743C26.384 23.421 31.5567 19.5899 31.4957 15.952C31.4411 12.6829 26.5614 7.67137 20.2428 7.77527Z" fill="#E9F3FF"/>
<path d="M79.5717 29.6375V29.3735C79.5717 26.5135 77.2658 24.1819 74.393 24.1819H24.21C21.3436 24.1819 19.0312 26.5135 19.0312 29.3735V64.729V64.7354H24.21H59.9584H64.5187H74.3994L79.5717 29.6375Z" fill="white"/>
<path d="M24.2123 34.5647V69.9257C21.3428 69.9257 19.0312 67.6011 19.0312 64.7315V29.3706C19.0314 32.2337 21.3428 34.5647 24.2123 34.5647Z" fill="#367DCB"/>
<path d="M74.3984 34.5647V69.9257C77.268 69.9257 79.5795 67.6011 79.5795 64.7315V29.3706C79.5795 32.2337 77.268 34.5647 74.3984 34.5647Z" fill="#367DCB"/>
<path d="M64.5213 58.7644V69.9271L62.2412 67.8464L59.9609 69.9271V58.7644" fill="#BAD9FF"/>
<path d="M67.445 55.5134L67.4465 55.5179C67.7487 56.3505 67.1118 57.2242 66.2268 57.1914H66.226C65.6522 57.1701 65.1377 57.5429 64.9795 58.0951L64.978 58.1001C64.7336 58.9525 63.7036 59.2857 63.0065 58.7378C62.5538 58.382 61.9165 58.382 61.4637 58.7378C60.7666 59.2857 59.7364 58.9525 59.4922 58.1001L59.4907 58.0951C59.3325 57.5431 58.8182 57.1701 58.2442 57.1914H58.2434C57.3583 57.2242 56.7213 56.3505 57.0237 55.5179L57.0252 55.5134C57.2206 54.9753 57.0249 54.3736 56.5506 54.0531L56.5417 54.047C55.809 53.5519 55.809 52.4732 56.5417 51.9781L56.5506 51.972C57.0249 51.6515 57.2206 51.0498 57.0252 50.5117L57.0223 50.5037C56.7206 49.672 57.3557 48.799 58.2399 48.83L58.2465 48.8302C58.8194 48.8503 59.3323 48.4779 59.4905 47.9271L59.4922 47.9207C59.7366 47.0695 60.7651 46.7363 61.4622 47.2824L61.4651 47.2845C61.9172 47.6388 62.5528 47.6388 63.0051 47.2845L63.0081 47.2824C63.7051 46.7361 64.7336 47.0693 64.978 47.9207L64.9797 47.9271C65.1379 48.4781 65.6508 48.8505 66.2237 48.8302L66.2303 48.83C67.1145 48.7988 67.7497 49.6718 67.4479 50.5037L67.445 50.5117C67.2497 51.0498 67.4454 51.6515 67.9196 51.972L67.9286 51.9781C68.6612 52.4732 68.6612 53.5519 67.9286 54.047L67.9196 54.0531C67.4454 54.3736 67.2497 54.9753 67.445 55.5134Z" fill="#367DCB"/>
<path d="M64.3492 53.0125C64.3492 54.1754 63.4039 55.1176 62.241 55.1176C61.0781 55.1176 60.1328 54.1754 60.1328 53.0125C60.1328 51.8465 61.0781 50.9043 62.241 50.9043C63.4037 50.9041 64.3492 51.8465 64.3492 53.0125Z" fill="white"/>
<path d="M74.3932 23.2053H24.2098C20.8168 23.2053 18.0566 25.9708 18.0549 29.37C18.0549 29.3704 18.0547 29.3704 18.0547 29.3708V29.3731V64.7315V64.7354C18.0547 64.7358 18.0549 64.7362 18.0549 64.7366C18.0576 68.1368 20.8188 70.9022 24.2121 70.9022C24.7514 70.9022 25.1887 70.4649 25.1887 69.9256V65.7118H58.9816V69.9266C58.9816 70.3133 59.21 70.6637 59.5639 70.8202C59.9172 70.9756 60.3311 70.9088 60.6162 70.6481L62.2385 69.168L63.8607 70.6481C64.1441 70.9065 64.5555 70.9776 64.9131 70.8202C65.267 70.6637 65.4953 70.3133 65.4953 69.9266V65.7118H73.4203V69.9256C73.4203 70.4649 73.8576 70.9022 74.3969 70.9022C77.7924 70.9022 80.5547 68.1342 80.5547 64.7315V29.3709C80.5547 29.3551 80.5465 29.3418 80.5457 29.326C80.5199 25.9471 77.7713 23.2053 74.3932 23.2053ZM20.0078 64.7317V64.7288V33.875C20.8838 34.6967 21.9986 35.2655 23.2355 35.4633V68.8342C21.3869 68.3915 20.0078 66.7202 20.0078 64.7317ZM57.091 53.2379C56.9871 53.1674 56.9713 53.0668 56.9713 53.0129C56.9713 52.9586 56.9871 52.8581 57.1006 52.7811C57.9475 52.2084 58.2951 51.1383 57.9432 50.1704C57.9002 50.0522 57.9471 49.9616 57.9789 49.9176C58.0113 49.8747 58.1092 49.8012 58.2148 49.8065C59.2391 49.8413 60.1488 49.1799 60.434 48.1901C60.4684 48.069 60.56 48.0233 60.6109 48.0065C60.6625 47.9903 60.7641 47.9731 60.8656 48.0538C61.6748 48.686 62.8029 48.6866 63.6131 48.0514C63.707 47.9793 63.802 47.9866 63.8645 48.0067C63.916 48.0233 64.0074 48.0696 64.0441 48.1975C64.327 49.1813 65.2357 49.8555 66.2676 49.8063C66.3801 49.7977 66.465 49.8741 66.4969 49.9178C66.5287 49.9616 66.5756 50.0522 66.5297 50.1782C66.1807 51.1385 66.5283 52.2086 67.3846 52.7874C67.4885 52.8579 67.5043 52.9584 67.5043 53.0129C67.5043 53.0668 67.4885 53.1674 67.375 53.2442C66.5281 53.8168 66.1805 54.887 66.5295 55.8473C66.5623 55.9457 66.5637 55.95 66.5309 55.8516C66.5715 55.9637 66.5338 56.0504 66.4951 56.104C66.4631 56.1479 66.3912 56.2332 66.2648 56.2155C65.2396 56.193 64.326 56.8397 64.0414 57.8315C64.0086 57.9463 63.927 57.995 63.8641 58.0151C63.8121 58.0317 63.7115 58.0475 63.6123 57.9698C62.8025 57.3346 61.673 57.3342 60.8623 57.9702C60.7646 58.0475 60.6629 58.0327 60.6109 58.0149C60.548 57.9948 60.4664 57.9461 60.432 57.8256C60.1564 56.8666 59.2848 56.2139 58.2939 56.2139C58.175 56.2139 58.0779 56.2377 57.9797 56.1041C57.9477 56.0602 57.901 55.9698 57.9453 55.8471C58.2951 54.887 57.9475 53.8168 57.091 53.2379ZM63.5422 67.7137L62.8965 67.1249C62.5236 66.7844 61.9533 66.7844 61.5805 67.1249L60.9348 67.7137V59.962C61.3426 59.9176 61.7367 59.7672 62.0697 59.5059C62.1699 59.4278 62.3082 59.4291 62.4064 59.5055C62.7398 59.767 63.1348 59.9112 63.5422 59.9557V67.7137ZM65.4953 63.7588V59.1508C65.6826 58.9204 65.8363 58.6604 65.9211 58.3645C65.9549 58.2438 66.0693 58.1438 66.1934 58.1676C66.9168 58.1928 67.6377 57.854 68.074 57.2545C68.5107 56.6557 68.6205 55.8817 68.385 55.2379L68.3836 55.2333C68.3779 55.2151 68.3721 55.1975 68.366 55.1799C68.3236 55.0631 68.366 54.9325 68.4781 54.8567C69.0918 54.4422 69.458 53.7534 69.458 53.0133C69.458 52.2727 69.0918 51.5838 68.4695 51.1631C68.366 51.0936 68.3236 50.9629 68.3689 50.8375C68.6217 50.1415 68.5125 49.3684 68.0766 48.7696C67.6412 48.1708 66.9441 47.8208 66.1926 47.8549C66.082 47.8536 65.9557 47.7782 65.9193 47.6514C65.7148 46.9391 65.1711 46.3774 64.466 46.1489C63.7621 45.9213 62.9922 46.0573 62.4061 46.5161C62.3078 46.5934 62.1695 46.5938 62.0676 46.5147C61.484 46.0579 60.7152 45.9202 60.0096 46.1495C59.3043 46.3778 58.7611 46.9395 58.5553 47.6583C58.5205 47.779 58.4084 47.8829 58.2773 47.8547C57.5488 47.8247 56.8359 48.1709 56.4 48.7698C55.9641 49.3686 55.8549 50.1417 56.1105 50.8463C56.1529 50.9631 56.1105 51.0938 55.9984 51.1696C55.3848 51.584 55.0186 52.2729 55.0186 53.0135C55.0186 53.7536 55.3848 54.4426 56.007 54.8631C56.1105 54.9327 56.1529 55.0633 56.109 55.1854C55.8559 55.8821 55.9654 56.6555 56.4021 57.2543C56.8385 57.8538 57.5389 58.1899 58.2842 58.168C58.401 58.1479 58.5201 58.2444 58.5564 58.3698C58.6408 58.6641 58.7943 58.9233 58.9818 59.1534V63.7596H25.1889V34.5645C25.1889 34.0252 24.7516 33.5879 24.2123 33.5879C21.8943 33.5879 20.0088 31.6969 20.0082 29.3719C20.009 27.0483 21.8934 25.1584 24.21 25.1584H74.3932C76.7102 25.1584 78.5951 27.0491 78.5951 29.3733V29.4372C78.5588 31.7315 76.6928 33.5881 74.3971 33.5881C73.8578 33.5881 73.4205 34.0254 73.4205 34.5647V63.759H65.4953V63.7588ZM78.6016 64.7317C78.6016 66.7202 77.2225 68.3918 75.3734 68.8344C75.3734 61.0495 75.3734 44.3413 75.3734 35.4635C76.6103 35.2657 77.7256 34.6967 78.6016 33.8752V64.7317Z" fill="#42526E"/>
<path d="M67.0285 32.9023H31.5781C31.0389 32.9023 30.6016 33.3396 30.6016 33.8789C30.6016 34.4182 31.0389 34.8555 31.5781 34.8555H67.0285C67.5678 34.8555 68.0051 34.4182 68.0051 33.8789C68.0051 33.3396 67.5678 32.9023 67.0285 32.9023Z" fill="#42526E"/>
<path d="M67.0285 38.9395H31.5781C31.0389 38.9395 30.6016 39.3768 30.6016 39.916C30.6016 40.4553 31.0389 40.8926 31.5781 40.8926H67.0285C67.5678 40.8926 68.0051 40.4553 68.0051 39.916C68.0051 39.3768 67.5678 38.9395 67.0285 38.9395Z" fill="#42526E"/>
<path d="M51.4355 44.9763H31.5781C31.0389 44.9763 30.6016 45.4136 30.6016 45.9529C30.6016 46.4921 31.0389 46.9294 31.5781 46.9294H51.4355C51.9748 46.9294 52.4121 46.4921 52.4121 45.9529C52.4121 45.4136 51.9748 44.9763 51.4355 44.9763Z" fill="#42526E"/>
<path d="M62.2408 56.0941C63.9416 56.0941 65.3254 54.7117 65.3254 53.0123C65.3254 51.3115 63.9416 49.9277 62.2408 49.9277C60.54 49.9277 59.1563 51.3115 59.1563 53.0123C59.1561 54.7119 60.5398 56.0941 62.2408 56.0941ZM62.2408 51.8809C62.8645 51.8809 63.3723 52.3887 63.3723 53.0123C63.3723 53.6346 62.8645 54.141 62.2408 54.141C61.6172 54.141 61.1094 53.6346 61.1094 53.0123C61.1092 52.3887 61.617 51.8809 62.2408 51.8809Z" fill="#42526E"/>
</svg>
