<svg width="200" height="32" viewBox="0 0 200 32" fill="none" xmlns="http://www.w3.org/2000/svg">
<g id="logo" opacity="0.7">
<path id="Vector" d="M159.16 6.0597C159.567 6.0597 159.917 5.99336 160.21 5.8607C160.503 5.72139 160.81 5.50249 161.13 5.20398L161.89 5.9801C161.15 6.79602 160.25 7.20398 159.19 7.20398C158.137 7.20398 157.26 6.86567 156.56 6.18905C155.867 5.51244 155.52 4.65672 155.52 3.62189C155.52 2.58706 155.873 1.72471 156.58 1.03483C157.293 0.344945 158.19 0 159.27 0C160.357 0 161.263 0.39801 161.99 1.19403L161.24 2.00995C160.907 1.69154 160.59 1.46932 160.29 1.34328C159.997 1.21724 159.65 1.15423 159.25 1.15423C158.543 1.15423 157.95 1.38308 157.47 1.8408C156.99 2.29187 156.75 2.87231 156.75 3.58209C156.75 4.28524 156.987 4.87562 157.46 5.35323C157.94 5.82421 158.507 6.0597 159.16 6.0597ZM164.123 5.54229L163.423 7.12438H162.163L165.243 0.169154H166.503L169.583 7.12438H168.323L167.623 5.54229H164.123ZM167.143 4.45771L165.873 1.59204L164.603 4.45771H167.143ZM175.595 0.169154H176.775V7.12438H175.495L171.535 2.04975V7.12438H170.355V0.169154H171.535L175.595 5.36318V0.169154ZM179.505 5.54229L178.805 7.12438H177.545L180.625 0.169154H181.885L184.965 7.12438H183.705L183.005 5.54229H179.505ZM182.525 4.45771L181.255 1.59204L179.985 4.45771H182.525ZM188.136 0.169154C189.39 0.169154 190.353 0.474299 191.026 1.08458C191.7 1.68823 192.036 2.53068 192.036 3.61194C192.036 4.6932 191.71 5.54893 191.056 6.1791C190.403 6.80928 189.403 7.12438 188.056 7.12438H185.736V0.169154H188.136ZM190.846 3.64179C190.846 2.04975 189.93 1.25373 188.096 1.25373H186.916V6.0199H188.226C189.073 6.0199 189.72 5.8209 190.166 5.42289C190.62 5.01824 190.846 4.42455 190.846 3.64179ZM194.349 5.54229L193.649 7.12438H192.389L195.469 0.169154H196.729L199.809 7.12438H198.549L197.849 5.54229H194.349ZM197.369 4.45771L196.099 1.59204L194.829 4.45771H197.369Z" fill="white"/>
<g id="Clip path group">
<mask id="mask0_1_151" style="mask-type:luminance" maskUnits="userSpaceOnUse" x="0" y="2" width="200" height="30">
<g id="clip0_521_144">
<path id="Subtract" fill-rule="evenodd" clip-rule="evenodd" d="M156 6.62679C156 10.1987 153.09 13.0944 149.5 13.0944C145.91 13.0944 143 10.1987 143 6.62679C143 4.88899 143.689 3.31126 144.81 2.14917H0V31.9999H200V2.14917H154.19C155.311 3.31126 156 4.88899 156 6.62679Z" fill="white"/>
</g>
</mask>
<g mask="url(#mask0_1_151)">
<g id="Group">
<path id="Subtract_2" fill-rule="evenodd" clip-rule="evenodd" d="M35.8832 11.6782C34.8371 12.5616 33.4826 13.0945 32.003 13.0945C30.786 13.0945 29.6536 12.734 28.7079 12.1145V31.0525H35.8832V11.6782ZM0.307617 9.8252V31.0525H6.84443V21.7053L11.4658 29.142H14.6278L19.2584 21.37L19.31 31.0525H25.8468L25.786 9.8252H19.8877L13.1459 21.1228L6.20595 9.8252H0.307617ZM38.7292 9.8252V31.0525H45.7221V21.3999L53.8098 31.0525H59.7081V9.8252H52.7152V19.4776L44.6276 9.8252H38.7292ZM69.6107 22.8648V25.6546H80.252V31.0525H62.557V9.8252H79.8568V15.223H69.6107V17.7096H78.6102V22.8648H69.6107Z" fill="white"/>
<path id="Vector_2" d="M82.4067 31.0522V9.82502H92.896C95.2675 9.82502 97.355 10.2596 99.1592 11.129C100.963 11.9781 102.372 13.1911 103.385 14.7679C104.399 16.3448 104.906 18.2249 104.906 20.4083C104.906 22.6119 104.399 24.5122 103.385 26.1093C102.372 27.6862 100.963 28.9093 99.1592 29.7785C97.355 30.6277 95.2675 31.0522 92.896 31.0522H82.4067ZM89.582 25.4725H92.592C93.6053 25.4725 94.487 25.2804 95.2371 24.8964C96.0072 24.5122 96.6053 23.9462 97.031 23.1982C97.4566 22.43 97.6694 21.4999 97.6694 20.4083C97.6694 19.3369 97.4566 18.4271 97.031 17.679C96.6053 16.9311 96.0072 16.365 95.2371 15.9809C94.487 15.5968 93.6053 15.4047 92.592 15.4047H89.582V25.4725ZM113.485 17.7094H122.971V22.8646H113.485V17.7094ZM113.971 25.6545H124.612V31.0522H106.917V9.82502H124.217V15.2228H113.971V25.6545ZM134.702 31.5375C132.918 31.5375 131.195 31.3353 129.533 30.9309C127.871 30.5266 126.503 30.0009 125.429 29.3541L127.739 24.1383C128.753 24.7245 129.878 25.1995 131.114 25.5634C132.371 25.9071 133.587 26.0789 134.763 26.0789C135.452 26.0789 135.989 26.0386 136.374 25.9577C136.779 25.8567 137.073 25.7252 137.256 25.5634C137.438 25.3815 137.529 25.1693 137.529 24.9266C137.529 24.5425 137.316 24.2392 136.891 24.017C136.465 23.7946 135.897 23.6126 135.188 23.4711C134.499 23.3094 133.739 23.1476 132.908 22.9859C132.077 22.8039 131.236 22.5714 130.384 22.2884C129.554 22.0054 128.783 21.6314 128.074 21.1664C127.384 20.7014 126.827 20.095 126.402 19.3469C125.976 18.5787 125.763 17.6285 125.763 16.4965C125.763 15.1823 126.128 13.9896 126.858 12.9182C127.608 11.8264 128.712 10.9572 130.172 10.3102C131.651 9.66333 133.486 9.33984 135.675 9.33984C137.114 9.33984 138.533 9.49149 139.931 9.79467C141.33 10.098 142.586 10.5629 143.701 11.1896L141.543 16.3752C140.488 15.8495 139.465 15.4553 138.472 15.1925C137.499 14.9296 136.546 14.7983 135.614 14.7983C134.925 14.7983 134.377 14.8589 133.972 14.9802C133.567 15.1015 133.273 15.2632 133.09 15.4654C132.928 15.6676 132.847 15.8899 132.847 16.1326C132.847 16.4965 133.06 16.7896 133.486 17.012C133.911 17.2142 134.468 17.3859 135.158 17.5275C135.867 17.669 136.638 17.8206 137.468 17.9823C138.32 18.144 139.161 18.3664 139.992 18.6495C140.823 18.9325 141.583 19.3065 142.272 19.7715C142.982 20.2365 143.549 20.8429 143.975 21.591C144.401 22.3389 144.613 23.2689 144.613 24.3808C144.613 25.6747 144.239 26.8674 143.488 27.9591C142.759 29.0306 141.664 29.8998 140.205 30.567C138.745 31.214 136.911 31.5375 134.702 31.5375ZM146.141 31.0522V9.82502H153.316V31.0522H146.141ZM167.199 31.5375C165.476 31.5375 163.885 31.2746 162.425 30.749C160.986 30.2031 159.729 29.435 158.655 28.4443C157.601 27.4537 156.78 26.2811 156.192 24.9266C155.604 23.5722 155.311 22.0762 155.311 20.4387C155.311 18.8011 155.604 17.3051 156.192 15.9506C156.78 14.5961 157.611 13.4235 158.686 12.433C159.76 11.4423 161.027 10.6842 162.486 10.1586C163.965 9.61278 165.587 9.33984 167.351 9.33984C169.459 9.33984 171.334 9.69367 172.975 10.4012C174.637 11.1087 176.005 12.1196 177.08 13.4337L172.489 17.4668C171.82 16.6987 171.09 16.1224 170.3 15.7384C169.529 15.334 168.668 15.1318 167.716 15.1318C166.925 15.1318 166.205 15.2531 165.557 15.4958C164.928 15.7384 164.391 16.0921 163.945 16.5571C163.499 17.022 163.155 17.5781 162.912 18.2249C162.668 18.8719 162.547 19.6098 162.547 20.4387C162.547 21.2271 162.668 21.9549 162.912 22.622C163.155 23.2689 163.499 23.8249 163.945 24.2898C164.391 24.7548 164.918 25.1187 165.526 25.3815C166.154 25.6241 166.854 25.7454 167.624 25.7454C168.435 25.7454 169.225 25.6141 169.996 25.3512C170.766 25.0682 171.587 24.5931 172.459 23.9259L176.472 28.8386C175.174 29.7078 173.695 30.375 172.033 30.8399C170.371 31.3049 168.759 31.5375 167.199 31.5375ZM170.239 27.9288V19.8624H176.472V28.8386L170.239 27.9288ZM178.921 31.0522V9.82502H184.819L195.643 22.7433H192.906V9.82502H199.899V31.0522H194.001L183.177 18.134H185.914V31.0522H178.921Z" fill="#8CA0C1"/>
<path id="Vector_3" d="M149.644 11.1518C152.005 11.1518 153.919 9.24255 153.919 6.88744C153.919 4.53228 152.005 2.62305 149.644 2.62305C147.282 2.62305 145.368 4.53228 145.368 6.88744C145.368 9.24255 147.282 11.1518 149.644 11.1518Z" fill="white" stroke="white" stroke-width="2"/>
<path id="Vector_4" d="M32.2785 11.1518C34.6398 11.1518 36.554 9.24255 36.554 6.88744C36.554 4.53228 34.6398 2.62305 32.2785 2.62305C29.9171 2.62305 28.0029 4.53228 28.0029 6.88744C28.0029 9.24255 29.9171 11.1518 32.2785 11.1518Z" fill="#8CA0C1"/>
<path id="Vector_5" d="M149.279 11.1518C151.64 11.1518 153.554 9.24255 153.554 6.88744C153.554 4.53228 151.64 2.62305 149.279 2.62305C146.917 2.62305 145.003 4.53228 145.003 6.88744C145.003 9.24255 146.917 11.1518 149.279 11.1518Z" fill="white"/>
</g>
</g>
</g>
<path id="Vector_6" d="M149.276 11.152C151.637 11.152 153.551 9.24279 153.551 6.88768C153.551 4.53253 151.637 2.62329 149.276 2.62329C146.914 2.62329 145 4.53253 145 6.88768C145 9.24279 146.914 11.152 149.276 11.152Z" fill="white"/>
</g>
</svg>
