<svg width="200" height="46" viewBox="0 0 200 46" fill="none" xmlns="http://www.w3.org/2000/svg">
<path d="M159.16 7.92997C159.567 7.92997 159.917 7.8633 160.21 7.72997C160.503 7.58997 160.81 7.36997 161.13 7.06997L161.89 7.84997C161.15 8.66997 160.25 9.07997 159.19 9.07997C158.137 9.07997 157.26 8.73997 156.56 8.05997C155.867 7.37997 155.52 6.51997 155.52 5.47997C155.52 4.43997 155.873 3.5733 156.58 2.87997C157.293 2.18664 158.19 1.83997 159.27 1.83997C160.357 1.83997 161.263 2.23997 161.99 3.03997L161.24 3.85997C160.907 3.53997 160.59 3.31664 160.29 3.18997C159.997 3.0633 159.65 2.99997 159.25 2.99997C158.543 2.99997 157.95 3.22997 157.47 3.68997C156.99 4.1433 156.75 4.72664 156.75 5.43997C156.75 6.14664 156.987 6.73997 157.46 7.21997C157.94 7.6933 158.507 7.92997 159.16 7.92997ZM164.123 7.40997L163.423 8.99997H162.163L165.243 2.00997H166.503L169.583 8.99997H168.323L167.623 7.40997H164.123ZM167.143 6.31997L165.873 3.43997L164.603 6.31997H167.143ZM175.595 2.00997H176.775V8.99997H175.495L171.535 3.89997V8.99997H170.355V2.00997H171.535L175.595 7.22997V2.00997ZM179.505 7.40997L178.805 8.99997H177.545L180.625 2.00997H181.885L184.965 8.99997H183.705L183.005 7.40997H179.505ZM182.525 6.31997L181.255 3.43997L179.985 6.31997H182.525ZM188.136 2.00997C189.39 2.00997 190.353 2.31664 191.026 2.92997C191.7 3.53664 192.036 4.3833 192.036 5.46997C192.036 6.55664 191.71 7.41664 191.056 8.04997C190.403 8.6833 189.403 8.99997 188.056 8.99997H185.736V2.00997H188.136ZM190.846 5.49997C190.846 3.89997 189.93 3.09997 188.096 3.09997H186.916V7.88997H188.226C189.073 7.88997 189.72 7.68997 190.166 7.28997C190.62 6.8833 190.846 6.28664 190.846 5.49997ZM194.349 7.40997L193.649 8.99997H192.389L195.469 2.00997H196.729L199.809 8.99997H198.549L197.849 7.40997H194.349ZM197.369 6.31997L196.099 3.43997L194.829 6.31997H197.369Z" fill="white"/>
<mask id="mask0_9599_2606" style="mask-type:luminance" maskUnits="userSpaceOnUse" x="0" y="4" width="200" height="30">
<path fill-rule="evenodd" clip-rule="evenodd" d="M156 8.50002C156 12.0898 153.09 15 149.5 15C145.91 15 143 12.0898 143 8.50002C143 6.75352 143.689 5.1679 144.81 4H0V34H200V4H154.19C155.311 5.1679 156 6.75352 156 8.50002Z" fill="white"/>
</mask>
<g mask="url(#mask0_9599_2606)">
<path fill-rule="evenodd" clip-rule="evenodd" d="M35.8832 13.5765C34.8371 14.4643 33.4826 14.9999 32.003 14.9999C30.786 14.9999 29.6536 14.6376 28.7079 14.0149V33.0476H35.8832V13.5765ZM0.307617 11.7142V33.0476H6.84443V23.6537L11.4658 31.1276H14.6278L19.2584 23.3167L19.31 33.0476H25.8468L25.786 11.7142H19.8877L13.1459 23.0683L6.20595 11.7142H0.307617ZM38.7292 11.7142V33.0476H45.7221V23.3468L53.8098 33.0476H59.7081V11.7142H52.7152V21.4149L44.6276 11.7142H38.7292ZM69.6107 24.819V27.6228H80.252V33.0476H62.557V11.7142H79.8568V17.139H69.6107V19.638H78.6102V24.819H69.6107Z" fill="white"/>
<path d="M82.4067 33.0476V11.7143H92.896C95.2675 11.7143 97.355 12.1511 99.1592 13.0248C100.963 13.8781 102.372 15.0972 103.385 16.6819C104.399 18.2667 104.906 20.1562 104.906 22.3505C104.906 24.5651 104.399 26.4749 103.385 28.08C102.372 29.6648 100.963 30.894 99.1592 31.7676C97.355 32.621 95.2675 33.0476 92.896 33.0476H82.4067ZM89.582 27.44H92.592C93.6053 27.44 94.487 27.247 95.2371 26.861C96.0072 26.4749 96.6053 25.9061 97.031 25.1543C97.4566 24.3823 97.6694 23.4476 97.6694 22.3505C97.6694 21.2737 97.4566 20.3594 97.031 19.6076C96.6053 18.8559 96.0072 18.287 95.2371 17.901C94.487 17.5149 93.6053 17.3219 92.592 17.3219H89.582V27.44ZM113.485 19.6381H122.971V24.8191H113.485V19.6381ZM113.971 27.6229H124.612V33.0476H106.917V11.7143H124.217V17.1391H113.971V27.6229ZM134.702 33.5353C132.918 33.5353 131.195 33.3321 129.533 32.9257C127.871 32.5194 126.503 31.9911 125.429 31.341L127.739 26.0991C128.753 26.6883 129.878 27.1657 131.114 27.5314C132.371 27.8768 133.587 28.0495 134.763 28.0495C135.452 28.0495 135.989 28.0089 136.374 27.9276C136.779 27.8261 137.073 27.694 137.256 27.5314C137.438 27.3486 137.529 27.1353 137.529 26.8914C137.529 26.5054 137.316 26.2006 136.891 25.9772C136.465 25.7537 135.897 25.5708 135.188 25.4286C134.499 25.2661 133.739 25.1035 132.908 24.941C132.077 24.7581 131.236 24.5244 130.384 24.24C129.554 23.9556 128.783 23.5797 128.074 23.1124C127.384 22.6451 126.827 22.0356 126.402 21.2838C125.976 20.5118 125.763 19.5568 125.763 18.4191C125.763 17.0984 126.128 15.8997 126.858 14.8229C127.608 13.7257 128.712 12.8521 130.172 12.2019C131.651 11.5518 133.486 11.2267 135.675 11.2267C137.114 11.2267 138.533 11.3791 139.931 11.6838C141.33 11.9886 142.586 12.4559 143.701 13.0857L141.543 18.2972C140.488 17.7689 139.465 17.3727 138.472 17.1086C137.499 16.8444 136.546 16.7124 135.614 16.7124C134.925 16.7124 134.377 16.7734 133.972 16.8953C133.567 17.0172 133.273 17.1797 133.09 17.3829C132.928 17.5861 132.847 17.8095 132.847 18.0534C132.847 18.4191 133.06 18.7137 133.486 18.9372C133.911 19.1404 134.468 19.313 135.158 19.4553C135.867 19.5975 136.638 19.7499 137.468 19.9124C138.32 20.0749 139.161 20.2984 139.992 20.5829C140.823 20.8673 141.583 21.2432 142.272 21.7105C142.982 22.1778 143.549 22.7873 143.975 23.5391C144.401 24.2908 144.613 25.2254 144.613 26.3429C144.613 27.6432 144.239 28.8419 143.488 29.9391C142.759 31.0159 141.664 31.8895 140.205 32.56C138.745 33.2102 136.911 33.5353 134.702 33.5353ZM146.141 33.0476V11.7143H153.316V33.0476H146.141ZM167.199 33.5353C165.476 33.5353 163.885 33.2711 162.425 32.7429C160.986 32.1943 159.729 31.4223 158.655 30.4267C157.601 29.4311 156.78 28.2527 156.192 26.8914C155.604 25.5302 155.311 24.0267 155.311 22.381C155.311 20.7353 155.604 19.2318 156.192 17.8705C156.78 16.5092 157.611 15.3308 158.686 14.3353C159.76 13.3397 161.027 12.5778 162.486 12.0495C163.965 11.501 165.587 11.2267 167.351 11.2267C169.459 11.2267 171.334 11.5823 172.975 12.2934C174.637 13.0044 176.005 14.0204 177.08 15.341L172.489 19.3943C171.82 18.6223 171.09 18.0432 170.3 17.6572C169.529 17.2508 168.668 17.0476 167.716 17.0476C166.925 17.0476 166.205 17.1695 165.557 17.4134C164.928 17.6572 164.391 18.0127 163.945 18.48C163.499 18.9473 163.155 19.5061 162.912 20.1562C162.668 20.8064 162.547 21.548 162.547 22.381C162.547 23.1734 162.668 23.9048 162.912 24.5753C163.155 25.2254 163.499 25.7842 163.945 26.2514C164.391 26.7187 164.918 27.0844 165.526 27.3486C166.154 27.5924 166.854 27.7143 167.624 27.7143C168.435 27.7143 169.225 27.5823 169.996 27.3181C170.766 27.0337 171.587 26.5562 172.459 25.8857L176.472 30.8229C175.174 31.6965 173.695 32.367 172.033 32.8343C170.371 33.3016 168.759 33.5353 167.199 33.5353ZM170.239 29.9086V21.8019H176.472V30.8229L170.239 29.9086ZM178.921 33.0476V11.7143H184.819L195.643 24.6972H192.906V11.7143H199.899V33.0476H194.001L183.177 20.0648H185.914V33.0476H178.921Z" fill="#8CA0C1"/>
<path d="M149.644 13.0476C152.005 13.0476 153.919 11.1288 153.919 8.76191C153.919 6.39498 152.005 4.4762 149.644 4.4762C147.282 4.4762 145.368 6.39498 145.368 8.76191C145.368 11.1288 147.282 13.0476 149.644 13.0476Z" fill="white" stroke="white" stroke-width="2"/>
<path d="M32.2785 13.0476C34.6398 13.0476 36.554 11.1288 36.554 8.76191C36.554 6.39498 34.6398 4.4762 32.2785 4.4762C29.9171 4.4762 28.0029 6.39498 28.0029 8.76191C28.0029 11.1288 29.9171 13.0476 32.2785 13.0476Z" fill="#8CA0C1"/>
<path d="M149.279 13.0476C151.64 13.0476 153.554 11.1288 153.554 8.76191C153.554 6.39498 151.64 4.4762 149.279 4.4762C146.917 4.4762 145.003 6.39498 145.003 8.76191C145.003 11.1288 146.917 13.0476 149.279 13.0476Z" fill="white"/>
</g>
<path d="M149.276 13.0477C151.637 13.0477 153.551 11.1289 153.551 8.76203C153.551 6.3951 151.637 4.47632 149.276 4.47632C146.914 4.47632 145 6.3951 145 8.76203C145 11.1289 146.914 13.0477 149.276 13.0477Z" fill="white"/>
</svg>
