<svg width="200" height="46" viewBox="0 0 200 46" fill="none" xmlns="http://www.w3.org/2000/svg">
<path d="M159.163 7.93009C159.57 7.93009 159.92 7.86342 160.213 7.73009C160.506 7.59009 160.813 7.37009 161.133 7.07009L161.893 7.85009C161.153 8.67009 160.253 9.08009 159.193 9.08009C158.14 9.08009 157.263 8.74009 156.563 8.06009C155.87 7.38009 155.523 6.52009 155.523 5.48009C155.523 4.44009 155.876 3.57342 156.583 2.88009C157.296 2.18676 158.193 1.84009 159.273 1.84009C160.36 1.84009 161.266 2.24009 161.993 3.04009L161.243 3.86009C160.91 3.54009 160.593 3.31676 160.293 3.19009C160 3.06342 159.653 3.00009 159.253 3.00009C158.546 3.00009 157.953 3.23009 157.473 3.69009C156.993 4.14342 156.753 4.72676 156.753 5.44009C156.753 6.14676 156.99 6.74009 157.463 7.22009C157.943 7.69342 158.51 7.93009 159.163 7.93009ZM164.126 7.41009L163.426 9.00009H162.166L165.246 2.01009H166.506L169.586 9.00009H168.326L167.626 7.41009H164.126ZM167.146 6.32009L165.876 3.44009L164.606 6.32009H167.146ZM175.598 2.01009H176.778V9.00009H175.498L171.538 3.90009V9.00009H170.358V2.01009H171.538L175.598 7.23009V2.01009ZM179.508 7.41009L178.808 9.00009H177.548L180.628 2.01009H181.888L184.968 9.00009H183.708L183.008 7.41009H179.508ZM182.528 6.32009L181.258 3.44009L179.988 6.32009H182.528ZM188.139 2.01009C189.393 2.01009 190.356 2.31676 191.029 2.93009C191.703 3.53676 192.039 4.38342 192.039 5.47009C192.039 6.55676 191.713 7.41676 191.059 8.05009C190.406 8.68342 189.406 9.00009 188.059 9.00009H185.739V2.01009H188.139ZM190.849 5.50009C190.849 3.90009 189.933 3.10009 188.099 3.10009H186.919V7.89009H188.229C189.076 7.89009 189.723 7.69009 190.169 7.29009C190.623 6.88342 190.849 6.28676 190.849 5.50009ZM194.352 7.41009L193.652 9.00009H192.392L195.472 2.01009H196.732L199.812 9.00009H198.552L197.852 7.41009H194.352ZM197.372 6.32009L196.102 3.44009L194.832 6.32009H197.372Z" fill="#367DCB"/>
<mask id="mask0_9954_1261" style="mask-type:luminance" maskUnits="userSpaceOnUse" x="0" y="4" width="200" height="30">
<path fill-rule="evenodd" clip-rule="evenodd" d="M156 8.50002C156 12.0898 153.09 15 149.5 15C145.91 15 143 12.0898 143 8.50002C143 6.75352 143.689 5.1679 144.81 4H0V34H200V4H154.19C155.311 5.1679 156 6.75352 156 8.50002Z" fill="white"/>
</mask>
<g mask="url(#mask0_9954_1261)">
<path fill-rule="evenodd" clip-rule="evenodd" d="M35.8803 13.5766C34.8341 14.4644 33.4797 15 32.0001 15C30.7831 15 29.6507 14.6377 28.705 14.0151V33.0478H35.8803V13.5766ZM0.304688 11.7144V33.0478H6.8415V23.6538L11.4629 31.1278H14.6249L19.2554 23.3168L19.3071 33.0478H25.8439L25.7831 11.7144H19.8848L13.143 23.0685L6.20302 11.7144H0.304688ZM38.7263 11.7144V33.0478H45.7192V23.3469L53.8069 33.0478H59.7052V11.7144H52.7123V21.4151L44.6247 11.7144H38.7263ZM69.6078 24.8192V27.623H80.2491V33.0478H62.5541V11.7144H79.8539V17.1392H69.6078V19.6382H78.6073V24.8192H69.6078Z" fill="#367DCB"/>
<path d="M82.4062 33.0477V11.7144H92.8956C95.2671 11.7144 97.3546 12.1512 99.1588 13.0249C100.963 13.8782 102.372 15.0973 103.385 16.682C104.399 18.2668 104.906 20.1563 104.906 22.3506C104.906 24.5652 104.399 26.475 103.385 28.0801C102.372 29.6649 100.963 30.8941 99.1588 31.7677C97.3546 32.6211 95.2671 33.0477 92.8956 33.0477H82.4062ZM89.5816 27.4401H92.5916C93.6049 27.4401 94.4865 27.2471 95.2366 26.8611C96.0067 26.475 96.6048 25.9062 97.0305 25.1544C97.4561 24.3824 97.669 23.4477 97.669 22.3506C97.669 21.2738 97.4561 20.3595 97.0305 19.6077C96.6048 18.856 96.0067 18.2871 95.2366 17.9011C94.4865 17.515 93.6049 17.322 92.5916 17.322H89.5816V27.4401ZM113.485 19.6382H122.971V24.8192H113.485V19.6382ZM113.971 27.623H124.612V33.0477H106.917V11.7144H124.217V17.1392H113.971V27.623ZM134.702 33.5354C132.918 33.5354 131.195 33.3322 129.533 32.9258C127.871 32.5195 126.503 31.9912 125.429 31.3411L127.739 26.0992C128.753 26.6884 129.878 27.1658 131.114 27.5315C132.371 27.8769 133.587 28.0496 134.763 28.0496C135.452 28.0496 135.989 28.009 136.374 27.9277C136.779 27.8262 137.073 27.6941 137.256 27.5315C137.438 27.3487 137.529 27.1354 137.529 26.8915C137.529 26.5055 137.316 26.2007 136.891 25.9773C136.465 25.7538 135.897 25.5709 135.188 25.4287C134.499 25.2662 133.739 25.1036 132.908 24.9411C132.077 24.7582 131.236 24.5245 130.384 24.2401C129.554 23.9557 128.783 23.5798 128.074 23.1125C127.384 22.6452 126.827 22.0357 126.402 21.2839C125.976 20.5119 125.763 19.5569 125.763 18.4192C125.763 17.0985 126.128 15.8998 126.858 14.823C127.608 13.7258 128.712 12.8522 130.172 12.202C131.651 11.5519 133.486 11.2268 135.675 11.2268C137.114 11.2268 138.533 11.3792 139.931 11.6839C141.33 11.9887 142.586 12.456 143.701 13.0858L141.543 18.2973C140.488 17.769 139.465 17.3728 138.472 17.1087C137.499 16.8445 136.546 16.7125 135.614 16.7125C134.925 16.7125 134.377 16.7735 133.972 16.8954C133.567 17.0173 133.273 17.1798 133.09 17.383C132.928 17.5862 132.847 17.8096 132.847 18.0535C132.847 18.4192 133.06 18.7138 133.486 18.9373C133.911 19.1405 134.468 19.3131 135.158 19.4554C135.867 19.5976 136.638 19.75 137.468 19.9125C138.32 20.075 139.161 20.2985 139.992 20.583C140.823 20.8674 141.583 21.2433 142.272 21.7106C142.982 22.1779 143.549 22.7874 143.975 23.5392C144.401 24.2909 144.613 25.2255 144.613 26.343C144.613 27.6433 144.239 28.842 143.488 29.9392C142.759 31.016 141.664 31.8896 140.205 32.5601C138.745 33.2103 136.911 33.5354 134.702 33.5354ZM146.141 33.0477V11.7144H153.316V33.0477H146.141ZM167.199 33.5354C165.476 33.5354 163.885 33.2712 162.425 32.743C160.986 32.1944 159.729 31.4224 158.655 30.4268C157.601 29.4312 156.78 28.2528 156.192 26.8915C155.604 25.5303 155.311 24.0268 155.311 22.3811C155.311 20.7354 155.604 19.2319 156.192 17.8706C156.78 16.5093 157.611 15.3309 158.686 14.3354C159.76 13.3398 161.027 12.5779 162.486 12.0496C163.965 11.5011 165.587 11.2268 167.351 11.2268C169.459 11.2268 171.334 11.5824 172.975 12.2935C174.637 13.0045 176.005 14.0205 177.08 15.3411L172.489 19.3944C171.82 18.6224 171.09 18.0433 170.3 17.6573C169.529 17.2509 168.668 17.0477 167.716 17.0477C166.925 17.0477 166.205 17.1696 165.557 17.4135C164.928 17.6573 164.391 18.0128 163.945 18.4801C163.499 18.9474 163.155 19.5062 162.912 20.1563C162.668 20.8065 162.547 21.5481 162.547 22.3811C162.547 23.1735 162.668 23.9049 162.912 24.5754C163.155 25.2255 163.499 25.7843 163.945 26.2515C164.391 26.7188 164.918 27.0845 165.526 27.3487C166.154 27.5925 166.854 27.7144 167.624 27.7144C168.435 27.7144 169.225 27.5824 169.996 27.3182C170.766 27.0338 171.587 26.5563 172.459 25.8858L176.472 30.823C175.174 31.6966 173.695 32.3671 172.033 32.8344C170.371 33.3017 168.759 33.5354 167.199 33.5354ZM170.239 29.9087V21.802H176.472V30.823L170.239 29.9087ZM178.921 33.0477V11.7144H184.819L195.643 24.6973H192.906V11.7144H199.899V33.0477H194.001L183.177 20.0649H185.914V33.0477H178.921Z" fill="#42526E"/>
<path d="M149.643 13.0477C152.004 13.0477 153.918 11.1289 153.918 8.76203C153.918 6.3951 152.004 4.47632 149.643 4.47632C147.281 4.47632 145.367 6.3951 145.367 8.76203C145.367 11.1289 147.281 13.0477 149.643 13.0477Z" fill="white" stroke="white" stroke-width="2"/>
<path d="M32.2756 13.0477C34.6369 13.0477 36.5511 11.1289 36.5511 8.76203C36.5511 6.3951 34.6369 4.47632 32.2756 4.47632C29.9142 4.47632 28 6.3951 28 8.76203C28 11.1289 29.9142 13.0477 32.2756 13.0477Z" fill="#42526E"/>
<path d="M149.276 13.0477C151.637 13.0477 153.551 11.1289 153.551 8.76203C153.551 6.3951 151.637 4.47632 149.276 4.47632C146.914 4.47632 145 6.3951 145 8.76203C145 11.1289 146.914 13.0477 149.276 13.0477Z" fill="white"/>
</g>
<path d="M149.276 13.0477C151.637 13.0477 153.551 11.1289 153.551 8.76203C153.551 6.3951 151.637 4.47632 149.276 4.47632C146.914 4.47632 145 6.3951 145 8.76203C145 11.1289 146.914 13.0477 149.276 13.0477Z" fill="#367DCB"/>
</svg>
