<svg width="211" height="55" viewBox="0 0 211 55" fill="none" xmlns="http://www.w3.org/2000/svg">
<path id="Vector" d="M8.736 42.9532C8.45867 42.9532 8.216 42.9012 8.008 42.7972C7.8 42.5545 7.696 42.3639 7.696 42.2252C7.696 41.9479 7.86933 41.6012 8.216 41.1852L8.424 40.9252C9.464 39.6772 10.4867 38.5505 11.492 37.5452L13.364 35.4652C14.4733 34.3212 15.4613 33.2465 16.328 32.2412L16.9 31.5652C17.4893 30.9065 18.0267 30.2305 18.512 29.5372L18.72 29.2252C18.9973 28.8092 19.136 28.4452 19.136 28.1332C19.136 27.4399 17.3333 26.6252 13.728 25.6892L12.168 25.2212C9.8107 24.5279 7.956 23.9039 6.604 23.3492C2.20133 21.6505 0 19.3452 0 16.4332L0.052 15.8092C0.086666 15.4972 0.156 15.2025 0.26 14.9252C0.884 13.0532 2.11467 11.3892 3.952 9.93322C5.78933 8.47722 7.81733 7.22922 10.036 6.18922C12.2547 5.11455 14.248 4.26522 16.016 3.64122C17.8187 2.98255 19.9333 2.34122 22.36 1.71722C24.8213 1.09322 27.1613 0.781223 29.38 0.781223C30.42 0.781223 31.4427 0.885223 32.448 1.09322C33.904 1.61322 34.632 2.42788 34.632 3.53722C34.632 3.84922 34.5453 4.21322 34.372 4.62922C33.54 6.39722 32.4307 7.93989 31.044 9.25722C30.836 9.46522 30.5413 9.56922 30.16 9.56922C29.9173 9.56922 29.692 9.43052 29.484 9.15322C29.4147 9.04922 29.38 8.89322 29.38 8.68522C29.38 8.47722 29.5013 8.25189 29.744 8.00922L29.9 7.85322C30.6627 7.09055 31.2867 6.41455 31.772 5.82522C32.396 5.02789 32.708 4.23055 32.708 3.43322C32.708 3.12122 32.6213 2.86122 32.448 2.65322C31.9973 2.23722 31.0267 2.02922 29.536 2.02922C26.7627 2.02922 23.348 2.60122 19.292 3.74522C15.7213 4.78522 12.3413 6.17188 9.152 7.90522C5.96267 9.63852 3.65733 11.6492 2.236 13.9372C1.78533 14.8039 1.56 15.6359 1.56 16.4332C1.56 17.6812 2.01067 18.7385 2.912 19.6052C4.71467 21.3732 8.268 22.8639 13.572 24.0772L16.328 24.8052L17.056 25.0652C17.888 25.2732 18.72 25.5852 19.552 26.0012C20.384 26.4172 20.9387 26.9892 21.216 27.7172C21.2507 27.7519 21.268 27.8559 21.268 28.0292C21.268 28.6879 20.956 29.4332 20.332 30.2652C19.708 31.0625 19.1013 31.7732 18.512 32.3972L17.94 33.0212C16.7267 34.3385 15.4787 35.6385 14.196 36.9212C13.78 37.3719 13.364 37.8052 12.948 38.2212C12.5667 38.6372 12.1853 39.0185 11.804 39.3652C11.0413 40.1972 10.66 40.6305 10.66 40.6652C10.764 40.6652 10.8333 40.6479 10.868 40.6132C12.532 39.6079 15.4093 37.7012 19.5 34.8932C23.244 32.3279 26.8667 29.9185 30.368 27.6652C30.4373 27.5959 30.576 27.5612 30.784 27.5612C31.096 27.5612 31.252 27.6652 31.252 27.8732C31.252 28.0812 31.0613 28.3065 30.68 28.5492C28.0107 30.2825 24.7347 32.5359 20.852 35.3092C18.1827 37.2505 15.4787 39.1225 12.74 40.9252L12.584 41.0292C10.8507 42.3119 9.568 42.9532 8.736 42.9532ZM29.7769 37.3892C29.2916 37.3892 28.8756 37.2332 28.5289 36.9212C28.1822 36.5745 27.9569 36.1932 27.8529 35.7772C27.7489 35.3612 27.6969 34.8759 27.6969 34.3212C27.6969 32.5185 28.1302 30.4559 28.9969 28.1332C29.8636 25.7759 30.6782 23.8865 31.4409 22.4652C31.4756 22.3959 31.5102 22.3265 31.5449 22.2572C31.6142 22.1532 31.7356 22.0145 31.9089 21.8412C32.0822 21.6332 32.3249 21.5292 32.6369 21.5292C33.2262 21.6332 33.5209 21.9279 33.5209 22.4132C33.5209 22.7599 33.4342 23.0199 33.2609 23.1932V23.2452C32.2209 25.0825 31.4409 26.9719 30.9209 28.9132C30.2622 31.0625 29.8289 33.0039 29.6209 34.7372C29.6209 35.8812 29.7249 36.4532 29.9329 36.4532C30.1409 36.4532 30.5222 36.1239 31.0769 35.4652C32.4982 33.4545 33.7809 31.2879 34.9249 28.9652C35.6182 27.6132 36.3462 26.2959 37.1089 25.0132C37.1089 24.9439 37.2996 24.6665 37.6809 24.1812C38.2702 23.4185 38.7902 23.0372 39.2409 23.0372C39.4489 23.0372 39.6222 23.0892 39.7609 23.1932C40.1076 23.4705 40.2809 23.7999 40.2809 24.1812C40.2809 24.4932 40.2116 24.8399 40.0729 25.2212C40.0729 25.4292 39.9169 26.0532 39.6049 27.0932C39.2929 28.0985 39.0329 28.8439 38.8249 29.3292C38.1316 31.6519 37.7849 33.3505 37.7849 34.4252C37.7849 35.1879 37.9409 35.6732 38.2529 35.8812L38.4609 35.8292C38.7382 35.6905 39.0849 35.4479 39.5009 35.1012C40.6449 34.0265 41.8756 32.5879 43.1929 30.7852C43.2622 30.6465 43.6609 30.0919 44.3889 29.1212L45.3249 27.8212C45.4289 27.6479 45.6716 27.5612 46.0529 27.5612C46.1569 27.5612 46.2262 27.5959 46.2609 27.6652C46.2956 27.6999 46.3129 27.7345 46.3129 27.7692C46.3476 27.7692 46.3649 27.7865 46.3649 27.8212C46.3996 27.8559 46.4169 27.8905 46.4169 27.9252C46.4169 27.9945 46.3649 28.0985 46.2609 28.2372L42.4649 33.2812C41.8409 34.1132 41.1822 34.8932 40.4889 35.6212C40.4196 35.7252 40.3329 35.8119 40.2289 35.8812C39.6742 36.7132 38.9289 37.1292 37.9929 37.1292C37.0916 37.0252 36.4849 36.7132 36.1729 36.1932C35.8609 35.6385 35.7049 34.9799 35.7049 34.2172C35.7049 32.5532 36.1902 30.3692 37.1609 27.6652L37.4729 26.6772L37.5249 26.4172L37.2129 26.8852L35.4969 30.0052L33.2609 33.9572C32.3596 35.5172 31.5796 36.5572 30.9209 37.0772C30.5742 37.2852 30.1929 37.3892 29.7769 37.3892ZM43.8986 54.5492C43.6212 54.5492 43.4306 54.5319 43.3266 54.4972C42.5639 54.3239 42.0266 53.9425 41.7146 53.3532C41.4026 52.7985 41.2466 52.2092 41.2466 51.5852L41.2986 51.0132C41.5066 49.2105 41.9919 47.4945 42.7546 45.8652C45.6319 39.6252 49.7226 34.5812 55.0266 30.7332C55.7892 27.8212 56.1706 25.4639 56.1706 23.6612C56.1706 23.1412 56.1012 22.6905 55.9626 22.3092L55.9106 22.2572C55.3906 22.3265 54.7319 22.8119 53.9346 23.7132C52.7212 25.0652 51.1612 27.2145 49.2546 30.1612C47.8332 32.3105 46.7932 33.8359 46.1346 34.7372L45.9786 34.9452C44.9732 36.5052 44.0372 37.2852 43.1706 37.2852H42.7546C42.0612 37.0079 41.7146 36.4012 41.7146 35.4652C41.7146 34.2865 42.0439 32.8999 42.7026 31.3052C43.6386 28.6012 45.0079 26.1399 46.8106 23.9212C48.4746 21.8065 50.2079 20.7492 52.0106 20.7492C53.0852 20.7492 53.9346 21.0612 54.5586 21.6852L54.7666 21.5292C54.9052 21.4599 55.0959 21.3905 55.3386 21.3212C55.5812 21.2172 55.8412 21.1652 56.1186 21.1652C56.7079 21.1652 57.1586 21.3732 57.4706 21.7892C57.7826 22.2052 57.9732 22.6559 58.0426 23.1412C58.1119 23.5919 58.1466 24.0599 58.1466 24.5452C58.1466 25.8972 57.9732 27.2492 57.6266 28.6012L57.5226 29.2772C58.6319 28.6185 60.1572 28.0465 62.0986 27.5612C62.4799 27.5612 62.6879 27.6479 62.7226 27.8212L62.7746 27.9252C62.7746 28.0639 62.6532 28.1852 62.4106 28.2892C60.5732 28.6705 58.8746 29.3119 57.3146 30.2132C55.9972 35.9332 54.0386 41.3585 51.4386 46.4892C50.7452 47.8065 50.1039 48.9332 49.5146 49.8692C47.6079 52.9892 45.7359 54.5492 43.8986 54.5492ZM43.5866 35.9852C44.0026 35.7772 44.8866 34.7025 46.2386 32.7612L47.0706 31.6172L48.9426 28.8612C50.2946 26.7465 51.7852 24.7532 53.4146 22.8812L53.8826 22.3612H53.8306C53.3106 21.9799 52.8426 21.7892 52.4266 21.7892C50.7626 21.7892 48.9599 23.4879 47.0186 26.8852C45.9092 28.8612 44.9732 30.8545 44.2106 32.8652C43.7946 34.0092 43.5866 35.0492 43.5866 35.9852ZM43.6386 53.1972C45.0946 53.1972 47.0359 50.7879 49.4626 45.9692C51.0226 42.7799 52.3572 39.4865 53.4666 36.0892L53.7786 35.1532C54.1599 34.0092 54.4546 32.9692 54.6626 32.0332C49.6706 35.8119 45.9266 41.0119 43.4306 47.6332C42.9452 49.0892 42.7026 50.3372 42.7026 51.3772C42.7026 51.9319 42.8239 52.4519 43.0666 52.9372C43.1359 53.0412 43.2052 53.1105 43.2746 53.1452C43.3439 53.1799 43.4652 53.1972 43.6386 53.1972ZM61.9405 37.7012C61.3859 37.7012 60.7792 37.5105 60.1205 37.1292C59.2192 36.2972 58.7685 35.2399 58.7685 33.9572C58.7685 32.4665 59.1325 30.9065 59.8605 29.2772C60.6232 27.6132 61.3165 26.3305 61.9405 25.4292C62.5992 24.4932 63.3445 23.6092 64.1765 22.7772C65.0085 21.9105 65.9965 21.3212 67.1405 21.0092L67.5565 20.9572C68.0419 20.9572 68.4925 21.0959 68.9085 21.3732C69.3592 21.6159 69.5845 21.9452 69.5845 22.3612C69.5845 23.1932 68.7352 24.4412 67.0365 26.1052C65.1992 28.1159 63.2579 30.0399 61.2125 31.8772C60.9699 32.7439 60.8485 33.5239 60.8485 34.2172C60.8485 35.1532 61.1432 35.8639 61.7325 36.3492C61.9405 36.4879 62.1659 36.5572 62.4085 36.5572C62.5472 36.5572 62.6512 36.5399 62.7205 36.5052C64.6619 35.7772 67.2445 33.1079 70.4685 28.4972C70.6765 28.2545 70.8325 28.0465 70.9365 27.8732C71.0405 27.6652 71.2312 27.5612 71.5085 27.5612C71.8552 27.6305 72.0285 27.7519 72.0285 27.9252C72.0285 28.0639 71.9765 28.1852 71.8725 28.2892L71.7685 28.4452L70.1565 30.4732C69.0472 31.9985 67.7819 33.5412 66.3605 35.1012C64.7312 36.8345 63.2579 37.7012 61.9405 37.7012ZM61.7845 30.2132L64.0725 28.0812C64.7659 27.3879 65.4245 26.6599 66.0485 25.8972C67.3312 24.4412 67.9725 23.4185 67.9725 22.8292C67.9725 22.6212 67.9379 22.5172 67.8685 22.5172H67.8165C67.1925 22.5172 66.5165 22.9159 65.7885 23.7132C64.4712 25.1345 63.3792 26.7465 62.5125 28.5492C62.2352 29.0692 61.9925 29.6239 61.7845 30.2132ZM68.4507 37.8052H68.2947C67.74 37.6665 67.4627 37.4065 67.4627 37.0252C67.4627 36.8865 67.4974 36.7305 67.5667 36.5572C67.6014 36.3839 67.636 36.2279 67.6707 36.0892L68.0347 34.3732C68.9014 31.2532 69.8027 28.1505 70.7387 25.0652L71.3107 23.3492C71.484 23.0372 71.744 22.8812 72.0907 22.8812C72.6107 22.9505 72.8707 23.2452 72.8707 23.7652C72.8707 23.9039 72.8534 24.0079 72.8187 24.0772C72.8187 24.1119 72.784 24.2679 72.7147 24.5452C71.6747 28.2892 70.8427 31.4439 70.2187 34.0092L71.0507 32.7092C75.6614 25.3252 78.6254 21.6332 79.9427 21.6332C80.7054 21.7025 81.0867 22.0492 81.0867 22.6732C81.0867 23.1239 80.7747 24.1812 80.1507 25.8452L79.8907 26.6252C79.128 28.7399 78.5387 30.8892 78.1227 33.0732C78.0187 33.4545 77.9667 33.8879 77.9667 34.3732C77.9667 35.6905 78.3307 36.3492 79.0587 36.3492L79.3187 36.2972C80.3934 35.6385 81.6414 34.0439 83.0627 31.5132L85.1947 27.8212C85.264 27.6479 85.4547 27.5612 85.7667 27.5612C85.94 27.5612 86.0614 27.5959 86.1307 27.6652C86.2 27.6999 86.2347 27.7692 86.2347 27.8732L86.1827 28.0812L84.5707 30.8892C84.0507 31.8252 83.444 32.8132 82.7507 33.8532L82.3867 34.3732C81.208 36.2799 80.012 37.2332 78.7987 37.2332C77.4467 37.2332 76.58 36.4012 76.1987 34.7372C76.1294 34.3559 76.0947 33.9572 76.0947 33.5412C76.0947 32.5012 76.3027 31.2359 76.7187 29.7452C77.1347 28.2545 77.984 25.9839 79.2667 22.9332C77.4294 24.7705 74.4134 29.1559 70.2187 36.0892L69.4907 37.1292C69.1787 37.5799 68.832 37.8052 68.4507 37.8052ZM85.5051 37.7012C84.9504 37.7012 84.3437 37.5105 83.6851 37.1292C82.7837 36.2972 82.3331 35.2399 82.3331 33.9572C82.3331 32.4665 82.6971 30.9065 83.4251 29.2772C84.1877 27.6132 84.8811 26.3305 85.5051 25.4292C86.1637 24.4932 86.9091 23.6092 87.7411 22.7772C88.5731 21.9105 89.5611 21.3212 90.7051 21.0092L91.1211 20.9572C91.6064 20.9572 92.0571 21.0959 92.4731 21.3732C92.9237 21.6159 93.1491 21.9452 93.1491 22.3612C93.1491 23.1932 92.2997 24.4412 90.6011 26.1052C88.7637 28.1159 86.8224 30.0399 84.7771 31.8772C84.5344 32.7439 84.4131 33.5239 84.4131 34.2172C84.4131 35.1532 84.7077 35.8639 85.2971 36.3492C85.5051 36.4879 85.7304 36.5572 85.9731 36.5572C86.1117 36.5572 86.2157 36.5399 86.2851 36.5052C88.2264 35.7772 90.8091 33.1079 94.0331 28.4972C94.2411 28.2545 94.3971 28.0465 94.5011 27.8732C94.6051 27.6652 94.7957 27.5612 95.0731 27.5612C95.4197 27.6305 95.5931 27.7519 95.5931 27.9252C95.5931 28.0639 95.5411 28.1852 95.4371 28.2892L95.3331 28.4452L93.7211 30.4732C92.6117 31.9985 91.3464 33.5412 89.9251 35.1012C88.2957 36.8345 86.8224 37.7012 85.5051 37.7012ZM85.3491 30.2132L87.6371 28.0812C88.3304 27.3879 88.9891 26.6599 89.6131 25.8972C90.8957 24.4412 91.5371 23.4185 91.5371 22.8292C91.5371 22.6212 91.5024 22.5172 91.4331 22.5172H91.3811C90.7571 22.5172 90.0811 22.9159 89.3531 23.7132C88.0357 25.1345 86.9437 26.7465 86.0771 28.5492C85.7997 29.0692 85.5571 29.6239 85.3491 30.2132ZM108.199 42.5892C107.61 42.5892 107.003 42.4852 106.379 42.2772C104.958 41.7919 104.247 40.3359 104.247 37.9092C104.247 36.7305 104.369 35.5345 104.611 34.3212C105.617 29.5025 107.246 24.5625 109.499 19.5012C111.857 13.7812 114.855 8.42522 118.495 3.43322L118.703 3.17322C119.57 1.89055 120.766 0.885223 122.291 0.157221C122.603 0.0878887 122.881 0.0532227 123.123 0.0532227C123.574 0.0532227 123.99 0.174555 124.371 0.417223C124.787 0.659893 125.065 0.989223 125.203 1.40522C125.377 1.78655 125.463 2.27189 125.463 2.86122C125.463 3.62388 125.377 4.33455 125.203 4.99322L125.151 5.25322C124.493 7.99188 123.626 10.6612 122.551 13.2612C121.234 16.5199 119.813 19.7092 118.287 22.8292C118.149 23.1412 117.993 23.4705 117.819 23.8172C117.681 24.1292 117.386 24.2852 116.935 24.2852C116.381 24.2852 116.103 23.9905 116.103 23.4012C116.103 23.0892 116.207 22.7252 116.415 22.3092L118.027 18.8772C119.969 15.0292 121.685 10.9212 123.175 6.55322C123.661 5.27055 123.903 3.83189 123.903 2.23722C123.869 1.43989 123.643 1.04122 123.227 1.04122C122.915 1.04122 122.465 1.26655 121.875 1.71722C119.761 3.72788 118.027 6.03322 116.675 8.63322C114.63 12.0652 112.411 16.8665 110.019 23.0372C107.801 28.7572 106.553 33.7665 106.275 38.0652L106.327 39.3132C106.431 40.4225 106.934 41.0292 107.835 41.1332C109.915 41.1332 112.273 40.5092 114.907 39.2612C117.577 38.0132 120.003 36.7825 122.187 35.5692L125.827 33.5932C127.041 32.9345 128.306 32.2759 129.623 31.6172L129.987 31.5652C130.23 31.5652 130.403 31.7039 130.507 31.9812C130.507 32.0852 130.421 32.1719 130.247 32.2412C128.653 33.1425 127.041 34.0785 125.411 35.0492C122.638 36.7479 119.83 38.3252 116.987 39.7812C114.665 41.0292 112.169 41.9305 109.499 42.4852C109.118 42.5545 108.685 42.5892 108.199 42.5892ZM130.576 37.7012C130.022 37.7012 129.415 37.5105 128.756 37.1292C127.855 36.2972 127.404 35.2399 127.404 33.9572C127.404 32.4665 127.768 30.9065 128.496 29.2772C129.259 27.6132 129.952 26.3305 130.576 25.4292C131.235 24.4932 131.98 23.6092 132.812 22.7772C133.644 21.9105 134.632 21.3212 135.776 21.0092L136.192 20.9572C136.678 20.9572 137.128 21.0959 137.544 21.3732C137.995 21.6159 138.22 21.9452 138.22 22.3612C138.22 23.1932 137.371 24.4412 135.672 26.1052C133.835 28.1159 131.894 30.0399 129.848 31.8772C129.606 32.7439 129.484 33.5239 129.484 34.2172C129.484 35.1532 129.779 35.8639 130.368 36.3492C130.576 36.4879 130.802 36.5572 131.044 36.5572C131.183 36.5572 131.287 36.5399 131.356 36.5052C133.298 35.7772 135.88 33.1079 139.104 28.4972C139.312 28.2545 139.468 28.0465 139.572 27.8732C139.676 27.6652 139.867 27.5612 140.144 27.5612C140.491 27.6305 140.664 27.7519 140.664 27.9252C140.664 28.0639 140.612 28.1852 140.508 28.2892L140.404 28.4452L138.792 30.4732C137.683 31.9985 136.418 33.5412 134.996 35.1012C133.367 36.8345 131.894 37.7012 130.576 37.7012ZM130.42 30.2132L132.708 28.0812C133.402 27.3879 134.06 26.6599 134.684 25.8972C135.967 24.4412 136.608 23.4185 136.608 22.8292C136.608 22.6212 136.574 22.5172 136.504 22.5172H136.452C135.828 22.5172 135.152 22.9159 134.424 23.7132C133.107 25.1345 132.015 26.7465 131.148 28.5492C130.871 29.0692 130.628 29.6239 130.42 30.2132ZM139.115 37.4932H138.907C138.56 37.4932 138.248 37.3719 137.971 37.1292C137.52 36.6785 137.295 35.8985 137.295 34.7892C137.295 33.9919 137.381 33.1772 137.555 32.3452C138.283 28.4625 139.219 25.1519 140.363 22.4132C140.605 21.8585 140.969 21.5812 141.455 21.5812C142.044 21.6159 142.339 21.8932 142.339 22.4132C142.339 22.5172 142.321 22.6385 142.287 22.7772L142.235 22.9852C141.299 25.3772 140.588 27.8212 140.103 30.3172L139.843 31.5652C139.496 32.8825 139.323 34.2172 139.323 35.5692C139.323 36.0199 139.34 36.2625 139.375 36.2972V36.2452C139.964 36.1759 141.732 33.3852 144.679 27.8732C144.193 27.4572 143.951 26.9719 143.951 26.4172C143.951 26.1399 144.003 25.8799 144.107 25.6372C144.661 24.2852 145.493 23.0545 146.603 21.9452C147.157 21.4599 147.625 21.2172 148.007 21.2172C148.249 21.2172 148.405 21.2519 148.475 21.3212C148.683 21.4599 148.787 21.6679 148.787 21.9452C148.787 22.1532 148.717 22.3959 148.579 22.6732L148.319 23.0372C147.972 23.6612 147.66 24.2852 147.383 24.9092L145.927 27.7172C146.412 27.8905 146.984 27.9772 147.643 27.9772C148.579 27.9772 149.671 27.8385 150.919 27.5612H151.075C151.456 27.5612 151.647 27.6825 151.647 27.9252C151.647 28.0985 151.508 28.2199 151.231 28.2892C150.121 28.4972 148.96 28.6012 147.747 28.6012C147.4 28.6012 146.672 28.5319 145.563 28.3932L145.095 29.2252C143.569 32.1025 142.269 34.2519 141.195 35.6732C140.363 36.8172 139.669 37.4239 139.115 37.4932ZM145.251 26.5732L145.719 25.7412L146.447 24.0772C146.377 24.0772 146.152 24.3719 145.771 24.9612C145.424 25.5505 145.251 26.0879 145.251 26.5732ZM149.335 37.3372C148.815 37.3372 148.416 37.1985 148.139 36.9212C147.549 36.4012 147.255 35.6905 147.255 34.7892C147.255 33.1945 147.757 31.2705 148.763 29.0172C149.595 27.1452 150.669 25.4985 151.987 24.0772C153.339 22.6212 154.847 21.8239 156.511 21.6852C157.1 21.6852 157.637 21.7892 158.123 21.9972C158.608 22.2052 158.955 22.4132 159.163 22.6212C159.197 22.5865 159.249 22.4999 159.319 22.3612C159.388 22.2225 159.457 22.1012 159.527 21.9972C159.596 21.8585 159.717 21.7545 159.891 21.6852C160.099 21.6159 160.289 21.5812 160.463 21.5812C161.017 21.7545 161.295 22.0839 161.295 22.5692C161.295 22.8812 161.191 23.1932 160.983 23.5052C160.705 23.9905 160.307 24.8399 159.787 26.0532C159.301 27.2319 158.851 28.5492 158.435 30.0052C158.019 31.4612 157.811 32.7612 157.811 33.9052C157.811 34.8412 158.019 35.4825 158.435 35.8292L158.643 35.8812L158.799 35.8292C159.319 35.5865 159.925 34.9799 160.619 34.0092C161.347 33.0385 161.971 32.1719 162.491 31.4092L163.635 29.5892C164.016 29.0345 164.38 28.4452 164.727 27.8212C164.831 27.6479 165.004 27.5612 165.247 27.5612C165.593 27.5612 165.767 27.6652 165.767 27.8732C165.767 27.9772 165.749 28.0639 165.715 28.1332C165.68 28.2025 165.663 28.2545 165.663 28.2892C165.663 28.2892 165.611 28.3585 165.507 28.4972C163.149 32.2412 161.641 34.5465 160.983 35.4132C160.116 36.5572 159.301 37.1292 158.539 37.1292C156.701 37.0252 155.783 35.8812 155.783 33.6972C155.783 32.0679 156.147 30.1612 156.875 27.9772L153.703 32.9172C152.975 33.9919 152.368 34.8412 151.883 35.4652C151.536 36.0545 151.033 36.5745 150.375 37.0252C149.959 37.2332 149.612 37.3372 149.335 37.3372ZM149.699 36.1412C150.253 35.9332 151.172 34.8759 152.455 32.9692L152.611 32.7612C153.269 31.8252 154.431 30.0399 156.095 27.4052L158.539 23.6092C157.949 23.1932 157.395 22.9852 156.875 22.9852C156.112 22.9852 155.367 23.3319 154.639 24.0252C153.911 24.6839 153.217 25.4812 152.559 26.4172C151.935 27.3185 151.224 28.6359 150.427 30.3692C149.664 32.1025 149.283 33.6279 149.283 34.9452C149.283 35.5692 149.352 35.9505 149.491 36.0892C149.525 36.1239 149.595 36.1412 149.699 36.1412ZM164.672 39.9892C164.29 39.9892 163.996 39.8852 163.788 39.6772C163.614 39.4692 163.528 39.2439 163.528 39.0012C163.666 38.3079 164.117 37.6145 164.88 36.9212L165.764 36.0892C165.694 35.3265 165.486 34.5119 165.14 33.6452L164.984 33.2292C164.082 31.3572 163.632 29.5892 163.632 27.9252C163.632 26.2612 164.273 24.5105 165.556 22.6732C166.734 21.0785 168.242 19.8652 170.08 19.0332C170.6 18.7905 171.172 18.6692 171.796 18.6692C172.316 18.6692 172.801 18.8252 173.252 19.1372C173.598 19.4839 173.772 19.9172 173.772 20.4372C173.772 20.8879 173.668 21.3385 173.46 21.7892C173.286 22.2052 173.096 22.5865 172.888 22.9332C172.714 23.2799 172.42 23.4532 172.004 23.4532C171.38 23.4185 171.068 23.1759 171.068 22.7252C171.068 22.6212 171.068 22.5519 171.068 22.5172C171.102 22.4479 171.154 22.3092 171.224 22.1012C171.64 21.5465 171.848 20.9745 171.848 20.3852C171.848 20.2812 171.83 20.2119 171.796 20.1772C171.796 20.1079 171.744 20.0732 171.64 20.0732C171.05 20.0732 170.357 20.3679 169.56 20.9572C167.618 22.2052 166.284 23.9732 165.556 26.2612C165.417 26.8505 165.348 27.4052 165.348 27.9252C165.348 28.7919 165.486 29.6585 165.764 30.5252C166.041 31.3572 166.37 32.1892 166.752 33.0212L167.376 34.6332L175.384 27.7692C175.488 27.6305 175.661 27.5612 175.904 27.5612C176.146 27.5612 176.32 27.6305 176.424 27.7692V27.8732C176.424 28.1159 176.302 28.2892 176.06 28.3932C175.089 29.0865 174.153 29.8492 173.252 30.6812C170.825 32.7959 168.953 34.5465 167.636 35.9332L167.688 36.5052C167.688 37.9612 166.804 39.1052 165.036 39.9372C165.001 39.9372 164.966 39.9372 164.932 39.9372C164.897 39.9719 164.81 39.9892 164.672 39.9892ZM171.984 40.5612C171.29 40.5612 170.944 40.3012 170.944 39.7812C170.944 39.4345 172.088 35.3439 174.376 27.5092L178.12 14.2492C179.506 9.18788 180.304 6.41455 180.512 5.92922C180.754 5.44389 181.084 5.20122 181.5 5.20122C182.124 5.27055 182.436 5.58255 182.436 6.13722C182.436 6.27589 182.418 6.41455 182.384 6.55322C182.349 6.69189 182.314 6.79589 182.28 6.86522L182.228 7.02122C181.257 9.69052 180.408 12.2385 179.68 14.6652C179.298 15.9479 178.882 17.2825 178.432 18.6692C177.738 20.8185 177.028 23.2452 176.3 25.9492C175.572 28.6185 174.965 30.9759 174.48 33.0212L173.7 36.1412L175.208 33.3852C176.594 30.7852 178.241 27.9945 180.148 25.0132C181.049 23.7305 181.69 22.8812 182.072 22.4652C182.522 21.9452 183.042 21.6159 183.632 21.4772C183.701 21.4425 183.788 21.4252 183.892 21.4252C184.377 21.4252 184.689 21.5465 184.828 21.7892C184.966 22.0319 185.036 22.3092 185.036 22.6212C185.001 22.6905 184.984 22.7945 184.984 22.9332C184.776 23.8345 184.394 25.2905 183.84 27.3012C182.765 30.8025 182.228 33.2465 182.228 34.6332C182.228 35.7425 182.401 36.2972 182.748 36.2972C183.372 36.2972 184.446 35.2052 185.972 33.0212C186.873 31.6692 187.722 30.2825 188.52 28.8612L189.144 27.8212C189.317 27.6479 189.49 27.5612 189.664 27.5612C190.01 27.6305 190.184 27.7692 190.184 27.9772C190.184 28.0465 190.166 28.1159 190.132 28.1852L190.08 28.3412L188.416 30.9412C188.069 31.5652 187.653 32.2412 187.168 32.9692C186.266 34.5985 185.122 35.9505 183.736 37.0252C183.701 37.0252 183.684 37.0425 183.684 37.0772C183.337 37.2505 182.938 37.3372 182.488 37.3372C181.933 37.3372 181.448 37.1639 181.032 36.8172C180.65 36.4359 180.408 36.0199 180.304 35.5692C180.234 35.0839 180.2 34.5812 180.2 34.0612C180.2 32.8132 180.373 31.5132 180.72 30.1612C181.101 28.8092 181.5 27.5265 181.916 26.3132L182.384 24.8052L182.904 23.3492C181.968 24.0772 180.858 25.5159 179.576 27.6652C177.496 31.1665 175.537 34.7719 173.7 38.4812L173.544 38.7412C173.128 39.8505 172.608 40.4572 171.984 40.5612ZM189.462 37.7012C188.908 37.7012 188.301 37.5105 187.642 37.1292C186.741 36.2972 186.29 35.2399 186.29 33.9572C186.29 32.4665 186.654 30.9065 187.382 29.2772C188.145 27.6132 188.838 26.3305 189.462 25.4292C190.121 24.4932 190.866 23.6092 191.698 22.7772C192.53 21.9105 193.518 21.3212 194.662 21.0092L195.078 20.9572C195.564 20.9572 196.014 21.0959 196.43 21.3732C196.881 21.6159 197.106 21.9452 197.106 22.3612C197.106 23.1932 196.257 24.4412 194.558 26.1052C192.721 28.1159 190.78 30.0399 188.734 31.8772C188.492 32.7439 188.37 33.5239 188.37 34.2172C188.37 35.1532 188.665 35.8639 189.254 36.3492C189.462 36.4879 189.688 36.5572 189.93 36.5572C190.069 36.5572 190.173 36.5399 190.242 36.5052C192.184 35.7772 194.766 33.1079 197.99 28.4972C198.198 28.2545 198.354 28.0465 198.458 27.8732C198.562 27.6652 198.753 27.5612 199.03 27.5612C199.377 27.6305 199.55 27.7519 199.55 27.9252C199.55 28.0639 199.498 28.1852 199.394 28.2892L199.29 28.4452L197.678 30.4732C196.569 31.9985 195.304 33.5412 193.882 35.1012C192.253 36.8345 190.78 37.7012 189.462 37.7012ZM189.306 30.2132L191.594 28.0812C192.288 27.3879 192.946 26.6599 193.57 25.8972C194.853 24.4412 195.494 23.4185 195.494 22.8292C195.494 22.6212 195.46 22.5172 195.39 22.5172H195.338C194.714 22.5172 194.038 22.9159 193.31 23.7132C191.993 25.1345 190.901 26.7465 190.034 28.5492C189.757 29.0692 189.514 29.6239 189.306 30.2132ZM198.001 37.4932H197.793C197.446 37.4932 197.134 37.3719 196.857 37.1292C196.406 36.6785 196.181 35.8985 196.181 34.7892C196.181 33.9919 196.267 33.1772 196.441 32.3452C197.169 28.4625 198.105 25.1519 199.249 22.4132C199.491 21.8585 199.855 21.5812 200.341 21.5812C200.93 21.6159 201.225 21.8932 201.225 22.4132C201.225 22.5172 201.207 22.6385 201.173 22.7772L201.121 22.9852C200.185 25.3772 199.474 27.8212 198.989 30.3172L198.729 31.5652C198.382 32.8825 198.209 34.2172 198.209 35.5692C198.209 36.0199 198.226 36.2625 198.261 36.2972V36.2452C198.85 36.1759 200.618 33.3852 203.565 27.8732C203.079 27.4572 202.837 26.9719 202.837 26.4172C202.837 26.1399 202.889 25.8799 202.993 25.6372C203.547 24.2852 204.379 23.0545 205.489 21.9452C206.043 21.4599 206.511 21.2172 206.893 21.2172C207.135 21.2172 207.291 21.2519 207.361 21.3212C207.569 21.4599 207.673 21.6679 207.673 21.9452C207.673 22.1532 207.603 22.3959 207.465 22.6732L207.205 23.0372C206.858 23.6612 206.546 24.2852 206.269 24.9092L204.813 27.7172C205.298 27.8905 205.87 27.9772 206.529 27.9772C207.465 27.9772 208.557 27.8385 209.805 27.5612H209.961C210.342 27.5612 210.533 27.6825 210.533 27.9252C210.533 28.0985 210.394 28.2199 210.117 28.2892C209.007 28.4972 207.846 28.6012 206.633 28.6012C206.286 28.6012 205.558 28.5319 204.449 28.3932L203.981 29.2252C202.455 32.1025 201.155 34.2519 200.081 35.6732C199.249 36.8172 198.555 37.4239 198.001 37.4932ZM204.137 26.5732L204.605 25.7412L205.333 24.0772C205.263 24.0772 205.038 24.3719 204.657 24.9612C204.31 25.5505 204.137 26.0879 204.137 26.5732Z" fill="#151924"/>
</svg>
