<svg width="0" height="0" class="hidden">
  <symbol xmlns="http://www.w3.org/2000/svg" viewBox="0 0 8 13" id="ic_arr_hor">
    <path d="M0.270185 7.14357L5.85999 12.7332C6.21557 13.0889 6.79208 13.0889 7.14749 12.7332C7.50292 12.3778 7.50292 11.8013 7.14749 11.4459L2.20137 6.49991L7.14734 1.55412C7.50278 1.19854 7.50278 0.622118 7.14734 0.266684C6.79191 -0.0888946 6.21543 -0.0888946 5.85985 0.266684L0.270041 5.85639C0.0923233 6.03419 0.00356483 6.26698 0.00356483 6.49988C0.00356483 6.73289 0.0924959 6.96585 0.270185 7.14357Z" fill="currentColor"></path>
  </symbol>
  <symbol xmlns="http://www.w3.org/2000/svg" viewBox="0 0 37 37" id="ic_arrow_circle_hor">
    <path d="M36.4219 18.5C36.4219 8.59961 28.4004 0.578125 18.5 0.578125C8.59961 0.578125 0.578125 8.59961 0.578125 18.5C0.578125 28.4004 8.59961 36.4219 18.5 36.4219C28.4004 36.4219 36.4219 28.4004 36.4219 18.5ZM18.5 34.1094C9.92207 34.1094 2.89062 27.1646 2.89062 18.5C2.89062 9.92207 9.83535 2.89062 18.5 2.89062C27.0779 2.89062 34.1094 9.83535 34.1094 18.5C34.1094 27.0779 27.1646 34.1094 18.5 34.1094ZM17.5967 27.4248L9.27891 19.1143C8.93926 18.7746 8.93926 18.2254 9.27891 17.8857L17.5967 9.5752C17.9363 9.23555 18.4855 9.23555 18.8252 9.5752L19.3238 10.0738C19.6635 10.4135 19.6635 10.9771 19.3094 11.3096L13.1307 17.2715H26.8828C27.3598 17.2715 27.75 17.6617 27.75 18.1387V18.8613C27.75 19.3383 27.3598 19.7285 26.8828 19.7285H13.1307L19.3166 25.6904C19.6635 26.0301 19.6707 26.5865 19.3311 26.9262L18.8324 27.4248C18.4855 27.7645 17.9363 27.7645 17.5967 27.4248Z" fill="currentColor"></path>
  </symbol>
  <symbol xmlns="http://www.w3.org/2000/svg" viewBox="0 0 30 30" id="ic_close">
    <path d="M17.7485 15.0243L29.4299 3.34257C30.1901 2.58272 30.1901 1.35415 29.4299 0.594302C28.67 -0.165548 27.4414 -0.165548 26.6816 0.594302L14.9998 12.2761L3.31843 0.594302C2.55822 -0.165548 1.33 -0.165548 0.570154 0.594302C-0.190051 1.35415 -0.190051 2.58272 0.570154 3.34257L12.2516 15.0243L0.570154 26.7061C-0.190051 27.4659 -0.190051 28.6945 0.570154 29.4544C0.948834 29.8334 1.44674 30.0238 1.94429 30.0238C2.44184 30.0238 2.93939 29.8334 3.31843 29.4544L14.9998 17.7726L26.6816 29.4544C27.0606 29.8334 27.5582 30.0238 28.0557 30.0238C28.5533 30.0238 29.0508 29.8334 29.4299 29.4544C30.1901 28.6945 30.1901 27.4659 29.4299 26.7061L17.7485 15.0243Z" fill="currentColor"></path>
  </symbol>
  <symbol xmlns="http://www.w3.org/2000/svg" viewBox="0 0 24 24" id="ic_email">
    <path d="M19 1H5C3.67441 1.00159 2.40356 1.52888 1.46622 2.46622C0.528882 3.40356 0.00158786 4.67441 0 6L0 18C0.00158786 19.3256 0.528882 20.5964 1.46622 21.5338C2.40356 22.4711 3.67441 22.9984 5 23H19C20.3256 22.9984 21.5964 22.4711 22.5338 21.5338C23.4711 20.5964 23.9984 19.3256 24 18V6C23.9984 4.67441 23.4711 3.40356 22.5338 2.46622C21.5964 1.52888 20.3256 1.00159 19 1ZM5 3H19C19.5988 3.00118 20.1835 3.18151 20.679 3.5178C21.1744 3.85409 21.5579 4.33095 21.78 4.887L14.122 12.546C13.5584 13.1073 12.7954 13.4225 12 13.4225C11.2046 13.4225 10.4416 13.1073 9.878 12.546L2.22 4.887C2.44215 4.33095 2.82561 3.85409 3.32105 3.5178C3.81648 3.18151 4.40121 3.00118 5 3ZM19 21H5C4.20435 21 3.44129 20.6839 2.87868 20.1213C2.31607 19.5587 2 18.7956 2 18V7.5L8.464 13.96C9.40263 14.8963 10.6743 15.422 12 15.422C13.3257 15.422 14.5974 14.8963 15.536 13.96L22 7.5V18C22 18.7956 21.6839 19.5587 21.1213 20.1213C20.5587 20.6839 19.7956 21 19 21Z" fill="currentColor"></path>
  </symbol>
  <symbol xmlns="http://www.w3.org/2000/svg" viewBox="0 0 10 20" id="ic_fb">
    <path d="M9.76231 8.16461L9.448 10.8038C9.43443 10.9264 9.37594 11.0396 9.28381 11.1216C9.19167 11.2036 9.07243 11.2486 8.94909 11.2478H6.20513V19.0806C6.20579 19.1741 6.16945 19.2641 6.10403 19.331C6.0386 19.3978 5.9494 19.436 5.85589 19.4373H3.05954C3.01302 19.4367 2.96709 19.4269 2.92436 19.4085C2.88163 19.3901 2.84295 19.3634 2.81052 19.3301C2.77809 19.2967 2.75255 19.2573 2.73535 19.2141C2.71816 19.1708 2.70965 19.1246 2.71031 19.0781L2.72527 11.2478H0.647341C0.515024 11.2478 0.388125 11.1953 0.294563 11.1017C0.201 11.0081 0.148438 10.8812 0.148438 10.7489V8.10973C0.148438 7.97741 0.201 7.85052 0.294563 7.75696C0.388125 7.66339 0.515024 7.61083 0.647341 7.61083H2.7128V5.05146C2.7128 2.09046 4.47393 0.479004 7.05326 0.479004H9.16612C9.29844 0.479004 9.42533 0.531566 9.5189 0.625129C9.61246 0.718692 9.66502 0.84559 9.66502 0.977907V3.20052C9.66502 3.33284 9.61246 3.45974 9.5189 3.5533C9.42533 3.64686 9.29844 3.69943 9.16612 3.69943H7.87146C6.46954 3.72188 6.20513 4.3929 6.20513 5.3957V7.60335H9.27588C9.34593 7.60455 9.41495 7.62049 9.47844 7.65014C9.54193 7.67979 9.59845 7.72248 9.64434 7.77543C9.69023 7.82838 9.72445 7.8904 9.74478 7.95746C9.7651 8.02451 9.77108 8.09509 9.76231 8.16461Z" fill="currentColor"></path>
  </symbol>
  <symbol xmlns="http://www.w3.org/2000/svg" viewBox="0 0 20 20" id="ic_linkedin">
    <path d="M5.80362 3.06582C5.80411 3.57815 5.65261 4.07911 5.36828 4.5053C5.08395 4.93149 4.67958 5.26376 4.20635 5.46005C3.73311 5.65633 3.21228 5.70782 2.70977 5.60799C2.20726 5.50816 1.74566 5.2615 1.38339 4.89923C1.02112 4.53696 0.774462 4.07536 0.674632 3.57285C0.574803 3.07034 0.62629 2.54951 0.822578 2.07628C1.01887 1.60304 1.35113 1.19867 1.77732 0.914343C2.20351 0.630016 2.70448 0.478512 3.2168 0.479005C3.90267 0.479666 4.56025 0.752416 5.04523 1.23739C5.53021 1.72237 5.80296 2.37996 5.80362 3.06582Z" fill="currentColor"></path>
    <path d="M4.57604 6.73291H1.85203C1.49796 6.73291 1.21094 7.01994 1.21094 7.374V18.7964C1.21094 19.1505 1.49796 19.4375 1.85203 19.4375H4.57604C4.93011 19.4375 5.21713 19.1505 5.21713 18.7964V7.374C5.21713 7.01994 4.93011 6.73291 4.57604 6.73291Z" fill="currentColor"></path>
    <path d="M19.4611 13.3185V18.8489C19.4611 19.005 19.3991 19.1547 19.2887 19.2651C19.1783 19.3755 19.0285 19.4376 18.8724 19.4376H15.9488C15.7927 19.4376 15.643 19.3755 15.5325 19.2651C15.4221 19.1547 15.3601 19.005 15.3601 18.8489V13.4906C15.3601 12.6899 15.5921 9.99831 13.2697 9.99831C11.4687 9.99831 11.102 11.8492 11.0246 12.6799V18.8613C11.0214 19.0144 10.9586 19.1603 10.8497 19.2678C10.7407 19.3754 10.5941 19.4363 10.4409 19.4376H7.61215C7.53475 19.4379 7.45805 19.4229 7.38647 19.3934C7.3149 19.364 7.24987 19.3206 7.19514 19.2659C7.1404 19.2111 7.09705 19.1461 7.06758 19.0745C7.03811 19.003 7.02311 18.9263 7.02344 18.8489V7.32419C7.02311 7.24667 7.0381 7.16985 7.06754 7.09814C7.09698 7.02642 7.14029 6.96123 7.19499 6.9063C7.24969 6.85137 7.3147 6.80778 7.38628 6.77804C7.45787 6.7483 7.53463 6.73299 7.61215 6.73299H10.4409C10.5194 6.73166 10.5974 6.74598 10.6702 6.77509C10.7431 6.80421 10.8095 6.84755 10.8654 6.90258C10.9214 6.95761 10.9658 7.02323 10.9962 7.09562C11.0265 7.168 11.0421 7.24571 11.0421 7.32419V8.322C11.7106 7.32419 12.7035 6.5459 14.8163 6.5459C19.4885 6.5434 19.4611 10.9163 19.4611 13.3185Z" fill="currentColor"></path>
  </symbol>
  <symbol xmlns="http://www.w3.org/2000/svg" viewBox="0 0 24 24" id="ic_location">
    <path d="M12 6C11.2089 6 10.4355 6.2346 9.77772 6.67412C9.11993 7.11365 8.60723 7.73836 8.30448 8.46927C8.00173 9.20017 7.92252 10.0044 8.07686 10.7804C8.2312 11.5563 8.61216 12.269 9.17157 12.8284C9.73098 13.3878 10.4437 13.7688 11.2196 13.9231C11.9956 14.0775 12.7998 13.9983 13.5307 13.6955C14.2616 13.3928 14.8864 12.8801 15.3259 12.2223C15.7654 11.5645 16 10.7911 16 10C16 8.93913 15.5786 7.92172 14.8284 7.17157C14.0783 6.42143 13.0609 6 12 6ZM12 12C11.6044 12 11.2178 11.8827 10.8889 11.6629C10.56 11.4432 10.3036 11.1308 10.1522 10.7654C10.0009 10.3999 9.96126 9.99778 10.0384 9.60982C10.1156 9.22186 10.3061 8.86549 10.5858 8.58579C10.8655 8.30608 11.2219 8.1156 11.6098 8.03843C11.9978 7.96126 12.3999 8.00087 12.7654 8.15224C13.1308 8.30362 13.4432 8.55996 13.6629 8.88886C13.8827 9.21776 14 9.60444 14 10C14 10.5304 13.7893 11.0391 13.4142 11.4142C13.0391 11.7893 12.5304 12 12 12Z" fill="currentColor"></path>
    <path d="M12.0003 24.0001C11.1583 24.0044 10.3274 23.8069 9.57738 23.4241C8.82733 23.0413 8.17991 22.4844 7.68931 21.8C3.87831 16.543 1.94531 12.591 1.94531 10.053C1.94531 7.3863 3.00468 4.82877 4.89035 2.94309C6.77603 1.05741 9.33356 -0.00195312 12.0003 -0.00195312C14.6671 -0.00195312 17.2246 1.05741 19.1103 2.94309C20.9959 4.82877 22.0553 7.3863 22.0553 10.053C22.0553 12.591 20.1223 16.543 16.3113 21.8C15.8207 22.4844 15.1733 23.0413 14.4232 23.4241C13.6732 23.8069 12.8424 24.0044 12.0003 24.0001ZM12.0003 2.18105C9.91273 2.18343 7.91133 3.01377 6.43518 4.48992C4.95904 5.96606 4.12869 7.96746 4.12631 10.055C4.12631 12.065 6.01931 15.782 9.45531 20.521C9.74701 20.9228 10.1297 21.2498 10.572 21.4753C11.0144 21.7008 11.5038 21.8183 12.0003 21.8183C12.4968 21.8183 12.9863 21.7008 13.4286 21.4753C13.8709 21.2498 14.2536 20.9228 14.5453 20.521C17.9813 15.782 19.8743 12.065 19.8743 10.055C19.8719 7.96746 19.0416 5.96606 17.5654 4.48992C16.0893 3.01377 14.0879 2.18343 12.0003 2.18105Z" fill="currentColor"></path>
  </symbol>
  <symbol xmlns="http://www.w3.org/2000/svg" viewBox="0 0 50 30" id="ic_menu">
    <path fill-rule="evenodd" clip-rule="evenodd" d="M0 2C0 0.895431 0.895432 0 2 0H48C49.1046 0 50 0.895431 50 2C50 3.10457 49.1046 4 48 4H2C0.89543 4 0 3.10457 0 2ZM0 15C0 13.8954 0.895432 13 2 13H48C49.1046 13 50 13.8954 50 15C50 16.1046 49.1046 17 48 17H2C0.89543 17 0 16.1046 0 15ZM50 28C50 26.8954 49.1046 26 48 26H2C0.89543 26 0 26.8954 0 28C0 29.1046 0.895432 30 2 30H48C49.1046 30 50 29.1046 50 28Z" fill="currentColor"></path>
  </symbol>
  <symbol xmlns="http://www.w3.org/2000/svg" viewBox="0 0 24 24" id="ic_phone">
    <path d="M13 0.999644C13 0.734427 13.1053 0.480073 13.2929 0.292537C13.4804 0.105001 13.7348 -0.000356157 14 -0.000356157C16.6513 0.00255544 19.1931 1.05706 21.0678 2.93179C22.9426 4.80653 23.9971 7.34837 24 9.99965C24 10.2649 23.8946 10.5192 23.7071 10.7068C23.5196 10.8943 23.2652 10.9996 23 10.9996C22.7348 10.9996 22.4804 10.8943 22.2929 10.7068C22.1053 10.5192 22 10.2649 22 9.99965C21.9976 7.87864 21.154 5.8452 19.6542 4.34542C18.1544 2.84565 16.121 2.00203 14 1.99964C13.7348 1.99964 13.4804 1.89429 13.2929 1.70675C13.1053 1.51921 13 1.26486 13 0.999644ZM14 5.99964C15.0609 5.99964 16.0783 6.42107 16.8284 7.17122C17.5786 7.92136 18 8.93878 18 9.99965C18 10.2649 18.1053 10.5192 18.2929 10.7068C18.4804 10.8943 18.7348 10.9996 19 10.9996C19.2652 10.9996 19.5196 10.8943 19.7071 10.7068C19.8946 10.5192 20 10.2649 20 9.99965C19.9984 8.40883 19.3657 6.88363 18.2409 5.75876C17.116 4.63388 15.5908 4.00123 14 3.99964C13.7348 3.99964 13.4804 4.105 13.2929 4.29254C13.1053 4.48007 13 4.73443 13 4.99964C13 5.26486 13.1053 5.51921 13.2929 5.70675C13.4804 5.89429 13.7348 5.99964 14 5.99964ZM23.093 16.7386C23.6725 17.3198 23.9979 18.107 23.9979 18.9276C23.9979 19.7483 23.6725 20.5355 23.093 21.1166L22.183 22.1656C13.993 30.0066 -5.93701 10.0816 1.78299 1.86564L2.93299 0.865644C3.51475 0.302321 4.29492 -0.00930708 5.10469 -0.00182132C5.91446 0.00566445 6.68873 0.331662 7.25999 0.905644C7.29099 0.936644 9.14399 3.34364 9.14399 3.34364C9.69382 3.92127 9.99989 4.68857 9.99859 5.48605C9.99728 6.28352 9.6887 7.04982 9.13699 7.62564L7.97899 9.08165C8.61983 10.6388 9.56205 12.0539 10.7515 13.2457C11.9409 14.4376 13.3542 15.3827 14.91 16.0266L16.375 14.8616C16.9509 14.3104 17.717 14.0021 18.5143 14.001C19.3115 13.9999 20.0785 14.306 20.656 14.8556C20.656 14.8556 23.062 16.7076 23.093 16.7386ZM21.717 18.1926C21.717 18.1926 19.324 16.3516 19.293 16.3206C19.087 16.1164 18.8086 16.0018 18.5185 16.0018C18.2284 16.0018 17.95 16.1164 17.744 16.3206C17.717 16.3486 15.7 17.9556 15.7 17.9556C15.5641 18.0638 15.4023 18.1348 15.2306 18.1614C15.059 18.1881 14.8833 18.1695 14.721 18.1076C12.7054 17.3572 10.8747 16.1824 9.35282 14.6627C7.83092 13.1431 6.65339 11.3141 5.89999 9.29965C5.83318 9.1351 5.81141 8.95573 5.83689 8.77998C5.86237 8.60423 5.9342 8.43844 6.04499 8.29965C6.04499 8.29965 7.65199 6.28164 7.67899 6.25564C7.88325 6.04963 7.99786 5.77126 7.99786 5.48114C7.99786 5.19103 7.88325 4.91266 7.67899 4.70664C7.64799 4.67664 5.80699 2.28164 5.80699 2.28164C5.59789 2.09415 5.32499 1.99374 5.04423 2.00099C4.76348 2.00824 4.49613 2.12261 4.29699 2.32064L3.14699 3.32064C-2.49501 10.1046 14.776 26.4176 20.721 20.7996L21.632 19.7496C21.8455 19.5519 21.9737 19.2789 21.9896 18.9883C22.0054 18.6978 21.9077 18.4125 21.717 18.1926Z" fill="currentColor"></path>
  </symbol>
  <symbol xmlns="http://www.w3.org/2000/svg" id="ic_star" viewBox="0 0 24 24">
    <g fill="currentColor" transform="translate(2 2.5)">
      <path d="M10.9788315,0.622701964 L13.2088343,5.0937337 C13.3696541,5.41898806 13.6833886,5.64532516 14.0473153,5.698638 L19.0425214,6.42627649 C19.3361902,6.46746623 19.6010526,6.62197034 19.7785029,6.8556019 C19.9559533,7.08923346 20.0313617,7.38273074 19.9880426,7.671152 C19.9534763,7.91020966 19.8407724,8.13174403 19.6669222,8.30235648 L16.0453978,11.809048 C15.7801525,12.0569606 15.6594885,12.4193205 15.7242774,12.7733882 L16.6162785,17.7090566 C16.7147938,18.2995122 16.3208523,18.8609116 15.7242774,18.9802323 C15.4801297,19.0185775 15.229908,18.9786152 15.0106765,18.8662648 L10.550671,16.5430816 C10.2203789,16.3761286 9.82840179,16.3761286 9.4981097,16.5430816 L5.03810421,18.8662648 C4.48873261,19.1584416 3.80239017,18.9584302 3.50386232,18.4191616 C3.39074686,18.2033073 3.35014981,17.9577724 3.38790218,17.7178233 L4.27990327,12.7821549 C4.34469215,12.4280873 4.22402814,12.0657274 3.95878288,11.8178148 L0.337258419,8.31112321 C0.124797095,8.10519293 0.00518811324,7.82415733 0.00518811324,7.53088433 C0.00518811324,7.23761134 0.124797095,6.95657574 0.337258419,6.75064546 C0.508415451,6.57648914 0.7350439,6.46512211 0.97949921,6.43504322 L5.97470536,5.70740472 C6.33863203,5.65409189 6.65236657,5.42775479 6.81318639,5.10250043 L8.96290904,0.622701964 C9.15090319,0.24057682 9.54799821,0.000936542622 9.97979029,0.00903094105 L10.1135905,0.00903094105 C10.489336,0.0558783885 10.8151899,0.286989836 10.9788315,0.622701964 Z"></path>
      <path d="M10.0065503,16.4115807 C9.81118897,16.4103023 9.62747134,16.4746291 9.45365767,16.5622959 L5.00773517,18.8797981 C4.47450301,19.1484697 3.7974056,18.9325826 3.50386232,18.4191616 C3.39024338,18.2066302 3.34956803,17.9636968 3.38790218,17.72659 L4.27990327,12.7996884 C4.33980187,12.4433294 4.22008857,12.0805563 3.95878288,11.8265815 L0.328338408,8.31988994 C-0.109446136,7.88870587 -0.109446136,7.19059625 0.328338408,6.75941219 C0.499576039,6.59022427 0.721593581,6.47958644 0.961659188,6.44380995 L5.97470536,5.70740472 C6.36101524,5.65133519 6.63712459,5.43773896 6.81318639,5.10250043 L8.99095422,0.571355753 C9.15691252,0.202753827 9.71488681,-0.0519721233 10.0154703,0.00903094105 C10.0065503,0.307099724 10.0065503,16.2099459 10.0065503,16.4115807 Z"></path>
    </g>
  </symbol>
  <symbol xmlns="http://www.w3.org/2000/svg" viewBox="0 0 18 22" id="ic_video_play">
    <path d="M18 11L-9.78799e-07 21.3923L-7.02746e-08 0.607695L18 11Z" fill="currentColor"></path>
  </symbol>
  <symbol xmlns="http://www.w3.org/2000/svg" viewBox="0 0 20 20" id="ic_whatsapp">
    <path d="M16.6853 3.27054C15.1077 1.67511 13.0117 0.696266 10.7757 0.510737C8.53973 0.325207 6.31107 0.945218 4.49213 2.25883C2.67319 3.57244 1.38383 5.49309 0.856845 7.67401C0.329857 9.85493 0.59997 12.1524 1.61841 14.1516L0.620606 18.996C0.609922 19.0444 0.609508 19.0945 0.61939 19.143C0.629273 19.1916 0.649233 19.2375 0.677979 19.2779C0.719147 19.339 0.777994 19.386 0.846646 19.4128C0.915297 19.4395 0.99048 19.4447 1.06214 19.4275L5.80172 18.3025C7.79546 19.2943 10.0764 19.5464 12.2386 19.0139C14.4008 18.4815 16.304 17.1992 17.6093 15.3951C18.9146 13.591 19.5374 11.3822 19.3668 9.162C19.1963 6.94176 18.2434 4.85407 16.6778 3.27054H16.6853ZM15.2036 15.0871C14.1125 16.1762 12.7076 16.896 11.1862 17.1452C9.66491 17.3944 8.10373 17.1606 6.7222 16.4765L6.05865 16.1472L3.14755 16.8357V16.7983L3.7612 13.8623L3.43692 13.2237C2.73052 11.8384 2.48111 10.2649 2.72445 8.72912C2.9678 7.19328 3.69141 5.77401 4.79144 4.67496C6.17267 3.29516 8.04516 2.52012 9.9975 2.52012C11.9498 2.52012 13.8223 3.29516 15.2036 4.67496L15.236 4.71986C16.5993 6.10404 17.3603 7.97088 17.3533 9.91367C17.3463 11.8565 16.5718 13.7178 15.1986 15.0921L15.2036 15.0871Z" fill="currentColor"></path>
    <path d="M14.9502 12.9517C14.5934 13.513 14.0272 14.199 13.3212 14.3711C12.074 14.6705 10.1756 14.3711 7.79837 12.1735L7.76844 12.146C5.70048 10.2153 5.15169 8.60629 5.27392 7.33159C5.34626 6.60569 5.94993 5.95212 6.45882 5.52307C6.53972 5.45485 6.63547 5.4065 6.7384 5.38189C6.84133 5.35727 6.94858 5.35708 7.0516 5.38132C7.15462 5.40556 7.25054 5.45356 7.33169 5.52148C7.41285 5.58941 7.47699 5.67538 7.51899 5.77252L8.2848 7.50372C8.3348 7.61515 8.35355 7.73809 8.33905 7.85937C8.32455 7.98064 8.27734 8.09569 8.20248 8.1922L7.81334 8.6911C7.73246 8.79467 7.68427 8.91999 7.67494 9.05106C7.66561 9.18213 7.69556 9.31301 7.76095 9.42699C8.1306 9.9718 8.57288 10.4636 9.07557 10.8888C9.61641 11.4093 10.2298 11.8487 10.8966 12.1934C11.0183 12.2425 11.1518 12.2542 11.2802 12.2271C11.4086 12.2 11.526 12.1353 11.6175 12.0412L12.064 11.5872C12.149 11.4959 12.2576 11.4298 12.3777 11.3963C12.4979 11.3629 12.625 11.3633 12.745 11.3977L14.566 11.919C14.6692 11.9484 14.764 12.0016 14.8428 12.0744C14.9216 12.1472 14.9821 12.2376 15.0195 12.3381C15.0569 12.4387 15.0702 12.5466 15.0581 12.6532C15.046 12.7598 15.0091 12.8621 14.9502 12.9517Z" fill="currentColor"></path>
  </symbol>
</svg>